<svg width="25" height="24" viewBox="0 0 25 24" fill="none" xmlns="http://www.w3.org/2000/svg">
<path d="M17.5 10C18.5609 10 19.5783 10.4214 20.3284 11.1716C21.0786 11.9217 21.5 12.9391 21.5 14V19C21.5 19.5304 21.2893 20.0391 20.9142 20.4142C20.5391 20.7893 20.0304 21 19.5 21H5.5C4.96957 21 4.46086 20.7893 4.08579 20.4142C3.71071 20.0391 3.5 19.5304 3.5 19V14C3.5 12.9391 3.92143 11.9217 4.67157 11.1716C5.42172 10.4214 6.43913 10 7.5 10V7H9.5V10H11.5V7H13.5V10H15.5V7H17.5V10ZM7.5 12C6.96957 12 6.46086 12.2107 6.08579 12.5858C5.71071 12.9609 5.5 13.4696 5.5 14V15H19.5V14C19.5 13.4696 19.2893 12.9609 18.9142 12.5858C18.5391 12.2107 18.0304 12 17.5 12H7.5ZM5.5 17V19H19.5V17H5.5ZM7.5 4C7.76522 4 8.01957 3.89464 8.20711 3.70711C8.39464 3.51957 8.5 3.26522 8.5 3C8.76522 3 9.01957 3.10536 9.20711 3.29289C9.39464 3.48043 9.5 3.73478 9.5 4V5C9.5 5.26522 9.39464 5.51957 9.20711 5.70711C9.01957 5.89464 8.76522 6 8.5 6C8.23478 6 7.98043 5.89464 7.79289 5.70711C7.60536 5.51957 7.5 5.26522 7.5 5V4ZM11.5 4C11.7652 4 12.0196 3.89464 12.2071 3.70711C12.3946 3.51957 12.5 3.26522 12.5 3C12.7652 3 13.0196 3.10536 13.2071 3.29289C13.3946 3.48043 13.5 3.73478 13.5 4V5C13.5 5.26522 13.3946 5.51957 13.2071 5.70711C13.0196 5.89464 12.7652 6 12.5 6C12.2348 6 11.9804 5.89464 11.7929 5.70711C11.6054 5.51957 11.5 5.26522 11.5 5V4ZM15.5 4C15.7652 4 16.0196 3.89464 16.2071 3.70711C16.3946 3.51957 16.5 3.26522 16.5 3C16.7652 3 17.0196 3.10536 17.2071 3.29289C17.3946 3.48043 17.5 3.73478 17.5 4V5C17.5 5.26522 17.3946 5.51957 17.2071 5.70711C17.0196 5.89464 16.7652 6 16.5 6C16.2348 6 15.9804 5.89464 15.7929 5.70711C15.6054 5.51957 15.5 5.26522 15.5 5V4Z" fill="#3DE3A5"/>
</svg>
