<svg width="20" height="19" viewBox="0 0 20 19" fill="none" xmlns="http://www.w3.org/2000/svg">
<path opacity="0.4" d="M2.72276 18.1672C2.70976 18.1672 2.69776 18.1672 2.68376 18.1662C2.36876 18.1502 2.05976 18.0822 1.76576 17.9632C0.318758 17.3752 -0.379242 15.7222 0.207758 14.2762L7.52876 1.45025C7.78076 0.994246 8.16276 0.612246 8.62876 0.354246C9.99376 -0.401754 11.7198 0.0952464 12.4748 1.45925L19.7478 14.1872C19.9098 14.5682 19.9788 14.8782 19.9958 15.1942C20.0348 15.9502 19.7768 16.6752 19.2708 17.2362C18.7648 17.7972 18.0698 18.1282 17.3148 18.1662L2.79476 18.1672H2.72276Z" fill="#FF598B"/>
<path fill-rule="evenodd" clip-rule="evenodd" d="M9.12451 7.02075C9.12451 6.53875 9.51751 6.14575 9.99951 6.14575C10.4815 6.14575 10.8745 6.53875 10.8745 7.02075V9.84875C10.8745 10.3318 10.4815 10.7238 9.99951 10.7238C9.51751 10.7238 9.12451 10.3318 9.12451 9.84875V7.02075ZM9.12451 13.2699C9.12451 12.7849 9.51751 12.3899 9.99951 12.3899C10.4815 12.3899 10.8745 12.7799 10.8745 13.2589C10.8745 13.7519 10.4815 14.1449 9.99951 14.1449C9.51751 14.1449 9.12451 13.7519 9.12451 13.2699Z" fill="#FF598B"/>
</svg>
