<svg width="16" height="14" viewBox="0 0 16 14" fill="none" xmlns="http://www.w3.org/2000/svg">
<path d="M12.1586 5.22874H12.1654M10.3005 1.22173C11.0649 1.51736 11.2987 2.54693 11.6112 2.87786C11.9238 3.20879 12.371 3.32131 12.6185 3.32131C13.9337 3.32131 15 4.3575 15 5.6349V9.89658C15 11.6101 13.5697 13 11.8065 13H4.19351C2.42951 13 1 11.6101 1 9.89658V5.6349C1 4.3575 2.06627 3.32131 3.38151 3.32131C3.62822 3.32131 4.07546 3.20879 4.38876 2.87786C4.7013 2.54693 4.93438 1.51736 5.6987 1.22173C6.46378 0.926092 9.53622 0.926092 10.3005 1.22173ZM10.4055 7.89679C10.4055 6.60542 9.32864 5.55893 7.99977 5.55893C6.67091 5.55893 5.59404 6.60542 5.59404 7.89679C5.59404 9.18817 6.67091 10.2347 7.99977 10.2347C9.32864 10.2347 10.4055 9.18817 10.4055 7.89679Z" stroke="#FF598B" stroke-width="1.5" stroke-linecap="round" stroke-linejoin="round"/>
</svg>
