<svg width="24" height="24" viewBox="0 0 24 24" fill="none" xmlns="http://www.w3.org/2000/svg">
<path d="M6.75 12C6.64568 11.9998 6.54248 12.0215 6.44699 12.0635C6.3515 12.1054 6.26582 12.1669 6.19543 12.2439C6.12503 12.3209 6.07147 12.4117 6.03817 12.5105C6.00486 12.6094 5.99254 12.7141 6.002 12.818C6.282 15.892 8.552 18.5 12 18.5C15.448 18.5 17.717 15.892 17.998 12.818C18.0075 12.7141 17.9951 12.6094 17.9618 12.5105C17.9285 12.4117 17.875 12.3209 17.8046 12.2439C17.7342 12.1669 17.6485 12.1054 17.553 12.0635C17.4575 12.0215 17.3543 11.9998 17.25 12H6.749H6.75ZM12 17C9.743 17 8.129 15.52 7.632 13.5H16.368C15.872 15.52 14.258 17 12 17ZM15.25 8.75C14.842 8.75 14.54 9.037 14.492 9.36C14.4628 9.55679 14.3567 9.73393 14.1969 9.85246C14.0371 9.97098 13.8368 10.0212 13.64 9.992C13.4432 9.96283 13.2661 9.85667 13.1475 9.69689C13.029 9.53711 12.9788 9.33679 13.008 9.14C13.17 8.05 14.131 7.25 15.25 7.25C16.369 7.25 17.33 8.05 17.492 9.14C17.5212 9.33679 17.471 9.53711 17.3525 9.69689C17.2339 9.85667 17.0568 9.96283 16.86 9.992C16.6632 10.0212 16.4629 9.97098 16.3031 9.85246C16.1433 9.73393 16.0372 9.55679 16.008 9.36C15.96 9.037 15.658 8.75 15.25 8.75ZM7.992 9.36C8.04 9.037 8.342 8.75 8.75 8.75C9.159 8.75 9.46 9.037 9.508 9.36C9.53717 9.55679 9.64333 9.73393 9.80311 9.85246C9.96289 9.97098 10.1632 10.0212 10.36 9.992C10.5568 9.96283 10.7339 9.85667 10.8525 9.69689C10.971 9.53711 11.0212 9.33679 10.992 9.14C10.831 8.05 9.869 7.25 8.75 7.25C7.631 7.25 6.67 8.05 6.508 9.14C6.47883 9.33679 6.52902 9.53711 6.64754 9.69689C6.76607 9.85667 6.94321 9.96283 7.14 9.992C7.33679 10.0212 7.53711 9.97098 7.69689 9.85246C7.85667 9.73393 7.96283 9.55679 7.992 9.36ZM12 2C6.477 2 2 6.477 2 12C2 17.523 6.477 22 12 22C17.523 22 22 17.523 22 12C22 6.477 17.523 2 12 2ZM3.5 12C3.5 9.74566 4.39553 7.58365 5.98959 5.98959C7.58365 4.39553 9.74566 3.5 12 3.5C14.2543 3.5 16.4163 4.39553 18.0104 5.98959C19.6045 7.58365 20.5 9.74566 20.5 12C20.5 14.2543 19.6045 16.4163 18.0104 18.0104C16.4163 19.6045 14.2543 20.5 12 20.5C9.74566 20.5 7.58365 19.6045 5.98959 18.0104C4.39553 16.4163 3.5 14.2543 3.5 12Z" fill="#686777"/>
</svg>
