<svg width="24" height="25" viewBox="0 0 24 25" fill="none" xmlns="http://www.w3.org/2000/svg">
<path d="M11.9491 15.0399C8.49909 15.0399 5.58813 15.6037 5.58813 17.7794C5.58813 19.9561 8.51789 20.5 11.9491 20.5C15.3991 20.5 18.31 19.9362 18.31 17.7605C18.31 15.5839 15.3803 15.0399 11.9491 15.0399Z" fill="#3DE3A5"/>
<path opacity="0.4" d="M11.949 12.967C14.2851 12.967 16.1583 11.0831 16.1583 8.73351C16.1583 6.38306 14.2851 4.5 11.949 4.5C9.61293 4.5 7.73975 6.38306 7.73975 8.73351C7.73975 11.0831 9.61293 12.967 11.949 12.967Z" fill="#3DE3A5"/>
<path opacity="0.4" d="M21.0879 9.71926C21.6923 7.34179 19.9203 5.20657 17.6639 5.20657C17.4186 5.20657 17.184 5.23359 16.9548 5.27952C16.9243 5.28672 16.8903 5.30203 16.8724 5.32905C16.8518 5.36327 16.867 5.4092 16.8894 5.43892C17.5672 6.39531 17.9567 7.55973 17.9567 8.8097C17.9567 10.0074 17.5995 11.1241 16.9727 12.0508C16.9082 12.1463 16.9655 12.275 17.0792 12.2949C17.2368 12.3228 17.398 12.3372 17.5627 12.3417C19.2058 12.3849 20.6805 11.3213 21.0879 9.71926Z" fill="#3DE3A5"/>
<path d="M22.8093 15.3169C22.5084 14.6721 21.7823 14.23 20.6782 14.0129C20.1571 13.885 18.7468 13.7049 17.4351 13.7292C17.4154 13.7319 17.4046 13.7455 17.4028 13.7545C17.4002 13.7671 17.4055 13.7887 17.4315 13.8022C18.0377 14.1039 20.381 15.416 20.0864 18.1834C20.0738 18.3032 20.1696 18.4067 20.2887 18.3887C20.8654 18.3059 22.349 17.9853 22.8093 16.9866C23.0636 16.4588 23.0636 15.8456 22.8093 15.3169Z" fill="#3DE3A5"/>
<path opacity="0.4" d="M7.04483 5.27979C6.8165 5.23296 6.58101 5.20685 6.33567 5.20685C4.07926 5.20685 2.30726 7.34207 2.91255 9.71953C3.31906 11.3216 4.79379 12.3852 6.43685 12.342C6.60161 12.3375 6.76368 12.3221 6.92037 12.2951C7.03409 12.2753 7.09139 12.1465 7.02692 12.0511C6.40014 11.1235 6.04288 10.0077 6.04288 8.80997C6.04288 7.5591 6.43327 6.39468 7.11109 5.43919C7.13258 5.40947 7.1487 5.36354 7.12721 5.32932C7.1093 5.30141 7.07617 5.287 7.04483 5.27979Z" fill="#3DE3A5"/>
<path d="M3.32156 14.0127C2.21752 14.2297 1.49225 14.6719 1.19139 15.3167C0.936203 15.8453 0.936203 16.4586 1.19139 16.9872C1.65163 17.985 3.13531 18.3065 3.71195 18.3885C3.83104 18.4065 3.92595 18.3038 3.91342 18.1831C3.61883 15.4166 5.9621 14.1045 6.56918 13.8028C6.59425 13.7884 6.59962 13.7677 6.59694 13.7542C6.59515 13.7452 6.5853 13.7317 6.5656 13.7299C5.25294 13.7047 3.84358 13.8848 3.32156 14.0127Z" fill="#3DE3A5"/>
</svg>
