<svg width="166" height="154" viewBox="0 0 166 154" fill="none" xmlns="http://www.w3.org/2000/svg">
<path d="M82.0346 9.84229C65.1951 9.84229 46.608 21.2757 45.5815 46.4614C45.5815 66.7505 61.9323 83.2655 82.0468 83.2655C102.161 83.2655 118.512 66.7628 118.5 46.3874C117.473 21.2757 98.8863 9.84229 82.0468 9.84229H82.0346ZM113.331 46.3874C112.451 68.0209 96.4911 77.8756 82.0346 77.8756C67.578 77.8756 51.6306 68.0209 50.7385 46.4614C50.7385 29.046 64.7796 14.8745 82.0346 14.8745C99.2896 14.8745 113.331 29.046 113.331 46.3874Z" fill="#3DE3A5"/>
<path d="M105.608 0V5.93256H122.227V22.7066H128.117V0H105.608Z" fill="#FF598B"/>
<path d="M36.001 22.7066H41.8911V5.9449H58.4985V0H36.001V22.7066Z" fill="#FF598B"/>
<path d="M41.8911 70.2164H36.001V92.923H58.4985V86.9904H41.8911V70.2164Z" fill="#FF598B"/>
<path d="M122.227 86.9904H105.608V92.923H128.117V70.2164H122.227V86.9904Z" fill="#FF598B"/>
<path d="M82.0346 19.1792C67.1259 19.1792 55.0034 31.4143 55.0034 46.4616C55.0034 57.0193 60.9791 66.1834 69.6922 70.7222V53.1465C65.855 52.0981 62.971 47.7566 62.971 42.5518C62.971 36.5699 66.7837 31.7104 71.5008 31.7104C76.2178 31.7104 80.0305 36.5575 80.0305 42.5518C80.0305 47.7443 77.1465 52.0858 73.3094 53.1465V72.2763C76.0467 73.226 78.9796 73.744 82.0346 73.744C85.0897 73.744 88.0226 73.226 90.7599 72.2763V53.1465C86.9227 52.0981 84.0388 47.7566 84.0388 42.5518C84.0388 38.5186 85.774 35.0035 88.3525 33.1287V44.4635H89.6601V32.364C90.3689 32.031 91.1265 31.8214 91.9086 31.7474V44.4635H93.2162V31.7474C93.9983 31.8214 94.7559 32.031 95.4647 32.364V44.4635H96.7723V33.1287C99.3507 34.9911 101.086 38.5063 101.086 42.5518C101.086 47.7443 98.202 52.0858 94.3649 53.1465V70.7345C103.078 66.208 109.054 57.0317 109.054 46.4739C109.054 31.439 96.9311 19.1915 82.0224 19.1915L82.0346 19.1792Z" fill="#3DE3A5"/>
</svg>
