<svg width="21" height="20" viewBox="0 0 21 20" fill="none" xmlns="http://www.w3.org/2000/svg">
<path opacity="0.4" d="M0.5 4.447C0.5 1.996 2.53024 0 5.02453 0H9.98564C12.4748 0 14.5 1.99 14.5 4.437V15.553C14.5 18.005 12.4698 20 9.97445 20H5.01537C2.52515 20 0.5 18.01 0.5 15.563V14.623V4.447Z" fill="white"/>
<path d="M20.279 9.4548L17.4332 6.5458C17.1391 6.2458 16.6657 6.2458 16.3726 6.5478C16.0804 6.8498 16.0814 7.3368 16.3745 7.6368L17.9338 9.2298H16.4388H8.0485C7.63459 9.2298 7.29858 9.5748 7.29858 9.9998C7.29858 10.4258 7.63459 10.7698 8.0485 10.7698H17.9338L16.3745 12.3628C16.0814 12.6628 16.0804 13.1498 16.3726 13.4518C16.5196 13.6028 16.7115 13.6788 16.9043 13.6788C17.0952 13.6788 17.2871 13.6028 17.4332 13.4538L20.279 10.5458C20.4202 10.4008 20.5 10.2048 20.5 9.9998C20.5 9.7958 20.4202 9.5998 20.279 9.4548Z" fill="white"/>
</svg>
