<svg width="19" height="20" viewBox="0 0 19 20" fill="none" xmlns="http://www.w3.org/2000/svg">
<path opacity="0.4" d="M13.691 0H5.31C2.27 0 0.5 1.78 0.5 4.83V15.16C0.5 18.26 2.27 20 5.31 20H13.691C16.78 20 18.5 18.26 18.5 15.16V4.83C18.5 1.78 16.78 0 13.691 0" fill="white"/>
<path fill-rule="evenodd" clip-rule="evenodd" d="M5.57996 4.64999V4.65999C5.14896 4.65999 4.79996 5.00999 4.79996 5.43999C4.79996 5.86999 5.14896 6.21999 5.57996 6.21999H8.56896C8.99996 6.21999 9.34996 5.86999 9.34996 5.42899C9.34996 4.99999 8.99996 4.64999 8.56896 4.64999H5.57996ZM13.42 10.74H5.57996C5.14896 10.74 4.79996 10.39 4.79996 9.95999C4.79996 9.52999 5.14896 9.17899 5.57996 9.17899H13.42C13.85 9.17899 14.2 9.52999 14.2 9.95999C14.2 10.39 13.85 10.74 13.42 10.74ZM13.42 15.31H5.57996C5.27996 15.35 4.98996 15.2 4.82996 14.95C4.66996 14.69 4.66996 14.36 4.82996 14.11C4.98996 13.85 5.27996 13.71 5.57996 13.74H13.42C13.819 13.78 14.12 14.12 14.12 14.53C14.12 14.929 13.819 15.27 13.42 15.31Z" fill="white"/>
</svg>
