<svg width="20" height="21" viewBox="0 0 20 21" fill="none" xmlns="http://www.w3.org/2000/svg">
<path opacity="0.4" d="M10.02 0.5C4.21 0.5 0 5.24 0 10.5C0 12.18 0.49 13.91 1.35 15.49C1.51 15.75 1.53 16.08 1.42 16.39L0.75 18.63C0.6 19.17 1.06 19.57 1.57 19.41L3.59 18.81C4.14 18.63 4.57 18.86 5.081 19.17C6.541 20.03 8.36 20.47 10 20.47C14.96 20.47 20 16.64 20 10.47C20 5.15 15.7 0.5 10.02 0.5Z" fill="#3DE3A5"/>
<path fill-rule="evenodd" clip-rule="evenodd" d="M9.98049 11.7901C9.27049 11.7801 8.70049 11.2101 8.70049 10.5001C8.70049 9.80011 9.28049 9.22011 9.98049 9.23011C10.6905 9.23011 11.2605 9.80011 11.2605 10.5101C11.2605 11.2101 10.6905 11.7901 9.98049 11.7901ZM5.37009 11.7901C4.67009 11.7901 4.09009 11.2101 4.09009 10.5101C4.09009 9.80011 4.66009 9.23011 5.37009 9.23011C6.08009 9.23011 6.65009 9.80011 6.65009 10.5101C6.65009 11.2101 6.08009 11.7801 5.37009 11.7901ZM13.3103 10.5101C13.3103 11.2101 13.8803 11.7901 14.5903 11.7901C15.3003 11.7901 15.8703 11.2101 15.8703 10.5101C15.8703 9.80011 15.3003 9.23011 14.5903 9.23011C13.8803 9.23011 13.3103 9.80011 13.3103 10.5101Z" fill="#3DE3A5"/>
</svg>
