<svg width="96" height="95" viewBox="0 0 96 95" fill="none" xmlns="http://www.w3.org/2000/svg">
<path opacity="0.4" d="M48.079 7.91669C25.0811 7.91669 8.4165 26.6792 8.4165 47.5C8.4165 54.15 10.3561 60.9979 13.7603 67.2521C14.3936 68.2813 14.4728 69.5875 14.0373 70.8146L11.3853 79.6813C10.7915 81.8188 12.6123 83.4021 14.6311 82.7688L22.6269 80.3938C24.804 79.6813 26.5061 80.5917 28.5288 81.8188C34.308 85.2229 41.5082 86.9646 47.9998 86.9646C67.6332 86.9646 87.5832 71.8042 87.5832 47.3813C87.5832 26.3229 70.5623 7.91669 48.079 7.91669" fill="#2E2474"/>
<path fill-rule="evenodd" clip-rule="evenodd" d="M47.9226 52.6067C45.1122 52.5671 42.8559 50.3108 42.8559 47.5004C42.8559 44.7296 45.1518 42.4338 47.9226 42.4733C50.733 42.4733 52.9893 44.7296 52.9893 47.54C52.9893 50.3108 50.733 52.6067 47.9226 52.6067ZM29.6731 52.6067C26.9023 52.6067 24.6064 50.3108 24.6064 47.54C24.6064 44.7296 26.8627 42.4733 29.6731 42.4733C32.4835 42.4733 34.7398 44.7296 34.7398 47.54C34.7398 50.3108 32.4835 52.5671 29.6731 52.6067ZM61.1031 47.54C61.1031 50.3108 63.3593 52.6067 66.1697 52.6067C68.9801 52.6067 71.2364 50.3108 71.2364 47.54C71.2364 44.7296 68.9801 42.4733 66.1697 42.4733C63.3593 42.4733 61.1031 44.7296 61.1031 47.54Z" fill="#2E2474"/>
</svg>
