<svg width="23" height="26" viewBox="0 0 23 26" fill="none" xmlns="http://www.w3.org/2000/svg">
<path d="M16.7695 15.1453C16.039 14.2923 15.7071 13.5531 15.7071 12.2972V11.8701C15.7071 10.2335 15.3304 9.17907 14.5115 8.12459C13.2493 6.48699 11.1244 5.5 9.04423 5.5H8.95577C6.91935 5.5 4.86106 6.44167 3.577 8.0128C2.71333 9.08842 2.29293 10.1882 2.29293 11.8701V12.2972C2.29293 13.5531 1.98284 14.2923 1.23049 15.1453C0.676907 15.7738 0.5 16.5815 0.5 17.4557C0.5 18.3309 0.787226 19.1598 1.36367 19.8336C2.11602 20.6413 3.17846 21.1569 4.26375 21.2466C5.83505 21.4258 7.40634 21.4933 9.0005 21.4933C10.5937 21.4933 12.165 21.3805 13.7372 21.2466C14.8215 21.1569 15.884 20.6413 16.6363 19.8336C17.2118 19.1598 17.5 18.3309 17.5 17.4557C17.5 16.5815 17.3231 15.7738 16.7695 15.1453Z" fill="#3DE3A5"/>
<path opacity="0.4" d="M11.0088 22.7284C10.5088 22.6216 7.46266 22.6216 6.96275 22.7284C6.53539 22.8271 6.07324 23.0567 6.07324 23.5603C6.09809 24.0407 6.37935 24.4647 6.76895 24.7336L6.76795 24.7346C7.27184 25.1274 7.86319 25.3771 8.48236 25.4668C8.81232 25.5121 9.14825 25.5101 9.49014 25.4668C10.1083 25.3771 10.6997 25.1274 11.2036 24.7346L11.2026 24.7336C11.5922 24.4647 11.8734 24.0407 11.8983 23.5603C11.8983 23.0567 11.4361 22.8271 11.0088 22.7284Z" fill="#3DE3A5"/>
<circle cx="16" cy="8" r="7" fill="#FF4D4D"/>
<path d="M15.632 12H16.782V4.71H14.702V5.75H15.632V12Z" fill="white"/>
</svg>
