<svg width="13" height="24" viewBox="0 0 13 24" fill="none" xmlns="http://www.w3.org/2000/svg">
<path d="M6 13C3.23858 13 1 15.2386 1 18C1 20.7614 3.23858 23 6 23C8.76142 23 11 20.7614 11 18C11 15.2386 8.76142 13 6 13Z" stroke="#3DE3A5" stroke-width="2" stroke-linecap="round" stroke-linejoin="round"/>
<path d="M6 13L6 6" stroke="#3DE3A5" stroke-width="2" stroke-linecap="round" stroke-linejoin="round"/>
<path d="M4.83722 6.25134L1.0436 10.0435L1.04356 10.0436C0.950617 10.1365 0.876888 10.2469 0.826585 10.3683C0.776283 10.4897 0.750393 10.6199 0.750393 10.7513C0.750393 10.8828 0.776283 11.0129 0.826585 11.1344C0.876888 11.2558 0.950618 11.3662 1.04356 11.4591C1.13651 11.5521 1.24685 11.6258 1.36829 11.6761C1.48974 11.7264 1.61989 11.7523 1.75134 11.7523C1.88279 11.7523 2.01295 11.7264 2.13439 11.6761C2.25583 11.6258 2.36617 11.5521 2.45912 11.4591L2.45915 11.4591L6.25134 7.66546L10.0435 11.4591L10.0436 11.4591C10.1365 11.5521 10.2469 11.6258 10.3683 11.6761C10.4897 11.7264 10.6199 11.7523 10.7513 11.7523C10.8828 11.7523 11.0129 11.7264 11.1344 11.6761C11.2558 11.6258 11.3662 11.5521 11.4591 11.4591L11.2823 11.2823L11.4591 11.4591C11.5521 11.3662 11.6258 11.2558 11.6761 11.1344C11.7264 11.0129 11.7523 10.8828 11.7523 10.7513C11.7523 10.6199 11.7264 10.4897 11.6761 10.3683C11.6258 10.2469 11.5521 10.1365 11.4591 10.0436L11.4591 10.0435L7.66546 6.25134L11.4591 2.45915L11.4591 2.45912C11.5521 2.36617 11.6258 2.25583 11.6761 2.13439C11.7264 2.01295 11.7523 1.88279 11.7523 1.75134C11.7523 1.61989 11.7264 1.48974 11.6761 1.36829C11.6258 1.24685 11.5521 1.13651 11.4591 1.04356C11.3662 0.950618 11.2558 0.876888 11.1344 0.826585C11.0129 0.776283 10.8828 0.750393 10.7513 0.750393C10.6199 0.750393 10.4897 0.776283 10.3683 0.826585C10.2469 0.876888 10.1365 0.950617 10.0436 1.04356L10.0435 1.0436L6.25134 4.83722L2.45934 1.04379C2.45929 1.04374 2.45924 1.04368 2.45919 1.04363C2.45917 1.04362 2.45916 1.04361 2.45915 1.0436C2.3663 0.95056 2.25602 0.876741 2.13461 0.826362C2.01312 0.775949 1.88287 0.75 1.75134 0.75C1.61981 0.75 1.48956 0.775949 1.36807 0.826362C1.24668 0.876735 1.13641 0.950543 1.04356 1.04356C0.950543 1.13641 0.876735 1.24668 0.826362 1.36807C0.775949 1.48956 0.75 1.61981 0.75 1.75134C0.75 1.88287 0.775949 2.01312 0.826362 2.13461C0.876741 2.25602 0.95056 2.3663 1.0436 2.45915C1.04361 2.45916 1.04362 2.45917 1.04363 2.45919C1.04368 2.45924 1.04374 2.45929 1.04379 2.45934L4.83722 6.25134Z" fill="#3DE3A5" stroke="#3DE3A5" stroke-width="0.5"/>
</svg>
