<svg width="20" height="22" viewBox="0 0 20 22" fill="none" xmlns="http://www.w3.org/2000/svg">
<path fill-rule="evenodd" clip-rule="evenodd" d="M18.3067 6.62361L17.6842 5.54352C17.1577 4.6296 15.9907 4.31432 15.0755 4.83872V4.83872C14.6399 5.09534 14.1201 5.16815 13.6307 5.04109C13.1413 4.91402 12.7226 4.59752 12.4668 4.16137C12.3023 3.88415 12.2139 3.56839 12.2105 3.24604V3.24604C12.2254 2.72922 12.0304 2.2284 11.67 1.85767C11.3096 1.48694 10.8145 1.27786 10.2975 1.27808H9.0435C8.53697 1.27807 8.05131 1.47991 7.694 1.83895C7.33669 2.19798 7.13717 2.68459 7.13961 3.19112V3.19112C7.1246 4.23693 6.27248 5.07681 5.22657 5.0767C4.90421 5.07336 4.58846 4.98494 4.31123 4.82041V4.82041C3.39606 4.29601 2.22911 4.61129 1.70254 5.52522L1.03435 6.62361C0.50841 7.53639 0.8194 8.70261 1.73 9.23231V9.23231C2.3219 9.57404 2.68653 10.2056 2.68653 10.8891C2.68653 11.5725 2.3219 12.2041 1.73 12.5458V12.5458C0.820556 13.0719 0.509227 14.2353 1.03435 15.1454V15.1454L1.66593 16.2346C1.91265 16.6798 2.3266 17.0083 2.81619 17.1474C3.30578 17.2866 3.83064 17.2249 4.27462 16.976V16.976C4.71108 16.7213 5.23119 16.6516 5.71934 16.7822C6.20749 16.9128 6.62324 17.233 6.87416 17.6717C7.0387 17.9489 7.12711 18.2646 7.13046 18.587V18.587C7.13046 19.6435 7.98696 20.5 9.0435 20.5H10.2975C11.3505 20.5001 12.2055 19.6491 12.2105 18.5962V18.5962C12.2081 18.088 12.4089 17.6 12.7682 17.2407C13.1275 16.8814 13.6155 16.6807 14.1236 16.6831C14.4452 16.6917 14.7596 16.7798 15.0389 16.9394V16.9394C15.9517 17.4653 17.1179 17.1544 17.6476 16.2438V16.2438L18.3067 15.1454C18.5618 14.7075 18.6318 14.186 18.5012 13.6964C18.3706 13.2067 18.0502 12.7894 17.611 12.5367V12.5367C17.1718 12.284 16.8514 11.8666 16.7208 11.3769C16.5902 10.8873 16.6603 10.3658 16.9154 9.92796C17.0812 9.63834 17.3214 9.3982 17.611 9.23231V9.23231C18.5161 8.70289 18.8264 7.54349 18.3067 6.63277V6.63277V6.62361Z" stroke="white" stroke-width="1.5" stroke-linecap="round" stroke-linejoin="round"/>
<circle cx="9.67504" cy="10.885" r="2.635" stroke="white" stroke-width="1.5" stroke-linecap="round" stroke-linejoin="round"/>
</svg>
