<svg width="23" height="18" viewBox="0 0 23 18" fill="none" xmlns="http://www.w3.org/2000/svg">
<path d="M17.3877 7.89667C18.7827 7.70067 19.8567 6.50467 19.8597 5.05567C19.8597 3.62767 18.8187 2.44367 17.4537 2.21967" stroke="white" stroke-width="1.5" stroke-linecap="round" stroke-linejoin="round"/>
<path d="M19.2285 11.2503C20.5795 11.4523 21.5225 11.9253 21.5225 12.9003C21.5225 13.5713 21.0785 14.0073 20.3605 14.2813" stroke="white" stroke-width="1.5" stroke-linecap="round" stroke-linejoin="round"/>
<path fill-rule="evenodd" clip-rule="evenodd" d="M11.3867 11.6638C8.17273 11.6638 5.42773 12.1508 5.42773 14.0958C5.42773 16.0398 8.15573 16.5408 11.3867 16.5408C14.6007 16.5408 17.3447 16.0588 17.3447 14.1128C17.3447 12.1668 14.6177 11.6638 11.3867 11.6638Z" stroke="white" stroke-width="1.5" stroke-linecap="round" stroke-linejoin="round"/>
<path fill-rule="evenodd" clip-rule="evenodd" d="M11.3867 8.88788C13.4957 8.88788 15.2057 7.17888 15.2057 5.06888C15.2057 2.95988 13.4957 1.24988 11.3867 1.24988C9.27766 1.24988 7.56766 2.95988 7.56766 5.06888C7.55966 7.17088 9.25666 8.88088 11.3587 8.88788H11.3867Z" stroke="white" stroke-width="1.5" stroke-linecap="round" stroke-linejoin="round"/>
<path d="M5.38472 7.89667C3.98872 7.70067 2.91572 6.50467 2.91272 5.05567C2.91272 3.62767 3.95372 2.44367 5.31872 2.21967" stroke="white" stroke-width="1.5" stroke-linecap="round" stroke-linejoin="round"/>
<path d="M3.54388 11.2503C2.19288 11.4523 1.24988 11.9253 1.24988 12.9003C1.24988 13.5713 1.69388 14.0073 2.41188 14.2813" stroke="white" stroke-width="1.5" stroke-linecap="round" stroke-linejoin="round"/>
</svg>
