<svg width="21" height="20" viewBox="0 0 21 20" fill="none" xmlns="http://www.w3.org/2000/svg">
<path opacity="0.4" d="M0.500244 9.07849C0.550244 11.4165 0.690244 15.4155 0.710244 15.8565C0.781244 16.7995 1.14224 17.7525 1.70424 18.4245C2.48624 19.3675 3.44924 19.7885 4.79224 19.7885C6.64824 19.7985 8.69424 19.7985 10.6812 19.7985C12.6762 19.7985 14.6122 19.7985 16.2472 19.7885C17.5712 19.7885 18.5642 19.3565 19.3362 18.4245C19.8982 17.7525 20.2592 16.7895 20.3102 15.8565C20.3302 15.4855 20.4302 11.1445 20.4902 9.07849H0.500244Z" fill="white"/>
<path d="M9.74548 13.3842V14.6782C9.74548 15.0922 10.0815 15.4282 10.4955 15.4282C10.9095 15.4282 11.2455 15.0922 11.2455 14.6782V13.3842C11.2455 12.9702 10.9095 12.6342 10.4955 12.6342C10.0815 12.6342 9.74548 12.9702 9.74548 13.3842Z" fill="white"/>
<path fill-rule="evenodd" clip-rule="evenodd" d="M8.71137 12.5564C8.61137 12.9194 8.26237 13.1514 7.88437 13.1014C5.33337 12.7454 2.89537 11.8404 0.837366 10.4814C0.626366 10.3434 0.500366 10.1074 0.500366 9.85537V6.38937C0.500366 4.28937 2.21237 2.58137 4.31737 2.58137H6.28437C6.47237 1.12937 7.70237 0.000366211 9.20437 0.000366211H11.7864C13.2874 0.000366211 14.5184 1.12937 14.7064 2.58137H16.6834C18.7824 2.58137 20.4904 4.28937 20.4904 6.38937V9.85537C20.4904 10.1074 20.3634 10.3424 20.1544 10.4814C18.0924 11.8464 15.6444 12.7554 13.0764 13.1104C13.0414 13.1154 13.0074 13.1174 12.9734 13.1174C12.6344 13.1174 12.3314 12.8884 12.2464 12.5524C12.0444 11.7564 11.3214 11.1994 10.4904 11.1994C9.64837 11.1994 8.93337 11.7444 8.71137 12.5564ZM11.7864 1.50037H9.20437C8.53137 1.50037 7.96937 1.96037 7.80137 2.58137H13.1884C13.0204 1.96037 12.4584 1.50037 11.7864 1.50037Z" fill="white"/>
</svg>
