<svg width="517" height="387" viewBox="0 0 517 387" fill="none" xmlns="http://www.w3.org/2000/svg">
<rect x="30" y="7" width="337" height="118" rx="20" fill="white"/>
<rect x="56.5" y="28.5" width="42" height="42" rx="4.5" fill="#F6FAFF" stroke="#0073FF"/>
<rect x="118" y="28" width="219" height="11" rx="5" fill="#D9D9D9"/>
<rect x="118" y="44" width="219" height="11" rx="5" fill="#D9D9D9"/>
<rect x="118" y="60" width="84" height="11" rx="5" fill="#D9D9D9"/>
<rect x="118" y="86" width="43" height="22" rx="5" fill="#0073FF" fill-opacity="0.2"/>
<path d="M129.982 92.636V98.816C129.982 99.504 129.77 100.056 129.346 100.472C128.922 100.88 128.362 101.084 127.666 101.084C126.962 101.084 126.398 100.876 125.974 100.46C125.55 100.036 125.338 99.46 125.338 98.732H126.43C126.438 99.14 126.542 99.472 126.742 99.728C126.95 99.984 127.258 100.112 127.666 100.112C128.074 100.112 128.378 99.992 128.578 99.752C128.778 99.504 128.878 99.192 128.878 98.816V92.636H129.982ZM131.725 97.688C131.725 97.016 131.861 96.428 132.133 95.924C132.405 95.412 132.777 95.016 133.249 94.736C133.729 94.456 134.261 94.316 134.845 94.316C135.421 94.316 135.921 94.44 136.345 94.688C136.769 94.936 137.085 95.248 137.293 95.624V94.424H138.397V101H137.293V99.776C137.077 100.16 136.753 100.48 136.321 100.736C135.897 100.984 135.401 101.108 134.833 101.108C134.249 101.108 133.721 100.964 133.249 100.676C132.777 100.388 132.405 99.984 132.133 99.464C131.861 98.944 131.725 98.352 131.725 97.688ZM137.293 97.7C137.293 97.204 137.193 96.772 136.993 96.404C136.793 96.036 136.521 95.756 136.177 95.564C135.841 95.364 135.469 95.264 135.061 95.264C134.653 95.264 134.281 95.36 133.945 95.552C133.609 95.744 133.341 96.024 133.141 96.392C132.941 96.76 132.841 97.192 132.841 97.688C132.841 98.192 132.941 98.632 133.141 99.008C133.341 99.376 133.609 99.66 133.945 99.86C134.281 100.052 134.653 100.148 135.061 100.148C135.469 100.148 135.841 100.052 136.177 99.86C136.521 99.66 136.793 99.376 136.993 99.008C137.193 98.632 137.293 98.196 137.293 97.7ZM142.69 99.992L144.73 94.424H145.894L143.314 101H142.042L139.462 94.424H140.638L142.69 99.992ZM146.561 97.688C146.561 97.016 146.697 96.428 146.969 95.924C147.241 95.412 147.613 95.016 148.085 94.736C148.565 94.456 149.097 94.316 149.681 94.316C150.257 94.316 150.757 94.44 151.181 94.688C151.605 94.936 151.921 95.248 152.129 95.624V94.424H153.233V101H152.129V99.776C151.913 100.16 151.589 100.48 151.157 100.736C150.733 100.984 150.237 101.108 149.669 101.108C149.085 101.108 148.557 100.964 148.085 100.676C147.613 100.388 147.241 99.984 146.969 99.464C146.697 98.944 146.561 98.352 146.561 97.688ZM152.129 97.7C152.129 97.204 152.029 96.772 151.829 96.404C151.629 96.036 151.357 95.756 151.013 95.564C150.677 95.364 150.305 95.264 149.897 95.264C149.489 95.264 149.117 95.36 148.781 95.552C148.445 95.744 148.177 96.024 147.977 96.392C147.777 96.76 147.677 97.192 147.677 97.688C147.677 98.192 147.777 98.632 147.977 99.008C148.177 99.376 148.445 99.66 148.781 99.86C149.117 100.052 149.489 100.148 149.897 100.148C150.305 100.148 150.677 100.052 151.013 99.86C151.357 99.66 151.629 99.376 151.829 99.008C152.029 98.632 152.129 98.196 152.129 97.7Z" fill="#0073FF"/>
<rect x="171" y="86" width="42" height="22" rx="5" fill="#0073FF" fill-opacity="0.2"/>
<path d="M181.887 101.072C181.679 101.072 181.503 101 181.359 100.856C181.215 100.712 181.143 100.536 181.143 100.328C181.143 100.12 181.215 99.944 181.359 99.8C181.503 99.656 181.679 99.584 181.887 99.584C182.087 99.584 182.255 99.656 182.391 99.8C182.535 99.944 182.607 100.12 182.607 100.328C182.607 100.536 182.535 100.712 182.391 100.856C182.255 101 182.087 101.072 181.887 101.072ZM190.635 101H189.543L185.151 94.34V101H184.059V92.624H185.151L189.543 99.272V92.624H190.635V101ZM198.496 97.46C198.496 97.668 198.484 97.888 198.46 98.12H193.204C193.244 98.768 193.464 99.276 193.864 99.644C194.272 100.004 194.764 100.184 195.34 100.184C195.812 100.184 196.204 100.076 196.516 99.86C196.836 99.636 197.06 99.34 197.188 98.972H198.364C198.188 99.604 197.836 100.12 197.308 100.52C196.78 100.912 196.124 101.108 195.34 101.108C194.716 101.108 194.156 100.968 193.66 100.688C193.172 100.408 192.788 100.012 192.508 99.5C192.228 98.98 192.088 98.38 192.088 97.7C192.088 97.02 192.224 96.424 192.496 95.912C192.768 95.4 193.148 95.008 193.636 94.736C194.132 94.456 194.7 94.316 195.34 94.316C195.964 94.316 196.516 94.452 196.996 94.724C197.476 94.996 197.844 95.372 198.1 95.852C198.364 96.324 198.496 96.86 198.496 97.46ZM197.368 97.232C197.368 96.816 197.276 96.46 197.092 96.164C196.908 95.86 196.656 95.632 196.336 95.48C196.024 95.32 195.676 95.24 195.292 95.24C194.74 95.24 194.268 95.416 193.876 95.768C193.492 96.12 193.272 96.608 193.216 97.232H197.368ZM201.27 95.324V99.2C201.27 99.52 201.338 99.748 201.474 99.884C201.61 100.012 201.846 100.076 202.182 100.076H202.986V101H202.002C201.394 101 200.938 100.86 200.634 100.58C200.33 100.3 200.178 99.84 200.178 99.2V95.324H199.326V94.424H200.178V92.768H201.27V94.424H202.986V95.324H201.27Z" fill="#0073FF"/>
<rect x="223" y="86" width="56" height="22" rx="5" fill="#0073FF" fill-opacity="0.2"/>
<path d="M233.325 99.14H229.677L229.005 101H227.853L230.877 92.684H232.137L235.149 101H233.997L233.325 99.14ZM233.013 98.252L231.501 94.028L229.989 98.252H233.013ZM239.671 94.304C240.471 94.304 241.119 94.548 241.615 95.036C242.111 95.516 242.359 96.212 242.359 97.124V101H241.279V97.28C241.279 96.624 241.115 96.124 240.787 95.78C240.459 95.428 240.011 95.252 239.443 95.252C238.867 95.252 238.407 95.432 238.063 95.792C237.727 96.152 237.559 96.676 237.559 97.364V101H236.467V94.424H237.559V95.36C237.775 95.024 238.067 94.764 238.435 94.58C238.811 94.396 239.223 94.304 239.671 94.304ZM246.855 94.316C247.423 94.316 247.919 94.44 248.343 94.688C248.775 94.936 249.095 95.248 249.303 95.624V94.424H250.407V101.144C250.407 101.744 250.279 102.276 250.023 102.74C249.767 103.212 249.399 103.58 248.919 103.844C248.447 104.108 247.895 104.24 247.263 104.24C246.399 104.24 245.679 104.036 245.103 103.628C244.527 103.22 244.187 102.664 244.083 101.96H245.163C245.283 102.36 245.531 102.68 245.907 102.92C246.283 103.168 246.735 103.292 247.263 103.292C247.863 103.292 248.351 103.104 248.727 102.728C249.111 102.352 249.303 101.824 249.303 101.144V99.764C249.087 100.148 248.767 100.468 248.343 100.724C247.919 100.98 247.423 101.108 246.855 101.108C246.271 101.108 245.739 100.964 245.259 100.676C244.787 100.388 244.415 99.984 244.143 99.464C243.871 98.944 243.735 98.352 243.735 97.688C243.735 97.016 243.871 96.428 244.143 95.924C244.415 95.412 244.787 95.016 245.259 94.736C245.739 94.456 246.271 94.316 246.855 94.316ZM249.303 97.7C249.303 97.204 249.203 96.772 249.003 96.404C248.803 96.036 248.531 95.756 248.187 95.564C247.851 95.364 247.479 95.264 247.071 95.264C246.663 95.264 246.291 95.36 245.955 95.552C245.619 95.744 245.351 96.024 245.151 96.392C244.951 96.76 244.851 97.192 244.851 97.688C244.851 98.192 244.951 98.632 245.151 99.008C245.351 99.376 245.619 99.66 245.955 99.86C246.291 100.052 246.663 100.148 247.071 100.148C247.479 100.148 247.851 100.052 248.187 99.86C248.531 99.66 248.803 99.376 249.003 99.008C249.203 98.632 249.303 98.196 249.303 97.7ZM258.084 94.424V101H256.992V100.028C256.784 100.364 256.492 100.628 256.116 100.82C255.748 101.004 255.34 101.096 254.892 101.096C254.38 101.096 253.92 100.992 253.512 100.784C253.104 100.568 252.78 100.248 252.54 99.824C252.308 99.4 252.192 98.884 252.192 98.276V94.424H253.272V98.132C253.272 98.78 253.436 99.28 253.764 99.632C254.092 99.976 254.54 100.148 255.108 100.148C255.692 100.148 256.152 99.968 256.488 99.608C256.824 99.248 256.992 98.724 256.992 98.036V94.424H258.084ZM261.02 92.12V101H259.928V92.12H261.02ZM262.473 97.688C262.473 97.016 262.609 96.428 262.881 95.924C263.153 95.412 263.525 95.016 263.997 94.736C264.477 94.456 265.009 94.316 265.593 94.316C266.169 94.316 266.669 94.44 267.093 94.688C267.517 94.936 267.833 95.248 268.041 95.624V94.424H269.145V101H268.041V99.776C267.825 100.16 267.501 100.48 267.069 100.736C266.645 100.984 266.149 101.108 265.581 101.108C264.997 101.108 264.469 100.964 263.997 100.676C263.525 100.388 263.153 99.984 262.881 99.464C262.609 98.944 262.473 98.352 262.473 97.688ZM268.041 97.7C268.041 97.204 267.941 96.772 267.741 96.404C267.541 96.036 267.269 95.756 266.925 95.564C266.589 95.364 266.217 95.264 265.809 95.264C265.401 95.264 265.029 95.36 264.693 95.552C264.357 95.744 264.089 96.024 263.889 96.392C263.689 96.76 263.589 97.192 263.589 97.688C263.589 98.192 263.689 98.632 263.889 99.008C264.089 99.376 264.357 99.66 264.693 99.86C265.029 100.052 265.401 100.148 265.809 100.148C266.217 100.148 266.589 100.052 266.925 99.86C267.269 99.66 267.541 99.376 267.741 99.008C267.941 98.632 268.041 98.196 268.041 97.7ZM272.082 95.492C272.274 95.116 272.546 94.824 272.898 94.616C273.258 94.408 273.694 94.304 274.206 94.304V95.432H273.918C272.694 95.432 272.082 96.096 272.082 97.424V101H270.99V94.424H272.082V95.492Z" fill="#0073FF"/>
<path fill-rule="evenodd" clip-rule="evenodd" d="M90 47C90 50.4478 88.6304 53.7544 86.1924 56.1924C83.7544 58.6304 80.4478 60 77 60C73.5522 60 70.2456 58.6304 67.8076 56.1924C65.3696 53.7544 64 50.4478 64 47C64 43.5522 65.3696 40.2456 67.8076 37.8076C70.2456 35.3696 73.5522 34 77 34C80.4478 34 83.7544 35.3696 86.1924 37.8076C88.6304 40.2456 90 43.5522 90 47ZM80.25 42.125C80.25 42.987 79.9076 43.8136 79.2981 44.4231C78.6886 45.0326 77.862 45.375 77 45.375C76.138 45.375 75.3114 45.0326 74.7019 44.4231C74.0924 43.8136 73.75 42.987 73.75 42.125C73.75 41.263 74.0924 40.4364 74.7019 39.8269C75.3114 39.2174 76.138 38.875 77 38.875C77.862 38.875 78.6886 39.2174 79.2981 39.8269C79.9076 40.4364 80.25 41.263 80.25 42.125ZM77 48.625C75.4442 48.6247 73.9211 49.071 72.6116 49.911C71.302 50.751 70.2612 51.9493 69.6128 53.3635C70.5271 54.4272 71.6607 55.2806 72.9358 55.8652C74.2109 56.4497 75.5973 56.7515 77 56.75C78.4027 56.7515 79.7891 56.4497 81.0642 55.8652C82.3393 55.2806 83.4729 54.4272 84.3872 53.3635C83.7388 51.9493 82.698 50.751 81.3885 49.911C80.0789 49.071 78.5558 48.6247 77 48.625Z" fill="#949391"/>
<g filter="url(#filter0_d_350_372)">
<rect x="90" y="86" width="337" height="207" rx="20" fill="white"/>
</g>
<rect x="102" y="251" width="315" height="1" fill="#EDF2F6"/>
<path d="M227.88 273.04C227.88 273.707 227.713 274.333 227.38 274.92C227.06 275.507 226.58 276 225.94 276.4C225.313 276.8 224.567 277.04 223.7 277.12V278.74H222.4V277.12C221.147 277 220.133 276.607 219.36 275.94C218.587 275.273 218.2 274.393 218.2 273.3H220.64C220.68 273.82 220.847 274.253 221.14 274.6C221.433 274.933 221.853 275.147 222.4 275.24V270.84C221.507 270.613 220.78 270.387 220.22 270.16C219.66 269.92 219.18 269.547 218.78 269.04C218.393 268.533 218.2 267.84 218.2 266.96C218.2 265.853 218.587 264.94 219.36 264.22C220.133 263.487 221.147 263.06 222.4 262.94V261.32H223.7V262.94C224.873 263.047 225.813 263.42 226.52 264.06C227.24 264.687 227.647 265.553 227.74 266.66H225.3C225.26 266.247 225.1 265.88 224.82 265.56C224.54 265.227 224.167 265 223.7 264.88V269.2C224.593 269.413 225.32 269.64 225.88 269.88C226.44 270.107 226.913 270.473 227.3 270.98C227.687 271.473 227.88 272.16 227.88 273.04ZM220.52 266.84C220.52 267.387 220.68 267.813 221 268.12C221.333 268.427 221.8 268.673 222.4 268.86V264.82C221.827 264.887 221.367 265.093 221.02 265.44C220.687 265.787 220.52 266.253 220.52 266.84ZM223.7 275.24C224.287 275.147 224.747 274.913 225.08 274.54C225.413 274.153 225.58 273.693 225.58 273.16C225.58 272.627 225.413 272.213 225.08 271.92C224.76 271.613 224.3 271.367 223.7 271.18V275.24ZM234.048 273.04C234.181 273.707 234.468 274.213 234.908 274.56C235.348 274.907 235.941 275.08 236.688 275.08C237.634 275.08 238.328 274.707 238.768 273.96C239.208 273.213 239.428 271.94 239.428 270.14C239.108 270.593 238.654 270.947 238.068 271.2C237.494 271.44 236.868 271.56 236.188 271.56C235.321 271.56 234.534 271.387 233.828 271.04C233.121 270.68 232.561 270.153 232.148 269.46C231.748 268.753 231.548 267.9 231.548 266.9C231.548 265.433 231.974 264.267 232.828 263.4C233.694 262.52 234.881 262.08 236.388 262.08C238.201 262.08 239.488 262.687 240.248 263.9C241.021 265.1 241.408 266.947 241.408 269.44C241.408 271.16 241.261 272.567 240.968 273.66C240.688 274.753 240.194 275.58 239.488 276.14C238.781 276.7 237.801 276.98 236.548 276.98C235.121 276.98 234.021 276.607 233.248 275.86C232.474 275.113 232.041 274.173 231.948 273.04H234.048ZM236.588 269.64C237.388 269.64 238.014 269.393 238.468 268.9C238.934 268.393 239.168 267.727 239.168 266.9C239.168 265.98 238.921 265.267 238.428 264.76C237.948 264.24 237.288 263.98 236.448 263.98C235.608 263.98 234.941 264.247 234.448 264.78C233.968 265.3 233.728 265.987 233.728 266.84C233.728 267.653 233.961 268.327 234.428 268.86C234.908 269.38 235.628 269.64 236.588 269.64ZM246.743 273.04C246.876 273.707 247.163 274.213 247.603 274.56C248.043 274.907 248.636 275.08 249.383 275.08C250.33 275.08 251.023 274.707 251.463 273.96C251.903 273.213 252.123 271.94 252.123 270.14C251.803 270.593 251.35 270.947 250.763 271.2C250.19 271.44 249.563 271.56 248.883 271.56C248.016 271.56 247.23 271.387 246.523 271.04C245.816 270.68 245.256 270.153 244.843 269.46C244.443 268.753 244.243 267.9 244.243 266.9C244.243 265.433 244.67 264.267 245.523 263.4C246.39 262.52 247.576 262.08 249.083 262.08C250.896 262.08 252.183 262.687 252.943 263.9C253.716 265.1 254.103 266.947 254.103 269.44C254.103 271.16 253.956 272.567 253.663 273.66C253.383 274.753 252.89 275.58 252.183 276.14C251.476 276.7 250.496 276.98 249.243 276.98C247.816 276.98 246.716 276.607 245.943 275.86C245.17 275.113 244.736 274.173 244.643 273.04H246.743ZM249.283 269.64C250.083 269.64 250.71 269.393 251.163 268.9C251.63 268.393 251.863 267.727 251.863 266.9C251.863 265.98 251.616 265.267 251.123 264.76C250.643 264.24 249.983 263.98 249.143 263.98C248.303 263.98 247.636 264.247 247.143 264.78C246.663 265.3 246.423 265.987 246.423 266.84C246.423 267.653 246.656 268.327 247.123 268.86C247.603 269.38 248.323 269.64 249.283 269.64ZM259.398 274.26L256.978 279.78H255.498L256.918 274.26H259.398ZM270.491 264.38H263.791V268.36C264.071 267.987 264.484 267.673 265.031 267.42C265.591 267.167 266.184 267.04 266.811 267.04C267.931 267.04 268.837 267.28 269.531 267.76C270.237 268.24 270.737 268.847 271.031 269.58C271.337 270.313 271.491 271.087 271.491 271.9C271.491 272.887 271.297 273.767 270.911 274.54C270.537 275.3 269.971 275.9 269.211 276.34C268.464 276.78 267.544 277 266.451 277C264.997 277 263.831 276.64 262.951 275.92C262.071 275.2 261.544 274.247 261.371 273.06H263.591C263.737 273.687 264.064 274.187 264.571 274.56C265.077 274.92 265.711 275.1 266.471 275.1C267.417 275.1 268.124 274.813 268.591 274.24C269.071 273.667 269.311 272.907 269.311 271.96C269.311 271 269.071 270.267 268.591 269.76C268.111 269.24 267.404 268.98 266.471 268.98C265.817 268.98 265.264 269.147 264.811 269.48C264.371 269.8 264.051 270.24 263.851 270.8H261.691V262.38H270.491V264.38ZM276.704 273.04C276.837 273.707 277.124 274.213 277.564 274.56C278.004 274.907 278.597 275.08 279.344 275.08C280.291 275.08 280.984 274.707 281.424 273.96C281.864 273.213 282.084 271.94 282.084 270.14C281.764 270.593 281.311 270.947 280.724 271.2C280.151 271.44 279.524 271.56 278.844 271.56C277.977 271.56 277.191 271.387 276.484 271.04C275.777 270.68 275.217 270.153 274.804 269.46C274.404 268.753 274.204 267.9 274.204 266.9C274.204 265.433 274.631 264.267 275.484 263.4C276.351 262.52 277.537 262.08 279.044 262.08C280.857 262.08 282.144 262.687 282.904 263.9C283.677 265.1 284.064 266.947 284.064 269.44C284.064 271.16 283.917 272.567 283.624 273.66C283.344 274.753 282.851 275.58 282.144 276.14C281.437 276.7 280.457 276.98 279.204 276.98C277.777 276.98 276.677 276.607 275.904 275.86C275.131 275.113 274.697 274.173 274.604 273.04H276.704ZM279.244 269.64C280.044 269.64 280.671 269.393 281.124 268.9C281.591 268.393 281.824 267.727 281.824 266.9C281.824 265.98 281.577 265.267 281.084 264.76C280.604 264.24 279.944 263.98 279.104 263.98C278.264 263.98 277.597 264.247 277.104 264.78C276.624 265.3 276.384 265.987 276.384 266.84C276.384 267.653 276.617 268.327 277.084 268.86C277.564 269.38 278.284 269.64 279.244 269.64ZM286.279 273.96V272.24L292.999 262.6H295.759V271.98H297.619V273.96H295.759V277H293.519V273.96H286.279ZM293.619 264.92L288.899 271.98H293.619V264.92Z" fill="#0073FF"/>
<path d="M92.717 185.319C106.585 185.319 136.714 176.326 150.81 163.383C164.906 150.441 188.703 216.383 205.08 216.383C221.457 216.383 233.342 216.383 248.268 216.383C263.194 216.383 297.59 198.637 315.915 198.637C334.241 198.637 353.397 202.12 370.95 202.12C388.503 202.12 409.564 166.517 425.985 166.517" stroke="#01B753" stroke-width="2" stroke-linecap="round"/>
<path fill-rule="evenodd" clip-rule="evenodd" d="M90.0369 185.448C104.058 185.448 134.521 176.52 148.774 163.671C163.026 150.822 185.542 216.287 202.1 216.287C218.659 216.287 233.335 216.287 248.427 216.287C263.518 216.287 288.507 199.331 307.035 199.331C325.564 199.331 361.57 205.673 379.38 199.331C397.191 192.99 410.396 166.782 427 166.782C426.892 172.368 427 250 427 250L90.0369 249.222C90.0369 249.222 89.9631 191.858 90.0369 185.448Z" fill="url(#paint0_linear_350_372)"/>
<ellipse cx="423.596" cy="165.7" rx="3.40404" ry="4" fill="#01B753"/>
<ellipse cx="379.58" cy="198.604" rx="3.40404" ry="4" fill="#01B753"/>
<ellipse cx="308.036" cy="198.604" rx="3.40404" ry="4" fill="#01B753"/>
<ellipse cx="250.076" cy="215.839" rx="3.40404" ry="4" fill="#01B753"/>
<ellipse cx="202.984" cy="215.839" rx="3.40404" ry="4" fill="#01B753"/>
<ellipse cx="155.892" cy="161" rx="3.40404" ry="4" fill="#01B753"/>
<ellipse cx="93.404" cy="184.502" rx="3.40404" ry="4" fill="#01B753"/>
<path d="M122.952 119.872H118.504L117.768 122H115.416L119.432 110.816H122.04L126.056 122H123.688L122.952 119.872ZM122.344 118.08L120.728 113.408L119.112 118.08H122.344ZM129.797 114.416C130.085 114.011 130.48 113.675 130.981 113.408C131.493 113.131 132.074 112.992 132.725 112.992C133.482 112.992 134.165 113.179 134.773 113.552C135.392 113.925 135.877 114.459 136.229 115.152C136.592 115.835 136.773 116.629 136.773 117.536C136.773 118.443 136.592 119.248 136.229 119.952C135.877 120.645 135.392 121.184 134.773 121.568C134.165 121.952 133.482 122.144 132.725 122.144C132.074 122.144 131.498 122.011 130.997 121.744C130.506 121.477 130.106 121.141 129.797 120.736V126.224H127.557V113.136H129.797V114.416ZM134.485 117.536C134.485 117.003 134.373 116.544 134.149 116.16C133.936 115.765 133.648 115.467 133.285 115.264C132.933 115.061 132.549 114.96 132.133 114.96C131.728 114.96 131.344 115.067 130.981 115.28C130.629 115.483 130.341 115.781 130.117 116.176C129.904 116.571 129.797 117.035 129.797 117.568C129.797 118.101 129.904 118.565 130.117 118.96C130.341 119.355 130.629 119.659 130.981 119.872C131.344 120.075 131.728 120.176 132.133 120.176C132.549 120.176 132.933 120.069 133.285 119.856C133.648 119.643 133.936 119.339 134.149 118.944C134.373 118.549 134.485 118.08 134.485 117.536ZM146.641 117.376C146.641 117.696 146.62 117.984 146.577 118.24H140.097C140.15 118.88 140.374 119.381 140.769 119.744C141.164 120.107 141.649 120.288 142.225 120.288C143.057 120.288 143.649 119.931 144.001 119.216H146.417C146.161 120.069 145.67 120.773 144.945 121.328C144.22 121.872 143.329 122.144 142.273 122.144C141.42 122.144 140.652 121.957 139.969 121.584C139.297 121.2 138.769 120.661 138.385 119.968C138.012 119.275 137.825 118.475 137.825 117.568C137.825 116.651 138.012 115.845 138.385 115.152C138.758 114.459 139.281 113.925 139.953 113.552C140.625 113.179 141.398 112.992 142.273 112.992C143.116 112.992 143.868 113.173 144.529 113.536C145.201 113.899 145.718 114.416 146.081 115.088C146.454 115.749 146.641 116.512 146.641 117.376ZM144.321 116.736C144.31 116.16 144.102 115.701 143.697 115.36C143.292 115.008 142.796 114.832 142.209 114.832C141.654 114.832 141.185 115.003 140.801 115.344C140.428 115.675 140.198 116.139 140.113 116.736H144.321ZM150.516 114.512C150.804 114.043 151.177 113.675 151.636 113.408C152.105 113.141 152.639 113.008 153.236 113.008V115.36H152.644C151.94 115.36 151.407 115.525 151.044 115.856C150.692 116.187 150.516 116.763 150.516 117.584V122H148.276V113.136H150.516V114.512ZM158.537 120.224C159.443 120.224 160.035 119.819 160.313 119.008H162.729C162.505 119.872 162.089 120.576 161.481 121.12C160.883 121.664 160.131 121.989 159.225 122.096V122.72C159.811 122.72 160.302 122.869 160.697 123.168C161.102 123.467 161.305 123.899 161.305 124.464C161.305 125.04 161.097 125.483 160.681 125.792C160.275 126.101 159.774 126.256 159.177 126.256H156.905V124.944H158.809C159.065 124.944 159.257 124.907 159.385 124.832C159.523 124.757 159.593 124.624 159.593 124.432C159.593 124.24 159.523 124.107 159.385 124.032C159.257 123.968 159.065 123.936 158.809 123.936H157.817V122.096C157.091 121.989 156.451 121.739 155.897 121.344C155.353 120.939 154.926 120.416 154.617 119.776C154.318 119.125 154.169 118.389 154.169 117.568C154.169 116.651 154.355 115.851 154.729 115.168C155.102 114.475 155.619 113.941 156.281 113.568C156.942 113.184 157.699 112.992 158.553 112.992C159.651 112.992 160.558 113.269 161.273 113.824C161.998 114.368 162.483 115.136 162.729 116.128H160.313C160.185 115.744 159.966 115.445 159.657 115.232C159.358 115.008 158.985 114.896 158.537 114.896C157.897 114.896 157.39 115.131 157.017 115.6C156.643 116.059 156.457 116.715 156.457 117.568C156.457 118.411 156.643 119.067 157.017 119.536C157.39 119.995 157.897 120.224 158.537 120.224ZM172.738 113.136V122H170.482V120.88C170.194 121.264 169.815 121.568 169.346 121.792C168.887 122.005 168.386 122.112 167.842 122.112C167.148 122.112 166.535 121.968 166.002 121.68C165.468 121.381 165.047 120.949 164.738 120.384C164.439 119.808 164.29 119.125 164.29 118.336V113.136H166.53V118.016C166.53 118.72 166.706 119.264 167.058 119.648C167.41 120.021 167.89 120.208 168.498 120.208C169.116 120.208 169.602 120.021 169.954 119.648C170.306 119.264 170.482 118.72 170.482 118.016V113.136H172.738ZM178.184 117.536C178.184 116.64 178.36 115.845 178.712 115.152C179.075 114.459 179.566 113.925 180.184 113.552C180.803 113.179 181.491 112.992 182.248 112.992C182.824 112.992 183.374 113.12 183.896 113.376C184.419 113.621 184.835 113.952 185.144 114.368V110.16H187.416V122H185.144V120.688C184.867 121.125 184.478 121.477 183.976 121.744C183.475 122.011 182.894 122.144 182.232 122.144C181.486 122.144 180.803 121.952 180.184 121.568C179.566 121.184 179.075 120.645 178.712 119.952C178.36 119.248 178.184 118.443 178.184 117.536ZM185.16 117.568C185.16 117.024 185.054 116.56 184.84 116.176C184.627 115.781 184.339 115.483 183.976 115.28C183.614 115.067 183.224 114.96 182.808 114.96C182.392 114.96 182.008 115.061 181.656 115.264C181.304 115.467 181.016 115.765 180.792 116.16C180.579 116.544 180.472 117.003 180.472 117.536C180.472 118.069 180.579 118.539 180.792 118.944C181.016 119.339 181.304 119.643 181.656 119.856C182.019 120.069 182.403 120.176 182.808 120.176C183.224 120.176 183.614 120.075 183.976 119.872C184.339 119.659 184.627 119.36 184.84 118.976C185.054 118.581 185.16 118.112 185.16 117.568ZM197.844 117.376C197.844 117.696 197.823 117.984 197.78 118.24H191.3C191.353 118.88 191.577 119.381 191.972 119.744C192.367 120.107 192.852 120.288 193.428 120.288C194.26 120.288 194.852 119.931 195.204 119.216H197.62C197.364 120.069 196.873 120.773 196.148 121.328C195.423 121.872 194.532 122.144 193.476 122.144C192.623 122.144 191.855 121.957 191.172 121.584C190.5 121.2 189.972 120.661 189.588 119.968C189.215 119.275 189.028 118.475 189.028 117.568C189.028 116.651 189.215 115.845 189.588 115.152C189.961 114.459 190.484 113.925 191.156 113.552C191.828 113.179 192.601 112.992 193.476 112.992C194.319 112.992 195.071 113.173 195.732 113.536C196.404 113.899 196.921 114.416 197.284 115.088C197.657 115.749 197.844 116.512 197.844 117.376ZM195.524 116.736C195.513 116.16 195.305 115.701 194.9 115.36C194.495 115.008 193.999 114.832 193.412 114.832C192.857 114.832 192.388 115.003 192.004 115.344C191.631 115.675 191.401 116.139 191.316 116.736H195.524ZM202.871 122.144C202.146 122.144 201.495 122.016 200.919 121.76C200.343 121.493 199.884 121.136 199.543 120.688C199.212 120.24 199.031 119.744 198.999 119.2H201.255C201.298 119.541 201.463 119.824 201.751 120.048C202.05 120.272 202.418 120.384 202.855 120.384C203.282 120.384 203.612 120.299 203.847 120.128C204.092 119.957 204.215 119.739 204.215 119.472C204.215 119.184 204.066 118.971 203.767 118.832C203.479 118.683 203.015 118.523 202.375 118.352C201.714 118.192 201.17 118.027 200.743 117.856C200.327 117.685 199.964 117.424 199.655 117.072C199.356 116.72 199.207 116.245 199.207 115.648C199.207 115.157 199.346 114.709 199.623 114.304C199.911 113.899 200.316 113.579 200.839 113.344C201.372 113.109 201.996 112.992 202.711 112.992C203.767 112.992 204.61 113.259 205.239 113.792C205.868 114.315 206.215 115.024 206.279 115.92H204.135C204.103 115.568 203.954 115.291 203.687 115.088C203.431 114.875 203.084 114.768 202.647 114.768C202.242 114.768 201.927 114.843 201.703 114.992C201.49 115.141 201.383 115.349 201.383 115.616C201.383 115.915 201.532 116.144 201.831 116.304C202.13 116.453 202.594 116.608 203.223 116.768C203.863 116.928 204.391 117.093 204.807 117.264C205.223 117.435 205.58 117.701 205.879 118.064C206.188 118.416 206.348 118.885 206.359 119.472C206.359 119.984 206.215 120.443 205.927 120.848C205.65 121.253 205.244 121.573 204.711 121.808C204.188 122.032 203.575 122.144 202.871 122.144ZM215.402 122.144C214.677 122.144 214.026 122.016 213.45 121.76C212.874 121.493 212.416 121.136 212.074 120.688C211.744 120.24 211.562 119.744 211.53 119.2H213.786C213.829 119.541 213.994 119.824 214.282 120.048C214.581 120.272 214.949 120.384 215.386 120.384C215.813 120.384 216.144 120.299 216.378 120.128C216.624 119.957 216.746 119.739 216.746 119.472C216.746 119.184 216.597 118.971 216.298 118.832C216.01 118.683 215.546 118.523 214.906 118.352C214.245 118.192 213.701 118.027 213.274 117.856C212.858 117.685 212.496 117.424 212.186 117.072C211.888 116.72 211.738 116.245 211.738 115.648C211.738 115.157 211.877 114.709 212.154 114.304C212.442 113.899 212.848 113.579 213.37 113.344C213.904 113.109 214.528 112.992 215.242 112.992C216.298 112.992 217.141 113.259 217.77 113.792C218.4 114.315 218.746 115.024 218.81 115.92H216.666C216.634 115.568 216.485 115.291 216.218 115.088C215.962 114.875 215.616 114.768 215.178 114.768C214.773 114.768 214.458 114.843 214.234 114.992C214.021 115.141 213.914 115.349 213.914 115.616C213.914 115.915 214.064 116.144 214.362 116.304C214.661 116.453 215.125 116.608 215.754 116.768C216.394 116.928 216.922 117.093 217.338 117.264C217.754 117.435 218.112 117.701 218.41 118.064C218.72 118.416 218.88 118.885 218.89 119.472C218.89 119.984 218.746 120.443 218.458 120.848C218.181 121.253 217.776 121.573 217.242 121.808C216.72 122.032 216.106 122.144 215.402 122.144ZM220.153 117.536C220.153 116.64 220.329 115.845 220.681 115.152C221.044 114.459 221.529 113.925 222.137 113.552C222.756 113.179 223.444 112.992 224.201 112.992C224.862 112.992 225.438 113.125 225.929 113.392C226.43 113.659 226.83 113.995 227.129 114.4V113.136H229.385V122H227.129V120.704C226.841 121.12 226.441 121.467 225.929 121.744C225.428 122.011 224.846 122.144 224.185 122.144C223.438 122.144 222.756 121.952 222.137 121.568C221.529 121.184 221.044 120.645 220.681 119.952C220.329 119.248 220.153 118.443 220.153 117.536ZM227.129 117.568C227.129 117.024 227.022 116.56 226.809 116.176C226.596 115.781 226.308 115.483 225.945 115.28C225.582 115.067 225.193 114.96 224.777 114.96C224.361 114.96 223.977 115.061 223.625 115.264C223.273 115.467 222.985 115.765 222.761 116.16C222.548 116.544 222.441 117.003 222.441 117.536C222.441 118.069 222.548 118.539 222.761 118.944C222.985 119.339 223.273 119.643 223.625 119.856C223.988 120.069 224.372 120.176 224.777 120.176C225.193 120.176 225.582 120.075 225.945 119.872C226.308 119.659 226.596 119.36 226.809 118.976C227.022 118.581 227.129 118.112 227.129 117.568ZM233.813 110.16V122H231.573V110.16H233.813ZM235.45 117.536C235.45 116.64 235.626 115.845 235.978 115.152C236.341 114.459 236.826 113.925 237.434 113.552C238.053 113.179 238.741 112.992 239.498 112.992C240.159 112.992 240.735 113.125 241.226 113.392C241.727 113.659 242.127 113.995 242.426 114.4V113.136H244.682V122H242.426V120.704C242.138 121.12 241.738 121.467 241.226 121.744C240.725 122.011 240.143 122.144 239.482 122.144C238.735 122.144 238.053 121.952 237.434 121.568C236.826 121.184 236.341 120.645 235.978 119.952C235.626 119.248 235.45 118.443 235.45 117.536ZM242.426 117.568C242.426 117.024 242.319 116.56 242.106 116.176C241.893 115.781 241.605 115.483 241.242 115.28C240.879 115.067 240.49 114.96 240.074 114.96C239.658 114.96 239.274 115.061 238.922 115.264C238.57 115.467 238.282 115.765 238.058 116.16C237.845 116.544 237.738 117.003 237.738 117.536C237.738 118.069 237.845 118.539 238.058 118.944C238.282 119.339 238.57 119.643 238.922 119.856C239.285 120.069 239.669 120.176 240.074 120.176C240.49 120.176 240.879 120.075 241.242 119.872C241.605 119.659 241.893 119.36 242.106 118.976C242.319 118.581 242.426 118.112 242.426 117.568ZM248.006 112.08C247.611 112.08 247.28 111.957 247.014 111.712C246.758 111.456 246.63 111.141 246.63 110.768C246.63 110.395 246.758 110.085 247.014 109.84C247.28 109.584 247.611 109.456 248.006 109.456C248.4 109.456 248.726 109.584 248.982 109.84C249.248 110.085 249.382 110.395 249.382 110.768C249.382 111.141 249.248 111.456 248.982 111.712C248.726 111.957 248.4 112.08 248.006 112.08ZM249.11 113.136V122H246.87V113.136H249.11ZM253.563 114.512C253.851 114.043 254.224 113.675 254.683 113.408C255.152 113.141 255.685 113.008 256.283 113.008V115.36H255.691C254.987 115.36 254.453 115.525 254.091 115.856C253.739 116.187 253.563 116.763 253.563 117.584V122H251.323V113.136H253.563V114.512ZM266.032 117.376C266.032 117.696 266.01 117.984 265.968 118.24H259.488C259.541 118.88 259.765 119.381 260.16 119.744C260.554 120.107 261.04 120.288 261.616 120.288C262.448 120.288 263.04 119.931 263.392 119.216H265.808C265.552 120.069 265.061 120.773 264.336 121.328C263.61 121.872 262.72 122.144 261.664 122.144C260.81 122.144 260.042 121.957 259.36 121.584C258.688 121.2 258.16 120.661 257.776 119.968C257.402 119.275 257.215 118.475 257.215 117.568C257.215 116.651 257.402 115.845 257.776 115.152C258.149 114.459 258.672 113.925 259.344 113.552C260.016 113.179 260.789 112.992 261.664 112.992C262.506 112.992 263.258 113.173 263.92 113.536C264.592 113.899 265.109 114.416 265.472 115.088C265.845 115.749 266.032 116.512 266.032 117.376ZM263.712 116.736C263.701 116.16 263.493 115.701 263.088 115.36C262.682 115.008 262.186 114.832 261.6 114.832C261.045 114.832 260.576 115.003 260.192 115.344C259.818 115.675 259.589 116.139 259.504 116.736H263.712ZM271.059 122.144C270.333 122.144 269.683 122.016 269.107 121.76C268.531 121.493 268.072 121.136 267.731 120.688C267.4 120.24 267.219 119.744 267.187 119.2H269.443C269.485 119.541 269.651 119.824 269.939 120.048C270.237 120.272 270.605 120.384 271.043 120.384C271.469 120.384 271.8 120.299 272.035 120.128C272.28 119.957 272.403 119.739 272.403 119.472C272.403 119.184 272.253 118.971 271.955 118.832C271.667 118.683 271.203 118.523 270.562 118.352C269.901 118.192 269.357 118.027 268.931 117.856C268.515 117.685 268.152 117.424 267.843 117.072C267.544 116.72 267.395 116.245 267.395 115.648C267.395 115.157 267.533 114.709 267.811 114.304C268.099 113.899 268.504 113.579 269.027 113.344C269.56 113.109 270.184 112.992 270.899 112.992C271.955 112.992 272.797 113.259 273.427 113.792C274.056 114.315 274.403 115.024 274.467 115.92H272.323C272.291 115.568 272.141 115.291 271.875 115.088C271.619 114.875 271.272 114.768 270.835 114.768C270.429 114.768 270.115 114.843 269.891 114.992C269.677 115.141 269.571 115.349 269.571 115.616C269.571 115.915 269.72 116.144 270.019 116.304C270.317 116.453 270.781 116.608 271.411 116.768C272.051 116.928 272.579 117.093 272.995 117.264C273.411 117.435 273.768 117.701 274.067 118.064C274.376 118.416 274.536 118.885 274.547 119.472C274.547 119.984 274.403 120.443 274.115 120.848C273.837 121.253 273.432 121.573 272.899 121.808C272.376 122.032 271.763 122.144 271.059 122.144Z" fill="#413C3B"/>
<defs>
<filter id="filter0_d_350_372" x="0" y="0" width="517" height="387" filterUnits="userSpaceOnUse" color-interpolation-filters="sRGB">
<feFlood flood-opacity="0" result="BackgroundImageFix"/>
<feColorMatrix in="SourceAlpha" type="matrix" values="0 0 0 0 0 0 0 0 0 0 0 0 0 0 0 0 0 0 127 0" result="hardAlpha"/>
<feOffset dy="4"/>
<feGaussianBlur stdDeviation="45"/>
<feComposite in2="hardAlpha" operator="out"/>
<feColorMatrix type="matrix" values="0 0 0 0 0 0 0 0 0 0 0 0 0 0 0 0 0 0 0.1 0"/>
<feBlend mode="normal" in2="BackgroundImageFix" result="effect1_dropShadow_350_372"/>
<feBlend mode="normal" in="SourceGraphic" in2="effect1_dropShadow_350_372" result="shape"/>
</filter>
<linearGradient id="paint0_linear_350_372" x1="89.9999" y1="162" x2="89.9999" y2="250" gradientUnits="userSpaceOnUse">
<stop stop-color="#00FF66" stop-opacity="0.31728"/>
<stop offset="1" stop-color="#00FF57" stop-opacity="0.01"/>
</linearGradient>
</defs>
</svg>
