<svg width="1440" height="984" viewBox="0 0 1440 984" fill="none" xmlns="http://www.w3.org/2000/svg">
<rect y="185" width="1440" height="602" fill="#0073FF"/>
<path fill-rule="evenodd" clip-rule="evenodd" d="M0 0H60C120 0 240 0 360 28C480 57 600 115 720 129C840 144 960 115 1080 86C1200 57 1320 28 1380 14L1440 0V302H1380C1320 302 1200 302 1080 302C960 302 840 302 720 302C600 302 480 302 360 302C240 302 120 302 60 302H0V0Z" fill="#0073FF"/>
<path fill-rule="evenodd" clip-rule="evenodd" d="M1440 984L1380 984C1320 984 1200 984 1080 956C960 927 840 869 720 855C600 840 480 869 360 898C240 927 120 956 60 970L0 984L2.64017e-05 682L60 682C120 682 240 682 360 682C480 682 600 682 720 682C840 682 960 682 1080 682C1200 682 1320 682 1380 682L1440 682L1440 984Z" fill="#0073FF"/>
</svg>
