<svg width="29" height="37" viewBox="0 0 29 37" fill="none" xmlns="http://www.w3.org/2000/svg">
<path d="M2.30369 36.12C1.77326 36.12 1.26455 35.9093 0.88948 35.5342C0.514408 35.1591 0.303694 34.6504 0.303694 34.12L0.00369422 4.8C-0.0203886 4.20469 0.0734603 3.61049 0.279843 3.05158C0.486226 2.49267 0.80107 1.98008 1.20627 1.54328C1.61146 1.10649 2.09902 0.754108 2.64089 0.506415C3.18276 0.258723 3.76825 0.120603 4.36369 0.0999999L23.5437 0C24.1399 0.0104136 24.7283 0.138185 25.2751 0.376015C25.8219 0.613846 26.3166 0.957075 26.7307 1.3861C27.1449 1.81513 27.4705 2.32154 27.6889 2.87642C27.9073 3.4313 28.0143 4.02377 28.0037 4.62L28.2837 33.94C28.2871 34.2905 28.1984 34.6357 28.0264 34.9411C27.8544 35.2464 27.6052 35.5013 27.3037 35.68C26.9997 35.8555 26.6548 35.9479 26.3037 35.9479C25.9526 35.9479 25.6077 35.8555 25.3037 35.68L13.9037 29.36L3.32369 35.82C3.0104 35.995 2.66185 36.0975 2.30369 36.12ZM13.8237 25.02C14.1712 25.0206 14.5137 25.1028 14.8237 25.26L24.2437 30.48L24.0037 4.58C24.0037 4.18 23.7437 3.9 23.5837 3.92L4.38369 4.1C4.22369 4.1 4.00369 4.36 4.00369 4.76L4.24369 30.56L12.8037 25.3C13.1146 25.122 13.4655 25.0257 13.8237 25.02Z" fill="#8F8F8F"/>
</svg>
