<svg width="17" height="15" viewBox="0 0 17 15" fill="none" xmlns="http://www.w3.org/2000/svg">
<path fill-rule="evenodd" clip-rule="evenodd" d="M1.64698 1.86813C2.39709 1.11824 3.41432 0.696979 4.47498 0.696979C5.53563 0.696979 6.55287 1.11824 7.30298 1.86813L8.47498 3.03913L9.64698 1.86813C10.016 1.48608 10.4573 1.18136 10.9454 0.97172C11.4334 0.762084 11.9583 0.651739 12.4894 0.647124C13.0205 0.642508 13.5472 0.743715 14.0388 0.944839C14.5304 1.14596 14.977 1.44297 15.3526 1.81855C15.7281 2.19412 16.0251 2.64072 16.2263 3.13231C16.4274 3.62389 16.5286 4.15061 16.524 4.68173C16.5194 5.21285 16.409 5.73773 16.1994 6.22574C15.9897 6.71376 15.685 7.15514 15.303 7.52413L8.47498 14.3531L1.64698 7.52413C0.897092 6.77401 0.47583 5.75678 0.47583 4.69613C0.47583 3.63547 0.897092 2.61824 1.64698 1.86813Z" fill="#ED6E56"/>
</svg>
