<svg width="22" height="22" viewBox="0 0 22 22" fill="none" xmlns="http://www.w3.org/2000/svg">
<circle cx="11" cy="11" r="11" fill="#01B753" fill-opacity="0.2"/>
<path d="M11 12C12.1046 12 13 11.1046 13 10C13 8.89543 12.1046 8 11 8C9.89543 8 9 8.89543 9 10C9 11.1046 9.89543 12 11 12Z" stroke="#01B753" stroke-linecap="round" stroke-linejoin="round"/>
<path d="M15.2427 14.6045L12.0605 17.5885C11.7792 17.852 11.3979 18 11.0004 18C10.6028 18 10.2215 17.852 9.94025 17.5885L6.75725 14.6045C5.91817 13.8176 5.34675 12.8151 5.11527 11.7238C4.88378 10.6324 5.00262 9.50116 5.45675 8.47311C5.91089 7.44506 6.67992 6.56638 7.66661 5.94817C8.6533 5.32997 9.81333 5 11 5C12.1867 5 13.3467 5.32997 14.3334 5.94817C15.3201 6.56638 16.0891 7.44506 16.5432 8.47311C16.9974 9.50116 17.1162 10.6324 16.8847 11.7238C16.6532 12.8151 16.0818 13.8176 15.2427 14.6045V14.6045Z" stroke="#01B753" stroke-linecap="round" stroke-linejoin="round"/>
</svg>
