<svg width="20" height="19" viewBox="0 0 20 19" fill="none" xmlns="http://www.w3.org/2000/svg">
<path fill-rule="evenodd" clip-rule="evenodd" d="M15.5556 3.35294C15.5556 1.50117 14.0632 0 12.2222 0H7.77778C5.93683 0 4.44444 1.50117 4.44444 3.35294H3.33333C1.49239 3.35294 0 4.85411 0 6.70588V15.6471C0 17.4989 1.49239 19 3.33333 19H16.6667C18.5077 19 20 17.4989 20 15.6471V6.70588C20 4.85411 18.5077 3.35294 16.6667 3.35294H15.5556ZM12.2222 2.23529H7.77778C7.16413 2.23529 6.66667 2.73569 6.66667 3.35294H13.3333C13.3333 2.73569 12.8359 2.23529 12.2222 2.23529ZM3.33333 5.58824H16.6667C17.2803 5.58824 17.7778 6.08863 17.7778 6.70588V15.6471C17.7778 16.2643 17.2803 16.7647 16.6667 16.7647H3.33333C2.71969 16.7647 2.22222 16.2643 2.22222 15.6471V6.70588C2.22222 6.08863 2.71969 5.58824 3.33333 5.58824Z" fill="#949391"/>
</svg>
