<svg width="517" height="553" viewBox="0 0 517 553" fill="none" xmlns="http://www.w3.org/2000/svg">
<rect x="58" y="34" width="337" height="200" rx="20" fill="white"/>
<path d="M88.96 128.112C88.1813 128.112 87.4773 127.979 86.848 127.712C86.2293 127.445 85.7387 127.061 85.376 126.56C85.0133 126.059 84.8267 125.467 84.816 124.784H87.216C87.248 125.243 87.408 125.605 87.696 125.872C87.9947 126.139 88.4 126.272 88.912 126.272C89.4347 126.272 89.8453 126.149 90.144 125.904C90.4427 125.648 90.592 125.317 90.592 124.912C90.592 124.581 90.4907 124.309 90.288 124.096C90.0853 123.883 89.8293 123.717 89.52 123.6C89.2213 123.472 88.8053 123.333 88.272 123.184C87.5467 122.971 86.9547 122.763 86.496 122.56C86.048 122.347 85.6587 122.032 85.328 121.616C85.008 121.189 84.848 120.624 84.848 119.92C84.848 119.259 85.0133 118.683 85.344 118.192C85.6747 117.701 86.1387 117.328 86.736 117.072C87.3333 116.805 88.016 116.672 88.784 116.672C89.936 116.672 90.8693 116.955 91.584 117.52C92.3093 118.075 92.7093 118.853 92.784 119.856H90.32C90.2987 119.472 90.1333 119.157 89.824 118.912C89.5253 118.656 89.1253 118.528 88.624 118.528C88.1867 118.528 87.8347 118.64 87.568 118.864C87.312 119.088 87.184 119.413 87.184 119.84C87.184 120.139 87.28 120.389 87.472 120.592C87.6747 120.784 87.92 120.944 88.208 121.072C88.5067 121.189 88.9227 121.328 89.456 121.488C90.1813 121.701 90.7733 121.915 91.232 122.128C91.6907 122.341 92.0853 122.661 92.416 123.088C92.7467 123.515 92.912 124.075 92.912 124.768C92.912 125.365 92.7573 125.92 92.448 126.432C92.1387 126.944 91.6853 127.355 91.088 127.664C90.4907 127.963 89.7813 128.112 88.96 128.112ZM103.094 123.376C103.094 123.696 103.073 123.984 103.03 124.24H96.55C96.6033 124.88 96.8273 125.381 97.222 125.744C97.6167 126.107 98.102 126.288 98.678 126.288C99.51 126.288 100.102 125.931 100.454 125.216H102.87C102.614 126.069 102.123 126.773 101.398 127.328C100.673 127.872 99.782 128.144 98.726 128.144C97.8727 128.144 97.1047 127.957 96.422 127.584C95.75 127.2 95.222 126.661 94.838 125.968C94.4647 125.275 94.278 124.475 94.278 123.568C94.278 122.651 94.4647 121.845 94.838 121.152C95.2113 120.459 95.734 119.925 96.406 119.552C97.078 119.179 97.8513 118.992 98.726 118.992C99.5687 118.992 100.321 119.173 100.982 119.536C101.654 119.899 102.171 120.416 102.534 121.088C102.907 121.749 103.094 122.512 103.094 123.376ZM100.774 122.736C100.763 122.16 100.555 121.701 100.15 121.36C99.7447 121.008 99.2487 120.832 98.662 120.832C98.1073 120.832 97.638 121.003 97.254 121.344C96.8807 121.675 96.6513 122.139 96.566 122.736H100.774ZM109.641 119.008C110.697 119.008 111.55 119.344 112.201 120.016C112.852 120.677 113.177 121.605 113.177 122.8V128H110.937V123.104C110.937 122.4 110.761 121.861 110.409 121.488C110.057 121.104 109.577 120.912 108.969 120.912C108.35 120.912 107.86 121.104 107.497 121.488C107.145 121.861 106.969 122.4 106.969 123.104V128H104.729V119.136H106.969V120.24C107.268 119.856 107.646 119.557 108.105 119.344C108.574 119.12 109.086 119.008 109.641 119.008ZM116.443 118.08C116.048 118.08 115.718 117.957 115.451 117.712C115.195 117.456 115.067 117.141 115.067 116.768C115.067 116.395 115.195 116.085 115.451 115.84C115.718 115.584 116.048 115.456 116.443 115.456C116.838 115.456 117.163 115.584 117.419 115.84C117.686 116.085 117.819 116.395 117.819 116.768C117.819 117.141 117.686 117.456 117.419 117.712C117.163 117.957 116.838 118.08 116.443 118.08ZM117.547 119.136V128H115.307V119.136H117.547ZM123.696 128.144C122.843 128.144 122.075 127.957 121.392 127.584C120.71 127.2 120.171 126.661 119.776 125.968C119.392 125.275 119.2 124.475 119.2 123.568C119.2 122.661 119.398 121.861 119.792 121.168C120.198 120.475 120.747 119.941 121.44 119.568C122.134 119.184 122.907 118.992 123.76 118.992C124.614 118.992 125.387 119.184 126.08 119.568C126.774 119.941 127.318 120.475 127.712 121.168C128.118 121.861 128.32 122.661 128.32 123.568C128.32 124.475 128.112 125.275 127.696 125.968C127.291 126.661 126.736 127.2 126.032 127.584C125.339 127.957 124.56 128.144 123.696 128.144ZM123.696 126.192C124.102 126.192 124.48 126.096 124.832 125.904C125.195 125.701 125.483 125.403 125.696 125.008C125.91 124.613 126.016 124.133 126.016 123.568C126.016 122.725 125.792 122.08 125.344 121.632C124.907 121.173 124.368 120.944 123.728 120.944C123.088 120.944 122.55 121.173 122.112 121.632C121.686 122.08 121.472 122.725 121.472 123.568C121.472 124.411 121.68 125.061 122.096 125.52C122.523 125.968 123.056 126.192 123.696 126.192ZM132.203 120.512C132.491 120.043 132.865 119.675 133.323 119.408C133.793 119.141 134.326 119.008 134.923 119.008V121.36H134.331C133.627 121.36 133.094 121.525 132.731 121.856C132.379 122.187 132.203 122.763 132.203 123.584V128H129.963V119.136H132.203V120.512ZM146.549 128L142.485 123.024V128H140.245V116.832H142.485V121.84L146.549 116.832H149.253L144.645 122.368L149.381 128H146.549ZM154.79 128.144C153.937 128.144 153.169 127.957 152.486 127.584C151.803 127.2 151.265 126.661 150.87 125.968C150.486 125.275 150.294 124.475 150.294 123.568C150.294 122.661 150.491 121.861 150.886 121.168C151.291 120.475 151.841 119.941 152.534 119.568C153.227 119.184 154.001 118.992 154.854 118.992C155.707 118.992 156.481 119.184 157.174 119.568C157.867 119.941 158.411 120.475 158.806 121.168C159.211 121.861 159.414 122.661 159.414 123.568C159.414 124.475 159.206 125.275 158.79 125.968C158.385 126.661 157.83 127.2 157.126 127.584C156.433 127.957 155.654 128.144 154.79 128.144ZM154.79 126.192C155.195 126.192 155.574 126.096 155.926 125.904C156.289 125.701 156.577 125.403 156.79 125.008C157.003 124.613 157.11 124.133 157.11 123.568C157.11 122.725 156.886 122.08 156.438 121.632C156.001 121.173 155.462 120.944 154.822 120.944C154.182 120.944 153.643 121.173 153.206 121.632C152.779 122.08 152.566 122.725 152.566 123.568C152.566 124.411 152.774 125.061 153.19 125.52C153.617 125.968 154.15 126.192 154.79 126.192ZM163.665 120.976V125.264C163.665 125.563 163.734 125.781 163.873 125.92C164.022 126.048 164.268 126.112 164.609 126.112H165.649V128H164.241C162.353 128 161.409 127.083 161.409 125.248V120.976H160.353V119.136H161.409V116.944H163.665V119.136H165.649V120.976H163.665ZM169.5 116.16V128H167.26V116.16H169.5ZM172.849 118.08C172.455 118.08 172.124 117.957 171.857 117.712C171.601 117.456 171.473 117.141 171.473 116.768C171.473 116.395 171.601 116.085 171.857 115.84C172.124 115.584 172.455 115.456 172.849 115.456C173.244 115.456 173.569 115.584 173.825 115.84C174.092 116.085 174.225 116.395 174.225 116.768C174.225 117.141 174.092 117.456 173.825 117.712C173.569 117.957 173.244 118.08 172.849 118.08ZM173.953 119.136V128H171.713V119.136H173.953ZM181.079 119.008C182.135 119.008 182.988 119.344 183.639 120.016C184.289 120.677 184.615 121.605 184.615 122.8V128H182.375V123.104C182.375 122.4 182.199 121.861 181.847 121.488C181.495 121.104 181.015 120.912 180.407 120.912C179.788 120.912 179.297 121.104 178.935 121.488C178.583 121.861 178.407 122.4 178.407 123.104V128H176.167V119.136H178.407V120.24C178.705 119.856 179.084 119.557 179.543 119.344C180.012 119.12 180.524 119.008 181.079 119.008ZM189.981 123.536C189.981 122.64 190.157 121.845 190.509 121.152C190.872 120.459 191.362 119.925 191.981 119.552C192.6 119.179 193.288 118.992 194.045 118.992C194.621 118.992 195.17 119.12 195.693 119.376C196.216 119.621 196.632 119.952 196.941 120.368V116.16H199.213V128H196.941V126.688C196.664 127.125 196.274 127.477 195.773 127.744C195.272 128.011 194.69 128.144 194.029 128.144C193.282 128.144 192.6 127.952 191.981 127.568C191.362 127.184 190.872 126.645 190.509 125.952C190.157 125.248 189.981 124.443 189.981 123.536ZM196.957 123.568C196.957 123.024 196.85 122.56 196.637 122.176C196.424 121.781 196.136 121.483 195.773 121.28C195.41 121.067 195.021 120.96 194.605 120.96C194.189 120.96 193.805 121.061 193.453 121.264C193.101 121.467 192.813 121.765 192.589 122.16C192.376 122.544 192.269 123.003 192.269 123.536C192.269 124.069 192.376 124.539 192.589 124.944C192.813 125.339 193.101 125.643 193.453 125.856C193.816 126.069 194.2 126.176 194.605 126.176C195.021 126.176 195.41 126.075 195.773 125.872C196.136 125.659 196.424 125.36 196.637 124.976C196.85 124.581 196.957 124.112 196.957 123.568ZM209.641 123.376C209.641 123.696 209.62 123.984 209.577 124.24H203.097C203.15 124.88 203.374 125.381 203.769 125.744C204.164 126.107 204.649 126.288 205.225 126.288C206.057 126.288 206.649 125.931 207.001 125.216H209.417C209.161 126.069 208.67 126.773 207.945 127.328C207.22 127.872 206.329 128.144 205.273 128.144C204.42 128.144 203.652 127.957 202.969 127.584C202.297 127.2 201.769 126.661 201.385 125.968C201.012 125.275 200.825 124.475 200.825 123.568C200.825 122.651 201.012 121.845 201.385 121.152C201.758 120.459 202.281 119.925 202.953 119.552C203.625 119.179 204.398 118.992 205.273 118.992C206.116 118.992 206.868 119.173 207.529 119.536C208.201 119.899 208.718 120.416 209.081 121.088C209.454 121.749 209.641 122.512 209.641 123.376ZM207.321 122.736C207.31 122.16 207.102 121.701 206.697 121.36C206.292 121.008 205.796 120.832 205.209 120.832C204.654 120.832 204.185 121.003 203.801 121.344C203.428 121.675 203.198 122.139 203.113 122.736H207.321ZM214.972 125.936L217.212 119.136H219.596L216.316 128H213.596L210.332 119.136H212.732L214.972 125.936ZM229.094 123.376C229.094 123.696 229.073 123.984 229.03 124.24H222.55C222.603 124.88 222.827 125.381 223.222 125.744C223.617 126.107 224.102 126.288 224.678 126.288C225.51 126.288 226.102 125.931 226.454 125.216H228.87C228.614 126.069 228.123 126.773 227.398 127.328C226.673 127.872 225.782 128.144 224.726 128.144C223.873 128.144 223.105 127.957 222.422 127.584C221.75 127.2 221.222 126.661 220.838 125.968C220.465 125.275 220.278 124.475 220.278 123.568C220.278 122.651 220.465 121.845 220.838 121.152C221.211 120.459 221.734 119.925 222.406 119.552C223.078 119.179 223.851 118.992 224.726 118.992C225.569 118.992 226.321 119.173 226.982 119.536C227.654 119.899 228.171 120.416 228.534 121.088C228.907 121.749 229.094 122.512 229.094 123.376ZM226.774 122.736C226.763 122.16 226.555 121.701 226.15 121.36C225.745 121.008 225.249 120.832 224.662 120.832C224.107 120.832 223.638 121.003 223.254 121.344C222.881 121.675 222.651 122.139 222.566 122.736H226.774ZM232.969 116.16V128H230.729V116.16H232.969ZM239.118 128.144C238.265 128.144 237.497 127.957 236.814 127.584C236.131 127.2 235.593 126.661 235.198 125.968C234.814 125.275 234.622 124.475 234.622 123.568C234.622 122.661 234.819 121.861 235.214 121.168C235.619 120.475 236.169 119.941 236.862 119.568C237.555 119.184 238.329 118.992 239.182 118.992C240.035 118.992 240.809 119.184 241.502 119.568C242.195 119.941 242.739 120.475 243.134 121.168C243.539 121.861 243.742 122.661 243.742 123.568C243.742 124.475 243.534 125.275 243.118 125.968C242.713 126.661 242.158 127.2 241.454 127.584C240.761 127.957 239.982 128.144 239.118 128.144ZM239.118 126.192C239.523 126.192 239.902 126.096 240.254 125.904C240.617 125.701 240.905 125.403 241.118 125.008C241.331 124.613 241.438 124.133 241.438 123.568C241.438 122.725 241.214 122.08 240.766 121.632C240.329 121.173 239.79 120.944 239.15 120.944C238.51 120.944 237.971 121.173 237.534 121.632C237.107 122.08 236.894 122.725 236.894 123.568C236.894 124.411 237.102 125.061 237.518 125.52C237.945 125.968 238.478 126.192 239.118 126.192ZM247.625 120.416C247.913 120.011 248.308 119.675 248.809 119.408C249.321 119.131 249.903 118.992 250.553 118.992C251.311 118.992 251.993 119.179 252.601 119.552C253.22 119.925 253.705 120.459 254.057 121.152C254.42 121.835 254.601 122.629 254.601 123.536C254.601 124.443 254.42 125.248 254.057 125.952C253.705 126.645 253.22 127.184 252.601 127.568C251.993 127.952 251.311 128.144 250.553 128.144C249.903 128.144 249.327 128.011 248.825 127.744C248.335 127.477 247.935 127.141 247.625 126.736V132.224H245.385V119.136H247.625V120.416ZM252.313 123.536C252.313 123.003 252.201 122.544 251.977 122.16C251.764 121.765 251.476 121.467 251.113 121.264C250.761 121.061 250.377 120.96 249.961 120.96C249.556 120.96 249.172 121.067 248.809 121.28C248.457 121.483 248.169 121.781 247.945 122.176C247.732 122.571 247.625 123.035 247.625 123.568C247.625 124.101 247.732 124.565 247.945 124.96C248.169 125.355 248.457 125.659 248.809 125.872C249.172 126.075 249.556 126.176 249.961 126.176C250.377 126.176 250.761 126.069 251.113 125.856C251.476 125.643 251.764 125.339 251.977 124.944C252.201 124.549 252.313 124.08 252.313 123.536ZM264.469 123.376C264.469 123.696 264.448 123.984 264.405 124.24H257.925C257.978 124.88 258.202 125.381 258.597 125.744C258.992 126.107 259.477 126.288 260.053 126.288C260.885 126.288 261.477 125.931 261.829 125.216H264.245C263.989 126.069 263.498 126.773 262.773 127.328C262.048 127.872 261.157 128.144 260.101 128.144C259.248 128.144 258.48 127.957 257.797 127.584C257.125 127.2 256.597 126.661 256.213 125.968C255.84 125.275 255.653 124.475 255.653 123.568C255.653 122.651 255.84 121.845 256.213 121.152C256.586 120.459 257.109 119.925 257.781 119.552C258.453 119.179 259.226 118.992 260.101 118.992C260.944 118.992 261.696 119.173 262.357 119.536C263.029 119.899 263.546 120.416 263.909 121.088C264.282 121.749 264.469 122.512 264.469 123.376ZM262.149 122.736C262.138 122.16 261.93 121.701 261.525 121.36C261.12 121.008 260.624 120.832 260.037 120.832C259.482 120.832 259.013 121.003 258.629 121.344C258.256 121.675 258.026 122.139 257.941 122.736H262.149ZM268.344 120.512C268.632 120.043 269.005 119.675 269.464 119.408C269.933 119.141 270.467 119.008 271.064 119.008V121.36H270.472C269.768 121.36 269.235 121.525 268.872 121.856C268.52 122.187 268.344 122.763 268.344 123.584V128H266.104V119.136H268.344V120.512Z" fill="#413C3B"/>
<rect x="84" y="55" width="43" height="43" rx="5" fill="#D9D9D9"/>
<rect x="174" y="55" width="134" height="22" rx="5" fill="#D9D9D9"/>
<rect x="318" y="55" width="50" height="22" rx="5" fill="#D9D9D9"/>
<rect x="277" y="189" width="91" height="30.7125" rx="10" fill="#D9D9D9"/>
<rect x="84" y="142" width="154" height="18" rx="5" fill="#D9D9D9"/>
<rect x="84" y="193" width="61" height="22" rx="5" fill="#D9D9D9"/>
<rect x="58" y="353" width="337" height="200" rx="20" fill="white"/>
<rect x="84" y="374" width="43" height="43" rx="5" fill="#D9D9D9"/>
<rect x="174" y="374" width="134" height="22" rx="5" fill="#D9D9D9"/>
<rect x="318" y="374" width="50" height="22" rx="5" fill="#D9D9D9"/>
<rect x="277" y="508" width="91" height="30.7125" rx="10" fill="#D9D9D9"/>
<path d="M88.96 447.112C88.1813 447.112 87.4773 446.979 86.848 446.712C86.2293 446.445 85.7387 446.061 85.376 445.56C85.0133 445.059 84.8267 444.467 84.816 443.784H87.216C87.248 444.243 87.408 444.605 87.696 444.872C87.9947 445.139 88.4 445.272 88.912 445.272C89.4347 445.272 89.8453 445.149 90.144 444.904C90.4427 444.648 90.592 444.317 90.592 443.912C90.592 443.581 90.4907 443.309 90.288 443.096C90.0853 442.883 89.8293 442.717 89.52 442.6C89.2213 442.472 88.8053 442.333 88.272 442.184C87.5467 441.971 86.9547 441.763 86.496 441.56C86.048 441.347 85.6587 441.032 85.328 440.616C85.008 440.189 84.848 439.624 84.848 438.92C84.848 438.259 85.0133 437.683 85.344 437.192C85.6747 436.701 86.1387 436.328 86.736 436.072C87.3333 435.805 88.016 435.672 88.784 435.672C89.936 435.672 90.8693 435.955 91.584 436.52C92.3093 437.075 92.7093 437.853 92.784 438.856H90.32C90.2987 438.472 90.1333 438.157 89.824 437.912C89.5253 437.656 89.1253 437.528 88.624 437.528C88.1867 437.528 87.8347 437.64 87.568 437.864C87.312 438.088 87.184 438.413 87.184 438.84C87.184 439.139 87.28 439.389 87.472 439.592C87.6747 439.784 87.92 439.944 88.208 440.072C88.5067 440.189 88.9227 440.328 89.456 440.488C90.1813 440.701 90.7733 440.915 91.232 441.128C91.6907 441.341 92.0853 441.661 92.416 442.088C92.7467 442.515 92.912 443.075 92.912 443.768C92.912 444.365 92.7573 444.92 92.448 445.432C92.1387 445.944 91.6853 446.355 91.088 446.664C90.4907 446.963 89.7813 447.112 88.96 447.112ZM103.094 442.376C103.094 442.696 103.073 442.984 103.03 443.24H96.55C96.6033 443.88 96.8273 444.381 97.222 444.744C97.6167 445.107 98.102 445.288 98.678 445.288C99.51 445.288 100.102 444.931 100.454 444.216H102.87C102.614 445.069 102.123 445.773 101.398 446.328C100.673 446.872 99.782 447.144 98.726 447.144C97.8727 447.144 97.1047 446.957 96.422 446.584C95.75 446.2 95.222 445.661 94.838 444.968C94.4647 444.275 94.278 443.475 94.278 442.568C94.278 441.651 94.4647 440.845 94.838 440.152C95.2113 439.459 95.734 438.925 96.406 438.552C97.078 438.179 97.8513 437.992 98.726 437.992C99.5687 437.992 100.321 438.173 100.982 438.536C101.654 438.899 102.171 439.416 102.534 440.088C102.907 440.749 103.094 441.512 103.094 442.376ZM100.774 441.736C100.763 441.16 100.555 440.701 100.15 440.36C99.7447 440.008 99.2487 439.832 98.662 439.832C98.1073 439.832 97.638 440.003 97.254 440.344C96.8807 440.675 96.6513 441.139 96.566 441.736H100.774ZM109.641 438.008C110.697 438.008 111.55 438.344 112.201 439.016C112.852 439.677 113.177 440.605 113.177 441.8V447H110.937V442.104C110.937 441.4 110.761 440.861 110.409 440.488C110.057 440.104 109.577 439.912 108.969 439.912C108.35 439.912 107.86 440.104 107.497 440.488C107.145 440.861 106.969 441.4 106.969 442.104V447H104.729V438.136H106.969V439.24C107.268 438.856 107.646 438.557 108.105 438.344C108.574 438.12 109.086 438.008 109.641 438.008ZM116.443 437.08C116.048 437.08 115.718 436.957 115.451 436.712C115.195 436.456 115.067 436.141 115.067 435.768C115.067 435.395 115.195 435.085 115.451 434.84C115.718 434.584 116.048 434.456 116.443 434.456C116.838 434.456 117.163 434.584 117.419 434.84C117.686 435.085 117.819 435.395 117.819 435.768C117.819 436.141 117.686 436.456 117.419 436.712C117.163 436.957 116.838 437.08 116.443 437.08ZM117.547 438.136V447H115.307V438.136H117.547ZM123.696 447.144C122.843 447.144 122.075 446.957 121.392 446.584C120.71 446.2 120.171 445.661 119.776 444.968C119.392 444.275 119.2 443.475 119.2 442.568C119.2 441.661 119.398 440.861 119.792 440.168C120.198 439.475 120.747 438.941 121.44 438.568C122.134 438.184 122.907 437.992 123.76 437.992C124.614 437.992 125.387 438.184 126.08 438.568C126.774 438.941 127.318 439.475 127.712 440.168C128.118 440.861 128.32 441.661 128.32 442.568C128.32 443.475 128.112 444.275 127.696 444.968C127.291 445.661 126.736 446.2 126.032 446.584C125.339 446.957 124.56 447.144 123.696 447.144ZM123.696 445.192C124.102 445.192 124.48 445.096 124.832 444.904C125.195 444.701 125.483 444.403 125.696 444.008C125.91 443.613 126.016 443.133 126.016 442.568C126.016 441.725 125.792 441.08 125.344 440.632C124.907 440.173 124.368 439.944 123.728 439.944C123.088 439.944 122.55 440.173 122.112 440.632C121.686 441.08 121.472 441.725 121.472 442.568C121.472 443.411 121.68 444.061 122.096 444.52C122.523 444.968 123.056 445.192 123.696 445.192ZM132.203 439.512C132.491 439.043 132.865 438.675 133.323 438.408C133.793 438.141 134.326 438.008 134.923 438.008V440.36H134.331C133.627 440.36 133.094 440.525 132.731 440.856C132.379 441.187 132.203 441.763 132.203 442.584V447H129.963V438.136H132.203V439.512ZM141.237 447.112C140.831 447.112 140.495 446.989 140.229 446.744C139.973 446.488 139.845 446.173 139.845 445.8C139.845 445.427 139.973 445.117 140.229 444.872C140.495 444.616 140.831 444.488 141.237 444.488C141.631 444.488 141.957 444.616 142.213 444.872C142.469 445.117 142.597 445.427 142.597 445.8C142.597 446.173 142.469 446.488 142.213 446.744C141.957 446.989 141.631 447.112 141.237 447.112ZM153.953 447H151.713L146.641 439.336V447H144.401V435.816H146.641L151.713 443.496V435.816H153.953V447ZM164.407 442.376C164.407 442.696 164.385 442.984 164.343 443.24H157.863C157.916 443.88 158.14 444.381 158.535 444.744C158.929 445.107 159.415 445.288 159.991 445.288C160.823 445.288 161.415 444.931 161.767 444.216H164.183C163.927 445.069 163.436 445.773 162.711 446.328C161.985 446.872 161.095 447.144 160.039 447.144C159.185 447.144 158.417 446.957 157.735 446.584C157.063 446.2 156.535 445.661 156.151 444.968C155.777 444.275 155.59 443.475 155.59 442.568C155.59 441.651 155.777 440.845 156.151 440.152C156.524 439.459 157.047 438.925 157.719 438.552C158.391 438.179 159.164 437.992 160.039 437.992C160.881 437.992 161.633 438.173 162.295 438.536C162.967 438.899 163.484 439.416 163.847 440.088C164.22 440.749 164.407 441.512 164.407 442.376ZM162.087 441.736C162.076 441.16 161.868 440.701 161.463 440.36C161.057 440.008 160.561 439.832 159.975 439.832C159.42 439.832 158.951 440.003 158.567 440.344C158.193 440.675 157.964 441.139 157.879 441.736H162.087ZM168.65 439.976V444.264C168.65 444.563 168.719 444.781 168.858 444.92C169.007 445.048 169.252 445.112 169.594 445.112H170.634V447H169.226C167.338 447 166.394 446.083 166.394 444.248V439.976H165.338V438.136H166.394V435.944H168.65V438.136H170.634V439.976H168.65ZM175.481 442.536C175.481 441.64 175.657 440.845 176.009 440.152C176.372 439.459 176.862 438.925 177.481 438.552C178.1 438.179 178.788 437.992 179.545 437.992C180.121 437.992 180.67 438.12 181.193 438.376C181.716 438.621 182.132 438.952 182.441 439.368V435.16H184.713V447H182.441V445.688C182.164 446.125 181.774 446.477 181.273 446.744C180.772 447.011 180.19 447.144 179.529 447.144C178.782 447.144 178.1 446.952 177.481 446.568C176.862 446.184 176.372 445.645 176.009 444.952C175.657 444.248 175.481 443.443 175.481 442.536ZM182.457 442.568C182.457 442.024 182.35 441.56 182.137 441.176C181.924 440.781 181.636 440.483 181.273 440.28C180.91 440.067 180.521 439.96 180.105 439.96C179.689 439.96 179.305 440.061 178.953 440.264C178.601 440.467 178.313 440.765 178.089 441.16C177.876 441.544 177.769 442.003 177.769 442.536C177.769 443.069 177.876 443.539 178.089 443.944C178.313 444.339 178.601 444.643 178.953 444.856C179.316 445.069 179.7 445.176 180.105 445.176C180.521 445.176 180.91 445.075 181.273 444.872C181.636 444.659 181.924 444.36 182.137 443.976C182.35 443.581 182.457 443.112 182.457 442.568ZM195.141 442.376C195.141 442.696 195.12 442.984 195.077 443.24H188.597C188.65 443.88 188.874 444.381 189.269 444.744C189.664 445.107 190.149 445.288 190.725 445.288C191.557 445.288 192.149 444.931 192.501 444.216H194.917C194.661 445.069 194.17 445.773 193.445 446.328C192.72 446.872 191.829 447.144 190.773 447.144C189.92 447.144 189.152 446.957 188.469 446.584C187.797 446.2 187.269 445.661 186.885 444.968C186.512 444.275 186.325 443.475 186.325 442.568C186.325 441.651 186.512 440.845 186.885 440.152C187.258 439.459 187.781 438.925 188.453 438.552C189.125 438.179 189.898 437.992 190.773 437.992C191.616 437.992 192.368 438.173 193.029 438.536C193.701 438.899 194.218 439.416 194.581 440.088C194.954 440.749 195.141 441.512 195.141 442.376ZM192.821 441.736C192.81 441.16 192.602 440.701 192.197 440.36C191.792 440.008 191.296 439.832 190.709 439.832C190.154 439.832 189.685 440.003 189.301 440.344C188.928 440.675 188.698 441.139 188.613 441.736H192.821ZM200.472 444.936L202.712 438.136H205.096L201.816 447H199.096L195.832 438.136H198.232L200.472 444.936ZM214.594 442.376C214.594 442.696 214.573 442.984 214.53 443.24H208.05C208.103 443.88 208.327 444.381 208.722 444.744C209.117 445.107 209.602 445.288 210.178 445.288C211.01 445.288 211.602 444.931 211.954 444.216H214.37C214.114 445.069 213.623 445.773 212.898 446.328C212.173 446.872 211.282 447.144 210.226 447.144C209.373 447.144 208.605 446.957 207.922 446.584C207.25 446.2 206.722 445.661 206.338 444.968C205.965 444.275 205.778 443.475 205.778 442.568C205.778 441.651 205.965 440.845 206.338 440.152C206.711 439.459 207.234 438.925 207.906 438.552C208.578 438.179 209.351 437.992 210.226 437.992C211.069 437.992 211.821 438.173 212.482 438.536C213.154 438.899 213.671 439.416 214.034 440.088C214.407 440.749 214.594 441.512 214.594 442.376ZM212.274 441.736C212.263 441.16 212.055 440.701 211.65 440.36C211.245 440.008 210.749 439.832 210.162 439.832C209.607 439.832 209.138 440.003 208.754 440.344C208.381 440.675 208.151 441.139 208.066 441.736H212.274ZM218.469 435.16V447H216.229V435.16H218.469ZM224.618 447.144C223.765 447.144 222.997 446.957 222.314 446.584C221.631 446.2 221.093 445.661 220.698 444.968C220.314 444.275 220.122 443.475 220.122 442.568C220.122 441.661 220.319 440.861 220.714 440.168C221.119 439.475 221.669 438.941 222.362 438.568C223.055 438.184 223.829 437.992 224.682 437.992C225.535 437.992 226.309 438.184 227.002 438.568C227.695 438.941 228.239 439.475 228.634 440.168C229.039 440.861 229.242 441.661 229.242 442.568C229.242 443.475 229.034 444.275 228.618 444.968C228.213 445.661 227.658 446.2 226.954 446.584C226.261 446.957 225.482 447.144 224.618 447.144ZM224.618 445.192C225.023 445.192 225.402 445.096 225.754 444.904C226.117 444.701 226.405 444.403 226.618 444.008C226.831 443.613 226.938 443.133 226.938 442.568C226.938 441.725 226.714 441.08 226.266 440.632C225.829 440.173 225.29 439.944 224.65 439.944C224.01 439.944 223.471 440.173 223.034 440.632C222.607 441.08 222.394 441.725 222.394 442.568C222.394 443.411 222.602 444.061 223.018 444.52C223.445 444.968 223.978 445.192 224.618 445.192ZM233.125 439.416C233.413 439.011 233.808 438.675 234.309 438.408C234.821 438.131 235.403 437.992 236.053 437.992C236.811 437.992 237.493 438.179 238.101 438.552C238.72 438.925 239.205 439.459 239.557 440.152C239.92 440.835 240.101 441.629 240.101 442.536C240.101 443.443 239.92 444.248 239.557 444.952C239.205 445.645 238.72 446.184 238.101 446.568C237.493 446.952 236.811 447.144 236.053 447.144C235.403 447.144 234.827 447.011 234.325 446.744C233.835 446.477 233.435 446.141 233.125 445.736V451.224H230.885V438.136H233.125V439.416ZM237.813 442.536C237.813 442.003 237.701 441.544 237.477 441.16C237.264 440.765 236.976 440.467 236.613 440.264C236.261 440.061 235.877 439.96 235.461 439.96C235.056 439.96 234.672 440.067 234.309 440.28C233.957 440.483 233.669 440.781 233.445 441.176C233.232 441.571 233.125 442.035 233.125 442.568C233.125 443.101 233.232 443.565 233.445 443.96C233.669 444.355 233.957 444.659 234.309 444.872C234.672 445.075 235.056 445.176 235.461 445.176C235.877 445.176 236.261 445.069 236.613 444.856C236.976 444.643 237.264 444.339 237.477 443.944C237.701 443.549 237.813 443.08 237.813 442.536ZM249.969 442.376C249.969 442.696 249.948 442.984 249.905 443.24H243.425C243.478 443.88 243.702 444.381 244.097 444.744C244.492 445.107 244.977 445.288 245.553 445.288C246.385 445.288 246.977 444.931 247.329 444.216H249.745C249.489 445.069 248.998 445.773 248.273 446.328C247.548 446.872 246.657 447.144 245.601 447.144C244.748 447.144 243.98 446.957 243.297 446.584C242.625 446.2 242.097 445.661 241.713 444.968C241.34 444.275 241.153 443.475 241.153 442.568C241.153 441.651 241.34 440.845 241.713 440.152C242.086 439.459 242.609 438.925 243.281 438.552C243.953 438.179 244.726 437.992 245.601 437.992C246.444 437.992 247.196 438.173 247.857 438.536C248.529 438.899 249.046 439.416 249.409 440.088C249.782 440.749 249.969 441.512 249.969 442.376ZM247.649 441.736C247.638 441.16 247.43 440.701 247.025 440.36C246.62 440.008 246.124 439.832 245.537 439.832C244.982 439.832 244.513 440.003 244.129 440.344C243.756 440.675 243.526 441.139 243.441 441.736H247.649ZM253.844 439.512C254.132 439.043 254.505 438.675 254.964 438.408C255.433 438.141 255.967 438.008 256.564 438.008V440.36H255.972C255.268 440.36 254.735 440.525 254.372 440.856C254.02 441.187 253.844 441.763 253.844 442.584V447H251.604V438.136H253.844V439.512Z" fill="#413C3B"/>
<rect x="84" y="461" width="154" height="18" rx="5" fill="#D9D9D9"/>
<rect x="84" y="512" width="61" height="22" rx="5" fill="#D9D9D9"/>
<g filter="url(#filter0_d_422_10)">
<rect x="90.5" y="204.5" width="336" height="199" rx="19.5" fill="#F9FDFF" stroke="#0073FF"/>
<rect x="116" y="225" width="43" height="43" rx="5" fill="#D9D9D9"/>
<rect x="206" y="225" width="134" height="22" rx="5" fill="#D9D9D9"/>
<rect x="350" y="225" width="50" height="22" rx="5" fill="#D9D9D9"/>
<rect x="309" y="359" width="91" height="30.7125" rx="10" fill="#D9D9D9"/>
<path d="M120.96 301.112C120.181 301.112 119.477 300.979 118.848 300.712C118.229 300.445 117.739 300.061 117.376 299.56C117.013 299.059 116.827 298.467 116.816 297.784H119.216C119.248 298.243 119.408 298.605 119.696 298.872C119.995 299.139 120.4 299.272 120.912 299.272C121.435 299.272 121.845 299.149 122.144 298.904C122.443 298.648 122.592 298.317 122.592 297.912C122.592 297.581 122.491 297.309 122.288 297.096C122.085 296.883 121.829 296.717 121.52 296.6C121.221 296.472 120.805 296.333 120.272 296.184C119.547 295.971 118.955 295.763 118.496 295.56C118.048 295.347 117.659 295.032 117.328 294.616C117.008 294.189 116.848 293.624 116.848 292.92C116.848 292.259 117.013 291.683 117.344 291.192C117.675 290.701 118.139 290.328 118.736 290.072C119.333 289.805 120.016 289.672 120.784 289.672C121.936 289.672 122.869 289.955 123.584 290.52C124.309 291.075 124.709 291.853 124.784 292.856H122.32C122.299 292.472 122.133 292.157 121.824 291.912C121.525 291.656 121.125 291.528 120.624 291.528C120.187 291.528 119.835 291.64 119.568 291.864C119.312 292.088 119.184 292.413 119.184 292.84C119.184 293.139 119.28 293.389 119.472 293.592C119.675 293.784 119.92 293.944 120.208 294.072C120.507 294.189 120.923 294.328 121.456 294.488C122.181 294.701 122.773 294.915 123.232 295.128C123.691 295.341 124.085 295.661 124.416 296.088C124.747 296.515 124.912 297.075 124.912 297.768C124.912 298.365 124.757 298.92 124.448 299.432C124.139 299.944 123.685 300.355 123.088 300.664C122.491 300.963 121.781 301.112 120.96 301.112ZM135.094 296.376C135.094 296.696 135.073 296.984 135.03 297.24H128.55C128.603 297.88 128.827 298.381 129.222 298.744C129.617 299.107 130.102 299.288 130.678 299.288C131.51 299.288 132.102 298.931 132.454 298.216H134.87C134.614 299.069 134.123 299.773 133.398 300.328C132.673 300.872 131.782 301.144 130.726 301.144C129.873 301.144 129.105 300.957 128.422 300.584C127.75 300.2 127.222 299.661 126.838 298.968C126.465 298.275 126.278 297.475 126.278 296.568C126.278 295.651 126.465 294.845 126.838 294.152C127.211 293.459 127.734 292.925 128.406 292.552C129.078 292.179 129.851 291.992 130.726 291.992C131.569 291.992 132.321 292.173 132.982 292.536C133.654 292.899 134.171 293.416 134.534 294.088C134.907 294.749 135.094 295.512 135.094 296.376ZM132.774 295.736C132.763 295.16 132.555 294.701 132.15 294.36C131.745 294.008 131.249 293.832 130.662 293.832C130.107 293.832 129.638 294.003 129.254 294.344C128.881 294.675 128.651 295.139 128.566 295.736H132.774ZM141.641 292.008C142.697 292.008 143.55 292.344 144.201 293.016C144.852 293.677 145.177 294.605 145.177 295.8V301H142.937V296.104C142.937 295.4 142.761 294.861 142.409 294.488C142.057 294.104 141.577 293.912 140.969 293.912C140.35 293.912 139.86 294.104 139.497 294.488C139.145 294.861 138.969 295.4 138.969 296.104V301H136.729V292.136H138.969V293.24C139.268 292.856 139.646 292.557 140.105 292.344C140.574 292.12 141.086 292.008 141.641 292.008ZM148.443 291.08C148.048 291.08 147.718 290.957 147.451 290.712C147.195 290.456 147.067 290.141 147.067 289.768C147.067 289.395 147.195 289.085 147.451 288.84C147.718 288.584 148.048 288.456 148.443 288.456C148.838 288.456 149.163 288.584 149.419 288.84C149.686 289.085 149.819 289.395 149.819 289.768C149.819 290.141 149.686 290.456 149.419 290.712C149.163 290.957 148.838 291.08 148.443 291.08ZM149.547 292.136V301H147.307V292.136H149.547ZM155.696 301.144C154.843 301.144 154.075 300.957 153.392 300.584C152.71 300.2 152.171 299.661 151.776 298.968C151.392 298.275 151.2 297.475 151.2 296.568C151.2 295.661 151.398 294.861 151.792 294.168C152.198 293.475 152.747 292.941 153.44 292.568C154.134 292.184 154.907 291.992 155.76 291.992C156.614 291.992 157.387 292.184 158.08 292.568C158.774 292.941 159.318 293.475 159.712 294.168C160.118 294.861 160.32 295.661 160.32 296.568C160.32 297.475 160.112 298.275 159.696 298.968C159.291 299.661 158.736 300.2 158.032 300.584C157.339 300.957 156.56 301.144 155.696 301.144ZM155.696 299.192C156.102 299.192 156.48 299.096 156.832 298.904C157.195 298.701 157.483 298.403 157.696 298.008C157.91 297.613 158.016 297.133 158.016 296.568C158.016 295.725 157.792 295.08 157.344 294.632C156.907 294.173 156.368 293.944 155.728 293.944C155.088 293.944 154.55 294.173 154.112 294.632C153.686 295.08 153.472 295.725 153.472 296.568C153.472 297.411 153.68 298.061 154.096 298.52C154.523 298.968 155.056 299.192 155.696 299.192ZM164.203 293.512C164.491 293.043 164.865 292.675 165.323 292.408C165.793 292.141 166.326 292.008 166.923 292.008V294.36H166.331C165.627 294.36 165.094 294.525 164.731 294.856C164.379 295.187 164.203 295.763 164.203 296.584V301H161.963V292.136H164.203V293.512ZM173.381 291.08C172.975 291.08 172.639 290.957 172.373 290.712C172.117 290.456 171.989 290.141 171.989 289.768C171.989 289.395 172.117 289.085 172.373 288.84C172.639 288.584 172.975 288.456 173.381 288.456C173.775 288.456 174.101 288.584 174.357 288.84C174.613 289.085 174.741 289.395 174.741 289.768C174.741 290.141 174.613 290.456 174.357 290.712C174.101 290.957 173.775 291.08 173.381 291.08ZM174.485 302.456C174.485 303.437 174.239 304.141 173.749 304.568C173.269 305.005 172.575 305.224 171.669 305.224H170.677V303.32H171.317C171.658 303.32 171.898 303.251 172.037 303.112C172.175 302.984 172.245 302.771 172.245 302.472V292.136H174.485V302.456ZM176.122 296.536C176.122 295.64 176.298 294.845 176.65 294.152C177.012 293.459 177.498 292.925 178.106 292.552C178.724 292.179 179.412 291.992 180.17 291.992C180.831 291.992 181.407 292.125 181.898 292.392C182.399 292.659 182.799 292.995 183.098 293.4V292.136H185.354V301H183.098V299.704C182.81 300.12 182.41 300.467 181.898 300.744C181.396 301.011 180.815 301.144 180.154 301.144C179.407 301.144 178.724 300.952 178.106 300.568C177.498 300.184 177.012 299.645 176.65 298.952C176.298 298.248 176.122 297.443 176.122 296.536ZM183.098 296.568C183.098 296.024 182.991 295.56 182.778 295.176C182.564 294.781 182.276 294.483 181.914 294.28C181.551 294.067 181.162 293.96 180.746 293.96C180.33 293.96 179.946 294.061 179.594 294.264C179.242 294.467 178.954 294.765 178.73 295.16C178.516 295.544 178.41 296.003 178.41 296.536C178.41 297.069 178.516 297.539 178.73 297.944C178.954 298.339 179.242 298.643 179.594 298.856C179.956 299.069 180.34 299.176 180.746 299.176C181.162 299.176 181.551 299.075 181.914 298.872C182.276 298.659 182.564 298.36 182.778 297.976C182.991 297.581 183.098 297.112 183.098 296.568ZM191.238 298.936L193.478 292.136H195.862L192.582 301H189.862L186.598 292.136H188.998L191.238 298.936ZM196.544 296.536C196.544 295.64 196.72 294.845 197.072 294.152C197.434 293.459 197.92 292.925 198.528 292.552C199.146 292.179 199.834 291.992 200.592 291.992C201.253 291.992 201.829 292.125 202.32 292.392C202.821 292.659 203.221 292.995 203.52 293.4V292.136H205.776V301H203.52V299.704C203.232 300.12 202.832 300.467 202.32 300.744C201.818 301.011 201.237 301.144 200.576 301.144C199.829 301.144 199.146 300.952 198.528 300.568C197.92 300.184 197.434 299.645 197.072 298.952C196.72 298.248 196.544 297.443 196.544 296.536ZM203.52 296.568C203.52 296.024 203.413 295.56 203.2 295.176C202.986 294.781 202.698 294.483 202.336 294.28C201.973 294.067 201.584 293.96 201.168 293.96C200.752 293.96 200.368 294.061 200.016 294.264C199.664 294.467 199.376 294.765 199.152 295.16C198.938 295.544 198.832 296.003 198.832 296.536C198.832 297.069 198.938 297.539 199.152 297.944C199.376 298.339 199.664 298.643 200.016 298.856C200.378 299.069 200.762 299.176 201.168 299.176C201.584 299.176 201.973 299.075 202.336 298.872C202.698 298.659 202.986 298.36 203.2 297.976C203.413 297.581 203.52 297.112 203.52 296.568ZM211.2 296.536C211.2 295.64 211.376 294.845 211.728 294.152C212.091 293.459 212.581 292.925 213.2 292.552C213.819 292.179 214.507 291.992 215.264 291.992C215.84 291.992 216.389 292.12 216.912 292.376C217.435 292.621 217.851 292.952 218.16 293.368V289.16H220.432V301H218.16V299.688C217.883 300.125 217.493 300.477 216.992 300.744C216.491 301.011 215.909 301.144 215.248 301.144C214.501 301.144 213.819 300.952 213.2 300.568C212.581 300.184 212.091 299.645 211.728 298.952C211.376 298.248 211.2 297.443 211.2 296.536ZM218.176 296.568C218.176 296.024 218.069 295.56 217.856 295.176C217.643 294.781 217.355 294.483 216.992 294.28C216.629 294.067 216.24 293.96 215.824 293.96C215.408 293.96 215.024 294.061 214.672 294.264C214.32 294.467 214.032 294.765 213.808 295.16C213.595 295.544 213.488 296.003 213.488 296.536C213.488 297.069 213.595 297.539 213.808 297.944C214.032 298.339 214.32 298.643 214.672 298.856C215.035 299.069 215.419 299.176 215.824 299.176C216.24 299.176 216.629 299.075 216.992 298.872C217.355 298.659 217.643 298.36 217.856 297.976C218.069 297.581 218.176 297.112 218.176 296.568ZM230.86 296.376C230.86 296.696 230.838 296.984 230.796 297.24H224.316C224.369 297.88 224.593 298.381 224.988 298.744C225.382 299.107 225.868 299.288 226.444 299.288C227.276 299.288 227.868 298.931 228.22 298.216H230.636C230.38 299.069 229.889 299.773 229.164 300.328C228.438 300.872 227.548 301.144 226.492 301.144C225.638 301.144 224.87 300.957 224.188 300.584C223.516 300.2 222.988 299.661 222.604 298.968C222.23 298.275 222.044 297.475 222.044 296.568C222.044 295.651 222.23 294.845 222.604 294.152C222.977 293.459 223.5 292.925 224.172 292.552C224.844 292.179 225.617 291.992 226.492 291.992C227.334 291.992 228.086 292.173 228.748 292.536C229.42 292.899 229.937 293.416 230.3 294.088C230.673 294.749 230.86 295.512 230.86 296.376ZM228.54 295.736C228.529 295.16 228.321 294.701 227.916 294.36C227.51 294.008 227.014 293.832 226.428 293.832C225.873 293.832 225.404 294.003 225.02 294.344C224.646 294.675 224.417 295.139 224.332 295.736H228.54ZM236.191 298.936L238.431 292.136H240.815L237.535 301H234.815L231.551 292.136H233.951L236.191 298.936ZM250.313 296.376C250.313 296.696 250.291 296.984 250.249 297.24H243.769C243.822 297.88 244.046 298.381 244.441 298.744C244.835 299.107 245.321 299.288 245.897 299.288C246.729 299.288 247.321 298.931 247.673 298.216H250.089C249.833 299.069 249.342 299.773 248.617 300.328C247.891 300.872 247.001 301.144 245.945 301.144C245.091 301.144 244.323 300.957 243.641 300.584C242.969 300.2 242.441 299.661 242.057 298.968C241.683 298.275 241.497 297.475 241.497 296.568C241.497 295.651 241.683 294.845 242.057 294.152C242.43 293.459 242.953 292.925 243.625 292.552C244.297 292.179 245.07 291.992 245.945 291.992C246.787 291.992 247.539 292.173 248.201 292.536C248.873 292.899 249.39 293.416 249.753 294.088C250.126 294.749 250.313 295.512 250.313 296.376ZM247.993 295.736C247.982 295.16 247.774 294.701 247.369 294.36C246.963 294.008 246.467 293.832 245.881 293.832C245.326 293.832 244.857 294.003 244.473 294.344C244.099 294.675 243.87 295.139 243.785 295.736H247.993ZM254.188 289.16V301H251.948V289.16H254.188ZM260.337 301.144C259.484 301.144 258.716 300.957 258.033 300.584C257.35 300.2 256.812 299.661 256.417 298.968C256.033 298.275 255.841 297.475 255.841 296.568C255.841 295.661 256.038 294.861 256.433 294.168C256.838 293.475 257.388 292.941 258.081 292.568C258.774 292.184 259.548 291.992 260.401 291.992C261.254 291.992 262.028 292.184 262.721 292.568C263.414 292.941 263.958 293.475 264.353 294.168C264.758 294.861 264.961 295.661 264.961 296.568C264.961 297.475 264.753 298.275 264.337 298.968C263.932 299.661 263.377 300.2 262.673 300.584C261.98 300.957 261.201 301.144 260.337 301.144ZM260.337 299.192C260.742 299.192 261.121 299.096 261.473 298.904C261.836 298.701 262.124 298.403 262.337 298.008C262.55 297.613 262.657 297.133 262.657 296.568C262.657 295.725 262.433 295.08 261.985 294.632C261.548 294.173 261.009 293.944 260.369 293.944C259.729 293.944 259.19 294.173 258.753 294.632C258.326 295.08 258.113 295.725 258.113 296.568C258.113 297.411 258.321 298.061 258.737 298.52C259.164 298.968 259.697 299.192 260.337 299.192ZM268.844 293.416C269.132 293.011 269.527 292.675 270.028 292.408C270.54 292.131 271.121 291.992 271.772 291.992C272.529 291.992 273.212 292.179 273.82 292.552C274.439 292.925 274.924 293.459 275.276 294.152C275.639 294.835 275.82 295.629 275.82 296.536C275.82 297.443 275.639 298.248 275.276 298.952C274.924 299.645 274.439 300.184 273.82 300.568C273.212 300.952 272.529 301.144 271.772 301.144C271.121 301.144 270.545 301.011 270.044 300.744C269.553 300.477 269.153 300.141 268.844 299.736V305.224H266.604V292.136H268.844V293.416ZM273.532 296.536C273.532 296.003 273.42 295.544 273.196 295.16C272.983 294.765 272.695 294.467 272.332 294.264C271.98 294.061 271.596 293.96 271.18 293.96C270.775 293.96 270.391 294.067 270.028 294.28C269.676 294.483 269.388 294.781 269.164 295.176C268.951 295.571 268.844 296.035 268.844 296.568C268.844 297.101 268.951 297.565 269.164 297.96C269.388 298.355 269.676 298.659 270.028 298.872C270.391 299.075 270.775 299.176 271.18 299.176C271.596 299.176 271.98 299.069 272.332 298.856C272.695 298.643 272.983 298.339 273.196 297.944C273.42 297.549 273.532 297.08 273.532 296.536ZM285.688 296.376C285.688 296.696 285.666 296.984 285.624 297.24H279.144C279.197 297.88 279.421 298.381 279.816 298.744C280.21 299.107 280.696 299.288 281.272 299.288C282.104 299.288 282.696 298.931 283.048 298.216H285.464C285.208 299.069 284.717 299.773 283.992 300.328C283.266 300.872 282.376 301.144 281.32 301.144C280.466 301.144 279.698 300.957 279.016 300.584C278.344 300.2 277.816 299.661 277.432 298.968C277.058 298.275 276.872 297.475 276.872 296.568C276.872 295.651 277.058 294.845 277.432 294.152C277.805 293.459 278.328 292.925 279 292.552C279.672 292.179 280.445 291.992 281.32 291.992C282.162 291.992 282.914 292.173 283.576 292.536C284.248 292.899 284.765 293.416 285.128 294.088C285.501 294.749 285.688 295.512 285.688 296.376ZM283.368 295.736C283.357 295.16 283.149 294.701 282.744 294.36C282.338 294.008 281.842 293.832 281.256 293.832C280.701 293.832 280.232 294.003 279.848 294.344C279.474 294.675 279.245 295.139 279.16 295.736H283.368ZM289.563 293.512C289.851 293.043 290.224 292.675 290.683 292.408C291.152 292.141 291.685 292.008 292.283 292.008V294.36H291.691C290.987 294.36 290.453 294.525 290.091 294.856C289.739 295.187 289.563 295.763 289.563 296.584V301H287.323V292.136H289.563V293.512Z" fill="#413C3B"/>
<rect x="116" y="316" width="154" height="18" rx="5" fill="#D9D9D9"/>
<rect x="116" y="363" width="61" height="22" rx="5" fill="#D9D9D9"/>
</g>
<path d="M92 1H83C82.4697 1.00058 81.9614 1.21148 81.5864 1.58643C81.2115 1.96137 81.0006 2.46974 81 3V12C81.0006 12.5303 81.2115 13.0386 81.5864 13.4136C81.9614 13.7885 82.4697 13.9994 83 14H92C92.5303 13.9994 93.0386 13.7885 93.4136 13.4136C93.7885 13.0386 93.9994 12.5303 94 12V3C93.9994 2.46974 93.7885 1.96137 93.4136 1.58643C93.0386 1.21148 92.5303 1.00058 92 1ZM90.8828 5.32156L86.6828 10.3216C86.6367 10.3764 86.5794 10.4208 86.5147 10.4516C86.45 10.4823 86.3795 10.4989 86.3078 10.5H86.2994C86.2293 10.5 86.16 10.4852 86.096 10.4567C86.032 10.4282 85.9747 10.3865 85.9278 10.3344L84.1278 8.33438C84.0821 8.28589 84.0465 8.22876 84.0232 8.16633C83.9999 8.10391 83.9893 8.03745 83.992 7.97087C83.9948 7.90429 84.0108 7.83892 84.0391 7.77862C84.0675 7.71831 84.1076 7.66429 84.1571 7.61971C84.2067 7.57514 84.2646 7.54091 84.3276 7.51905C84.3905 7.49719 84.4572 7.48813 84.5237 7.4924C84.5902 7.49668 84.6552 7.51421 84.7148 7.54396C84.7744 7.5737 84.8275 7.61507 84.8709 7.66562L86.2863 9.23812L90.1172 4.67844C90.2031 4.57909 90.3247 4.51754 90.4556 4.50711C90.5866 4.49668 90.7164 4.53819 90.817 4.62268C90.9175 4.70717 90.9808 4.82784 90.9931 4.95862C91.0055 5.0894 90.9658 5.21977 90.8828 5.32156Z" fill="#01B753"/>
<path d="M104.444 7.812C104.444 6.996 104.632 6.264 105.008 5.616C105.392 4.968 105.908 4.464 106.556 4.104C107.212 3.736 107.928 3.552 108.704 3.552C109.592 3.552 110.38 3.772 111.068 4.212C111.764 4.644 112.268 5.26 112.58 6.06H110.936C110.72 5.62 110.42 5.292 110.036 5.076C109.652 4.86 109.208 4.752 108.704 4.752C108.152 4.752 107.66 4.876 107.228 5.124C106.796 5.372 106.456 5.728 106.208 6.192C105.968 6.656 105.848 7.196 105.848 7.812C105.848 8.428 105.968 8.968 106.208 9.432C106.456 9.896 106.796 10.256 107.228 10.512C107.66 10.76 108.152 10.884 108.704 10.884C109.208 10.884 109.652 10.776 110.036 10.56C110.42 10.344 110.72 10.016 110.936 9.576H112.58C112.268 10.376 111.764 10.992 111.068 11.424C110.38 11.856 109.592 12.072 108.704 12.072C107.92 12.072 107.204 11.892 106.556 11.532C105.908 11.164 105.392 10.656 105.008 10.008C104.632 9.36 104.444 8.628 104.444 7.812ZM116.905 3.66C117.793 3.66 118.569 3.832 119.233 4.176C119.905 4.512 120.421 5 120.781 5.64C121.149 6.272 121.333 7.012 121.333 7.86C121.333 8.708 121.149 9.444 120.781 10.068C120.421 10.692 119.905 11.172 119.233 11.508C118.569 11.836 117.793 12 116.905 12H114.181V3.66H116.905ZM116.905 10.884C117.881 10.884 118.629 10.62 119.149 10.092C119.669 9.564 119.929 8.82 119.929 7.86C119.929 6.892 119.669 6.136 119.149 5.592C118.629 5.048 117.881 4.776 116.905 4.776H115.549V10.884H116.905ZM124.057 3.66V12H122.689V3.66H124.057Z" fill="#33485B"/>
<path d="M186 1H177C176.47 1.00058 175.961 1.21148 175.586 1.58643C175.211 1.96137 175.001 2.46974 175 3V12C175.001 12.5303 175.211 13.0386 175.586 13.4136C175.961 13.7885 176.47 13.9994 177 14H186C186.53 13.9994 187.039 13.7885 187.414 13.4136C187.789 13.0386 187.999 12.5303 188 12V3C187.999 2.46974 187.789 1.96137 187.414 1.58643C187.039 1.21148 186.53 1.00058 186 1ZM184.883 5.32156L180.683 10.3216C180.637 10.3764 180.579 10.4208 180.515 10.4516C180.45 10.4823 180.379 10.4989 180.308 10.5H180.299C180.229 10.5 180.16 10.4852 180.096 10.4567C180.032 10.4282 179.975 10.3865 179.928 10.3344L178.128 8.33438C178.082 8.28589 178.047 8.22876 178.023 8.16633C178 8.10391 177.989 8.03745 177.992 7.97087C177.995 7.90429 178.011 7.83892 178.039 7.77862C178.067 7.71831 178.108 7.66429 178.157 7.61971C178.207 7.57514 178.265 7.54091 178.328 7.51905C178.391 7.49719 178.457 7.48813 178.524 7.4924C178.59 7.49668 178.655 7.51421 178.715 7.54396C178.774 7.5737 178.828 7.61507 178.871 7.66562L180.286 9.23812L184.117 4.67844C184.203 4.57909 184.325 4.51754 184.456 4.50711C184.587 4.49668 184.716 4.53819 184.817 4.62268C184.918 4.70717 184.981 4.82784 184.993 4.95862C185.005 5.0894 184.966 5.21977 184.883 5.32156Z" fill="#01B753"/>
<path d="M201.648 12.084C201.088 12.084 200.584 11.988 200.136 11.796C199.688 11.596 199.336 11.316 199.08 10.956C198.824 10.596 198.696 10.176 198.696 9.696H200.16C200.192 10.056 200.332 10.352 200.58 10.584C200.836 10.816 201.192 10.932 201.648 10.932C202.12 10.932 202.488 10.82 202.752 10.596C203.016 10.364 203.148 10.068 203.148 9.708C203.148 9.428 203.064 9.2 202.896 9.024C202.736 8.848 202.532 8.712 202.284 8.616C202.044 8.52 201.708 8.416 201.276 8.304C200.732 8.16 200.288 8.016 199.944 7.872C199.608 7.72 199.32 7.488 199.08 7.176C198.84 6.864 198.72 6.448 198.72 5.928C198.72 5.448 198.84 5.028 199.08 4.668C199.32 4.308 199.656 4.032 200.088 3.84C200.52 3.648 201.02 3.552 201.588 3.552C202.396 3.552 203.056 3.756 203.568 4.164C204.088 4.564 204.376 5.116 204.432 5.82H202.92C202.896 5.516 202.752 5.256 202.488 5.04C202.224 4.824 201.876 4.716 201.444 4.716C201.052 4.716 200.732 4.816 200.484 5.016C200.236 5.216 200.112 5.504 200.112 5.88C200.112 6.136 200.188 6.348 200.34 6.516C200.5 6.676 200.7 6.804 200.94 6.9C201.18 6.996 201.508 7.1 201.924 7.212C202.476 7.364 202.924 7.516 203.268 7.668C203.62 7.82 203.916 8.056 204.156 8.376C204.404 8.688 204.528 9.108 204.528 9.636C204.528 10.06 204.412 10.46 204.18 10.836C203.956 11.212 203.624 11.516 203.184 11.748C202.752 11.972 202.24 12.084 201.648 12.084ZM212.202 8.532C212.202 8.78 212.186 9.004 212.154 9.204H207.102C207.142 9.732 207.338 10.156 207.69 10.476C208.042 10.796 208.474 10.956 208.986 10.956C209.722 10.956 210.242 10.648 210.546 10.032H212.022C211.822 10.64 211.458 11.14 210.93 11.532C210.41 11.916 209.762 12.108 208.986 12.108C208.354 12.108 207.786 11.968 207.282 11.688C206.786 11.4 206.394 11 206.106 10.488C205.826 9.968 205.686 9.368 205.686 8.688C205.686 8.008 205.822 7.412 206.094 6.9C206.374 6.38 206.762 5.98 207.258 5.7C207.762 5.42 208.338 5.28 208.986 5.28C209.61 5.28 210.166 5.416 210.654 5.688C211.142 5.96 211.522 6.344 211.794 6.84C212.066 7.328 212.202 7.892 212.202 8.532ZM210.774 8.1C210.766 7.596 210.586 7.192 210.234 6.888C209.882 6.584 209.446 6.432 208.926 6.432C208.454 6.432 208.05 6.584 207.714 6.888C207.378 7.184 207.178 7.588 207.114 8.1H210.774ZM216.884 5.28C217.404 5.28 217.868 5.388 218.276 5.604C218.692 5.82 219.016 6.14 219.248 6.564C219.48 6.988 219.596 7.5 219.596 8.1V12H218.24V8.304C218.24 7.712 218.092 7.26 217.796 6.948C217.5 6.628 217.096 6.468 216.584 6.468C216.072 6.468 215.664 6.628 215.36 6.948C215.064 7.26 214.916 7.712 214.916 8.304V12H213.548V5.388H214.916V6.144C215.14 5.872 215.424 5.66 215.768 5.508C216.12 5.356 216.492 5.28 216.884 5.28ZM222.037 4.512C221.789 4.512 221.581 4.428 221.413 4.26C221.245 4.092 221.161 3.884 221.161 3.636C221.161 3.388 221.245 3.18 221.413 3.012C221.581 2.844 221.789 2.76 222.037 2.76C222.277 2.76 222.481 2.844 222.649 3.012C222.817 3.18 222.901 3.388 222.901 3.636C222.901 3.884 222.817 4.092 222.649 4.26C222.481 4.428 222.277 4.512 222.037 4.512ZM222.709 5.388V12H221.341V5.388H222.709ZM227.373 12.108C226.749 12.108 226.185 11.968 225.681 11.688C225.177 11.4 224.781 11 224.493 10.488C224.205 9.968 224.061 9.368 224.061 8.688C224.061 8.016 224.209 7.42 224.505 6.9C224.801 6.38 225.205 5.98 225.717 5.7C226.229 5.42 226.801 5.28 227.433 5.28C228.065 5.28 228.637 5.42 229.149 5.7C229.661 5.98 230.065 6.38 230.361 6.9C230.657 7.42 230.805 8.016 230.805 8.688C230.805 9.36 230.653 9.956 230.349 10.476C230.045 10.996 229.629 11.4 229.101 11.688C228.581 11.968 228.005 12.108 227.373 12.108ZM227.373 10.92C227.725 10.92 228.053 10.836 228.357 10.668C228.669 10.5 228.921 10.248 229.113 9.912C229.305 9.576 229.401 9.168 229.401 8.688C229.401 8.208 229.309 7.804 229.125 7.476C228.941 7.14 228.697 6.888 228.393 6.72C228.089 6.552 227.761 6.468 227.409 6.468C227.057 6.468 226.729 6.552 226.425 6.72C226.129 6.888 225.893 7.14 225.717 7.476C225.541 7.804 225.453 8.208 225.453 8.688C225.453 9.4 225.633 9.952 225.993 10.344C226.361 10.728 226.821 10.92 227.373 10.92ZM233.526 6.348C233.726 6.012 233.99 5.752 234.318 5.568C234.654 5.376 235.05 5.28 235.506 5.28V6.696H235.158C234.622 6.696 234.214 6.832 233.934 7.104C233.662 7.376 233.526 7.848 233.526 8.52V12H232.158V5.388H233.526V6.348Z" fill="#33485B"/>
<path d="M270 1H261C260.47 1.00058 259.961 1.21148 259.586 1.58643C259.211 1.96137 259.001 2.46974 259 3V12C259.001 12.5303 259.211 13.0386 259.586 13.4136C259.961 13.7885 260.47 13.9994 261 14H270C270.53 13.9994 271.039 13.7885 271.414 13.4136C271.789 13.0386 271.999 12.5303 272 12V3C271.999 2.46974 271.789 1.96137 271.414 1.58643C271.039 1.21148 270.53 1.00058 270 1ZM268.883 5.32156L264.683 10.3216C264.637 10.3764 264.579 10.4208 264.515 10.4516C264.45 10.4823 264.379 10.4989 264.308 10.5H264.299C264.229 10.5 264.16 10.4852 264.096 10.4567C264.032 10.4282 263.975 10.3865 263.928 10.3344L262.128 8.33438C262.082 8.28589 262.047 8.22876 262.023 8.16633C262 8.10391 261.989 8.03745 261.992 7.97087C261.995 7.90429 262.011 7.83892 262.039 7.77862C262.067 7.71831 262.108 7.66429 262.157 7.61971C262.207 7.57514 262.265 7.54091 262.328 7.51905C262.391 7.49719 262.457 7.48813 262.524 7.4924C262.59 7.49668 262.655 7.51421 262.715 7.54396C262.774 7.5737 262.828 7.61507 262.871 7.66562L264.286 9.23812L268.117 4.67844C268.203 4.57909 268.325 4.51754 268.456 4.50711C268.587 4.49668 268.716 4.53819 268.817 4.62268C268.918 4.70717 268.981 4.82784 268.993 4.95862C269.005 5.0894 268.966 5.21977 268.883 5.32156Z" fill="#01B753"/>
<path d="M287.808 3.66V4.776H284.268V7.236H287.028V8.352H284.268V12H282.9V3.66H287.808ZM295.064 5.388V12H293.696V11.22C293.48 11.492 293.196 11.708 292.844 11.868C292.5 12.02 292.132 12.096 291.74 12.096C291.22 12.096 290.752 11.988 290.336 11.772C289.928 11.556 289.604 11.236 289.364 10.812C289.132 10.388 289.016 9.876 289.016 9.276V5.388H290.372V9.072C290.372 9.664 290.52 10.12 290.816 10.44C291.112 10.752 291.516 10.908 292.028 10.908C292.54 10.908 292.944 10.752 293.24 10.44C293.544 10.12 293.696 9.664 293.696 9.072V5.388H295.064ZM298.237 3.12V12H296.869V3.12H298.237ZM301.401 3.12V12H300.033V3.12H301.401ZM307.91 6.504V10.164C307.91 10.412 307.966 10.592 308.078 10.704C308.198 10.808 308.398 10.86 308.678 10.86H309.518V12H308.438C307.822 12 307.35 11.856 307.022 11.568C306.694 11.28 306.53 10.812 306.53 10.164V6.504H305.75V5.388H306.53V3.744H307.91V5.388H309.518V6.504H307.91ZM311.475 4.512C311.227 4.512 311.019 4.428 310.851 4.26C310.683 4.092 310.599 3.884 310.599 3.636C310.599 3.388 310.683 3.18 310.851 3.012C311.019 2.844 311.227 2.76 311.475 2.76C311.715 2.76 311.919 2.844 312.087 3.012C312.255 3.18 312.339 3.388 312.339 3.636C312.339 3.884 312.255 4.092 312.087 4.26C311.919 4.428 311.715 4.512 311.475 4.512ZM312.147 5.388V12H310.779V5.388H312.147ZM321.947 5.28C322.467 5.28 322.931 5.388 323.339 5.604C323.755 5.82 324.079 6.14 324.311 6.564C324.551 6.988 324.671 7.5 324.671 8.1V12H323.315V8.304C323.315 7.712 323.167 7.26 322.871 6.948C322.575 6.628 322.171 6.468 321.659 6.468C321.147 6.468 320.739 6.628 320.435 6.948C320.139 7.26 319.991 7.712 319.991 8.304V12H318.635V8.304C318.635 7.712 318.487 7.26 318.191 6.948C317.895 6.628 317.491 6.468 316.979 6.468C316.467 6.468 316.059 6.628 315.755 6.948C315.459 7.26 315.311 7.712 315.311 8.304V12H313.943V5.388H315.311V6.144C315.535 5.872 315.819 5.66 316.163 5.508C316.507 5.356 316.875 5.28 317.267 5.28C317.795 5.28 318.267 5.392 318.683 5.616C319.099 5.84 319.419 6.164 319.643 6.588C319.843 6.188 320.155 5.872 320.579 5.64C321.003 5.4 321.459 5.28 321.947 5.28ZM332.472 8.532C332.472 8.78 332.456 9.004 332.424 9.204H327.372C327.412 9.732 327.608 10.156 327.96 10.476C328.312 10.796 328.744 10.956 329.256 10.956C329.992 10.956 330.512 10.648 330.816 10.032H332.292C332.092 10.64 331.728 11.14 331.2 11.532C330.68 11.916 330.032 12.108 329.256 12.108C328.624 12.108 328.056 11.968 327.552 11.688C327.056 11.4 326.664 11 326.376 10.488C326.096 9.968 325.956 9.368 325.956 8.688C325.956 8.008 326.092 7.412 326.364 6.9C326.644 6.38 327.032 5.98 327.528 5.7C328.032 5.42 328.608 5.28 329.256 5.28C329.88 5.28 330.436 5.416 330.924 5.688C331.412 5.96 331.792 6.344 332.064 6.84C332.336 7.328 332.472 7.892 332.472 8.532ZM331.044 8.1C331.036 7.596 330.856 7.192 330.504 6.888C330.152 6.584 329.716 6.432 329.196 6.432C328.724 6.432 328.32 6.584 327.984 6.888C327.648 7.184 327.448 7.588 327.384 8.1H331.044Z" fill="#33485B"/>
<defs>
<filter id="filter0_d_422_10" x="0" y="118" width="517" height="380" filterUnits="userSpaceOnUse" color-interpolation-filters="sRGB">
<feFlood flood-opacity="0" result="BackgroundImageFix"/>
<feColorMatrix in="SourceAlpha" type="matrix" values="0 0 0 0 0 0 0 0 0 0 0 0 0 0 0 0 0 0 127 0" result="hardAlpha"/>
<feOffset dy="4"/>
<feGaussianBlur stdDeviation="45"/>
<feComposite in2="hardAlpha" operator="out"/>
<feColorMatrix type="matrix" values="0 0 0 0 0 0 0 0 0 0 0 0 0 0 0 0 0 0 0.19 0"/>
<feBlend mode="normal" in2="BackgroundImageFix" result="effect1_dropShadow_422_10"/>
<feBlend mode="normal" in="SourceGraphic" in2="effect1_dropShadow_422_10" result="shape"/>
</filter>
</defs>
</svg>
