<svg width="141" height="32" viewBox="0 0 141 32" fill="none" xmlns="http://www.w3.org/2000/svg">
<path d="M28.2231 0H3.97763C1.78084 0 0 1.78374 0 3.98411V28.0159C0 30.2163 1.78084 32 3.97763 32H28.2231C30.4199 32 32.2007 30.2163 32.2007 28.0159V3.98411C32.2007 1.78374 30.4199 0 28.2231 0Z" fill="#0073FF"/>
<path d="M52.457 22.0176C52.6523 22.6523 52.8867 23.1016 53.2188 23.4434C53.5898 23.8145 54.1758 24.0684 55.1816 24.0684C56.1777 24.0684 56.7637 23.8145 57.1348 23.4434C57.4668 23.1113 57.7012 22.6523 57.9062 22.0176L60.8945 12.7402C61.041 12.2812 61.0898 12.0664 61.0898 11.8809C61.0898 10.9336 60.1035 10.4453 59.3027 10.4453C58.873 10.4453 58.502 10.582 58.2773 10.8066C58.0234 11.0605 57.8965 11.4414 57.7793 11.8809L55.8066 18.8828C55.5332 19.8398 55.377 20.8652 55.377 20.8652H55.3379C55.3379 20.8652 55.1328 19.8301 54.8496 18.8828L52.7305 11.8906C52.5938 11.4316 52.4766 11.0605 52.2422 10.8262C52.0078 10.5918 51.6562 10.4453 51.1777 10.4453C50.3574 10.4453 49.3027 10.9922 49.3027 11.998C49.3027 12.2227 49.3516 12.4277 49.498 12.8965L52.457 22.0176ZM62.725 22.623C62.725 23.541 63.2621 24.0684 64.3852 24.0684C65.518 24.0684 66.0453 23.541 66.0453 22.623V15.377C66.0453 14.459 65.518 13.9219 64.3852 13.9219C63.2621 13.9219 62.725 14.459 62.725 15.377V22.623ZM62.5102 11.1484C62.5102 12.1055 63.2719 12.8672 64.3656 12.8672C65.518 12.8672 66.2699 12.1152 66.2699 11.1094C66.2699 10.1523 65.5082 9.39062 64.4047 9.39062C63.2621 9.39062 62.5102 10.1426 62.5102 11.1484ZM76.6355 19.7422C77.5828 19.7422 78.1395 19.1953 78.1395 18.082C78.1395 15.4258 76.4891 13.7852 73.8133 13.7852C70.698 13.7852 68.5887 15.8848 68.5887 19.332C68.5887 22.3105 70.5027 24.2051 73.7938 24.2051C75.7078 24.2051 76.8602 23.668 77.2898 23.2383C77.5633 22.9648 77.6805 22.6914 77.6805 22.291C77.6805 21.7539 77.3289 21.2852 76.7234 21.2852C76.1961 21.2852 75.6297 21.6758 74.3992 21.6758C72.9441 21.6758 72.0848 21.002 71.8797 19.7617V19.7422H76.6355ZM71.8797 17.8477C72.1141 16.5391 72.7586 16.0703 73.5301 16.0703C74.4383 16.0703 74.9266 16.6172 75.073 17.8477H71.8797ZM81.7473 21.9102C81.9523 22.6523 82.1867 23.1602 82.509 23.4824C82.8898 23.8633 83.466 24.0781 84.3547 24.0781C85.2043 24.0781 85.7805 23.8926 86.1711 23.4922C86.5227 23.1504 86.7277 22.5645 86.8937 21.8223L87.6652 18.7559C87.8703 17.8574 87.9582 17.0469 87.9582 17.0469H87.9973C87.9973 17.0469 88.0949 17.8574 88.3 18.7559L89.0617 21.8223C89.2277 22.5742 89.4328 23.1504 89.7746 23.502C90.175 23.8926 90.7609 24.0781 91.6008 24.0781C92.4699 24.0781 93.0363 23.873 93.4367 23.4824C93.7492 23.1602 93.9934 22.6426 94.1887 21.8906L95.7902 16.0898C95.9367 15.5723 95.9465 15.4062 95.9465 15.2402C95.9465 14.3809 95.0773 13.8926 94.2473 13.8926C93.7785 13.8926 93.3977 14.0586 93.173 14.2832C92.9387 14.5176 92.841 14.9375 92.7336 15.4453L91.7961 19.6934C91.6105 20.5332 91.5227 21.207 91.5227 21.207H91.4836C91.4836 21.207 91.3762 20.5332 91.1809 19.6934L90.2531 15.709C89.9699 14.4297 89.3937 13.8926 88.0852 13.8926C86.7766 13.8926 86.1906 14.4297 85.9074 15.709L84.9895 19.6934C84.7941 20.543 84.716 21.207 84.716 21.207H84.677C84.677 21.207 84.6086 20.5527 84.4035 19.6934L83.3781 15.4551C83.2512 14.918 83.1535 14.5176 82.9094 14.2734C82.675 14.0391 82.2844 13.8926 81.8352 13.8926C81.0539 13.8926 80.009 14.3711 80.009 15.3281C80.009 15.4844 80.0285 15.6895 80.1652 16.2168L81.7473 21.9102ZM105.785 19.7422C106.732 19.7422 107.289 19.1953 107.289 18.082C107.289 15.4258 105.638 13.7852 102.963 13.7852C99.8473 13.7852 97.7379 15.8848 97.7379 19.332C97.7379 22.3105 99.652 24.2051 102.943 24.2051C104.857 24.2051 106.009 23.668 106.439 23.2383C106.713 22.9648 106.83 22.6914 106.83 22.291C106.83 21.7539 106.478 21.2852 105.873 21.2852C105.345 21.2852 104.779 21.6758 103.548 21.6758C102.093 21.6758 101.234 21.002 101.029 19.7617V19.7422H105.785ZM101.029 17.8477C101.263 16.5391 101.908 16.0703 102.679 16.0703C103.588 16.0703 104.076 16.6172 104.222 17.8477H101.029ZM109.852 22.623C109.852 23.541 110.389 24.0684 111.512 24.0684C112.645 24.0684 113.172 23.541 113.172 22.623V18.1602C113.367 17.7988 113.875 17.0469 114.48 17.0469C114.803 17.0469 114.979 17.2227 115.271 17.2227C115.887 17.2227 116.385 16.4902 116.385 15.25C116.385 14.2344 115.916 13.7852 115.135 13.7852C114.09 13.7852 113.289 14.5176 112.83 15.5332H112.801L112.674 14.957C112.508 14.3223 112.107 13.8926 111.238 13.8926C110.34 13.8926 109.852 14.3711 109.852 15.2695V22.623ZM126.887 14.2637C127.336 13.8438 127.58 13.5898 127.58 13.1992C127.58 12.5547 126.955 11.9785 126.282 11.9785C125.852 11.9785 125.588 12.1543 125.188 12.6523L124.104 14C123.645 13.8633 123.127 13.7949 122.561 13.7949C119.524 13.7949 117.912 15.4062 117.912 17.5547C117.912 18.5117 118.352 19.3906 119.153 20.0156C119.153 20.0156 118.088 20.748 118.088 21.9297C118.088 22.5742 118.371 23.1016 118.84 23.502C118.84 23.502 117.287 24.2441 117.287 25.8848C117.287 27.4668 118.606 28.8047 122.131 28.8047C125.842 28.8047 127.766 27.0957 127.766 25.0352C127.766 23.3066 126.545 22.1445 123.743 22.1445H122.493C121.262 22.1445 120.979 21.9102 120.979 21.4707C120.979 21.1387 121.301 20.8652 121.301 20.8652C121.623 20.9336 121.955 20.9629 122.317 20.9629C125.364 20.9629 126.965 19.3613 126.965 17.2031C126.965 16.3828 126.643 15.6211 126.047 15.0352L126.887 14.2637ZM123.176 24.4102C124.192 24.4102 124.563 24.8008 124.563 25.3281C124.563 26.002 123.918 26.5586 122.405 26.5586C121.155 26.5586 120.618 26.0508 120.618 25.3867C120.618 24.7324 121.164 24.3223 121.164 24.3223C121.516 24.3809 121.858 24.4102 122.229 24.4102H123.176ZM121.037 17.3594C121.037 16.5195 121.575 15.9824 122.414 15.9824C123.303 15.9824 123.85 16.5293 123.85 17.3984C123.85 18.2383 123.313 18.7754 122.454 18.7754C121.584 18.7754 121.037 18.2285 121.037 17.3594ZM129.147 19.166C129.147 22.2031 131.169 24.2051 134.372 24.2051C137.8 24.2051 139.821 22.1836 139.821 18.834C139.821 15.7969 137.809 13.7852 134.606 13.7852C131.179 13.7852 129.147 15.8164 129.147 19.166ZM132.526 18.9805C132.526 17.1445 133.386 16.2852 134.47 16.2852C135.563 16.2852 136.452 17.1738 136.452 19.0195C136.452 20.8555 135.602 21.7148 134.509 21.7148C133.405 21.7148 132.526 20.8359 132.526 18.9805Z" fill="#1E1E1E"/>
<circle cx="21" cy="23" r="5" fill="#FAFAFB"/>
</svg>
