<svg width="26" height="26" viewBox="0 0 26 26" fill="none" xmlns="http://www.w3.org/2000/svg">
<path d="M2.60391 7.64921L13 12.8466L23.3961 7.64921C23.3576 6.98679 23.0673 6.36415 22.5847 5.90881C22.102 5.45347 21.4636 5.19989 20.8 5.20001H5.20001C4.53647 5.19989 3.89799 5.45347 3.41534 5.90881C2.93269 6.36415 2.6424 6.98679 2.60391 7.64921Z" fill="#01B753"/>
<path d="M23.4 10.5534L13 15.7534L2.60001 10.5534V18.2C2.60001 18.8896 2.87393 19.5509 3.36153 20.0385C3.84912 20.5261 4.51044 20.8 5.20001 20.8H20.8C21.4896 20.8 22.1509 20.5261 22.6385 20.0385C23.1261 19.5509 23.4 18.8896 23.4 18.2V10.5534Z" fill="#01B753"/>
</svg>
