<svg width="24" height="61" viewBox="0 0 24 61" fill="none" xmlns="http://www.w3.org/2000/svg">
<path d="M12.7056 7.97361L10.2123 13.9096C9.90316 15.0929 8.21772 16.3645 6.41261 18.5151C5.33054 19.8162 2.77745 18.4905 3.66006 16.9095L6.7866 11.4351L8.84103 6.24043C9.80841 4.41888 11.5088 3.46637 12.7056 4.07028V7.97361Z" fill="#33485B"/>
<path d="M10.2673 48.6665C10.6163 49.1182 10.6113 50.1394 10.5315 51.3227C10.2074 52.506 9.07049 52.4176 8.09813 52.5649C6.2232 52.8546 5.29073 54.2441 2.7925 54.2392C1.29655 54.2392 0.299249 53.9249 0.00504589 52.997C0.0102139 52.7384 0.0797462 52.4849 0.207546 52.259C0.335346 52.033 0.517509 51.8413 0.738059 51.7008C0.738059 51.7008 4.13885 50.1984 4.22861 50.1394C4.79971 49.7486 5.34747 49.3256 5.86916 48.8727C5.89908 48.7549 6.45757 46.187 6.45757 46.187H10.1226L10.2673 48.6665Z" fill="black"/>
<path d="M5.55 49.1624C7.44487 50.2819 10.2074 51.2589 10.5016 49.8792C10.5913 49.4619 10.6811 49.0495 10.7659 48.6371C11.5737 44.7092 11.9527 40.9384 11.2196 37.6341L13.0846 31.3887L13.5832 29.6556C13.6181 25.6344 11.823 24.3186 8.73138 24.9274C8.60672 24.9274 8.48206 24.9765 8.35739 25.0059L7.80888 25.1483L7.44486 27.3479L5.89406 36.824C5.43531 40.4769 6.18827 45.971 5.55 49.1624Z" fill="#1E3A47"/>
<path d="M21.382 54.2687C21.7161 55.3341 21.786 55.6434 21.6463 56.4339C21.4552 56.8177 21.2887 57.2129 21.1477 57.6172C20.9382 58.3291 20.9682 59.5222 19.8911 60.2342C18.6046 61.2161 16.1213 61.28 15.3384 60.2342C15.4463 59.3002 15.7891 58.4075 16.3357 57.6368L17.5973 55.3292L17.5175 53.164L21.1427 52.3833L21.382 54.2687Z" fill="black"/>
<path d="M8.04322 25.4673C8.05214 25.6808 8.0822 25.8929 8.13297 26.1007C8.41185 26.9895 8.94719 27.7793 9.6738 28.3739H9.69873L9.90318 28.5605C11.08 29.5818 12.4812 30.4361 13.0945 31.3689C13.1485 31.4542 13.1968 31.5427 13.2391 31.6341C13.3189 32.1251 13.4087 32.5866 13.4984 33.0727C14.0669 36.2444 14.8149 39.6322 15.6925 43.2066C16.6429 47.184 17.1661 51.2488 17.2533 55.3339C19.0335 56.1391 21.2425 55.6432 21.7162 54.2636C21.7162 52.5353 21.7162 50.7825 21.6514 49.1377C21.5616 45.7008 21.3223 42.7843 20.5493 41.4734V24.3626L18.0162 24.0582L11.5338 23.3168L9.75857 23.1155L8.39227 24.996L8.04322 25.4673Z" fill="#1E3A47"/>
<g style="mix-blend-mode:multiply" opacity="0.5">
<path d="M7.4598 27.3479C8.26698 27.5123 9.02262 27.8641 9.66383 28.3741H9.68877C9.76049 28.4323 9.82875 28.4946 9.89321 28.5606C10.2789 28.9411 10.5944 29.3847 10.8257 29.8716C11.5238 31.6588 10.8257 34.4623 9.98796 37.3591C10.8357 39.6176 10.8008 44.1101 10.7658 48.6174C11.5737 44.6895 11.9526 40.9187 11.2196 37.6144L13.0846 31.3887C13.1385 31.4739 13.1868 31.5625 13.2292 31.6538C13.309 32.1448 13.3987 32.6064 13.4885 33.0924C15.139 33.0139 16.6948 34.4966 18.2356 36.2544L19.0484 41.449C20.31 43.1429 20.9582 46.1526 21.6514 49.0985C21.5616 45.6616 21.3223 42.7452 20.5494 41.4343V24.7948L18.0162 24.0583L13.8375 22.8701L11.5338 23.3169L8.75629 23.4053V24.9175L7.73406 25.7669L7.4598 27.3479Z" fill="#162B35"/>
</g>
<path d="M7.1955 25.1434C7.13435 25.3192 7.11965 25.5075 7.1528 25.6905C7.18595 25.8734 7.26586 26.0451 7.38499 26.1892C7.78344 26.6652 8.32164 27.0082 8.92582 27.1712C9.91808 26.9585 10.7924 26.3852 11.3742 25.5657C11.818 27.564 13.0347 30.3577 13.5832 30.775C14.2464 31.3495 15.7174 31.4624 17.2533 31.1187C17.7767 31.0034 18.2876 30.839 18.7791 30.6277C19.8866 30.1962 20.8369 29.4469 21.5067 28.4772C22.0054 27.3479 21.0879 24.7212 21.1876 21.5347L21.6563 17.3564L22.9379 11.0718C21.1627 7.96875 18.7692 6.16192 16.5003 4.68896H11.3742C10.2024 5.77404 9.55412 7.51213 9.21005 9.59882C9.21005 9.59882 9.2649 18.0389 8.90088 20.0863C8.49261 21.8203 7.9217 23.5133 7.1955 25.1434Z" fill="#33485B"/>
<path d="M14.1617 8.53342H17.9614L11.9377 19.0994C10.2274 15.1028 9.8484 11.2977 11.8879 7.11938L14.1617 8.53342Z" fill="#F2F2F2"/>
<path d="M14.2315 8.67081L14.3362 10.0849L13.4286 11.4154C13.1095 13.4432 12.556 15.6526 12.5859 17.2336L11.8479 19.1975L11.095 17.1845C11.537 15.0441 12.0997 12.9296 12.7804 10.8508L12.8402 9.11761L13.8375 8.50879L14.2315 8.67081Z" fill="#EB3B58"/>
<path d="M15.9867 4.1438L18.0462 5.75914C19.0784 8.86708 16.4954 10.1436 14.8099 11.8719L13.8126 9.15676L11.3643 9.64774L12.2668 5.22888L15.9867 4.1438Z" fill="white"/>
<path d="M17.2533 5.14062C18.7492 6.28462 17.9614 8.52842 16.1862 10.5857C14.5855 12.4367 12.0224 16.5658 11.7432 19.61C13.3289 16.6297 16.1562 12.9326 17.727 11.872L17.2533 10.8017L18.2855 11.0275C19.2253 9.8892 19.7001 8.44657 19.6169 6.98182L17.2533 5.14062Z" fill="#1E3A47"/>
<path d="M13.5981 4.73798C11.3742 6.84431 10.0827 15.5397 11.8928 19.3301C9.89817 16.9635 9.27485 13.394 10.0827 7.787L10.6711 7.42367L10.5015 6.81485L12.3864 4.57104L13.5981 4.73798Z" fill="#1E3A47"/>
<g style="mix-blend-mode:multiply" opacity="0.5">
<path d="M17.2533 31.1236C17.7767 31.0083 18.2877 30.8439 18.7792 30.6326C19.8873 30.1997 20.8377 29.4487 21.5068 28.4772C22.0054 27.3479 21.0879 24.7211 21.1876 21.5346L21.6564 17.3563L18.6146 14.3171C18.1937 15.9213 17.9743 17.5702 17.9614 19.227C12.3316 21.5739 11.454 23.6655 11.3742 25.5705C11.3742 25.9388 17.9714 25.6 17.9614 25.8848C17.8932 27.6491 17.6562 29.4031 17.2533 31.1236Z" fill="#162B35"/>
</g>
<path d="M16.1264 3.43701L17.1237 5.13091C17.9066 7.18323 15.4233 8.89677 13.8974 8.64637L12.3317 5.89194L16.1264 3.43701Z" fill="#FFB294"/>
<g style="mix-blend-mode:multiply" opacity="0.5">
<path d="M15.9718 5.52856C16.0457 6.49099 15.8743 7.45637 15.4731 8.337C14.3262 10.3795 13.3887 8.86726 12.92 8.20934L15.9718 5.52856Z" fill="#FFB294"/>
</g>
<path d="M16.0217 5.05231C15.8621 6.45162 15.4382 7.78219 13.8775 8.75925C13.6829 8.9059 13.4431 8.98247 13.1981 8.97621C12.9531 8.96996 12.7177 8.88126 12.5311 8.72488L11.2596 7.01626C10.7608 6.50227 10.3918 5.87996 10.1825 5.19961L12.1172 1.27173H15.1091L16.5652 3.20621L16.0217 5.05231Z" fill="#FFB294"/>
<path d="M16.7896 4.71837L15.5978 4.96386C15.4261 4.80472 15.204 4.70858 14.9689 4.6916C14.7337 4.67461 14.4998 4.73781 14.3063 4.87058C13.4812 5.47966 12.4697 5.79317 11.4391 5.75926C11.1525 5.75576 10.8697 5.6938 10.6086 5.57729C10.3475 5.46079 10.1137 5.29226 9.92212 5.08236C9.73049 4.87245 9.58512 4.62571 9.49519 4.35772C9.40525 4.08972 9.37271 3.80628 9.39961 3.52528C9.48438 2.40092 11.3942 -0.142382 13.6331 0.00491406C16.261 0.181669 17.5176 2.11124 17.019 4.97859L16.7896 4.71837Z" fill="black"/>
<path d="M16.3159 3.43684C16.4116 3.41261 16.5125 3.41695 16.6057 3.4493C16.6989 3.48164 16.7803 3.54054 16.8394 3.6185C16.9077 3.74156 16.9388 3.88123 16.9292 4.02111C16.9219 4.31888 16.8505 4.61173 16.7198 4.88033C16.669 4.99574 16.5942 5.09942 16.5004 5.18475C16.4536 5.22856 16.3977 5.2618 16.3366 5.28215C16.2754 5.3025 16.2105 5.30947 16.1463 5.30258C15.6975 5.23875 15.7823 4.67412 15.7374 4.35989C15.7094 4.16377 15.7519 3.96417 15.8575 3.79562C15.9632 3.62707 16.1253 3.50016 16.3159 3.43684Z" fill="#FFB294"/>
<path d="M23.272 11.607C24.4737 14.3614 24 20.0421 23.2271 21.7508C22.4542 23.4594 15.2487 25.7326 13.5982 25.0944C12.7654 24.353 12.8851 23.7638 13.0995 22.8113C14.3412 21.5249 16.4006 20.3564 18.9337 19.1927L18.5597 13.7919C19.0933 9.92293 22.3993 9.02442 23.272 11.607Z" fill="#33485B"/>
<path d="M8.58179 20.9846L11.2296 25.2022L11.0002 25.4722L3.58532 21.5787L0.713097 17.6214L0.93749 17.3513L8.58179 20.9846Z" fill="#4D4D4D"/>
<path d="M8.35242 21.2549L11.0002 25.4724L3.35595 21.849L0.713105 17.6216L8.35242 21.2549Z" fill="black"/>
<path d="M6.95613 23.2973L9.87323 23.7882L10.2871 23.6851L10.1226 23.4838L9.6239 22.6344L11.0351 22.2515C11.7459 22.3951 12.4471 22.582 13.1344 22.8112L13.8225 22.5853C14.4458 22.5215 14.8198 24.5493 14.1965 24.6868L12.6756 25.0746L10.8207 25.4674C10.1425 25.6638 9.78846 25.4674 9.01555 25.4674L8.18779 25.0894L7.61434 24.5493L7.04588 24.0043L6.78659 23.8373C6.38767 23.7195 6.38268 23.3022 6.95613 23.2973Z" fill="#FFB294"/>
<path d="M3.43066 20.9896L2.21396 20.0076L1.71531 19.2024L1.48094 20.2335L1.79509 21.2596L2.55802 22.0305C2.69258 22.162 2.86826 22.2451 3.05667 22.2661L3.4157 22.3201C3.47878 22.3272 3.5426 22.3167 3.5999 22.2898C3.65721 22.2629 3.70568 22.2206 3.73982 22.1679L3.76974 22.1188L3.99413 22.0059C4.03915 21.9863 4.07835 21.9558 4.10802 21.9171C4.13768 21.8784 4.15684 21.833 4.16368 21.785V21.6229C4.17374 21.5614 4.16372 21.4983 4.13504 21.4427C4.10637 21.3871 4.06052 21.3419 4.00411 21.3136L3.43066 20.9896Z" fill="#FFB294"/>
<path d="M4.92671 19.2516L5.18601 18.7606C5.7794 17.6756 4.41809 17.1846 3.64518 17.7345L2.50826 18.0978L4.92671 19.2516Z" fill="#FFB294"/>
</svg>
