<svg width="66" height="50" viewBox="0 0 66 50" fill="none" xmlns="http://www.w3.org/2000/svg">
<path d="M23.9686 50H7.75132C3.91941 50 0.801056 46.635 0.801056 42.5V9.99999C0.801056 9.3376 1.0441 8.69976 1.48005 8.2327L8.43031 0.7327C8.86315 0.262271 9.45164 0 10.0681 0H26.2853C27.2839 0 28.1688 0.6875 28.4816 1.70986C28.7991 2.72994 28.4723 3.855 27.6754 4.5L19.3351 11.25V15H23.9686C27.8005 15 30.9189 18.365 30.9189 22.5V42.5C30.9189 46.635 27.8005 50 23.9686 50L23.9686 50ZM5.43456 11.0357V42.5C5.43456 43.8772 6.47244 45 7.75132 45H23.9686C25.2475 45 26.2853 43.8772 26.2853 42.5V22.5C26.2853 21.1228 25.2475 20 23.9686 20H17.0183C15.7374 20 14.7016 18.88 14.7016 17.5V9.99999C14.7016 9.2126 15.0444 8.4727 15.6283 7.99999L19.3351 4.99999H11.0273L5.43456 11.0357Z" fill="#0073FF"/>
<path d="M58.7199 50H42.5027C38.6707 50 35.5524 46.635 35.5524 42.5V9.99999C35.5524 9.3376 35.7954 8.69976 36.2314 8.2327L43.1817 0.7327C43.6145 0.262271 44.203 0 44.8194 0H61.0367C62.0353 0 62.9201 0.6875 63.233 1.70986C63.5505 2.72994 63.2237 3.855 62.4268 4.5L54.0864 11.25V15H58.72C62.5519 15 65.6702 18.365 65.6702 22.5V42.5C65.6702 46.635 62.5519 50 58.72 50L58.7199 50ZM40.1859 11.0357V42.5C40.1859 43.8772 41.2238 45 42.5027 45H58.7199C59.9988 45 61.0367 43.8772 61.0367 42.5V22.5C61.0367 21.1228 59.9988 20 58.7199 20H51.7697C50.4887 20 49.4529 18.88 49.4529 17.5V9.99999C49.4529 9.2126 49.7958 8.4727 50.3796 7.99999L54.0864 4.99999H45.7787L40.1859 11.0357Z" fill="#0073FF"/>
</svg>
