<svg width="16" height="16" viewBox="0 0 16 16" fill="none" xmlns="http://www.w3.org/2000/svg">
<path d="M6.9091 2C5.93817 2 4.98906 2.28791 4.18177 2.82733C3.37448 3.36674 2.74527 4.13343 2.37371 5.03045C2.00216 5.92746 1.90494 6.91451 2.09436 7.86677C2.28378 8.81904 2.75132 9.69375 3.43786 10.3803C4.12441 11.0668 4.99912 11.5344 5.95138 11.7238C6.90365 11.9132 7.8907 11.816 8.78771 11.4444C9.68473 11.0729 10.4514 10.4437 10.9908 9.63639C11.5302 8.8291 11.8182 7.87998 11.8182 6.90906C11.8181 5.60712 11.3008 4.35853 10.3802 3.43792C9.45962 2.51731 8.21103 2.00008 6.9091 2ZM6.9091 2V2Z" stroke="#949391" stroke-width="1.5"/>
<path d="M10.5715 10.5723L13.9999 14.0007" stroke="#949391" stroke-width="1.5"/>
</svg>
