<svg width="20" height="21" viewBox="0 0 20 21" fill="none" xmlns="http://www.w3.org/2000/svg">
<path d="M6.65491 18.9518C6.65491 19.0716 6.72145 19.1815 6.82727 19.2375C6.93301 19.2935 7.06157 19.2863 7.1604 19.2186L9.38624 17.6988L6.65495 16.397V18.9518H6.65491Z" fill="#0B85EC"/>
<path d="M19.8961 1.81071C19.8349 1.75435 19.756 1.72485 19.6763 1.72485C19.6282 1.72485 19.5802 1.73552 19.5348 1.75782L0.319362 11.1835C0.122959 11.2801 -0.0013227 11.4806 1.06223e-05 11.7C0.00134395 11.9191 0.127727 12.1183 0.325544 12.2127L5.38984 14.6258L15.5158 6.30301L6.64458 15.2236L12.9534 18.2296C13.0309 18.2668 13.1155 18.2852 13.1992 18.2852C13.2707 18.2852 13.3414 18.2722 13.4088 18.2458C13.5557 18.1877 13.6725 18.0713 13.7308 17.9243L19.9771 2.16683C20.0265 2.04283 19.9943 1.90105 19.8961 1.81071Z" fill="#0B85EC"/>
</svg>
