<svg width="16" height="20" viewBox="0 0 16 20" fill="none" xmlns="http://www.w3.org/2000/svg">
<path d="M5.45135 9.11113C5.18288 8.84266 5.18288 8.40734 5.45135 8.13887L7.51385 6.07637C7.78232 5.80788 8.21765 5.80788 8.48611 6.07637L10.5486 8.13887C10.8171 8.40734 10.8171 8.84266 10.5486 9.11113C10.2801 9.3796 9.84482 9.3796 9.57635 9.11113L8.68748 8.22226V11.375C8.68748 11.7547 8.37969 12.0625 7.99998 12.0625C7.62028 12.0625 7.31248 11.7547 7.31248 11.375V8.22226L6.42361 9.11113C6.15515 9.3796 5.71982 9.3796 5.45135 9.11113Z" fill="#0073FF"/>
<path d="M11.4375 14.125C11.8172 14.125 12.125 13.8172 12.125 13.4375C12.125 13.0578 11.8172 12.75 11.4375 12.75H4.5625C4.18279 12.75 3.875 13.0578 3.875 13.4375C3.875 13.8172 4.18279 14.125 4.5625 14.125H11.4375Z" fill="#0073FF"/>
<path fill-rule="evenodd" clip-rule="evenodd" d="M2.92531 1.14907C3.31672 0.659811 3.90931 0.375 4.53582 0.375H13.5C14.6391 0.375 15.5625 1.29842 15.5625 2.4375V17.5625C15.5625 18.7016 14.6391 19.625 13.5 19.625H2.5C1.36092 19.625 0.4375 18.7016 0.4375 17.5625V4.98232C0.4375 4.51399 0.59689 4.0596 0.889456 3.69389L2.92531 1.14907ZM4.53582 1.75C4.32703 1.75 4.12951 1.84494 3.99902 2.00803L1.96315 4.55285C1.86563 4.67475 1.8125 4.82621 1.8125 4.98232V17.5625C1.8125 17.9422 2.12031 18.25 2.5 18.25H13.5C13.8797 18.25 14.1875 17.9422 14.1875 17.5625V2.4375C14.1875 2.05781 13.8797 1.75 13.5 1.75H4.53582Z" fill="#0073FF"/>
</svg>
