<svg width="1920" height="984" viewBox="0 0 1920 984" fill="none" xmlns="http://www.w3.org/2000/svg">
<rect y="185" width="1924" height="602" fill="#0073FF"/>
<path fill-rule="evenodd" clip-rule="evenodd" d="M0 0H80.1667C160.333 0 320.667 0 481 28C641.333 57 801.667 115 962 129C1122.33 144 1282.67 115 1443 86C1603.33 57 1763.67 28 1843.83 14L1924 0V302H1843.83C1763.67 302 1603.33 302 1443 302C1282.67 302 1122.33 302 962 302C801.667 302 641.333 302 481 302C320.667 302 160.333 302 80.1667 302H0V0Z" fill="#0073FF"/>
<path fill-rule="evenodd" clip-rule="evenodd" d="M1924 984L1843.83 984C1763.67 984 1603.33 984 1443 956C1282.67 927 1122.33 869 962 855C801.667 840 641.333 869 481 898C320.667 927 160.333 956 80.1667 970L6.10352e-05 984L8.74368e-05 682L80.1668 682C160.333 682 320.667 682 481 682C641.333 682 801.667 682 962 682C1122.33 682 1282.67 682 1443 682C1603.33 682 1763.67 682 1843.83 682L1924 682L1924 984Z" fill="#0073FF"/>
</svg>
