<svg id="calendar_1_" data-name="calendar (1)" xmlns="http://www.w3.org/2000/svg" width="45.855" height="46.933" viewBox="0 0 45.855 46.933">
  <path id="Path_722" data-name="Path 722" d="M196,285.039a1.386,1.386,0,0,0,1.96,0l4.947-4.948a1.386,1.386,0,1,0-1.96-1.96l-3.967,3.967-1.809-1.809a1.386,1.386,0,1,0-1.96,1.96Zm0,0" transform="translate(-175.13 -252.268)" fill="#e3b038"/>
  <path id="Path_723" data-name="Path 723" d="M141.106,221.818a11,11,0,1,0-11-11A11.014,11.014,0,0,0,141.106,221.818Zm0-19.231a8.23,8.23,0,1,1-8.23,8.23A8.239,8.239,0,0,1,141.106,202.588Zm0,0" transform="translate(-118.179 -181.5)" fill="#e3b038"/>
  <path id="Path_724" data-name="Path 724" d="M41.373,2.951H38.845V1.386a1.386,1.386,0,1,0-2.771,0V2.951H33.351V1.386a1.386,1.386,0,0,0-2.772,0V2.951h-15.3V1.386a1.386,1.386,0,0,0-2.772,0V2.951H9.781V1.386a1.386,1.386,0,0,0-2.772,0V2.951H4.481A4.487,4.487,0,0,0,0,7.433V42.451a4.487,4.487,0,0,0,4.482,4.482H41.373a4.487,4.487,0,0,0,4.482-4.482V7.433a4.487,4.487,0,0,0-4.482-4.482Zm1.71,39.5a1.712,1.712,0,0,1-1.71,1.71H4.482a1.712,1.712,0,0,1-1.71-1.71V14.474H43.083ZM2.771,7.433a1.712,1.712,0,0,1,1.71-1.71H7.009V7.288a1.386,1.386,0,0,0,2.772,0V5.723H12.5V7.288a1.386,1.386,0,0,0,2.772,0V5.723h15.3V7.288a1.386,1.386,0,0,0,2.772,0V5.723h2.723V7.288a1.386,1.386,0,0,0,2.772,0V5.723h2.527a1.712,1.712,0,0,1,1.71,1.71V11.7H2.771Zm0,0" transform="translate(0 0)" fill="#e3b038"/>
</svg>
