<svg id="desktop" xmlns="http://www.w3.org/2000/svg" width="55.474" height="67.71" viewBox="0 0 55.474 67.71">
  <path id="Path_716" data-name="Path 716" d="M56.5,344.008h6.793v2.264H56.5Zm0,0" transform="translate(-48.575 -295.486)" fill="#e3b038"/>
  <path id="Path_717" data-name="Path 717" d="M56.5,408.008h6.793v2.264H56.5Zm0,0" transform="translate(-48.575 -350.485)" fill="#e3b038"/>
  <path id="Path_718" data-name="Path 718" d="M55.973,150.437V136.346a7.356,7.356,0,0,0-10.189-6.764v-6.2a3.389,3.389,0,0,0-3.4-3.382H19.746a3.389,3.389,0,0,0-3.4,3.382V136.91a3.389,3.389,0,0,0,3.4,3.382h6.475l-.566,2.255H12.069l.86-4.284a1.129,1.129,0,0,0-1.108-1.353v-3.382a4.528,4.528,0,0,0-9.057,0v3.382a1.129,1.129,0,0,0-1.109,1.353l.86,4.284H1.632A1.13,1.13,0,0,0,.5,143.673v4.509a1.13,1.13,0,0,0,1.132,1.127H3.9v16.91a1.13,1.13,0,0,0,1.132,1.127v3.382H7.293v-3.382h9.057v3.382h2.264v-3.382a1.13,1.13,0,0,0,1.132-1.127V149.31H32.829a4.442,4.442,0,0,0-.63,2.255,4.519,4.519,0,0,0,4.528,4.509h7.925v5.637H44.36a4.233,4.233,0,0,0-4.237,4.219v1.418a1.13,1.13,0,0,0,1.132,1.127h1.132V169.6a1.132,1.132,0,0,0,2.264,0v-1.127h6.793V169.6a1.132,1.132,0,0,0,2.264,0v-1.127h1.132a1.13,1.13,0,0,0,1.132-1.127v-1.418a4.233,4.233,0,0,0-4.237-4.219h-.292v-5.749a5.653,5.653,0,0,0,4.528-5.524Zm-2.264-3.382h-3.4v-.3a4.03,4.03,0,0,1,3.239-3.935l.158-.031Zm0-10.709v4.149l-.6.119a6.292,6.292,0,0,0-5.06,6.146v.3H43.52V136.346a5.095,5.095,0,0,1,10.189,0Zm-12.453,4.149-.6.119a6.264,6.264,0,0,0-3.4,1.933h-.783l-.566-2.255h5.346Zm-3.4,6.561v-.3a3.968,3.968,0,0,1,.519-1.959h2.878v2.255Zm-18.114-24.8H42.388a1.13,1.13,0,0,1,1.132,1.127v7.69a7.349,7.349,0,0,0-1.7,2.456H18.614V123.382A1.13,1.13,0,0,1,19.746,122.255ZM18.614,136.91v-1.127h22.67c-.013.187-.028.373-.028.564v1.691H19.746a1.13,1.13,0,0,1-1.132-1.127Zm9.941,3.382h5.025l.566,2.255H27.988ZM5.028,133.528a2.264,2.264,0,0,1,4.528,0v3.382H5.028Zm-.883,5.637H10.44l-.679,3.382H4.824ZM2.764,144.8H35.926a6.188,6.188,0,0,0-.331,1.959v.3H2.764Zm14.717,20.291H6.16v-6.764H17.482Zm0-9.018H6.16V149.31H17.482Zm16.982-4.509a2.259,2.259,0,0,1,2.253-2.255H53.709v1.127a3.389,3.389,0,0,1-3.4,3.382H36.728a2.26,2.26,0,0,1-2.264-2.255Zm19.246,14.364v.291H42.388v-.291a1.97,1.97,0,0,1,1.972-1.964h7.376A1.97,1.97,0,0,1,53.709,165.929Zm-6.793-4.219v-5.637h2.264v5.637Zm0,0" transform="translate(-0.5 -103.018)" fill="#e3b038"/>
  <path id="Path_719" data-name="Path 719" d="M153.634,400a1.133,1.133,0,0,0-1.123,1.273l1.132,9.057a1.132,1.132,0,0,0,1.123.992h6.793a1.132,1.132,0,0,0,1.123-.992l1.132-9.057A1.133,1.133,0,0,0,162.691,400Zm6.925,9.057h-4.794l-.849-6.793h6.492Zm0,0" transform="translate(-130.991 -343.611)" fill="#e3b038"/>
  <path id="Path_720" data-name="Path 720" d="M167.877,14.717a7.358,7.358,0,1,0-6.915-4.823,7.359,7.359,0,0,0,6.915,4.823ZM166.116,2.576a5.095,5.095,0,1,1-3.029,6.538,5.094,5.094,0,0,1,3.029-6.538Zm0,0" transform="translate(-137.867 0)" fill="#e3b038"/>
  <path id="Path_721" data-name="Path 721" d="M207.1,34.469l1.6-1.6-1.939-1.929V28.008H204.5v3.4a1.133,1.133,0,0,0,.333.8Zm0,0" transform="translate(-175.631 -24.044)" fill="#e3b038"/>
</svg>
