<svg xmlns="http://www.w3.org/2000/svg" width="58.841" height="49.915" viewBox="0 0 58.841 49.915">
  <g id="XMLID_1465_" transform="translate(0)">
    <path id="XMLID_1523_" d="M58.84,72.661V58.868a3.676,3.676,0,0,0-5.061-3.406,4.814,4.814,0,0,0-1.548-3.355,4.827,4.827,0,1,0-6.409-.444,6.322,6.322,0,0,0-2.258,2.184L42.249,56H38.843V54.424a7.789,7.789,0,0,0-5.537-7.446,4.8,4.8,0,0,0,.94-2.858v-.46a4.827,4.827,0,1,0-9.654,0v.46a4.8,4.8,0,0,0,.94,2.858A7.789,7.789,0,0,0,20,54.424V56H16.59l-1.314-2.148a6.321,6.321,0,0,0-2.258-2.184,4.826,4.826,0,1,0-6.409.445A4.814,4.814,0,0,0,5.06,55.462,3.676,3.676,0,0,0,0,58.868v2.3a1.149,1.149,0,1,0,2.3,0v-2.3a1.379,1.379,0,1,1,2.758,0V68.6A5.947,5.947,0,0,0,11,74.541h.494v2.313h-5A4.2,4.2,0,0,1,2.3,72.661v-2.3a1.149,1.149,0,1,0-2.3,0v2.3a6.5,6.5,0,0,0,5.342,6.387v7.4H1.646a1.149,1.149,0,0,0,0,2.3H15.4A3.912,3.912,0,0,0,19.3,84.841V71.623a5.714,5.714,0,0,0-1.151-3.446h5.061V85.071a3.675,3.675,0,0,0,6.206,2.667,3.675,3.675,0,0,0,6.206-2.667V80.7a1.149,1.149,0,1,0-2.3,0v4.367a1.379,1.379,0,0,1-2.758,0V68.177h2.758v3.332a1.149,1.149,0,1,0,2.3,0V68.177h5.061a5.714,5.714,0,0,0-1.151,3.446V84.841a3.912,3.912,0,0,0,3.907,3.907H57.193a1.149,1.149,0,1,0,0-2.3H53.5v-7.4A6.5,6.5,0,0,0,58.84,72.661ZM55.163,57.489a1.381,1.381,0,0,1,1.379,1.379V72.661a4.2,4.2,0,0,1-4.193,4.193h-5V74.541h.494a5.947,5.947,0,0,0,5.94-5.94V58.868A1.38,1.38,0,0,1,55.163,57.489ZM49.275,45.767A2.528,2.528,0,1,1,46.746,48.3,2.531,2.531,0,0,1,49.275,45.767ZM42.893,58.293a1.149,1.149,0,0,0,.98-.55l1.65-2.7a4.049,4.049,0,0,1,3.433-1.924,2.531,2.531,0,0,1,2.528,2.528v9.309H46.428V62.3l1.737-2.745a1.149,1.149,0,0,0-1.942-1.229l-1.577,2.492H37.6a1.264,1.264,0,0,1,0-2.528h5.295ZM30.432,48.946l-1,2.718-1-2.718Zm-3.54-5.286a2.528,2.528,0,1,1,5.057,0v.46a2.528,2.528,0,0,1-5.057,0Zm-.8,5.553L28.355,55.4a1.149,1.149,0,0,0,2.158,0l2.266-6.175a5.487,5.487,0,0,1,3.766,5.2v1.73a3.561,3.561,0,0,0-2.277,4.668h-9.7a3.561,3.561,0,0,0-2.277-4.668v-1.73A5.487,5.487,0,0,1,26.086,49.213ZM14.966,57.744a1.149,1.149,0,0,0,.98.55h5.295a1.264,1.264,0,0,1,0,2.528H14.193L12.616,58.33a1.149,1.149,0,0,0-1.942,1.229L12.411,62.3v2.655H7.354V55.65a2.531,2.531,0,0,1,2.528-2.528,4.049,4.049,0,0,1,3.433,1.924Zm-5.4-11.977A2.528,2.528,0,1,1,7.036,48.3,2.531,2.531,0,0,1,9.564,45.767ZM7.639,79.152h3.85v5.689a3.883,3.883,0,0,0,.348,1.609h-4.2Zm9.367-7.529V84.841a1.609,1.609,0,1,1-3.218,0V73.392a1.149,1.149,0,0,0-1.149-1.149H11A3.646,3.646,0,0,1,7.354,68.6V67.257h5.08a1.15,1.15,0,0,0,1.126.919A3.45,3.45,0,0,1,17.006,71.623ZM28.27,85.071a1.379,1.379,0,0,1-2.758,0V68.177H28.27ZM14.709,65.878V63.12H44.13v2.758Zm27.124,5.744a3.45,3.45,0,0,1,3.446-3.446,1.15,1.15,0,0,0,1.126-.919h5.08V68.6a3.646,3.646,0,0,1-3.642,3.642H46.2a1.149,1.149,0,0,0-1.149,1.149V84.841a1.609,1.609,0,0,1-3.218,0V71.623ZM47,86.45a3.883,3.883,0,0,0,.348-1.609V79.152H51.2v7.3Z" transform="translate(0.001 -38.833)" fill="#e3b038"/>
    <path id="XMLID_1625_" d="M291.149,353.17a1.15,1.15,0,1,0,.812.337A1.153,1.153,0,0,0,291.149,353.17Z" transform="translate(-256.672 -317.045)" fill="#e3b038"/>
    <path id="XMLID_1633_" d="M1.149,265.468A1.149,1.149,0,1,0,0,264.319a1.15,1.15,0,0,0,1.149,1.149Z" transform="translate(0 -237.388)" fill="#e3b038"/>
  </g>
</svg>
