<svg id="Layer_2" data-name="Layer 2" xmlns="http://www.w3.org/2000/svg" width="70.978" height="36.858" viewBox="0 0 70.978 36.858">
  <g id="Layer" transform="translate(0)">
    <path id="Path_737" data-name="Path 737" d="M32.531,37.744H22.181V34.787h4.436a2.957,2.957,0,0,0,2.957-2.957V22.957A2.957,2.957,0,0,0,26.617,20H8.872a2.957,2.957,0,0,0-2.957,2.957V31.83a2.957,2.957,0,0,0,2.957,2.957h4.436v2.957H2.957A2.957,2.957,0,0,0,0,40.7V54.01a1.479,1.479,0,1,0,2.957,0V40.7H20.7V54.01a1.479,1.479,0,0,0,1.479,1.479H34.01a1.479,1.479,0,0,0,1.479-1.479V40.7A2.957,2.957,0,0,0,32.531,37.744Zm0,2.957v4.436H23.659V40.7ZM8.872,22.957H26.617V31.83H8.872Zm7.394,11.83h2.957v2.957H16.266Zm7.394,17.744V48.1h8.872v4.436Z" transform="translate(0 -18.631)" fill="#e3b038"/>
    <path id="Path_738" data-name="Path 738" d="M416.531,37.744H406.181V34.787h4.436a2.957,2.957,0,0,0,2.957-2.957V22.957A2.957,2.957,0,0,0,410.617,20H392.872a2.957,2.957,0,0,0-2.957,2.957V31.83a2.957,2.957,0,0,0,2.957,2.957h4.436v2.957H386.957A2.957,2.957,0,0,0,384,40.7V54.01a1.479,1.479,0,1,0,2.957,0V40.7H404.7V54.01a1.479,1.479,0,0,0,1.479,1.479h11.83a1.479,1.479,0,0,0,1.479-1.479V40.7A2.957,2.957,0,0,0,416.531,37.744Zm0,2.957v4.436h-8.872V40.7ZM392.872,22.957h17.744V31.83H392.872Zm7.393,11.83h2.957v2.957h-2.957Zm7.393,17.744V48.1h8.872v4.436Z" transform="translate(-348.511 -18.631)" fill="#e3b038"/>
    <rect id="Rectangle_545" data-name="Rectangle 545" width="3.037" height="27.633" rx="1.519" transform="translate(33.97)" fill="#e3b038"/>
  </g>
</svg>
