<svg width="149" height="170" viewBox="0 0 149 170" fill="none" xmlns="http://www.w3.org/2000/svg">
<g opacity="0.5" filter="url(#filter0_f_29_31)">
<path d="M-15 4.5C-15 5.32837 -15.6716 6 -16.5 6C-17.3284 6 -18 5.32837 -18 4.5C-18 3.67163 -17.3284 3 -16.5 3C-15.6716 3 -15 3.67163 -15 4.5Z" fill="#6EC590"/>
<path d="M-15 27.5C-15 28.3284 -15.6716 29 -16.5 29C-17.3284 29 -18 28.3284 -18 27.5C-18 26.6716 -17.3284 26 -16.5 26C-15.6716 26 -15 26.6716 -15 27.5Z" fill="#6EC590"/>
<path d="M-16.5 52C-15.6716 52 -15 51.3284 -15 50.5C-15 49.6716 -15.6716 49 -16.5 49C-17.3284 49 -18 49.6716 -18 50.5C-18 51.3284 -17.3284 52 -16.5 52Z" fill="#6EC590"/>
<path d="M-15 73.5C-15 74.3284 -15.6716 75 -16.5 75C-17.3284 75 -18 74.3284 -18 73.5C-18 72.6716 -17.3284 72 -16.5 72C-15.6716 72 -15 72.6716 -15 73.5Z" fill="#6EC590"/>
<path d="M-16.5 98C-15.6716 98 -15 97.3284 -15 96.5C-15 95.6716 -15.6716 95 -16.5 95C-17.3284 95 -18 95.6716 -18 96.5C-18 97.3284 -17.3284 98 -16.5 98Z" fill="#6EC590"/>
<path d="M-15 119.5C-15 120.328 -15.6716 121 -16.5 121C-17.3284 121 -18 120.328 -18 119.5C-18 118.672 -17.3284 118 -16.5 118C-15.6716 118 -15 118.672 -15 119.5Z" fill="#6EC590"/>
<path d="M-16.5 144C-15.6716 144 -15 143.328 -15 142.5C-15 141.672 -15.6716 141 -16.5 141C-17.3284 141 -18 141.672 -18 142.5C-18 143.328 -17.3284 144 -16.5 144Z" fill="#6EC590"/>
<path d="M-15 165.5C-15 166.328 -15.6716 167 -16.5 167C-17.3284 167 -18 166.328 -18 165.5C-18 164.672 -17.3284 164 -16.5 164C-15.6716 164 -15 164.672 -15 165.5Z" fill="#6EC590"/>
<path d="M8 4.5C8 5.32837 7.32843 6 6.5 6C5.67157 6 5 5.32837 5 4.5C5 3.67163 5.67157 3 6.5 3C7.32843 3 8 3.67163 8 4.5Z" fill="#6EC590"/>
<path d="M8 27.5C8 28.3284 7.32843 29 6.5 29C5.67157 29 5 28.3284 5 27.5C5 26.6716 5.67157 26 6.5 26C7.32843 26 8 26.6716 8 27.5Z" fill="#6EC590"/>
<path d="M6.5 52C7.32843 52 8 51.3284 8 50.5C8 49.6716 7.32843 49 6.5 49C5.67157 49 5 49.6716 5 50.5C5 51.3284 5.67157 52 6.5 52Z" fill="#6EC590"/>
<path d="M8 73.5C8 74.3284 7.32843 75 6.5 75C5.67157 75 5 74.3284 5 73.5C5 72.6716 5.67157 72 6.5 72C7.32843 72 8 72.6716 8 73.5Z" fill="#6EC590"/>
<path d="M6.5 98C7.32843 98 8 97.3284 8 96.5C8 95.6716 7.32843 95 6.5 95C5.67157 95 5 95.6716 5 96.5C5 97.3284 5.67157 98 6.5 98Z" fill="#6EC590"/>
<path d="M8 119.5C8 120.328 7.32843 121 6.5 121C5.67157 121 5 120.328 5 119.5C5 118.672 5.67157 118 6.5 118C7.32843 118 8 118.672 8 119.5Z" fill="#6EC590"/>
<path d="M6.5 144C7.32843 144 8 143.328 8 142.5C8 141.672 7.32843 141 6.5 141C5.67157 141 5 141.672 5 142.5C5 143.328 5.67157 144 6.5 144Z" fill="#6EC590"/>
<path d="M8 165.5C8 166.328 7.32843 167 6.5 167C5.67157 167 5 166.328 5 165.5C5 164.672 5.67157 164 6.5 164C7.32843 164 8 164.672 8 165.5Z" fill="#6EC590"/>
<path d="M29.5 6C30.3284 6 31 5.32837 31 4.5C31 3.67163 30.3284 3 29.5 3C28.6716 3 28 3.67163 28 4.5C28 5.32837 28.6716 6 29.5 6Z" fill="#6EC590"/>
<path d="M29.5 29C30.3284 29 31 28.3284 31 27.5C31 26.6716 30.3284 26 29.5 26C28.6716 26 28 26.6716 28 27.5C28 28.3284 28.6716 29 29.5 29Z" fill="#6EC590"/>
<path d="M31 50.5C31 51.3284 30.3284 52 29.5 52C28.6716 52 28 51.3284 28 50.5C28 49.6716 28.6716 49 29.5 49C30.3284 49 31 49.6716 31 50.5Z" fill="#6EC590"/>
<path d="M29.5 75C30.3284 75 31 74.3284 31 73.5C31 72.6716 30.3284 72 29.5 72C28.6716 72 28 72.6716 28 73.5C28 74.3284 28.6716 75 29.5 75Z" fill="#6EC590"/>
<path d="M31 96.5C31 97.3284 30.3284 98 29.5 98C28.6716 98 28 97.3284 28 96.5C28 95.6716 28.6716 95 29.5 95C30.3284 95 31 95.6716 31 96.5Z" fill="#6EC590"/>
<path d="M29.5 121C30.3284 121 31 120.328 31 119.5C31 118.672 30.3284 118 29.5 118C28.6716 118 28 118.672 28 119.5C28 120.328 28.6716 121 29.5 121Z" fill="#6EC590"/>
<path d="M31 142.5C31 143.328 30.3284 144 29.5 144C28.6716 144 28 143.328 28 142.5C28 141.672 28.6716 141 29.5 141C30.3284 141 31 141.672 31 142.5Z" fill="#6EC590"/>
<path d="M29.5 167C30.3284 167 31 166.328 31 165.5C31 164.672 30.3284 164 29.5 164C28.6716 164 28 164.672 28 165.5C28 166.328 28.6716 167 29.5 167Z" fill="#6EC590"/>
<path d="M54 4.5C54 5.32837 53.3284 6 52.5 6C51.6716 6 51 5.32837 51 4.5C51 3.67163 51.6716 3 52.5 3C53.3284 3 54 3.67163 54 4.5Z" fill="#6EC590"/>
<path d="M54 27.5C54 28.3284 53.3284 29 52.5 29C51.6716 29 51 28.3284 51 27.5C51 26.6716 51.6716 26 52.5 26C53.3284 26 54 26.6716 54 27.5Z" fill="#6EC590"/>
<path d="M52.5 52C53.3284 52 54 51.3284 54 50.5C54 49.6716 53.3284 49 52.5 49C51.6716 49 51 49.6716 51 50.5C51 51.3284 51.6716 52 52.5 52Z" fill="#6EC590"/>
<path d="M54 73.5C54 74.3284 53.3284 75 52.5 75C51.6716 75 51 74.3284 51 73.5C51 72.6716 51.6716 72 52.5 72C53.3284 72 54 72.6716 54 73.5Z" fill="#6EC590"/>
<path d="M52.5 98C53.3284 98 54 97.3284 54 96.5C54 95.6716 53.3284 95 52.5 95C51.6716 95 51 95.6716 51 96.5C51 97.3284 51.6716 98 52.5 98Z" fill="#6EC590"/>
<path d="M54 119.5C54 120.328 53.3284 121 52.5 121C51.6716 121 51 120.328 51 119.5C51 118.672 51.6716 118 52.5 118C53.3284 118 54 118.672 54 119.5Z" fill="#6EC590"/>
<path d="M52.5 144C53.3284 144 54 143.328 54 142.5C54 141.672 53.3284 141 52.5 141C51.6716 141 51 141.672 51 142.5C51 143.328 51.6716 144 52.5 144Z" fill="#6EC590"/>
<path d="M54 165.5C54 166.328 53.3284 167 52.5 167C51.6716 167 51 166.328 51 165.5C51 164.672 51.6716 164 52.5 164C53.3284 164 54 164.672 54 165.5Z" fill="#6EC590"/>
<path d="M75.5 6C76.3284 6 77 5.32837 77 4.5C77 3.67163 76.3284 3 75.5 3C74.6716 3 74 3.67163 74 4.5C74 5.32837 74.6716 6 75.5 6Z" fill="#6EC590"/>
<path d="M75.5 29C76.3284 29 77 28.3284 77 27.5C77 26.6716 76.3284 26 75.5 26C74.6716 26 74 26.6716 74 27.5C74 28.3284 74.6716 29 75.5 29Z" fill="#6EC590"/>
<path d="M77 50.5C77 51.3284 76.3284 52 75.5 52C74.6716 52 74 51.3284 74 50.5C74 49.6716 74.6716 49 75.5 49C76.3284 49 77 49.6716 77 50.5Z" fill="#6EC590"/>
<path d="M75.5 75C76.3284 75 77 74.3284 77 73.5C77 72.6716 76.3284 72 75.5 72C74.6716 72 74 72.6716 74 73.5C74 74.3284 74.6716 75 75.5 75Z" fill="#6EC590"/>
<path d="M77 96.5C77 97.3284 76.3284 98 75.5 98C74.6716 98 74 97.3284 74 96.5C74 95.6716 74.6716 95 75.5 95C76.3284 95 77 95.6716 77 96.5Z" fill="#6EC590"/>
<path d="M75.5 121C76.3284 121 77 120.328 77 119.5C77 118.672 76.3284 118 75.5 118C74.6716 118 74 118.672 74 119.5C74 120.328 74.6716 121 75.5 121Z" fill="#6EC590"/>
<path d="M77 142.5C77 143.328 76.3284 144 75.5 144C74.6716 144 74 143.328 74 142.5C74 141.672 74.6716 141 75.5 141C76.3284 141 77 141.672 77 142.5Z" fill="#6EC590"/>
<path d="M75.5 167C76.3284 167 77 166.328 77 165.5C77 164.672 76.3284 164 75.5 164C74.6716 164 74 164.672 74 165.5C74 166.328 74.6716 167 75.5 167Z" fill="#6EC590"/>
<path d="M100 4.5C100 5.32837 99.3284 6 98.5 6C97.6716 6 97 5.32837 97 4.5C97 3.67163 97.6716 3 98.5 3C99.3284 3 100 3.67163 100 4.5Z" fill="#6EC590"/>
<path d="M100 27.5C100 28.3284 99.3284 29 98.5 29C97.6716 29 97 28.3284 97 27.5C97 26.6716 97.6716 26 98.5 26C99.3284 26 100 26.6716 100 27.5Z" fill="#6EC590"/>
<path d="M98.5 52C99.3284 52 100 51.3284 100 50.5C100 49.6716 99.3284 49 98.5 49C97.6716 49 97 49.6716 97 50.5C97 51.3284 97.6716 52 98.5 52Z" fill="#6EC590"/>
<path d="M100 73.5C100 74.3284 99.3284 75 98.5 75C97.6716 75 97 74.3284 97 73.5C97 72.6716 97.6716 72 98.5 72C99.3284 72 100 72.6716 100 73.5Z" fill="#6EC590"/>
<path d="M98.5 98C99.3284 98 100 97.3284 100 96.5C100 95.6716 99.3284 95 98.5 95C97.6716 95 97 95.6716 97 96.5C97 97.3284 97.6716 98 98.5 98Z" fill="#6EC590"/>
<path d="M100 119.5C100 120.328 99.3284 121 98.5 121C97.6716 121 97 120.328 97 119.5C97 118.672 97.6716 118 98.5 118C99.3284 118 100 118.672 100 119.5Z" fill="#6EC590"/>
<path d="M98.5 144C99.3284 144 100 143.328 100 142.5C100 141.672 99.3284 141 98.5 141C97.6716 141 97 141.672 97 142.5C97 143.328 97.6716 144 98.5 144Z" fill="#6EC590"/>
<path d="M100 165.5C100 166.328 99.3284 167 98.5 167C97.6716 167 97 166.328 97 165.5C97 164.672 97.6716 164 98.5 164C99.3284 164 100 164.672 100 165.5Z" fill="#6EC590"/>
<path d="M121.5 6C122.328 6 123 5.32837 123 4.5C123 3.67163 122.328 3 121.5 3C120.672 3 120 3.67163 120 4.5C120 5.32837 120.672 6 121.5 6Z" fill="#6EC590"/>
<path d="M121.5 29C122.328 29 123 28.3284 123 27.5C123 26.6716 122.328 26 121.5 26C120.672 26 120 26.6716 120 27.5C120 28.3284 120.672 29 121.5 29Z" fill="#6EC590"/>
<path d="M123 50.5C123 51.3284 122.328 52 121.5 52C120.672 52 120 51.3284 120 50.5C120 49.6716 120.672 49 121.5 49C122.328 49 123 49.6716 123 50.5Z" fill="#6EC590"/>
<path d="M121.5 75C122.328 75 123 74.3284 123 73.5C123 72.6716 122.328 72 121.5 72C120.672 72 120 72.6716 120 73.5C120 74.3284 120.672 75 121.5 75Z" fill="#6EC590"/>
<path d="M123 96.5C123 97.3284 122.328 98 121.5 98C120.672 98 120 97.3284 120 96.5C120 95.6716 120.672 95 121.5 95C122.328 95 123 95.6716 123 96.5Z" fill="#6EC590"/>
<path d="M121.5 121C122.328 121 123 120.328 123 119.5C123 118.672 122.328 118 121.5 118C120.672 118 120 118.672 120 119.5C120 120.328 120.672 121 121.5 121Z" fill="#6EC590"/>
<path d="M123 142.5C123 143.328 122.328 144 121.5 144C120.672 144 120 143.328 120 142.5C120 141.672 120.672 141 121.5 141C122.328 141 123 141.672 123 142.5Z" fill="#6EC590"/>
<path d="M121.5 167C122.328 167 123 166.328 123 165.5C123 164.672 122.328 164 121.5 164C120.672 164 120 164.672 120 165.5C120 166.328 120.672 167 121.5 167Z" fill="#6EC590"/>
<path d="M146 4.5C146 5.32837 145.328 6 144.5 6C143.672 6 143 5.32837 143 4.5C143 3.67163 143.672 3 144.5 3C145.328 3 146 3.67163 146 4.5Z" fill="#6EC590"/>
<path d="M146 27.5C146 28.3284 145.328 29 144.5 29C143.672 29 143 28.3284 143 27.5C143 26.6716 143.672 26 144.5 26C145.328 26 146 26.6716 146 27.5Z" fill="#6EC590"/>
<path d="M144.5 52C145.328 52 146 51.3284 146 50.5C146 49.6716 145.328 49 144.5 49C143.672 49 143 49.6716 143 50.5C143 51.3284 143.672 52 144.5 52Z" fill="#6EC590"/>
<path d="M146 73.5C146 74.3284 145.328 75 144.5 75C143.672 75 143 74.3284 143 73.5C143 72.6716 143.672 72 144.5 72C145.328 72 146 72.6716 146 73.5Z" fill="#6EC590"/>
<path d="M144.5 98C145.328 98 146 97.3284 146 96.5C146 95.6716 145.328 95 144.5 95C143.672 95 143 95.6716 143 96.5C143 97.3284 143.672 98 144.5 98Z" fill="#6EC590"/>
<path d="M146 119.5C146 120.328 145.328 121 144.5 121C143.672 121 143 120.328 143 119.5C143 118.672 143.672 118 144.5 118C145.328 118 146 118.672 146 119.5Z" fill="#6EC590"/>
<path d="M144.5 144C145.328 144 146 143.328 146 142.5C146 141.672 145.328 141 144.5 141C143.672 141 143 141.672 143 142.5C143 143.328 143.672 144 144.5 144Z" fill="#6EC590"/>
<path d="M146 165.5C146 166.328 145.328 167 144.5 167C143.672 167 143 166.328 143 165.5C143 164.672 143.672 164 144.5 164C145.328 164 146 164.672 146 165.5Z" fill="#6EC590"/>
</g>
<defs>
<filter id="filter0_f_29_31" x="-21" y="0" width="170" height="170" filterUnits="userSpaceOnUse" color-interpolation-filters="sRGB">
<feFlood flood-opacity="0" result="BackgroundImageFix"/>
<feBlend mode="normal" in="SourceGraphic" in2="BackgroundImageFix" result="shape"/>
<feGaussianBlur stdDeviation="1.5" result="effect1_foregroundBlur_29_31"/>
</filter>
</defs>
</svg>
