<svg width="56" height="56" viewBox="0 0 56 56" fill="none" xmlns="http://www.w3.org/2000/svg">
<g clip-path="url(#clip0_83_258)">
<path d="M28 55.0667C42.9485 55.0667 55.0667 42.9485 55.0667 28C55.0667 13.0515 42.9485 0.933334 28 0.933334C13.0515 0.933334 0.93335 13.0515 0.93335 28C0.93335 42.9485 13.0515 55.0667 28 55.0667Z" fill="#00E887"/>
<path d="M22.6445 39.2653L16.2978 33.0661C16.1606 32.9327 16.0514 32.7731 15.9769 32.5968C15.9024 32.4204 15.864 32.2309 15.864 32.0395C15.864 31.848 15.9024 31.6585 15.9769 31.4822C16.0514 31.3058 16.1606 31.1462 16.2978 31.0128L18.4025 28.9595C18.6847 28.686 19.0623 28.5331 19.4553 28.5331C19.8483 28.5331 20.2259 28.686 20.5081 28.9595L24.2862 32.6527L34.8824 16.5433C35.101 16.2183 35.4375 15.991 35.8207 15.9094C36.2038 15.8279 36.6037 15.8986 36.9357 16.1065L39.4408 17.6801C39.6044 17.7807 39.7461 17.9132 39.8576 18.0696C39.9691 18.226 40.048 18.4032 40.0897 18.5907C40.1314 18.7782 40.135 18.9722 40.1003 19.1611C40.0657 19.35 39.9934 19.5301 39.8878 19.6905L27.341 38.7716C27.0896 39.1451 26.7594 39.4589 26.3736 39.691C25.9878 39.923 25.5558 40.0677 25.108 40.1148C24.6603 40.1618 24.2076 40.1102 23.782 39.9634C23.3564 39.8167 22.9681 39.5784 22.6445 39.2653Z" fill="white"/>
</g>
<defs>
<clipPath id="clip0_83_258">
<rect width="56" height="56" fill="white"/>
</clipPath>
</defs>
</svg>
