<svg width="69" height="69" viewBox="0 0 69 69" fill="none" xmlns="http://www.w3.org/2000/svg">
<g id="g4017">
<g id="g4019">
<g id="Clip path group">
<mask id="mask0_31_727" style="mask-type:luminance" maskUnits="userSpaceOnUse" x="0" y="0" width="69" height="69">
<g id="clipPath4025">
<path id="path4023" d="M0 -7.62939e-06H69V69H0V-7.62939e-06Z" fill="white"/>
</g>
</mask>
<g mask="url(#mask0_31_727)">
<g id="g4021">
<g id="g4027">
<path id="path4029" d="M51.6141 1.01069H17.3865C14.3722 1.01069 11.9285 3.45439 11.9285 6.4687V22.4973H57.0721V6.4687C57.0721 3.45439 54.6286 1.01069 51.6141 1.01069Z" fill="#ECECEC"/>
</g>
<g id="g4031">
<path id="path4033" d="M53.6947 17.3686H15.3055C11.3157 17.3686 8.0813 20.603 8.0813 24.5928V63.1047H60.919V24.5928C60.919 20.603 57.6846 17.3686 53.6947 17.3686Z" fill="#FF919E"/>
</g>
<g id="g4035">
<path id="path4037" d="M37.8759 42.7869H31.124C29.2604 42.7869 27.7495 44.2978 27.7495 46.1615V63.1047H41.2505V46.1615C41.2505 44.2978 39.7396 42.7869 37.8759 42.7869Z" fill="#6A647F"/>
</g>
<g id="g4039">
<path id="path4041" d="M19.385 42.7871H16.4459C15.0922 42.7871 13.9946 43.8845 13.9946 45.2382V51.1346C13.9946 52.4883 15.0922 53.5857 16.4459 53.5857H19.385C20.7387 53.5857 21.8361 52.4883 21.8361 51.1346V45.2382C21.8361 43.8845 20.7387 42.7871 19.385 42.7871Z" fill="#FFEA98"/>
</g>
<g id="g4043">
<path id="path4045" d="M19.385 25.1826H16.4459C15.0922 25.1826 13.9946 26.28 13.9946 27.6337V33.5299C13.9946 34.8838 15.0922 35.9812 16.4459 35.9812H19.385C20.7387 35.9812 21.8361 34.8838 21.8361 33.5299V27.6337C21.8361 26.28 20.7387 25.1826 19.385 25.1826Z" fill="#FFEA98"/>
</g>
<g id="g4047">
<path id="path4049" d="M35.9696 25.1826H33.0305C31.6767 25.1826 30.5793 26.28 30.5793 27.6337V33.5299C30.5793 34.8838 31.6767 35.9812 33.0305 35.9812H35.9696C37.3233 35.9812 38.4208 34.8838 38.4208 33.5299V27.6337C38.4208 26.28 37.3233 25.1826 35.9696 25.1826Z" fill="#FFEA98"/>
</g>
<g id="g4051">
<path id="path4053" d="M49.6149 42.7871H52.554C53.9078 42.7871 55.0053 43.8845 55.0053 45.2382V51.1346C55.0053 52.4883 53.9078 53.5857 52.554 53.5857H49.6149C48.2612 53.5857 47.1638 52.4883 47.1638 51.1346V45.2382C47.1638 43.8845 48.2612 42.7871 49.6149 42.7871Z" fill="#FFEA98"/>
</g>
<g id="g4055">
<path id="path4057" d="M49.6149 25.1826H52.554C53.9078 25.1826 55.0053 26.28 55.0053 27.6337V33.5299C55.0053 34.8838 53.9078 35.9812 52.554 35.9812H49.6149C48.2612 35.9812 47.1638 34.8838 47.1638 33.5299V27.6337C47.1638 26.28 48.2612 25.1826 49.6149 25.1826Z" fill="#FFEA98"/>
</g>
<g id="g4059">
<path id="path4061" d="M60.4421 59.0345H8.55809C6.28176 59.0345 4.43628 60.8798 4.43628 63.1562V65.6986C4.43628 66.9637 5.46198 67.9893 6.72703 67.9893H62.2731C63.5383 67.9893 64.5637 66.9637 64.5637 65.6986V63.1562C64.5637 60.8798 62.7184 59.0345 60.4421 59.0345Z" fill="#D7D6D9"/>
</g>
<g id="g4063">
<path id="path4065" d="M10.9758 38.4915C10.9758 30.8451 12.909 23.6505 16.3128 17.3688H15.3055C11.3157 17.3688 8.0813 20.6032 8.0813 24.5929V63.1047H18.419C13.7181 56.0599 10.9758 47.5964 10.9758 38.4915Z" fill="#FF737D"/>
</g>
<g id="g4067">
<path id="path4069" d="M16.0067 59.0345H8.55819C6.28187 59.0345 4.43652 60.8798 4.43652 63.1562V65.6986C4.43652 66.9637 5.46195 67.9893 6.72713 67.9893H22.1934C19.7839 65.2806 17.7012 62.2753 16.0067 59.0345Z" fill="#C5C4C9"/>
</g>
<g id="g4071">
<path id="path4073" d="M16.6142 29.1743C16.6142 27.8492 16.5468 26.4453 16.7809 25.1824H16.4457C15.092 25.1824 13.9946 26.2798 13.9946 27.6337V33.5299C13.9946 34.8837 15.092 35.9812 16.4457 35.9812H19.385C19.9408 35.9812 20.4517 35.794 20.8628 35.4822C18.3717 34.4709 16.6142 32.0285 16.6142 29.1743Z" fill="#F9D888"/>
</g>
<g id="g4075">
<path id="path4077" d="M33.1987 29.1743C33.1987 27.8492 33.1313 26.4453 33.3654 25.1824H33.0302C31.6765 25.1824 30.5791 26.2798 30.5791 27.6337V33.5299C30.5791 34.8837 31.6765 35.9812 33.0302 35.9812H35.9693C36.5252 35.9812 37.0361 35.794 37.4472 35.4822C34.9562 34.4709 33.1987 32.0285 33.1987 29.1743Z" fill="#F9D888"/>
</g>
<g id="g4079">
<path id="path4081" d="M49.7834 29.1743C49.7834 27.8492 49.716 26.4453 49.9501 25.1824H49.6149C48.2612 25.1824 47.1638 26.2798 47.1638 27.6337V33.5299C47.1638 34.8837 48.2612 35.9812 49.6149 35.9812H52.554C53.1099 35.9812 53.6207 35.794 54.0319 35.4822C51.5409 34.4709 49.7834 32.0285 49.7834 29.1743Z" fill="#F9D888"/>
</g>
<g id="g4083">
<path id="path4085" d="M16.6142 46.7788C16.6142 45.4537 16.5468 44.0498 16.7809 42.7869H16.4457C15.092 42.7869 13.9946 43.8843 13.9946 45.2382V51.1344C13.9946 52.4882 15.092 53.5857 16.4457 53.5857H19.385C19.9408 53.5857 20.4517 53.3985 20.8628 53.0867C18.3717 52.0754 16.6142 49.633 16.6142 46.7788Z" fill="#F9D888"/>
</g>
<g id="g4087">
<path id="path4089" d="M49.7834 46.7788C49.7834 45.4537 49.716 44.0498 49.9501 42.7869H49.6149C48.2612 42.7869 47.1638 43.8843 47.1638 45.2382V51.1344C47.1638 52.4882 48.2612 53.5857 49.6149 53.5857H52.554C53.1099 53.5857 53.6207 53.3985 54.0319 53.0867C51.5409 52.0754 49.7834 49.633 49.7834 46.7788Z" fill="#F9D888"/>
</g>
<g id="g4091">
<path id="path4093" d="M19.385 42.7871H16.4459C15.0922 42.7871 13.9946 43.8845 13.9946 45.2382V51.1344C13.9946 52.4883 15.0922 53.5857 16.4459 53.5857H19.385C20.7387 53.5857 21.8361 52.4883 21.8361 51.1344V45.2382C21.8361 43.8845 20.7387 42.7871 19.385 42.7871Z" stroke="black" stroke-width="2" stroke-miterlimit="10" stroke-linecap="round" stroke-linejoin="round"/>
</g>
<g id="g4095">
<path id="path4097" d="M19.385 25.1826H16.4459C15.0922 25.1826 13.9946 26.2801 13.9946 27.6337V33.5301C13.9946 34.8838 15.0922 35.9812 16.4459 35.9812H19.385C20.7387 35.9812 21.8361 34.8838 21.8361 33.5301V27.6337C21.8361 26.2801 20.7387 25.1826 19.385 25.1826Z" stroke="black" stroke-width="2" stroke-miterlimit="10" stroke-linecap="round" stroke-linejoin="round"/>
</g>
<g id="g4099">
<path id="path4101" d="M35.9696 25.1826H33.0305C31.6767 25.1826 30.5793 26.2801 30.5793 27.6337V33.5301C30.5793 34.8838 31.6767 35.9812 33.0305 35.9812H35.9696C37.3233 35.9812 38.4207 34.8838 38.4207 33.5301V27.6337C38.4207 26.2801 37.3233 25.1826 35.9696 25.1826Z" stroke="black" stroke-width="2" stroke-miterlimit="10" stroke-linecap="round" stroke-linejoin="round"/>
</g>
<g id="g4103">
<path id="path4105" d="M49.6149 42.7871H52.554C53.9078 42.7871 55.0053 43.8845 55.0053 45.2382V51.1344C55.0053 52.4883 53.9078 53.5857 52.554 53.5857H49.6149C48.2612 53.5857 47.1638 52.4883 47.1638 51.1344V45.2382C47.1638 43.8845 48.2612 42.7871 49.6149 42.7871Z" stroke="black" stroke-width="2" stroke-miterlimit="10" stroke-linecap="round" stroke-linejoin="round"/>
</g>
<g id="g4107">
<path id="path4109" d="M49.6149 25.1826H52.554C53.9078 25.1826 55.0053 26.2801 55.0053 27.6337V33.5301C55.0053 34.8838 53.9078 35.9812 52.554 35.9812H49.6149C48.2612 35.9812 47.1638 34.8838 47.1638 33.5301V27.6337C47.1638 26.2801 48.2612 25.1826 49.6149 25.1826Z" stroke="black" stroke-width="2" stroke-miterlimit="10" stroke-linecap="round" stroke-linejoin="round"/>
</g>
<g id="g4111">
<path id="path4113" d="M49.6257 5.39032V13.0473C49.7104 13.0617 52.3092 13.0473 52.3092 13.0473" stroke="black" stroke-width="2" stroke-miterlimit="10" stroke-linecap="round" stroke-linejoin="round"/>
</g>
<g id="g4115">
<path id="path4117" d="M16.6904 5.39026V13.0537" stroke="black" stroke-width="2" stroke-miterlimit="10" stroke-linecap="round" stroke-linejoin="round"/>
</g>
<g id="g4119">
<path id="path4121" d="M21.9939 5.39026V13.0537" stroke="black" stroke-width="2" stroke-miterlimit="10" stroke-linecap="round" stroke-linejoin="round"/>
</g>
<g id="g4123">
<path id="path4125" d="M16.6904 9.09106H21.9936" stroke="black" stroke-width="2" stroke-miterlimit="10" stroke-linecap="round" stroke-linejoin="round"/>
</g>
<g id="g4127">
<path id="path4129" d="M46.0177 5.46021H42.8181V13.0537H46.0177" stroke="black" stroke-width="2" stroke-miterlimit="10" stroke-linecap="round" stroke-linejoin="round"/>
</g>
<g id="g4131">
<path id="path4133" d="M45.7817 9.25732H42.8181" stroke="black" stroke-width="2" stroke-miterlimit="10" stroke-linecap="round" stroke-linejoin="round"/>
</g>
<g id="g4135">
<path id="path4137" d="M35.0745 5.39062H39.3066" stroke="black" stroke-width="2" stroke-miterlimit="10" stroke-linecap="round" stroke-linejoin="round"/>
</g>
<g id="g4139">
<path id="path4141" d="M37.1819 5.635V13.0537" stroke="black" stroke-width="2" stroke-miterlimit="10" stroke-linecap="round" stroke-linejoin="round"/>
</g>
<g id="g4143">
<path id="path4145" d="M32.8441 9.22205C32.8441 11.3383 31.1285 13.0537 29.0123 13.0537C26.8962 13.0537 25.1807 11.3383 25.1807 9.22205C25.1807 7.10583 26.8962 5.39026 29.0123 5.39026C31.1285 5.39026 32.8441 7.10583 32.8441 9.22205Z" stroke="black" stroke-width="2" stroke-miterlimit="10" stroke-linecap="round" stroke-linejoin="round"/>
</g>
<g id="g4147">
<path id="path4149" d="M15.3057 17.3686H53.6949C54.9152 17.3686 56.0641 17.6723 57.0721 18.2065V6.46859C57.0721 3.45415 54.6286 1.01058 51.614 1.01058H17.3865C14.3722 1.01058 11.9285 3.45415 11.9285 6.46859V18.2065C12.9365 17.6723 14.0854 17.3686 15.3057 17.3686Z" stroke="black" stroke-width="2" stroke-miterlimit="10" stroke-linecap="round" stroke-linejoin="round"/>
</g>
<g id="g4151">
<path id="path4153" d="M8.0813 49.2349V59.063C8.2379 59.0449 8.39679 59.0347 8.55823 59.0347H60.4422C60.6035 59.0347 60.7624 59.0449 60.919 59.063V34.8328" stroke="black" stroke-width="2" stroke-miterlimit="10" stroke-linecap="round" stroke-linejoin="round"/>
</g>
<g id="g4155">
<path id="path4157" d="M60.919 30.7895V24.5929C60.919 20.6031 57.6846 17.3687 53.6947 17.3687H15.3055C11.3157 17.3687 8.0813 20.6031 8.0813 24.5929V45.1917" stroke="black" stroke-width="2" stroke-miterlimit="10" stroke-linecap="round" stroke-linejoin="round"/>
</g>
<g id="g4159">
<path id="path4161" d="M41.2505 59.0344V46.1615C41.2505 44.2977 39.7396 42.7869 37.8759 42.7869H31.124C29.2604 42.7869 27.7495 44.2977 27.7495 46.1615V59.0344H41.2505Z" stroke="black" stroke-width="2" stroke-miterlimit="10" stroke-linecap="round" stroke-linejoin="round"/>
</g>
<g id="g4163">
<path id="path4165" d="M60.4421 59.0345H8.55809C6.28176 59.0345 4.43628 60.8798 4.43628 63.1562V65.6986C4.43628 66.9637 5.46185 67.9893 6.72703 67.9893H62.2731C63.5383 67.9893 64.5637 66.9637 64.5637 65.6986V63.1562C64.5637 60.8798 62.7184 59.0345 60.4421 59.0345Z" stroke="black" stroke-width="2" stroke-miterlimit="10" stroke-linecap="round" stroke-linejoin="round"/>
</g>
</g>
</g>
</g>
</g>
</g>
</svg>
