<svg width="65" height="65" viewBox="0 0 65 65" fill="none" xmlns="http://www.w3.org/2000/svg">
<g id="languages 1" clip-path="url(#clip0_29_547)">
<g id="Group">
<g id="Group_2">
<path id="Vector" d="M64.0479 34.671C64.0479 25.6623 59.9927 17.6007 53.6083 12.2119C48.4947 7.89572 34.1288 7.40137 34.1288 7.40137L23.7172 7.46142C23.6397 7.49417 23.5462 7.47145 23.4691 7.50483C13.2643 11.9332 6.64209 22.4258 6.64209 34.6227C6.64209 50.847 18.7386 61.8871 34.9629 61.8871C39.8407 61.8871 44.1489 62.8591 48.1974 60.7553C57.615 55.8618 64.0479 46.0176 64.0479 34.671Z" fill="#94CCD4"/>
<path id="Vector_2" d="M53.6085 12.2116C50.6213 14.1654 47.4145 16.104 46.2122 16.3668C42.9127 17.3316 38.6179 15.2877 37.7355 20.1538C37.7102 21.0933 37.6276 21.9857 37.4867 22.8186C37.3293 23.7479 36.984 24.6226 36.4825 25.3995C35.9811 26.1765 34.6464 26.4032 33.8694 26.9364C31.7303 28.4065 29.9922 28.4946 27.6892 27.2949C27.6308 27.2645 27.5712 27.2327 27.5115 27.201C23.675 25.3208 21.4212 20.9968 25.3986 17.8369C28.0126 15.6787 27.6173 11.8718 25.7904 9.49267L24.691 8.2206C25.5445 7.86805 25.197 6.8396 26.0887 6.56754C28.8036 5.7393 31.6853 5.29395 34.6708 5.29395C41.8869 5.29395 48.4948 7.89522 53.6085 12.2116Z" fill="#B7E546"/>
<path id="Vector_3" d="M57.4548 27.3991C57.4384 24.9741 56.4593 22.6534 54.7324 20.9497C53.2591 19.2641 52.7495 18.2597 50.7246 20.1207C48.8053 22.5081 50.6983 25.4712 46.619 29.5423C45.8965 30.2777 45.4911 31.2845 45.5319 32.3165C45.5303 32.3162 45.531 32.1342 45.5296 32.1339C45.6762 34.6901 47.4222 36.7507 49.9107 36.7507C53.1074 36.7506 57.4548 32.9981 57.4548 27.3991Z" fill="#B7E546"/>
<path id="Vector_4" d="M48.2575 29.3527C47.5352 30.0891 47.1289 31.0958 47.1695 32.1279C47.1683 32.1267 47.1683 32.1254 47.167 32.1254C47.2889 34.2417 49.1233 36.0229 51.1635 36.5738C50.7356 36.6906 50.3142 36.7503 49.9105 36.7503C47.4222 36.7503 44.7752 34.6822 44.6279 32.1254C44.6292 32.1254 44.6292 32.1267 44.6305 32.1279C44.5898 31.0958 44.9961 30.0891 45.7185 29.3527C49.7975 25.2826 47.4336 22.1024 49.3531 19.7157C50.5097 18.6519 51.6205 18.6569 52.6336 19.1711C52.3886 19.3069 52.1423 19.4859 51.8922 19.7157C49.9727 22.1024 52.3365 25.2826 48.2575 29.3527Z" fill="#ABD641"/>
<path id="Vector_5" d="M60.2142 3.17395V17.8378L59.2799 18.725C59.2799 19.952 57.8849 20.1368 56.6578 20.1368L49.951 20.0864C49.6389 20.0864 49.3347 20.1849 49.0821 20.368L43.5476 24.211C43.0579 24.5657 42.3725 24.2158 42.3725 23.6112L42.892 21.7629C42.892 20.9449 42.2288 20.2818 41.4108 20.2818H39.6335C38.4065 20.2818 37.4117 19.2871 37.4117 18.06L37.1438 4.30371C37.1438 3.07671 37.6312 1.78255 38.8582 1.78255L39.4774 0.952148H57.9924C59.2195 0.952148 60.2142 1.94683 60.2142 3.17395Z" fill="#DC4955"/>
<path id="Vector_6" d="M60.2144 17.8378V18.5784C60.2144 19.8056 59.2197 20.8003 57.9926 20.8003H50.0415C49.7289 20.8003 49.4253 20.8995 49.1735 21.0817L43.1701 25.429C42.6814 25.7844 41.9956 25.4349 41.9956 24.8291V22.2814C41.9956 21.4633 41.3324 20.8003 40.5144 20.8003H38.7369C37.5099 20.8003 36.5151 19.8056 36.5151 18.5784V3.17395C36.5151 1.94695 37.5098 0.952148 38.7369 0.952148H39.4776V17.5416C39.4776 17.7053 39.6103 17.8378 39.7738 17.8378H40.5144C42.2193 17.8378 43.7025 18.802 44.4473 20.215C44.5742 20.4558 44.8821 20.5319 45.1026 20.372L47.4345 18.682C48.1974 18.1295 49.0994 17.8378 50.0414 17.8378H60.2144Z" fill="#D82F3C"/>
<path id="Vector_7" d="M41.6533 61.4809C25.0402 61.4809 11.5718 48.0518 11.5718 31.487C11.5718 21.6214 16.0949 12.9715 23.4696 7.50488C12.8018 11.9083 5.29395 22.413 5.29395 34.6709C5.29395 39.6662 6.54063 44.3702 8.73996 48.4888C8.73996 48.4888 15.721 54.0176 19.251 56.6156C24.1207 60.1994 33.5828 62.5111 33.5828 62.5111C33.5828 62.5111 44.1113 62.8684 48.1484 60.7787C46.0561 61.2384 43.8839 61.4809 41.6533 61.4809Z" fill="#6FBBC6"/>
<path id="Vector_8" d="M48.1959 60.7522C45.8352 57.4643 41.4937 53.8395 41.6803 49.4737C41.7439 47.9853 41.5475 46.492 41.0574 45.0844C41.0497 45.0654 41.0435 45.0467 41.0373 45.0282C40.7894 44.3311 40.4172 43.686 39.9537 43.1111C38.6743 41.5216 35.9442 37.3748 34.6092 36.7934C32.0601 35.2167 28.6091 36.3908 27.2453 38.9795C26.0616 41.9739 25.7351 46.0768 22.6429 47.6919C20.7945 48.6943 18.1303 48.4691 16.7242 46.8093C14.2846 43.6406 10.8689 46.7045 8.74292 48.4874C9.58767 50.0656 13.0343 51.2225 14.149 52.6223C18.7739 58.4318 22.8901 60.6712 29.667 61.8873C35.9704 63.0311 42.4387 63.7426 48.1272 60.7871C48.1501 60.7752 48.173 60.764 48.1959 60.7522Z" fill="#B7E546"/>
<path id="Vector_9" d="M48.1367 60.7813C43.0865 63.4088 37.2549 64.4804 31.5973 63.8865V63.8853C22.0353 62.9503 13.2108 56.9856 8.74316 48.4871C10.424 47.0767 12.9136 44.8639 15.0883 45.571C20.1474 55.0379 30.1462 61.4808 41.6532 61.4808C43.88 61.4808 46.0483 61.2396 48.1367 60.7813Z" fill="#ABD641"/>
<path id="Vector_10" d="M54.6882 35.3472V50.011L53.7539 50.8982C53.7539 52.1252 52.3589 52.31 51.1318 52.31L44.425 52.2596C44.1129 52.2596 43.8087 52.3581 43.5561 52.5412L38.0216 56.3842C37.5319 56.7389 36.8465 56.389 36.8465 55.7845L37.366 53.9362C37.366 53.1181 36.7028 52.455 35.8848 52.455H34.1074C32.8804 52.455 31.8855 51.4603 31.8855 50.2332L31.6177 36.4771C31.6177 35.25 32.105 33.9559 33.332 33.9559L33.9513 33.1255H52.4663C53.6934 33.1254 54.6882 34.1202 54.6882 35.3472Z" fill="#FFBF54"/>
<path id="Vector_11" d="M54.6882 50.0111V50.7518C54.6882 51.9788 53.6936 52.9736 52.4664 52.9736H44.5154C44.2028 52.9736 43.8991 53.0729 43.6474 53.255L37.644 57.6023C37.1553 57.9578 36.4695 57.6083 36.4695 57.0025V54.4548C36.4695 53.6367 35.8062 52.9736 34.9883 52.9736H33.2108C31.9838 52.9736 30.989 51.9789 30.989 50.7518V35.3473C30.989 34.1203 31.9837 33.1255 33.2108 33.1255H33.9515V49.715C33.9515 49.8786 34.0841 50.0111 34.2476 50.0111H34.9883C36.6931 50.0111 38.1763 50.9754 38.9212 52.3883C39.0481 52.6292 39.356 52.7052 39.5765 52.5454L41.9084 50.8554C42.6712 50.3029 43.5732 50.0111 44.5152 50.0111H54.6882Z" fill="#FFA442"/>
<path id="Vector_12" d="M26.3631 19.4772L26.3263 19.5077C25.8362 19.8975 24.1351 21.4552 22.929 22.7907C22.4441 20.9588 22.8655 19.0139 24.747 17.5196C27.3609 15.3614 26.3961 11.1567 24.5693 8.77764L23.4691 7.50493C24.3222 7.152 25.1964 6.83906 26.0889 6.56738C26.8785 7.76709 27.5806 8.77764 27.5806 8.77764C29.4734 12.3031 29.5585 16.8404 26.3631 19.4772Z" fill="#ABD641"/>
<path id="Vector_13" d="M36.5891 25.2268C36.5548 25.2852 36.5193 25.3423 36.4825 25.3994C35.981 26.1764 35.3259 26.8543 34.549 27.3875C32.4098 28.8576 29.6359 29.0227 27.333 27.8229C27.2746 27.7925 27.2149 27.7607 27.1552 27.729C23.5447 25.9593 21.0755 21.2785 24.1109 18.0996C23.1448 21.017 25.4261 24.3851 28.4971 25.8247C28.5593 25.8564 28.6215 25.8882 28.6825 25.9187C31.0895 27.1184 33.9891 26.9533 36.2248 25.4832C36.3492 25.402 36.4711 25.3169 36.5891 25.2268Z" fill="#ABD641"/>
<g id="Group_3">
<path id="Vector_14" d="M31.2764 63.8503C31.2845 63.8512 31.2926 63.8522 31.3007 63.8531C31.2926 63.8522 31.2845 63.8514 31.2764 63.8503Z" fill="#94CCD4"/>
<path id="Vector_15" d="M22.1704 61.2593C22.1992 61.2729 22.2283 61.2861 22.2571 61.2995C22.2282 61.2861 22.1992 61.2729 22.1704 61.2593Z" fill="#94CCD4"/>
<path id="Vector_16" d="M48.1481 60.7788C47.6238 61.0505 47.0919 61.3057 46.5498 61.5443C47.083 61.3082 47.6086 61.0556 48.1266 60.7864C48.1304 60.7852 48.1329 60.7826 48.1367 60.7813C48.1405 60.7801 48.1443 60.7801 48.1481 60.7788Z" fill="#94CCD4"/>
</g>
<path id="Vector_17" d="M1.97461 18.345L2.16098 31.1212C2.16098 32.3723 3.18041 33.3866 4.43801 33.3866L11.5861 33.6202C11.9059 33.6202 12.2176 33.7207 12.4766 33.9073L17.355 38.0315C17.8568 38.3932 18.5593 38.0365 18.5593 37.42L18.8675 35.4262C18.8675 34.5921 19.5471 33.916 20.3855 33.916L22.7448 33.9073C24.0024 33.9073 25.2407 33.6087 25.2407 32.3576V16.6508C25.2407 15.3997 24.2212 14.3855 22.9636 14.3855H3.22929C1.97169 14.3855 1.97461 17.0939 1.97461 18.345Z" fill="#FAF8F8"/>
<path id="Vector_18" d="M25.2408 32.0835V32.3578C25.2408 33.6083 24.2214 34.6226 22.9633 34.6226H21.1415C20.3036 34.6226 19.6244 35.2993 19.6244 36.1333V38.7321C19.6244 39.3478 18.9211 39.7045 18.4196 39.3427L12.2688 34.9095C12.0098 34.7229 11.6975 34.6226 11.3775 34.6226H3.22969C1.97158 34.6226 0.952148 33.6083 0.952148 32.3578V16.6511C0.952148 15.3994 1.97158 14.385 3.22969 14.385H3.49121V31.4488C3.49121 31.7993 3.77546 32.0835 4.12598 32.0835H11.3775C12.2307 32.0835 13.0622 32.3527 13.7528 32.8503L16.5902 34.8956C16.8619 35.0911 17.2402 34.9717 17.3621 34.6607C17.9537 33.1538 19.4251 32.0835 21.1415 32.0835H25.2408Z" fill="#F0E9E6"/>
</g>
<g id="Group_4">
<path id="Vector_19" d="M61.1772 19.9205C61.28 19.6066 61.3364 19.272 61.3364 18.9244V3.2175C61.3364 1.44333 59.8877 0 58.1072 0H38.3729C36.5923 0 35.1437 1.44333 35.1437 3.2175V4.34764C30.8866 4.26232 26.4617 5.14579 22.5497 6.86144C18.9681 8.42461 15.7655 10.6359 13.0223 13.4332H9.64844C9.1226 13.4332 8.69629 13.8595 8.69629 14.3853C8.69629 14.9112 9.1226 15.3375 9.64844 15.3375H22.9635C23.694 15.3375 24.2884 15.9267 24.2884 16.6507V32.3574C24.2884 33.0816 23.694 33.6708 22.9635 33.6708H21.1419C19.7798 33.6708 18.6716 34.7754 18.6716 36.1331V38.351L12.8249 34.1377C12.4012 33.8322 11.9007 33.6709 11.3778 33.6709H3.22918C2.49869 33.6709 1.9043 33.0817 1.9043 32.3576V16.6508C1.9043 15.9267 2.49869 15.3376 3.22918 15.3376H5.20508C5.73092 15.3376 6.15723 14.9113 6.15723 14.3854C6.15723 13.8596 5.73092 13.4333 5.20508 13.4333H3.22918C1.44866 13.4333 0 14.8766 0 16.6508V32.3576C0 34.1317 1.44866 35.5752 3.22918 35.5752H4.35665C4.58237 43.3375 7.7105 50.6022 13.2252 56.117C18.9536 61.8452 26.5699 65 34.671 65C38.8829 65 42.9602 64.1527 46.7897 62.4818C50.4884 60.8679 53.7843 58.565 56.5862 55.6371C56.9498 55.2571 56.9366 54.6545 56.5566 54.2909C56.1765 53.9273 55.574 53.9405 55.2104 54.3204C53.1183 56.5066 50.7448 58.3115 48.1693 59.7057C46.9592 58.0951 45.1835 56.1573 43.9964 54.3L44.2234 54.1364C44.3209 54.066 44.4363 54.029 44.557 54.029H52.7056C54.4861 54.029 55.9348 52.5856 55.9348 50.8115V35.1047C55.9348 34.8921 55.9135 34.6845 55.8737 34.4833C57.5101 32.5245 58.4066 30.0276 58.4066 27.3927C58.3939 25.519 57.8645 23.7086 56.8924 22.1419H58.1071C58.7754 22.1419 59.3969 21.9385 59.9127 21.5907C61.9982 25.6117 63.0957 30.1066 63.0957 34.671C63.0957 40.5486 61.3176 46.1886 57.9536 50.9815C57.6514 51.4118 57.7554 52.0057 58.1859 52.3077C58.47 52.5119 59.0809 52.5936 59.5122 52.0754C63.1023 46.9605 65 40.9421 65 34.671C65 29.4992 63.6794 24.4098 61.1772 19.9205ZM22.9635 13.4333H15.7765C18.0125 11.4357 20.5112 9.82935 23.1938 8.64551L23.8304 9.37993C24.8989 10.7828 25.5659 12.7966 25.3472 14.4827C24.7564 13.8383 23.9065 13.4333 22.9635 13.4333ZM45.1392 58.9606C45.5945 59.5151 46.0322 60.049 46.4341 60.5701C42.7945 62.2252 38.8077 63.0957 34.671 63.0957C24.0171 63.0957 14.7153 57.2029 9.84877 48.5066C11.1912 47.3995 12.9204 46.0539 14.3019 46.2141C14.8657 46.2796 15.3649 46.6091 15.8279 47.2217C16.9865 48.7533 18.9415 49.0518 20.3112 49.143C22.3564 49.0166 24.179 47.9719 25.3169 46.2875C25.6143 45.8538 25.504 45.2612 25.0703 44.9637C24.6367 44.6662 24.044 44.7767 23.7466 45.2103C22.9284 46.4031 21.8477 47.0486 20.3511 47.2368C18.7967 47.1227 17.868 46.7623 17.3467 46.0731C16.5646 45.0384 15.6141 44.4493 14.5215 44.3224C12.5049 44.0887 10.5215 45.5056 8.95654 46.7759C7.34119 43.3582 6.38765 39.5694 6.26209 35.5751H11.3777C11.4985 35.5751 11.6139 35.6121 11.7114 35.6825L17.8627 40.1154C18.1613 40.3306 18.5112 40.44 18.8635 40.44C19.1301 40.44 19.3979 40.3773 19.6459 40.2505C20.2196 39.9568 20.5758 39.3749 20.5758 38.7315V36.1331C20.5758 35.8254 20.8297 35.5751 21.1418 35.5751H22.9634C24.7439 35.5751 26.1926 34.1316 26.1926 32.3574V28.294C27.3259 28.9929 29.1209 29.6133 30.5821 29.5736C32.1622 29.5736 33.7347 29.1024 35.0882 28.1728C36.8546 26.9596 38.0708 25.066 38.4252 22.9775C38.4711 22.7063 38.5114 22.427 38.5459 22.1418H40.1944C40.5064 22.1418 40.7602 22.3921 40.7602 22.6999V25.2982C40.7602 25.9415 41.1166 26.5236 41.6901 26.8172C42.1741 27.0437 42.7638 27.1205 43.4732 26.6822L47.3927 23.8577C47.2413 25.3322 46.8447 26.8837 45.0387 28.6861C44.1905 29.5495 43.7036 30.7029 43.6777 31.8869H32.9711C31.1906 31.8869 29.7419 33.3304 29.7419 35.1046V35.5162C27.9742 36.19 26.559 37.6774 25.9247 39.551C25.7865 39.9595 25.57 40.6553 25.3689 41.3199C25.2152 41.8228 25.4982 42.3551 26.001 42.5089C26.3844 42.6165 26.9273 42.4837 27.1899 41.8768C27.3249 41.4352 27.51 40.8195 27.7286 40.1615C28.0952 39.0783 28.8204 38.1798 29.7421 37.6256V50.8112C29.7421 52.5854 31.1907 54.0287 32.9713 54.0287H34.7929C35.1049 54.0287 35.3587 54.2791 35.3587 54.5868V57.185C35.3587 57.8283 35.7151 58.4102 36.2887 58.704C36.5366 58.831 36.8045 58.8936 37.0712 58.8936C37.4235 58.8936 37.7735 58.7841 38.072 58.5691L42.4503 55.4139C43.2532 56.6603 44.2085 57.8273 45.1392 58.9606ZM54.0307 50.8113C54.0307 51.5355 53.4363 52.1245 52.7059 52.1245H44.5572C44.0342 52.1245 43.5338 52.286 43.1101 52.5915L37.2633 56.8049V54.5869C37.2633 53.2292 36.1551 52.1245 34.7932 52.1245H32.9715C32.241 52.1245 31.6466 51.5354 31.6466 50.8113V35.1047C31.6466 34.3806 32.241 33.7914 32.9715 33.7914H44.7318C44.7328 33.7914 44.7337 33.7916 44.7347 33.7916C44.7361 33.7916 44.7375 33.7914 44.7389 33.7914H52.706C53.4365 33.7914 54.0309 34.3806 54.0309 35.1047L54.0307 50.8113ZM56.5025 27.3992C56.5025 29.3334 55.9189 31.1769 54.845 32.6972C54.2749 32.1937 53.5258 31.8871 52.7059 31.8871H45.583C45.6084 31.1994 45.8979 30.5291 46.3907 30.0275C49.0723 27.3514 49.2353 24.9799 49.3662 23.0745C49.3822 22.8404 49.3983 22.6156 49.4182 22.3982L49.6246 22.2494C49.7222 22.1791 49.8376 22.1419 49.9585 22.1419H54.5405C55.7945 23.61 56.4893 25.4657 56.5025 27.3992ZM58.1072 20.2376H49.9586C49.4357 20.2376 48.9352 20.399 48.5115 20.7044L47.9426 21.1143C47.9404 21.1159 47.9383 21.1174 47.9361 21.1189L42.6646 24.9179V22.6999C42.6646 21.3421 41.5565 20.2375 40.1945 20.2375H38.3729C37.6424 20.2375 37.048 19.6483 37.048 18.9243V15.3613C37.048 14.8355 36.6217 14.4092 36.0958 14.4092C35.57 14.4092 35.1437 14.8355 35.1437 15.3613V18.9243C35.1437 20.0814 35.7602 21.0975 36.6827 21.6644C36.6464 22.0064 36.602 22.3399 36.5478 22.6592C36.2793 24.2426 35.3543 25.6801 34.0102 26.6032C31.6391 28.2721 28.4444 27.8507 26.1927 25.9872V17.3779C28.2356 14.6835 27.2135 10.3978 25.0664 7.89826C28.1315 6.79885 31.6922 6.17919 35.1435 6.25181V10.918C35.1435 11.4438 35.5699 11.8701 36.0957 11.8701C36.6215 11.8701 37.0478 11.4438 37.0478 10.918V3.2175C37.0478 2.49336 37.6422 1.9043 38.3727 1.9043H58.1071C58.8376 1.9043 59.432 2.49349 59.432 3.2175V18.9243C59.4321 19.6484 58.8377 20.2376 58.1072 20.2376Z" fill="black"/>
<path id="Vector_20" d="M54.1211 6.3163H49.1921V4.69727C49.1921 4.17143 48.7658 3.74512 48.24 3.74512C47.7142 3.74512 47.2878 4.17143 47.2878 4.69727V6.3163H42.3589C41.833 6.3163 41.4067 6.74261 41.4067 7.26845C41.4067 7.79429 41.833 8.22059 42.3589 8.22059H44.3331C44.7903 10.2469 45.6946 12.1103 46.954 13.6952C45.9903 14.6152 44.8628 15.378 43.6056 15.9383L42.2938 16.5229C41.8134 16.737 41.5975 17.2999 41.8116 17.7802C41.9695 18.1346 42.3174 18.345 42.6819 18.345C42.8113 18.345 42.943 18.3184 43.0688 18.2623L44.3806 17.6777C45.8278 17.0328 47.1272 16.1572 48.24 15.1015C49.3527 16.1572 50.6522 17.0328 52.0994 17.6777L53.4112 18.2623C53.7458 18.401 54.3735 18.3621 54.6684 17.7802C54.8824 17.2999 54.6666 16.737 54.1862 16.5229L52.8744 15.9383C51.6171 15.3781 50.4897 14.6152 49.526 13.6952C50.7854 12.1103 51.6896 10.2469 52.1467 8.22059H54.121C54.6468 8.22059 55.0731 7.79429 55.0731 7.26845C55.0731 6.74261 54.6469 6.3163 54.1211 6.3163ZM48.24 12.2441C47.3478 11.0524 46.682 9.69071 46.2932 8.22059H50.1867C49.7978 9.69071 49.1322 11.0524 48.24 12.2441Z" fill="black"/>
<path id="Vector_21" d="M8.24982 31.1057C8.74189 31.2913 9.29134 31.0429 9.47682 30.551L10.3032 28.3614H15.8821L16.7171 30.5538C16.8618 30.9338 17.2234 31.1674 17.607 31.1674C17.7196 31.1674 17.8343 31.1472 17.9457 31.1048C18.4372 30.9176 18.6837 30.3676 18.4966 29.8761L14.2063 18.6113C14.2035 18.6041 14.2007 18.5968 14.1978 18.5896C14.011 18.133 13.5714 17.8377 13.0781 17.8372C13.0776 17.8372 13.0773 17.8372 13.0768 17.8372C12.5841 17.8372 12.1445 18.1316 11.9569 18.5873C11.9533 18.596 11.9499 18.6047 11.9464 18.6136L7.69516 29.8789C7.50943 30.3706 7.75775 30.9201 8.24982 31.1057ZM13.0798 21.0036L15.1568 26.4571H11.0217L13.0798 21.0036Z" fill="black"/>
<path id="Vector_22" d="M50.1319 37.1973H45.7024C45.1766 37.1973 44.7503 37.6236 44.7503 38.1494C44.7503 38.6753 45.1766 39.1016 45.7024 39.1016H46.9649V42.085H43.1776C43.3988 41.6344 43.5234 41.1281 43.5234 40.5933C43.5234 38.7207 41.9999 37.1973 40.1274 37.1973H37.3781C36.8522 37.1973 36.4259 37.6236 36.4259 38.1494C36.4259 38.6753 36.8522 39.1016 37.3781 39.1016H40.1274C40.9499 39.1016 41.6191 39.7707 41.6191 40.5933C41.6191 41.4158 40.9499 42.085 40.1274 42.085H37.0725C36.5467 42.085 36.1204 42.5113 36.1204 43.0371C36.1204 43.5629 36.5467 43.9893 37.0725 43.9893H40.1274C40.9499 43.9893 41.6191 44.6584 41.6191 45.481C41.6191 46.3175 40.9639 46.9727 40.1274 46.9727C38.8119 46.9727 37.3185 46.8244 36.2184 45.7242C35.8465 45.3524 35.2436 45.3524 34.8719 45.7242C34.5001 46.096 34.5001 46.6989 34.8719 47.0707C36.4729 48.6717 38.5216 48.877 40.1274 48.877C41.9999 48.877 43.5234 47.3535 43.5234 45.481C43.5234 44.9461 43.3988 44.4398 43.1776 43.9893H46.9649V47.9248C46.9649 48.4506 47.3913 48.877 47.9171 48.877C48.4429 48.877 48.8692 48.4506 48.8692 47.9248V39.1016H50.1318C50.6576 39.1016 51.0839 38.6753 51.0839 38.1494C51.0839 37.6236 50.6578 37.1973 50.1319 37.1973Z" fill="black"/>
</g>
</g>
</g>
<defs>
<clipPath id="clip0_29_547">
<rect width="65" height="65" fill="white"/>
</clipPath>
</defs>
</svg>
