<svg width="17" height="26" viewBox="0 0 17 26" fill="none" xmlns="http://www.w3.org/2000/svg">
<path d="M1.97115 0.00240079C1.58691 -0.00605041 1.20958 0.105337 0.891622 0.321248C0.573664 0.53716 0.330877 0.846923 0.197018 1.2072C0.0631579 1.56747 0.0448762 1.96044 0.144713 2.33159C0.244551 2.70273 0.457546 3.0334 0.754087 3.27789L12.0688 12.9711L0.754087 22.6608C0.548955 22.8116 0.377161 23.003 0.249465 23.2232C0.121769 23.4435 0.0409217 23.6878 0.011985 23.9407C-0.0169517 24.1936 0.00664647 24.4497 0.0813013 24.6931C0.155956 24.9365 0.280059 25.1619 0.445839 25.3551C0.611619 25.5483 0.815505 25.7051 1.04473 25.8158C1.27395 25.9266 1.52357 25.9888 1.77796 25.9986C2.03235 26.0084 2.28602 25.9657 2.5231 25.873C2.76017 25.7802 2.97554 25.6395 3.15572 25.4596L16.1101 14.3759C16.3135 14.2023 16.4769 13.9868 16.5889 13.744C16.7009 13.5011 16.7589 13.2368 16.7589 12.9694C16.7589 12.7019 16.7009 12.4376 16.5889 12.1947C16.4769 11.9519 16.3135 11.7362 16.1101 11.5626L3.15572 0.468195C2.82847 0.177525 2.40873 0.0126988 1.97115 0.00240079Z" fill="white"/>
</svg>
