<svg width="68" height="68" viewBox="0 0 68 68" fill="none" xmlns="http://www.w3.org/2000/svg">
<g id="partner 1">
<path id="Vector" d="M65.875 48.875V65.875H4.78125C5.51437 65.875 6.18375 65.5775 6.66188 65.0994C7.055 64.7063 7.33125 64.175 7.41625 63.5906L14.8006 56.78C15.2575 57.1519 15.8419 57.375 16.4688 57.375C17.2019 57.375 17.8713 57.0775 18.3494 56.5994C18.8275 56.1213 19.125 55.4519 19.125 54.7188V53.125V52.7956L23.375 48.875H41.9688H53.6562H65.875Z" fill="#B4DD7F"/>
<path id="Vector_2" d="M7.4375 46.75V63.2188C7.4375 63.3463 7.42688 63.4737 7.41625 63.5906C7.33125 64.175 7.055 64.7063 6.66187 65.0994C6.18375 65.5775 5.51437 65.875 4.78125 65.875C3.315 65.875 2.125 64.685 2.125 63.2188V42.5C2.125 44.8481 4.02688 46.75 6.375 46.75H7.4375Z" fill="#838F9B"/>
<path id="Vector_3" d="M19.125 53.125V54.7188C19.125 55.4519 18.8275 56.1213 18.3494 56.5994C17.8713 57.0775 17.2019 57.375 16.4688 57.375C15.8419 57.375 15.2575 57.1519 14.8006 56.78C14.195 56.3019 13.8125 55.5581 13.8125 54.7188V47.8125C13.8125 47.2281 13.3344 46.75 12.75 46.75H7.4375H6.375C4.02688 46.75 2.125 44.8481 2.125 42.5V40.375H12.75H14.875C17.2231 40.375 19.125 42.2769 19.125 44.625V52.7956V53.125Z" fill="#838F9B"/>
<path id="Vector_4" d="M28.6875 21.7812V21.8556C28.6875 22.5675 28.9744 23.2156 29.4419 23.6831C29.6969 23.9381 30.005 24.14 30.345 24.2675C30.09 24.6394 29.7394 24.9369 29.3144 25.1388L12.75 32.9375V40.375H2.125V34C2.125 29.3038 5.92875 25.5 10.625 25.5H14.875L27.1469 20.3894C27.4656 20.2513 27.8056 20.1875 28.1456 20.1875H28.2094C28.5281 20.1875 28.8363 20.2406 29.1231 20.3469C28.8469 20.7612 28.6875 21.2606 28.6875 21.7812Z" fill="#FF826E"/>
<path id="Vector_5" d="M56.3125 36.1462V46.2187C56.3125 47.685 55.1225 48.875 53.6562 48.875C52.9231 48.875 52.2537 48.5775 51.7756 48.0994C51.2975 47.6212 51 46.9519 51 46.2187V36.1462H56.3125Z" fill="#CF9E76"/>
<path id="Vector_6" d="M49.9375 27.625V34.68L45.4113 35.9125C44.9438 36.04 44.625 36.4544 44.625 36.9325V46.2188C44.625 47.685 43.435 48.875 41.9688 48.875C41.2356 48.875 40.5662 48.5775 40.0881 48.0994C39.61 47.6213 39.3125 46.9519 39.3125 46.2188V33.4369C39.3125 31.8325 40.2262 30.3556 41.6606 29.6331L45.6875 27.625H49.9375Z" fill="#CF9E76"/>
<path id="Vector_7" d="M64.8125 25.5212V36.1462H56.3125H51H49.9375V34.68V27.625V25.5212H54.1875V27.6462C54.1875 28.2306 54.4213 28.7619 54.8144 29.1444C55.1969 29.5375 55.7281 29.7712 56.3125 29.7712C57.4812 29.7712 58.4375 28.815 58.4375 27.6462V25.5212H64.8125Z" fill="#E6E9ED"/>
<path id="Vector_8" d="M54.1875 25.5211H49.9375V27.6249H45.6875V18.0624H44.625L32.4169 24.1611C32.0663 24.3418 31.6625 24.4374 31.2694 24.4374C30.94 24.4374 30.6319 24.3736 30.345 24.2674C30.005 24.1399 29.6969 23.938 29.4419 23.683C28.9744 23.2155 28.6875 22.5674 28.6875 21.8555V21.7811C28.6875 21.2605 28.8469 20.7611 29.1231 20.3468C29.3675 19.9855 29.7075 19.6774 30.1113 19.4755L39.7587 14.6518C42.2662 13.398 45.0181 12.7499 47.8125 12.7499C47.8975 12.7499 47.9931 12.7499 48.0781 12.7393L49.9375 12.7711C54.6338 12.7711 58.4375 16.5749 58.4375 21.2711V25.5211V27.6461C58.4375 28.8149 57.4813 29.7711 56.3125 29.7711C55.7281 29.7711 55.1969 29.5374 54.8144 29.1443C54.4212 28.7618 54.1875 28.2305 54.1875 27.6461V25.5211Z" fill="#B4DD7F"/>
<path id="Vector_9" d="M10.625 25.5C13.559 25.5 15.9375 23.1215 15.9375 20.1875C15.9375 17.2535 13.559 14.875 10.625 14.875C7.69099 14.875 5.3125 17.2535 5.3125 20.1875C5.3125 23.1215 7.69099 25.5 10.625 25.5Z" fill="#F0D0B4"/>
<path id="Vector_10" d="M47.8125 12.75C44.88 12.75 42.5 10.37 42.5 7.4375C42.5 4.505 44.88 2.125 47.8125 2.125C50.745 2.125 53.125 4.505 53.125 7.4375C53.125 10.285 50.8938 12.6012 48.0781 12.7394C47.9931 12.75 47.8975 12.75 47.8125 12.75Z" fill="#F0D0B4"/>
<path id="Vector_11" d="M57.0021 47.8125C57.2337 47.328 57.375 46.7914 57.375 46.2188V37.2066H65.875V24.4566H59.5V21.2691C59.5 16.7939 56.4049 13.0369 52.2569 11.9999C53.4459 10.8407 54.1875 9.22462 54.1875 7.4375C54.1875 3.92169 51.3283 1.0625 47.8125 1.0625C44.2967 1.0625 41.4375 3.92169 41.4375 7.4375C41.4375 9.31812 42.2609 11.0064 43.5604 12.1741C42.0814 12.5131 40.6417 13.0231 39.2859 13.7009L29.6374 18.5247C29.2963 18.6957 28.9946 18.9167 28.7311 19.1739C28.0893 19.0825 27.3838 19.1378 26.7357 19.4076L15.7261 23.9944C16.5229 22.9298 17 21.6155 17 20.1875C17 16.6717 14.1408 13.8125 10.625 13.8125C7.10919 13.8125 4.25 16.6717 4.25 20.1875C4.25 22.2541 5.24344 24.089 6.77238 25.2546C3.41488 26.7399 1.0625 30.0985 1.0625 34V42.5V63.2188C1.0625 65.0813 2.44269 66.6134 4.23194 66.8823V66.9375H66.9375V47.8125H57.0021ZM55.25 46.2188C55.25 47.0974 54.5349 47.8125 53.6562 47.8125C52.7776 47.8125 52.0625 47.0974 52.0625 46.2188V37.2066H55.25V46.2188ZM14.875 39.3125H13.8125V33.6122L29.7712 26.1024C30.1208 25.9388 30.4268 25.7061 30.7052 25.4437C30.8901 25.4724 31.0749 25.5 31.2662 25.5C31.8272 25.5 32.3903 25.3672 32.895 25.1154L44.625 19.2504V26.9684L41.1867 28.6875C39.3752 29.5928 38.25 31.4139 38.25 33.439V46.2188C38.25 46.7914 38.3913 47.328 38.6229 47.8125H22.9596L20.1875 50.3678V44.625C20.1875 41.6957 17.8043 39.3125 14.875 39.3125ZM40.375 46.2188V33.439C40.375 32.2235 41.0497 31.1313 42.1366 30.5883L45.9383 28.6875H48.875V33.864L45.1286 34.8861C44.2064 35.1379 43.5625 35.9805 43.5625 36.9367V46.2188C43.5625 47.0974 42.8474 47.8125 41.9688 47.8125C41.0901 47.8125 40.375 47.0974 40.375 46.2188ZM45.6875 46.2188V36.9367L48.875 36.0676V37.2066H49.9375V46.2188C49.9375 46.7914 50.0788 47.328 50.3104 47.8125H45.3146C45.5462 47.328 45.6875 46.7914 45.6875 46.2188ZM63.75 26.5816V35.0816H51V26.5816H53.125V27.6441C53.125 29.4015 54.5551 30.8316 56.3125 30.8316C58.0699 30.8316 59.5 29.4015 59.5 27.6441V26.5816H63.75ZM43.5625 7.4375C43.5625 5.09363 45.4686 3.1875 47.8125 3.1875C50.1564 3.1875 52.0625 5.09363 52.0625 7.4375C52.0625 9.72612 50.2403 11.5855 47.9729 11.6716L47.8316 11.6694V11.6864C47.8242 11.6854 47.8189 11.6875 47.8125 11.6875C45.4686 11.6875 43.5625 9.78137 43.5625 7.4375ZM30.5883 20.4255L40.2369 15.6018C42.5754 14.4309 45.1956 13.8125 47.8125 13.8125C47.9039 13.8125 47.9921 13.8029 48.0824 13.7987L49.9375 13.8316C54.0387 13.8316 57.375 17.1679 57.375 21.2691V27.6441C57.375 28.2296 56.8979 28.7066 56.3125 28.7066C55.7271 28.7066 55.25 28.2296 55.25 27.6441V22.1627C55.25 19.9336 54.3862 17.8351 52.8169 16.2531L51.3081 17.7491C52.4801 18.9306 53.125 20.4988 53.125 22.1627V24.4566H48.875V26.5625H46.75V17H44.3742L31.9451 23.2146C31.7348 23.3198 31.4999 23.375 31.2662 23.375C30.43 23.375 29.75 22.695 29.75 21.7812C29.75 21.2033 30.0709 20.6837 30.5883 20.4255ZM6.375 20.1875C6.375 17.8436 8.28113 15.9375 10.625 15.9375C12.9689 15.9375 14.875 17.8436 14.875 20.1875C14.875 22.5314 12.9689 24.4375 10.625 24.4375C8.28113 24.4375 6.375 22.5314 6.375 20.1875ZM10.625 26.5625H15.0875L27.5538 21.3679C27.5857 21.3552 27.6239 21.3467 27.659 21.335C27.6377 21.5061 27.625 21.6803 27.625 21.8588C27.625 22.8055 27.9969 23.6608 28.5908 24.3089L11.6875 32.2628V39.3125H3.1875V34C3.1875 29.8988 6.52375 26.5625 10.625 26.5625ZM3.1875 41.4375H11.6875H12.75H14.875C16.6324 41.4375 18.0625 42.8676 18.0625 44.625V53.125V54.7177C18.0625 55.5974 17.3474 56.3125 16.4677 56.3125C16.0416 56.3125 15.6411 56.1468 15.3404 55.8461C15.0386 55.5443 14.8739 55.1437 14.8739 54.7177L14.875 47.8125C14.875 46.6406 13.9219 45.6875 12.75 45.6875H6.375C4.61762 45.6875 3.1875 44.2574 3.1875 42.5V41.4375ZM8.5 47.8125H12.75L12.7489 54.7166C12.7489 55.4274 12.954 56.1053 13.3248 56.6918L8.5 61.1373V47.8125ZM3.1875 63.2188V46.7224C4.07787 47.3971 5.17438 47.8125 6.375 47.8125V63.2188C6.375 64.0974 5.65994 64.8125 4.78125 64.8125C3.90256 64.8125 3.1875 64.0974 3.1875 63.2188ZM64.8125 64.8125H8.12706C8.228 64.6011 8.30769 64.3801 8.36825 64.1484L14.9345 58.0975C15.4116 58.3143 15.929 58.4375 16.4677 58.4375C18.5194 58.4375 20.1875 56.7694 20.1875 54.7177V53.2568L23.7904 49.9375H64.8125V64.8125Z" fill="black"/>
<path id="Vector_12" d="M60.5625 60.5625H62.6875V62.6875H60.5625V60.5625Z" fill="black"/>
<path id="Vector_13" d="M56.3125 60.5625H58.4375V62.6875H56.3125V60.5625Z" fill="black"/>
<path id="Vector_14" d="M52.0625 60.5625H54.1875V62.6875H52.0625V60.5625Z" fill="black"/>
</g>
</svg>
