<svg width="56" height="78" viewBox="0 0 56 78" fill="none" xmlns="http://www.w3.org/2000/svg">
<g id="Group">
<g id="Group_2">
<path id="Vector" d="M1.00015 39.488C1.00015 40.2457 1.20734 41.014 1.64139 41.7036C2.62291 43.2614 4.46647 43.9465 6.16183 43.5306C9.37498 38.5821 12.119 30.2294 12.1387 30.1689L2.94807 35.9567C1.68978 36.7491 1.00015 38.1027 1.00015 39.488Z" fill="#FFDDCF"/>
<path id="Vector_2" d="M12.1386 30.1689L21.1643 24.4854L21.1643 25.6605C21.0993 25.721 21.0342 25.783 20.9692 25.8465C19.0243 27.7566 17.5936 30.3292 17.0431 32.9077L16.9841 33.1845L16.777 33.3796C14.6415 35.385 12.9976 37.3904 12.1779 39.9931L7.38823 43.0088C6.99956 43.2538 6.58517 43.4262 6.16171 43.5305C6.28875 37.3329 9.13954 33.1875 12.1386 30.1689Z" fill="#FFCBBE"/>
<path id="Vector_3" d="M43.8618 30.1689C43.8815 30.2294 47.8148 37.327 49.8386 43.5306C50.1653 43.6107 50.4965 43.65 50.8277 43.65C52.213 43.65 53.5666 42.9604 54.3591 41.7036C55.5841 39.7557 55.0003 37.1832 53.0524 35.9567L43.8618 30.1689Z" fill="#FFDDCF"/>
<path id="Vector_4" d="M43.8618 30.1689C46.8608 33.1875 49.7116 37.3329 49.8386 43.5305C49.4152 43.4262 49.0008 43.2538 48.6121 43.0088L43.8225 39.9931C43.0028 37.3904 41.3588 35.385 39.2234 33.3796L39.0162 33.1845L38.9572 32.9077C38.4067 30.3292 36.976 27.7566 35.0311 25.8465C35.0084 25.8254 34.9858 25.8042 34.9646 25.783L34.9646 24.5671L43.8618 30.1689Z" fill="#FFCBBE"/>
<path id="Vector_5" d="M15.5944 61.9511L15.5944 67.4561L21.7966 69.8849L28.0003 67.4561L28.7368 65.8015C26.6526 64.1048 20.4772 62.1884 15.5944 61.9511Z" fill="#4A66A0"/>
<path id="Vector_6" d="M15.5943 53.0917L15.5943 61.9511C19.2482 64.4828 23.516 65.8151 28.0002 65.8151C28.2467 65.8151 28.4917 65.8106 28.7367 65.8015L31.1958 60.2739L28.0002 53.0917L15.5943 53.0917Z" fill="#3B5A9B"/>
<path id="Vector_7" d="M28.0001 65.8152L28.0001 67.4561L34.2023 69.8849L40.406 67.4561L40.406 61.9511C35.8942 62.4865 31.6779 63.8067 28.0001 65.8152Z" fill="#3B5A9B"/>
<path id="Vector_8" d="M28.0001 53.0917L28.0001 65.8151C32.4843 65.8151 36.7521 64.4828 40.406 61.9511L40.406 53.0917L28.0001 53.0917Z" fill="#2A4F95"/>
<path id="Vector_9" d="M15.5943 67.4561L15.5943 69.962C15.5943 73.3875 18.3725 76.1642 21.798 76.1642C25.2235 76.1642 28.0002 73.3875 28.0002 69.962L29.0144 68.6911L28.0002 67.4561L15.5943 67.4561Z" fill="#FF6E80"/>
<path id="Vector_10" d="M28.0001 67.4561L28.0001 69.962C28.0001 73.3875 30.7768 76.1642 34.2023 76.1642C37.6278 76.1642 40.406 73.3875 40.406 69.962L40.406 67.4561L28.0001 67.4561Z" fill="#FD5C6F"/>
<path id="Vector_11" d="M11.3643 48.7527C12.8601 53.9673 16.7408 58.1732 21.7512 60.1151C27.885 58.4958 31.5687 54.2613 30.6182 48.7527L11.3643 48.7527Z" fill="#687DAA"/>
<path id="Vector_12" d="M21.7512 60.1151C23.6886 60.8667 25.7968 61.2781 28.0003 61.2781C35.8993 61.2781 42.5613 55.9848 44.6362 48.7527L30.6182 48.7527C28.7867 52.9919 25.8679 56.9316 21.7512 60.1151Z" fill="#4A66A0"/>
<path id="Vector_13" d="M10.6941 43.9722C10.6941 45.6312 10.9285 47.2343 11.3641 48.7527C15.4006 52.1586 21.0402 54.3258 27.3104 54.474C37.2285 46.8522 38.091 28.9555 28.4961 21.7965C28.3313 21.7874 28.1664 21.7829 28 21.7829C22.182 21.7829 17.3228 27.247 16.1553 32.7172C12.7948 35.875 10.6941 38.998 10.6941 43.9722Z" fill="#FF6E80"/>
<path id="Vector_14" d="M27.3106 54.474C27.539 54.48 27.7688 54.4831 28.0002 54.4831C34.5457 54.4831 40.4515 52.2826 44.6362 48.7527C45.0717 47.2343 45.3062 45.6312 45.3062 43.9722C45.3062 38.998 43.2055 35.875 39.845 32.7172C39.2613 29.9828 37.7549 27.2485 35.6664 25.1993C33.6973 23.2649 31.2125 21.9416 28.4963 21.7964C34.5654 30.7768 34.8346 44.382 27.3106 54.474Z" fill="#FD5C6F"/>
<path id="Vector_15" d="M14.7249 14.2755C14.7249 20.8482 19.5009 26.3048 25.7726 27.3634C35.2184 23.17 37.7375 10.7116 32.2319 4.84744C30.9752 4.56766 29.5808 4.42852 28.0003 4.42852C21.9282 4.42852 17.7148 6.90727 15.2285 10.6413C14.9003 11.7967 14.7249 13.0157 14.7249 14.2755Z" fill="#FFDDCF"/>
<path id="Vector_16" d="M25.7724 27.3634C26.4969 27.4875 27.2409 27.551 28.0002 27.551C35.3321 27.551 41.2756 21.6074 41.2756 14.2755C41.2756 13.0157 41.1002 11.7967 40.772 10.6413C38.2706 7.56062 35.8039 5.63841 32.2317 4.84745C34.8194 12.1249 33.1225 21.5015 25.7724 27.3634Z" fill="#FFCBBE"/>
<path id="Vector_17" d="M15.2285 10.6413C18.0233 9.02609 21.1539 7.92661 24.4887 7.46836C24.838 8.87032 26.1008 9.91082 27.6102 9.91082C28.2045 9.91082 28.7581 9.74749 29.2345 9.4677C29.7471 10.5672 30.8602 11.3294 32.1518 11.3294C32.5813 11.3294 32.9896 11.2462 33.3647 11.0935C34.3559 7.47215 33.2277 3.12079 30.4761 1.22989C29.6746 1.07865 28.8458 1.00001 28.0004 1.00001C21.9283 1.00001 16.8089 5.07581 15.2285 10.6413Z" fill="#687DAA"/>
<path id="Vector_18" d="M30.4758 1.22989C32.2831 4.0701 33.2873 7.52281 33.3644 11.0935C34.4836 10.6383 35.2866 9.57055 35.3638 8.30621C37.2694 8.8794 39.0827 9.66582 40.772 10.6413C39.4124 5.85166 35.4303 2.16453 30.4758 1.22989Z" fill="#4A66A0"/>
</g>
<g id="Group_3">
<g id="Group_4">
<path id="Vector_19" d="M11.0419 40.7085L7.3885 43.0089C5.44103 44.2353 2.86805 43.6506 1.64168 41.7032C0.41531 39.7557 0.999989 37.1827 2.94745 35.9564L20.2549 25.0578" stroke="black" stroke-width="2" stroke-miterlimit="10" stroke-linecap="round" stroke-linejoin="round"/>
</g>
<path id="Vector_20" d="M15.5947 67.4557L40.4053 67.4557" stroke="black" stroke-width="2" stroke-miterlimit="10" stroke-linecap="round" stroke-linejoin="round"/>
<path id="Vector_21" d="M27.9999 27.551C20.6681 27.551 14.7244 21.6073 14.7244 14.2755C14.7244 6.94364 20.6681 1.00001 27.9999 1.00001C35.3318 1.00001 41.2754 6.94364 41.2754 14.2755C41.2754 21.6073 35.3318 27.551 27.9999 27.551Z" stroke="black" stroke-width="2" stroke-miterlimit="10" stroke-linecap="round" stroke-linejoin="round"/>
<path id="Vector_22" d="M35.7554 14.8804L35.7566 16.3356" stroke="black" stroke-width="2" stroke-miterlimit="10" stroke-linecap="round" stroke-linejoin="round"/>
<path id="Vector_23" d="M20.2432 14.8957L20.2444 16.3507" stroke="black" stroke-width="2" stroke-miterlimit="10" stroke-linecap="round" stroke-linejoin="round"/>
<path id="Vector_24" d="M30.0459 16.9876L25.9562 16.9911" stroke="black" stroke-width="2" stroke-miterlimit="10" stroke-linecap="round" stroke-linejoin="round"/>
<path id="Vector_25" d="M40.7717 10.6416C39.0818 9.66537 37.2691 8.87879 35.3635 8.30667C35.2604 9.9931 33.864 11.3299 32.1517 11.3299C30.859 11.3299 29.7471 10.5666 29.2339 9.46771C28.7568 9.74719 28.2031 9.91007 27.6101 9.91007C26.1003 9.91007 24.8368 8.87002 24.4874 7.46837C21.153 7.92661 18.0231 9.0267 15.2275 10.6416" stroke="black" stroke-width="2" stroke-miterlimit="10" stroke-linecap="round" stroke-linejoin="round"/>
<g id="Group_5">
<path id="Vector_26" d="M19.7219 53.2469C16.5304 52.2555 13.6825 50.709 11.3639 48.753" stroke="black" stroke-width="2" stroke-miterlimit="10" stroke-linecap="round" stroke-linejoin="round"/>
<path id="Vector_27" d="M44.636 48.753C39.8961 52.8893 32.0389 55.1814 24.9071 54.3164" stroke="black" stroke-width="2" stroke-miterlimit="10" stroke-linecap="round" stroke-linejoin="round"/>
</g>
<path id="Vector_28" d="M50.3853 34.277L53.0523 35.9564C54.9998 37.1827 55.5845 39.7556 54.3581 41.7032C53.1317 43.6506 50.5589 44.2353 48.6113 43.0089L44.9579 40.7085" stroke="black" stroke-width="2" stroke-miterlimit="10" stroke-linecap="round" stroke-linejoin="round"/>
<path id="Vector_29" d="M35.7449 25.058L45.906 31.4565" stroke="black" stroke-width="2" stroke-miterlimit="10" stroke-linecap="round" stroke-linejoin="round"/>
<path id="Vector_30" d="M35.6152 25.1501C37.7293 27.2055 39.2559 29.9605 39.844 32.7178C43.2052 35.8745 45.2853 38.9974 45.3053 43.9723C45.3425 53.2834 37.6225 61.3301 27.9998 61.2778C18.3761 61.3271 10.6585 53.2896 10.6944 43.9723C10.7136 38.9972 12.7944 35.8745 16.1556 32.7176C16.7438 29.9603 18.2705 27.2054 20.3845 25.1499" stroke="black" stroke-width="2" stroke-miterlimit="10" stroke-linecap="round" stroke-linejoin="round"/>
<path id="Vector_31" d="M27.9998 69.9616C27.9998 73.3872 25.2228 76.1642 21.7971 76.1642C18.3715 76.1642 15.5945 73.3872 15.5945 69.9616L15.5945 56.0025" stroke="black" stroke-width="2" stroke-miterlimit="10" stroke-linecap="round" stroke-linejoin="round"/>
<path id="Vector_32" d="M40.4053 56.0014L40.4053 69.9616C40.4053 73.3872 37.6283 76.1642 34.2026 76.1642C30.777 76.1642 28 73.3872 28 69.9616L28 61.2779" stroke="black" stroke-width="2" stroke-miterlimit="10" stroke-linecap="round" stroke-linejoin="round"/>
</g>
</g>
</svg>
