<svg width="68" height="68" viewBox="0 0 68 68" fill="none" xmlns="http://www.w3.org/2000/svg">
<g id="augmentation 1">
<g id="Group">
<path id="Vector" d="M47.8125 42.4787C47.8125 44.5931 47.3238 46.665 46.3781 48.5563L45.6875 49.9375C45.6875 53.465 45.22 56.9712 44.285 60.3713L42.5 66.9375H5.3125L6.17312 46.3356C6.205 45.5175 6.22625 44.6994 6.22625 43.8812C6.22625 41.4375 6.06687 38.9937 5.76937 36.5712C5.46125 34.1487 5.3125 31.7156 5.3125 29.2719V21.7494C5.3125 19.3375 5.9925 16.9788 7.2675 14.9388C7.44813 14.6519 7.62875 14.3862 7.83062 14.1206L10.625 1.0625H27.625L27.3806 1.55125C26.8388 2.62437 26.5625 3.81437 26.5625 5.015C26.5625 6.59812 27.0406 8.12812 27.9331 9.42437L45.4113 34.765C46.9731 37.0387 47.8125 39.7269 47.8125 42.4787Z" fill="#EEB8AB"/>
<path id="Vector_2" d="M45.6875 49.9375L46.3781 48.5563C47.3238 46.665 47.8125 44.5931 47.8125 42.4787C47.8125 39.7269 46.9731 37.0387 45.4113 34.765L27.9331 9.42437C27.0406 8.12812 26.5625 6.59812 26.5625 5.015C26.5625 3.81437 26.8388 2.62437 27.3806 1.55125L27.625 1.0625H12.75L9.95562 14.1206C9.75375 14.3862 9.57313 14.6519 9.3925 14.9388C8.1175 16.9788 7.4375 19.3375 7.4375 21.7494V29.2719C7.4375 31.7156 7.58625 34.1487 7.89437 36.5712C8.19187 38.9937 8.35125 41.4375 8.35125 43.8812C8.35125 44.6994 8.33 45.5175 8.29812 46.3356L7.4375 66.9375H42.5L44.285 60.3713C45.22 56.9712 45.6875 53.465 45.6875 49.9375Z" fill="#FFE1D3"/>
<path id="Vector_3" d="M35.0582 58.4375L34.8871 58.4364L34.9317 56.3114L35.0582 56.3125C35.684 56.3125 36.313 56.2828 36.9282 56.2222L37.1343 58.3366C36.4511 58.4035 35.752 58.4375 35.0582 58.4375ZM32.5687 58.1591C31.8059 57.9859 31.06 57.7352 30.3513 57.4101L31.2353 55.4784C31.8112 55.7419 32.4168 55.9459 33.0373 56.0862L32.5687 58.1591ZM39.3432 58.0051L38.9172 55.9236C39.5696 55.7897 40.2241 55.6197 40.8647 55.4157L41.5065 57.4409C40.7967 57.6661 40.0689 57.8563 39.3432 58.0051ZM43.5996 56.6525L42.7454 54.706C43.3542 54.4393 43.9587 54.1344 44.5399 53.8008L45.595 55.6453C44.949 56.0161 44.2775 56.355 43.5996 56.6525ZM28.3347 56.2233C27.8831 55.8896 27.4528 55.5188 27.0576 55.1236L26.6357 54.7028L28.1371 53.1983L28.5599 53.6201C28.8819 53.9431 29.2304 54.2427 29.5969 54.5137L28.3347 56.2233ZM47.4746 54.4351L46.2314 52.7127C46.7744 52.3207 47.3014 51.8957 47.8007 51.4505L49.216 53.0358C48.6624 53.5309 48.077 54.0016 47.4746 54.4351ZM50.8034 51.4643L49.2287 50.0363C49.6792 49.5391 50.1074 49.0142 50.5027 48.4766L52.2165 49.7324C51.7777 50.3296 51.3027 50.9118 50.8034 51.4643ZM53.4405 47.8624L51.6034 46.7957C51.9402 46.2145 52.2494 45.6121 52.5236 45.0032L54.4615 45.8724C54.1587 46.5492 53.8145 47.2175 53.4405 47.8624ZM55.268 43.7846L53.2482 43.1248C53.4543 42.4926 53.6296 41.8402 53.7699 41.1836L55.8481 41.6256C55.693 42.3555 55.4964 43.0822 55.268 43.7846ZM56.1966 39.4177L54.0833 39.1977C54.1524 38.5347 54.1874 37.8579 54.1874 37.1875H56.3124C56.3124 37.9312 56.2731 38.6814 56.1966 39.4177Z" fill="#FD5252"/>
<path id="Vector_4" d="M54.4924 35.6256L53.1143 34.0085L54.7315 32.6304L56.1095 34.2476L54.4924 35.6256ZM51.7363 32.3903L50.3582 30.7732L51.9753 29.3951L53.3534 31.0122L51.7363 32.3903ZM48.9802 29.155L47.6021 27.5379L49.2192 26.1598L50.5973 27.7769L48.9802 29.155ZM46.224 25.9207L44.846 24.3036L46.4631 22.9256L47.8412 24.5427L46.224 25.9207ZM43.4679 22.6854L42.0898 21.0683L43.707 19.6902L45.085 21.3074L43.4679 22.6854ZM40.7118 19.4501L39.3337 17.833L40.9508 16.4549L42.3289 18.0721L40.7118 19.4501ZM37.9567 16.2148L36.5787 14.5977L38.1958 13.2196L39.5738 14.8368L37.9567 16.2148ZM35.1995 12.9795L33.8215 11.3624L35.4386 9.98431L36.8167 11.6014L35.1995 12.9795ZM32.4445 9.74419L31.0664 8.12706L32.6835 6.749L34.0616 8.36613L32.4445 9.74419Z" fill="#FD5252"/>
<path id="Vector_5" d="M40.0637 33.2488L38.5613 34.7512L39.9351 36.125H36.125V38.25H39.9351L38.5613 39.6238L40.0637 41.1262L43.2512 37.9387C43.6666 37.5232 43.6666 36.8517 43.2512 36.4363L40.0637 33.2488Z" fill="#4FA04B"/>
<path id="Vector_6" d="M56.0012 19.4363L52.8137 16.2488L51.3113 17.7512L52.6851 19.125H48.875V21.25H52.6851L51.3113 22.6238L52.8137 24.1262L56.0012 20.9387C56.4166 20.5232 56.4166 19.8517 56.0012 19.4363Z" fill="#4FA04B"/>
<path id="Vector_7" d="M63.4387 26.8738L60.2512 23.6863L58.7488 25.1887L60.1226 26.5625H56.3125V28.6875H60.1226L58.7488 30.0613L60.2512 31.5637L63.4387 28.3762C63.8541 27.9607 63.8541 27.2892 63.4387 26.8738Z" fill="#4FA04B"/>
<g id="Group_2">
<path id="Vector_8" d="M24.5724 40.103C25.1366 36.4406 26.8185 33.1202 29.4387 30.5012L27.9363 28.9988C24.9942 31.9398 23.1062 35.6671 22.4729 39.7789C21.6739 44.9767 20.689 50.2169 19.5479 55.3562L17.0319 66.6804L16.967 66.9375H19.1505L21.6219 55.8174C22.7736 50.6334 23.767 45.3464 24.5724 40.103Z" fill="#EEB8AB"/>
<path id="Vector_9" d="M8.67845 14.7613C9.55076 13.6042 10.677 12.6246 11.9361 11.9266C13.4735 11.0755 15.2096 10.625 16.9574 10.625C18.7573 10.625 20.4488 11.3252 21.7206 12.5981L22.6238 13.5012L24.1261 11.9988L23.223 11.0957C21.5506 9.42225 19.3247 8.5 16.9574 8.5C14.8505 8.5 12.7584 9.04188 10.9065 10.0672C9.94495 10.6006 9.06095 11.2806 8.27576 12.0402L7.83057 14.1206C7.6287 14.3863 7.44807 14.6519 7.26745 14.9388C6.69901 15.8483 6.25595 16.8236 5.93188 17.8362L6.00838 17.9021L8.67845 14.7613Z" fill="#EEB8AB"/>
<path id="Vector_10" d="M46.4917 48.2927L45.2124 48.9876L43.0333 50.0777C41.8241 50.6812 40.4716 51 39.1233 51C36.7879 51 34.5928 50.0916 32.9427 48.4404L29.4396 44.9363L27.9373 46.4387L31.4403 49.9428C33.4909 51.9956 36.2205 53.125 39.1233 53.125C40.7999 53.125 42.4797 52.7287 43.9831 51.9786L45.6481 51.1456C45.6598 50.7429 45.6874 50.3412 45.6874 49.9375L46.378 48.5562C46.4216 48.4702 46.4503 48.3788 46.4917 48.2927Z" fill="#EEB8AB"/>
</g>
<path id="Vector_11" d="M27.9362 28.9988C24.9941 31.9398 23.1061 35.6671 22.4728 39.7789C21.6738 44.9767 20.6889 50.2169 19.5478 55.3562L17.0254 66.7069L19.0994 67.1681L21.6218 55.8174C22.7735 50.6334 23.767 45.3464 24.5723 40.103C25.1365 36.4406 26.8185 33.1202 29.4386 30.5012L27.9362 28.9988Z" fill="black"/>
<path id="Vector_12" d="M22.6238 13.5012L24.1262 11.9988L23.2209 11.0936C21.5496 9.42119 19.3247 8.5 16.9596 8.5C14.2587 8.5 11.7056 9.35319 9.60819 10.8832L11.6652 1.28563L9.58588 0.839378L6.82231 13.7339C6.67038 13.9464 6.50569 14.1461 6.3665 14.3703C4.98206 16.5856 4.25 19.1388 4.25 21.7515V29.2708C4.25 31.7475 4.40512 34.2497 4.71325 36.7083C5.1085 39.8746 5.24238 43.0993 5.10956 46.2889L4.25106 66.8929L6.37394 66.9821L7.23244 46.3771C7.3695 43.0695 7.23244 39.7269 6.82125 36.4438C6.52588 34.0723 6.375 31.6593 6.375 29.2708V21.7515C6.375 19.5373 6.9955 17.3751 8.1685 15.4976C10.0746 12.4461 13.3609 10.625 16.9596 10.625C18.7574 10.625 20.4478 11.3252 21.7186 12.5959L22.6238 13.5012Z" fill="black"/>
<path id="Vector_13" d="M28.1383 53.1973L26.637 54.7018L27.0588 55.1225C27.454 55.5178 27.8833 55.8886 28.3359 56.2222L29.5982 54.5126C29.2316 54.2417 28.8831 53.9421 28.5612 53.6191L28.1383 53.1973Z" fill="black"/>
<path id="Vector_14" d="M51.6035 46.7957L53.4406 47.8624C53.8146 47.2186 54.1578 46.5492 54.4606 45.8734L52.5226 45.0043C52.2495 45.6121 51.9403 46.2145 51.6035 46.7957Z" fill="black"/>
<path id="Vector_15" d="M30.3513 57.4101C31.06 57.7352 31.8059 57.9859 32.5688 58.1591L33.0373 56.0862C32.4168 55.9459 31.8101 55.7419 31.2353 55.4784L30.3513 57.4101Z" fill="black"/>
<path id="Vector_16" d="M54.0835 39.1977L56.1968 39.4177C56.2733 38.6814 56.3126 37.9312 56.3126 37.1875H54.1876C54.1876 37.8579 54.1526 38.5347 54.0835 39.1977Z" fill="black"/>
<path id="Vector_17" d="M53.2471 43.1248L55.2669 43.7846C55.4964 43.0822 55.6919 42.3555 55.847 41.6256L53.7688 41.1836C53.6296 41.8402 53.4543 42.4926 53.2471 43.1248Z" fill="black"/>
<path id="Vector_18" d="M49.2288 50.0363L50.8034 51.4643C51.3028 50.9118 51.7777 50.3306 52.2165 49.7324L50.5027 48.4766C50.1074 49.0142 49.6793 49.5391 49.2288 50.0363Z" fill="black"/>
<path id="Vector_19" d="M46.665 52.3653C46.7086 51.6407 46.7447 50.9161 46.7489 50.1904L47.328 49.0322C48.3406 47.0082 48.875 44.7419 48.875 42.4798C48.875 39.4952 47.9793 36.6201 46.2857 34.1647L28.8097 8.82512C28.0351 7.69994 27.625 6.38456 27.625 5.02031C27.625 3.98544 27.8694 2.9495 28.3326 2.02406L28.5759 1.5385L26.6751 0.587563L26.4318 1.07313C25.8219 2.29181 25.5 3.65712 25.5 5.02031C25.5 6.81806 26.0398 8.54994 27.0598 10.0311L44.5358 35.3717C45.985 37.4712 46.75 39.9287 46.75 42.4798C46.75 44.4136 46.2931 46.3516 45.4272 48.0802L44.8949 49.1449L43.0323 50.0767C41.8242 50.6812 40.4717 51 39.1234 51C36.788 51 34.5929 50.0916 32.9428 48.4404L29.4398 44.9363L27.9374 46.4387L31.4404 49.9428C33.4911 51.9956 36.2206 53.125 39.1234 53.125C40.8 53.125 42.4798 52.7287 43.9832 51.9786L44.5676 51.6864C44.5347 52.4163 44.4784 53.1441 44.404 53.8709C43.8632 54.1747 43.3086 54.4606 42.7465 54.706L43.6007 56.6525C43.7527 56.5856 43.9025 56.5101 44.0534 56.4389C43.843 57.6682 43.5944 58.8912 43.2661 60.0961L41.4757 66.6581L43.5264 67.2159L45.3167 60.6539C45.9797 58.2239 46.4036 55.7366 46.6076 53.2302L47.4767 54.4351C48.0781 54.0016 48.6646 53.5298 49.2182 53.0368L47.8029 51.4516C47.4396 51.7735 47.0507 52.0689 46.665 52.3653Z" fill="black"/>
<path id="Vector_20" d="M35.0583 56.3125L34.9318 56.3114L34.8872 58.4364L35.0583 58.4375C35.7521 58.4375 36.4512 58.4035 37.1355 58.3366L36.9293 56.2222C36.3131 56.2827 35.683 56.3125 35.0583 56.3125Z" fill="black"/>
<path id="Vector_21" d="M40.8638 55.4157C40.2242 55.6187 39.5697 55.7897 38.9163 55.9236L39.3423 58.0051C40.068 57.8563 40.7958 57.6672 41.5056 57.4419L40.8638 55.4157Z" fill="black"/>
<path id="Vector_22" d="M44.8472 24.272L46.464 22.8931L47.8429 24.51L46.2261 25.8889L44.8472 24.272Z" fill="black"/>
<path id="Vector_23" d="M42.0908 21.0391L43.7077 19.6602L45.0866 21.2771L43.4697 22.656L42.0908 21.0391Z" fill="black"/>
<path id="Vector_24" d="M31.061 8.10748L32.6779 6.72858L34.0568 8.34544L32.4399 9.72435L31.061 8.10748Z" fill="black"/>
<path id="Vector_25" d="M47.6047 27.5049L49.2216 26.126L50.6005 27.7429L48.9836 29.1218L47.6047 27.5049Z" fill="black"/>
<path id="Vector_26" d="M50.3621 30.7379L51.9789 29.359L53.3578 30.9758L51.741 32.3547L50.3621 30.7379Z" fill="black"/>
<path id="Vector_27" d="M33.8186 11.3404L35.4355 9.96149L36.8144 11.5784L35.1975 12.9573L33.8186 11.3404Z" fill="black"/>
<path id="Vector_28" d="M53.1189 33.9715L54.7358 32.5925L56.1147 34.2094L54.4978 35.5883L53.1189 33.9715Z" fill="black"/>
<path id="Vector_29" d="M36.5781 14.5807L38.195 13.2018L39.5739 14.8187L37.957 16.1976L36.5781 14.5807Z" fill="black"/>
<path id="Vector_30" d="M39.3335 17.8062L40.9504 16.4273L42.3293 18.0442L40.7124 19.4231L39.3335 17.8062Z" fill="black"/>
<path id="Vector_31" d="M36.125 38.25H39.9351L38.5613 39.6238L40.0637 41.1262L43.2512 37.9387C43.6666 37.5232 43.6666 36.8517 43.2512 36.4363L40.0637 33.2488L38.5613 34.7512L39.9351 36.125H36.125V38.25Z" fill="black"/>
<path id="Vector_32" d="M48.875 21.25H52.6851L51.3113 22.6238L52.8137 24.1262L56.0012 20.9387C56.4166 20.5232 56.4166 19.8517 56.0012 19.4363L52.8137 16.2488L51.3113 17.7512L52.6851 19.125H48.875V21.25Z" fill="black"/>
<path id="Vector_33" d="M60.2512 23.6863L58.7488 25.1887L60.1226 26.5625H56.3125V28.6875H60.1226L58.7488 30.0613L60.2512 31.5637L63.4387 28.3762C63.8541 27.9607 63.8541 27.2892 63.4387 26.8738L60.2512 23.6863Z" fill="black"/>
</g>
</g>
</svg>
