<svg width="70" height="70" viewBox="0 0 70 70" fill="none" xmlns="http://www.w3.org/2000/svg">
<g clip-path="url(#clip0_29_164)">
<path d="M61.769 1.16695H8.23259C13.6489 9.38429 -7.52471 29.3909 12.1132 40.7035C12.1157 40.6933 12.1183 40.6831 12.1208 40.6729C10.185 48.7528 9.65592 57.8641 13.6007 68.833H56.3995C60.3486 57.852 59.8149 48.7336 57.8744 40.6482C57.8789 40.6672 57.8839 40.686 57.8884 40.7049C77.5281 29.393 56.3541 9.38225 61.769 1.16695Z" fill="#FFEBD2"/>
<path d="M20.8922 68.8331H13.6006C10.4434 60.0554 10.1517 52.4663 11.1521 45.6443C13.8135 45.9782 16.1614 46.5091 18.2468 47.1522C17.5016 53.5819 17.9654 60.6971 20.8922 68.8331Z" fill="#FFF3E4"/>
<path d="M20.2929 37.3625H13.0002C16.8823 23.9926 23.6399 13.3089 17.8808 1.16695H25.1724C30.9313 13.3089 24.1749 23.9926 20.2929 37.3625Z" fill="#FFF3E4"/>
<path d="M58.848 45.6443C44.6235 47.4264 39.3896 54.8536 35.0015 54.8536C30.6144 54.8536 25.3747 47.4264 11.1521 45.6443C11.5682 42.8223 12.2111 40.0805 13.0002 37.3625H57.0003C57.7959 40.1034 58.4301 42.8102 58.848 45.6443Z" fill="#FFA4B8"/>
<path d="M20.2929 37.3625C19.3916 40.4643 18.645 43.7106 18.2468 47.1522C16.1614 46.5091 13.8135 45.9783 11.1521 45.6443C11.6606 42.337 12.1866 40.2399 13.0002 37.3625H20.2929Z" fill="#FFBFCB"/>
<path d="M57.8884 40.705C54.2992 25.7111 45.8904 14.2997 52.1193 1.16695H61.769C56.3547 9.38138 77.5272 29.3935 57.8884 40.705Z" fill="#8AF7FA"/>
<path d="M8.23256 1.16695H17.8808C24.121 14.3233 15.6658 25.7828 12.1132 40.7035C-7.52416 29.3911 13.6479 9.38284 8.23256 1.16695Z" fill="#8AF7FA"/>
<path d="M35.0006 31.1255C35.6449 31.1255 36.1673 30.6032 36.1673 29.9589V28.0496C36.1673 27.4054 35.6449 26.883 35.0006 26.883C34.3564 26.883 33.834 27.4054 33.834 28.0496V29.9589C33.834 30.6032 34.3564 31.1255 35.0006 31.1255Z" fill="black"/>
<path d="M60.8796 6.5359C61.5617 6.5359 62.0941 5.95739 62.0444 5.2832C61.9363 3.82211 62.1647 2.68564 62.7425 1.8089C63.0972 1.27092 62.9483 0.547305 62.4104 0.192787C61.872 -0.161877 61.1489 -0.0129821 60.7943 0.524993C59.9224 1.84827 59.5699 3.46089 59.7174 5.45514C59.7629 6.06851 60.2746 6.5359 60.8796 6.5359Z" fill="black"/>
<path d="M66.2402 24.4781C65.5984 24.5345 65.1239 25.1006 65.1803 25.7424C65.3725 27.929 65.2087 30.0735 64.4231 32.1287C64.1932 32.7306 64.4944 33.4049 65.0963 33.635C65.7032 33.8669 66.3745 33.5587 66.6026 32.9618C67.5038 30.604 67.7299 28.0931 67.5046 25.538C67.4481 24.8962 66.8829 24.4215 66.2402 24.4781Z" fill="black"/>
<path d="M60.6903 37.3095C60.0734 37.8493 59.3839 38.3719 58.6317 38.8721C54.8569 24.6023 47.4008 13.8376 53.1728 1.667C53.4489 1.08484 53.2007 0.389076 52.6185 0.113016C52.0365 -0.163336 51.3404 0.085162 51.0645 0.667178C45.2913 12.8401 51.5685 23.6961 55.4287 36.196H19.0243C18.38 36.196 17.8577 36.7183 17.8577 37.3626C17.8577 38.0069 18.38 38.5293 19.0243 38.5293H56.1141C58.4722 47.0338 59.533 56.6721 55.3014 68.4384C55.0278 69.1991 55.5936 70.0001 56.3992 70.0001C56.8772 70.0001 57.3258 69.7038 57.497 69.228C61.4052 58.3607 61.0292 49.294 59.2189 41.266C60.3324 40.5763 61.3428 39.8389 62.2265 39.0657C62.7114 38.6414 62.7607 37.9044 62.3363 37.4193C61.9124 36.9343 61.1754 36.8853 60.6903 37.3095Z" fill="black"/>
<path d="M7.95733 5.2832C7.9076 5.95782 8.44047 6.5359 9.12209 6.5359C9.72715 6.5359 10.2389 6.06851 10.2844 5.45514C10.4318 3.46103 10.0795 1.84842 9.20726 0.524993C8.85274 -0.0129821 8.12927 -0.161877 7.59115 0.192787C7.05332 0.547305 6.90442 1.27092 7.25909 1.8089C7.83702 2.68593 8.06525 3.82226 7.95733 5.2832Z" fill="black"/>
<path d="M4.82135 25.7417C4.87808 25.0999 4.40369 24.5336 3.76173 24.477C3.11832 24.42 2.55381 24.8948 2.49708 25.5367C2.27148 28.09 2.49766 30.603 3.39861 32.9605C3.57624 33.4254 4.01898 33.711 4.48871 33.711C5.3007 33.711 5.8712 32.8942 5.57822 32.1275C4.79364 30.075 4.62856 27.9286 4.82135 25.7417Z" fill="black"/>
<path d="M9.91318 21.4436C9.2969 22.2152 9.86185 23.3382 10.824 23.3382C11.1666 23.3382 11.5061 23.188 11.7364 22.8996C14.066 19.9816 14.0219 20.1135 14.091 19.7232C14.1433 19.4318 14.0691 19.1358 13.9653 18.9558C13.8932 18.8311 14.0166 18.9938 11.7362 16.1372C11.3343 15.6336 10.6001 15.5517 10.0966 15.9534C9.59323 16.3555 9.51083 17.0896 9.91304 17.593L10.5188 18.3515H6.50086C7.17621 16.2731 7.88057 14.3929 8.52151 12.5383C8.73194 11.9294 8.40892 11.2651 7.79993 11.0545C7.1905 10.8441 6.52667 11.1672 6.31609 11.7761C5.60107 13.8451 4.7675 16.0571 4.05015 18.3515H1.1669C0.522615 18.3515 0.000244141 18.8739 0.000244141 19.5182C0.000244141 20.1625 0.522615 20.6848 1.1669 20.6848H10.5188L9.91318 21.4436Z" fill="black"/>
<path d="M68.833 18.3517H65.9512C65.2257 16.0315 64.4165 13.8923 63.6853 11.7765C63.4749 11.1677 62.8107 10.8444 62.2014 11.0549C61.5925 11.2654 61.2693 11.9298 61.4799 12.5388C61.7126 13.2117 63.0868 17.078 63.5005 18.3517H59.4811L60.0869 17.5932C60.4891 17.0898 60.4067 16.3557 59.9033 15.9536C59.4 15.5517 58.6657 15.6338 58.2637 16.1373C55.8964 19.1021 56.1262 18.7967 56.0332 18.9586C55.8149 19.3379 55.8369 19.8518 56.1385 20.2367C56.2067 20.3248 56.2668 20.3984 58.2637 22.8997C58.6643 23.4015 59.398 23.4867 59.9033 23.0835C60.4067 22.6814 60.4891 21.9473 60.0869 21.4439L59.4811 20.6853H68.833C69.4773 20.6853 69.9997 20.1629 69.9997 19.5186C69.9997 18.8743 69.4773 18.3517 68.833 18.3517Z" fill="black"/>
<path d="M51.0523 46.1499C42.335 48.928 37.9552 53.6863 35.0008 53.6863C31.3352 53.6863 25.9066 46.6905 12.5029 44.6558C15.333 27.9511 25.9143 15.3818 18.9357 0.667177C18.6595 0.0850152 17.9637 -0.163191 17.3817 0.113015C16.7995 0.389075 16.5515 1.08484 16.8274 1.667C22.5997 13.8383 15.1455 24.5943 11.3687 38.8714C10.6167 38.3712 9.92734 37.8485 9.31047 37.3088C8.82557 36.8844 8.08868 36.9336 7.66417 37.4185C7.23994 37.9034 7.28894 38.6404 7.77383 39.0648C8.65758 39.8381 9.66775 40.5757 10.7813 41.2654C8.97082 49.2934 8.59472 58.3603 12.503 69.228C12.6742 69.7038 13.1227 70.0001 13.6008 70.0001C14.4058 70.0001 14.9724 69.1995 14.6987 68.4384C11.8046 60.3911 11.387 53.3396 12.1659 46.9649C24.388 48.8288 29.3353 54.9322 33.8335 55.8907V68.8333C33.8335 69.4776 34.3558 70 35.0001 70C35.6444 70 36.1668 69.4776 36.1668 68.8333V55.8912C39.8482 55.1076 43.7665 50.9209 51.7607 48.3732C52.3747 48.1775 52.7138 47.5213 52.518 46.9073C52.3225 46.2932 51.6658 45.9542 51.0523 46.1499Z" fill="black"/>
</g>
<defs>
<clipPath id="clip0_29_164">
<rect width="70" height="70" fill="white"/>
</clipPath>
</defs>
</svg>
