<svg width="80" height="68" viewBox="0 0 80 68" fill="none" xmlns="http://www.w3.org/2000/svg">
<g id="Group 1000001945">
<path id="Vector" d="M64.9247 0.898562H63.0969C59.5757 0.896648 56.1964 2.28658 53.6956 4.76544C52.5094 5.95351 50.997 6.76252 49.3504 7.08984L48.6538 7.22356C42.7946 8.34831 36.7755 8.3549 30.9139 7.243L30.0826 7.08531C28.4294 6.75982 26.9104 5.94952 25.7194 4.75764C23.2192 2.28361 19.8434 0.896767 16.3261 0.898741H14.4983C7.14711 0.898741 1.0128 6.73614 0.900564 14.0864C0.874952 15.8624 1.20237 17.6257 1.86382 19.2741C2.52526 20.9224 3.50756 22.423 4.75367 23.6886C5.99979 24.9542 7.4849 25.9597 9.12278 26.6467C10.7607 27.3337 12.5187 27.6885 14.2948 27.6904V21.7202C13.3049 21.7191 12.3252 21.5203 11.4131 21.1355C10.5011 20.7507 9.67505 20.1875 8.98355 19.4792C8.29206 18.7708 7.74901 17.9315 7.38626 17.0104C7.02352 16.0893 6.84839 15.1051 6.87115 14.1154C6.94135 12.161 7.77052 10.3109 9.18263 8.9578C10.5947 7.60475 12.4786 6.85533 14.4343 6.86864H16.3261C18.1424 6.87109 19.895 7.53833 21.2532 8.74442C22.6113 9.95052 23.4809 11.612 23.698 13.4154L23.6917 31.0017C23.6917 37.4851 27.5506 44.081 33.0969 47.1292V59.2153C33.0969 62.8513 36.0445 66.7394 39.6806 66.7394C43.3168 66.7394 46.2644 62.8514 46.2644 59.2153V47.1292C51.8107 44.081 55.6695 37.485 55.6695 31.0016L55.6671 24.0742H55.6714V14.2945C55.6714 12.3251 56.4537 10.4363 57.8463 9.04372C59.2388 7.65111 61.1276 6.86871 63.097 6.86864H64.9887C66.9444 6.85535 68.8282 7.60478 70.2403 8.95783C71.6524 10.3109 72.4815 12.161 72.5517 14.1154C72.5745 15.1051 72.3994 16.0893 72.0366 17.0104C71.6739 17.9315 71.1308 18.7708 70.4394 19.4792C69.7479 20.1875 68.9219 20.7506 68.0098 21.1355C67.0977 21.5203 66.118 21.7191 65.1281 21.7202V27.6903C66.9042 27.6883 68.6623 27.3335 70.3001 26.6466C71.938 25.9596 73.4231 24.9541 74.6693 23.6885C75.9154 22.4228 76.8977 20.9223 77.5591 19.2739C78.2206 17.6256 78.548 15.8622 78.5224 14.0863C78.4101 6.73596 72.2758 0.898562 64.9247 0.898562Z" fill="#F25159"/>
<path id="Vector_2" d="M30.0015 19.2317V27.8822C30.0014 30.5491 30.8975 33.1386 32.5458 35.235L36.1236 39.7852C36.9478 40.8334 37.3958 42.1282 37.3958 43.4616V64.3794C37.3886 64.9871 37.6188 65.5737 38.0375 66.0144C38.4561 66.4551 39.0301 66.7151 39.6374 66.7391C39.941 66.7448 40.2426 66.6899 40.5247 66.5777C40.8068 66.4655 41.0637 66.2981 41.2803 66.0855C41.497 65.8728 41.6691 65.6191 41.7866 65.3392C41.9041 65.0592 41.9646 64.7587 41.9646 64.4551V43.4613C41.9646 42.1279 42.4126 40.8332 43.2368 39.7849L46.8146 35.2348C48.4629 33.1384 49.359 30.549 49.3589 27.8822V19.2317C49.3589 17.6543 48.7323 16.1415 47.6169 15.0261C46.5015 13.9107 44.9887 13.2841 43.4113 13.2841H35.9492C35.1681 13.284 34.3947 13.4379 33.6731 13.7368C32.9515 14.0357 32.2958 14.4738 31.7435 15.0261C31.1912 15.5783 30.7531 16.234 30.4542 16.9556C30.1553 17.6772 30.0015 18.4506 30.0015 19.2317Z" fill="#B41E1F"/>
<path id="Vector_3" d="M69.9582 31.3343C72.9567 29.6031 74.1845 26.1161 72.7006 23.546C71.2166 20.9759 67.583 20.2958 64.5845 22.027C61.586 23.7582 60.3582 27.2452 61.8421 29.8153C63.3261 32.3854 66.9597 33.0655 69.9582 31.3343Z" fill="#FFDEC7"/>
<path id="Vector_4" d="M17.5775 29.8168C19.0614 27.2466 17.8336 23.7597 14.8352 22.0285C11.8367 20.2972 8.20301 20.9773 6.71909 23.5475C5.23518 26.1176 6.46297 29.6045 9.46144 31.3358C12.4599 33.067 16.0936 32.3869 17.5775 29.8168Z" fill="#FFDEC7"/>
<path id="Vector_5" d="M64.9246 0.000202853H63.0968C59.3384 -0.00671995 55.7306 1.47691 53.0643 4.12583C52.005 5.18951 50.6533 5.91407 49.181 6.20733L48.4844 6.34105C42.7368 7.44912 36.8311 7.45555 31.0812 6.35999L30.25 6.2024C28.7715 5.9107 27.4137 5.18476 26.35 4.11738C23.6844 1.47364 20.0802 -0.0067681 16.3259 2.32638e-05H14.4982C6.62353 2.32638e-05 0.12057 6.31295 0.00229936 14.0725C-0.031838 15.9686 0.314445 17.8523 1.02068 19.6123C1.72692 21.3723 2.77879 22.9729 4.11412 24.3194C4.46846 24.6786 4.84116 25.0192 5.2307 25.3399C4.97842 27.8776 6.39393 30.6009 9.01359 32.1134C10.206 32.8113 11.561 33.1835 12.9427 33.1925C13.3826 33.193 13.8217 33.1526 14.2542 33.0718C15.1017 32.9328 15.9084 32.6094 16.6173 32.1245C17.3263 31.6396 17.9201 31.0051 18.357 30.2656C19.0701 29.0047 19.2829 27.5218 18.9533 26.1112C19.5589 24.0694 20.9381 22.3449 22.7967 21.3051L22.7931 31.0015C22.7931 37.5844 26.6364 44.3479 32.1983 47.6503V59.2153C32.1983 63.16 35.3485 67.5655 39.5802 67.6345C39.5939 67.635 39.6073 67.6372 39.6211 67.6375C39.6408 67.6378 39.6607 67.6378 39.6802 67.6378H39.6813C43.9631 67.6371 47.1624 63.1909 47.1624 59.2154V47.6504C52.7243 44.3479 56.5676 37.5843 56.5676 31.0012L56.5651 24.1612C56.5679 24.1327 56.5693 24.1037 56.5693 24.0741V21.2756C58.4565 22.3097 59.8584 24.0479 60.4694 26.1113C60.1398 27.5219 60.3527 29.0048 61.0657 30.2657C62.1593 32.1598 64.2373 33.1874 66.483 33.1874C67.8632 33.1799 69.2172 32.8095 70.4091 32.1135C72.0062 31.2149 73.2299 29.7754 73.8595 28.0544C74.172 27.1844 74.2873 26.256 74.1973 25.336C74.585 25.0165 74.956 24.6772 75.3089 24.3195C76.6442 22.973 77.696 21.3724 78.4023 19.6124C79.1085 17.8525 79.4548 15.9688 79.4207 14.0727C79.3022 6.31313 72.7992 0.000202853 64.9246 0.000202853ZM72.1649 27.4573C71.6776 28.7737 70.7365 29.873 69.5108 30.5572C66.9455 32.0383 63.8561 31.5041 62.622 29.3672C61.3879 27.2302 62.4711 24.2868 65.0357 22.8061C65.9546 22.266 66.9993 21.9767 68.0652 21.9674C68.3946 21.9671 68.7233 21.9973 69.0471 22.0576C69.6426 22.1406 70.2113 22.3584 70.7099 22.6943C71.2085 23.0303 71.6239 23.4755 71.9245 23.9962C72.2251 24.5168 72.403 25.0992 72.4447 25.699C72.4863 26.2987 72.3907 26.9001 72.1649 27.4573ZM73.4807 23.0978C72.8145 21.9556 71.7724 21.0803 70.5324 20.6214C70.7217 20.4589 70.9048 20.2876 71.0817 20.1075C71.8604 19.3158 72.4714 18.3752 72.8783 17.3421C73.2852 16.3089 73.4797 15.2043 73.45 14.0942C73.3441 9.61471 69.5483 5.97039 64.9888 5.97039H63.0971C60.8901 5.97285 58.7742 6.85064 57.2136 8.41121C55.653 9.97177 54.7752 12.0876 54.7727 14.2946V23.9876C54.7699 24.0163 54.7685 24.0455 54.7685 24.0746L54.7709 31.0017C54.7709 37.1409 51.0949 43.4489 45.8315 46.3422C45.6905 46.4196 45.5728 46.5335 45.4909 46.672C45.409 46.8104 45.3658 46.9683 45.3658 47.1292V59.2153C45.3382 60.2332 45.1012 61.2346 44.6697 62.1569C44.2382 63.0793 43.6213 63.9028 42.8575 64.5763C42.859 64.5357 42.8635 64.4956 42.8635 64.4547V43.4614C42.8652 42.3297 43.2454 41.2311 43.9435 40.3404L47.5213 35.79C49.2903 33.5333 50.2536 30.7497 50.2579 27.8823V19.2317C50.2558 17.4166 49.5339 15.6765 48.2504 14.393C46.967 13.1096 45.2268 12.3877 43.4118 12.3856H35.9493C34.1342 12.3877 32.3941 13.1096 31.1106 14.393C29.8272 15.6765 29.1052 17.4166 29.1032 19.2317V27.8823C29.1074 30.7498 30.0708 33.5334 31.8399 35.7901L35.4177 40.3405C36.1159 41.2312 36.4961 42.3298 36.4978 43.4615V64.3794C36.4978 64.447 36.5037 64.5132 36.5077 64.5799C35.7428 63.9063 35.125 63.0824 34.6928 62.1594C34.2605 61.2364 34.0232 60.2342 33.9957 59.2155V47.1292C33.9957 46.9683 33.9524 46.8104 33.8705 46.672C33.7886 46.5335 33.671 46.4196 33.5299 46.3422C28.2665 43.4489 24.5905 37.1409 24.5905 31.0021L24.5966 13.4159C24.5966 13.3805 24.5945 13.3451 24.5903 13.3099C24.3496 11.2871 23.3755 9.42286 21.8524 8.07018C20.3293 6.71751 18.363 5.97036 16.3259 5.97025H14.4342C9.87476 5.97025 6.07904 9.61453 5.97288 14.0941C5.94326 15.2042 6.13774 16.3089 6.5447 17.3421C6.95166 18.3754 7.56276 19.3159 8.34145 20.1077C8.51783 20.2883 8.70083 20.4595 8.89043 20.6213C7.65045 21.0803 6.60834 21.9557 5.94216 23.0978C5.8797 23.2059 5.8301 23.3182 5.77573 23.4289C5.64664 23.3082 5.51914 23.1852 5.39433 23.0585C4.22682 21.8813 3.30711 20.482 2.68956 18.9433C2.072 17.4046 1.76912 15.7578 1.79882 14.1001C1.90235 7.31614 7.59913 1.79708 14.4982 1.79708H16.3259C19.6079 1.79153 22.7585 3.08592 25.0887 5.39715C26.406 6.71506 28.0864 7.61012 29.9151 7.96787L30.7463 8.12546C36.7188 9.26323 42.8529 9.25656 48.8229 8.1058L49.5197 7.97207C51.3413 7.61236 53.0147 6.71872 54.3267 5.40492C56.6573 3.0889 59.8112 1.79149 63.0968 1.79711H64.9246C71.8234 1.79711 77.5204 7.31618 77.6241 14.1001C77.6538 15.7578 77.351 17.4047 76.7334 18.9433C76.1158 20.482 75.1961 21.8813 74.0286 23.0585C73.904 23.1851 73.7766 23.3079 73.6477 23.4286C73.5931 23.3178 73.5428 23.2055 73.4807 23.0978ZM38.2946 64.3792V43.4614C38.2923 41.9271 37.7768 40.4376 36.8302 39.23L33.2523 34.6796C31.7316 32.7398 30.9035 30.3471 30.8998 27.8823V19.2317C30.9013 17.893 31.4338 16.6096 32.3804 15.663C33.3269 14.7164 34.6104 14.184 35.949 14.1825H43.4113C44.75 14.184 46.0334 14.7164 46.98 15.663C47.9266 16.6096 48.459 17.893 48.4605 19.2317V27.8823C48.4568 30.3471 47.6288 32.7397 46.1083 34.6796L42.5307 39.2297C41.5839 40.4373 41.0684 41.9269 41.0661 43.4614V64.4547C41.0667 64.6389 41.0303 64.8214 40.959 64.9913C40.8877 65.1612 40.783 65.315 40.6511 65.4437C40.521 65.5748 40.3653 65.6776 40.1937 65.7459C40.0221 65.8142 39.8383 65.8465 39.6537 65.8406C39.2816 65.8216 38.9315 65.6584 38.6778 65.3855C38.424 65.1127 38.2866 64.7517 38.2946 64.3792ZM13.9236 31.3059C12.5399 31.5422 11.1173 31.2768 9.91203 30.5573C7.34728 29.0767 6.26459 26.1332 7.49836 23.9963C7.80712 23.4825 8.22477 23.0426 8.72188 22.7077C9.21899 22.3728 9.78349 22.1509 10.3756 22.0576C10.6995 21.9973 11.0282 21.9671 11.3576 21.9674C12.4235 21.9768 13.4682 22.2661 14.3871 22.8062C16.9517 24.2868 18.0344 27.2303 16.8008 29.3673C16.492 29.881 16.0744 30.3209 15.5772 30.6558C15.0801 30.9907 14.5157 31.2127 13.9236 31.3059ZM17.9795 23.8002C17.2966 22.7485 16.3732 21.8743 15.2856 21.25C15.1465 21.1697 15.0037 21.0999 14.8616 21.0284C14.7451 20.9316 14.606 20.8662 14.4572 20.8382C13.5174 20.4223 12.5044 20.1971 11.477 20.1756C10.3425 19.6337 9.38899 18.7753 8.73118 17.7039C8.07337 16.6325 7.73937 15.3938 7.7694 14.1369C7.83892 12.4187 8.5725 10.7945 9.81566 9.60634C11.0588 8.4182 12.7145 7.75885 14.4342 7.76712H16.326C17.9142 7.76719 19.4478 8.34644 20.6395 9.3963C21.8312 10.4462 22.5992 11.8946 22.7994 13.4701L22.7974 19.3274C20.712 20.2002 19.0045 21.7854 17.9795 23.8002ZM56.5695 19.3062V14.2945C56.5714 12.5639 57.2598 10.9047 58.4835 9.68102C59.7073 8.45732 61.3665 7.76902 63.097 7.76712H64.9887C66.7083 7.75881 68.364 8.41816 69.6072 9.6063C70.8503 10.7944 71.5839 12.4187 71.6534 14.1369C71.6835 15.3937 71.3496 16.6325 70.6918 17.7039C70.034 18.7753 69.0805 19.6337 67.9461 20.1756C66.9186 20.1971 65.9056 20.4223 64.9658 20.8382C64.8171 20.8661 64.678 20.9315 64.5616 21.0282C64.4194 21.0998 64.2764 21.1697 64.1372 21.25C63.0496 21.8743 62.1263 22.7485 61.4434 23.8002C60.4094 21.7669 58.6799 20.1723 56.5695 19.3062Z" fill="black"/>
</g>
</svg>
