<svg width="66" height="66" viewBox="0 0 66 66" fill="none" xmlns="http://www.w3.org/2000/svg">
<g id="hair-transplant 1" clip-path="url(#clip0_29_292)">
<g id="Group">
<g id="Group_2">
<path id="Vector" d="M63.0067 29.74L42.9858 27.7072C41.6594 27.5729 40.5061 28.6138 40.5061 29.948V33.8096L45.6875 38.7579H61.6335L65.0318 36.2996V31.9808C65.0318 30.8249 64.1562 29.8563 63.0067 29.74Z" fill="#EFB4B2"/>
<path id="Vector_2" d="M23.014 27.7072L2.9931 29.74C1.84366 29.8563 0.968018 30.8249 0.968018 31.9808V36.2996L6.12345 40.2202L25.4937 33.8096V29.948C25.4937 28.6138 24.3404 27.5729 23.014 27.7072Z" fill="#EFB4B2"/>
<g id="Group_3">
<path id="Vector_3" d="M6.3155 32.5195V29.4026L2.9931 29.7399C1.84366 29.8562 0.968018 30.8248 0.968018 31.9807V36.2995L6.12345 40.2201L6.3155 40.1566V32.5195Z" fill="#EA9A98"/>
<g id="XMLID_249_">
<path id="Vector_4" d="M65.0319 36.2996V58.529C65.0319 60.3656 63.5428 61.8547 61.705 61.8547H4.29494C2.45712 61.8547 0.968018 60.3656 0.968018 58.529V36.2996L25.4937 33.8096V34.3223C25.4937 35.4485 25.083 36.5256 24.3688 37.3961C22.779 39.3347 21.8246 41.8156 21.8246 44.5201C21.8246 50.78 26.9428 55.8466 33.2247 55.7588C39.2999 55.6748 44.3549 50.501 44.3045 44.4258C44.2826 41.6878 43.2804 39.1849 41.6337 37.2463C40.9053 36.3875 40.5062 35.2974 40.5062 34.1712V33.8096L65.0319 36.2996Z" fill="#EA9A98"/>
</g>
<g id="Group_4">
<path id="Vector_5" d="M9.64242 58.0745C7.80461 58.0745 6.3155 56.5854 6.3155 54.7489V35.7567L0.968018 36.2996V58.529C0.968018 60.3655 2.45712 61.8547 4.29494 61.8547H61.705C63.5428 61.8547 65.0319 60.3655 65.0319 58.529V58.0745H9.64242Z" fill="#E5827F"/>
</g>
<path id="Vector_6" d="M37.1676 39.3394C36.7979 39.0463 36.5888 38.5949 36.5822 38.123L36.2811 16.4711C36.2496 9.79686 30.9164 4.35755 24.2439 4.19482L22.2218 4.14549C21.9124 4.138 21.7986 4.54921 22.068 4.70187L24.3649 6.00254C28.812 8.52072 31.4383 13.3501 31.1351 18.4515L29.9719 37.8755C29.943 38.358 29.702 38.8077 29.3047 39.0829C27.5689 40.2856 26.4368 42.2981 26.4551 44.574C26.4846 48.2273 29.4112 51.1292 33.0645 51.1291C36.7148 51.1291 39.6741 48.1699 39.6741 44.5194C39.6742 42.4198 38.6943 40.5498 37.1676 39.3394Z" fill="#A59CA6"/>
</g>
</g>
<g id="Group_5">
<path id="Vector_7" d="M63.1046 28.7761L43.0839 26.7436C42.1788 26.6518 41.2736 26.9487 40.5993 27.5582C39.9246 28.1678 39.5377 29.0388 39.5377 29.948V34.1706C39.5377 35.5277 40.0201 36.8427 40.896 37.8734C42.4498 39.7021 43.3164 42.0318 43.3361 44.4335C43.3815 49.9706 38.7447 54.7135 33.2111 54.7904C31.5183 54.8097 29.9016 54.4387 28.4051 53.6755C27.9284 53.4324 27.3452 53.6218 27.1021 54.0984C26.8591 54.5749 27.0484 55.1583 27.525 55.4014C29.2797 56.2963 31.2496 56.7533 33.2378 56.7274C36.4335 56.6829 39.458 55.365 41.754 53.016C44.0495 50.6676 45.2993 47.614 45.2733 44.4176C45.2497 41.5629 44.2195 38.7931 42.3721 36.619C41.9498 36.122 41.6669 35.5243 41.5443 34.8886L54.3665 36.1903C54.3998 36.1937 54.4329 36.1954 54.4656 36.1954C54.9566 36.1954 55.3775 35.8234 55.4281 35.3245C55.4821 34.7923 55.0945 34.317 54.5623 34.2629L41.4749 32.9343V29.948C41.4749 29.5803 41.6251 29.2422 41.8979 28.9956C42.1705 28.7492 42.5223 28.6337 42.8881 28.6711L62.9088 30.7035C63.5667 30.7703 64.0627 31.3193 64.0627 31.9806V35.2274L58.6902 34.682C58.1572 34.627 57.6826 35.0157 57.6286 35.5478C57.5746 36.0801 57.9622 36.5553 58.4944 36.6094L64.0626 37.1747V58.5285C64.0626 59.8284 63.0051 60.8862 61.7051 60.8862H4.29478C2.99488 60.8862 1.93726 59.8285 1.93726 58.5285V37.1747L24.48 34.8862C24.3736 35.5659 24.0781 36.2235 23.6205 36.7816C21.8374 38.9555 20.8555 41.7035 20.8555 44.5195C20.8555 47.5307 21.9618 50.4235 23.9709 52.6649C24.3279 53.0631 24.9403 53.0968 25.3387 52.7397C25.737 52.3826 25.7706 51.7703 25.4135 51.3719C23.7234 49.4863 22.7928 47.0528 22.7928 44.5194C22.7928 42.1503 23.6187 39.8385 25.1184 38.0101C25.9851 36.9535 26.4623 35.6442 26.4623 34.3228V29.9479C26.4623 29.0386 26.0754 28.1676 25.4007 27.558C24.7262 26.9486 23.8217 26.6519 22.9161 26.7435L2.89543 28.7761C1.24475 28.9438 0 30.3214 0 31.9806V58.5285C0 60.8967 1.92667 62.8234 4.29478 62.8234H61.7052C64.0733 62.8234 66 60.8967 66 58.5285V31.9806C66 30.3214 64.7554 28.9438 63.1046 28.7761ZM3.09122 30.7035L23.1119 28.6711C23.4771 28.6332 23.8292 28.7491 24.1021 28.9956C24.3749 29.2422 24.5251 29.5803 24.5251 29.948V32.9343L1.93726 35.2274V31.9806C1.93726 31.3192 2.43333 30.7702 3.09122 30.7035Z" fill="black"/>
<path id="Vector_8" d="M21.5909 5.54458L23.8879 6.84525C25.912 7.99146 27.5693 9.6774 28.6805 11.7208C29.7919 13.7644 30.3064 16.0718 30.1685 18.3934L30.0445 20.4637C30.0124 20.9977 30.4194 21.4566 30.9534 21.4885C31.4882 21.5237 31.9463 21.1134 31.9782 20.5795L32.1022 18.5088C32.2617 15.8247 31.6671 13.1574 30.3826 10.7953C29.1112 8.45757 27.2219 6.52483 24.915 5.20091C27.6259 5.43041 30.1418 6.61149 32.0615 8.56916C34.1441 10.6932 35.2987 13.5012 35.3129 16.4845L35.614 38.1364C35.6247 38.9121 35.9718 39.6271 36.5661 40.0983C37.9258 41.1765 38.7057 42.7878 38.7057 44.5193C38.7057 47.6297 36.1751 50.1603 33.0647 50.1603C29.9269 50.1603 27.4493 47.7031 27.4239 44.566C27.4088 42.697 28.3181 40.9449 29.8564 39.879C30.4968 39.4354 30.8913 38.7262 30.939 37.9332L31.7277 24.7616C31.7597 24.2275 31.3528 23.7686 30.8187 23.7367C30.2848 23.7008 29.8258 24.1117 29.7939 24.6457L29.0052 37.8171C28.9936 38.0097 28.8994 38.1853 28.7531 38.2866C26.6875 39.7178 25.4663 42.0712 25.4866 44.5817C25.503 46.6058 26.2959 48.4978 27.719 49.9091C29.142 51.3205 31.0405 52.0976 33.0647 52.0976C37.2433 52.0976 40.643 48.6981 40.643 44.5193C40.643 42.1926 39.5957 40.0281 37.7696 38.5803C37.6353 38.4739 37.5535 38.2977 37.551 38.1094L37.25 16.4665C37.2336 12.9849 35.8822 9.69871 33.4448 7.21294C31.0073 4.72705 27.7483 3.3113 24.2677 3.22632L22.2457 3.17711C22.2351 3.17686 22.2247 3.17673 22.2143 3.17673C21.6455 3.17673 21.1466 3.55488 20.9944 4.10545C20.8393 4.66622 21.0846 5.25799 21.5909 5.54458Z" fill="black"/>
<path id="Vector_9" d="M51.0291 21.9636C51.2156 22.1398 51.4549 22.228 51.6939 22.228C51.933 22.228 52.1723 22.1398 52.3588 21.9636L54.3537 20.0802C54.7427 19.713 54.7602 19.1 54.393 18.711C54.0259 18.3216 53.4127 18.3044 53.0238 18.6716L52.6649 19.0103L52.6726 13.8128C52.6734 13.2779 52.2404 12.8435 51.7054 12.8427H51.704C51.1697 12.8427 50.7361 13.2755 50.7354 13.81L50.7276 19.015L50.3638 18.6716C49.9748 18.304 49.3616 18.3218 48.9945 18.711C48.6272 19.1 48.6449 19.713 49.0339 20.0802L51.0291 21.9636Z" fill="black"/>
<path id="Vector_10" d="M13.7703 21.9636C13.9568 22.1398 14.1961 22.228 14.4351 22.228C14.6742 22.228 14.9135 22.1398 15.1 21.9636L17.0949 20.0802C17.4839 19.713 17.5014 19.1 17.1343 18.711C16.7671 18.3216 16.1539 18.3044 15.765 18.6716L15.4012 19.015L15.3934 13.81C15.3927 13.2754 14.9591 12.8427 14.4248 12.8427H14.4234C13.8883 12.8435 13.4554 13.2779 13.4562 13.8128L13.4639 19.0103L13.105 18.6716C12.716 18.304 12.1028 18.3218 11.7358 18.711C11.3685 19.1 11.3861 19.713 11.7751 20.0802L13.7703 21.9636Z" fill="black"/>
<path id="Vector_11" d="M17.3988 43.8627C17.3988 43.3276 16.9652 42.894 16.4301 42.894H15.0504C14.5153 42.894 14.0818 43.3276 14.0818 43.8627C14.0818 44.3977 14.5153 44.8313 15.0504 44.8313H16.4301C16.9651 44.8313 17.3988 44.3976 17.3988 43.8627Z" fill="black"/>
<path id="Vector_12" d="M16.4301 56.1909H17.8099C18.345 56.1909 18.7785 55.7573 18.7785 55.2223C18.7785 54.6872 18.345 54.2536 17.8099 54.2536H16.4301C15.895 54.2536 15.4614 54.6872 15.4614 55.2223C15.4614 55.7573 15.895 56.1909 16.4301 56.1909Z" fill="black"/>
<path id="Vector_13" d="M7.22156 49.6493C6.68649 49.6493 6.25293 50.0828 6.25293 50.6179C6.25293 51.153 6.68649 51.5865 7.22156 51.5865H8.60128C9.13635 51.5865 9.56991 51.153 9.56991 50.6179C9.56991 50.0828 9.13635 49.6493 8.60128 49.6493H7.22156Z" fill="black"/>
<path id="Vector_14" d="M51.0788 44.8313C51.6139 44.8313 52.0474 44.3977 52.0474 43.8627C52.0474 43.3276 51.6139 42.894 51.0788 42.894H49.6991C49.164 42.894 48.7305 43.3276 48.7305 43.8627C48.7305 44.3977 49.164 44.8313 49.6991 44.8313H51.0788Z" fill="black"/>
<path id="Vector_15" d="M47.3508 55.2223C47.3508 55.7573 47.7844 56.1909 48.3195 56.1909H49.6993C50.2344 56.1909 50.6679 55.7573 50.6679 55.2223C50.6679 54.6872 50.2344 54.2536 49.6993 54.2536H48.3195C47.7844 54.2536 47.3508 54.6872 47.3508 55.2223Z" fill="black"/>
<path id="Vector_16" d="M58.9077 51.5865C59.4427 51.5865 59.8763 51.153 59.8763 50.6179C59.8763 50.0828 59.4427 49.6493 58.9077 49.6493H57.528C56.9929 49.6493 56.5593 50.0828 56.5593 50.6179C56.5593 51.153 56.9929 51.5865 57.528 51.5865H58.9077Z" fill="black"/>
</g>
</g>
</g>
<defs>
<clipPath id="clip0_29_292">
<rect width="66" height="66" fill="white"/>
</clipPath>
</defs>
</svg>
