<svg width="69" height="69" viewBox="0 0 69 69" fill="none" xmlns="http://www.w3.org/2000/svg">
<g id="pelvic-exam 1" clip-path="url(#clip0_31_62)">
<path id="Vector" d="M60.6349 57.4L66.9582 63.7233C68.1249 64.89 68.1249 66.7917 66.9582 67.9583C66.3749 68.5417 65.6049 68.8333 64.8349 68.8333C64.0766 68.8333 63.3066 68.5417 62.7232 67.9583L56.3999 61.635L60.6349 57.4Z" fill="#934343"/>
<path id="Vector_2" d="M42.1667 35C42.1667 32.025 42.0151 29.9833 41.8167 28.5833C41.5601 26.775 42.0617 24.9317 43.2751 23.5667C44.9784 21.6533 45.9467 18.375 46.6234 13.6033C46.8684 11.8417 48.3267 10.5 50.1117 10.5H60.8217C61.8601 10.5 62.8517 11.1533 63.0967 12.1567C63.3651 13.2533 62.8051 14.3383 61.8251 14.7583C60.2501 15.4233 57.2634 16.3333 52.6667 16.3333V21C57.9517 21 61.5567 19.9383 63.6451 19.0517C66.1884 17.9783 67.8334 15.4933 67.8334 12.7167C67.8334 8.92499 64.7417 5.83332 60.9501 5.83332H50.1117C42.8901 5.83332 42.1667 1.16666 34.0001 1.16666C29.9167 1.16666 27.7001 2.33332 25.5884 3.49999C23.4884 4.66666 21.4934 5.83332 17.8884 5.83332H7.05008C3.25841 5.83332 0.166748 8.92499 0.166748 12.7167C0.166748 15.4933 1.81175 17.9783 4.35508 19.0517C6.44341 19.9383 10.0484 21 15.3334 21V16.3333C10.7367 16.3333 7.75008 15.4233 6.17508 14.7583C5.19508 14.3383 4.63508 13.2533 4.90341 12.1567C5.14841 11.1533 6.14008 10.5 7.17841 10.5H17.8884C19.6734 10.5 21.1317 11.8417 21.3767 13.6033C22.0534 18.375 23.0217 21.6533 24.7251 23.5667C25.9384 24.9317 26.4401 26.775 26.1834 28.5833C25.9851 29.9833 25.8334 32.025 25.8334 35C25.8334 43.1667 28.1667 46.6667 28.1667 51.3333V54.8333C28.1667 56.7583 29.7417 58.3333 31.6667 58.3333H36.0534L42.1667 35Z" fill="#F9536B"/>
<path id="Vector_3" d="M33.9125 35C31.9875 35 30.4801 33.3842 30.5921 31.479C30.6516 30.4757 30.731 29.7453 30.8033 29.2367C31.2583 26.0283 30.3133 22.8317 28.2133 20.4633C27.5833 19.7633 26.6966 17.8967 25.9966 12.9617C25.9943 12.9477 25.9931 12.9337 25.9908 12.9208C25.6256 10.3262 26.902 7.73967 29.3438 6.78767C30.7321 6.24634 32.3165 5.8345 34 5.8345C35.6251 5.8345 37.1255 6.19384 38.4426 6.6815C40.9825 7.62184 42.3895 10.2212 42.0091 12.9033C42.0068 12.9197 42.0045 12.9348 42.0021 12.9512C41.3021 17.8978 40.4155 19.7645 39.7855 20.4645C37.6855 22.8328 36.7405 26.0295 37.1955 29.2378C37.2655 29.729 37.3413 30.4255 37.3996 31.3752C37.5198 33.3352 35.9623 35.0012 33.9988 35.0012H33.9113L33.9125 35Z" fill="#D84964"/>
<path id="Vector_4" d="M47.9999 64.1667C56.3762 64.1667 63.1666 57.3763 63.1666 49C63.1666 40.6237 56.3762 33.8333 47.9999 33.8333C39.6236 33.8333 32.8333 40.6237 32.8333 49C32.8333 57.3763 39.6236 64.1667 47.9999 64.1667Z" fill="#598CFC"/>
<path id="Vector_5" d="M15.3333 21C16.622 21 17.6667 19.9553 17.6667 18.6667C17.6667 17.378 16.622 16.3333 15.3333 16.3333C14.0447 16.3333 13 17.378 13 18.6667C13 19.9553 14.0447 21 15.3333 21Z" fill="#FFA6B7"/>
<path id="Vector_6" d="M52.6666 21C53.9552 21 54.9999 19.9553 54.9999 18.6667C54.9999 17.378 53.9552 16.3333 52.6666 16.3333C51.3779 16.3333 50.3333 17.378 50.3333 18.6667C50.3333 19.9553 51.3779 21 52.6666 21Z" fill="#FFA6B7"/>
<g id="Group">
<path id="Vector_7" d="M61.3712 13.6838C59.7682 14.3593 56.9565 15.1667 52.6667 15.1667C50.737 15.1667 49.1667 16.737 49.1667 18.6667C49.1667 20.5963 50.737 22.1667 52.6667 22.1667C58.143 22.1667 61.9078 21.0572 64.0988 20.1262C67.0762 18.8708 69 15.9623 69 12.7167C69 8.2775 65.388 4.66667 60.95 4.66667H50.1117C46.915 4.66667 45.179 3.703 43.1712 2.58767C40.986 1.3755 38.5115 0 34 0C29.4885 0 27.0233 1.37433 25.0225 2.48033L24.8487 2.57717C22.8327 3.69833 21.092 4.66667 17.8895 4.66667H7.05C2.612 4.66667 -1 8.27867 -1 12.7167C-1 15.9612 0.923833 18.8697 3.89883 20.1262C6.09217 21.0572 9.85583 22.1667 15.3333 22.1667C17.263 22.1667 18.8333 20.5963 18.8333 18.6667C18.8333 16.737 17.263 15.1667 15.3333 15.1667C11.0435 15.1667 8.23183 14.3605 6.63467 13.6862C6.161 13.482 5.909 12.9558 6.03617 12.4332C6.14233 11.9957 6.6335 11.6667 7.17833 11.6667H17.8895C19.0725 11.6667 20.0525 12.5487 20.2217 13.7678C20.9893 19.1823 22.0767 22.3452 23.8535 24.3413C24.8137 25.4228 25.2418 26.9092 25.0283 28.4188C24.7892 30.1128 24.6667 32.3272 24.6667 35C24.6667 39.7892 25.432 42.9625 26.1075 45.7637C26.5858 47.7493 27 49.4632 27 51.3333V54.8333C27 57.407 29.093 59.5 31.6667 59.5H35.5073C38.5057 63.0618 42.9903 65.3333 48 65.3333C50.9948 65.3333 53.796 64.5097 56.211 63.0957L61.8985 68.7832C62.672 69.5567 63.7418 70 64.835 70C65.9515 70 66.998 69.5683 67.7832 68.7832C69.406 67.1603 69.406 64.5213 67.7832 62.8985L62.0957 57.211C63.5085 54.7948 64.3333 51.9948 64.3333 49C64.3333 44.5095 62.5483 40.3235 59.3073 37.2132C58.8418 36.7675 58.1045 36.7815 57.6577 37.247C57.212 37.7113 57.2272 38.4498 57.6915 38.8967C60.4693 41.5625 61.9988 45.15 61.9988 48.9988C61.9988 56.7187 55.7187 62.9988 47.9988 62.9988C40.279 62.9988 33.9988 56.7187 33.9988 48.9988C33.9988 41.279 40.279 34.9988 47.9988 34.9988C50.247 34.9988 52.4812 35.5448 54.4598 36.5762C55.0303 36.8748 55.735 36.6508 56.0337 36.0803C56.3312 35.5098 56.1095 34.804 55.5378 34.5065C53.2278 33.3025 50.6203 32.6655 47.9988 32.6655C46.3702 32.6655 44.7987 32.9128 43.3123 33.3585C43.2715 31.4137 43.1583 29.75 42.9705 28.4177C42.7558 26.908 43.1852 25.4217 44.1453 24.3413C45.9222 22.3428 47.0095 19.18 47.7772 13.7632C47.9475 12.5475 48.9263 11.6655 50.1093 11.6655H60.8205C61.3653 11.6655 61.8565 11.9945 61.9627 12.432C62.0898 12.9547 61.839 13.4808 61.37 13.6827L61.3712 13.6838ZM60.7575 59.171L66.1335 64.547C66.8452 65.2598 66.8452 66.4183 66.1335 67.1323C65.4557 67.8102 64.2388 67.8195 63.5482 67.1323L58.1722 61.7563C59.1277 60.9933 59.9945 60.1265 60.7575 59.171ZM51.5 18.6655C51.5 18.0215 52.0227 17.4988 52.6667 17.4988C53.3107 17.4988 53.8333 18.0215 53.8333 18.6655C53.8333 19.3095 53.3107 19.8322 52.6667 19.8322C52.0227 19.8322 51.5 19.3095 51.5 18.6655ZM16.5 18.6655C16.5 19.3095 15.9773 19.8322 15.3333 19.8322C14.6893 19.8322 14.1667 19.3095 14.1667 18.6655C14.1667 18.0215 14.6893 17.4988 15.3333 17.4988C15.9773 17.4988 16.5 18.0215 16.5 18.6655ZM64.2307 11.879C63.8702 10.4032 62.4363 9.33217 60.8217 9.33217H50.1105C47.7515 9.33217 45.7985 11.06 45.4683 13.4388C44.7788 18.2992 43.8338 21.1843 42.4035 22.792C40.986 24.3857 40.3513 26.5568 40.6617 28.7467C40.8635 30.1735 40.9708 32.0425 40.9918 34.2685C35.4875 36.8982 31.6667 42.504 31.6667 48.9988C31.6667 51.975 32.4798 54.7598 33.8763 57.1655H31.6667C30.3798 57.1655 29.3333 56.119 29.3333 54.8322V51.3322C29.3333 49.1843 28.869 47.257 28.3767 45.2153C27.7315 42.5413 27 39.5103 27 34.9988C27 32.4357 27.1143 30.331 27.3383 28.7467C27.6487 26.5557 27.014 24.3857 25.5965 22.7908C24.1662 21.1843 23.2212 18.2992 22.5317 13.4423C22.2015 11.0612 20.2485 9.33333 17.8895 9.33333H7.17833C5.56367 9.33333 4.12983 10.4043 3.76933 11.8802C3.37033 13.5147 4.18817 15.1772 5.72233 15.834C7.07217 16.4033 9.16633 17.0543 12.097 17.346C11.9302 17.7543 11.8333 18.2 11.8333 18.6678C11.8333 19.0213 11.9022 19.355 11.999 19.677C8.7055 19.362 6.33133 18.6247 4.80767 17.9783C2.696 17.087 1.33217 15.022 1.33217 12.7178C1.33217 9.5655 3.8965 7.00117 7.04883 7.00117H17.8872C21.6963 7.00117 23.8745 5.789 25.9815 4.6165L26.1518 4.522C28.099 3.44633 30.1115 2.3345 34 2.3345C37.8885 2.3345 39.9127 3.44867 42.0383 4.62933C44.1383 5.79483 46.3095 7.00117 50.1117 7.00117H60.95C64.1023 7.00117 66.6667 9.5655 66.6667 12.7178C66.6667 15.022 65.3028 17.087 63.19 17.9783C61.6675 18.6247 59.2957 19.362 56.001 19.677C56.099 19.355 56.1667 19.0213 56.1667 18.6678C56.1667 18.2 56.071 17.7543 55.903 17.346C58.8337 17.0543 60.929 16.4033 62.2835 15.8317C63.8118 15.1772 64.6297 13.5147 64.2307 11.879Z" fill="#262626"/>
<path id="Vector_8" d="M38.8486 5.58716C35.5189 4.35049 32.3981 4.34699 28.9191 5.70033C26.0584 6.81566 24.3784 9.85249 24.8404 13.1262C25.4459 17.3892 26.2661 20.0445 27.3406 21.2368C29.2131 23.3508 30.0542 26.2068 29.6482 29.071C29.5561 29.7243 29.4802 30.5095 29.4289 31.4102C29.3566 32.641 29.7976 33.8613 30.6434 34.7573C31.4997 35.6662 32.6606 36.1667 33.9136 36.1667H34.0011C35.2552 36.1667 36.4674 35.6417 37.3296 34.7258C38.1929 33.8077 38.6444 32.5605 38.5674 31.3017C38.5161 30.4593 38.4449 29.7103 38.3539 29.0722C37.9467 26.2068 38.7879 23.3508 40.6557 21.2438C41.7372 20.0445 42.5562 17.3845 43.1664 13.0655C43.6319 9.77666 41.8586 6.70133 38.8509 5.58716H38.8486ZM40.8482 12.7855C40.1272 17.878 39.2592 19.306 38.9139 19.6898C36.5852 22.316 35.5376 25.8557 36.0416 29.3988C36.1221 29.9752 36.1886 30.6635 36.2364 31.4452C36.2749 32.0717 36.0591 32.669 35.6286 33.1263C35.2004 33.5825 34.6229 33.8322 33.9999 33.8322H33.9124C33.3092 33.8322 32.7516 33.5918 32.3397 33.1555C31.9279 32.7192 31.7214 32.1475 31.7564 31.5467C31.8066 30.7102 31.8742 29.988 31.9582 29.3988C32.4622 25.8545 31.4146 22.3148 29.0801 19.6817C28.7406 19.3048 27.8726 17.8792 27.1457 12.7552C26.8412 10.6003 27.9204 8.59366 29.7672 7.87149C31.2769 7.28349 32.6606 6.99766 33.9999 6.99766C35.2937 6.99766 36.6517 7.25899 38.0377 7.77233C40.0071 8.50266 41.1656 10.5432 40.8482 12.7832V12.7855Z" fill="#262626"/>
<path id="Vector_9" d="M44.1581 41.6582C44.6142 41.202 44.6142 40.4647 44.1581 40.0085C43.7019 39.5523 42.9646 39.5523 42.5084 40.0085L39.0084 43.5085C38.5522 43.9647 38.5522 44.702 39.0084 45.1582C39.2359 45.3857 39.5346 45.5 39.8332 45.5C40.1319 45.5 40.4306 45.3857 40.6581 45.1582L44.1581 41.6582Z" fill="#262626"/>
<path id="Vector_10" d="M41 51.3333C41.2986 51.3333 41.5973 51.219 41.8248 50.9915L51.1581 41.6582C51.6143 41.202 51.6143 40.4647 51.1581 40.0085C50.702 39.5523 49.9646 39.5523 49.5085 40.0085L40.1751 49.3418C39.719 49.798 39.719 50.5353 40.1751 50.9915C40.4026 51.219 40.7013 51.3333 41 51.3333Z" fill="#262626"/>
</g>
</g>
<defs>
<clipPath id="clip0_31_62">
<rect width="70" height="70" fill="white" transform="translate(-1)"/>
</clipPath>
</defs>
</svg>
