<svg width="70" height="65" viewBox="0 0 70 65" fill="none" xmlns="http://www.w3.org/2000/svg">
<g id="Group">
<g id="Group_2">
<g id="Group_3">
<path id="Vector" d="M17.8535 12.3054C19.1098 10.9918 20.5488 9.91606 22.1135 9.1014L19.0597 7.93968C18.8469 7.85877 18.6785 7.69122 18.5965 7.47876L16.5779 2.24531C16.3139 1.56093 15.3455 1.56093 15.0816 2.24531L13.0622 7.48083C12.9808 7.69202 12.8138 7.85893 12.6026 7.94048L7.36705 9.95986C6.68266 10.2238 6.68266 11.1923 7.36705 11.4564L12.6005 13.4749C12.813 13.5568 12.9805 13.7253 13.0614 13.9379L14.4558 17.6032C15.2203 15.6598 16.3653 13.8618 17.8535 12.3054Z" fill="#FFE177"/>
<g id="Group_4">
<g id="Group_5">
<path id="Vector_2" d="M48.247 7.12982C44.7518 7.10402 41.5095 8.17574 38.8394 10.0177C36.053 8.09579 32.6438 7.01228 28.9741 7.13954C20.1456 7.44581 13.1057 14.8135 13.1815 23.647C13.2188 27.9911 14.9491 31.9297 17.7436 34.8391C19.735 36.9123 21.2133 39.4229 21.9589 42.1991L26.891 60.5651C27.6053 63.2249 31.3897 63.1948 32.0617 60.524L35.4837 46.9229C36.3572 43.4511 41.2894 43.4484 42.1667 46.9192L45.6048 60.5213C46.2798 63.1918 50.065 63.2171 50.7757 60.5561L55.667 42.2416C56.4095 39.4617 57.8925 36.9499 59.8934 34.8819C62.6967 31.9848 64.4402 28.0569 64.4965 23.7201C64.6134 14.6915 57.2758 7.19655 48.247 7.12982Z" fill="#F9F3F1"/>
<g id="Group_6">
<path id="Vector_3" d="M29.1129 46.9227L26.2661 58.2377L26.8911 60.565C27.6054 63.2248 31.3898 63.1947 32.0618 60.5239L35.4838 46.9227C35.5261 46.7552 35.5802 46.5984 35.6404 46.447C34.4529 43.4591 29.9444 43.6172 29.1129 46.9227Z" fill="#EFE2DD"/>
<path id="Vector_4" d="M48.2469 7.12982C47.111 7.12138 46.0025 7.2308 44.9309 7.44294C52.5018 8.95155 58.229 15.7355 58.1254 23.72C58.0692 28.0566 56.3257 31.9845 53.5224 34.8818C51.5215 36.9496 50.0385 39.4614 49.296 42.2413L45.0257 58.2307L45.6046 60.5212C46.2796 63.1916 50.0648 63.217 50.7755 60.5559L55.6668 42.2415C56.4093 39.4616 57.8923 36.9497 59.8932 34.8819C62.6965 31.9848 64.44 28.0567 64.4962 23.7201C64.6133 14.6915 57.2757 7.19655 48.2469 7.12982Z" fill="#EFE2DD"/>
</g>
</g>
</g>
<path id="Vector_5" d="M58.0481 26.8622L60.5206 33.2722C60.6024 33.4847 60.7708 33.6522 60.9837 33.7331L67.4837 36.2058C68.1727 36.468 68.1727 37.4427 67.4837 37.7048L60.9858 40.1767C60.7717 40.2581 60.6027 40.4271 60.5214 40.6411L58.0495 47.139C57.7873 47.828 56.8126 47.828 56.5504 47.139L54.0778 40.6391C53.9969 40.4263 53.8293 40.2579 53.6169 40.1759L47.2069 37.7034C46.5225 37.4393 46.5225 36.471 47.2069 36.2071L53.6189 33.7338C53.8301 33.6522 53.997 33.4853 54.0786 33.2741L56.5519 26.8621C56.8156 26.1777 57.7842 26.1777 58.0481 26.8622Z" fill="#FFE177"/>
<g id="Group_7">
<path id="Vector_6" d="M67.4832 36.2057L63.0432 34.5167L57.9651 36.4485C57.5401 36.6101 57.2044 36.9457 57.0427 37.3708L54.9385 42.9024L56.5501 47.1388C56.8123 47.8278 57.787 47.8278 58.0492 47.1388L60.521 40.6409C60.6024 40.4269 60.7714 40.2579 60.9855 40.1765L67.4832 37.7046C68.1724 37.4426 68.1724 36.4679 67.4832 36.2057Z" fill="#FFD15B"/>
</g>
</g>
</g>
<g id="Group_8">
<path id="Vector_7" d="M26.153 7.485C18.6928 9.07196 13.1137 15.7777 13.1813 23.6469C13.2185 27.991 14.9488 31.9296 17.7434 34.8389C19.7347 36.9121 21.2131 39.4227 21.9586 42.1989L26.8907 60.565C27.6051 63.2248 31.3895 63.1947 32.0614 60.5239L35.4835 46.9227C36.3569 43.451 41.2892 43.4483 42.1664 46.9191L45.6046 60.5212C46.2796 63.1916 50.0648 63.217 50.7755 60.5559L55.2627 43.7545L54.0776 40.6391C53.9967 40.4263 53.8291 40.2579 53.6167 40.1761L47.2067 37.7036C46.5223 37.4396 46.5223 36.4711 47.2067 36.2072L53.6187 33.7339C53.8299 33.6525 53.9968 33.4855 54.0784 33.2743L56.5517 26.8622C56.8158 26.1778 57.7841 26.1778 58.048 26.8622L60.5205 33.2722C60.5949 33.4649 60.7424 33.6172 60.9278 33.7048C63.1197 30.9596 64.4475 27.4947 64.4965 23.72C64.6136 14.6915 57.2761 7.19672 48.2472 7.12982C44.752 7.10386 41.5098 8.17575 38.8396 10.0177C36.7647 8.58651 34.3441 7.62117 31.7281 7.27365" stroke="black" stroke-width="3" stroke-miterlimit="10" stroke-linecap="round" stroke-linejoin="round"/>
<path id="Vector_8" d="M36.9683 8.89963C39.3224 10.097 41.3483 11.8469 42.8753 13.9786" stroke="black" stroke-width="3" stroke-miterlimit="10" stroke-linecap="round" stroke-linejoin="round"/>
<path id="Vector_9" d="M22.9731 21.8982C22.9731 26.9855 27.0896 31.1021 32.177 31.1021" stroke="black" stroke-width="3" stroke-miterlimit="10" stroke-linecap="round" stroke-linejoin="round"/>
<g id="Group_9">
<path id="Vector_10" d="M6.44922 32.4478V40.9062" stroke="black" stroke-width="3" stroke-miterlimit="10" stroke-linecap="round" stroke-linejoin="round"/>
<path id="Vector_11" d="M10.6783 36.6769H2.21997" stroke="black" stroke-width="3" stroke-miterlimit="10" stroke-linecap="round" stroke-linejoin="round"/>
</g>
<g id="Group_10">
<path id="Vector_12" d="M53.2344 15.3273V22.8953" stroke="black" stroke-width="3" stroke-miterlimit="10" stroke-linecap="round" stroke-linejoin="round"/>
<path id="Vector_13" d="M57.0182 19.1112H49.4502" stroke="black" stroke-width="3" stroke-miterlimit="10" stroke-linecap="round" stroke-linejoin="round"/>
</g>
<path id="Vector_14" d="M58.0478 26.8622L60.5203 33.2722C60.6022 33.4847 60.7705 33.6522 60.9835 33.7331L67.4834 36.2058C68.1724 36.468 68.1724 37.4427 67.4834 37.7048L60.9855 40.1767C60.7715 40.2581 60.6025 40.4271 60.5211 40.6411L58.0493 47.139C57.7871 47.828 56.8124 47.828 56.5502 47.139L54.0775 40.6391C53.9966 40.4263 53.8291 40.2579 53.6166 40.1759L47.2066 37.7034C46.5223 37.4393 46.5223 36.471 47.2066 36.2071L53.6187 33.7338C53.8299 33.6522 53.9968 33.4853 54.0783 33.2741L56.5516 26.8621C56.8154 26.1777 57.7839 26.1777 58.0478 26.8622Z" stroke="black" stroke-width="3" stroke-miterlimit="10" stroke-linecap="round" stroke-linejoin="round"/>
<path id="Vector_15" d="M21.9198 9.02781L19.0594 7.93968C18.8466 7.85877 18.6783 7.69122 18.5963 7.47876L16.5777 2.24531C16.3136 1.56093 15.3453 1.56093 15.0814 2.24531L13.062 7.48083C12.9806 7.69202 12.8135 7.85893 12.6023 7.94048L7.3668 9.95986C6.68242 10.2238 6.68242 11.1923 7.3668 11.4564L12.6002 13.4749C12.8127 13.5568 12.9803 13.7253 13.0612 13.9379L14.3736 17.388" stroke="black" stroke-width="3" stroke-miterlimit="10" stroke-linecap="round" stroke-linejoin="round"/>
</g>
</g>
</svg>
