<svg width="90" height="90" viewBox="0 0 90 90" fill="none" xmlns="http://www.w3.org/2000/svg">
<g id="cosmetic-surgery 1">
<path id="Vector" d="M71.626 19.0709C66.8012 9.06539 55.6278 1.77398 45.0001 1.7782C34.3724 1.78242 23.199 9.06539 18.3742 19.0709C15.2502 25.5487 15.4267 37.6523 16.6079 43.4756H73.3923C74.5735 37.6523 74.75 25.5487 71.626 19.0709Z" fill="#524584"/>
<path id="Vector_2" d="M58.957 88.2211H31.043C30.8966 88.2207 30.754 88.1745 30.6351 88.0891C30.5161 88.0037 30.4268 87.8834 30.3796 87.7448C30.3324 87.6062 30.3296 87.4564 30.3716 87.3161C30.4137 87.1759 30.4984 87.0523 30.6141 86.9625C33.6305 84.7336 35.1985 81.0774 36.007 77.9344C36.3839 76.4582 36.6356 74.9529 36.7594 73.4344H53.2406C53.3644 74.9529 53.6161 76.4582 53.993 77.9344C54.8016 81.0774 56.3695 84.7336 59.386 86.9625C59.5016 87.0523 59.5864 87.1759 59.6284 87.3161C59.6704 87.4564 59.6676 87.6062 59.6204 87.7448C59.5732 87.8834 59.4839 88.0037 59.365 88.0891C59.246 88.1745 59.1034 88.2207 58.957 88.2211Z" fill="#FFCCBF"/>
<path id="Vector_3" d="M53.993 77.9344C51.7374 79.2568 49.2962 80.2333 46.7508 80.8313C45.5997 81.1055 44.4003 81.1055 43.2493 80.8313C40.7039 80.2333 38.2627 79.2568 36.0071 77.9344C36.384 76.4582 36.6357 74.9529 36.7594 73.4344H53.2407C53.3644 74.9529 53.6161 76.4582 53.993 77.9344Z" fill="#EEB8AB"/>
<path id="Vector_4" d="M68.445 41.9766L66.6794 56.9995C70.4812 57.6204 74.6951 53.3025 75.3223 49.5021C76.0964 44.8326 73.2073 41.5842 68.445 41.9766Z" fill="#FFCCBF"/>
<path id="Vector_5" d="M14.6776 49.5C15.3104 53.3004 19.5186 57.6183 23.3204 56.9974L21.5549 41.9766C16.7926 41.5842 13.9035 44.8326 14.6776 49.5Z" fill="#FFCCBF"/>
<path id="Vector_6" d="M66.9305 56.0109C66.9164 56.0602 66.9094 56.1023 66.8953 56.1516C65.5875 61.432 63.45 65.7281 60.4758 68.6109C57.2695 71.7188 53.2055 75.0727 46.7508 76.6125C45.5997 76.8867 44.4003 76.8867 43.2492 76.6125C36.7945 75.0727 32.7305 71.7188 29.5242 68.6109C26.55 65.7281 24.4125 61.432 23.1047 56.1516C23.0976 56.1164 23.0906 56.0883 23.0836 56.0531C21.865 50.7416 21.3613 45.291 21.5859 39.8461C21.8498 36.3823 22.3234 32.9377 23.0041 29.5313C28.4182 29.4188 32.857 23.7656 35.6836 19.8281C40.6969 12.8391 50.2594 13.1766 54.1266 19.4484C54.2411 19.6446 54.4012 19.8103 54.5934 19.9315C54.7855 20.0526 55.0041 20.1257 55.2305 20.1445C56.0164 20.1135 56.8027 20.1964 57.5648 20.3906C62.2547 22.0992 62.5655 27.8852 66.7055 29.2845C67.7468 32.7123 68.3215 36.2648 68.4141 39.8461C68.636 45.2763 68.1371 50.7119 66.9305 56.0109Z" fill="#FFCCBF"/>
<g id="Group">
<path id="Vector_7" d="M44.9999 56.4722C43.747 56.4302 42.5522 55.9333 41.639 55.0744C41.4638 54.8988 41.3614 54.6635 41.3522 54.4156C41.3431 54.1678 41.4278 53.9256 41.5895 53.7375C41.7512 53.5494 41.9779 53.4293 42.2244 53.4012C42.4708 53.3731 42.7188 53.439 42.9187 53.5859C44.358 54.8241 45.6419 54.8241 47.0812 53.5859C47.2811 53.439 47.529 53.3731 47.7755 53.4012C48.0219 53.4293 48.2486 53.5494 48.4103 53.7375C48.572 53.9256 48.6568 54.1678 48.6476 54.4156C48.6384 54.6635 48.536 54.8988 48.3608 55.0744C47.4476 55.9333 46.2529 56.4302 44.9999 56.4722Z" fill="#332C44"/>
<path id="Vector_8" d="M52.5605 60.8766C52.463 60.7045 52.3011 60.5781 52.1104 60.5254C51.9197 60.4727 51.7159 60.4978 51.5438 60.5953L51.4109 60.6713C51.2471 60.7469 51.0729 60.7974 50.8941 60.821C50.6444 60.8598 50.3923 60.8821 50.1396 60.8878C49.5986 60.8973 49.0576 60.8616 48.5225 60.7809C48.3917 60.7612 47.7638 60.6037 47.6921 60.5897C47.4019 60.5303 47.1025 60.5324 46.8131 60.5959C46.5238 60.6593 46.251 60.7827 46.0123 60.9581C45.7056 61.1489 45.3592 61.2668 44.9998 61.3027C44.6398 61.2675 44.2927 61.1501 43.9852 60.9595C43.7465 60.7841 43.4737 60.6607 43.1844 60.5973C42.895 60.5338 42.5956 60.5317 42.3054 60.5911C42.2351 60.6052 41.6058 60.7627 41.475 60.7823C40.9399 60.863 40.399 60.8987 39.8579 60.8892C39.6052 60.8835 39.3531 60.8612 39.1034 60.8224C38.9246 60.7988 38.7504 60.7483 38.5866 60.6727L38.4537 60.5967C38.2958 60.5065 38.1104 60.4771 37.9324 60.5141C37.7543 60.5511 37.5959 60.6519 37.487 60.7975C37.3782 60.9431 37.3263 61.1235 37.3411 61.3048C37.356 61.486 37.4366 61.6555 37.5678 61.7815C37.8798 62.0722 38.2536 62.2886 38.6611 62.4143C38.9934 62.5288 39.3361 62.6107 39.6842 62.659C40.3415 62.7744 41.011 62.8048 41.6761 62.7497C41.9865 62.6862 42.303 62.6579 42.6197 62.6653C42.837 62.7159 42.9713 62.891 43.1569 62.9986C43.3545 63.1148 43.5656 63.2064 43.7855 63.2714C44.576 63.5105 45.4194 63.5105 46.2099 63.2714C46.4298 63.2064 46.6409 63.1148 46.8385 62.9986C47.0269 62.891 47.1584 62.7173 47.3757 62.6653C47.6924 62.6579 48.0089 62.6862 48.3193 62.7497C48.9844 62.8048 49.6539 62.7744 50.3112 62.659C50.6593 62.6107 51.002 62.5288 51.3343 62.4143C51.7418 62.2886 52.1156 62.0722 52.4276 61.7815C52.547 61.6667 52.6248 61.5156 52.6488 61.3517C52.6729 61.1879 52.6418 61.0208 52.5605 60.8766Z" fill="#332C44"/>
<path id="Vector_9" d="M45.0294 67.2391C44.4396 67.2358 43.8582 67.0985 43.3292 66.8377C43.0908 66.7087 42.9111 66.4928 42.8276 66.2349C42.7441 65.9769 42.7632 65.6967 42.8808 65.4525C42.9984 65.2082 43.2056 65.0186 43.4593 64.923C43.713 64.8274 43.9937 64.8333 44.2433 64.9392C44.4857 65.066 44.7551 65.1322 45.0287 65.1322C45.3022 65.1322 45.5717 65.066 45.8141 64.9392C46.0636 64.8333 46.3444 64.8274 46.5981 64.923C46.8518 65.0186 47.059 65.2082 47.1766 65.4525C47.2942 65.6967 47.3132 65.9769 47.2297 66.2349C47.1462 66.4928 46.9666 66.7087 46.7281 66.8377C46.1995 67.0982 45.6187 67.2355 45.0294 67.2391Z" fill="#332C44"/>
<path id="Vector_10" d="M39.3959 39.2252C38.2006 39.1296 36.9708 39.0628 35.7495 38.9573C34.5247 38.8737 33.2984 38.7745 32.0743 38.6219C32.0743 38.6219 30.6962 38.4483 30.2349 38.411C29.6723 38.3679 29.1078 38.3557 28.5439 38.3744C27.39 38.5352 26.2738 38.8991 25.2469 39.4495L25.2146 39.4664C25.1098 39.5199 24.9887 39.5322 24.8753 39.5009C24.7619 39.4695 24.6643 39.3967 24.6019 39.297C24.5395 39.1972 24.5167 39.0777 24.5381 38.9619C24.5595 38.8462 24.6235 38.7427 24.7175 38.6719C25.783 37.8739 26.9957 37.2945 28.2858 36.9668C28.6177 36.8887 29.8327 36.7629 29.8327 36.7629L30.3031 36.7523L32.1847 36.7327C33.4392 36.7322 34.6924 36.8099 35.9373 36.9654C37.2002 37.0933 38.4515 37.318 39.68 37.6376C39.875 37.69 40.0434 37.8133 40.1522 37.9834C40.2609 38.1536 40.3023 38.3582 40.268 38.5572C40.2338 38.7562 40.1265 38.9352 39.9671 39.0592C39.8077 39.1831 39.6078 39.2431 39.4065 39.2273L39.3959 39.2252Z" fill="#332C44"/>
<path id="Vector_11" d="M53.3193 45.6391C53.7805 45.6539 54.2495 45.6391 54.7136 45.6328C55.6134 45.6333 56.5113 45.549 57.3953 45.3811C58.2381 45.2325 59.057 44.9704 59.8295 44.602C59.8295 44.602 60.1705 44.4213 60.2647 44.3841C60.4521 44.309 60.6499 44.2635 60.8511 44.2491C61.2065 44.2233 61.5626 44.2889 61.8854 44.4396C62.2745 44.6414 62.6764 44.8173 63.0885 44.9663L63.1089 44.9726C63.2021 45.0019 63.2836 45.0601 63.3414 45.1389C63.3993 45.2177 63.4305 45.3129 63.4305 45.4106C63.4305 45.5084 63.3993 45.6035 63.3414 45.6823C63.2836 45.7611 63.2021 45.8194 63.1089 45.8487C62.569 45.9818 62.0058 45.9902 61.4622 45.8733C61.3317 45.8376 61.1933 45.8435 61.0663 45.8902C61.0241 45.9084 60.7618 46.0962 60.7618 46.0962C59.8645 46.7147 58.8451 47.1338 57.7722 47.3252C56.7485 47.5174 55.7039 47.5727 54.6658 47.4898C53.6212 47.4406 52.5888 47.2449 51.5987 46.9083C51.4388 46.8488 51.3062 46.7327 51.226 46.5821C51.1457 46.4314 51.1235 46.2566 51.1634 46.0907C51.2033 45.9247 51.3026 45.7792 51.4425 45.6815C51.5825 45.5838 51.7533 45.5407 51.9229 45.5604C51.9229 45.5604 52.8643 45.6328 53.3193 45.6391Z" fill="#332C44"/>
<path id="Vector_12" d="M36.6805 45.6391C36.2193 45.6539 35.7503 45.6391 35.2862 45.6328C34.3864 45.6333 33.4885 45.549 32.6045 45.3811C31.7616 45.2325 30.9428 44.9704 30.1703 44.602C30.1703 44.602 29.8293 44.4213 29.7351 44.3841C29.5477 44.309 29.3499 44.2635 29.1486 44.2491C28.7933 44.2233 28.4372 44.2889 28.1143 44.4396C27.7253 44.6414 27.3234 44.8173 26.9113 44.9663L26.8909 44.9726C26.7977 45.0019 26.7162 45.0601 26.6584 45.1389C26.6005 45.2177 26.5693 45.3129 26.5693 45.4106C26.5693 45.5084 26.6005 45.6035 26.6584 45.6823C26.7162 45.7611 26.7977 45.8194 26.8909 45.8487C27.4308 45.9818 27.994 45.9902 28.5376 45.8733C28.6681 45.8376 28.8065 45.8435 28.9335 45.8902C28.9757 45.9084 29.2379 46.0962 29.2379 46.0962C30.1353 46.7147 31.1547 47.1338 32.2276 47.3252C33.2512 47.5174 34.2958 47.5727 35.334 47.4898C36.3786 47.4406 37.411 47.2449 38.4011 46.9083C38.561 46.8488 38.6936 46.7327 38.7738 46.5821C38.854 46.4314 38.8763 46.2566 38.8364 46.0907C38.7965 45.9247 38.6972 45.7792 38.5573 45.6815C38.4173 45.5838 38.2465 45.5407 38.0769 45.5604C38.0769 45.5604 37.1354 45.6328 36.6805 45.6391Z" fill="#332C44"/>
<path id="Vector_13" d="M50.3176 37.6369C51.5461 37.3173 52.7974 37.0926 54.0603 36.9647C55.3051 36.8092 56.5584 36.7315 57.8129 36.732L59.6944 36.7516L60.6929 36.7917C61.0364 36.8293 61.3773 36.8875 61.7138 36.9661C63.0041 37.294 64.2168 37.8737 65.2822 38.6719C65.3784 38.7419 65.4445 38.8458 65.4672 38.9626C65.4898 39.0794 65.4674 39.2005 65.4043 39.3014C65.3413 39.4023 65.2424 39.4756 65.1275 39.5065C65.0126 39.5374 64.8902 39.5235 64.7851 39.4678L64.7527 39.4502C63.7251 38.8993 62.6079 38.5351 61.453 38.3744C61.1779 38.3449 60.9013 38.332 60.6247 38.3358L59.7655 38.411L57.9261 38.622C56.7019 38.7745 55.4757 38.8737 54.2508 38.9573C53.0295 39.0628 51.8026 39.1296 50.6044 39.2252H50.5918C50.3905 39.241 50.1906 39.181 50.0312 39.0571C49.8718 38.9331 49.7645 38.754 49.7302 38.555C49.696 38.3561 49.7373 38.1514 49.8461 37.9813C49.9549 37.8112 50.1233 37.6879 50.3183 37.6355L50.3176 37.6369Z" fill="#332C44"/>
<path id="Vector_14" d="M69.0854 31.0317C69.0346 31.0314 68.9838 31.0277 68.9335 31.0205C66.6953 30.7521 64.6403 29.6506 63.1777 27.9352C62.5686 27.1793 62.0051 26.3879 61.4902 25.5649C60.3083 23.7558 59.1924 22.0493 57.2272 21.3581C56.789 21.2333 56.334 21.1775 55.8786 21.1929C55.6578 21.1866 55.4244 21.1795 55.172 21.1648C54.7803 21.1363 54.4014 21.0139 54.0671 20.8079C53.7329 20.6019 53.4532 20.3184 53.2517 19.9814C52.4539 18.6916 51.3448 17.623 50.0263 16.8735C48.7078 16.1241 47.2222 15.718 45.7058 15.6923C43.9005 15.6482 42.113 16.0582 40.5074 16.8847C38.9018 17.7113 37.5296 18.9279 36.5166 20.423C33.3758 24.8077 29.0565 30.8088 21.5155 30.51C21.3791 30.5077 21.2446 30.4781 21.1198 30.4231C20.9951 30.368 20.8826 30.2886 20.7889 30.1895C20.6953 30.0904 20.6223 29.9735 20.5745 29.8459C20.5266 29.7182 20.5047 29.5822 20.5101 29.446C20.5155 29.3097 20.548 29.1759 20.6058 29.0524C20.6636 28.9289 20.7455 28.8182 20.8467 28.7267C20.9479 28.6353 21.0664 28.5651 21.1951 28.52C21.3238 28.475 21.4602 28.4562 21.5963 28.4646C28.0489 28.7283 31.8247 23.4598 34.8559 19.2319C36.076 17.4736 37.7116 16.0439 39.6173 15.07C41.523 14.096 43.6398 13.6079 45.7796 13.6491C47.631 13.6966 49.4419 14.2019 51.0504 15.1199C52.6589 16.0379 54.015 17.34 54.9976 18.9098C55.0273 18.9656 55.0695 19.0137 55.121 19.0503C55.1725 19.0869 55.2319 19.1111 55.2943 19.1208C55.5249 19.1341 55.738 19.1405 55.9398 19.1461C56.607 19.1313 57.2721 19.2263 57.9085 19.4273C60.5312 20.3463 61.9529 22.5211 63.2087 24.4462C63.679 25.2006 64.1934 25.9265 64.7492 26.6203C65.8884 27.9549 67.4938 28.8046 69.238 28.9962C69.5006 29.0258 69.7417 29.156 69.9105 29.3594C70.0793 29.5628 70.1628 29.8237 70.1435 30.0873C70.1243 30.351 70.0037 30.5969 69.8071 30.7736C69.6105 30.9504 69.3531 31.0441 69.0889 31.0352L69.0854 31.0317Z" fill="#332C44"/>
<path id="Vector_15" d="M45 52.6641C44.8135 52.6641 44.6347 52.59 44.5028 52.4581C44.371 52.3263 44.2969 52.1474 44.2969 51.9609V50.625C44.2969 50.4385 44.371 50.2597 44.5028 50.1278C44.6347 49.996 44.8135 49.9219 45 49.9219C45.1865 49.9219 45.3653 49.996 45.4972 50.1278C45.629 50.2597 45.7031 50.4385 45.7031 50.625V51.9609C45.7031 52.1474 45.629 52.3263 45.4972 52.4581C45.3653 52.59 45.1865 52.6641 45 52.6641ZM45 47.8125C44.8135 47.8125 44.6347 47.7384 44.5028 47.6066C44.371 47.4747 44.2969 47.2959 44.2969 47.1094V45.7031C44.2969 45.5166 44.371 45.3378 44.5028 45.2059C44.6347 45.0741 44.8135 45 45 45C45.1865 45 45.3653 45.0741 45.4972 45.2059C45.629 45.3378 45.7031 45.5166 45.7031 45.7031V47.1094C45.7031 47.2959 45.629 47.4747 45.4972 47.6066C45.3653 47.7384 45.1865 47.8125 45 47.8125ZM45 42.8906C44.8135 42.8906 44.6347 42.8165 44.5028 42.6847C44.371 42.5528 44.2969 42.374 44.2969 42.1875V40.7813C44.2969 40.5948 44.371 40.4159 44.5028 40.2841C44.6347 40.1522 44.8135 40.0781 45 40.0781C45.1865 40.0781 45.3653 40.1522 45.4972 40.2841C45.629 40.4159 45.7031 40.5948 45.7031 40.7813V42.1875C45.7031 42.374 45.629 42.5528 45.4972 42.6847C45.3653 42.8165 45.1865 42.8906 45 42.8906ZM45 37.9688C44.8135 37.9688 44.6347 37.8947 44.5028 37.7628C44.371 37.6309 44.2969 37.4521 44.2969 37.2656V35.8594C44.2969 35.6729 44.371 35.4941 44.5028 35.3622C44.6347 35.2303 44.8135 35.1562 45 35.1562C45.1865 35.1562 45.3653 35.2303 45.4972 35.3622C45.629 35.4941 45.7031 35.6729 45.7031 35.8594V37.2656C45.7031 37.4521 45.629 37.6309 45.4972 37.7628C45.3653 37.8947 45.1865 37.9688 45 37.9688Z" fill="#332C44"/>
<path id="Vector_16" d="M60.688 53.7827H60.6795C60.1965 53.7757 59.7043 53.7476 59.217 53.6998C59.1251 53.6905 59.036 53.6633 58.9546 53.6196C58.8733 53.5759 58.8014 53.5166 58.7429 53.4451C58.6845 53.3736 58.6407 53.2913 58.6141 53.2029C58.5874 53.1145 58.5785 53.0217 58.5877 52.9298C58.597 52.838 58.6242 52.7488 58.6679 52.6675C58.7116 52.5861 58.7709 52.5142 58.8424 52.4557C58.9139 52.3973 58.9962 52.3535 59.0846 52.3269C59.173 52.3003 59.2658 52.2913 59.3576 52.3006C59.8069 52.3448 60.2598 52.3709 60.7034 52.3765C60.8899 52.3778 61.0682 52.4531 61.1992 52.5859C61.3301 52.7187 61.4029 52.8981 61.4016 53.0845C61.4003 53.271 61.325 53.4493 61.1922 53.5803C61.0594 53.7112 60.8801 53.784 60.6936 53.7827H60.688ZM64.167 53.3791C63.9986 53.3797 63.8356 53.3198 63.7076 53.2104C63.5796 53.1009 63.4952 52.9491 63.4696 52.7827C63.4441 52.6162 63.4791 52.4461 63.5684 52.3033C63.6577 52.1605 63.7953 52.0545 63.9561 52.0045C64.1442 51.9517 64.3255 51.8769 64.4961 51.7816C64.6555 51.6849 64.8469 51.6554 65.0281 51.6997C65.2092 51.744 65.3654 51.8585 65.4622 52.0179C65.559 52.1773 65.5884 52.3687 65.5441 52.5499C65.4998 52.731 65.3854 52.8872 65.2259 52.984C64.9572 53.1384 64.6712 53.2604 64.3737 53.3475C64.3068 53.3683 64.2371 53.379 64.167 53.3791ZM55.8455 52.9924C55.7718 52.9923 55.6985 52.9806 55.6283 52.958C55.1586 52.8061 54.6952 52.631 54.2516 52.4398C54.0818 52.3649 53.9486 52.2259 53.8809 52.0532C53.8132 51.8805 53.8165 51.688 53.89 51.5177C53.9636 51.3474 54.1014 51.2131 54.2736 51.144C54.4458 51.0749 54.6382 51.0766 54.8091 51.1488C55.212 51.3232 55.6339 51.4814 56.0621 51.6206C56.2212 51.6724 56.3567 51.7792 56.4442 51.9218C56.5316 52.0645 56.5653 52.2337 56.5392 52.3989C56.5131 52.5642 56.429 52.7148 56.3018 52.8236C56.1747 52.9324 56.0129 52.9922 55.8455 52.9924ZM51.5185 50.7038C51.3599 50.7036 51.206 50.6498 51.0819 50.5512C50.6943 50.2423 50.3244 49.912 49.9737 49.5619C49.8457 49.4293 49.7748 49.2517 49.7764 49.0673C49.778 48.8829 49.8519 48.7066 49.9823 48.5762C50.1127 48.4459 50.289 48.3719 50.4734 48.3703C50.6577 48.3687 50.8353 48.4396 50.968 48.5677C51.2818 48.8805 51.6133 49.1751 51.9608 49.4501C52.0751 49.5409 52.1583 49.6651 52.1989 49.8054C52.2394 49.9456 52.2353 50.0951 52.1871 50.2329C52.1388 50.3707 52.0489 50.4901 51.9297 50.5745C51.8105 50.6589 51.668 50.704 51.522 50.7038H51.5185Z" fill="#332C44"/>
<path id="Vector_17" d="M29.3117 53.7827C29.1252 53.784 28.9458 53.7112 28.8131 53.5803C28.6803 53.4493 28.6049 53.271 28.6036 53.0845C28.6023 52.8981 28.6752 52.7187 28.8061 52.5859C28.937 52.4531 29.1154 52.3778 29.3018 52.3765C29.7455 52.3702 30.1983 52.3448 30.6476 52.3006C30.7395 52.2913 30.8323 52.3003 30.9207 52.3269C31.0091 52.3535 31.0914 52.3973 31.1629 52.4557C31.2344 52.5142 31.2937 52.5861 31.3374 52.6675C31.3811 52.7488 31.4083 52.838 31.4175 52.9298C31.4268 53.0217 31.4178 53.1145 31.3912 53.2029C31.3646 53.2913 31.3208 53.3736 31.2623 53.4451C31.2039 53.5166 31.132 53.5759 31.0506 53.6196C30.9693 53.6633 30.8801 53.6905 30.7882 53.6998C30.301 53.7476 29.8088 53.7757 29.3257 53.7827H29.3117ZM25.8326 53.3791C25.7611 53.3794 25.69 53.3687 25.6217 53.3475C25.3243 53.2604 25.0382 53.1384 24.7695 52.984C24.6101 52.8872 24.4956 52.731 24.4513 52.5499C24.407 52.3687 24.4365 52.1773 24.5332 52.0179C24.63 51.8585 24.7862 51.744 24.9674 51.6997C25.1485 51.6554 25.3399 51.6849 25.4993 51.7816C25.67 51.8769 25.8512 51.9517 26.0393 52.0045C26.2002 52.0545 26.3377 52.1605 26.427 52.3033C26.5163 52.4461 26.5513 52.6162 26.5258 52.7827C26.5002 52.9491 26.4158 53.1009 26.2878 53.2104C26.1598 53.3198 25.9968 53.3797 25.8284 53.3791H25.8326ZM34.1541 52.9924C33.9868 52.9922 33.825 52.9324 33.6978 52.8236C33.5707 52.7148 33.4865 52.5642 33.4604 52.3989C33.4343 52.2337 33.468 52.0645 33.5555 51.9218C33.6429 51.7792 33.7784 51.6724 33.9375 51.6206C34.3657 51.48 34.7876 51.3232 35.1905 51.1488C35.3614 51.0766 35.5539 51.0749 35.726 51.144C35.8982 51.2131 36.0361 51.3474 36.1096 51.5177C36.1832 51.688 36.1865 51.8805 36.1187 52.0532C36.051 52.2259 35.9178 52.3649 35.7481 52.4398C35.3044 52.631 34.8411 52.8061 34.3714 52.958C34.3012 52.9806 34.2279 52.9923 34.1541 52.9924ZM38.4811 50.7038C38.3351 50.704 38.1926 50.6589 38.0734 50.5745C37.9543 50.4901 37.8643 50.3707 37.8161 50.2329C37.7678 50.0951 37.7637 49.9456 37.8043 49.8054C37.8448 49.6651 37.928 49.5409 38.0424 49.4501C38.3887 49.175 38.719 48.8804 39.0317 48.5677C39.1643 48.4396 39.3419 48.3687 39.5263 48.3703C39.7106 48.3719 39.887 48.4459 40.0173 48.5762C40.1477 48.7066 40.2216 48.8829 40.2232 49.0673C40.2248 49.2517 40.154 49.4293 40.0259 49.5619C39.6753 49.9132 39.3054 50.2447 38.9178 50.5547C38.7931 50.6521 38.6393 50.7046 38.4811 50.7038Z" fill="#332C44"/>
<path id="Vector_18" d="M42.3314 72.3248C42.269 72.3249 42.2068 72.3166 42.1465 72.3002C41.6719 72.1716 41.2008 72.019 40.7459 71.8509C40.5711 71.7857 40.4293 71.6536 40.3519 71.4839C40.2744 71.3141 40.2675 71.1205 40.3328 70.9457C40.3981 70.7708 40.5301 70.6291 40.6999 70.5516C40.8697 70.4742 41.0633 70.4673 41.2381 70.5326C41.6522 70.6873 42.0818 70.8251 42.5157 70.9432C42.68 70.9879 42.8225 71.0907 42.9168 71.2325C43.0111 71.3743 43.0507 71.5455 43.0283 71.7143C43.0059 71.8831 42.9229 72.0381 42.7949 72.1503C42.6669 72.2626 42.5017 72.3246 42.3314 72.3248ZM37.8743 70.2858C37.7331 70.2857 37.5951 70.2431 37.4785 70.1634C37.0717 69.8854 36.6794 69.5869 36.3029 69.2691C36.1604 69.1487 36.0716 68.9767 36.0559 68.7908C36.0403 68.6049 36.0992 68.4205 36.2195 68.278C36.3399 68.1355 36.5119 68.0467 36.6978 68.0311C36.8837 68.0155 37.0681 68.0743 37.2106 68.1947C37.5503 68.4822 37.9047 68.7518 38.2723 69.0026C38.3962 69.0875 38.4897 69.2098 38.539 69.3517C38.5884 69.4935 38.591 69.6475 38.5465 69.7909C38.502 69.9344 38.4128 70.0598 38.2918 70.1489C38.1708 70.2379 38.0245 70.2859 37.8743 70.2858Z" fill="#332C44"/>
<path id="Vector_19" d="M47.6717 72.3248C47.5014 72.3246 47.337 72.2626 47.209 72.1503C47.081 72.0381 46.998 71.8831 46.9756 71.7143C46.9532 71.5455 46.9928 71.3743 47.0871 71.2325C47.1813 71.0907 47.3239 70.9879 47.4882 70.9432C47.9213 70.8251 48.3517 70.6873 48.7658 70.5326C48.9406 70.4673 49.1342 70.4742 49.304 70.5516C49.4738 70.6291 49.6058 70.7708 49.6711 70.9457C49.7363 71.1205 49.7295 71.3141 49.652 71.4839C49.5745 71.6536 49.4328 71.7857 49.258 71.8509C48.8031 72.0204 48.332 72.1716 47.8574 72.3002C47.7969 72.3167 47.7344 72.325 47.6717 72.3248ZM52.1288 70.2858C51.9786 70.2859 51.8323 70.2379 51.7114 70.1489C51.5904 70.0598 51.5012 69.9344 51.4567 69.7909C51.4122 69.6475 51.4148 69.4935 51.4641 69.3517C51.5135 69.2098 51.607 69.0875 51.7309 69.0026C52.0985 68.7518 52.4529 68.4822 52.7926 68.1947C52.9351 68.0743 53.1195 68.0155 53.3054 68.0311C53.4912 68.0467 53.6633 68.1355 53.7836 68.278C53.904 68.4205 53.9629 68.6049 53.9472 68.7908C53.9316 68.9767 53.8428 69.1487 53.7003 69.2691C53.3233 69.5864 52.9305 69.8845 52.5233 70.162C52.406 70.2421 52.2673 70.2847 52.1253 70.2844L52.1288 70.2858Z" fill="#332C44"/>
<path id="Vector_20" d="M55.3266 30.4552C55.2511 30.4549 55.1761 30.4428 55.1044 30.4193C54.6825 30.2787 54.2684 30.1486 53.8493 30.027C53.7607 30.0011 53.678 29.958 53.606 29.9002C53.534 29.8424 53.4741 29.771 53.4297 29.69C53.3853 29.6091 53.3573 29.5202 53.3472 29.4284C53.3372 29.3366 53.3453 29.2437 53.3712 29.1551C53.397 29.0664 53.4401 28.9838 53.4979 28.9117C53.5557 28.8397 53.6271 28.7798 53.7081 28.7354C53.7891 28.691 53.878 28.663 53.9698 28.653C54.0615 28.643 54.1544 28.6511 54.2431 28.6769C54.679 28.8035 55.1145 28.9395 55.5495 29.0848C55.7081 29.1375 55.8427 29.2449 55.9293 29.3879C56.0158 29.5308 56.0486 29.7 56.0218 29.8649C55.995 30.0299 55.9103 30.1799 55.7829 30.288C55.6555 30.3962 55.4937 30.4554 55.3266 30.4552ZM34.6723 30.4552C34.5054 30.4546 34.3443 30.3948 34.2175 30.2863C34.0907 30.1779 34.0066 30.0279 33.9803 29.8632C33.9539 29.6985 33.987 29.5297 34.0735 29.3871C34.1601 29.2445 34.2946 29.1374 34.4529 29.0848C34.9095 28.9329 35.3663 28.7923 35.8233 28.6629C35.9122 28.6368 36.0054 28.6286 36.0975 28.6386C36.1895 28.6487 36.2787 28.6768 36.3599 28.7214C36.4411 28.7661 36.5127 28.8263 36.5705 28.8987C36.6283 28.971 36.6713 29.0541 36.6969 29.1432C36.7225 29.2322 36.7303 29.3254 36.7198 29.4175C36.7092 29.5095 36.6806 29.5986 36.6356 29.6795C36.5905 29.7605 36.5299 29.8317 36.4573 29.8892C36.3846 29.9466 36.3013 29.9891 36.2121 30.0143C35.7729 30.1404 35.3339 30.2761 34.8952 30.4214C34.8232 30.4447 34.7479 30.4561 34.6723 30.4552ZM50.6283 29.25C50.5861 29.2501 50.544 29.2463 50.5024 29.2387C50.0496 29.1572 49.5968 29.0855 49.144 29.0236C49.0525 29.0112 48.9643 28.9808 48.8845 28.9344C48.8048 28.8879 48.7349 28.8261 48.679 28.7526C48.6231 28.6791 48.5822 28.5954 48.5586 28.5061C48.5351 28.4168 48.5293 28.3237 48.5418 28.2322C48.5542 28.1407 48.5845 28.0526 48.631 27.9728C48.6775 27.893 48.7392 27.8231 48.8127 27.7672C48.8862 27.7113 48.97 27.6704 49.0593 27.6468C49.1486 27.6233 49.2416 27.6176 49.3331 27.63C49.8066 27.6947 50.2798 27.7697 50.7527 27.855C50.9255 27.8863 51.0802 27.981 51.1866 28.1206C51.2931 28.2602 51.3434 28.4345 51.3278 28.6094C51.3122 28.7842 51.2318 28.9469 51.1024 29.0654C50.9729 29.1839 50.8038 29.2498 50.6283 29.25ZM39.4381 29.243C39.2626 29.2424 39.0938 29.1763 38.9646 29.0577C38.8354 28.939 38.7553 28.7763 38.7399 28.6016C38.7244 28.4269 38.7749 28.2527 38.8813 28.1133C38.9877 27.9738 39.1424 27.8792 39.315 27.848C39.7884 27.7636 40.2616 27.6895 40.7346 27.6258C40.8266 27.6125 40.9203 27.6175 41.0103 27.6406C41.1003 27.6637 41.1848 27.7045 41.2589 27.7604C41.3331 27.8164 41.3954 27.8866 41.4423 27.9668C41.4892 28.047 41.5198 28.1357 41.5322 28.2278C41.5446 28.3199 41.5386 28.4135 41.5146 28.5033C41.4906 28.593 41.4491 28.6771 41.3923 28.7508C41.3356 28.8244 41.2649 28.886 41.1842 28.9321C41.1036 28.9782 41.0146 29.0079 40.9223 29.0194C40.4686 29.0803 40.0153 29.1506 39.5625 29.2303C39.5214 29.2374 39.4797 29.2407 39.4381 29.2402V29.243ZM45.7366 28.7508H45.7205C45.2599 28.7409 44.8029 28.7409 44.3459 28.7508H44.3304C44.1439 28.7529 43.9642 28.6809 43.8308 28.5506C43.6975 28.4202 43.6213 28.2422 43.6192 28.0557C43.617 27.8693 43.6891 27.6896 43.8194 27.5562C43.9498 27.4228 44.1277 27.3467 44.3142 27.3445C44.7933 27.3337 45.2726 27.3337 45.7521 27.3445C45.9386 27.3466 46.1166 27.4226 46.247 27.5559C46.3774 27.6892 46.4496 27.8689 46.4475 28.0554C46.4455 28.2419 46.3694 28.4199 46.2361 28.5503C46.1028 28.6807 45.9231 28.7528 45.7366 28.7508Z" fill="#332C44"/>
<path id="Vector_21" d="M74.7069 43.0959C74.6598 43.0446 74.6064 43.0017 74.5571 42.9553C75.6941 36.5133 75.6449 24.9785 72.5764 18.6152C67.5758 8.24836 55.9827 0.726326 45.0139 0.726326H44.9935C34.0199 0.726326 22.4268 8.24976 17.4268 18.6152C14.3584 24.9785 14.3092 36.5133 15.4461 42.9553C15.3969 43.0045 15.3435 43.0474 15.2964 43.0959C13.7952 44.7251 13.2067 47.0616 13.6412 49.6744C14.3148 53.7363 18.4091 58.0957 22.5463 58.1119C23.9469 62.8706 26.045 66.7012 28.7936 69.3675C30.8552 71.4352 33.1678 73.2365 35.6771 74.7295C35.3256 77.7916 33.8821 84.8651 27.9653 87.2452C27.7379 87.3364 27.5494 87.504 27.4322 87.7191C27.3149 87.9343 27.2762 88.1835 27.3227 88.4241C27.3692 88.6646 27.498 88.8815 27.687 89.0374C27.8759 89.1933 28.1133 89.2786 28.3583 89.2786C28.4932 89.2785 28.6268 89.2527 28.7521 89.2026C35.2208 86.6011 37.1115 79.5199 37.6656 75.773C39.3773 76.5793 41.1682 77.2056 43.0093 77.6419C44.3218 77.9541 45.6892 77.9541 47.0017 77.6419C48.8428 77.2056 50.6337 76.5792 52.3454 75.773C52.8974 79.5171 54.7881 86.6011 61.2596 89.2026C61.3882 89.2543 61.5256 89.2801 61.6641 89.2786C61.8026 89.2771 61.9395 89.2483 62.0668 89.1939C62.1942 89.1395 62.3097 89.0606 62.4065 88.9616C62.5034 88.8626 62.5798 88.7455 62.6314 88.6169C62.7357 88.3575 62.7327 88.0672 62.623 87.8099C62.5133 87.5527 62.3059 87.3495 62.0464 87.2452C56.1296 84.8679 54.6854 77.7944 54.3346 74.7295C56.8441 73.2365 59.1569 71.4352 61.2189 69.3675C63.9667 66.7012 66.0648 62.8706 67.4661 58.1119C71.6026 58.0943 75.6969 53.7349 76.3705 49.6744C76.7966 47.0616 76.2081 44.7251 74.7069 43.0959ZM15.7147 49.3291C15.5217 48.4958 15.5227 47.6292 15.7178 46.7962C15.9128 45.9633 16.2967 45.1864 16.8397 44.5254C17.3204 44.0425 17.8924 43.6602 18.5225 43.4009C19.1526 43.1416 19.828 43.0104 20.5093 43.0151C20.5234 44.2563 20.5668 45.468 20.6394 46.6502C19.8785 46.3466 19.0576 46.2232 18.2411 46.2895C17.9638 46.3179 17.7091 46.4549 17.5325 46.6705C17.3559 46.8862 17.2719 47.1629 17.2988 47.4403C17.3256 47.7177 17.4612 47.9732 17.6758 48.151C17.8904 48.3288 18.1667 48.4143 18.4443 48.3891C18.8907 48.3431 19.3417 48.4033 19.7605 48.5645C20.1794 48.7258 20.5542 48.9837 20.8546 49.3172C21.0799 51.5455 21.4486 53.7569 21.9585 55.9378C19.1432 55.4969 16.1914 52.1866 15.7175 49.3291H15.7147ZM59.7416 67.8516C56.4896 71.0037 52.6358 74.122 46.5053 75.5859C45.5151 75.8218 44.4833 75.8218 43.4931 75.5859C37.3639 74.1234 33.5087 71.0051 30.2582 67.8516C24.9882 62.7412 22.2819 52.8047 22.6405 39.877C22.8305 36.6834 23.2518 33.5077 23.9012 30.375C29.9861 29.4841 33.7239 24.3204 36.5181 20.4237C37.5314 18.9291 38.9037 17.7128 40.5092 16.8864C42.1148 16.06 43.902 15.6499 45.7072 15.6937C47.2236 15.7194 48.7092 16.1255 50.0277 16.8749C51.3462 17.6244 52.4553 18.693 53.2532 19.9828C53.4548 20.3194 53.7346 20.6025 54.0689 20.8081C54.4031 21.0138 54.782 21.1358 55.1734 21.1641C55.4258 21.1788 55.6592 21.1859 55.88 21.1922C56.3354 21.1768 56.7904 21.2326 57.2286 21.3574C59.1974 22.0465 60.3097 23.7551 61.4917 25.5642C62.0065 26.3872 62.57 27.1786 63.1792 27.9344C63.9132 28.8115 64.8173 29.5307 65.837 30.0487C66.7571 33.2468 67.2686 36.5484 67.3593 39.8749C67.7178 52.8047 65.0115 62.7412 59.7416 67.8516ZM64.7457 26.6203C64.19 25.9265 63.6756 25.2006 63.2052 24.4462C61.9494 22.5246 60.5277 20.3463 57.905 19.4273C57.2686 19.2263 56.6035 19.1313 55.9363 19.1461C55.7345 19.1405 55.5214 19.1341 55.2908 19.1208C55.2284 19.1111 55.1691 19.0869 55.1176 19.0503C55.0661 19.0137 55.0238 18.9656 54.9941 18.9098C54.0115 17.34 52.6554 16.0379 51.0469 15.1199C49.4384 14.2019 47.6275 13.6966 45.7761 13.6491C43.6362 13.6069 41.519 14.0945 39.6131 15.0685C37.7072 16.0426 36.0718 17.4728 34.8524 19.2319C31.8212 23.4598 28.0532 28.7283 21.5928 28.4646C21.4567 28.4562 21.3203 28.475 21.1916 28.52C21.0629 28.565 20.9444 28.6353 20.8433 28.7267C20.7421 28.8182 20.6602 28.9289 20.6024 29.0524C20.5445 29.1759 20.512 29.3097 20.5066 29.446C20.5012 29.5822 20.5231 29.7182 20.571 29.8459C20.6189 29.9735 20.6918 30.0904 20.7854 30.1895C20.8791 30.2886 20.9916 30.368 21.1164 30.4231C21.2411 30.4781 21.3756 30.5077 21.512 30.51C21.5823 30.51 21.6526 30.5058 21.7194 30.51C21.1094 33.5811 20.7124 36.6907 20.5311 39.8166C20.5213 40.1878 20.5227 40.5478 20.5171 40.9141C19.4295 40.9326 18.3569 41.1705 17.3636 41.6137C16.4706 35.4262 16.6323 25.1093 19.3232 19.5286C23.9905 9.85289 34.7828 2.83289 44.9907 2.83289H45.0097C55.2163 2.83289 66.01 9.85359 70.6738 19.5286C73.3653 25.1107 73.5243 35.4277 72.6306 41.6123C71.6381 41.1695 70.5665 40.9318 69.4799 40.9134C69.4743 40.5471 69.4757 40.1878 69.4658 39.8166C69.3786 36.8073 68.9721 33.8158 68.2529 30.8925C68.4758 30.9396 68.6994 30.986 68.9314 31.0205C68.9818 31.0277 69.0325 31.0314 69.0833 31.0317C69.3475 31.0406 69.6049 30.9468 69.8015 30.7701C69.9981 30.5934 70.1187 30.3475 70.138 30.0838C70.1572 29.8202 70.0737 29.5593 69.9049 29.3559C69.7361 29.1525 69.4951 29.0223 69.2324 28.9927C67.4895 28.8015 65.885 27.9531 64.7457 26.6203ZM74.2822 49.3312C73.8076 52.1909 70.8538 55.5145 68.0328 55.9554C68.545 53.7696 68.9151 51.5529 69.141 49.3193C69.4411 48.9855 69.8159 48.7274 70.2348 48.5661C70.6537 48.4048 71.1048 48.3448 71.5513 48.3912C71.8289 48.4148 72.1048 48.3289 72.3199 48.1518C72.535 47.9747 72.6723 47.7204 72.7023 47.4434C72.7157 47.3055 72.7018 47.1664 72.6614 47.0339C72.621 46.9014 72.5549 46.7781 72.4669 46.6712C72.3789 46.5642 72.2707 46.4757 72.1485 46.4106C72.0262 46.3454 71.8923 46.305 71.7545 46.2916C70.9364 46.2291 70.1151 46.3579 69.3554 46.6678C69.4295 45.4823 69.4731 44.2657 69.4862 43.0179C70.1675 43.0128 70.843 43.1438 71.4731 43.403C72.1032 43.6622 72.6753 44.0445 73.1558 44.5275C73.6988 45.1881 74.0827 45.9647 74.278 46.7972C74.4733 47.6297 74.4747 48.496 74.2822 49.3291V49.3312Z" fill="#332C44"/>
</g>
</g>
</svg>
