<svg width="62" height="62" viewBox="0 0 62 62" fill="none" xmlns="http://www.w3.org/2000/svg">
<g id="travel 1" clip-path="url(#clip0_29_499)">
<path id="Vector" d="M31.002 57.5188C45.6475 57.5188 57.52 45.6463 57.52 31.0007C57.52 16.3552 45.6475 4.48267 31.002 4.48267C16.3564 4.48267 4.48389 16.3552 4.48389 31.0007C4.48389 45.6463 16.3564 57.5188 31.002 57.5188Z" fill="#72D8FF"/>
<g id="Group">
<path id="Vector_2" d="M47.351 15.2186C44.2694 15.2186 41.7713 17.7167 41.7713 20.7981C41.7713 21.9426 40.8434 22.8705 39.6989 22.8705C37.674 22.8705 36.0325 24.5121 36.0325 26.537V27.3342C36.0325 29.3591 37.674 31.0007 39.6989 31.0007H57.5203C57.5203 25.0883 55.5846 19.6284 52.3134 15.2185L47.351 15.2186Z" fill="#A0E557"/>
<path id="Vector_3" d="M35.6555 42.3155H34.3638C33.4164 42.3155 32.6485 41.5474 32.6485 40.6002V35.4054C32.6485 32.9729 30.6767 31.001 28.2441 31.001H23.3453H21.3095C19.7154 31.001 18.4231 32.2932 18.4231 33.8874C18.4231 34.2859 18.1 34.609 17.7015 34.609H17.5937C15.1482 34.609 13.1659 36.5914 13.166 39.0369V39.0374C13.1661 41.4826 15.1484 43.4648 17.5937 43.4648H19.3925C20.6502 43.4648 21.6699 44.4844 21.6699 45.7421C21.6701 47.7906 23.3307 49.4512 25.3792 49.4512H31.0264C33.0749 49.4512 34.7356 51.1119 34.7356 53.1604V57.256C36.3369 57.0303 37.8926 56.6624 39.3887 56.1641V46.0489C39.3889 43.9869 37.7174 42.3155 35.6555 42.3155Z" fill="#A0E557"/>
</g>
<path id="Vector_4" d="M31.9793 1.28814C32.3295 3.93101 31.4293 6.58635 29.5443 8.47142L25.833 12.1826L31.8007 24.6137L29.3446 27.0698L21.3692 16.6463L14.1357 23.8799H14.1179L14.5855 29.0685L11.618 32.0361L9.38202 23.8856L1.23145 21.6497L4.19909 18.682L9.38772 19.1497V19.1319L16.6213 11.8984L6.1975 3.92289L8.65364 1.46675L21.0849 7.43449L24.796 3.72333C26.6811 1.83814 29.3365 0.938054 31.9793 1.28814Z" fill="white"/>
<path id="Vector_5" d="M58.7163 3.28702C54.1102 -1.31902 45.5313 -1.0112 35.7358 3.76243C35.5294 3.80445 35.3392 3.9 35.1825 4.03623C34.4029 4.42772 33.6161 4.84707 32.8233 5.29415C33.2356 3.95958 33.3661 2.53672 33.1796 1.12913C33.1077 0.586509 32.6809 0.159654 32.1382 0.0877242C29.142 -0.309221 26.077 0.729763 23.9398 2.86707L20.8352 5.97167L9.17778 0.375201C8.71399 0.152752 8.16095 0.247084 7.79755 0.610607L5.34129 3.06663C5.0945 3.31342 4.96614 3.65466 4.98927 4.00293C5.01227 4.35107 5.18459 4.67245 5.46177 4.88461L14.7872 12.0198L8.91585 17.8913L4.30775 17.4761C3.95089 17.4437 3.59669 17.572 3.34275 17.8258L0.37523 20.7932C0.070195 21.0982 -0.0494457 21.5425 0.0608707 21.9593C0.171308 22.3762 0.495113 22.7031 0.91107 22.8171L4.23764 23.7297C3.5979 26.0902 3.27312 28.5303 3.27312 31.0009C3.27312 32.6352 3.4182 34.2709 3.70119 35.8686C2.20811 38.9623 1.14139 41.977 0.543914 44.8254C-0.720063 50.8526 0.228707 55.6555 3.28814 58.7149C5.4453 60.8722 8.55875 61.999 12.3344 61.999C12.6428 61.999 12.956 61.9915 13.273 61.9763C17.0732 61.7954 21.5102 60.5236 26.1235 58.2997C27.7115 58.5827 29.3424 58.7302 31.0021 58.7302C36.694 58.7302 42.1637 57.0181 46.8195 53.7791C47.3684 53.3972 47.5039 52.6427 47.122 52.0936C46.7401 51.5446 45.9853 51.4093 45.4365 51.7911C42.5585 53.7933 39.3392 55.155 35.9466 55.8256V53.1607C35.9466 50.4477 33.7393 48.2405 31.0264 48.2405H25.3792C24.0017 48.2405 22.8809 47.1198 22.8807 45.7421C22.8805 43.8188 21.3157 42.254 19.3924 42.254H17.5935C15.82 42.254 14.3769 40.8111 14.3768 39.0369C14.3768 38.1775 14.7114 37.3698 15.3189 36.7622C15.9265 36.1545 16.7343 35.8198 17.5935 35.8198H17.7013C18.7671 35.8198 19.6339 34.9529 19.6339 33.8874C19.6339 32.9635 20.3855 32.212 21.3092 32.212H28.244C30.0049 32.212 31.4376 33.6446 31.4376 35.4056V40.6004C31.4376 42.2138 32.7502 43.5266 34.3639 43.5266H35.6557C37.0465 43.5266 38.1782 44.6581 38.1782 46.0492V48.9814C38.1782 49.6502 38.7204 50.1922 39.389 50.1922C40.0577 50.1922 40.5998 49.6501 40.5998 48.9814V46.0492C40.5998 43.3229 38.3818 41.1048 35.6555 41.1048H34.3638C34.0856 41.1048 33.8592 40.8785 33.8592 40.6004V35.4054C33.8592 32.3091 31.3401 29.7902 28.244 29.7902H21.3092C19.212 29.7902 17.4777 31.3744 17.24 33.4088C15.8669 33.4933 14.5878 34.0684 13.6065 35.0497C12.5415 36.1147 11.9551 37.5308 11.9552 39.0374C11.9553 42.1464 14.4848 44.6755 17.5935 44.6755H19.3924C19.9804 44.6755 20.4591 45.1541 20.4591 45.7421C20.4592 48.455 22.6664 50.6622 25.3793 50.6622H31.0265C32.4042 50.6622 33.525 51.783 33.525 53.1606V56.1413C33.525 56.1555 33.5267 56.1693 33.5272 56.1834C32.6925 56.2659 31.8503 56.3083 31.0023 56.3083C19.0157 56.3083 8.68396 47.8963 6.23629 36.2309C7.25408 34.202 8.45848 32.1385 9.82732 30.0859L10.4502 32.3565C10.5643 32.7725 10.8911 33.0964 11.3081 33.2067C11.4106 33.2339 11.5146 33.2471 11.6179 33.2471C11.935 33.2471 12.2442 33.1225 12.4743 32.8924L15.442 29.9249C15.6959 29.6709 15.8239 29.3175 15.7918 28.9599L15.3764 24.3519L21.2479 18.4804L28.383 27.806C28.5952 28.0831 28.9164 28.2553 29.2647 28.2784C29.6116 28.301 29.9541 28.1731 30.201 27.9263L32.6571 25.4702C33.0206 25.1067 33.115 24.5533 32.8924 24.09L27.2961 12.4323L29.522 10.2063C31.7909 8.6562 34.0372 7.32925 36.2197 6.23287C41.5877 7.3565 46.2677 10.1509 49.7573 14.0081H47.3511C43.6069 14.0081 40.5607 17.0543 40.5607 20.7985C40.5607 21.2736 40.1743 21.6601 39.6991 21.6601C37.0096 21.6601 34.8217 23.8481 34.8217 26.5375V27.3347C34.8217 30.024 37.0096 32.2121 39.6991 32.2121H49.1708C49.8395 32.2121 50.3816 31.6699 50.3816 31.0013C50.3816 30.3326 49.8394 29.7904 49.1708 29.7904H39.6991C38.345 29.7904 37.2434 28.6889 37.2434 27.3348V26.5376C37.2434 25.1836 38.3451 24.082 39.6991 24.082C41.5094 24.082 42.9823 22.6091 42.9823 20.7986C42.9823 18.3897 44.9421 16.4299 47.351 16.4299H50.8581C51.1119 16.4299 51.3473 16.3515 51.5419 16.218C54.5562 20.4076 56.3095 25.533 56.3095 31.0013C56.3095 35.1886 55.2659 39.3364 53.2917 42.9968C52.9744 43.5854 53.194 44.3199 53.7828 44.6373C53.9656 44.7358 54.1625 44.7827 54.3565 44.7827C54.7874 44.7827 55.2045 44.5521 55.4235 44.1464C57.5875 40.134 58.7313 35.5885 58.7313 31.0013C58.7313 29.3419 58.5838 27.7113 58.3007 26.1234C60.5265 21.5063 61.7986 17.0657 61.978 13.2633C62.1759 9.0684 61.048 5.61868 58.7163 3.28702ZM22.3211 57.3375C14.6781 60.4163 8.33315 60.3351 5.00077 57.0025C1.9015 53.9034 2.15555 48.9403 2.91432 45.3227C3.28862 43.5385 3.87944 41.6496 4.66425 39.701C7.435 48.1177 14.0713 54.6172 22.3211 57.3375ZM5.7191 32.0842C5.70384 31.7233 5.69512 31.362 5.69512 31.0008C5.69512 28.7472 5.99083 26.522 6.57329 24.3703L8.39672 24.8705L8.9902 27.0336C7.78738 28.7211 6.69511 30.4089 5.7191 32.0842ZM24.7414 12.7067L30.3377 24.3644L29.4659 25.2361L22.331 15.9106C22.1188 15.6334 21.7976 15.4612 21.4493 15.4382C21.1018 15.4152 20.7599 15.5433 20.513 15.7902L13.394 22.9092C13.3331 22.9546 13.2761 23.0059 13.2241 23.063C12.9947 23.314 12.8814 23.6499 12.9119 23.9886L13.3286 28.6129L12.2345 29.707L10.5499 23.5649C10.4368 23.1527 10.1147 22.8306 9.70248 22.7175L3.56048 21.0328L4.65456 19.9386L9.27889 20.3553C9.61868 20.3862 9.9535 20.2725 10.2045 20.0431C10.2614 19.9912 10.3128 19.9344 10.3582 19.8735L17.4774 12.7543C17.7242 12.5075 17.8526 12.1662 17.8294 11.818C17.8064 11.4698 17.6341 11.1484 17.3569 10.9363L8.0315 3.80118L8.90326 2.92943L20.561 8.52578C21.0246 8.74823 21.5778 8.6539 21.9412 8.29037L25.6523 4.57921C27.0277 3.20371 28.9138 2.43283 30.8414 2.42568C30.8342 4.35337 30.0633 6.23941 28.6879 7.61491L27.8753 8.42757C27.875 8.42781 27.8748 8.42806 27.8747 8.4283L24.9766 11.3263C24.6132 11.69 24.5188 12.2432 24.7414 12.7067ZM57.3381 22.3211C54.6161 14.0693 48.1117 7.42915 39.6913 4.6601C47.2162 1.63421 53.6285 1.62404 57.0038 4.99953C60.336 8.33167 60.4171 14.6778 57.3381 22.3211Z" fill="black"/>
<path id="Vector_6" d="M51.68 47.6604C51.1749 47.2085 50.4196 47.255 49.9601 47.7662C49.958 47.7685 49.956 47.7708 49.9539 47.7731C49.4984 48.288 49.5383 49.0438 50.0451 49.4939C50.2774 49.7001 50.5616 49.8014 50.8454 49.8014C51.1813 49.8014 51.5169 49.6595 51.7648 49.3815C52.222 48.8684 52.1851 48.1124 51.68 47.6604Z" fill="black"/>
</g>
<defs>
<clipPath id="clip0_29_499">
<rect width="62" height="62" fill="white"/>
</clipPath>
</defs>
</svg>
