<svg width="194" height="194" viewBox="0 0 194 194" fill="none" xmlns="http://www.w3.org/2000/svg">
<g id="Union" opacity="0.5">
<path d="M3.54878 1.77439C3.54878 2.75429 2.75436 3.54878 1.77439 3.54878C0.794418 3.54878 0 2.75429 0 1.77439C0 0.79449 0.794418 0 1.77439 0C2.75436 0 3.54878 0.79449 3.54878 1.77439Z" fill="#013186"/>
<path d="M3.54878 28.9817C3.54878 29.9616 2.75436 30.7561 1.77439 30.7561C0.794418 30.7561 0 29.9616 0 28.9817C0 28.0018 0.794418 27.2073 1.77439 27.2073C2.75436 27.2073 3.54878 28.0018 3.54878 28.9817Z" fill="#013186"/>
<path d="M1.77439 57.9634C2.75436 57.9634 3.54878 57.1689 3.54878 56.189C3.54878 55.2091 2.75436 54.4146 1.77439 54.4146C0.794418 54.4146 0 55.2091 0 56.189C0 57.1689 0.794418 57.9634 1.77439 57.9634Z" fill="#013186"/>
<path d="M3.54878 83.3963C3.54878 84.3762 2.75436 85.1707 1.77439 85.1707C0.794418 85.1707 0 84.3762 0 83.3963C0 82.4164 0.794418 81.6219 1.77439 81.6219C2.75436 81.6219 3.54878 82.4164 3.54878 83.3963Z" fill="#013186"/>
<path d="M1.77439 112.378C2.75436 112.378 3.54878 111.584 3.54878 110.604C3.54878 109.624 2.75436 108.829 1.77439 108.829C0.794418 108.829 0 109.624 0 110.604C0 111.584 0.794418 112.378 1.77439 112.378Z" fill="#013186"/>
<path d="M3.54878 137.811C3.54878 138.791 2.75436 139.585 1.77439 139.585C0.794418 139.585 0 138.791 0 137.811C0 136.831 0.794418 136.037 1.77439 136.037C2.75436 136.037 3.54878 136.831 3.54878 137.811Z" fill="#013186"/>
<path d="M1.77439 166.793C2.75436 166.793 3.54878 165.998 3.54878 165.018C3.54878 164.038 2.75436 163.244 1.77439 163.244C0.794418 163.244 0 164.038 0 165.018C0 165.998 0.794418 166.793 1.77439 166.793Z" fill="#013186"/>
<path d="M3.54878 192.226C3.54878 193.206 2.75436 194 1.77439 194C0.794418 194 0 193.206 0 192.226C0 191.246 0.794418 190.451 1.77439 190.451C2.75436 190.451 3.54878 191.246 3.54878 192.226Z" fill="#013186"/>
<path d="M30.7561 1.77439C30.7561 2.75429 29.9617 3.54878 28.9817 3.54878C28.0017 3.54878 27.2073 2.75429 27.2073 1.77439C27.2073 0.79449 28.0017 0 28.9817 0C29.9617 0 30.7561 0.79449 30.7561 1.77439Z" fill="#013186"/>
<path d="M30.7561 28.9817C30.7561 29.9616 29.9617 30.7561 28.9817 30.7561C28.0017 30.7561 27.2073 29.9616 27.2073 28.9817C27.2073 28.0018 28.0017 27.2073 28.9817 27.2073C29.9617 27.2073 30.7561 28.0018 30.7561 28.9817Z" fill="#013186"/>
<path d="M28.9817 57.9634C29.9617 57.9634 30.7561 57.1689 30.7561 56.189C30.7561 55.2091 29.9617 54.4146 28.9817 54.4146C28.0017 54.4146 27.2073 55.2091 27.2073 56.189C27.2073 57.1689 28.0017 57.9634 28.9817 57.9634Z" fill="#013186"/>
<path d="M30.7561 83.3963C30.7561 84.3762 29.9617 85.1707 28.9817 85.1707C28.0017 85.1707 27.2073 84.3762 27.2073 83.3963C27.2073 82.4164 28.0017 81.6219 28.9817 81.6219C29.9617 81.6219 30.7561 82.4164 30.7561 83.3963Z" fill="#013186"/>
<path d="M28.9817 112.378C29.9617 112.378 30.7561 111.584 30.7561 110.604C30.7561 109.624 29.9617 108.829 28.9817 108.829C28.0017 108.829 27.2073 109.624 27.2073 110.604C27.2073 111.584 28.0017 112.378 28.9817 112.378Z" fill="#013186"/>
<path d="M30.7561 137.811C30.7561 138.791 29.9617 139.585 28.9817 139.585C28.0017 139.585 27.2073 138.791 27.2073 137.811C27.2073 136.831 28.0017 136.037 28.9817 136.037C29.9617 136.037 30.7561 136.831 30.7561 137.811Z" fill="#013186"/>
<path d="M28.9817 166.793C29.9617 166.793 30.7561 165.998 30.7561 165.018C30.7561 164.038 29.9617 163.244 28.9817 163.244C28.0017 163.244 27.2073 164.038 27.2073 165.018C27.2073 165.998 28.0017 166.793 28.9817 166.793Z" fill="#013186"/>
<path d="M30.7561 192.226C30.7561 193.206 29.9617 194 28.9817 194C28.0017 194 27.2073 193.206 27.2073 192.226C27.2073 191.246 28.0017 190.451 28.9817 190.451C29.9617 190.451 30.7561 191.246 30.7561 192.226Z" fill="#013186"/>
<path d="M56.189 3.54878C57.169 3.54878 57.9634 2.75429 57.9634 1.77439C57.9634 0.79449 57.169 0 56.189 0C55.209 0 54.4146 0.79449 54.4146 1.77439C54.4146 2.75429 55.209 3.54878 56.189 3.54878Z" fill="#013186"/>
<path d="M56.189 30.7561C57.169 30.7561 57.9634 29.9616 57.9634 28.9817C57.9634 28.0018 57.169 27.2073 56.189 27.2073C55.209 27.2073 54.4146 28.0018 54.4146 28.9817C54.4146 29.9616 55.209 30.7561 56.189 30.7561Z" fill="#013186"/>
<path d="M57.9634 56.189C57.9634 57.1689 57.169 57.9634 56.189 57.9634C55.209 57.9634 54.4146 57.1689 54.4146 56.189C54.4146 55.2091 55.209 54.4146 56.189 54.4146C57.169 54.4146 57.9634 55.2091 57.9634 56.189Z" fill="#013186"/>
<path d="M56.189 85.1707C57.169 85.1707 57.9634 84.3762 57.9634 83.3963C57.9634 82.4164 57.169 81.6219 56.189 81.6219C55.209 81.6219 54.4146 82.4164 54.4146 83.3963C54.4146 84.3762 55.209 85.1707 56.189 85.1707Z" fill="#013186"/>
<path d="M57.9634 110.604C57.9634 111.584 57.169 112.378 56.189 112.378C55.209 112.378 54.4146 111.584 54.4146 110.604C54.4146 109.624 55.209 108.829 56.189 108.829C57.169 108.829 57.9634 109.624 57.9634 110.604Z" fill="#013186"/>
<path d="M56.189 139.585C57.169 139.585 57.9634 138.791 57.9634 137.811C57.9634 136.831 57.169 136.037 56.189 136.037C55.209 136.037 54.4146 136.831 54.4146 137.811C54.4146 138.791 55.209 139.585 56.189 139.585Z" fill="#013186"/>
<path d="M57.9634 165.018C57.9634 165.998 57.169 166.793 56.189 166.793C55.209 166.793 54.4146 165.998 54.4146 165.018C54.4146 164.038 55.209 163.244 56.189 163.244C57.169 163.244 57.9634 164.038 57.9634 165.018Z" fill="#013186"/>
<path d="M56.189 194C57.169 194 57.9634 193.206 57.9634 192.226C57.9634 191.246 57.169 190.451 56.189 190.451C55.209 190.451 54.4146 191.246 54.4146 192.226C54.4146 193.206 55.209 194 56.189 194Z" fill="#013186"/>
<path d="M85.1707 1.77439C85.1707 2.75429 84.3763 3.54878 83.3963 3.54878C82.4164 3.54878 81.6219 2.75429 81.6219 1.77439C81.6219 0.79449 82.4164 0 83.3963 0C84.3763 0 85.1707 0.79449 85.1707 1.77439Z" fill="#013186"/>
<path d="M85.1707 28.9817C85.1707 29.9616 84.3763 30.7561 83.3963 30.7561C82.4164 30.7561 81.6219 29.9616 81.6219 28.9817C81.6219 28.0018 82.4164 27.2073 83.3963 27.2073C84.3763 27.2073 85.1707 28.0018 85.1707 28.9817Z" fill="#013186"/>
<path d="M83.3963 57.9634C84.3763 57.9634 85.1707 57.1689 85.1707 56.189C85.1707 55.2091 84.3763 54.4146 83.3963 54.4146C82.4164 54.4146 81.6219 55.2091 81.6219 56.189C81.6219 57.1689 82.4164 57.9634 83.3963 57.9634Z" fill="#013186"/>
<path d="M85.1707 83.3963C85.1707 84.3762 84.3763 85.1707 83.3963 85.1707C82.4164 85.1707 81.6219 84.3762 81.6219 83.3963C81.6219 82.4164 82.4164 81.6219 83.3963 81.6219C84.3763 81.6219 85.1707 82.4164 85.1707 83.3963Z" fill="#013186"/>
<path d="M83.3963 112.378C84.3763 112.378 85.1707 111.584 85.1707 110.604C85.1707 109.624 84.3763 108.829 83.3963 108.829C82.4164 108.829 81.6219 109.624 81.6219 110.604C81.6219 111.584 82.4164 112.378 83.3963 112.378Z" fill="#013186"/>
<path d="M85.1707 137.811C85.1707 138.791 84.3763 139.585 83.3963 139.585C82.4164 139.585 81.6219 138.791 81.6219 137.811C81.6219 136.831 82.4164 136.037 83.3963 136.037C84.3763 136.037 85.1707 136.831 85.1707 137.811Z" fill="#013186"/>
<path d="M83.3963 166.793C84.3763 166.793 85.1707 165.998 85.1707 165.018C85.1707 164.038 84.3763 163.244 83.3963 163.244C82.4164 163.244 81.6219 164.038 81.6219 165.018C81.6219 165.998 82.4164 166.793 83.3963 166.793Z" fill="#013186"/>
<path d="M85.1707 192.226C85.1707 193.206 84.3763 194 83.3963 194C82.4164 194 81.6219 193.206 81.6219 192.226C81.6219 191.246 82.4164 190.451 83.3963 190.451C84.3763 190.451 85.1707 191.246 85.1707 192.226Z" fill="#013186"/>
<path d="M110.604 3.54878C111.584 3.54878 112.378 2.75429 112.378 1.77439C112.378 0.79449 111.584 0 110.604 0C109.624 0 108.829 0.79449 108.829 1.77439C108.829 2.75429 109.624 3.54878 110.604 3.54878Z" fill="#013186"/>
<path d="M110.604 30.7561C111.584 30.7561 112.378 29.9616 112.378 28.9817C112.378 28.0018 111.584 27.2073 110.604 27.2073C109.624 27.2073 108.829 28.0018 108.829 28.9817C108.829 29.9616 109.624 30.7561 110.604 30.7561Z" fill="#013186"/>
<path d="M112.378 56.189C112.378 57.1689 111.584 57.9634 110.604 57.9634C109.624 57.9634 108.829 57.1689 108.829 56.189C108.829 55.2091 109.624 54.4146 110.604 54.4146C111.584 54.4146 112.378 55.2091 112.378 56.189Z" fill="#013186"/>
<path d="M110.604 85.1707C111.584 85.1707 112.378 84.3762 112.378 83.3963C112.378 82.4164 111.584 81.6219 110.604 81.6219C109.624 81.6219 108.829 82.4164 108.829 83.3963C108.829 84.3762 109.624 85.1707 110.604 85.1707Z" fill="#013186"/>
<path d="M112.378 110.604C112.378 111.584 111.584 112.378 110.604 112.378C109.624 112.378 108.829 111.584 108.829 110.604C108.829 109.624 109.624 108.829 110.604 108.829C111.584 108.829 112.378 109.624 112.378 110.604Z" fill="#013186"/>
<path d="M110.604 139.585C111.584 139.585 112.378 138.791 112.378 137.811C112.378 136.831 111.584 136.037 110.604 136.037C109.624 136.037 108.829 136.831 108.829 137.811C108.829 138.791 109.624 139.585 110.604 139.585Z" fill="#013186"/>
<path d="M112.378 165.018C112.378 165.998 111.584 166.793 110.604 166.793C109.624 166.793 108.829 165.998 108.829 165.018C108.829 164.038 109.624 163.244 110.604 163.244C111.584 163.244 112.378 164.038 112.378 165.018Z" fill="#013186"/>
<path d="M110.604 194C111.584 194 112.378 193.206 112.378 192.226C112.378 191.246 111.584 190.451 110.604 190.451C109.624 190.451 108.829 191.246 108.829 192.226C108.829 193.206 109.624 194 110.604 194Z" fill="#013186"/>
<path d="M139.585 1.77439C139.585 2.75429 138.791 3.54878 137.811 3.54878C136.831 3.54878 136.037 2.75429 136.037 1.77439C136.037 0.79449 136.831 0 137.811 0C138.791 0 139.585 0.79449 139.585 1.77439Z" fill="#013186"/>
<path d="M139.585 28.9817C139.585 29.9616 138.791 30.7561 137.811 30.7561C136.831 30.7561 136.037 29.9616 136.037 28.9817C136.037 28.0018 136.831 27.2073 137.811 27.2073C138.791 27.2073 139.585 28.0018 139.585 28.9817Z" fill="#013186"/>
<path d="M137.811 57.9634C138.791 57.9634 139.585 57.1689 139.585 56.189C139.585 55.2091 138.791 54.4146 137.811 54.4146C136.831 54.4146 136.037 55.2091 136.037 56.189C136.037 57.1689 136.831 57.9634 137.811 57.9634Z" fill="#013186"/>
<path d="M139.585 83.3963C139.585 84.3762 138.791 85.1707 137.811 85.1707C136.831 85.1707 136.037 84.3762 136.037 83.3963C136.037 82.4164 136.831 81.6219 137.811 81.6219C138.791 81.6219 139.585 82.4164 139.585 83.3963Z" fill="#013186"/>
<path d="M137.811 112.378C138.791 112.378 139.585 111.584 139.585 110.604C139.585 109.624 138.791 108.829 137.811 108.829C136.831 108.829 136.037 109.624 136.037 110.604C136.037 111.584 136.831 112.378 137.811 112.378Z" fill="#013186"/>
<path d="M139.585 137.811C139.585 138.791 138.791 139.585 137.811 139.585C136.831 139.585 136.037 138.791 136.037 137.811C136.037 136.831 136.831 136.037 137.811 136.037C138.791 136.037 139.585 136.831 139.585 137.811Z" fill="#013186"/>
<path d="M137.811 166.793C138.791 166.793 139.585 165.998 139.585 165.018C139.585 164.038 138.791 163.244 137.811 163.244C136.831 163.244 136.037 164.038 136.037 165.018C136.037 165.998 136.831 166.793 137.811 166.793Z" fill="#013186"/>
<path d="M139.585 192.226C139.585 193.206 138.791 194 137.811 194C136.831 194 136.037 193.206 136.037 192.226C136.037 191.246 136.831 190.451 137.811 190.451C138.791 190.451 139.585 191.246 139.585 192.226Z" fill="#013186"/>
<path d="M165.018 3.54878C165.998 3.54878 166.793 2.75429 166.793 1.77439C166.793 0.79449 165.998 0 165.018 0C164.038 0 163.244 0.79449 163.244 1.77439C163.244 2.75429 164.038 3.54878 165.018 3.54878Z" fill="#013186"/>
<path d="M165.018 30.7561C165.998 30.7561 166.793 29.9616 166.793 28.9817C166.793 28.0018 165.998 27.2073 165.018 27.2073C164.038 27.2073 163.244 28.0018 163.244 28.9817C163.244 29.9616 164.038 30.7561 165.018 30.7561Z" fill="#013186"/>
<path d="M166.793 56.189C166.793 57.1689 165.998 57.9634 165.018 57.9634C164.038 57.9634 163.244 57.1689 163.244 56.189C163.244 55.2091 164.038 54.4146 165.018 54.4146C165.998 54.4146 166.793 55.2091 166.793 56.189Z" fill="#013186"/>
<path d="M165.018 85.1707C165.998 85.1707 166.793 84.3762 166.793 83.3963C166.793 82.4164 165.998 81.6219 165.018 81.6219C164.038 81.6219 163.244 82.4164 163.244 83.3963C163.244 84.3762 164.038 85.1707 165.018 85.1707Z" fill="#013186"/>
<path d="M166.793 110.604C166.793 111.584 165.998 112.378 165.018 112.378C164.038 112.378 163.244 111.584 163.244 110.604C163.244 109.624 164.038 108.829 165.018 108.829C165.998 108.829 166.793 109.624 166.793 110.604Z" fill="#013186"/>
<path d="M165.018 139.585C165.998 139.585 166.793 138.791 166.793 137.811C166.793 136.831 165.998 136.037 165.018 136.037C164.038 136.037 163.244 136.831 163.244 137.811C163.244 138.791 164.038 139.585 165.018 139.585Z" fill="#013186"/>
<path d="M166.793 165.018C166.793 165.998 165.998 166.793 165.018 166.793C164.038 166.793 163.244 165.998 163.244 165.018C163.244 164.038 164.038 163.244 165.018 163.244C165.998 163.244 166.793 164.038 166.793 165.018Z" fill="#013186"/>
<path d="M165.018 194C165.998 194 166.793 193.206 166.793 192.226C166.793 191.246 165.998 190.451 165.018 190.451C164.038 190.451 163.244 191.246 163.244 192.226C163.244 193.206 164.038 194 165.018 194Z" fill="#013186"/>
<path d="M194 1.77439C194 2.75429 193.206 3.54878 192.226 3.54878C191.246 3.54878 190.451 2.75429 190.451 1.77439C190.451 0.79449 191.246 0 192.226 0C193.206 0 194 0.79449 194 1.77439Z" fill="#013186"/>
<path d="M194 28.9817C194 29.9616 193.206 30.7561 192.226 30.7561C191.246 30.7561 190.451 29.9616 190.451 28.9817C190.451 28.0018 191.246 27.2073 192.226 27.2073C193.206 27.2073 194 28.0018 194 28.9817Z" fill="#013186"/>
<path d="M192.226 57.9634C193.206 57.9634 194 57.1689 194 56.189C194 55.2091 193.206 54.4146 192.226 54.4146C191.246 54.4146 190.451 55.2091 190.451 56.189C190.451 57.1689 191.246 57.9634 192.226 57.9634Z" fill="#013186"/>
<path d="M194 83.3963C194 84.3762 193.206 85.1707 192.226 85.1707C191.246 85.1707 190.451 84.3762 190.451 83.3963C190.451 82.4164 191.246 81.6219 192.226 81.6219C193.206 81.6219 194 82.4164 194 83.3963Z" fill="#013186"/>
<path d="M192.226 112.378C193.206 112.378 194 111.584 194 110.604C194 109.624 193.206 108.829 192.226 108.829C191.246 108.829 190.451 109.624 190.451 110.604C190.451 111.584 191.246 112.378 192.226 112.378Z" fill="#013186"/>
<path d="M194 137.811C194 138.791 193.206 139.585 192.226 139.585C191.246 139.585 190.451 138.791 190.451 137.811C190.451 136.831 191.246 136.037 192.226 136.037C193.206 136.037 194 136.831 194 137.811Z" fill="#013186"/>
<path d="M192.226 166.793C193.206 166.793 194 165.998 194 165.018C194 164.038 193.206 163.244 192.226 163.244C191.246 163.244 190.451 164.038 190.451 165.018C190.451 165.998 191.246 166.793 192.226 166.793Z" fill="#013186"/>
<path d="M194 192.226C194 193.206 193.206 194 192.226 194C191.246 194 190.451 193.206 190.451 192.226C190.451 191.246 191.246 190.451 192.226 190.451C193.206 190.451 194 191.246 194 192.226Z" fill="#013186"/>
</g>
</svg>
