<svg width="67" height="67" viewBox="0 0 67 67" fill="none" xmlns="http://www.w3.org/2000/svg">
<g id="car 1" clip-path="url(#clip0_31_404)">
<g id="g9858">
<g id="g9860">
<g id="Clip path group">
<mask id="mask0_31_404" style="mask-type:luminance" maskUnits="userSpaceOnUse" x="0" y="0" width="67" height="67">
<g id="clipPath9866">
<path id="path9864" d="M0 -7.62939e-06H67V67H0V-7.62939e-06Z" fill="white"/>
</g>
</mask>
<g mask="url(#mask0_31_404)">
<g id="g9862">
<g id="g9868">
<path id="path9870" d="M64.1044 24.3294H59.5778C59.2863 24.3294 59.0106 24.3972 58.7625 24.5148C58.7936 25.0155 58.8098 25.5209 58.8098 26.0298V29.779C59.4122 30.2971 59.9484 30.8894 60.4042 31.5422H64.1044C65.1595 31.5422 66.0229 30.6788 66.0229 29.6237V26.2478C66.0229 25.1927 65.1595 24.3294 64.1044 24.3294Z" fill="#DFEBFA"/>
</g>
<g id="g9872">
<path id="path9874" d="M61.8837 29.6237V26.2478C61.8837 25.1927 62.747 24.3294 63.8022 24.3294H59.5778C59.2863 24.3294 59.0106 24.3973 58.7625 24.5148C58.7936 25.0155 58.8098 25.5209 58.8098 26.0298V29.779C59.4122 30.2971 59.9486 30.8894 60.4042 31.5422H63.8022C62.747 31.5422 61.8837 30.6788 61.8837 29.6237Z" fill="#B1DBFC"/>
</g>
<g id="g9880">
<path id="path9882" d="M7.16672 29.7789V26.0298C7.16672 25.4578 7.18897 24.8908 7.22836 24.3293H2.90437C1.84925 24.3293 0.98584 25.1925 0.98584 26.2478V29.6236C0.98584 30.6788 1.84925 31.5422 2.90437 31.5422H5.57233C6.02811 30.8892 6.56438 30.297 7.16672 29.7789Z" fill="#DFEBFA"/>
</g>
<g id="g9884">
<path id="path9886" d="M4.1071 29.6237V26.2478C4.1071 25.1927 4.97038 24.3294 6.02563 24.3294H2.90437C1.84925 24.3294 0.98584 25.1927 0.98584 26.2478V29.6237C0.98584 30.6788 1.84925 31.5422 2.90437 31.5422H5.57233C5.58358 31.526 5.59549 31.5104 5.60688 31.4945C4.75158 31.3018 4.1071 30.535 4.1071 29.6237Z" fill="#B1DBFC"/>
</g>
<g id="g9888">
<path id="path9890" d="M13.0047 27.656H52.9716C55.2959 27.656 57.4283 28.5224 59.0715 29.9482V26.166C59.0715 22.1506 58.1063 18.3406 56.3538 15.4384C54.4455 12.2782 51.83 10.5379 48.989 10.5379H16.9874C14.1464 10.5379 11.5309 12.2782 9.62247 15.4384C7.87 18.3406 6.90479 22.1506 6.90479 26.166V29.9482C8.54812 28.5224 10.6803 27.656 13.0047 27.656Z" fill="#FF4756"/>
</g>
<g id="g9892">
<path id="path9894" d="M11.1127 26.1661C11.1127 22.1505 12.0779 18.3408 13.8304 15.4384C15.7388 12.2783 18.3542 10.5379 21.1952 10.5379H16.9874C14.1464 10.5379 11.5309 12.2783 9.62247 15.4384C7.87 18.3408 6.90479 22.1505 6.90479 26.1661V29.9482C8.08998 28.9199 9.53022 28.1849 11.1127 27.8537V26.1661Z" fill="#FC2D39"/>
</g>
<g id="g9896">
<path id="path9898" d="M13.0049 27.6562H52.9718C53.945 27.6562 54.8849 27.8082 55.7694 28.0891V26.1663C55.7694 22.7536 54.9753 19.5594 53.5338 17.1718C52.2478 15.0423 50.6338 13.8695 48.9893 13.8695H16.9876C15.343 13.8695 13.7291 15.0423 12.443 17.1718C11.0014 19.5594 10.2075 22.7536 10.2075 26.1663V28.0891C11.0919 27.8082 12.0317 27.6562 13.0049 27.6562Z" fill="#60B8FE"/>
</g>
<g id="g9900">
<path id="path9902" d="M14.4152 26.1664C14.4152 22.7537 15.2091 19.5596 16.6508 17.172C17.9367 15.0424 19.5506 13.8695 21.1953 13.8695H16.9874C15.3427 13.8695 13.7288 15.0424 12.4429 17.172C11.0013 19.5596 10.2073 22.7537 10.2073 26.1664V28.0891C11.0918 27.8083 12.0315 27.6564 13.0048 27.6564H14.4152V26.1664Z" fill="#23A8FE"/>
</g>
<g id="g9904">
<path id="path9906" d="M44.7965 19.3392C40.7797 19.3392 37.5234 22.6242 37.5234 26.6761C37.5234 27.0086 37.5475 27.3354 37.59 27.6562H40.9013C40.824 27.3423 40.7822 27.0141 40.7822 26.6761C40.7822 24.4397 42.5795 22.6267 44.7965 22.6267C47.0135 22.6267 48.8107 24.4397 48.8107 26.6761C48.8107 27.0141 48.769 27.3423 48.6916 27.6562H52.003C52.0456 27.3354 52.0695 27.0086 52.0695 26.6761C52.0695 22.6242 48.8132 19.3392 44.7965 19.3392Z" fill="#23A8FE"/>
</g>
<g id="g9908">
<path id="path9910" d="M44.7965 19.3392C40.7797 19.3392 37.5234 22.6242 37.5234 26.6761C37.5234 27.0086 37.5475 27.3354 37.59 27.6562H40.9013C40.824 27.3423 40.7822 27.0141 40.7822 26.6761C40.7822 24.4397 42.5795 22.6267 44.7965 22.6267C47.0135 22.6267 48.8107 24.4397 48.8107 26.6761C48.8107 27.0141 48.769 27.3423 48.6916 27.6562H52.003C52.0456 27.3354 52.0695 27.0086 52.0695 26.6761C52.0695 22.6242 48.8132 19.3392 44.7965 19.3392Z" fill="#23A8FE"/>
</g>
<g id="g9912">
<path id="path9914" d="M41.1777 24.9219C41.8219 22.2737 43.8906 20.1915 46.5183 19.5478C45.9661 19.4125 45.39 19.3392 44.7966 19.3392C40.7799 19.3392 37.5237 22.6241 37.5237 26.6761C37.5237 27.0086 37.5476 27.3354 37.5902 27.6562H40.9016C40.8241 27.3423 40.7823 27.0141 40.7823 26.6761C40.7823 26.0477 40.9243 25.4527 41.1777 24.9219Z" fill="#0193FA"/>
</g>
<g id="g9916">
<path id="path9918" d="M52.9717 27.5069H13.0047C7.846 27.5069 3.625 31.7278 3.625 36.8867V46.48C3.76384 46.4401 3.90975 46.4173 4.06076 46.4173H25.9038C26.1935 46.03 26.6543 45.7769 27.1724 45.7769H38.8041C39.3221 45.7769 39.7829 46.03 40.0726 46.4173H61.9157C62.0668 46.4173 62.2127 46.4401 62.3514 46.48V36.8867C62.3514 31.7278 58.1306 27.5069 52.9717 27.5069Z" fill="#FF656F"/>
</g>
<g id="g9920">
<path id="path9922" d="M9.78364 36.8865C9.78364 31.7277 14.0045 27.5068 19.1632 27.5068H13.0047C7.84587 27.5068 3.625 31.7277 3.625 36.8865V46.48C3.76384 46.4399 3.90962 46.4172 4.06076 46.4172H9.78364V36.8865Z" fill="#FF4756"/>
</g>
<g id="g9924">
<path id="path9926" d="M39.8256 36.6663C41.565 36.6663 43.1794 35.7623 44.0884 34.2794L48.2398 27.5069H17.7366L21.8878 34.2794C22.7969 35.7623 24.4112 36.6663 26.1506 36.6663H39.8256Z" fill="#FF4756"/>
</g>
<g id="g9928">
<path id="path9930" d="M27.5476 34.2794L23.3964 27.5069H17.7366L21.888 34.2794C22.7969 35.7623 24.4113 36.6663 26.1507 36.6663H31.8104C30.071 36.6663 28.4567 35.7623 27.5476 34.2794Z" fill="#FC2D39"/>
</g>
<g id="g9932">
<path id="path9934" d="M57.7251 36.9172C57.7251 39.0301 56.0123 40.7429 53.8994 40.7429C51.7865 40.7429 50.0737 39.0301 50.0737 36.9172C50.0737 34.8044 51.7865 33.0917 53.8994 33.0917C56.0123 33.0917 57.7251 34.8044 57.7251 36.9172Z" fill="#FFD301"/>
</g>
<g id="g9936">
<path id="path9938" d="M15.9023 36.9172C15.9023 39.0301 14.1895 40.7429 12.0767 40.7429C9.9638 40.7429 8.25098 39.0301 8.25098 36.9172C8.25098 34.8044 9.9638 33.0917 12.0767 33.0917C14.1895 33.0917 15.9023 34.8044 15.9023 36.9172Z" fill="#FFD301"/>
</g>
<g id="g9940">
<path id="path9942" d="M53.8687 36.9172C53.8687 35.4952 54.6453 34.2552 55.7969 33.5959C55.2374 33.2757 54.5902 33.0917 53.8994 33.0917C51.7865 33.0917 50.0737 34.8044 50.0737 36.9172C50.0737 39.0301 51.7865 40.7429 53.8994 40.7429C54.5902 40.7429 55.2374 40.5589 55.7969 40.2387C54.6453 39.5794 53.8687 38.3394 53.8687 36.9172Z" fill="#FFC20C"/>
</g>
<g id="g9944">
<path id="path9946" d="M12.0461 36.9172C12.0461 35.4952 12.8228 34.2552 13.9744 33.5959C13.4149 33.2757 12.7676 33.0917 12.0769 33.0917C9.96404 33.0917 8.25122 34.8044 8.25122 36.9172C8.25122 39.0301 9.96404 40.7429 12.0769 40.7429C12.7676 40.7429 13.4149 40.5589 13.9744 40.2387C12.8228 39.5794 12.0461 38.3394 12.0461 36.9172Z" fill="#FFC20C"/>
</g>
<g id="g9948">
<path id="path9950" d="M48.6433 50.3237V54.5194C48.6433 55.588 49.5176 56.4622 50.586 56.4622H59.183C60.2516 56.4622 61.1257 55.588 61.1257 54.5194V50.3237H48.6433Z" fill="#665E68"/>
</g>
<g id="g9952">
<path id="path9954" d="M54.3661 54.5194V50.3237H48.6433V54.5194C48.6433 55.588 49.5175 56.4622 50.5859 56.4622H56.3088C55.2403 56.4622 54.3661 55.588 54.3661 54.5194Z" fill="#544E55"/>
</g>
<g id="g9956">
<path id="path9958" d="M4.85034 50.3237V54.5194C4.85034 55.588 5.72461 56.4622 6.79308 56.4622H15.39C16.4586 56.4622 17.3328 55.588 17.3328 54.5194V50.3237H4.85034Z" fill="#665E68"/>
</g>
<g id="g9960">
<path id="path9962" d="M10.5731 54.5194V50.3237H4.85034V54.5194C4.85034 55.588 5.72448 56.4622 6.79295 56.4622H12.5158C11.4474 56.4622 10.5731 55.588 10.5731 54.5194Z" fill="#544E55"/>
</g>
<g id="g9964">
<path id="path9966" d="M25.7177 49.7715V46.7077C25.7177 46.354 25.8365 46.0275 26.0344 45.7629H4.06044C3.18866 45.7629 2.47534 46.4762 2.47534 47.348V49.1311C2.47534 50.003 3.18866 50.7163 4.06044 50.7163H26.0344C25.8365 50.4517 25.7177 50.1252 25.7177 49.7715Z" fill="#DFEBFA"/>
</g>
<g id="g9968">
<path id="path9970" d="M8.19822 49.131V47.3479C8.19822 46.4761 8.91153 45.7628 9.78332 45.7628H4.06044C3.18866 45.7628 2.47534 46.4761 2.47534 47.3479V49.131C2.47534 50.0027 3.18866 50.7161 4.06044 50.7161H9.78332C8.91153 50.7161 8.19822 50.0027 8.19822 49.131Z" fill="#B1DBFC"/>
</g>
<g id="g9972">
<path id="path9974" d="M61.9156 45.7629H39.9417C40.1395 46.0274 40.2583 46.354 40.2583 46.7077V49.7715C40.2583 50.1252 40.1395 50.4517 39.9417 50.7163H61.9156C62.7873 50.7163 63.5007 50.0029 63.5007 49.1311V47.348C63.5007 46.4762 62.7873 45.7629 61.9156 45.7629Z" fill="#DFEBFA"/>
</g>
<g id="g9976">
<path id="path9978" d="M39.1964 51.3569H26.7794C25.9077 51.3569 25.1943 50.6436 25.1943 49.7718V46.708C25.1943 45.8362 25.9077 45.1228 26.7794 45.1228H39.1964C40.0683 45.1228 40.7815 45.8362 40.7815 46.708V49.7718C40.7815 50.6436 40.0683 51.3569 39.1964 51.3569Z" fill="#B1DBFC"/>
</g>
<g id="g9980">
<path id="path9982" d="M30.9171 49.7718V46.708C30.9171 45.8362 31.6304 45.1229 32.5022 45.1229H26.7794C25.9077 45.1229 25.1943 45.8362 25.1943 46.708V49.7718C25.1943 50.6436 25.9077 51.3569 26.7794 51.3569H32.5022C31.6304 51.3569 30.9171 50.6436 30.9171 49.7718Z" fill="#8BCAFF"/>
</g>
<g id="g9984">
<path id="path9986" d="M48.6392 50.7163V54.5193C48.6392 55.588 49.5134 56.4622 50.5819 56.4622H59.1788C60.2474 56.4622 61.1216 55.588 61.1216 54.5193V50.7163H48.6392Z" stroke="#050402" stroke-width="2" stroke-miterlimit="10" stroke-linecap="round" stroke-linejoin="round"/>
</g>
<g id="g9988">
<path id="path9990" d="M4.84619 50.7163V54.5193C4.84619 55.588 5.72046 56.4622 6.78893 56.4622H15.3859C16.4545 56.4622 17.3286 55.588 17.3286 54.5193V50.7163H4.84619Z" stroke="#050402" stroke-width="2" stroke-miterlimit="10" stroke-linecap="round" stroke-linejoin="round"/>
</g>
<g id="g9992">
<path id="path9994" d="M39.1923 51.3569H26.7753C25.9035 51.3569 25.1902 50.6436 25.1902 49.7718V46.708C25.1902 45.8362 25.9035 45.1228 26.7753 45.1228H39.1923C40.0642 45.1228 40.7774 45.8362 40.7774 46.708V49.7718C40.7774 50.6436 40.0642 51.3569 39.1923 51.3569Z" stroke="#050402" stroke-width="2" stroke-miterlimit="10" stroke-linecap="round" stroke-linejoin="round"/>
</g>
<g id="g9996">
<path id="path9998" d="M25.1903 49.7715V46.7077C25.1903 46.354 25.3091 46.0275 25.507 45.7629H4.05654C3.18475 45.7629 2.47144 46.4762 2.47144 47.348V49.1311C2.47144 50.003 3.18475 50.7163 4.05654 50.7163H25.507C25.3091 50.4517 25.1903 50.1252 25.1903 49.7715Z" stroke="#050402" stroke-width="2" stroke-miterlimit="10" stroke-linecap="round" stroke-linejoin="round"/>
</g>
<g id="g10000">
<path id="path10002" d="M61.9112 45.7629H40.4607C40.6586 46.0274 40.7774 46.354 40.7774 46.7077V49.7715C40.7774 50.1252 40.6586 50.4517 40.4607 50.7163H61.9112C62.7829 50.7163 63.4963 50.0029 63.4963 49.1311V47.348C63.4963 46.4762 62.7829 45.7629 61.9112 45.7629Z" stroke="#050402" stroke-width="2" stroke-miterlimit="10" stroke-linecap="round" stroke-linejoin="round"/>
</g>
<g id="g10004">
<path id="path10006" d="M13.0005 27.5068H52.9675C55.2918 27.5068 57.424 28.3656 59.0673 29.7791V26.0299C59.0673 22.0493 58.1021 18.2728 56.3497 15.3958C54.4412 12.2633 51.8257 10.5379 48.9848 10.5379H16.9832C14.1423 10.5379 11.5268 12.2633 9.61832 15.3958C7.86585 18.2728 6.90063 22.0493 6.90063 26.0299V29.7791C8.54397 28.3656 10.6762 27.5068 13.0005 27.5068Z" stroke="#050402" stroke-width="2" stroke-miterlimit="10" stroke-linecap="round" stroke-linejoin="round"/>
</g>
<g id="g10008">
<path id="path10010" d="M44.7923 19.2623C40.7756 19.2623 37.5193 22.5186 37.5193 26.5353C37.5193 26.8651 37.5434 27.1888 37.5858 27.5068H40.8972C40.8198 27.1958 40.7781 26.8705 40.7781 26.5353C40.7781 24.3184 42.5753 22.5211 44.7923 22.5211C47.0093 22.5211 48.8066 24.3184 48.8066 26.5353C48.8066 26.8705 48.7648 27.1958 48.6875 27.5068H51.9989C52.0413 27.1888 52.0654 26.8651 52.0654 26.5353C52.0654 22.5186 48.8091 19.2623 44.7923 19.2623Z" stroke="#050402" stroke-width="2" stroke-miterlimit="10" stroke-linecap="round" stroke-linejoin="round"/>
</g>
<g id="g10012">
<path id="path10014" d="M64.1 24.3294H59.8352C59.5437 24.3294 59.2679 24.3972 59.0198 24.5148C59.0511 25.0155 59.0673 25.5209 59.0673 26.0298V29.779C59.6696 30.2971 60.2059 30.8894 60.6615 31.5422H64.1C65.1551 31.5422 66.0185 30.6788 66.0185 29.6237V26.2478C66.0185 25.1927 65.1551 24.3294 64.1 24.3294Z" stroke="#050402" stroke-width="2" stroke-miterlimit="10" stroke-linecap="round" stroke-linejoin="round"/>
</g>
<g id="g10016">
<path id="path10018" d="M6.90061 29.7789V26.0298C6.90061 25.4578 6.92286 24.8908 6.96224 24.3293H2.89998C1.84486 24.3293 0.981445 25.1925 0.981445 26.2478V29.6236C0.981445 30.6788 1.84486 31.5422 2.89998 31.5422H5.30622C5.76187 30.8892 6.29826 30.297 6.90061 29.7789Z" stroke="#050402" stroke-width="2" stroke-miterlimit="10" stroke-linecap="round" stroke-linejoin="round"/>
</g>
<g id="g10020">
<path id="path10022" d="M39.8216 36.6663C41.561 36.6663 43.1753 35.7623 44.0844 34.2794L48.2356 27.5069H17.7324L21.8838 34.2794C22.7928 35.7623 24.4072 36.6663 26.1466 36.6663H39.8216Z" stroke="#050402" stroke-width="2" stroke-miterlimit="10" stroke-linecap="round" stroke-linejoin="round"/>
</g>
<g id="g10024">
<path id="path10026" d="M25.2234 40.3503H40.7446" stroke="#050402" stroke-width="2" stroke-miterlimit="10" stroke-linecap="round" stroke-linejoin="round"/>
</g>
<g id="g10028">
<path id="path10030" d="M57.7209 36.9172C57.7209 39.0301 56.0081 40.7429 53.8953 40.7429C51.7824 40.7429 50.0696 39.0301 50.0696 36.9172C50.0696 34.8044 51.7824 33.0917 53.8953 33.0917C56.0081 33.0917 57.7209 34.8044 57.7209 36.9172Z" stroke="#050402" stroke-width="2" stroke-miterlimit="10" stroke-linecap="round" stroke-linejoin="round"/>
</g>
<g id="g10032">
<path id="path10034" d="M15.8984 36.9172C15.8984 39.0301 14.1856 40.7429 12.0727 40.7429C9.95989 40.7429 8.24707 39.0301 8.24707 36.9172C8.24707 34.8044 9.95989 33.0917 12.0727 33.0917C14.1856 33.0917 15.8984 34.8044 15.8984 36.9172Z" stroke="#050402" stroke-width="2" stroke-miterlimit="10" stroke-linecap="round" stroke-linejoin="round"/>
</g>
<g id="g10036">
<path id="path10038" d="M31.2101 13.8404H16.9832C15.3386 13.8404 13.7247 15.0029 12.4387 17.114C10.9972 19.4807 10.2031 22.6471 10.2031 26.0299V27.936C11.0876 27.6576 12.0273 27.5069 13.0006 27.5069H52.9676C53.9408 27.5069 54.8805 27.6576 55.765 27.936V26.0299C55.765 22.6471 54.971 19.4807 53.5295 17.114C52.2434 15.0029 50.6295 13.8404 48.9849 13.8404H35.7902" stroke="#050402" stroke-width="2" stroke-miterlimit="10" stroke-linecap="round" stroke-linejoin="round"/>
</g>
<g id="g10040">
<path id="path10042" d="M62.3467 37.3469V36.8865C62.3467 31.7278 58.1259 27.5069 52.967 27.5069H13.0001C7.84123 27.5069 3.62036 31.7278 3.62036 36.8865V45.8257C3.75907 45.7856 3.90498 45.7629 4.05612 45.7629H25.5066C25.7963 45.3757 26.2569 45.1226 26.775 45.1226H39.192C39.7101 45.1226 40.1708 45.3757 40.4604 45.7629H61.9109C62.062 45.7629 62.2079 45.7856 62.3467 45.8257V41.927" stroke="#050402" stroke-width="2" stroke-miterlimit="10" stroke-linecap="round" stroke-linejoin="round"/>
</g>
</g>
</g>
</g>
</g>
</g>
</g>
<defs>
<clipPath id="clip0_31_404">
<rect width="67" height="67" fill="white"/>
</clipPath>
</defs>
</svg>
