<svg width="64" height="64" viewBox="0 0 64 64" fill="none" xmlns="http://www.w3.org/2000/svg">
<g id="travel (1) 1" clip-path="url(#clip0_29_575)">
<g id="Group">
<path id="Vector" d="M26.1757 18.4101L24.2343 20.3515L22.293 18.4101V8.70309L24.2343 6.76172L26.1757 8.70309V18.4101Z" fill="#DFF6FD"/>
<path id="Vector_2" d="M14.5274 18.4101L12.586 20.3515L10.6445 18.4101V8.70309L12.586 6.76172L14.5274 8.70309V18.4101Z" fill="#DFF6FD"/>
<path id="Vector_3" d="M7.25391 59.1798H29.5664C31.9827 59.1798 33.9414 57.221 33.9414 54.8048V22.7852C33.9414 20.3689 31.9827 18.4102 29.5664 18.4102H7.25391C4.83766 18.4102 2.87891 20.3689 2.87891 22.7852V54.8047C2.87891 57.2209 4.83766 59.1798 7.25391 59.1798Z" fill="#E53950"/>
<path id="Vector_4" d="M29.7726 18.415C30.0411 18.982 30.1914 19.616 30.1914 20.2852V50.1962C30.1914 53.7769 27.2886 56.6797 23.7079 56.6797H3.50386C3.43473 56.6797 3.36598 56.678 3.29761 56.6748C3.99873 58.1554 5.50673 59.1797 7.25386 59.1797H29.5664C31.9826 59.1797 33.9414 57.2209 33.9414 54.8047V22.7852C33.9414 20.438 32.0931 18.5227 29.7726 18.415Z" fill="#CA2E43"/>
<path id="Vector_5" d="M26.1758 53.3555C27.248 53.3555 28.1171 52.4862 28.1171 51.4141V26.1758C28.1171 25.1035 27.2479 24.2344 26.1758 24.2344C25.1035 24.2344 24.2344 25.1036 24.2344 26.1758V51.414C24.2344 52.4863 25.1036 53.3555 26.1758 53.3555Z" fill="#CA2E43"/>
<path id="Vector_6" d="M18.4101 53.3555C19.4824 53.3555 20.3515 52.4862 20.3515 51.4141V26.1758C20.3515 25.1035 19.4823 24.2344 18.4101 24.2344C17.3379 24.2344 16.4688 25.1036 16.4688 26.1758V51.414C16.4688 52.4863 17.338 53.3555 18.4101 53.3555Z" fill="#CA2E43"/>
<path id="Vector_7" d="M10.6445 53.3555C11.7167 53.3555 12.5859 52.4862 12.5859 51.4141V26.1758C12.5859 25.1035 11.7166 24.2344 10.6445 24.2344C9.57225 24.2344 8.70312 25.1036 8.70312 26.1758V51.414C8.70312 52.4863 9.57237 53.3555 10.6445 53.3555Z" fill="#CA2E43"/>
<path id="Vector_8" d="M28.1174 63.0624C29.1896 63.0624 30.0588 62.1933 30.0588 61.1211C30.0588 60.0489 29.1896 59.1797 28.1174 59.1797C27.0452 59.1797 26.176 60.0489 26.176 61.1211C26.176 62.1933 27.0452 63.0624 28.1174 63.0624Z" fill="#0055A3"/>
<path id="Vector_9" d="M8.70309 63.0624C9.77529 63.0624 10.6445 62.1933 10.6445 61.1211C10.6445 60.0489 9.77529 59.1797 8.70309 59.1797C7.6309 59.1797 6.76172 60.0489 6.76172 61.1211C6.76172 62.1933 7.6309 63.0624 8.70309 63.0624Z" fill="#0055A3"/>
<path id="Vector_10" d="M35.8164 63.0625H57.3047C58.3402 63.0625 59.1797 62.223 59.1797 61.1875V49.9648C59.1797 47.5486 57.2209 45.5898 54.8047 45.5898H38.3164C35.9002 45.5898 33.9414 47.5486 33.9414 49.9648V61.1875C33.9414 62.223 34.7809 63.0625 35.8164 63.0625Z" fill="#FD6930"/>
<path id="Vector_11" d="M54.8048 45.5898H54.3837C54.6537 46.1581 54.8048 46.7938 54.8048 47.4648V54.8397C54.8048 58.0003 52.2427 60.5625 49.082 60.5625H33.9414V61.1875C33.9414 62.223 34.7809 63.0625 35.8164 63.0625H57.3047C58.3402 63.0625 59.1797 62.223 59.1797 61.1875V49.9648C59.1798 47.5486 57.221 45.5898 54.8048 45.5898Z" fill="#FD5426"/>
<path id="Vector_12" d="M8.01172 0.9375H28.8086C29.499 0.9375 30.0586 1.49713 30.0586 2.1875V3.57025C30.0586 4.26062 29.499 4.82025 28.8086 4.82025H28.0508C27.0153 4.82025 26.1758 5.65975 26.1758 6.69525V8.703H22.2931V6.07025C22.2931 5.37988 21.7335 4.82025 21.0431 4.82025H15.7775C15.0871 4.82025 14.5275 5.37988 14.5275 6.07025V8.703H10.6445V6.69525C10.6445 5.65975 9.80497 4.82025 8.76947 4.82025H8.01172C7.32134 4.82025 6.76172 4.26062 6.76172 3.57025V2.1875C6.76172 1.49713 7.32134 0.9375 8.01172 0.9375Z" fill="#0055A3"/>
<path id="Vector_13" d="M33.9414 35.8828H56.1212C58.8825 35.8828 61.1212 33.6441 61.1212 30.8827V5.9375C61.1212 3.17613 58.8825 0.9375 56.1212 0.9375H35.1914C34.501 0.9375 33.9414 1.49713 33.9414 2.1875V35.8828Z" fill="#01C0FA"/>
<path id="Vector_14" d="M47.5312 22.293C51.8201 22.293 55.2969 18.8162 55.2969 14.5273C55.2969 10.2385 51.8201 6.76172 47.5312 6.76172C43.2424 6.76172 39.7656 10.2385 39.7656 14.5273C39.7656 18.8162 43.2424 22.293 47.5312 22.293Z" fill="#FFC344"/>
<path id="Vector_15" d="M40.3906 30.0585H54.6719C55.017 30.0585 55.2969 29.7787 55.2969 29.4335V26.8008C55.2969 26.4557 55.017 26.1758 54.6719 26.1758H40.3906C40.0455 26.1758 39.7656 26.4557 39.7656 26.8008V29.4335C39.7656 29.7787 40.0455 30.0585 40.3906 30.0585Z" fill="#FFC344"/>
<path id="Vector_16" d="M2.87891 30.5508V54.8047C2.87891 57.2209 4.83766 59.1797 7.25391 59.1797H29.5664C31.9827 59.1797 33.9414 57.2209 33.9414 54.8047V22.7852C33.9414 20.3689 31.9827 18.4102 29.5664 18.4102H7.25391C4.83766 18.4102 2.87891 20.3689 2.87891 22.7852V26.1758" stroke="black" stroke-width="2" stroke-miterlimit="10" stroke-linecap="round" stroke-linejoin="round"/>
<path id="Vector_17" d="M26.1758 53.3555C27.248 53.3555 28.1171 52.4862 28.1171 51.4141V26.1758C28.1171 25.1035 27.2479 24.2344 26.1758 24.2344C25.1035 24.2344 24.2344 25.1036 24.2344 26.1758V51.414C24.2344 52.4863 25.1036 53.3555 26.1758 53.3555Z" stroke="black" stroke-width="2" stroke-miterlimit="10" stroke-linecap="round" stroke-linejoin="round"/>
<path id="Vector_18" d="M18.4101 53.3555C19.4824 53.3555 20.3515 52.4862 20.3515 51.4141V26.1758C20.3515 25.1035 19.4823 24.2344 18.4101 24.2344C17.3379 24.2344 16.4688 25.1036 16.4688 26.1758V51.414C16.4688 52.4863 17.338 53.3555 18.4101 53.3555Z" stroke="black" stroke-width="2" stroke-miterlimit="10" stroke-linecap="round" stroke-linejoin="round"/>
<path id="Vector_19" d="M10.6445 53.3555C11.7167 53.3555 12.5859 52.4862 12.5859 51.4141V26.1758C12.5859 25.1035 11.7166 24.2344 10.6445 24.2344C9.57225 24.2344 8.70312 25.1036 8.70312 26.1758V51.414C8.70312 52.4863 9.57237 53.3555 10.6445 53.3555Z" stroke="black" stroke-width="2" stroke-miterlimit="10" stroke-linecap="round" stroke-linejoin="round"/>
<path id="Vector_20" d="M28.1174 63.0624C29.1896 63.0624 30.0588 62.1933 30.0588 61.1211C30.0588 60.0489 29.1896 59.1797 28.1174 59.1797C27.0452 59.1797 26.176 60.0489 26.176 61.1211C26.176 62.1933 27.0452 63.0624 28.1174 63.0624Z" stroke="black" stroke-width="2" stroke-miterlimit="10" stroke-linecap="round" stroke-linejoin="round"/>
<path id="Vector_21" d="M8.70309 63.0624C9.77529 63.0624 10.6445 62.1933 10.6445 61.1211C10.6445 60.0489 9.77529 59.1797 8.70309 59.1797C7.6309 59.1797 6.76172 60.0489 6.76172 61.1211C6.76172 62.1933 7.6309 63.0624 8.70309 63.0624Z" stroke="black" stroke-width="2" stroke-miterlimit="10" stroke-linecap="round" stroke-linejoin="round"/>
<path id="Vector_22" d="M35.8164 63.0625H57.3047C58.3402 63.0625 59.1797 62.223 59.1797 61.1875V49.9648C59.1797 47.5486 57.2209 45.5898 54.8047 45.5898H38.3164C35.9002 45.5898 33.9414 47.5486 33.9414 49.9648V61.1875C33.9414 62.223 34.7809 63.0625 35.8164 63.0625Z" stroke="black" stroke-width="2" stroke-miterlimit="10" stroke-linecap="round" stroke-linejoin="round"/>
<path id="Vector_23" d="M41.707 57.9187V63.0625" stroke="black" stroke-width="2" stroke-miterlimit="10" stroke-linecap="round" stroke-linejoin="round"/>
<path id="Vector_24" d="M51.414 63.0625V42.957C51.414 42.2667 50.8544 41.707 50.164 41.707H42.957C42.2667 41.707 41.707 42.2667 41.707 42.957V53.5437" stroke="black" stroke-width="2" stroke-miterlimit="10" stroke-linecap="round" stroke-linejoin="round"/>
<path id="Vector_25" d="M8.01172 0.9375H28.8086C29.499 0.9375 30.0586 1.49713 30.0586 2.1875V3.57025C30.0586 4.26063 29.499 4.82025 28.8086 4.82025H28.0508C27.0153 4.82025 26.1758 5.65975 26.1758 6.69525V8.703H22.2931V6.07025C22.2931 5.37988 21.7335 4.82025 21.0431 4.82025H15.7775C15.0871 4.82025 14.5275 5.37988 14.5275 6.07025V8.703H10.6445V6.69525C10.6445 5.65975 9.80497 4.82025 8.76947 4.82025H8.01172C7.32134 4.82025 6.76172 4.26063 6.76172 3.57025V2.1875C6.76172 1.49713 7.32134 0.9375 8.01172 0.9375Z" stroke="black" stroke-width="2" stroke-miterlimit="10" stroke-linecap="round" stroke-linejoin="round"/>
<path id="Vector_26" d="M52.8883 35.8828H56.1212C58.8825 35.8828 61.1212 33.6441 61.1212 30.8827V5.9375C61.1212 3.17613 58.8825 0.9375 56.1212 0.9375H35.1914C34.501 0.9375 33.9414 1.49713 33.9414 2.1875V35.8828H48.5133" stroke="black" stroke-width="2" stroke-miterlimit="10" stroke-linecap="round" stroke-linejoin="round"/>
<path id="Vector_27" d="M47.5312 22.293C51.8201 22.293 55.2969 18.8162 55.2969 14.5273C55.2969 10.2385 51.8201 6.76172 47.5312 6.76172C43.2424 6.76172 39.7656 10.2385 39.7656 14.5273C39.7656 18.8162 43.2424 22.293 47.5312 22.293Z" stroke="black" stroke-width="2" stroke-miterlimit="10" stroke-linecap="round" stroke-linejoin="round"/>
<path id="Vector_28" d="M47.5313 22.293C49.1396 22.293 50.4434 18.8162 50.4434 14.5273C50.4434 10.2385 49.1396 6.76172 47.5313 6.76172C45.9229 6.76172 44.6191 10.2385 44.6191 14.5273C44.6191 18.8162 45.9229 22.293 47.5313 22.293Z" stroke="black" stroke-width="2" stroke-miterlimit="10" stroke-linecap="round" stroke-linejoin="round"/>
<path id="Vector_29" d="M55.2969 14.5273H39.7656" stroke="black" stroke-width="2" stroke-miterlimit="10" stroke-linecap="round" stroke-linejoin="round"/>
<path id="Vector_30" d="M40.3906 30.0585H54.6719C55.017 30.0585 55.2969 29.7787 55.2969 29.4335V26.8008C55.2969 26.4557 55.017 26.1758 54.6719 26.1758H40.3906C40.0455 26.1758 39.7656 26.4557 39.7656 26.8008V29.4335C39.7656 29.7787 40.0455 30.0585 40.3906 30.0585Z" stroke="black" stroke-width="2" stroke-miterlimit="10" stroke-linecap="round" stroke-linejoin="round"/>
<path id="Vector_31" d="M26.1758 8.70312V18.4101" stroke="black" stroke-width="2" stroke-miterlimit="10" stroke-linecap="round" stroke-linejoin="round"/>
<path id="Vector_32" d="M22.293 18.4101V8.70312" stroke="black" stroke-width="2" stroke-miterlimit="10" stroke-linecap="round" stroke-linejoin="round"/>
<path id="Vector_33" d="M14.5273 8.70312V18.4101" stroke="black" stroke-width="2" stroke-miterlimit="10" stroke-linecap="round" stroke-linejoin="round"/>
<path id="Vector_34" d="M10.6445 18.4101V8.70312" stroke="black" stroke-width="2" stroke-miterlimit="10" stroke-linecap="round" stroke-linejoin="round"/>
</g>
</g>
<defs>
<clipPath id="clip0_29_575">
<rect width="64" height="64" fill="white"/>
</clipPath>
</defs>
</svg>
