<svg width="11" height="7" viewBox="0 0 11 7" fill="none" xmlns="http://www.w3.org/2000/svg">
<path d="M5.99784 5.99994L5.99705 5.99995C5.93125 6.00033 5.86602 5.98772 5.8051 5.96283C5.74443 5.93806 5.68923 5.9016 5.64264 5.85553C5.64244 5.85534 5.64225 5.85514 5.64205 5.85495L1.64349 1.85639C1.54896 1.76185 1.49585 1.63363 1.49585 1.49994C1.49585 1.36625 1.54896 1.23803 1.64349 1.14349C1.73803 1.04896 1.86625 0.99585 1.99994 0.99585C2.13353 0.99585 2.26166 1.04888 2.35617 1.14328C2.35624 1.14335 2.35632 1.14342 2.35639 1.14349L5.64585 4.44296L5.9994 4.79758L6.35349 4.44349L9.62749 1.1695C9.72127 1.09425 9.8392 1.0552 9.95969 1.05986C10.0855 1.06472 10.2049 1.11688 10.294 1.20593C10.383 1.29498 10.4352 1.41435 10.44 1.54019C10.4447 1.66068 10.4056 1.77861 10.3304 1.87239L6.34784 5.85495C6.34764 5.85514 6.34745 5.85533 6.34725 5.85553C6.25418 5.94754 6.12873 5.99939 5.99784 5.99994Z" fill="#A098AE" stroke="#A098AE"/>
</svg>
