<svg width="39" height="38" viewBox="0 0 39 38" fill="none" xmlns="http://www.w3.org/2000/svg">
<path opacity="0.2" d="M19.4363 37.9922C8.99533 37.9922 0.53125 29.5281 0.53125 19.0872C0.53125 8.6462 8.99532 0.182129 19.4363 0.182129C29.8773 0.182128 38.3413 8.6462 38.3413 19.0872C38.3413 29.5281 29.8773 37.9922 19.4363 37.9922Z" fill="white"/>
<path d="M7.80664 13.1015L19.4361 18.9155L31.0657 13.1015C31.0226 12.3605 30.6979 11.6639 30.158 11.1546C29.618 10.6452 28.9038 10.3616 28.1616 10.3617H10.7107C9.96848 10.3616 9.25425 10.6452 8.71434 11.1546C8.17443 11.6639 7.84969 12.3605 7.80664 13.1015Z" fill="white"/>
<path d="M31.0705 16.3501L19.4366 22.167L7.80273 16.3501V24.9039C7.80273 25.6753 8.10916 26.4151 8.6546 26.9605C9.20005 27.5059 9.93983 27.8124 10.7112 27.8124H28.162C28.9334 27.8124 29.6732 27.5059 30.2186 26.9605C30.7641 26.4151 31.0705 25.6753 31.0705 24.9039V16.3501Z" fill="white"/>
</svg>
