<svg width="29" height="19" viewBox="0 0 29 19" fill="none" xmlns="http://www.w3.org/2000/svg">
<path d="M2.1719 0H26.8281C28.0277 0 29 0.972349 29 2.17188V16.8281C29 18.0276 28.0277 19 26.8281 19H2.1719C0.972421 19 1.52588e-05 18.0277 1.52588e-05 16.8281V2.17188C1.52588e-05 0.972349 0.972364 0 2.1719 0Z" fill="#41479B"/>
<path d="M0.0300917 1.8129C0.20126 0.784359 1.09476 0 2.1719 0H2.737L12 6.06887V5.66095e-05H17V6.06893L26.263 5.66095e-05H26.8281C27.9053 5.66095e-05 28.7988 0.784359 28.9699 1.81295L21.0528 7.0001H29V12.0001H21.0528L28.9699 17.1871C28.7988 18.2157 27.9053 19 26.8281 19H26.263L17 12.9312V19H12V12.9312L2.737 19H2.1719C1.09476 19 0.20126 18.2157 0.0300917 17.1871L7.9472 12H1.52588e-05V6.99998H7.9472L0.0300917 1.8129Z" fill="#F5F5F5"/>
<path d="M13 0H16V7.99997H29V11H16V19H13V11H1.52588e-05V7.99997H13V0Z" fill="#FF4B55"/>
<path d="M27.5957 18.86L17.0275 12H18.8643L28.4775 18.2402C28.2423 18.5147 27.94 18.7299 27.5957 18.86Z" fill="#FF4B55"/>
<path d="M9.3803 12H11.217L0.981178 18.6442C0.694747 18.4561 0.455723 18.202 0.285234 17.9036L9.3803 12Z" fill="#FF4B55"/>
<path d="M28.7708 1.20065L19.8368 6.99991H18.0001L28.1236 0.428467C28.3954 0.630787 28.6178 0.895298 28.7708 1.20065Z" fill="#FF4B55"/>
<path d="M10.1633 7.00012L0.532374 0.748418C0.770208 0.474787 1.07488 0.260912 1.42158 0.133301L12 7.00012H10.1633Z" fill="#FF4B55"/>
</svg>
