<svg width="539" height="411" viewBox="0 0 539 411" fill="none" xmlns="http://www.w3.org/2000/svg">
<path d="M104.254 246.681C102.986 246.104 100.449 246.565 99.6414 245.873C97.2196 243.682 91.3379 239.531 89.3774 236.532C86.7249 232.726 87.1862 227.883 79.6901 227.883C77.2683 227.883 73.4625 229.843 71.7327 229.843C71.3867 229.843 64.8131 227.191 64.8131 227.191C64.8131 226.96 62.3913 224.538 61.6993 224.538C59.3928 224.538 56.971 224.538 55.5871 226.037C54.5492 226.153 53.7419 225.807 51.7814 225.691C47.8603 225.691 43.3626 228.575 43.3626 231.804C43.3626 239.876 53.6266 241.145 60.5461 243.567C69.3108 246.565 76.9223 249.679 88.1089 249.794C88.1089 250.025 87.6475 251.409 87.3016 252.101L89.6081 252.101C93.7598 250.717 103.678 251.178 104.254 246.681Z" fill="#FEFEE9"/>
<path d="M407.329 28.9466C408.251 30.0999 408.828 31.5991 408.828 33.0983C408.828 33.329 408.943 33.5597 409.059 33.7903C409.174 34.021 409.289 34.2516 409.405 34.4822C410.327 35.9815 410.443 37.8267 409.866 39.3259C409.866 40.3638 409.866 41.4017 410.673 42.0937C411.942 43.1316 413.787 42.2091 414.94 42.2091L420.13 42.2091C421.399 42.2091 421.168 44.6309 422.437 44.6309C425.089 44.6309 428.664 43.247 428.664 40.1332L428.664 37.8267C428.664 36.4428 426.819 33.7903 425.781 33.7903C424.974 33.7903 424.743 34.0209 423.82 34.5975C422.898 33.7903 422.091 31.4838 422.091 30.7918C422.091 30.4458 422.437 29.2926 420.361 29.2926C418.861 29.2926 417.939 30.4459 417.132 31.8298C413.441 31.2532 413.095 27.9087 409.289 27.9087C408.597 28.1393 407.906 28.4853 407.329 28.9466Z" fill="#FEFEE9"/>
<path d="M444.579 40.3639C444.579 41.8631 446.424 42.901 448.039 42.901C448.039 41.8631 447.231 39.5566 446.309 39.5566C445.847 39.5566 444.579 40.0179 444.579 40.3639Z" fill="#FEFEE9"/>
<path d="M440.196 44.6309L438.928 44.6309C438.813 44.6309 437.659 43.7083 436.967 43.7083C436.391 43.7083 435.929 44.8616 435.699 45.6688L434.315 45.6688C433.969 45.3229 433.738 45.0922 433.277 45.0922C432.47 45.0922 432.008 45.0922 430.855 45.0922L430.855 46.1301C431.432 45.8994 431.893 45.4381 433.162 46.1301C432.816 46.4761 432.354 47.2834 432.354 48.3213C431.086 47.86 430.855 48.3213 429.471 48.3213C428.203 48.3213 427.511 46.9374 426.242 46.9374C424.974 46.9374 424.974 47.86 424.974 49.0132C424.974 50.0512 425.781 50.7432 425.781 52.0117C425.781 52.3577 425.665 52.819 425.665 53.165C425.089 52.9343 424.743 52.2424 423.474 52.2424C421.975 52.2424 421.629 54.0875 421.744 55.3561L419.438 55.3561C417.939 54.6642 416.555 51.7811 416.555 49.3593C414.825 49.3593 414.133 50.3971 412.057 50.3971C409.751 50.3971 409.635 46.7068 407.329 46.5914C406.983 46.5914 406.521 46.9374 406.521 47.2834C406.521 47.9753 407.329 47.86 407.329 48.6673C407.329 50.1665 405.484 50.6278 405.484 52.3577C405.484 53.2803 406.06 54.2029 406.983 54.7795C406.637 54.7795 406.176 55.0102 405.945 55.0102C403.754 55.0102 404.561 52.3577 403.984 50.5125C403.869 50.1665 398.91 46.1301 398.333 45.7841L397.411 45.7841L397.411 46.7067C397.987 47.2834 398.679 47.6294 398.679 48.552L398.679 50.3971C399.948 50.3971 401.332 51.2045 401.332 52.5884C401.332 53.511 400.409 54.0876 400.409 55.0102C400.409 56.9707 401.793 60.5458 401.793 61.9297L401.793 67.2347C401.793 68.8492 402.716 69.7718 404.1 70.925L405.138 70.925C405.138 70.1178 405.253 69.6565 405.714 68.2726C407.675 69.3105 409.059 72.5396 411.826 72.5396C413.326 72.5396 414.71 71.3863 414.71 69.7718C414.71 68.7338 414.825 68.9645 414.133 68.0419L414.71 68.7339C414.364 68.1573 413.902 68.0419 413.672 67.1193L414.71 67.1193C414.825 67.4653 415.286 67.8113 415.748 67.8113C417.016 67.8113 417.708 66.4274 418.977 66.4274C422.667 66.4274 423.705 62.9676 426.127 60.8918C427.972 59.2772 431.662 59.7385 432.585 57.2014C432.931 56.1634 432.239 55.4714 432.7 54.2029C433.277 54.3182 433.738 54.7795 433.969 55.2408C437.198 55.2408 439.043 59.3925 443.31 58.9312L443.31 51.0891C443.772 50.8585 444.118 50.7431 444.579 50.7431C446.77 51.2044 446.424 54.0876 448.5 54.0876C448.846 54.0876 449.884 53.2803 449.884 52.819L449.884 49.0132C449.884 48.206 448.615 46.8221 447.923 46.8221C447.116 46.8221 446.539 46.2455 445.271 46.2455C445.271 45.3229 444.694 44.4002 443.426 44.4002C443.08 44.4002 442.618 44.7462 442.503 45.0922C442.157 45.0922 441.58 44.8616 441.58 44.5156C441.58 44.2849 442.042 43.593 442.964 43.593L442.964 41.5171C441.119 41.5171 440.658 42.555 440.196 44.6309Z" fill="#FEFEE9"/>
<path d="M422.898 48.8978C422.437 48.0905 421.86 47.9752 421.053 47.9752L421.053 49.4744C421.86 49.4744 422.437 49.5897 422.898 49.5897L422.898 48.8978Z" fill="#FEFEE9"/>
<path d="M333.405 122.014C333.867 120.054 332.368 119.246 332.368 117.516C332.368 115.671 334.328 114.518 332.829 111.635L331.791 111.635C330.984 111.981 331.214 113.134 330.984 113.48C330.176 115.556 327.639 117.286 327.063 119.592C326.601 119.592 326.486 120.284 326.486 120.63C326.486 120.976 327.063 121.438 327.524 121.438C328.792 121.438 328.908 120.746 329.946 120.746C330.522 120.746 331.676 121.438 331.676 121.438L333.405 122.014Z" fill="#FEFEE9"/>
<path d="M350.474 99.8716C351.396 100.333 354.741 100.679 356.586 101.14C356.701 100.794 357.509 100.564 358.316 100.679C358.201 99.987 356.817 99.5256 356.817 98.603C356.817 98.3724 356.471 97.9111 356.471 97.6804C355.202 98.1417 350.82 98.4877 350.474 99.8716Z" fill="#FEFEE9"/>
<path d="M337.904 98.257C337.904 99.295 340.095 101.717 342.171 101.717C344.592 101.717 345.976 102.063 348.398 100.91C348.398 100.564 349.321 100.102 349.321 99.1796C349.321 98.0264 347.822 97.7958 347.36 96.4119C346.092 96.5272 345.4 97.6804 344.131 97.6804C343.093 97.6804 342.286 96.9884 341.017 96.8731C339.864 96.9884 337.904 96.8731 337.904 98.257Z" fill="#FEFEE9"/>
<path d="M340.094 76.8065C340.094 77.1525 340.44 77.8444 340.901 77.8444C341.363 77.8444 342.285 77.1525 342.631 77.1525C342.516 76.3452 342.055 75.7686 341.593 75.0767C341.247 75.192 340.094 76.2299 340.094 76.8065Z" fill="#FEFEE9"/>
<path d="M427.511 106.791C429.01 106.791 428.78 105.869 430.625 105.869L430.625 103.331C430.164 103.331 429.587 103.331 429.126 103.331C427.627 103.331 427.165 104.831 427.165 106.33C426.704 106.33 426.358 106.33 425.897 106.33C426.589 106.445 426.243 106.676 427.511 106.791Z" fill="#FEFEE9"/>
<path d="M425.896 108.29L426.473 108.06C426.358 107.944 426.012 107.483 425.666 107.368C425.55 107.483 424.743 108.29 424.743 109.213C424.743 112.096 430.048 111.174 430.855 113.365C433.392 112.673 434.776 112.557 434.776 109.905C434.776 108.982 430.855 107.368 430.163 107.368C429.241 107.368 428.087 108.752 427.742 110.136C427.165 110.136 426.127 109.213 425.896 108.29Z" fill="#FEFEE9"/>
<path d="M442.273 133.893C441.466 133.893 440.889 133.431 440.312 133.893C441.696 134.815 442.504 135.853 444.118 135.968C444.925 135.968 445.502 136.776 446.079 137.006C445.963 134.585 443.195 133.893 442.273 133.893Z" fill="#FEFEE9"/>
<path d="M446.886 148.885C446.886 149.462 447.924 151.191 448.385 151.191C448.962 151.191 449.654 151.191 450.23 151.191C450.346 151.422 451.499 152.114 452.191 152.229C452.537 151.653 452.767 151.422 453.69 150.73C453.69 150.73 452.883 149.577 452.191 149.577C451.383 149.577 450.922 150.038 450.346 150.499C450.23 149.462 449.308 148.654 449.077 147.616C448.27 147.616 446.886 147.732 446.886 148.885Z" fill="#FEFEE9"/>
<path d="M318.298 159.725C318.298 160.648 317.491 161.34 318.644 163.07C319.451 160.879 320.143 157.65 319.567 154.766C318.644 156.15 318.298 158.572 318.298 159.725Z" fill="#FEFEE9"/>
<path d="M320.028 192.593C320.489 193.4 319.912 194.092 321.412 194.323C320.95 192.017 319.451 188.557 318.298 186.596C317.952 186.596 317.491 186.942 317.491 187.288C317.029 187.288 316.683 187.865 316.683 188.211C316.683 189.364 317.491 191.901 318.413 192.363C318.874 192.478 319.797 192.132 320.028 192.593Z" fill="#FEFEE9"/>
<path d="M455.304 85.5713C456.112 87.1858 456.112 87.1858 456.112 89.031L453.805 89.031C453.574 88.6851 453.344 87.9931 452.767 87.5318C452.537 88.2238 452.075 88.8004 451.614 89.377C450.691 90.5303 449.307 90.9916 447.923 91.1069C447.462 91.7988 447.116 92.3755 447.116 92.6062C447.116 98.1418 452.882 102.409 457.495 105.292C456.112 106.099 454.728 106.445 453.805 107.944C453.228 107.714 452.306 107.252 451.614 107.252C448.846 107.252 448.269 109.213 445.963 109.905C442.619 110.828 440.427 110.482 437.89 112.788C437.429 112.788 436.852 112.557 436.391 112.557C435.584 112.557 429.241 114.403 429.241 115.441C429.241 118.785 434.2 119.592 434.2 121.899L434.2 125.474C437.083 125.935 437.429 129.049 441.581 129.51C441.696 128.703 442.388 127.55 444.233 127.55C447.462 127.55 451.845 128.703 451.845 131.355C451.845 132.739 455.65 136.66 457.957 136.66C460.84 136.66 463.608 133.085 464.069 130.779C465.107 130.779 466.26 130.433 466.837 129.741L469.951 129.741C470.989 131.701 473.987 130.433 476.063 131.471C478.831 132.855 479.407 135.161 481.022 137.468C482.867 140.235 485.981 146.348 489.441 146.463C490.363 146.924 491.17 146.463 493.016 146.463C497.283 146.463 499.128 150.153 499.128 154.42C499.128 157.765 498.321 162.147 494.515 162.032C491.862 162.032 491.17 158.803 489.902 156.958C487.595 153.498 479.177 150.499 479.177 144.964C478.139 145.194 477.216 144.964 476.063 144.964C474.333 144.964 470.873 146.117 470.297 147.386C469.489 147.04 468.451 145.54 466.952 145.54C463.723 145.54 461.647 148.424 461.647 151.191C459.917 151.191 459.687 152.345 459.687 154.075C459.687 156.381 461.071 159.379 461.993 162.032C461.532 164.569 461.993 170.681 465.107 171.95L472.603 176.678L474.218 179.446L476.985 182.675L479.984 184.52C479.984 184.52 481.829 186.481 487.134 181.983L491.17 180.023C491.17 180.023 493.938 179.677 497.975 179.331C500.973 178.985 503.51 177.255 505.471 176.909C507.085 176.678 509.507 178.869 511.929 178.408C513.774 178.062 515.85 175.179 517.119 174.833C520.578 173.91 520.117 174.718 523.577 176.563C525.307 177.486 526.229 178.985 526.806 180.715C527.267 181.983 527.613 183.482 528.075 184.751C528.19 184.982 528.19 185.212 528.305 185.443C528.421 185.097 528.421 184.636 528.421 184.405C528.421 184.059 528.997 183.828 528.536 180.83C528.536 180.484 528.997 177.601 529.112 176.448C530.035 176.448 530.15 175.525 531.419 174.256C532.688 177.37 531.419 178.408 535.109 179.561C535.686 178.523 537.531 175.64 537.531 174.948C537.531 173.91 536.493 173.334 535.225 172.988C535.34 171.489 536.724 171.835 538.8 171.719C537.301 169.643 536.609 168.49 534.533 166.645C535.455 166.53 536.263 166.53 537.301 165.953C535.917 163.647 532.342 162.839 532.688 160.187C534.879 160.763 535.455 162.955 537.531 163.07C539.492 163.07 535.686 157.996 535.686 156.035C535.686 154.882 536.955 154.075 537.993 153.267C537.07 152.921 536.493 150.499 535.686 150.499C534.648 150.499 534.302 151.422 533.841 152.46C532.342 150.038 533.264 147.847 529.574 146.002L532.226 146.002C532.111 143.234 528.536 142.773 528.075 141.043L529.92 141.043C529.458 139.082 529.574 136.66 528.075 135.392C527.498 135.968 527.613 135.738 526.806 136.43C526.229 135.507 526.46 134.7 526.46 133.777C526.46 132.393 525.191 131.355 524.038 130.664C524.153 131.817 524.038 131.817 523.692 132.739C523.577 132.509 519.886 131.009 519.886 130.317C519.886 128.588 521.386 128.126 521.386 125.935C522.424 126.396 523.231 126.281 524.153 125.589C523.692 125.243 523.116 124.782 522.193 124.436C522.193 124.09 522.654 123.744 522.654 123.398C522.654 122.36 521.732 121.668 520.232 121.437C520.232 121.437 519.771 122.706 519.771 123.398C519.425 122.821 518.733 121.437 517.58 120.745C517.58 123.975 519.54 125.243 520.348 128.588C517.119 127.896 511.929 124.09 510.66 121.322C509.392 118.554 507.316 116.709 504.202 115.095C504.087 115.095 500.742 113.711 500.742 113.711C500.742 112.673 496.014 112.903 494.63 111.289C490.94 107.252 485.635 104.946 483.905 99.1797C483.559 100.333 483.328 100.91 482.867 102.293C483.444 97.5651 479.753 96.9885 479.061 94.5666C478.139 91.6835 476.294 90.1843 473.756 88.5698C472.372 87.7625 472.488 85.6866 470.181 85.5713C465.914 85.5713 462.108 85.802 459.341 87.7625C458.187 86.9552 456.342 85.5713 455.304 85.5713Z" fill="#FEFEE9"/>
<path d="M402.024 407.79C402.37 400.64 401.678 400.409 403.177 398.449C404.676 396.488 405.829 399.487 406.637 392.683C407.559 385.878 408.136 389.107 408.136 383.111C408.136 377.114 404.676 380.112 411.019 375.384C417.477 370.771 424.512 367.08 425.781 359.123C426.934 351.165 426.357 351.973 426.934 346.206C427.51 340.44 428.087 340.44 431.316 335.481C434.545 330.522 437.428 333.521 435.929 328.1C434.43 322.68 433.623 324.295 432.123 319.566C430.624 314.953 430.624 316.798 430.624 311.955C430.624 306.996 431.201 304.574 429.125 302.383C427.049 300.192 426.242 298.808 424.166 298.808C422.09 298.808 412.518 302.383 410.788 297.193C409.058 292.004 409.058 290.85 409.635 287.045C410.212 283.239 410.788 282.086 410.212 280.471C409.635 278.856 405.022 278.857 408.136 276.665C411.365 274.474 414.017 273.09 413.325 270.092C412.749 267.093 413.671 266.286 413.325 262.942C412.979 259.712 415.055 260.174 413.325 257.521C411.596 254.754 411.25 255.1 410.096 251.755C408.943 248.411 410.442 247.949 408.02 246.681C405.714 245.412 404.215 244.374 401.562 245.182C398.91 245.989 400.64 247.603 397.757 248.18C394.873 248.757 392.798 251.178 391.068 249.564C389.338 247.949 389.338 248.526 388.415 246.681C387.493 244.836 385.763 245.182 383.917 244.605C381.957 244.028 380.227 242.99 379.074 243.221C378.382 243.336 377.344 244.028 376.075 244.605C376.306 245.873 378.267 248.872 378.382 249.218C379.881 252.678 381.034 254.754 381.034 259.136C381.034 266.286 376.998 267.439 372.5 270.092C370.655 268.131 372.385 265.479 372.385 263.057C372.385 259.482 368.349 254.177 368.579 253.716C365.465 253.831 365.696 255.907 363.966 256.714C358.892 259.136 356.931 262.711 350.934 262.711C351.511 263.749 353.126 266.286 353.241 267.209C350.934 267.324 349.666 269.4 347.475 269.4L347.475 265.479C347.475 264.325 345.975 263.057 343.669 262.826C343.208 265.594 340.094 267.439 337.211 267.439C335.481 267.439 335.02 266.517 333.636 266.517C332.252 266.517 330.522 267.67 330.407 267.785L327.639 267.785C327.177 266.171 326.716 263.864 326.716 261.558C326.716 259.828 326.37 256.483 327.639 255.445C328.561 254.638 330.061 254.408 330.407 253.254C330.753 251.755 329.83 250.025 331.444 249.449C333.29 248.641 334.558 249.91 336.288 248.872C337.557 248.18 337.326 247.142 338.941 247.142L338.595 248.987C341.016 250.602 344.707 250.602 345.975 252.793C348.282 249.333 357.277 244.028 362.467 243.913C362.813 242.99 364.197 241.03 368.81 236.532C368.81 236.532 371.347 236.763 370.424 229.036L373.077 218.08C373.077 218.08 372.5 216.466 373.308 215.889C374 215.312 375.729 213.928 377.344 211.391C378.613 209.315 379.766 208.508 380.112 208.277C379.535 207.816 379.074 207.355 378.958 207.009C378.036 207.239 373.884 210.699 371.578 202.972C370.309 203.434 369.271 204.126 368.349 204.933C367.426 207.239 366.388 208.969 364.889 210.815C364.312 211.507 363.736 212.083 363.159 212.775C360.852 217.157 358.2 221.425 351.857 221.309L351.972 221.886C352.088 222.116 352.203 222.347 352.318 222.578C351.28 219.925 348.513 218.311 348.513 215.312L348.513 207.816C348.628 206.317 349.781 201.243 351.626 201.243C351.626 198.244 353.933 198.359 353.933 194.784C353.933 192.478 353.818 188.787 352.549 187.058C351.511 185.558 349.435 183.136 349.435 181.637L349.435 177.486C349.435 176.794 350.012 174.256 348.628 174.256C347.59 174.256 348.051 175.064 346.783 175.294C345.399 172.873 346.321 163.416 341.593 163.301C340.671 163.301 340.786 164.569 340.786 165.607C339.979 165.376 339.979 165.607 338.941 165.607C336.058 165.607 336.288 164.108 334.789 162.839C333.751 164.684 333.866 166.184 331.906 167.337C330.407 165.953 328.1 169.874 327.177 170.566C326.831 170.451 326.37 169.874 326.255 169.528L326.255 171.027C327.639 173.565 323.487 174.833 323.487 177.37C323.487 179.792 326.947 179.215 326.947 181.983C326.947 184.751 323.141 185.789 323.141 188.557C323.141 192.363 325.102 193.055 326.947 195.246C326.37 195.822 325.678 196.514 325.678 197.898C325.678 198.936 326.601 199.397 327.062 200.435L325.563 200.435C325.217 200.205 324.986 199.513 324.064 199.513C322.218 199.513 320.143 200.089 317.49 200.089C313.915 200.089 313.223 197.437 310.109 196.63C306.996 195.822 305.381 195.361 302.037 194.438C301.46 194.323 301.46 193.4 300.307 193.4L297.885 194.208C298.346 193.977 298.807 193.746 299.384 193.631C298.923 191.901 298.115 191.901 298.115 189.941C298.115 187.058 300.076 185.558 300.076 183.021C300.076 178.869 297.77 177.601 297.77 173.334C297.77 168.721 300.076 162.724 301.921 158.572C302.844 156.496 301.575 153.383 303.42 152.229C304.343 151.653 304.804 150.269 306.88 150.269L306.88 147.386L307.226 147.04C305.727 142.888 305.727 139.774 300.768 139.659L297.654 139.659C296.847 139.659 295.348 138.16 295.348 137.006C295.348 127.204 307.572 124.205 307.572 115.671L307.572 111.981C307.572 109.444 310.917 106.099 314.722 106.099C317.029 106.099 318.297 107.829 320.489 107.829C321.873 107.829 322.449 106.099 323.833 106.099C325.794 106.099 325.563 107.944 327.754 108.175C327.639 107.368 326.831 107.022 326.831 106.215C326.831 104.139 329.599 104.831 329.599 102.293C329.599 99.7563 327.293 99.641 327.293 96.9886C327.293 95.4893 328.331 94.7974 328.331 93.0675C328.331 91.1069 326.024 88.9158 326.024 87.5319C326.024 86.4939 327.523 84.7641 327.523 82.9189C327.523 76.9219 323.256 67.1193 320.373 61.9296C319.451 60.3151 317.605 59.7385 317.605 56.9707C317.605 52.473 318.643 49.0132 321.411 45.7841C320.143 44.4002 318.759 44.1696 317.259 43.1316L317.259 43.3623C312.531 40.0179 307.803 35.4048 302.729 31.9451C298.923 29.2926 296.501 31.2531 290.735 29.6386C288.313 28.9466 285.199 25.6022 283.815 23.6417C282.316 21.2198 282.547 17.7601 279.663 15.9149C274.589 12.6858 266.516 8.64939 260.519 6.91951C258.098 6.22756 256.252 3.11375 253.139 3.11375C247.026 3.11375 242.759 5.65092 235.955 5.65092C232.149 5.65092 223.846 2.88312 222.231 -9.35885e-06C220.04 0.922593 219.348 1.9605 217.157 1.9605C215.773 1.9605 214.505 2.65245 212.198 2.53713L212.198 2.19116C211.276 2.88311 210.93 3.22909 210.007 3.92104C209.43 3.92104 202.165 10.8405 201.473 11.7631C198.474 14.9923 194.784 15.7995 190.286 18.3367C185.443 21.1045 180.138 28.716 177.024 32.4064C176.563 32.983 175.755 34.8282 175.755 36.3274C175.755 41.5171 178.869 43.8236 178.869 48.8979C178.869 51.5504 176.563 54.8948 176.563 56.8554C176.563 58.8159 178.523 59.5079 179.33 61.4684C181.176 66.5427 184.635 71.5016 184.635 78.0752C184.635 83.4955 175.755 84.3028 175.755 88.3392L175.755 93.8748C175.755 98.3724 172.642 100.794 169.297 102.178C168.029 100.794 163.531 100.794 161.686 100.794C161.109 100.794 160.763 100.218 159.379 100.794C158.803 99.8717 154.997 97.6805 153.267 97.6805C146.117 97.5651 140.697 105.177 135.622 108.521C132.97 110.251 129.51 109.674 126.396 110.712C122.59 111.981 120.284 113.019 113.71 113.941C110.366 114.287 108.867 115.671 104.946 115.556C96.8729 115.441 94.2205 107.137 83.4952 107.022C81.304 107.022 79.2281 107.252 77.383 107.483C76.8063 108.752 75.6531 109.674 73.8079 109.905C70.0021 110.482 66.773 112.673 63.198 113.941C62.16 114.287 61.1221 114.518 60.0842 114.749C58.2389 115.787 57.4317 117.17 55.4712 117.055L51.3195 117.055C50.2815 117.055 49.2436 117.055 48.2057 117.17C43.362 119.592 39.3256 124.205 33.79 125.589C33.6747 125.589 33.5594 125.589 33.444 125.589C32.8674 126.05 32.2908 126.512 31.4835 126.742C26.9858 128.357 22.1422 129.28 17.6445 130.894C15.684 132.97 13.9541 135.161 12.9161 136.199C9.22573 140.236 5.30471 144.849 0.691705 147.732C1.15298 149 1.49893 150.269 1.49893 151.768C1.49893 153.267 -0.000311906 153.959 -0.000311971 155.458C-0.000312021 156.612 0.922326 157.765 1.03765 159.495C2.53689 159.726 2.88287 160.879 2.99819 162.147C7.6112 165.376 11.3016 169.643 15.9146 172.988C18.3364 174.718 20.9889 176.217 23.5261 177.716C27.1012 178.985 30.5609 180.369 34.0207 181.868C41.4015 185.097 48.5517 189.133 52.934 196.284C53.9719 196.399 55.0099 196.399 55.7018 196.399C60.3148 196.399 62.6213 192.708 65.9658 192.824C67.6956 192.824 70.2328 195.015 70.5788 196.86C80.7274 198.359 79.3435 215.889 91.222 216.004C92.4906 216.004 93.4132 215.774 94.3358 214.966C98.6028 214.966 101.486 215.428 104.023 215.428L107.829 215.428C108.175 215.543 109.213 216.35 110.135 216.35C113.018 216.35 115.671 211.507 120.861 211.507C125.474 211.507 127.549 210.469 132.278 210.584C136.545 210.584 137.698 214.044 141.504 215.082C155.112 218.541 157.534 227.998 165.491 236.763C169.874 241.722 175.409 243.452 181.522 247.488C186.711 250.832 198.013 256.945 206.778 256.945C207.7 256.945 208.162 256.483 209.084 256.022C207.7 251.294 205.394 246.45 204.471 241.376C204.125 239.415 205.279 238.031 204.471 236.071C203.895 234.341 201.819 234.226 201.819 232.034C201.819 229.728 206.778 228.113 208.277 226.384C210.122 227.767 210.468 226.499 213.121 226.499C213.121 222.116 219.464 221.079 221.309 219.003C223.269 216.581 223.5 215.197 225.922 213.121C228.69 210.815 232.611 212.198 236.301 209.892C239.415 207.931 239.415 205.279 243.451 204.01L251.524 204.126C253.369 202.165 260.058 198.244 263.287 198.936L289.005 186.596L291.657 186.596C289.005 188.787 282.201 190.979 281.739 193.746C283.239 194.208 287.044 195.592 289.235 196.168C287.39 195.822 285.43 195.476 284.392 195.476C283.93 195.476 281.509 197.322 280.701 197.668C278.049 199.051 275.742 200.435 273.09 201.935C272.167 202.396 270.899 203.318 269.399 203.78C268.477 204.01 266.17 203.78 265.248 204.587C264.786 204.933 265.132 206.663 264.441 207.239C263.979 207.585 263.057 208.277 262.48 208.969C259.597 209.431 258.79 211.161 255.33 211.161C249.564 211.161 246.334 212.198 245.181 216.811C241.491 216.811 236.186 220.387 234.341 222.001C232.611 223.5 231.342 225.692 227.882 225C226.498 224.769 223.615 223.616 223.5 225.115C220.617 225.115 218.08 226.037 215.658 227.421C214.159 228.229 214.159 227.191 213.928 227.537C213.697 227.883 211.852 231.227 211.852 231.688L212.429 232.496C212.429 235.264 213.697 235.61 215.543 237.916L215.543 242.068C216.465 243.798 220.732 249.103 221.194 250.717C222.116 253.946 223.154 257.983 224.884 261.096C225.23 260.866 225.807 260.635 226.268 260.635C228.805 260.635 230.304 265.017 231.227 268.823C232.034 269.054 232.841 269.515 233.533 270.207C235.033 271.706 236.416 273.321 237.916 274.82C239.646 276.089 241.029 277.473 242.298 279.202C243.913 280.586 245.758 281.74 247.718 282.547C251.639 284.046 255.099 285.199 258.328 287.506C258.444 287.391 258.559 287.391 258.674 287.275L258.559 287.275C259.136 286.353 261.788 286.237 262.249 284.738C263.633 280.932 264.441 278.395 268.823 276.55L274.474 276.55C270.322 271.706 264.095 271.014 264.095 262.134C264.095 260.174 265.132 256.714 267.324 256.714C269.169 256.714 270.437 257.637 272.283 257.637C272.859 257.637 273.321 257.637 274.013 257.521C273.667 256.253 271.706 256.483 271.245 254.869C272.629 254.753 273.09 253.946 274.82 253.946C275.627 250.948 282.201 247.257 285.891 246.45C287.16 246.219 287.852 246.219 289.466 246.219C291.657 246.219 294.31 247.027 294.31 248.872C294.31 252.562 289.581 255.445 286.237 256.829C285.66 257.06 284.392 256.714 283.469 257.406C281.739 258.905 282.662 260.981 280.817 262.596C279.317 263.864 277.357 264.902 276.55 267.093L276.55 273.667C277.472 274.474 278.856 275.051 278.856 276.435C278.856 279.202 274.243 279.202 272.744 280.471C272.629 280.586 271.36 284.392 271.36 285.084C271.36 287.045 270.783 289.697 270.322 292.004C270.668 292.811 270.899 293.733 270.899 294.541C270.899 295.463 270.899 296.386 270.783 297.309C271.014 297.193 271.245 297.193 271.475 297.193C271.706 297.193 271.937 297.078 272.167 297.078C276.434 297.078 277.242 299.384 278.164 302.844C278.395 302.844 278.51 302.844 278.626 302.844C281.163 302.729 282.893 301.922 284.276 300.884C284.392 300.768 284.507 300.768 284.507 300.653C284.622 300.538 284.738 300.422 284.853 300.422C285.199 300.076 285.545 299.846 285.891 299.5C286.006 299.384 286.122 299.269 286.237 299.269C287.39 298.231 288.659 297.078 290.504 296.386C291.311 296.04 291.427 295.233 292.465 294.887C292.695 294.771 292.926 294.771 293.272 294.771C293.387 294.771 293.618 294.771 293.733 294.771L293.848 294.771C293.964 294.771 294.079 294.771 294.079 294.887L294.194 294.887C295.809 295.463 295.809 297.655 298.577 297.655C298.692 297.655 298.923 297.655 299.038 297.655L299.153 297.655C299.269 297.655 299.269 297.655 299.384 297.655C300.653 297.193 300.191 295.694 300.768 294.887C300.883 294.771 300.999 294.656 301.114 294.656C301.229 294.656 301.229 294.656 301.345 294.541C302.613 294.195 303.536 294.425 304.804 293.964L309.533 293.964C310.225 293.733 310.571 293.849 311.147 293.618C311.263 293.618 311.263 293.503 311.378 293.503C311.724 293.849 312.416 293.503 312.877 293.503C313.223 293.503 318.643 295.694 319.335 296.617C320.027 296.155 321.065 296.271 322.218 296.271C321.411 296.271 320.604 296.386 319.797 296.617C321.757 298.116 319.105 299.269 319.105 300.538C319.105 301.114 319.335 301.691 319.681 302.037C320.258 302.613 320.95 303.075 321.527 303.536C321.872 303.767 322.103 304.113 322.218 304.459C322.564 305.035 322.795 305.727 323.256 306.419C323.487 306.765 323.718 306.996 323.948 307.342C324.756 308.034 325.678 308.495 326.485 308.956C328.561 309.994 330.522 310.917 330.522 313.223C330.522 314.261 330.176 314.261 330.061 314.723C330.061 314.838 329.945 315.069 329.945 315.415C329.484 315.53 329.253 315.761 329.023 316.107C329.023 316.222 329.023 316.222 328.907 316.337C328.677 317.375 329.253 319.105 329.253 319.682C329.253 320.258 328.792 320.604 328.331 321.066C327.985 321.412 327.639 321.758 327.639 322.219C327.639 324.756 329.484 326.832 331.444 327.985C331.329 328.216 331.444 328.562 331.444 328.792C331.444 329.138 331.79 329.484 332.252 329.715C332.482 329.83 332.713 330.061 332.944 330.176C333.982 330.868 335.135 331.675 335.135 333.29C335.135 333.751 334.904 334.097 334.443 334.213C334.443 334.213 334.443 334.213 334.328 334.213C334.212 334.213 334.097 334.328 333.866 334.328C333.52 334.443 333.059 334.443 332.713 334.443L332.598 334.443C332.252 334.443 331.906 334.443 331.444 334.443C329.83 334.443 328.1 334.328 327.408 335.02C327.408 335.02 327.408 335.135 327.293 335.135C327.177 335.251 327.177 335.251 327.177 335.366C327.062 335.481 327.062 335.712 327.062 335.827C327.062 337.788 328.215 338.941 328.907 340.325C329.369 341.017 329.599 341.709 329.599 342.631C329.599 344.015 329.599 345.053 329.369 346.322C329.369 346.552 329.253 346.898 329.138 347.129L329.945 347.244C333.636 346.783 334.443 345.976 335.25 342.631C337.211 342.862 340.555 344.131 342.862 345.515C344.246 346.322 345.168 347.244 345.168 348.052C345.168 357.739 349.897 365.12 360.506 367.772C363.159 368.464 366.157 368.81 369.617 368.81C369.848 370.425 370.655 371.693 371.693 372.847C371.693 372.847 371.693 372.847 371.693 372.962C374.807 376.076 379.996 377.229 379.535 380.227C378.728 385.878 380.804 387.378 383.226 387.839C385.301 388.3 387.723 387.839 388.761 388.877C390.145 390.261 391.183 391.875 392.106 393.605C393.605 396.604 394.527 399.948 395.911 403.292C396.719 405.253 397.526 407.098 398.794 408.828C398.91 408.943 399.025 409.174 399.256 409.289C399.602 409.635 400.063 409.981 400.409 410.443C402.024 409.52 402.024 408.828 402.024 407.79ZM352.895 223.039C353.01 223.5 353.126 223.962 353.126 224.423C353.01 223.962 353.01 223.5 352.895 223.039Z" fill="#FEFEE9"/>
<path d="M395.566 67.2347C394.297 67.004 393.259 66.0814 393.259 64.9282C393.259 63.3136 394.066 62.045 395.22 61.0071L395.22 59.6232L393.951 59.6232C393.49 59.7385 391.183 59.3925 390.837 60.3151L389.799 60.3151C389.684 59.7385 388.992 58.3546 388.992 57.3166C388.992 56.2787 389.569 54.0876 390.491 53.7416C390.03 52.3577 389.107 48.6673 387.723 48.6673C387.608 48.6673 387.147 48.6673 387.147 48.7826C384.84 48.7826 383.572 54.5488 382.88 56.74C382.764 57.432 381.957 57.5473 381.842 58.3546C379.42 58.3546 376.652 59.1618 376.652 61.699C375.384 61.699 375.73 62.5063 374.346 62.5063C373.769 62.5063 372.616 62.2756 372.039 61.9297L372.27 62.1603C371.347 62.1603 368.695 62.2756 368.003 62.2756C365.12 62.2756 364.197 60.5457 361.083 60.5457C361.083 60.1998 360.276 58.124 360.276 57.2013C360.276 55.9328 361.314 55.1255 360.853 53.5109L360.853 47.168C360.968 46.4761 361.199 45.4381 361.775 44.9768L361.775 43.3623C360.045 42.2091 358.892 40.1332 359.007 37.942C359.007 37.8267 359.007 37.7113 359.007 37.4807C358.777 37.0194 358.431 36.4428 358.2 35.9815C358.085 35.8661 358.085 35.7508 357.969 35.6355C357.623 35.2895 357.278 34.8283 356.932 34.367C356.47 33.675 356.124 32.983 355.778 32.291C354.74 32.637 353.587 32.983 352.434 32.983C348.397 32.983 344.476 31.7144 340.671 31.7144C339.633 31.7144 339.171 30.2152 337.211 30.2152C335.942 30.2152 335.02 31.2531 335.02 32.291L328.908 32.291C328.446 32.291 327.639 32.5217 327.639 33.329C327.639 35.2895 328.677 36.7888 328.677 38.98C328.677 41.9784 323.026 42.0937 323.026 44.0542C323.026 46.9374 326.14 48.6672 326.14 51.8963C326.14 52.5883 326.947 54.7795 326.486 56.0481L326.601 56.0481C325.678 58.7006 329.484 58.9312 330.407 60.5457C331.906 63.3135 333.751 64.1209 336.865 65.8507C337.211 65.1588 337.672 64.5821 338.825 64.5821C342.17 64.5821 348.513 68.5032 349.089 70.925C349.205 71.271 349.32 71.7323 349.435 72.0783C351.627 71.8476 354.048 73.0009 354.971 75.1921C355.086 75.4227 355.202 75.6534 355.317 75.8841C355.548 76.1147 355.778 76.4607 355.894 76.4607C356.009 76.576 356.124 76.8066 356.355 76.9219L357.393 76.6913C359.699 76.6913 361.199 78.8825 361.199 80.843C361.199 81.7656 360.968 82.6882 360.737 83.4955C360.853 83.9568 361.083 84.3027 361.083 84.764C361.545 86.8399 361.083 88.8005 359.93 90.2997C360.737 92.1449 362.582 93.5288 363.62 95.4894C364.197 96.6426 366.273 96.8732 366.273 99.1797C366.273 104.254 360.045 104.946 356.47 107.252C355.432 107.483 354.74 109.444 353.702 110.366C353.472 110.597 353.241 110.712 353.126 110.828C353.01 111.75 352.78 112.788 352.319 113.595C351.742 114.749 350.819 115.556 349.666 116.133C349.551 116.133 349.435 116.248 349.435 116.363C349.32 116.479 349.089 116.594 348.974 116.709C348.859 117.055 348.743 117.401 348.628 117.747C347.706 117.747 347.129 119.708 347.129 120.284C346.206 120.4 342.516 123.513 342.516 123.975C341.132 124.205 340.555 125.243 338.249 125.243C336.404 125.243 334.097 124.551 334.097 122.937C333.521 122.937 333.059 123.513 333.059 124.436C333.059 126.281 336.288 126.051 337.672 127.319C337.672 127.319 337.672 129.049 338.48 129.049C340.44 129.049 340.901 126.627 342.862 126.742C344.361 126.742 345.284 128.126 345.284 129.626C345.284 131.701 343.323 132.509 342.977 133.893C346.206 134.354 347.36 131.125 348.974 128.472C349.435 127.665 350.243 124.551 352.088 125.013C352.434 125.243 352.895 125.243 353.356 125.243C353.356 123.283 352.549 121.899 353.702 119.938C354.279 118.9 356.816 117.978 358.892 117.516C360.276 117.17 362.928 116.133 363.62 114.057C364.197 112.442 365.12 111.289 367.426 111.289C368.349 111.289 369.271 111.52 370.194 111.865C370.194 111.635 370.771 111.174 371.117 111.174C372.846 111.174 372.846 114.057 373.884 115.556C372.962 116.363 369.733 115.556 369.733 117.286L369.733 121.207C366.273 121.207 360.968 124.436 360.968 127.319L360.968 129.164C358.777 129.164 358.661 131.24 357.623 133.085C356.586 134.931 353.356 137.814 351.165 137.814L347.129 137.814C343.9 137.814 342.516 139.89 340.671 141.504C339.287 142.657 337.903 143.695 335.827 144.272C335.481 144.272 334.097 144.503 334.097 145.079L334.097 147.386C333.29 147.04 332.829 145.656 331.791 145.656C329.253 145.656 326.716 147.501 326.716 149.577L326.716 151.422C327.524 150.154 329.369 151.422 330.291 151.422C331.56 151.422 332.021 151.076 332.944 150.615L334.212 150.615C333.405 151.307 332.252 152.575 331.906 154.075L331.906 154.305C332.944 154.536 332.367 155.92 332.829 156.612C333.175 156.381 333.751 156.15 334.212 156.15C334.212 155.112 338.018 151.537 338.48 151.537C338.941 151.537 339.402 151.999 340.325 152.114L343.669 149.577C344.476 149.577 345.399 150.384 345.399 151.076C345.399 152.229 343.093 152.46 343.093 154.536C344.361 154.766 345.284 154.766 346.437 154.536C347.014 156.266 348.397 156.842 348.397 158.918C348.397 161.34 345.284 162.493 345.284 164.454C345.284 166.184 347.244 166.645 348.167 168.375C348.743 169.528 348.167 170.451 348.628 171.719C348.743 172.411 348.628 172.873 349.205 173.449C350.589 172.642 352.665 169.067 355.778 169.182C357.162 169.182 358.892 170.22 360.391 171.258C362.237 171.027 363.966 171.719 365.466 172.988L366.504 172.988C367.426 173.449 366.158 173.334 368.695 173.795C370.194 173.795 371.001 175.179 371.232 176.563C372.039 176.448 372.731 176.563 373.538 176.448C374.461 179.331 378.382 179.677 378.382 182.56C378.382 183.829 374.922 186.25 371.693 188.557C371.693 188.903 371.808 189.249 371.808 189.479C372.039 192.593 370.771 195.707 368.81 197.898C369.733 199.743 370.886 201.589 371.693 202.05C371.693 201.819 372.27 198.359 372.27 198.359C372.27 197.783 372.731 196.053 374.576 196.168C375.614 196.168 379.074 203.895 380.919 208.162C381.611 208.162 382.649 208.277 383.11 208.739C383.802 209.546 386.455 210.123 386.801 210.469C387.147 210.93 387.262 211.161 389.107 212.083C390.952 213.006 391.644 214.274 391.644 214.274L392.682 213.236C392.682 213.236 396.488 212.314 396.949 215.543L401.216 216.581L405.483 215.658L405.483 211.045L408.136 206.548L409.289 201.473L412.403 199.397L416.324 197.668L418.169 194.438L418.169 192.017C418.169 192.017 418.515 187.288 418.4 186.827C418.285 186.25 418.169 184.059 418.169 184.059L423.013 185.674L425.665 188.557C425.665 188.557 426.588 188.557 428.203 186.712L431.316 183.828L436.621 181.983L438.005 181.407L438.466 178.408C438.466 178.408 440.196 177.255 440.196 175.64L439.966 171.604L442.964 171.258L446.655 171.258L447.577 169.182L449.538 170.105L455.535 170.912L456.803 171.258C456.227 169.989 455.765 168.836 455.765 168.029C455.765 165.722 456.803 164.338 456.803 161.455C456.803 158.572 453.689 151.883 451.498 153.844C444.233 160.417 441.465 156.958 441.465 155.343C441.465 152.691 445.271 152.345 445.271 150.038C445.271 147.616 438.236 144.733 434.545 144.618C428.549 144.618 429.356 140.351 424.051 140.005C423.82 138.506 423.705 136.891 423.705 135.277C424.051 135.277 424.743 135.507 425.435 135.853C425.896 134.931 426.011 133.085 426.011 131.355C426.011 129.741 423.705 127.665 423.128 126.397C422.09 124.436 422.552 122.706 421.283 120.4C420.937 119.708 419.899 119.592 419.899 118.093C419.899 118.093 421.744 115.902 422.09 115.902C422.552 115.902 423.013 116.594 423.82 116.709C424.281 113.711 420.706 111.058 420.706 107.483C420.706 107.137 421.744 106.791 422.552 106.561C422.552 105.407 423.128 104.831 423.128 103.331C423.59 103.447 423.936 103.331 424.858 103.331C424.973 102.524 426.127 101.832 427.626 101.948C430.394 101.948 431.778 103.562 433.277 104.946C433.738 105.407 434.084 106.561 434.776 106.561L436.045 106.561C436.045 105.523 436.16 104.023 437.775 104.023C439.274 104.023 440.196 104.139 441.811 104.831L443.656 104.831C440.888 101.486 440.427 96.2966 433.969 96.2966C430.278 96.2966 429.01 98.3724 424.973 98.8337C424.858 98.8337 421.86 99.7563 421.168 99.7563C419.899 99.7563 418.515 97.5652 418.515 96.8732C418.515 95.7199 419.438 94.4514 418.4 93.5288C418.054 93.2982 416.901 92.8368 417.362 92.4909C417.016 91.9142 417.131 92.0295 417.247 91.6836C415.286 91.2223 413.556 89.4924 412.864 87.3012C412.749 87.1859 412.749 87.0706 412.634 86.9553C412.518 86.8399 412.403 86.7246 412.288 86.6093L412.172 86.4939C412.403 86.7246 412.403 86.8399 412.057 86.4939C409.981 86.0326 408.367 84.6488 407.675 82.5729C407.098 82.4576 406.521 82.2269 406.06 81.8809C405.483 81.3043 402.946 75.9993 402.716 75.1921C402.6 74.5001 402.37 74.1542 402.37 73.3469C399.025 72.309 395.566 71.271 395.566 67.2347Z" fill="#FEFEE9"/>
<circle cx="109.79" cy="153.383" r="5.76626" transform="rotate(90 109.79 153.383)" fill="#FC8A5F"/>
<circle cx="168.606" cy="176.448" r="5.76626" transform="rotate(90 168.606 176.448)" fill="#FC8A5F"/>
<circle cx="241.261" cy="78.4212" r="5.76626" transform="rotate(90 241.261 78.4212)" fill="#FC8A5F"/>
<circle cx="393.49" cy="143.003" r="5.76626" transform="rotate(90 393.49 143.003)" fill="#FC8A5F"/>
<circle cx="298.923" cy="230.651" r="5.76626" transform="rotate(90 298.923 230.651)" fill="#FC8A5F"/>
<circle cx="384.264" cy="322.911" r="5.76626" transform="rotate(90 384.264 322.911)" fill="#FC8A5F"/>
<circle cx="509.969" cy="143.003" r="5.76626" transform="rotate(90 509.969 143.003)" fill="#FC8A5F"/>
</svg>
