<svg width="26" height="26" viewBox="0 0 26 26" fill="none" xmlns="http://www.w3.org/2000/svg">
<g clip-path="url(#clip0_124_6300)">
<path d="M9.479 19.0797V24.1041C9.479 24.4551 9.70434 24.7661 10.038 24.8766C10.1214 24.9036 10.207 24.9166 10.2915 24.9166C10.545 24.9166 10.7898 24.7975 10.9458 24.5851L13.8849 20.5855L9.479 19.0797Z" fill="white"/>
<path d="M25.6588 0.150618C25.4096 -0.025965 25.0825 -0.0497984 24.8116 0.0921183L0.436632 12.8213C0.148465 12.9719 -0.0216185 13.2795 0.00221485 13.6035C0.0271315 13.9285 0.242715 14.2058 0.549299 14.3109L7.32555 16.627L21.7566 4.28787L10.5896 17.7418L21.9462 21.6234C22.0307 21.6515 22.1196 21.6667 22.2084 21.6667C22.3557 21.6667 22.502 21.6266 22.6309 21.5486C22.8367 21.423 22.9765 21.2117 23.0122 20.9745L25.9914 0.932785C26.0358 0.629452 25.908 0.328285 25.6588 0.150618Z" fill="white"/>
</g>
<defs>
<clipPath id="clip0_124_6300">
<rect width="26" height="26" fill="white"/>
</clipPath>
</defs>
</svg>
