<svg width="20" height="22" viewBox="0 0 20 22" fill="none" xmlns="http://www.w3.org/2000/svg">
<path fill-rule="evenodd" clip-rule="evenodd" d="M14.2126 20.611H5.86477C2.79841 20.611 0.446004 19.5035 1.1142 15.0458L1.89223 9.0046C2.30413 6.78034 3.72289 5.92908 4.96774 5.92908H15.1462C16.4094 5.92908 17.7458 6.84441 18.2217 9.0046L18.9998 15.0458C19.5673 19 17.279 20.611 14.2126 20.611Z" stroke="#1A162E" stroke-width="1.5" stroke-linecap="round" stroke-linejoin="round"/>
<path d="M14.3495 5.7094C14.3495 3.32333 12.4152 1.38903 10.0291 1.38903V1.38903C8.8801 1.38417 7.77649 1.8372 6.9623 2.64795C6.14811 3.4587 5.69042 4.56039 5.69043 5.7094H5.69043" stroke="#1A162E" stroke-width="1.5" stroke-linecap="round" stroke-linejoin="round"/>
<path d="M12.9952 10.2128H12.9494" stroke="#1A162E" stroke-width="1.5" stroke-linecap="round" stroke-linejoin="round"/>
<path d="M7.16414 10.2129H7.11838" stroke="#1A162E" stroke-width="1.5" stroke-linecap="round" stroke-linejoin="round"/>
</svg>
