<svg width="12" height="17" viewBox="0 0 12 17" fill="none" xmlns="http://www.w3.org/2000/svg">
<path fill-rule="evenodd" clip-rule="evenodd" d="M5.71477 8.12553C4.58766 8.12553 3.67396 7.2301 3.67396 6.12553C3.67396 5.59509 3.88897 5.08639 4.2717 4.71131C4.65443 4.33624 5.17352 4.12553 5.71477 4.12553C6.84189 4.12553 7.75559 5.02096 7.75559 6.12553C7.75559 6.65596 7.54058 7.16467 7.15785 7.53974C6.77512 7.91481 6.25603 8.12553 5.71477 8.12553ZM5.71429 0.52536C2.55837 0.52536 0 3.03257 0 6.12536C0 10.3254 5.71429 16.5254 5.71429 16.5254C5.71429 16.5254 11.4286 10.3254 11.4286 6.12536C11.4286 3.03257 8.8702 0.52536 5.71429 0.52536Z" fill="white"/>
</svg>
