<svg width="20" height="20" viewBox="0 0 20 20" fill="none" xmlns="http://www.w3.org/2000/svg">
<path d="M0.588975 2.75436L2.49391 0.923475C2.49391 0.923475 7.44365 -1.1154 14.5147 5.68083C21.5858 12.4771 19.4645 17.2344 19.4645 17.2344L17.5595 19.0653C16.6989 19.8925 15.2756 19.7953 14.5453 18.8594L12.727 16.5293C12.1299 15.764 12.209 14.6931 12.9128 14.0167L14.5147 12.4771C14.5147 12.4771 14.5147 11.1178 11.6863 8.39932C8.85786 5.68083 7.44365 5.68083 7.44365 5.68083L5.84177 7.22046C5.13798 7.89689 4.02379 7.97299 3.22755 7.39902L0.803188 5.65142C-0.170491 4.94955 -0.271644 3.58153 0.588975 2.75436Z" fill="white"/>
</svg>
