<svg width="88" height="88" viewBox="0 0 88 88" fill="none" xmlns="http://www.w3.org/2000/svg">
<path d="M81.125 12.375H6.875C3.0843 12.375 0 15.4593 0 19.25V68.75C0 72.5407 3.0843 75.625 6.875 75.625H81.125C84.9157 75.625 88 72.5407 88 68.75V19.25C88 15.4593 84.9157 12.375 81.125 12.375Z" fill="#5D647F"/>
<path d="M30.25 39.875H13.75C12.2311 39.875 11 38.6439 11 37.125V26.125C11 24.6061 12.2311 23.375 13.75 23.375H30.25C31.7689 23.375 33 24.6061 33 26.125V37.125C33 38.6439 31.7689 39.875 30.25 39.875Z" fill="#FFD100"/>
<path d="M20.625 57.75H13.75C12.2311 57.75 11 56.5189 11 55V53.625C11 52.1061 12.2311 50.875 13.75 50.875H20.625C22.1439 50.875 23.375 52.1061 23.375 53.625V55C23.375 56.5189 22.1439 57.75 20.625 57.75Z" fill="#B8BAC0"/>
<path d="M38.5 57.75H31.625C30.1061 57.75 28.875 56.5189 28.875 55V53.625C28.875 52.1061 30.1061 50.875 31.625 50.875H38.5C40.0189 50.875 41.25 52.1061 41.25 53.625V55C41.25 56.5189 40.0189 57.75 38.5 57.75Z" fill="#B8BAC0"/>
<path d="M56.375 57.75H49.5C47.9811 57.75 46.75 56.5189 46.75 55V53.625C46.75 52.1061 47.9811 50.875 49.5 50.875H56.375C57.8939 50.875 59.125 52.1061 59.125 53.625V55C59.125 56.5189 57.8939 57.75 56.375 57.75Z" fill="#B8BAC0"/>
<path d="M74.25 57.75H67.375C65.8561 57.75 64.625 56.5189 64.625 55V53.625C64.625 52.1061 65.8561 50.875 67.375 50.875H74.25C75.7689 50.875 77 52.1061 77 53.625V55C77 56.5189 75.7689 57.75 74.25 57.75Z" fill="#B8BAC0"/>
<path d="M39.875 66H12.375C11.615 66 11 65.3843 11 64.625C11 63.8657 11.615 63.25 12.375 63.25H39.875C40.635 63.25 41.25 63.8657 41.25 64.625C41.25 65.3843 40.635 66 39.875 66Z" fill="#8A8895"/>
<path d="M57.75 66H45.375C44.615 66 44 65.3843 44 64.625C44 63.8657 44.615 63.25 45.375 63.25H57.75C58.51 63.25 59.125 63.8657 59.125 64.625C59.125 65.3843 58.51 66 57.75 66Z" fill="#8A8895"/>
<path d="M33 33H19.25V30.25H33V27.5H19.25V23.375H16.5V39.875H19.25V35.75H33V33Z" fill="#FF9500"/>
<path d="M68.75 39.875C73.3063 39.875 77 36.1813 77 31.625C77 27.0687 73.3063 23.375 68.75 23.375C64.1937 23.375 60.5 27.0687 60.5 31.625C60.5 36.1813 64.1937 39.875 68.75 39.875Z" fill="#FF4F19"/>
</svg>
