<svg width="88" height="94" viewBox="0 0 88 94" fill="none" xmlns="http://www.w3.org/2000/svg">
<path fill-rule="evenodd" clip-rule="evenodd" d="M74.6022 13.8831L69.6636 15.7418L72.5702 20.1465C72.6837 20.3258 72.7574 20.535 72.7654 20.7502L73.0025 26.0215L78.0885 24.621C78.1941 24.5911 78.3017 24.5771 78.4073 24.5771C78.5129 24.5771 78.6204 24.5911 78.726 24.621L83.8201 26.0215L84.0571 20.7502C84.0651 20.535 84.1308 20.3258 84.2524 20.1465L87.159 15.7418L82.2203 13.8831C82.0171 13.8074 81.8358 13.6799 81.7063 13.5105L78.4093 9.38672L75.1202 13.5105C74.9787 13.6779 74.8074 13.8074 74.6022 13.8831Z" fill="#E9B72E"/>
<path fill-rule="evenodd" clip-rule="evenodd" d="M50.6698 11.2383L53.5764 6.83359L48.6377 4.97488C48.4345 4.89918 48.2532 4.76969 48.1238 4.60234L44.8267 0.478516L41.5376 4.60234C41.4061 4.76969 41.2268 4.89918 41.0236 4.97488L36.085 6.83359L38.9916 11.2383C39.1131 11.4176 39.1788 11.6268 39.1868 11.842L39.4239 17.1133L44.5179 15.7128C44.6155 15.6829 44.7211 15.6689 44.8287 15.6689C44.9422 15.6689 45.0498 15.6829 45.1474 15.7128L50.2414 17.1133L50.4785 11.842C50.4805 11.6248 50.5542 11.4176 50.6698 11.2383Z" fill="#E9B72E"/>
<path fill-rule="evenodd" clip-rule="evenodd" d="M15.4301 20.1465L18.3367 15.7418L13.398 13.8831C13.1948 13.8074 13.0135 13.6799 12.884 13.5105L9.59295 9.38672L6.29588 13.5105C6.16439 13.6799 5.9851 13.8074 5.7819 13.8831L0.843262 15.7418L3.74986 20.1465C3.86342 20.3258 3.93713 20.535 3.9451 20.7502L4.18217 26.0215L9.27619 24.621C9.47939 24.5632 9.70053 24.5632 9.90572 24.621L14.9997 26.0215L15.2368 20.7502C15.2428 20.535 15.3145 20.3258 15.4301 20.1465Z" fill="#E9B72E"/>
<path fill-rule="evenodd" clip-rule="evenodd" d="M44.0001 42.9062C40.458 42.9062 37.5833 45.785 37.5833 49.3231C37.5833 52.8612 40.456 55.7399 44.0001 55.7399C47.5342 55.7399 50.4169 52.8612 50.4169 49.3231C50.4169 45.785 47.5342 42.9062 44.0001 42.9062Z" fill="#E9B72E"/>
<path fill-rule="evenodd" clip-rule="evenodd" d="M49.6657 56.0605C48.1317 57.3515 46.1555 58.1304 43.9999 58.1304C41.8444 58.1304 39.8701 57.3515 38.3341 56.0605C35.4853 57.72 33.4772 60.5569 32.8975 63.8121C35.812 66.5235 39.7147 68.189 43.9999 68.189C48.2851 68.189 52.1878 66.5255 55.1024 63.8102C54.5227 60.5549 52.5145 57.718 49.6657 56.0605Z" fill="#E9B72E"/>
<path fill-rule="evenodd" clip-rule="evenodd" d="M52.8076 49.3227C52.8076 51.1475 52.2518 52.8448 51.2975 54.2513C54.0248 55.9746 56.0569 58.6142 57.037 61.6742C59.0949 58.9429 60.3181 55.5482 60.3181 51.8727C60.3181 42.8759 52.9969 35.5566 44.0001 35.5566C35.0034 35.5566 27.6821 42.8759 27.6821 51.8727C27.6821 55.5482 28.9073 58.9429 30.9633 61.6722C31.9354 58.6122 33.9754 55.9746 36.7028 54.2513C35.7485 52.8448 35.1927 51.1475 35.1927 49.3227C35.1927 44.4677 39.1432 40.5152 44.0001 40.5152C48.8571 40.5152 52.8076 44.4657 52.8076 49.3227Z" fill="#6ECEEC"/>
<path fill-rule="evenodd" clip-rule="evenodd" d="M44.0001 33.1671C54.3177 33.1671 62.7088 41.5582 62.7088 51.8737C62.7088 62.1893 54.3177 70.5804 44.0001 70.5804C33.6826 70.5804 25.2915 62.1893 25.2915 51.8737C25.2915 41.5582 33.6826 33.1671 44.0001 33.1671ZM60.1388 72.455C62.5474 72.2459 64.3762 70.419 64.5794 68.0105L65.0197 62.9523C65.1512 61.4104 65.705 60.0855 66.6931 58.9022L69.9663 55.0154C71.5182 53.1667 71.5182 50.5808 69.9663 48.7321L66.6931 44.8453C65.705 43.66 65.1512 42.3352 65.0197 40.7932L64.5794 35.737C64.3762 33.3285 62.5474 31.5016 60.1388 31.2925L55.0787 30.8542C53.5367 30.7207 52.2139 30.1709 51.0305 29.1768L47.1458 25.9116C46.2234 25.1346 45.1138 24.7441 44.0021 24.7441C42.8905 24.7441 41.7808 25.1326 40.8584 25.9116L36.9737 29.1768C35.7903 30.1729 34.4595 30.7207 32.9176 30.8542L27.8654 31.2925C25.4568 31.5016 23.628 33.3285 23.4248 35.737L22.9845 40.7932C22.853 42.3352 22.2992 43.66 21.3031 44.8433L18.0379 48.7301C16.488 50.5808 16.488 53.1647 18.0379 55.0154L21.3031 58.9022C22.2992 60.0875 22.855 61.4123 22.9845 62.9543L23.4248 68.0125C23.628 70.419 25.4568 72.2479 27.8654 72.457L32.9176 72.8953C34.4595 73.0288 35.7903 73.5786 36.9737 74.5727L40.8584 77.8379C42.7112 79.3938 45.2911 79.3938 47.1438 77.8379L51.0286 74.5727C52.2119 73.5766 53.5347 73.0288 55.0767 72.8953L60.1388 72.455Z" fill="#FC6E51"/>
<path fill-rule="evenodd" clip-rule="evenodd" d="M60.3418 74.8345L55.2816 75.2728C54.2377 75.3644 53.3711 75.723 52.5643 76.4003L48.6795 79.6655C48.3847 79.9186 48.0679 80.1397 47.7412 80.3369L55.3554 93.5212L59.9354 82.9088C60.1386 82.4247 60.6446 82.1339 61.1686 82.1956L72.6535 83.5324L65.7725 71.6211C64.5792 73.4121 62.6189 74.6373 60.3418 74.8345Z" fill="#E9B72E"/>
<path fill-rule="evenodd" clip-rule="evenodd" d="M39.3221 79.6656L35.4274 76.4004C34.6265 75.723 33.7619 75.3645 32.7101 75.2728L27.6579 74.8345C25.3808 74.6373 23.4205 73.4101 22.2292 71.6191L15.3481 83.5304L26.8331 82.1937C27.3551 82.1319 27.8531 82.4208 28.0663 82.9069L32.6443 93.5212L40.2604 80.337C39.9337 80.1397 39.617 79.9166 39.3221 79.6656Z" fill="#E9B72E"/>
</svg>
