<svg width="94" height="94" viewBox="0 0 94 94" fill="none" xmlns="http://www.w3.org/2000/svg">
<path fill-rule="evenodd" clip-rule="evenodd" d="M29.483 14.2053C27.5156 14.2053 25.9019 15.8189 25.9019 17.7918V21.0192C25.9019 22.9921 27.5155 24.6003 29.483 24.6003H33.0695C37.487 19.5877 35.3854 15.6204 32.8176 14.2051L29.483 14.2053Z" fill="#9FD4FE"/>
<path fill-rule="evenodd" clip-rule="evenodd" d="M63.4394 24.6002H65.6449L67.0246 25.0916C67.0246 25.0916 67.9545 24.729 68.4815 24.389C69.8623 23.8902 70.8537 22.5636 70.8537 21.0188V17.7916C70.8537 15.8187 69.2454 14.2051 67.2725 14.2051H63.686C60.9145 15.4702 60.4694 22.4237 63.4394 24.6002Z" fill="#9FD4FE"/>
<path fill-rule="evenodd" clip-rule="evenodd" d="M25.902 21.0196C25.902 22.9925 27.5156 24.6008 29.4832 24.6008H33.0697C33.8471 23.7216 34.4206 22.8692 34.8282 22.0597H32.823H29.483C27.5156 22.0597 25.9019 20.4461 25.9019 18.4785L25.902 21.0196Z" fill="#85BEEF"/>
<path fill-rule="evenodd" clip-rule="evenodd" d="M63.686 22.0597H61.7773C62.1043 23.1159 62.6566 24.0273 63.4392 24.6008H67.0632H67.2723C69.2452 24.6008 70.8535 22.9872 70.8535 21.0196V18.4785C70.8535 20.4461 69.2452 22.0597 67.2723 22.0597H67.0632H63.686Z" fill="#85BEEF"/>
<path fill-rule="evenodd" clip-rule="evenodd" d="M52.1814 35.7298C50.7607 36.2606 49.5062 36.5233 48.2571 36.5233C47.0026 36.5233 45.7481 36.2606 44.3274 35.7298C43.0301 35.2473 41.7756 34.5772 40.6016 33.7676V42.8547L47.2385 48.3284H49.2703L52.2831 45.8462L53.8914 44.5219L55.907 42.8547V33.7676C54.7385 34.577 53.4841 35.2473 52.1814 35.7298Z" fill="#F5A96C"/>
<path fill-rule="evenodd" clip-rule="evenodd" d="M48.2571 36.5235C47.0026 36.5235 45.7481 36.2608 44.3274 35.73C43.0301 35.2475 41.7756 34.5774 40.6016 33.7678V38.3139C42.1777 40.0777 48.3107 42.4152 52.2671 40.3779V45.7443L55.9072 40.8495V35.7726V33.7676C54.7385 34.577 53.4841 35.2472 52.1814 35.7298C50.7607 36.261 49.5062 36.5235 48.2571 36.5235Z" fill="#EA9A58"/>
<path fill-rule="evenodd" clip-rule="evenodd" d="M44.896 69.913L48.2574 55.9527L35.7449 42.416C33.4772 43.2684 31.0648 44.3568 28.824 45.7023C25.066 47.9648 21.7904 50.9669 20.5092 54.827C20.134 55.9474 19.9302 57.143 19.9302 58.4135V68.1707C19.8498 69.5592 20.1821 69.913 21.5438 69.913H38.6935H44.896Z" fill="#375E7D"/>
<path fill-rule="evenodd" clip-rule="evenodd" d="M76.5789 58.4136C76.5789 50.1629 67.9423 45.1126 60.764 42.416L48.2568 55.9528L51.9667 69.913H74.9653C76.3324 69.913 76.6593 69.5592 76.5789 68.1707V58.4136Z" fill="#375E7D"/>
<path fill-rule="evenodd" clip-rule="evenodd" d="M53.9238 69.9118L51.3989 55.9515L48.2572 54.252L45.1104 55.9515L42.5854 69.9118H48.2572H53.9238Z" fill="#EB5468"/>
<path fill-rule="evenodd" clip-rule="evenodd" d="M48.257 54.252L45.11 55.9515L44.6973 58.2514H48.5068C48.7811 58.2514 49.0163 58.4476 49.0651 58.7177L51.0929 69.9118H53.9236L51.3986 55.9515L48.257 54.252Z" fill="#E5384F"/>
<path fill-rule="evenodd" clip-rule="evenodd" d="M54.0203 50.3769L52.2834 48.0405L48.2571 47.1602L44.3521 47.804L42.4941 50.3769L45.1104 55.9525H48.2571H51.3988L54.0203 50.3769Z" fill="#EB5468"/>
<path fill-rule="evenodd" clip-rule="evenodd" d="M48.2571 47.1602H44.3521L42.4941 50.3769L43.7593 53.0735L45.8607 51.8994L47.9803 50.7188C48.1523 50.6229 48.3618 50.6231 48.5336 50.7193L50.9485 52.0709L52.7497 53.0735L54.0202 50.3769L52.6267 47.8988L48.2571 47.1602Z" fill="#E5384F"/>
<path fill-rule="evenodd" clip-rule="evenodd" d="M48.2571 47.1597L40.6016 40.8496C39.1703 41.2355 37.4976 41.7556 35.7446 42.4151L40.1779 50.9937C40.3247 51.2779 40.6774 51.3846 40.9572 51.2293L42.4941 50.3763L48.2571 47.1597Z" fill="#EFF6FF"/>
<path fill-rule="evenodd" clip-rule="evenodd" d="M60.7642 42.4151C59.0113 41.7556 57.3439 41.2357 55.9072 40.8496L48.2571 47.1597L54.0201 50.3765L55.5566 51.2293C55.8364 51.3846 56.1892 51.2777 56.3361 50.9934L60.7642 42.4151Z" fill="#EFF6FF"/>
<path fill-rule="evenodd" clip-rule="evenodd" d="M60.7641 42.4151C59.0112 41.7556 57.3438 41.2357 55.9072 40.8496L53.8915 42.5115L52.2832 43.8358C53.8004 44.3182 55.4515 44.9188 57.1242 45.6425C57.6603 45.8731 58.1911 46.1197 58.7218 46.3716L60.7641 42.4151Z" fill="#D9EEFF"/>
<path fill-rule="evenodd" clip-rule="evenodd" d="M76.5791 58.4136C76.5791 50.1629 67.9425 45.1126 60.7642 42.416L58.7217 46.3725C65.9 49.0691 70.6821 54.1192 70.6821 62.3701V69.9132H74.9655C76.3325 69.9132 76.6595 69.5594 76.5791 68.1709V58.4136Z" fill="#2B4D66"/>
<path fill-rule="evenodd" clip-rule="evenodd" d="M63.686 22.4236V18.451C61.547 13.5724 39.0577 1.84219 32.823 19.5821V22.4236C32.823 27.9617 38.0284 34.9096 44.392 37.2684C45.7858 37.7884 47.0188 38.0458 48.2572 38.0458C49.4902 38.0458 50.7232 37.7884 52.1224 37.2684C58.4804 34.9096 63.686 27.9615 63.686 22.4236Z" fill="#FFBC85"/>
<path fill-rule="evenodd" clip-rule="evenodd" d="M63.686 12.9131C63.686 1.58502 45.448 -4.06545 39.7386 3.3488C32.2815 4.00827 32.8283 13.9317 32.8283 15.2398L32.8228 18.4512V19.5823C38.0926 15.6687 36.345 16.6498 40.1083 14.3231C45.8554 10.7741 50.7391 18.4512 59.8527 18.4512H63.6858L63.686 12.9131Z" fill="#375E7D"/>
<path fill-rule="evenodd" clip-rule="evenodd" d="M55.7895 35.339C58.7486 33.291 61.1825 30.3425 62.5336 27.3187C63.2735 25.6675 63.6862 23.9894 63.6862 22.4241V18.4515C62.1315 17.1219 60.4375 16.5216 58.7595 18.4141V22.4241C58.7595 26.8524 55.4357 32.1814 50.8468 35.3499C49.6995 36.1434 48.4718 36.7973 47.196 37.2692C46.7082 37.4515 46.2472 37.5961 45.7915 37.7142C46.6439 37.9393 47.4481 38.0465 48.2575 38.0465C49.4905 38.0465 50.7236 37.7891 52.1227 37.2692C53.3983 36.7973 54.6369 36.1325 55.7895 35.339Z" fill="#F5A96C"/>
<path fill-rule="evenodd" clip-rule="evenodd" d="M58.7594 18.4128C59.1185 18.4397 59.4831 18.4503 59.8531 18.4503H63.6862V12.9122C63.6862 4.22711 52.9696 -1.11785 45.3945 0.201086C51.9778 1.20902 58.7594 6.00724 58.7594 12.9122V18.4128Z" fill="#2B4D66"/>
<path fill-rule="evenodd" clip-rule="evenodd" d="M4.73139 66.0156H89.2686C91.8687 66.0156 93.9971 68.144 93.9971 70.7441V89.2722C93.9971 91.8722 91.8688 94.0006 89.2686 94.0006H4.73139C2.13133 94.0006 0.00292969 91.8722 0.00292969 89.2722V70.7441C0.00311328 68.144 2.13133 66.0156 4.73139 66.0156Z" fill="#9FD4FE"/>
<path fill-rule="evenodd" clip-rule="evenodd" d="M93.9968 89.2722V70.7441C93.9968 68.144 91.8686 66.0156 89.2684 66.0156H82.1973C84.7973 66.0156 86.9257 68.144 86.9257 70.7441V74.2557V89.2722C86.9257 91.8722 84.7975 94.0006 82.1973 94.0006H89.2684C91.8686 94.0006 93.9968 91.8722 93.9968 89.2722Z" fill="#85BEEF"/>
<path d="M9.86161 86.4387C8.11545 86.4387 6.41133 85.7069 5.30334 84.4811C4.7779 83.8998 4.82306 83.003 5.40432 82.4777C5.9854 81.9524 6.88244 81.9976 7.4077 82.5787C7.98694 83.2192 8.90417 83.6017 9.86143 83.6017C10.7396 83.6017 11.377 83.076 11.4637 82.589C11.5791 81.9427 10.5598 81.5137 10.2448 81.3974C8.67835 80.8189 7.28671 80.1971 7.22833 80.1709C7.16076 80.1406 7.09577 80.1051 7.0339 80.0649C5.91802 79.3379 5.34374 78.063 5.53541 76.7373C5.73883 75.3302 6.7664 74.187 8.21716 73.7535C11.0432 72.9 13.3725 74.8184 13.4703 74.9002C14.0703 75.404 14.1482 76.2989 13.6444 76.8987C13.143 77.4959 12.2544 77.5759 11.6544 77.0799C11.617 77.0501 10.3652 76.067 9.0336 76.4705C8.47383 76.6376 8.36459 76.9963 8.34329 77.1428C8.32585 77.2629 8.32897 77.4768 8.51679 77.6384C8.88912 77.8016 10.0177 78.2888 11.227 78.7357C13.8599 79.706 14.5187 81.6198 14.2568 83.0871C13.9106 85.0293 12.062 86.4387 9.86161 86.4387Z" fill="#2B4D66"/>
<path d="M21.8808 86.4384C20.9194 86.4384 20.0366 86.1837 19.2575 85.6812C17.7797 84.7438 17.0259 83.4623 17.0259 81.8783V74.9516C17.0259 74.1681 17.6609 73.5332 18.4443 73.5332C19.2279 73.5332 19.8628 74.1683 19.8628 74.9516V81.8783C19.8628 82.3892 20.0172 82.8036 20.7857 83.2912C21.1123 83.5018 21.4676 83.6013 21.8806 83.6013C22.2651 83.6013 22.5991 83.5268 22.9022 83.3735C23.889 82.8756 24.0219 82.3356 24.0219 81.8729V74.9516C24.0219 74.1681 24.657 73.5332 25.4403 73.5332C26.2237 73.5332 26.8588 74.1683 26.8588 74.9516V81.8729C26.8588 83.0962 26.3943 84.789 24.1814 85.9056C23.4834 86.2588 22.7088 86.4384 21.8808 86.4384Z" fill="#2B4D66"/>
<path d="M87.6441 73.5703H82.0847C81.3011 73.5703 80.6663 74.2054 80.6663 74.9888C80.6663 75.7723 81.3013 76.4072 82.0847 76.4072H83.4325V85.0569C83.4325 85.8404 84.0675 86.4753 84.8509 86.4753C85.6343 86.4753 86.2694 85.8403 86.2694 85.0569V76.4074H87.6439C88.4275 76.4074 89.0624 75.7723 89.0624 74.9889C89.0627 74.2054 88.4277 73.5703 87.6441 73.5703Z" fill="#2B4D66"/>
<path d="M77.7616 77.568C77.7616 75.3433 75.8844 73.5332 73.5768 73.5332H70.9018C70.1291 73.5332 69.4834 74.1794 69.4834 74.9516V85.0199C69.4834 85.8035 70.1184 86.4384 70.9018 86.4384C71.6854 86.4384 72.3203 85.8033 72.3203 85.0199V82.5978L75.2785 85.9574C75.5589 86.2759 75.9503 86.4386 76.3437 86.4386C76.6768 86.4386 77.0111 86.322 77.2806 86.0846C77.8687 85.5669 77.9256 84.6706 77.4079 84.0827L75.0098 81.3591C76.6136 80.7938 77.7616 79.3078 77.7616 77.568ZM73.577 76.3703C74.3075 76.3703 74.9248 76.9189 74.9248 77.568C74.9248 78.2172 74.3075 78.7658 73.577 78.7658C73.2832 78.7658 72.8053 78.7675 72.3348 78.7695C72.3328 78.3127 72.3293 76.8509 72.3273 76.3703H73.577Z" fill="#2B4D66"/>
<path d="M46.2413 73.5332H43.4375C42.6646 73.5332 42.019 74.1794 42.019 74.9516V85.0199C42.019 85.8035 42.6541 86.4384 43.4375 86.4384C44.2211 86.4384 44.8559 85.8033 44.8559 85.0199V82.0571C45.3744 82.0549 45.9156 82.0531 46.2411 82.0531C48.6196 82.0531 50.5545 80.1422 50.5545 77.7931C50.5545 75.444 48.6198 73.5332 46.2413 73.5332ZM46.2413 79.2162C45.918 79.2162 45.383 79.218 44.8675 79.2202C44.8642 78.6861 44.8614 78.1271 44.8614 77.7931C44.8614 77.5097 44.8603 76.9315 44.8592 76.3703H46.2413C47.0416 76.3703 47.7176 77.0219 47.7176 77.7931C47.7176 78.5644 47.0416 79.2162 46.2413 79.2162Z" fill="#2B4D66"/>
<path d="M34.785 73.5332H31.9812C31.2083 73.5332 30.5627 74.1794 30.5627 74.9516V85.0199C30.5627 85.8035 31.1978 86.4384 31.9812 86.4384C32.7648 86.4384 33.3996 85.8033 33.3996 85.0199V82.0571C33.9187 82.0549 34.4599 82.0531 34.7848 82.0531C37.1633 82.0531 39.0982 80.1422 39.0982 77.7931C39.0982 75.444 37.1635 73.5332 34.785 73.5332ZM34.785 79.2162C34.4617 79.2162 33.9258 79.218 33.4092 79.2202C33.407 78.6859 33.4051 78.1271 33.4051 77.7931C33.4051 77.5097 33.404 76.9315 33.4029 76.3703H34.785C35.5853 76.3703 36.2613 77.0219 36.2613 77.7931C36.2613 78.5644 35.5853 79.2162 34.785 79.2162Z" fill="#2B4D66"/>
<path d="M59.5314 86.4386C55.9736 86.4386 53.0789 83.5438 53.0789 79.986C53.0789 76.4279 55.9736 73.5332 59.5314 73.5332C63.0893 73.5332 65.9838 76.4279 65.9838 79.986C65.9837 83.5438 63.0893 86.4386 59.5314 86.4386ZM59.5314 76.3703C57.5378 76.3703 55.9159 77.9923 55.9159 79.986C55.9159 81.9796 57.5378 83.6015 59.5314 83.6015C61.5249 83.6015 63.1468 81.9796 63.1468 79.986C63.1468 77.9923 61.5249 76.3703 59.5314 76.3703Z" fill="#2B4D66"/>
<path d="M68.482 24.3906V28.981C68.482 32.3362 65.7527 35.0692 62.3994 35.0692H49.2754C48.4924 35.0692 47.8569 34.4338 47.8569 33.6507C47.8569 32.8659 48.4924 32.2323 49.2754 32.2323H62.3994C64.1885 32.2323 65.645 30.7722 65.645 28.981V24.6007H67.2734C67.6972 24.6007 68.1038 24.5269 68.482 24.3906Z" fill="#375E7D"/>
</svg>
