<svg width="88" height="88" viewBox="0 0 88 88" fill="none" xmlns="http://www.w3.org/2000/svg">
<path d="M75.0064 28.3223H56.8359V61.2554H86.6068V46.4322L83.1347 34.4323C82.0881 30.8136 78.7736 28.3223 75.0064 28.3223Z" fill="#FF7058"/>
<path d="M82.2604 46.2812L79.166 35.5846C78.6326 33.7459 76.9222 32.459 75.0065 32.459H60.9717V46.2812H82.2604Z" fill="#84DBFF"/>
<path d="M82.2641 46.2754H60.9644V32.4531L82.2641 46.2754Z" fill="#CDD6E0"/>
<path d="M82.2604 46.2812L79.166 35.5846C78.6326 33.7459 76.9222 32.459 75.0065 32.459H60.9717L82.2604 46.2812Z" fill="#F2F2F2"/>
<path d="M5.49954 11.7891H51.3363C54.372 11.7891 56.8358 14.251 56.8358 17.2886V61.2538H0V17.2886C0 14.2511 2.4619 11.7891 5.49954 11.7891Z" fill="#FFD15C"/>
<path d="M37.2502 11.7988V26.3303L35.1236 24.2039L32.8946 26.4331L30.6673 24.2039L28.44 26.4331L26.2089 24.2039L23.9523 26.4331L21.7267 24.2039L19.5747 26.3561V11.7988H37.2502Z" fill="#F2F2F2"/>
<path d="M87.9999 61.2517V67.4662H0.00732422V61.2517H9.19155C11.3364 57.402 15.461 54.7988 20.1906 54.7988C24.9018 54.7988 29.0265 57.402 31.1897 61.2517H60.7406C62.8854 57.402 66.99 54.7988 71.7196 54.7988C76.4492 54.7988 80.5554 57.402 82.7187 61.2517H87.9999Z" fill="#334A5E"/>
<path d="M80.5023 67.4273C80.5023 72.2779 76.5702 76.2101 71.7196 76.2101C66.869 76.2101 62.9404 72.2779 62.9404 67.4273C62.9404 62.5767 66.8707 58.6445 71.7196 58.6445C76.5721 58.6445 80.5023 62.5767 80.5023 67.4273Z" fill="#40596B"/>
<path d="M75.2502 67.4275C75.2502 69.3762 73.6699 70.9546 71.7231 70.9546C69.7744 70.9546 68.1924 69.3762 68.1924 67.4275C68.1924 65.4788 69.7726 63.9004 71.7231 63.9004C73.6699 63.8987 75.2502 65.4789 75.2502 67.4275Z" fill="#ACB3BA"/>
<path d="M28.9659 67.4273C28.9659 72.2779 25.0319 76.2101 20.1832 76.2101C15.3326 76.2101 11.4004 72.2779 11.4004 67.4273C11.4004 62.5767 15.3326 58.6445 20.1832 58.6445C25.0319 58.6445 28.9659 62.5767 28.9659 67.4273Z" fill="#40596B"/>
<path d="M23.7102 67.4275C23.7102 69.3762 22.1318 70.9546 20.1831 70.9546C18.2344 70.9546 16.6543 69.3762 16.6543 67.4275C16.6543 65.4788 18.2346 63.9004 20.1831 63.9004C22.1317 63.9004 23.7102 65.4789 23.7102 67.4275Z" fill="#ACB3BA"/>
</svg>
