<svg xmlns="http://www.w3.org/2000/svg" width="1919.999" height="920.06" viewBox="0 0 1919.999 920.06">
  <g id="Groupe_2436" data-name="Groupe 2436" transform="translate(20970 -5482.832)">
    <path id="Tracé_7599" data-name="Tracé 7599" d="M0,0H1920V861.5s-100.416-131.759-978.1,0S0,861.5,0,861.5Z" transform="translate(-20970 5482.832)" fill="#3282b8"/>
    <g id="Groupe_2727" data-name="Groupe 2727" transform="translate(-20855.398 5573.068)">
      <g id="people-svgrepo-com" transform="matrix(-0.914, 0.407, -0.407, -0.914, 67.98, 37.35)" opacity="0.5">
        <path id="Tracé_7644" data-name="Tracé 7644" d="M0,4.533A35.941,35.941,0,0,1,4.269,0c0,.136-.024.265-.024.4a12,12,0,0,0,7.714,11.162,2.386,2.386,0,0,1,.418,4.257A7.142,7.142,0,1,0,21,27.124a14.2,14.2,0,0,0,4.825,1.706A11.916,11.916,0,1,1,6.943,14.311,16.869,16.869,0,0,1,0,4.533Zm56.21,0a16.868,16.868,0,0,1-6.943,9.782,11.916,11.916,0,1,1-18.88,14.521,14.194,14.194,0,0,0,4.825-1.706,7.141,7.141,0,1,0,8.623-11.309,2.386,2.386,0,0,1,.418-4.257A12,12,0,0,0,51.965.4c0-.136-.019-.265-.024-.4A35.947,35.947,0,0,1,56.21,4.534Z" transform="translate(0 7.074)" fill="#fff"/>
        <path id="Tracé_7645" data-name="Tracé 7645" d="M33.185,2.026a16.823,16.823,0,0,1-7.361,12.2,11.93,11.93,0,1,1-18.463,0A16.824,16.824,0,0,1,0,2.026,35.6,35.6,0,0,1,4.7,0c0,.107-.033.208-.033.317a12,12,0,0,0,7.714,11.162,2.386,2.386,0,0,1,.418,4.259,7.072,7.072,0,0,0-3.359,6.053,7.158,7.158,0,0,0,14.316,0,7.072,7.072,0,0,0-3.36-6.053,2.386,2.386,0,0,1,.418-4.259A12,12,0,0,0,28.523.318c0-.11-.029-.21-.031-.317a35.6,35.6,0,0,1,4.693,2.026Z" transform="translate(11.512 0)" fill="#fff"/>
      </g>
      <g id="people-svgrepo-com-2" data-name="people-svgrepo-com" transform="matrix(0.914, 0.407, -0.407, 0.914, 311.797, 0)" opacity="0.5">
        <path id="Tracé_7644-2" data-name="Tracé 7644" d="M0,29.277A35.941,35.941,0,0,0,4.268,33.81c0-.136-.024-.265-.024-.4a12,12,0,0,1,7.714-11.161,2.386,2.386,0,0,0,.418-4.257A7.142,7.142,0,1,1,21,6.686,14.2,14.2,0,0,1,25.823,4.98,11.915,11.915,0,1,0,6.943,19.5,16.869,16.869,0,0,0,0,29.277Zm56.208,0a16.869,16.869,0,0,0-6.943-9.782A11.915,11.915,0,1,0,30.385,4.973,14.194,14.194,0,0,1,35.21,6.679a7.141,7.141,0,1,1,8.623,11.309,2.386,2.386,0,0,0,.418,4.257,12,12,0,0,1,7.714,11.164c0,.136-.019.265-.024.4A35.944,35.944,0,0,0,56.208,29.277Z" transform="translate(0 0)" fill="#fff"/>
        <path id="Tracé_7645-2" data-name="Tracé 7645" d="M33.184,31.689a16.823,16.823,0,0,0-7.361-12.2,11.93,11.93,0,1,0-18.463,0A16.823,16.823,0,0,0,0,31.689a35.6,35.6,0,0,0,4.7,2.026c0-.107-.033-.208-.033-.317a12,12,0,0,1,7.714-11.161,2.386,2.386,0,0,0,.418-4.259,7.072,7.072,0,0,1-3.359-6.053,7.158,7.158,0,1,1,14.316,0,7.072,7.072,0,0,1-3.359,6.053,2.386,2.386,0,0,0,.418,4.259A12,12,0,0,1,28.522,33.4c0,.11-.029.21-.031.317a35.6,35.6,0,0,0,4.693-2.026Z" transform="translate(11.512 7.169)" fill="#fff"/>
      </g>
      <g id="people-svgrepo-com-3" data-name="people-svgrepo-com" transform="matrix(0.914, 0.407, -0.407, 0.914, 159.998, 715.431)" opacity="0.5">
        <path id="Tracé_7644-3" data-name="Tracé 7644" d="M0,29.277A35.941,35.941,0,0,0,4.269,33.81c0-.136-.024-.265-.024-.4a12,12,0,0,1,7.714-11.162,2.386,2.386,0,0,0,.418-4.257A7.142,7.142,0,1,1,21,6.686,14.2,14.2,0,0,1,25.825,4.98,11.916,11.916,0,1,0,6.944,19.5,16.87,16.87,0,0,0,0,29.277Zm56.21,0a16.868,16.868,0,0,0-6.943-9.782A11.916,11.916,0,1,0,30.387,4.973a14.194,14.194,0,0,1,4.825,1.706,7.141,7.141,0,1,1,8.623,11.309,2.386,2.386,0,0,0,.417,4.257,12,12,0,0,1,7.714,11.164c0,.136-.019.265-.024.4A35.947,35.947,0,0,0,56.21,29.276Z" transform="translate(0 0)" fill="#fff"/>
        <path id="Tracé_7645-3" data-name="Tracé 7645" d="M33.185,31.689a16.823,16.823,0,0,0-7.361-12.2,11.93,11.93,0,1,0-18.463,0A16.824,16.824,0,0,0,0,31.69a35.606,35.606,0,0,0,4.7,2.026c0-.107-.033-.208-.033-.317a12,12,0,0,1,7.714-11.162,2.386,2.386,0,0,0,.418-4.259,7.072,7.072,0,0,1-3.359-6.053,7.158,7.158,0,0,1,14.316,0,7.072,7.072,0,0,1-3.36,6.053,2.386,2.386,0,0,0,.417,4.259A12,12,0,0,1,28.523,33.4c0,.11-.029.21-.031.317a35.6,35.6,0,0,0,4.693-2.026Z" transform="translate(11.513 7.169)" fill="#fff"/>
      </g>
    </g>
    <g id="people-svgrepo-com-4" data-name="people-svgrepo-com" transform="matrix(0.914, 0.407, -0.407, 0.914, -19386.822, 5584.313)" opacity="0.5">
      <path id="Tracé_7644-4" data-name="Tracé 7644" d="M0,29.277A35.941,35.941,0,0,0,4.268,33.81c0-.136-.024-.265-.024-.4a12,12,0,0,1,7.714-11.161,2.386,2.386,0,0,0,.418-4.257A7.142,7.142,0,1,1,21,6.686,14.2,14.2,0,0,1,25.823,4.98,11.915,11.915,0,1,0,6.943,19.5,16.869,16.869,0,0,0,0,29.277Zm56.208,0a16.869,16.869,0,0,0-6.943-9.782A11.915,11.915,0,1,0,30.385,4.973,14.194,14.194,0,0,1,35.21,6.679a7.141,7.141,0,1,1,8.623,11.309,2.386,2.386,0,0,0,.418,4.257,12,12,0,0,1,7.714,11.164c0,.136-.019.265-.024.4A35.944,35.944,0,0,0,56.208,29.277Z" transform="translate(0 0)" fill="#fff"/>
      <path id="Tracé_7645-4" data-name="Tracé 7645" d="M33.184,31.689a16.823,16.823,0,0,0-7.361-12.2,11.93,11.93,0,1,0-18.463,0A16.823,16.823,0,0,0,0,31.689a35.6,35.6,0,0,0,4.7,2.026c0-.107-.033-.208-.033-.317a12,12,0,0,1,7.714-11.161,2.386,2.386,0,0,0,.418-4.259,7.072,7.072,0,0,1-3.359-6.053,7.158,7.158,0,1,1,14.316,0,7.072,7.072,0,0,1-3.359,6.053,2.386,2.386,0,0,0,.418,4.259A12,12,0,0,1,28.522,33.4c0,.11-.029.21-.031.317a35.6,35.6,0,0,0,4.693-2.026Z" transform="translate(11.512 7.169)" fill="#fff"/>
    </g>
  </g>
</svg>
