<svg xmlns="http://www.w3.org/2000/svg" width="221" height="221" viewBox="0 0 221 221">
  <g id="Groupe_2702" data-name="Groupe 2702" transform="translate(-538 4395)">
    <rect id="Rectangle_1907" data-name="Rectangle 1907" width="221" height="221" transform="translate(538 -4395)" fill="#c9c9c9"/>
    <g id="user-svgrepo-com" transform="translate(587.801 -4336)">
      <path id="Tracé_7689" data-name="Tracé 7689" d="M109.906,96.231v-5.5a18.376,18.376,0,0,0-7-14.409A158.431,158.431,0,0,0,78.676,61.043V54.759a30.466,30.466,0,0,0,1.82-5.4c2.708-.973,4.189-4.951,5.184-8.464,1.333-4.676,1.185-7.956-.381-9.775,1.65-8.993.91-15.615-2.179-19.7a9.688,9.688,0,0,0-4.8-3.449,17.721,17.721,0,0,0-5.861-5.12A20.855,20.855,0,0,0,61.643,0c-.719,0-1.439.042-2.074.085a19.8,19.8,0,0,0-5.269.994c-.021,0-.042.021-.063.021a23.436,23.436,0,0,0-5.565,2.835,29.336,29.336,0,0,0-5.565,4.613,23.154,23.154,0,0,0-6.221,10.939,20.569,20.569,0,0,0-.212,9.818,4.913,4.913,0,0,0-1.016.973c-1.46,1.925-1.523,4.951-.233,9.543.889,3.174,2.074,6.411,4.084,7.871a28.8,28.8,0,0,0,2.92,8.273v5.1A156.7,156.7,0,0,0,18.2,76.341a18.344,18.344,0,0,0-7,14.409v5.5a7.2,7.2,0,0,0,7.194,7.194h84.318A7.22,7.22,0,0,0,109.906,96.231Zm-93.543,0v-5.5a13.109,13.109,0,0,1,4.993-10.3A150.854,150.854,0,0,1,45.689,65.233a3.4,3.4,0,0,0,1.925-3.089V55.267a2.6,2.6,0,0,0-.36-1.312A23.4,23.4,0,0,1,44.4,45.513,2.612,2.612,0,0,0,42.473,43.4c-.275-.317-1.058-1.46-2.052-4.993-.825-2.92-.762-4.274-.677-4.761a2.665,2.665,0,0,0,2.179-.994,2.57,2.57,0,0,0,.4-2.454,15.605,15.605,0,0,1-.381-9.437,18.2,18.2,0,0,1,4.93-8.591,23.855,23.855,0,0,1,4.655-3.851c.021-.021.063-.042.085-.063a17.788,17.788,0,0,1,4.359-2.243.074.074,0,0,0,.042-.021,14.079,14.079,0,0,1,3.893-.719,16.513,16.513,0,0,1,9.966,2.095,12.153,12.153,0,0,1,4.528,4.1,2.368,2.368,0,0,0,2.052,1.375,4.183,4.183,0,0,1,2.624,1.883c1.248,1.777,3.026,6.348.8,17.012a2.588,2.588,0,0,0,1.439,2.878c.106.381.275,1.672-.635,4.888a17.517,17.517,0,0,1-1.841,4.7,2.483,2.483,0,0,0-1.46.169A2.6,2.6,0,0,0,75.84,46.3a26.23,26.23,0,0,1-2.095,6.771,2.628,2.628,0,0,0-.254,1.121v7.956a3.423,3.423,0,0,0,1.925,3.089A151.743,151.743,0,0,1,99.729,80.425a13.109,13.109,0,0,1,4.994,10.3v5.5a2.023,2.023,0,0,1-2.01,2.01H18.394A2,2,0,0,1,16.363,96.231Z" fill="#fff"/>
    </g>
  </g>
</svg>
