<svg xmlns="http://www.w3.org/2000/svg" width="9.221" height="9.221" viewBox="0 0 9.221 9.221">
  <g id="tag-svgrepo-com" transform="translate(-0.011 0)">
    <g id="Group_2662" data-name="Group 2662" transform="translate(0.011 0)">
      <path id="Path_7685" data-name="Path 7685" d="M9.231,3.725,9.148.7A.637.637,0,0,0,8.529.083L5.507,0a.633.633,0,0,0-.468.186L.2,5.028a.638.638,0,0,0,0,.9L3.3,9.034a.637.637,0,0,0,.9,0L9.045,4.193A.64.64,0,0,0,9.231,3.725ZM7.848,2.915a1.083,1.083,0,1,1,0-1.532A1.083,1.083,0,0,1,7.848,2.915Z" transform="translate(-0.011 0)" fill="#a084ca"/>
    </g>
  </g>
</svg>
