<svg width="197" height="42" viewBox="0 0 197 42" fill="none" xmlns="http://www.w3.org/2000/svg">
<path d="M2.876 34V9.415H13.238C15.658 9.415 17.561 10.031 18.947 11.263C20.333 12.495 21.026 14.189 21.026 16.345C21.026 17.181 20.861 17.973 20.531 18.721C20.223 19.469 19.728 20.151 19.046 20.767C20.146 21.471 20.916 22.318 21.356 23.308C21.796 24.298 22.016 25.354 22.016 26.476C22.016 28.83 21.235 30.678 19.673 32.02C18.133 33.34 15.988 34 13.238 34H2.876ZM7.364 18.952H13.469C14.393 18.952 15.13 18.688 15.68 18.16C16.23 17.61 16.505 16.906 16.505 16.048C16.505 15.19 16.23 14.508 15.68 14.002C15.13 13.496 14.393 13.243 13.469 13.243H7.364V18.952ZM7.364 30.04H13.7C14.866 30.04 15.79 29.721 16.472 29.083C17.176 28.423 17.528 27.554 17.528 26.476C17.528 25.376 17.176 24.507 16.472 23.869C15.79 23.209 14.866 22.879 13.7 22.879H7.364V30.04ZM31.4344 34.396C29.5644 34.396 28.0684 33.934 26.9464 33.01C25.8244 32.086 25.2634 30.832 25.2634 29.248C25.2634 27.752 25.7694 26.509 26.7814 25.519C27.7934 24.529 29.3554 23.858 31.4674 23.506L36.8134 22.648V22.054C36.8134 21.284 36.5054 20.646 35.8894 20.14C35.2954 19.612 34.5034 19.348 33.5134 19.348C32.5674 19.348 31.7424 19.601 31.0384 20.107C30.3344 20.591 29.8174 21.24 29.4874 22.054L25.9564 20.338C26.4844 18.93 27.4524 17.797 28.8604 16.939C30.2684 16.081 31.8744 15.652 33.6784 15.652C35.1524 15.652 36.4394 15.927 37.5394 16.477C38.6614 17.005 39.5414 17.753 40.1794 18.721C40.8174 19.689 41.1364 20.8 41.1364 22.054V34H37.0444V32.086C35.6364 33.626 33.7664 34.396 31.4344 34.396ZM29.7514 29.083C29.7514 29.699 29.9824 30.194 30.4444 30.568C30.9064 30.92 31.5004 31.096 32.2264 31.096C33.5904 31.096 34.6904 30.667 35.5264 29.809C36.3844 28.951 36.8134 27.906 36.8134 26.674V25.948L32.2924 26.707C30.5984 27.037 29.7514 27.829 29.7514 29.083ZM52.623 34.396C50.709 34.396 49.037 33.934 47.607 33.01C46.199 32.086 45.231 30.854 44.703 29.314L47.937 27.763C48.421 28.775 49.07 29.567 49.884 30.139C50.698 30.711 51.611 30.997 52.623 30.997C53.393 30.997 54.009 30.832 54.471 30.502C54.955 30.15 55.197 29.677 55.197 29.083C55.197 28.577 54.988 28.181 54.57 27.895C54.174 27.587 53.69 27.356 53.118 27.202L50.181 26.377C48.663 25.937 47.508 25.266 46.716 24.364C45.946 23.462 45.561 22.395 45.561 21.163C45.561 20.063 45.836 19.106 46.386 18.292C46.958 17.456 47.739 16.807 48.729 16.345C49.741 15.883 50.896 15.652 52.194 15.652C53.888 15.652 55.384 16.07 56.682 16.906C57.98 17.72 58.904 18.853 59.454 20.305L56.154 21.856C55.868 21.042 55.351 20.393 54.603 19.909C53.877 19.425 53.063 19.183 52.161 19.183C51.435 19.183 50.863 19.348 50.445 19.678C50.027 20.008 49.818 20.437 49.818 20.965C49.818 21.471 50.016 21.867 50.412 22.153C50.808 22.439 51.314 22.67 51.93 22.846L54.801 23.704C56.297 24.122 57.441 24.782 58.233 25.684C59.025 26.586 59.421 27.664 59.421 28.918C59.421 29.996 59.135 30.953 58.563 31.789C57.991 32.603 57.199 33.241 56.187 33.703C55.175 34.165 53.987 34.396 52.623 34.396ZM63.4032 14.035V9.415H67.7262V14.035H63.4032ZM63.4032 34V16.048H67.7262V34H63.4032ZM81.0236 34.396C79.2416 34.396 77.6356 33.989 76.2056 33.175C74.7976 32.339 73.6866 31.217 72.8726 29.809C72.0586 28.379 71.6516 26.773 71.6516 24.991C71.6516 23.209 72.0586 21.614 72.8726 20.206C73.6866 18.798 74.7976 17.687 76.2056 16.873C77.6356 16.059 79.2416 15.652 81.0236 15.652C82.2996 15.652 83.4876 15.872 84.5876 16.312C85.6876 16.752 86.6336 17.379 87.4256 18.193C88.2176 18.985 88.8006 19.909 89.1746 20.965L85.3796 22.615C85.0276 21.713 84.4666 20.987 83.6966 20.437C82.9486 19.887 82.0576 19.612 81.0236 19.612C80.0776 19.612 79.2306 19.843 78.4826 20.305C77.7566 20.767 77.1846 21.405 76.7666 22.219C76.3486 23.033 76.1396 23.968 76.1396 25.024C76.1396 26.058 76.3486 26.993 76.7666 27.829C77.1846 28.643 77.7566 29.281 78.4826 29.743C79.2306 30.205 80.0776 30.436 81.0236 30.436C82.0576 30.436 82.9486 30.172 83.6966 29.644C84.4666 29.094 85.0276 28.346 85.3796 27.4L89.1746 29.116C88.8226 30.128 88.2506 31.041 87.4586 31.855C86.6666 32.647 85.7206 33.274 84.6206 33.736C83.5206 34.176 82.3216 34.396 81.0236 34.396Z" fill="#F4890A"/>
<path d="M102.256 34.396C100.694 34.396 99.2418 34.11 97.8998 33.538C96.5798 32.966 95.4358 32.174 94.4678 31.162C93.5218 30.128 92.8288 28.929 92.3888 27.565L96.1178 25.948C96.7118 27.356 97.5698 28.467 98.6918 29.281C99.8138 30.073 101.079 30.469 102.487 30.469C103.653 30.469 104.588 30.194 105.292 29.644C106.018 29.094 106.381 28.368 106.381 27.466C106.381 26.74 106.161 26.146 105.721 25.684C105.303 25.222 104.665 24.848 103.807 24.562L99.0878 23.044C97.1738 22.428 95.7328 21.537 94.7648 20.371C93.7968 19.183 93.3128 17.786 93.3128 16.18C93.3128 14.772 93.6538 13.529 94.3358 12.451C95.0398 11.373 96.0078 10.537 97.2398 9.943C98.4938 9.327 99.9238 9.019 101.53 9.019C103.752 9.019 105.677 9.58 107.305 10.702C108.955 11.824 110.11 13.309 110.77 15.157L107.074 16.807C106.59 15.575 105.864 14.629 104.896 13.969C103.928 13.287 102.806 12.946 101.53 12.946C100.386 12.946 99.4618 13.232 98.7578 13.804C98.0758 14.354 97.7348 15.08 97.7348 15.982C97.7348 16.664 97.9548 17.269 98.3948 17.797C98.8568 18.303 99.5278 18.699 100.408 18.985L104.929 20.404C108.845 21.658 110.803 23.924 110.803 27.202C110.803 28.61 110.44 29.853 109.714 30.931C108.988 32.009 107.987 32.856 106.711 33.472C105.435 34.088 103.95 34.396 102.256 34.396ZM123.325 34.198C121.301 34.198 119.728 33.637 118.606 32.515C117.506 31.393 116.956 29.831 116.956 27.829V19.909H113.854V16.048H114.184C115.064 16.048 115.746 15.817 116.23 15.355C116.714 14.893 116.956 14.222 116.956 13.342V11.956H121.279V16.048H125.404V19.909H121.279V27.598C121.279 28.5 121.521 29.193 122.005 29.677C122.489 30.161 123.259 30.403 124.315 30.403C124.667 30.403 125.052 30.37 125.47 30.304V34.033C124.766 34.143 124.051 34.198 123.325 34.198ZM138.05 34.396C136.29 34.396 134.684 33.989 133.232 33.175C131.802 32.361 130.658 31.25 129.8 29.842C128.964 28.434 128.546 26.828 128.546 25.024C128.546 23.22 128.964 21.614 129.8 20.206C130.658 18.798 131.802 17.687 133.232 16.873C134.662 16.059 136.268 15.652 138.05 15.652C139.81 15.652 141.405 16.059 142.835 16.873C144.265 17.687 145.398 18.798 146.234 20.206C147.092 21.614 147.521 23.22 147.521 25.024C147.521 26.828 147.092 28.445 146.234 29.875C145.376 31.283 144.232 32.394 142.802 33.208C141.372 34 139.788 34.396 138.05 34.396ZM138.05 30.436C139.018 30.436 139.865 30.205 140.591 29.743C141.339 29.281 141.922 28.643 142.34 27.829C142.78 26.993 143 26.058 143 25.024C143 23.99 142.78 23.066 142.34 22.252C141.922 21.438 141.339 20.8 140.591 20.338C139.865 19.854 139.018 19.612 138.05 19.612C137.082 19.612 136.213 19.854 135.443 20.338C134.695 20.8 134.101 21.438 133.661 22.252C133.243 23.066 133.034 23.99 133.034 25.024C133.034 26.058 133.243 26.993 133.661 27.829C134.101 28.643 134.695 29.281 135.443 29.743C136.213 30.205 137.082 30.436 138.05 30.436ZM151.459 34V16.048H155.518V18.589C155.98 17.555 156.629 16.84 157.465 16.444C158.301 16.048 159.269 15.85 160.369 15.85H161.425V19.678H159.874C158.664 19.678 157.674 20.063 156.904 20.833C156.156 21.581 155.782 22.637 155.782 24.001V34H151.459ZM172.976 34.396C171.128 34.396 169.511 33.978 168.125 33.142C166.739 32.306 165.661 31.173 164.891 29.743C164.121 28.313 163.736 26.729 163.736 24.991C163.736 23.187 164.121 21.592 164.891 20.206C165.683 18.798 166.75 17.687 168.092 16.873C169.456 16.059 170.974 15.652 172.646 15.652C174.516 15.652 176.1 16.059 177.398 16.873C178.696 17.665 179.686 18.721 180.368 20.041C181.05 21.361 181.391 22.824 181.391 24.43C181.391 24.76 181.369 25.09 181.325 25.42C181.303 25.728 181.248 26.003 181.16 26.245H168.224C168.356 27.565 168.862 28.621 169.742 29.413C170.622 30.205 171.711 30.601 173.009 30.601C173.999 30.601 174.835 30.392 175.517 29.974C176.221 29.534 176.771 28.973 177.167 28.291L180.665 30.007C180.115 31.283 179.147 32.339 177.761 33.175C176.397 33.989 174.802 34.396 172.976 34.396ZM172.646 19.216C171.568 19.216 170.633 19.546 169.841 20.206C169.071 20.844 168.565 21.757 168.323 22.945H176.771C176.683 21.845 176.254 20.954 175.484 20.272C174.736 19.568 173.79 19.216 172.646 19.216Z" fill="#272727"/>
<path d="M187.374 34V29.38H191.73V34H187.374Z" fill="#F4890A"/>
</svg>
