<svg width="29" height="27" viewBox="0 0 29 27" fill="none" xmlns="http://www.w3.org/2000/svg">
<path fill-rule="evenodd" clip-rule="evenodd" d="M1.5921 0.151469C1.33391 0.0606657 1.05023 0.076146 0.803452 0.194505C0.556678 0.312864 0.367029 0.524406 0.276225 0.782594C0.185422 1.04078 0.200902 1.32447 0.319261 1.57124C0.43762 1.81802 0.649162 2.00767 0.90735 2.09847L1.2676 2.22359C2.18473 2.54672 2.78835 2.75984 3.23248 2.97847C3.6491 3.18334 3.83335 3.34972 3.95435 3.52572C4.0781 3.70722 4.17435 3.95747 4.22935 4.45659C4.28435 4.97909 4.28573 5.65972 4.28573 6.67722V10.42C4.28573 12.4178 4.30498 13.8575 4.49335 14.9575C4.6941 16.1317 5.0956 16.9732 5.84773 17.7652C6.66448 18.6273 7.69848 19.0027 8.93185 19.176C10.1116 19.3437 11.6104 19.3437 13.4597 19.3437H20.893C21.9132 19.3437 22.7712 19.3437 23.4642 19.2585C24.2026 19.1691 24.8736 18.9711 25.4607 18.494C26.0465 18.0155 26.3751 17.3981 26.6116 16.6941C26.8357 16.0313 27.009 15.1912 27.2152 14.1916L27.9137 10.7967L27.9165 10.7898L27.9302 10.7183C28.1571 9.58397 28.3469 8.62972 28.395 7.86247C28.4445 7.05672 28.3524 6.26197 27.8271 5.57997C27.504 5.15922 27.0502 4.92134 26.6364 4.77697C26.1892 4.62994 25.7271 4.5331 25.2586 4.48822C24.314 4.38372 23.1659 4.38372 22.0411 4.38372H6.29185C6.28772 4.33418 6.28314 4.28468 6.2781 4.23522C6.20385 3.55184 6.04435 2.92897 5.65523 2.36247C5.26473 1.79047 4.74498 1.42472 4.13998 1.12634C3.57348 0.848594 2.85298 0.595594 2.0046 0.297219L1.5921 0.151469ZM6.3496 6.44622H21.9971C23.1741 6.44622 24.2109 6.44759 25.029 6.53834C25.436 6.58509 25.7399 6.64834 25.953 6.72259C26.04 6.74749 26.1219 6.78752 26.195 6.84084C26.2802 6.95359 26.371 7.15709 26.3352 7.73597C26.2981 8.34647 26.1386 9.16047 25.8939 10.3842V10.387L25.2064 13.7145C24.9864 14.7911 24.8351 15.5061 24.6577 16.0355C24.4886 16.5387 24.3291 16.7546 24.1572 16.8948C23.9853 17.0351 23.7406 17.1478 23.2154 17.2111C22.6599 17.2798 21.9297 17.2812 20.8311 17.2812H13.5395C11.5911 17.2812 10.2395 17.2785 9.22198 17.1341C8.23748 16.9952 7.7191 16.7422 7.34373 16.3462C6.90373 15.8815 6.66585 15.4277 6.5256 14.6096C6.37435 13.7158 6.34823 12.4673 6.34823 10.42L6.3496 6.44622ZM8.81223 26.9062C7.99171 26.9062 7.2048 26.5803 6.62461 26.0001C6.04442 25.4199 5.71848 24.633 5.71848 23.8125C5.71848 22.992 6.04442 22.205 6.62461 21.6249C7.2048 21.0447 7.99171 20.7187 8.81223 20.7187C9.63274 20.7187 10.4196 21.0447 10.9998 21.6249C11.58 22.205 11.906 22.992 11.906 23.8125C11.906 24.633 11.58 25.4199 10.9998 26.0001C10.4196 26.5803 9.63274 26.9062 8.81223 26.9062ZM7.78098 23.8125C7.78098 24.086 7.88962 24.3483 8.08302 24.5417C8.27642 24.7351 8.53872 24.8437 8.81223 24.8437C9.08573 24.8437 9.34803 24.7351 9.54143 24.5417C9.73483 24.3483 9.84348 24.086 9.84348 23.8125C9.84348 23.539 9.73483 23.2767 9.54143 23.0833C9.34803 22.8899 9.08573 22.7812 8.81223 22.7812C8.53872 22.7812 8.27642 22.8899 8.08302 23.0833C7.88962 23.2767 7.78098 23.539 7.78098 23.8125ZM21.1872 26.9062C20.3667 26.9062 19.5798 26.5803 18.9996 26.0001C18.4194 25.4199 18.0935 24.633 18.0935 23.8125C18.0935 22.992 18.4194 22.205 18.9996 21.6249C19.5798 21.0447 20.3667 20.7187 21.1872 20.7187C22.0077 20.7187 22.7946 21.0447 23.3748 21.6249C23.955 22.205 24.281 22.992 24.281 23.8125C24.281 24.633 23.955 25.4199 23.3748 26.0001C22.7946 26.5803 22.0077 26.9062 21.1872 26.9062ZM20.156 23.8125C20.156 24.086 20.2646 24.3483 20.458 24.5417C20.6514 24.7351 20.9137 24.8437 21.1872 24.8437C21.4607 24.8437 21.723 24.7351 21.9164 24.5417C22.1098 24.3483 22.2185 24.086 22.2185 23.8125C22.2185 23.539 22.1098 23.2767 21.9164 23.0833C21.723 22.8899 21.4607 22.7812 21.1872 22.7812C20.9137 22.7812 20.6514 22.8899 20.458 23.0833C20.2646 23.2767 20.156 23.539 20.156 23.8125Z" fill="#F4890A"/>
</svg>
