<svg width="91" height="111" viewBox="0 0 91 111" fill="none" xmlns="http://www.w3.org/2000/svg">
<path fill-rule="evenodd" clip-rule="evenodd" d="M42.254 44.2114C42.2407 44.6149 42.3021 45.0346 42.3637 45.4536C42.5621 47.6849 42.7567 50.2788 43.6912 52.3733C44.9461 55.1265 46.7513 56.4904 48.7672 56.9269C51.6049 57.5391 54.9839 56.1105 57.4213 53.6551C59.8528 51.2258 61.4041 47.8446 60.9359 44.7311C60.636 42.6021 59.3768 40.5576 56.753 39.0032C53.7886 37.2241 50.5391 37.3911 47.4363 38.6364C46.2355 39.0954 45.1516 39.7298 44.0483 40.4491C44.1003 39.1848 44.1548 37.9086 44.2134 36.6153C44.541 32.412 45.3626 28.1022 46.5171 24.052C47.9721 18.6782 50.2681 13.7427 53.4921 9.20283C53.7463 8.7733 53.6431 8.19214 53.2394 7.89996C52.8356 7.60853 52.2643 7.71074 51.9357 8.12334C48.5923 12.8437 46.1754 17.9663 44.672 23.5532C43.565 27.7395 42.6412 32.1561 42.3612 36.4949C42.2655 38.2967 42.1768 40.0665 42.1673 41.8339C39.9526 43.6529 38.0547 45.8015 36.7617 47.7013C28.3794 60.4708 30.8922 80.7993 34.7262 94.9651C34.8492 95.4584 35.3328 95.7452 35.8329 95.6128C36.3331 95.4796 36.6068 94.9644 36.4838 94.4712C32.7811 80.762 30.1979 61.0858 38.3295 48.7309C39.286 47.278 40.6684 45.675 42.254 44.2114ZM44.0796 42.7271C44.0477 43.558 44.0909 44.4005 44.2096 45.2578C44.4475 47.3155 44.5349 49.69 45.3545 51.6002C46.2931 53.6769 47.6115 54.7728 49.1048 55.0962C51.4942 55.6128 54.1363 54.3248 56.0771 52.3316C58.0982 50.33 59.5052 47.5835 59.0727 45.0029C58.8218 43.348 57.8397 41.8067 55.8399 40.6093C53.3549 39.1341 50.648 39.3279 48.1408 40.3653C46.6814 40.9278 45.3181 41.7573 44.0796 42.7271Z" fill="#28292B"/>
<path fill-rule="evenodd" clip-rule="evenodd" d="M36.5031 103.549C36.2573 103.276 36.0348 102.901 35.8124 102.524C35.3621 101.796 34.9784 101.045 34.5856 100.607C32.2404 97.9209 29.3947 94.7293 26.3015 92.8981C25.9778 92.6971 25.5214 92.8096 25.3192 93.1577C25.1172 93.5052 25.2014 93.9472 25.5837 94.1614C28.511 95.9095 31.1989 98.9852 33.5042 101.575C33.891 102.041 34.3618 102.948 34.8087 103.691C35.2181 104.328 35.6514 104.86 36.1443 105.13C36.413 105.302 36.9665 105.304 37.4674 104.725C38.1479 103.897 39.1471 101.395 39.2626 101.158C40.4256 98.7462 41.5192 96.6404 44.1085 95.5391C44.4537 95.3743 44.6135 94.9408 44.5101 94.5831C44.3481 94.212 43.8956 94.0354 43.5502 94.2008C40.6172 95.4605 39.2285 97.7818 37.9261 100.536C37.8841 100.721 37.2978 102.218 36.7019 103.216C36.6169 103.32 36.5877 103.448 36.5031 103.549Z" fill="#28292B"/>
</svg>
