<svg width="17" height="18" viewBox="0 0 17 18" fill="none" xmlns="http://www.w3.org/2000/svg">
<g clip-path="url(#clip0_282_3173)">
<path d="M16.9999 2.4C16.9999 2.04638 16.8594 1.70724 16.6094 1.45719C16.3593 1.20714 16.0202 1.06667 15.6666 1.06667L4.99992 1C4.6463 1 4.30716 1.14048 4.05711 1.39052C3.80706 1.64057 3.66659 1.97971 3.66659 2.33333C3.66659 2.68696 3.80706 3.02609 4.05711 3.27614C4.30716 3.52619 4.6463 3.66667 4.99992 3.66667H12.4133L1.38659 14.72C1.26161 14.844 1.16242 14.9914 1.09473 15.1539C1.02704 15.3164 0.992188 15.4907 0.992188 15.6667C0.992188 15.8427 1.02704 16.017 1.09473 16.1794C1.16242 16.3419 1.26161 16.4894 1.38659 16.6133C1.51054 16.7383 1.658 16.8375 1.82048 16.9052C1.98296 16.9729 2.15724 17.0077 2.33325 17.0077C2.50927 17.0077 2.68354 16.9729 2.84602 16.9052C3.0085 16.8375 3.15597 16.7383 3.27992 16.6133L14.3333 5.56V13C14.3333 13.3536 14.4737 13.6928 14.7238 13.9428C14.9738 14.1929 15.313 14.3333 15.6666 14.3333C16.0202 14.3333 16.3593 14.1929 16.6094 13.9428C16.8594 13.6928 16.9999 13.3536 16.9999 13V2.4Z" fill="#5AC264"/>
</g>
<defs>
<clipPath id="clip0_282_3173">
<rect width="17" height="17" fill="white" transform="translate(0 0.5)"/>
</clipPath>
</defs>
</svg>
