<svg width="506" height="438" viewBox="0 0 506 438" fill="none" xmlns="http://www.w3.org/2000/svg">
<g clip-path="url(#clip0_282_3062)">
<path d="M506 455L404.506 0H0V455H506Z" fill="#F63C75"/>
<path d="M135.959 135.525C129.163 135.525 122.645 132.826 117.839 128.02C113.033 123.214 110.333 116.696 110.333 109.899C110.333 103.102 113.033 96.5842 117.839 91.7783C122.645 86.9724 129.163 84.2725 135.959 84.2725C142.756 84.2725 149.274 86.9724 154.08 91.7783C158.886 96.5842 161.586 103.102 161.586 109.899C161.586 116.696 158.886 123.214 154.08 128.02C149.274 132.826 142.756 135.525 135.959 135.525Z" fill="#EBEBEB"/>
<path d="M129.639 104.191H124.336V121.328H129.639V104.191Z" fill="white"/>
<path d="M126.961 101.947C127.588 101.953 128.203 101.772 128.727 101.428C129.251 101.084 129.662 100.592 129.906 100.015C130.15 99.4371 130.217 98.8 130.098 98.1843C129.979 97.5686 129.68 97.002 129.239 96.5565C128.798 96.111 128.234 95.8067 127.62 95.6822C127.005 95.5576 126.367 95.6185 125.787 95.8571C125.207 96.0957 124.712 96.5012 124.363 97.0221C124.014 97.5431 123.827 98.156 123.827 98.783C123.825 99.6176 124.154 100.419 124.741 101.012C125.328 101.605 126.127 101.941 126.961 101.947Z" fill="white"/>
<path d="M138.121 112.329C138.121 109.921 139.228 108.485 141.353 108.485C143.297 108.485 144.24 109.861 144.24 112.329V121.305H149.513V110.474C149.513 105.882 146.918 103.667 143.282 103.667C142.251 103.654 141.234 103.908 140.33 104.403C139.426 104.898 138.665 105.619 138.121 106.495V104.191H133.027V121.32H138.121V112.329Z" fill="white"/>
<path d="M170.3 58.8701L173.808 65.2805L180.226 68.7961L173.808 72.3042L170.3 78.7146L166.792 72.3042L160.374 68.7961L166.792 65.2805L170.3 58.8701Z" fill="#F5F5F5"/>
<path d="M316.647 232.69L319.28 237.508L324.089 240.133L319.28 242.766L316.647 247.583L314.014 242.766L309.204 240.133L314.014 237.508L316.647 232.69Z" fill="#EBEBEB"/>
<path d="M324.089 208.934L325.278 211.103L327.448 212.292L325.278 213.481L324.089 215.651L322.907 213.481L320.73 212.292L322.907 211.103L324.089 208.934Z" fill="#E0E0E0"/>
<path d="M145.235 61.2783L146.424 63.455L148.593 64.6368L146.424 65.8262L145.235 67.9954L144.053 65.8262L141.876 64.6368L144.053 63.455L145.235 61.2783Z" fill="#E0E0E0"/>
<path d="M85.709 262.977C87.0892 262.345 88.254 261.322 89.0595 260.035C89.8651 258.748 90.2761 257.254 90.2419 255.736C90.2419 251.45 86.9133 248.009 82.8966 248.039C78.8798 248.069 75.6559 251.577 75.6933 255.863C75.6825 257.394 76.1258 258.893 76.9674 260.171C77.8089 261.449 79.0107 262.449 80.4207 263.044C69.2456 264.877 69.9038 277.039 69.9038 277.039L96.3755 276.815C96.3755 276.815 96.8318 264.51 85.709 262.977Z" fill="#E0E0E0"/>
<path d="M339.663 343.148C339.476 342.188 338.955 341.326 338.191 340.716C337.428 340.105 336.473 339.786 335.495 339.814C334.518 339.843 333.583 340.218 332.857 340.873C332.131 341.527 331.661 342.418 331.532 343.387C331.396 342.42 330.921 341.532 330.191 340.882C329.462 340.233 328.525 339.863 327.549 339.84C326.572 339.816 325.619 340.141 324.86 340.755C324.1 341.369 323.583 342.233 323.401 343.192C323.205 344.61 323.564 346.049 324.403 347.209C325.234 348.353 326.209 349.384 327.306 350.276C328.802 351.6 330.155 352.834 331.636 354.151C333.132 352.819 334.352 351.57 335.818 350.239C336.909 349.337 337.878 348.296 338.698 347.142C339.516 345.982 339.861 344.553 339.663 343.148Z" fill="#EBEBEB"/>
<path d="M356.904 185.476L359.739 184.915L364.227 175.057L363.105 169.394C363.105 169.394 367.436 168.257 368.394 175.775C369.351 183.292 369.531 181.295 369.531 181.295C369.531 181.295 378.843 179.485 379.778 180.136C380.459 180.614 382.546 189.815 383.638 194.811C383.94 196.009 383.832 197.273 383.332 198.403C382.832 199.532 381.968 200.461 380.878 201.042C380.567 201.195 380.238 201.306 379.898 201.371C377.579 201.835 365.342 202.299 365.342 202.299L360.442 203.271L356.904 185.476Z" fill="#E0E0E0"/>
<path d="M348.474 185.529L354.061 204.588L358.923 203.623L355.153 184.616L348.474 185.529Z" fill="#E0E0E0"/>
<path d="M385.912 392.051C385.912 392.163 311.733 392.245 220.252 392.245C128.772 392.245 54.5703 392.163 54.5703 392.051C54.5703 391.939 128.735 391.856 220.252 391.856C311.77 391.856 385.912 391.946 385.912 392.051Z" fill="#263238"/>
<path d="M328.286 177.996C321.037 181.52 312.685 182.02 305.067 179.388C297.449 176.755 291.189 171.204 287.662 163.957C284.139 156.707 283.638 148.356 286.271 140.738C288.904 133.12 294.454 126.859 301.702 123.333C305.291 121.587 309.189 120.565 313.173 120.326C317.158 120.087 321.15 120.635 324.922 121.939C328.694 123.242 332.173 125.276 335.159 127.925C338.145 130.573 340.581 133.783 342.326 137.373C344.072 140.962 345.093 144.86 345.333 148.844C345.572 152.828 345.024 156.82 343.72 160.592C342.416 164.365 340.382 167.843 337.734 170.83C335.086 173.816 331.875 176.251 328.286 177.996Z" fill="#A3A09F"/>
<path d="M307.484 157.456C307.595 157.454 307.705 157.426 307.804 157.376C307.904 157.326 307.99 157.254 308.059 157.166C308.127 157.077 308.174 156.975 308.198 156.866C308.221 156.757 308.22 156.645 308.194 156.536C308.12 156.17 307.918 155.242 307.843 154.861C307.738 154.33 307.611 154.187 307.095 153.948C305.755 153.332 304.689 152.242 304.103 150.889C301.814 146.176 303.288 140.245 308.942 137.5C313.947 135.061 318.188 136.752 320.162 140.866C322.773 146.244 322.601 151.936 319.07 153.656C318.63 153.899 318.139 154.034 317.637 154.052C317.135 154.07 316.636 153.97 316.18 153.759C315.723 153.549 315.323 153.235 315.01 152.841C314.698 152.448 314.482 151.987 314.38 151.495C313.797 148.862 313.632 145.787 312.81 144.082C312.062 142.586 310.625 141.681 308.935 142.504C306.938 143.476 306.339 146.318 307.686 149.079C308.166 150.099 308.857 151.007 309.713 151.741C309.713 151.741 311.882 161.376 312.256 163.066C313.004 166.425 315.413 169.798 315.645 170.18C315.678 170.222 315.722 170.254 315.773 170.272C315.823 170.29 315.878 170.294 315.931 170.282C315.983 170.27 316.031 170.244 316.069 170.206C316.107 170.168 316.134 170.12 316.146 170.067C316.213 169.738 317.163 165.654 316.542 162.333C316.37 161.391 315.36 156.566 315.36 156.566C316.609 157.486 319.033 157.658 321.045 156.678C327.029 153.761 328.45 146.318 324.89 139.003C322.205 133.475 315.009 130.603 307.895 134.066C299.032 138.375 297.655 146.894 300.228 152.19C301.784 155.399 304.365 157.688 307.484 157.456Z" fill="white"/>
<path d="M358.632 263.725C356.059 262.744 353.706 261.265 351.705 259.374C349.705 257.482 348.097 255.215 346.973 252.701C345.85 250.188 345.233 247.477 345.158 244.725C345.083 241.973 345.552 239.233 346.537 236.662C347.517 234.09 348.995 231.736 350.885 229.736C352.776 227.735 355.043 226.126 357.555 225.002C360.068 223.878 362.778 223.261 365.53 223.185C368.281 223.109 371.021 223.576 373.592 224.56C376.164 225.541 378.518 227.019 380.519 228.911C382.519 230.802 384.127 233.07 385.251 235.583C386.374 238.097 386.991 240.807 387.066 243.559C387.14 246.311 386.672 249.051 385.687 251.622C384.707 254.195 383.229 256.548 381.338 258.549C379.448 260.55 377.181 262.158 374.668 263.282C372.156 264.406 369.446 265.024 366.694 265.1C363.942 265.176 361.203 264.709 358.632 263.725Z" fill="#A3A09F"/>
<path fill-rule="evenodd" clip-rule="evenodd" d="M377.063 247.703C377.998 244.953 377.837 241.949 376.613 239.315C375.39 236.681 373.198 234.62 370.495 233.56C367.791 232.501 364.782 232.524 362.095 233.626C359.408 234.727 357.249 236.822 356.067 239.475C355.999 239.624 355.939 239.781 355.88 239.931C355.148 241.837 354.956 243.907 355.326 245.915L351.279 250.799L357.832 251.173C359.095 252.667 360.724 253.806 362.56 254.48C364.396 255.154 366.375 255.34 368.304 255.019C370.234 254.697 372.046 253.88 373.564 252.648C375.083 251.415 376.255 249.809 376.966 247.987C377.003 247.894 377.036 247.799 377.063 247.703ZM363.06 252.737C361.326 252.078 359.825 250.923 358.744 249.416L354.922 249.199L357.278 246.356C356.75 244.441 356.847 242.408 357.555 240.552C357.667 240.268 357.794 239.983 357.929 239.714C358.995 237.603 360.81 235.966 363.019 235.123C365.228 234.28 367.673 234.292 369.873 235.157C372.074 236.022 373.873 237.676 374.918 239.798C375.963 241.919 376.178 244.354 375.522 246.625C375.455 246.865 375.38 247.097 375.29 247.329C374.384 249.666 372.587 251.549 370.294 252.563C368.001 253.577 365.399 253.639 363.06 252.737Z" fill="white"/>
<path fill-rule="evenodd" clip-rule="evenodd" d="M370.451 247.897C370.234 247.673 369.209 246.566 368.999 246.401C368.79 246.236 368.64 246.117 368.371 246.311C368.102 246.506 367.376 246.887 367.167 246.999C366.957 247.112 366.793 247.074 366.583 246.85C365.936 246.257 365.397 245.556 364.99 244.778C364.627 244.046 364.375 243.265 364.242 242.459C364.197 242.145 364.377 242.055 364.556 241.98C364.736 241.906 364.93 241.778 365.117 241.681L365.259 241.591C365.357 241.516 365.45 241.433 365.536 241.345C365.6 241.289 365.648 241.217 365.675 241.137C365.703 241.057 365.709 240.971 365.693 240.888C365.693 240.739 365.641 239.273 365.618 238.682C365.596 238.091 365.349 238.091 365.2 238.031C365.05 237.971 364.885 237.881 364.713 237.821C364.581 237.774 364.441 237.754 364.3 237.763C364.16 237.772 364.023 237.81 363.898 237.874C363.503 238.04 363.146 238.285 362.85 238.595C362.553 238.906 362.325 239.274 362.178 239.676C362.069 239.973 362.001 240.282 361.976 240.597C361.933 241.316 362.017 242.038 362.223 242.728C362.29 242.945 362.926 246.251 365.155 248.286C367.384 250.321 367.526 249.976 368.02 250.111C368.411 250.188 368.815 250.178 369.203 250.082C369.59 249.986 369.952 249.807 370.264 249.558C370.582 249.242 370.798 248.838 370.884 248.398C370.802 248.256 370.66 248.121 370.451 247.897Z" fill="white"/>
<path d="M86.0834 166.844C81.844 166.844 77.7782 165.159 74.7805 162.162C71.7827 159.164 70.0986 155.098 70.0986 150.859C70.0986 146.619 71.7827 142.554 74.7805 139.556C77.7782 136.558 81.844 134.874 86.0834 134.874C88.1825 134.874 90.2611 135.287 92.2005 136.091C94.1399 136.894 95.902 138.072 97.3863 139.556C98.8706 141.04 100.048 142.802 100.851 144.742C101.655 146.681 102.068 148.76 102.068 150.859C102.068 152.958 101.655 155.037 100.851 156.976C100.048 158.915 98.8706 160.677 97.3863 162.162C95.902 163.646 94.1399 164.823 92.2005 165.627C90.2611 166.43 88.1825 166.844 86.0834 166.844Z" fill="#A3A09F"/>
<path d="M77.5712 156.192C79.1063 157.171 80.8808 157.711 82.7013 157.751C84.5218 157.791 86.3184 157.331 87.8954 156.421C89.4725 155.51 90.7693 154.184 91.6448 152.588C92.5202 150.991 92.9407 149.185 92.8603 147.366C93.536 146.875 94.1208 146.27 94.5882 145.578C93.9478 145.859 93.27 146.045 92.576 146.131C93.3076 145.704 93.8601 145.027 94.1319 144.224C93.4395 144.636 92.6798 144.922 91.8879 145.069C91.3633 144.495 90.6626 144.113 89.8963 143.981C89.13 143.85 88.3418 143.977 87.6559 144.343C86.97 144.709 86.4255 145.293 86.1082 146.003C85.791 146.713 85.7191 147.508 85.9039 148.263C84.5141 148.192 83.1548 147.829 81.9139 147.199C80.6731 146.569 79.5784 145.685 78.7006 144.606C78.2559 145.376 78.1205 146.287 78.3218 147.153C78.5232 148.02 79.0463 148.778 79.7852 149.273C79.2294 149.259 78.6852 149.11 78.1995 148.839C78.1902 149.654 78.4653 150.446 78.9773 151.079C79.4893 151.713 80.2062 152.148 81.0045 152.31C80.4898 152.45 79.95 152.471 79.4262 152.37C79.6501 153.063 80.0847 153.669 80.6692 154.103C81.2538 154.537 81.9593 154.779 82.6875 154.793C81.2304 155.91 79.3939 156.412 77.5712 156.192Z" fill="white"/>
<path d="M114.784 345.892C107.685 347.578 100.207 346.377 93.994 342.552C87.7805 338.727 83.3398 332.592 81.6477 325.494C80.8089 321.976 80.6717 318.326 81.2442 314.755C81.8166 311.183 83.0874 307.759 84.9839 304.679C86.8804 301.599 89.3654 298.922 92.2968 296.803C95.2282 294.684 98.5486 293.163 102.068 292.328C105.585 291.49 109.232 291.353 112.802 291.924C116.371 292.496 119.793 293.765 122.872 295.659C125.952 297.553 128.627 300.035 130.747 302.964C132.867 305.892 134.389 309.209 135.227 312.726C136.066 316.246 136.202 319.897 135.628 323.47C135.054 327.043 133.781 330.468 131.883 333.548C129.984 336.629 127.496 339.304 124.562 341.423C121.628 343.541 118.306 345.06 114.784 345.892Z" fill="#455A64"/>
<path d="M105.561 307.079C109.481 306.144 109.952 306.047 111.545 305.748C112.477 305.538 113.439 305.49 114.387 305.605C115.082 305.689 115.749 305.927 116.34 306.301C116.936 306.663 117.447 307.151 117.836 307.73C118.365 308.526 118.755 309.406 118.988 310.333C119.429 311.866 119.556 312.33 120.484 316.25C121.411 320.169 121.508 320.64 121.808 322.234C122.021 323.165 122.069 324.127 121.95 325.076C121.873 325.772 121.635 326.441 121.254 327.028C120.897 327.626 120.411 328.137 119.833 328.524C119.034 329.053 118.152 329.443 117.222 329.676C115.726 330.117 115.233 330.245 111.313 331.172C107.394 332.1 106.922 332.204 105.329 332.504C104.395 332.717 103.43 332.765 102.479 332.646C101.784 332.564 101.117 332.326 100.527 331.95C99.9366 331.577 99.44 331.073 99.0759 330.476C98.5418 329.682 98.1495 328.802 97.9165 327.873C97.4827 326.34 97.3555 325.884 96.4205 321.964C95.4855 318.045 95.3883 317.573 95.0891 315.98C94.8836 315.045 94.8356 314.082 94.9469 313.13C95.0389 312.439 95.2756 311.774 95.6417 311.18C96.0077 310.586 96.4948 310.075 97.0713 309.682C97.8662 309.149 98.7466 308.757 99.6743 308.523C101.17 308.089 101.671 307.962 105.591 307.027M104.963 304.379C100.976 305.329 100.475 305.463 98.9263 305.912C97.7148 306.213 96.5637 306.719 95.5229 307.408C94.6399 308.019 93.8934 308.806 93.3307 309.72C92.768 310.634 92.4014 311.656 92.2541 312.719C92.097 313.966 92.1527 315.231 92.4187 316.459C92.7254 318.037 92.8226 318.546 93.7726 322.533C94.7225 326.52 94.8572 327.021 95.2686 328.562C95.5678 329.774 96.0739 330.925 96.7646 331.965C97.3732 332.881 98.1781 333.65 99.1208 334.216C100.028 334.787 101.049 335.153 102.113 335.286C103.36 335.444 104.625 335.388 105.853 335.122C107.431 334.822 107.94 334.718 111.927 333.768C115.913 332.818 116.415 332.683 117.955 332.272C119.165 331.966 120.315 331.46 121.359 330.776C122.251 330.174 123.001 329.385 123.558 328.464C124.126 327.555 124.493 326.535 124.635 325.472C124.79 324.225 124.732 322.96 124.463 321.732C124.164 320.147 124.059 319.645 123.109 315.659C122.159 311.672 122.025 311.171 121.613 309.622C121.306 308.413 120.8 307.263 120.117 306.219C119.515 305.329 118.726 304.581 117.806 304.027C116.9 303.452 115.878 303.084 114.814 302.95C113.567 302.792 112.302 302.848 111.074 303.115C109.488 303.421 108.987 303.519 105 304.469" fill="white"/>
<path d="M106.631 311.575C105.14 311.93 103.788 312.719 102.746 313.843C101.703 314.966 101.018 316.374 100.775 317.887C100.533 319.4 100.745 320.951 101.384 322.344C102.023 323.737 103.06 324.91 104.366 325.713C105.671 326.516 107.185 326.914 108.716 326.857C110.248 326.8 111.728 326.29 112.97 325.391C114.211 324.493 115.159 323.246 115.692 321.81C116.225 320.373 116.321 318.81 115.966 317.319C115.488 315.321 114.237 313.593 112.487 312.516C110.737 311.439 108.63 311.1 106.631 311.575ZM109.623 324.014C108.654 324.243 107.64 324.179 106.707 323.832C105.775 323.484 104.966 322.868 104.384 322.061C103.801 321.254 103.471 320.292 103.435 319.297C103.399 318.303 103.659 317.32 104.181 316.473C104.703 315.626 105.465 314.952 106.37 314.538C107.274 314.124 108.282 313.987 109.264 314.144C110.247 314.302 111.161 314.748 111.89 315.425C112.62 316.102 113.132 316.98 113.363 317.948C113.516 318.592 113.541 319.26 113.436 319.913C113.331 320.567 113.098 321.193 112.751 321.757C112.404 322.32 111.949 322.809 111.412 323.197C110.875 323.584 110.267 323.862 109.623 324.014Z" fill="white"/>
<path d="M116.16 308.994C116.242 309.342 116.219 309.706 116.094 310.041C115.969 310.376 115.747 310.667 115.457 310.876C115.167 311.085 114.821 311.204 114.464 311.216C114.106 311.229 113.753 311.136 113.448 310.948C113.144 310.761 112.902 310.487 112.753 310.162C112.604 309.837 112.554 309.475 112.611 309.122C112.667 308.768 112.827 308.44 113.07 308.177C113.313 307.915 113.628 307.731 113.976 307.647C114.208 307.591 114.449 307.581 114.685 307.618C114.921 307.655 115.147 307.739 115.35 307.864C115.553 307.989 115.729 308.153 115.868 308.347C116.008 308.541 116.107 308.761 116.16 308.994Z" fill="white"/>
<path d="M323.334 321.665C321.648 321.666 319.978 321.334 318.42 320.69C316.862 320.045 315.446 319.1 314.253 317.908C313.061 316.716 312.114 315.3 311.469 313.743C310.823 312.185 310.491 310.515 310.491 308.829C310.491 307.143 310.823 305.473 311.469 303.915C312.114 302.357 313.061 300.942 314.253 299.75C315.446 298.558 316.862 297.613 318.42 296.968C319.978 296.323 321.648 295.992 323.334 295.993C325.022 295.99 326.693 296.32 328.253 296.964C329.813 297.608 331.231 298.553 332.425 299.745C333.619 300.937 334.567 302.353 335.213 303.912C335.86 305.47 336.192 307.141 336.192 308.829C336.192 310.516 335.86 312.187 335.213 313.746C334.567 315.305 333.619 316.721 332.425 317.913C331.231 319.105 329.813 320.05 328.253 320.694C326.693 321.338 325.022 321.668 323.334 321.665Z" fill="#455A64"/>
<path d="M321.374 316.585H324.501V308.784H326.678L326.917 306.166H324.501V304.67C324.501 304.056 324.628 303.81 325.249 303.81H326.947V301.087H324.778C322.452 301.087 321.404 302.112 321.404 304.079V306.173H319.736V308.784H321.359L321.374 316.585Z" fill="white"/>
<path d="M279.546 392.597L176.404 392.56C170.452 392.56 164.745 390.196 160.536 385.987C156.328 381.779 153.964 376.071 153.964 370.12L154.009 111.551C154.009 108.601 154.591 105.679 155.721 102.954C156.852 100.228 158.509 97.7523 160.597 95.668C162.686 93.5837 165.165 91.9317 167.892 90.8066C170.62 89.6815 173.543 89.1055 176.494 89.1114L279.628 89.1712C285.579 89.1712 291.287 91.5354 295.495 95.7437C299.704 99.9521 302.068 105.66 302.068 111.611L302.023 370.12C302.028 373.073 301.45 375.998 300.322 378.728C299.194 381.457 297.539 383.937 295.45 386.025C293.362 388.113 290.882 389.769 288.153 390.896C285.424 392.024 282.499 392.602 279.546 392.597Z" fill="#263238"/>
<path d="M279.516 98.237H259.514C258.201 98.2684 256.954 98.8176 256.045 99.7649C255.136 100.712 254.638 101.981 254.66 103.293V106.921C254.675 107.573 254.561 108.222 254.325 108.83C254.089 109.437 253.735 109.993 253.284 110.464C252.833 110.935 252.294 111.312 251.697 111.575C251.1 111.837 250.457 111.979 249.805 111.993H210.827C210.175 111.978 209.532 111.835 208.934 111.572C208.337 111.309 207.798 110.931 207.347 110.459C206.896 109.987 206.543 109.431 206.307 108.823C206.071 108.215 205.957 107.566 205.972 106.914V103.264C205.998 101.947 205.502 100.674 204.593 99.7226C203.683 98.7709 202.434 98.218 201.118 98.1846H194.072H176.576C174.51 98.1797 172.463 98.5824 170.553 99.3696C168.643 100.157 166.907 101.313 165.444 102.772C163.982 104.231 162.822 105.965 162.03 107.873C161.238 109.781 160.831 111.827 160.831 113.893L160.778 366.275C160.778 370.441 162.433 374.437 165.379 377.383C168.325 380.328 172.32 381.983 176.486 381.983L279.426 382.043C281.489 382.043 283.531 381.637 285.437 380.847C287.343 380.058 289.075 378.901 290.533 377.442C291.992 375.984 293.149 374.252 293.938 372.346C294.728 370.441 295.134 368.398 295.134 366.335L295.186 113.945C295.186 109.785 293.536 105.796 290.599 102.851C287.661 99.9062 283.675 98.2469 279.516 98.237Z" fill="white"/>
<path d="M281.019 118.739C281.019 118.807 278.416 118.882 275.214 118.904C272.013 118.926 269.402 118.904 269.402 118.837C269.402 118.769 271.998 118.687 275.207 118.665C278.416 118.642 281.019 118.672 281.019 118.739Z" fill="#263238"/>
<path d="M281.041 121.709C281.041 121.777 278.446 121.851 275.237 121.881C272.028 121.911 269.425 121.881 269.425 121.806C269.425 121.732 272.028 121.664 275.237 121.634C278.446 121.605 281.041 121.642 281.041 121.709Z" fill="#263238"/>
<path d="M281.071 124.679C281.071 124.746 278.468 124.829 275.259 124.851C272.05 124.873 269.455 124.851 269.447 124.776C269.44 124.701 272.05 124.634 275.259 124.604C278.468 124.574 281.071 124.612 281.071 124.679Z" fill="#263238"/>
<path d="M171.632 127.581H171.938H172.784L175.91 127.506L175.82 127.588C175.82 126.9 175.82 126.145 175.783 125.344C175.783 124.926 175.783 124.529 175.783 124.043C175.832 123.792 175.96 123.563 176.149 123.389C176.337 123.216 176.576 123.107 176.83 123.078C177.339 123.078 177.78 123.078 178.326 123.078C178.612 123.124 178.873 123.271 179.06 123.491C179.248 123.712 179.351 123.993 179.351 124.282C179.351 125.344 179.351 126.444 179.388 127.588L179.246 127.446H183.188L183.039 127.596C183.039 126.01 183.039 124.365 182.994 122.682C182.994 122.263 182.994 121.851 182.994 121.432C182.977 121.246 182.918 121.066 182.822 120.906C182.727 120.745 182.596 120.608 182.44 120.505L180.72 118.799L179.052 117.161L178.251 116.368C177.975 116.099 177.758 115.822 177.436 115.755C177.282 115.715 177.121 115.709 176.964 115.739C176.807 115.768 176.66 115.833 176.531 115.927C176.292 116.129 176.037 116.413 175.783 116.675L174.362 118.104C173.472 119.024 172.544 119.869 171.871 120.669C171.671 121.141 171.604 121.658 171.677 122.165C171.677 122.652 171.677 123.115 171.677 123.549C171.677 124.402 171.677 125.15 171.677 125.793C171.677 126.437 171.677 126.833 171.677 127.222C171.687 127.394 171.687 127.566 171.677 127.738C171.668 127.581 171.668 127.424 171.677 127.267C171.677 126.885 171.677 126.414 171.677 125.853C171.677 125.292 171.677 124.454 171.624 123.609C171.624 123.16 171.624 122.689 171.624 122.188C171.624 121.934 171.624 121.679 171.624 121.44C171.622 121.151 171.697 120.867 171.841 120.617C172.589 119.727 173.442 118.934 174.339 117.984L175.746 116.54C176 116.294 176.202 116.047 176.494 115.792C176.654 115.67 176.841 115.585 177.039 115.545C177.237 115.505 177.442 115.51 177.638 115.561C178.01 115.697 178.339 115.933 178.588 116.241L179.396 117.034L181.064 118.672L182.792 120.363C182.954 120.508 183.101 120.668 183.233 120.841C183.363 121.04 183.435 121.27 183.443 121.507C183.443 121.926 183.443 122.345 183.443 122.764C183.443 124.447 183.443 126.092 183.48 127.678V127.828H183.33H179.388H179.112V127.686C179.112 126.541 179.112 125.442 179.112 124.38C179.117 124.151 179.039 123.929 178.894 123.753C178.748 123.577 178.544 123.46 178.319 123.422C177.862 123.422 177.324 123.422 176.883 123.422C176.681 123.442 176.491 123.525 176.339 123.66C176.187 123.794 176.082 123.972 176.037 124.17C176.037 124.567 176.037 125.023 176.037 125.427C176.037 126.242 176.037 127.005 176.037 127.671V127.76H175.948H172.769H171.938C171.83 127.711 171.727 127.651 171.632 127.581Z" fill="#263238"/>
<path d="M239.7 324.799C239.341 324.855 238.978 324.88 238.615 324.874L235.668 324.934C233.185 324.971 229.744 324.993 225.944 324.993C222.144 324.993 218.704 324.993 216.22 324.934L213.273 324.874C212.91 324.88 212.547 324.855 212.188 324.799C212.547 324.738 212.91 324.713 213.273 324.724L216.22 324.657C218.704 324.657 222.144 324.604 225.944 324.604C229.744 324.604 233.177 324.604 235.668 324.657L238.615 324.724C238.978 324.713 239.342 324.738 239.7 324.799Z" fill="#455A64"/>
<path d="M282.912 331.561C282.912 331.673 267.076 331.755 247.546 331.755C228.016 331.755 212.181 331.673 212.181 331.561C212.181 331.448 228.016 331.366 247.546 331.366C267.076 331.366 282.912 331.456 282.912 331.561Z" fill="#455A64"/>
<path d="M260.808 337.956C260.808 338.068 249.925 338.151 236.498 338.151C223.072 338.151 212.181 338.068 212.181 337.956C212.181 337.844 223.064 337.762 236.498 337.762C249.932 337.762 260.808 337.822 260.808 337.956Z" fill="#455A64"/>
<path d="M284.31 350.32L282.111 348.114L280.017 350.201V343.888H284.303L284.31 350.32ZM282.111 347.837L282.179 347.904L284.116 349.849V344.09H280.219V349.737L282.111 347.837Z" fill="#263238"/>
<path d="M225.794 349.498L225.046 349.154C224.599 349.364 224.09 349.4 223.619 349.254C223.147 349.109 222.746 348.793 222.495 348.368C222.244 347.943 222.161 347.44 222.261 346.957C222.362 346.473 222.639 346.045 223.039 345.755C223.438 345.466 223.932 345.335 224.422 345.39C224.913 345.445 225.365 345.681 225.691 346.051C226.017 346.422 226.193 346.901 226.184 347.395C226.175 347.888 225.983 348.361 225.644 348.72L225.794 349.498ZM223.991 345.294C223.48 345.33 223.001 345.559 222.653 345.936C222.306 346.312 222.114 346.807 222.119 347.32C222.124 347.833 222.324 348.324 222.679 348.694C223.034 349.064 223.517 349.285 224.029 349.311C224.37 349.287 224.701 349.182 224.994 349.004L225.57 349.258L225.435 348.697C225.699 348.409 225.873 348.051 225.935 347.665C225.998 347.28 225.947 346.884 225.788 346.528C225.629 346.171 225.369 345.868 225.041 345.657C224.712 345.446 224.329 345.335 223.939 345.339L223.991 345.294Z" fill="#263238"/>
<path d="M230.776 349.176L229.894 347.007L228.226 345.511H232.265L230.776 349.176ZM228.6 345.638L230.021 346.939L230.769 348.787L232.04 345.608L228.6 345.638Z" fill="#263238"/>
<path d="M232.18 345.463L229.973 346.898L230.054 347.024L232.261 345.588L232.18 345.463Z" fill="#263238"/>
<path d="M219.429 345.93C219.369 345.641 219.21 345.383 218.978 345.2C218.747 345.018 218.458 344.924 218.164 344.933C217.869 344.943 217.588 345.057 217.369 345.254C217.15 345.452 217.008 345.72 216.968 346.012C216.928 345.716 216.783 345.445 216.56 345.247C216.337 345.049 216.051 344.937 215.753 344.932C215.455 344.926 215.165 345.028 214.935 345.218C214.705 345.407 214.551 345.673 214.5 345.967C214.442 346.398 214.552 346.834 214.806 347.186C215.059 347.532 215.356 347.844 215.689 348.114C216.145 348.51 216.557 348.862 217.005 349.281C217.454 348.877 217.828 348.495 218.277 348.091C218.606 347.816 218.898 347.499 219.145 347.149C219.395 346.795 219.497 346.357 219.429 345.93Z" fill="#A3A09F"/>
<path d="M288.813 355.908C288.813 355.908 288.813 355.662 288.813 355.205C288.813 354.749 288.813 354.053 288.813 353.156C288.813 351.353 288.813 348.668 288.776 345.257C288.776 338.383 288.739 328.382 288.709 315.838L288.836 315.965L169.223 316.033L169.418 315.838C169.418 329.766 169.418 343.267 169.418 355.908L169.231 355.721L254.824 355.804L279.807 355.856H286.539H288.275H288.873H288.297H286.584H279.92L254.974 355.908L169.253 355.998H169.059V355.908C169.059 343.267 169.059 329.766 169.059 315.838V315.644H169.268L288.881 315.711H289.008V315.838C289.008 328.412 288.956 338.443 288.941 345.339C288.941 348.765 288.941 351.405 288.941 353.208C288.941 354.091 288.941 354.764 288.941 355.228C288.941 355.691 288.813 355.908 288.813 355.908Z" fill="#263238"/>
<path d="M174.176 322.538L174.023 349.031L207.159 349.222L207.312 322.728L174.176 322.538Z" fill="#EBEBEB"/>
<path d="M207.304 322.712H206.668H204.858H198.058L174.122 322.659L174.302 322.487C174.265 330.379 174.22 339.415 174.175 348.974C174.212 349.026 173.808 348.608 173.98 348.78H176.262H178.506H182.994L191.596 348.832L207.109 348.944L206.952 349.109C207.027 341.15 207.094 334.553 207.147 329.915C207.147 327.611 207.199 325.801 207.214 324.537C207.214 323.931 207.214 323.46 207.214 323.116C207.214 322.772 207.214 322.615 207.214 322.615C207.214 322.615 207.214 322.764 207.214 323.078C207.214 323.393 207.214 323.879 207.214 324.477C207.214 325.726 207.214 327.529 207.214 329.818C207.214 334.478 207.214 341.113 207.214 349.109V349.266H207.049L191.536 349.206L182.934 349.161H178.446H176.202H173.92L173.719 348.959C173.786 339.392 173.838 330.356 173.891 322.472V322.293H174.07L198.081 322.51L204.813 322.6H206.586H207.034L207.304 322.712Z" fill="#263238"/>
<path d="M175.311 324.211L175.178 347.369L205.987 347.547L206.121 324.389L175.311 324.211Z" fill="#E0E0E0"/>
<path d="M175.162 347.351L186.008 333.02L192.62 342.063L197.168 337.276L205.972 347.531L175.162 347.351Z" fill="#F5F5F5"/>
<path d="M195.515 331.314C195.514 331.795 195.37 332.265 195.101 332.664C194.832 333.063 194.451 333.373 194.006 333.556C193.561 333.738 193.071 333.784 192.6 333.688C192.128 333.592 191.696 333.359 191.357 333.017C191.019 332.675 190.789 332.241 190.698 331.768C190.606 331.296 190.657 330.807 190.843 330.364C191.03 329.92 191.344 329.542 191.745 329.277C192.147 329.012 192.618 328.872 193.099 328.875C193.418 328.876 193.734 328.94 194.028 329.063C194.322 329.186 194.589 329.366 194.813 329.593C195.038 329.819 195.215 330.088 195.336 330.383C195.456 330.679 195.517 330.995 195.515 331.314Z" fill="#F5F5F5"/>
<path d="M230.043 150.859C229.924 150.879 229.803 150.879 229.684 150.859L228.674 150.897L224.934 150.964C221.785 150.964 217.454 151.016 212.622 151.016C207.79 151.016 203.459 151.016 200.31 150.964L196.57 150.897L195.553 150.859C195.436 150.88 195.317 150.88 195.201 150.859C195.316 150.831 195.434 150.818 195.553 150.822H196.57L200.31 150.762C203.459 150.725 207.79 150.702 212.622 150.702C217.454 150.702 221.785 150.702 224.934 150.762L228.674 150.822H229.684C229.805 150.819 229.925 150.831 230.043 150.859Z" fill="#263238"/>
<path d="M278.992 297.302L275.73 294.026L272.611 297.13V287.75H278.984L278.992 297.302ZM275.73 293.622L275.828 293.719L278.708 296.606V288.049H272.903V296.442L275.73 293.622Z" fill="#263238"/>
<path d="M196.069 296.315L194.573 295.634C193.702 296.039 192.711 296.105 191.794 295.818C190.877 295.531 190.1 294.913 189.614 294.084C189.129 293.255 188.97 292.274 189.169 291.334C189.368 290.395 189.911 289.563 190.691 289.001C191.47 288.44 192.431 288.19 193.386 288.3C194.34 288.409 195.22 288.871 195.852 289.595C196.484 290.318 196.824 291.251 196.804 292.212C196.785 293.172 196.408 294.091 195.747 294.789L196.069 296.315ZM192.501 288.049C191.982 288.054 191.47 288.16 190.992 288.363C190.515 288.565 190.082 288.86 189.718 289.23C189.354 289.6 189.067 290.037 188.873 290.518C188.678 290.999 188.581 291.514 188.585 292.032C188.59 292.551 188.696 293.064 188.899 293.541C189.101 294.019 189.396 294.451 189.766 294.815C190.136 295.179 190.573 295.466 191.054 295.66C191.535 295.855 192.05 295.952 192.568 295.948C193.241 295.907 193.894 295.702 194.468 295.35L194.535 295.312L195.657 295.813L195.403 294.706L195.455 294.654C195.975 294.087 196.317 293.38 196.44 292.621C196.563 291.862 196.462 291.083 196.148 290.381C195.833 289.679 195.321 289.084 194.673 288.67C194.025 288.255 193.27 288.04 192.501 288.049Z" fill="#263238"/>
<path d="M205.883 295.664L204.133 291.393L200.856 288.401L208.815 288.341L205.883 295.664ZM201.597 288.685L204.394 291.251L205.89 294.886L208.389 288.633L201.597 288.685Z" fill="#263238"/>
<path d="M208.656 288.328L204.317 291.151L204.476 291.396L208.815 288.573L208.656 288.328Z" fill="#263238"/>
<path d="M183.548 289.336C183.435 288.764 183.122 288.25 182.665 287.886C182.208 287.523 181.637 287.334 181.054 287.353C180.47 287.372 179.913 287.597 179.48 287.989C179.048 288.381 178.769 288.915 178.693 289.493C178.607 288.917 178.32 288.39 177.882 288.005C177.444 287.621 176.883 287.405 176.301 287.395C175.718 287.385 175.151 287.582 174.7 287.952C174.249 288.321 173.944 288.838 173.839 289.411C173.726 290.257 173.943 291.114 174.444 291.805C174.946 292.486 175.532 293.102 176.187 293.637C177.077 294.385 177.893 295.133 178.783 295.934C179.651 295.141 180.399 294.393 181.274 293.592C181.92 293.048 182.496 292.425 182.987 291.737C183.473 291.038 183.674 290.179 183.548 289.336Z" fill="#A3A09F"/>
<path d="M182.821 156.259C185.804 156.259 188.222 153.841 188.222 150.859C188.222 147.876 185.804 145.458 182.821 145.458C179.839 145.458 177.421 147.876 177.421 150.859C177.421 153.841 179.839 156.259 182.821 156.259Z" fill="#EBEBEB"/>
<path d="M276.957 266.335C276.957 266.447 254.323 266.537 226.408 266.537C198.492 266.537 175.85 266.447 175.85 266.335C175.85 266.223 198.485 266.141 226.408 266.141C254.331 266.141 276.957 266.23 276.957 266.335Z" fill="#455A64"/>
<path d="M276.957 257.92C276.957 258.025 254.323 258.115 226.408 258.115C198.492 258.115 175.85 258.025 175.85 257.92C175.85 257.815 198.485 257.726 226.408 257.726C254.331 257.726 276.957 257.815 276.957 257.92Z" fill="#455A64"/>
<path d="M230.881 274.869C230.881 274.974 218.561 275.064 203.369 275.064C188.178 275.064 175.851 274.974 175.851 274.869C175.851 274.765 188.17 274.675 203.369 274.675C218.569 274.675 230.881 274.765 230.881 274.869Z" fill="#455A64"/>
<path d="M224.096 366.597C224.089 367.022 223.956 367.435 223.714 367.785C223.472 368.135 223.133 368.405 222.737 368.562C222.342 368.719 221.91 368.755 221.494 368.667C221.078 368.578 220.698 368.368 220.401 368.064C220.104 367.76 219.904 367.375 219.825 366.957C219.747 366.539 219.794 366.108 219.96 365.716C220.126 365.325 220.405 364.992 220.76 364.759C221.116 364.525 221.532 364.402 221.957 364.405C222.242 364.408 222.523 364.467 222.784 364.579C223.046 364.691 223.283 364.853 223.482 365.057C223.681 365.261 223.837 365.501 223.943 365.766C224.048 366.03 224.1 366.312 224.096 366.597Z" fill="#263238"/>
<path d="M230.724 366.627C230.715 367.05 230.581 367.461 230.34 367.808C230.098 368.155 229.76 368.424 229.366 368.579C228.973 368.734 228.542 368.77 228.129 368.682C227.715 368.593 227.337 368.385 227.041 368.082C226.746 367.779 226.546 367.396 226.468 366.98C226.389 366.565 226.436 366.135 226.6 365.746C226.765 365.356 227.042 365.024 227.395 364.791C227.748 364.558 228.161 364.434 228.584 364.436C228.869 364.437 229.151 364.496 229.413 364.607C229.675 364.719 229.912 364.881 230.111 365.085C230.31 365.289 230.467 365.53 230.572 365.795C230.677 366.059 230.729 366.342 230.724 366.627Z" fill="#263238"/>
<path d="M237.403 366.656C237.395 367.079 237.261 367.49 237.019 367.837C236.778 368.185 236.439 368.453 236.046 368.608C235.652 368.764 235.222 368.799 234.808 368.711C234.395 368.622 234.016 368.414 233.721 368.111C233.425 367.808 233.226 367.425 233.148 367.01C233.069 366.594 233.115 366.164 233.28 365.775C233.445 365.385 233.721 365.053 234.074 364.82C234.427 364.587 234.841 364.463 235.264 364.465C235.549 364.468 235.83 364.527 236.091 364.639C236.353 364.75 236.59 364.913 236.789 365.116C236.988 365.32 237.144 365.561 237.25 365.825C237.355 366.089 237.407 366.372 237.403 366.656Z" fill="#263238"/>
<path d="M289.531 161.54H169.903V234.694H289.531V161.54Z" fill="#E0E0E0"/>
<path d="M180.952 234.717L215.226 188.835L236.484 217.528L250.883 202.179L279.135 234.687L180.952 234.717Z" fill="#F5F5F5"/>
<path d="M245.489 183.202C245.491 184.732 245.038 186.229 244.189 187.501C243.34 188.774 242.133 189.767 240.72 190.353C239.307 190.94 237.751 191.094 236.251 190.797C234.75 190.499 233.371 189.763 232.288 188.682C231.206 187.6 230.469 186.222 230.17 184.722C229.871 183.221 230.023 181.666 230.609 180.252C231.194 178.838 232.185 177.63 233.457 176.78C234.729 175.929 236.225 175.476 237.755 175.476C239.805 175.476 241.771 176.289 243.221 177.738C244.671 179.187 245.487 181.152 245.489 183.202Z" fill="#F5F5F5"/>
<path d="M289.21 302.688C289.21 301.125 289.135 235.039 289.03 137.201L289.21 137.38H169.597L169.792 137.186C169.792 199.075 169.792 256.35 169.792 302.673L169.627 302.516L289.255 302.673L169.627 302.838H169.47V302.673C169.47 256.35 169.47 199.075 169.433 137.186V136.991H169.642H289.255H289.434V137.163C289.397 186.135 289.367 227.522 289.344 256.679C289.344 271.235 289.307 282.732 289.3 290.6C289.3 294.52 289.3 297.534 289.3 299.576C289.3 300.586 289.3 301.357 289.3 301.88C289.3 302.404 289.21 302.688 289.21 302.688Z" fill="#263238"/>
<path d="M232.968 323.22L235.616 314.327C236.08 312.397 236.693 310.123 237.516 307.527C238.264 305.193 240.164 302.74 241.899 300.975C244.6 298.23 245.886 298.215 247.696 296.756C247.861 296.651 248.048 296.494 248.205 296.412C248.547 296.226 248.848 295.971 249.088 295.664C250.651 293.973 249.148 291.348 245.969 291.602C243.582 291.789 239.678 292.47 233.335 299.015C233.253 299.12 233.17 299.202 233.095 299.299C229.767 303.63 226.64 291.273 226.072 286.673C225.961 285.96 225.692 285.281 225.284 284.686C224.876 284.092 224.339 283.596 223.713 283.237C223.087 282.878 222.389 282.664 221.67 282.611C220.95 282.559 220.228 282.669 219.557 282.933L204.103 290.159C202.629 289.731 201.057 289.784 199.615 290.308C198.534 290.688 197.632 291.457 197.087 292.465C196.543 293.473 196.393 294.649 196.668 295.761L202.944 320.752L184.535 382.013H224.217L232.968 323.22Z" fill="#FFBE9D"/>
<path d="M263.487 266.956L251.22 290.997L245.086 289.291L214.268 314.372C213.011 315.401 211.401 315.898 209.782 315.759C208.163 315.619 206.662 314.853 205.599 313.624L193.855 299.988C193.855 299.988 217.53 289.792 221.905 281.355C226.281 272.917 221.225 270.995 221.225 270.995L232.363 258.339L263.487 266.956Z" fill="#A3A09F"/>
<path d="M247.577 217.857C247.577 217.857 229.625 213.885 204.35 189.59C179.075 165.295 167.212 133.004 164.152 133.183C161.093 133.363 147.554 127.072 121.868 182.94C96.1815 238.808 106.302 251.756 111.396 251.681C116.49 251.607 151.204 241.905 172.881 244.366C194.558 246.827 222.421 258.129 222.421 258.129L247.577 217.857Z" fill="#A3A09F"/>
<path d="M285.717 248.308L279.591 259.954L276.846 265.19C275.034 268.637 271.969 271.257 268.282 272.51C264.595 273.762 260.568 273.552 257.031 271.922L218.547 258.511L240.987 207.348L279.434 227.835C282.971 229.728 285.617 232.942 286.793 236.777C287.97 240.612 287.584 244.757 285.717 248.308Z" fill="#A3A09F"/>
<g opacity="0.4">
<path d="M285.717 248.308L279.591 259.954L276.846 265.19C275.034 268.637 271.969 271.257 268.282 272.51C264.595 273.762 260.568 273.552 257.031 271.922L218.547 258.511L240.987 207.348L279.434 227.835C282.971 229.728 285.617 232.942 286.793 236.777C287.97 240.612 287.584 244.757 285.717 248.308Z" fill="black"/>
</g>
<path d="M123.917 183.957C110.251 214.221 104.559 241.194 111.201 244.194C117.844 247.193 134.322 225.097 147.988 194.826C161.654 164.554 167.346 137.596 160.704 134.589C154.062 131.582 137.583 153.693 123.917 183.957Z" fill="#A3A09F"/>
<g opacity="0.5">
<path d="M123.917 183.957C110.251 214.221 104.559 241.194 111.201 244.194C117.844 247.193 134.322 225.097 147.988 194.826C161.654 164.554 167.346 137.596 160.704 134.589C154.062 131.582 137.583 153.693 123.917 183.957Z" fill="black"/>
</g>
<path d="M289.023 265.138L278.589 261.862L285.044 249.595L292.868 254.457L289.023 265.138Z" fill="#A3A09F"/>
<g opacity="0.6">
<path d="M285.044 249.595L278.589 261.862L280.736 262.535L285.979 250.171L285.044 249.595Z" fill="black"/>
</g>
<path d="M277.848 252.422C277.699 252.758 272.493 250.739 266.224 247.934C259.956 245.129 255.004 242.525 255.147 242.189C255.289 241.852 260.502 243.879 266.778 246.714C273.054 249.549 278.005 252.085 277.848 252.422Z" fill="#A3A09F"/>
<path d="M281.065 245.114C280.901 245.443 276.188 243.461 270.541 240.678C264.893 237.895 260.45 235.375 260.615 235.038C260.779 234.702 265.484 236.691 271.132 239.474C276.779 242.256 281.23 244.777 281.065 245.114Z" fill="#A3A09F"/>
<path d="M273.809 260.089C273.757 260.268 272.515 259.984 270.54 259.341C269.553 259.034 268.379 258.645 267.085 258.204C265.79 257.762 264.467 257.059 263.038 256.409C257.331 253.761 252.97 251.172 253.112 250.858C253.254 250.544 257.944 252.571 263.584 255.197C265.005 255.84 266.322 256.543 267.563 257.059C268.805 257.575 269.919 258.032 270.854 258.451C272.724 259.311 273.861 259.909 273.809 260.089Z" fill="#A3A09F"/>
<path d="M151.781 177.233C151.781 177.233 136.177 167.554 127.643 188.64C119.108 209.726 135.519 213.189 135.519 213.189C142.606 202.03 148.081 189.925 151.781 177.233Z" fill="#A3A09F"/>
<g opacity="0.5">
<path d="M168.378 152.101C168.475 152.101 168.251 153.552 167.772 156.132C167.294 158.713 166.575 162.445 165.573 167.038L163.404 174.421C163.01 175.742 162.604 177.111 162.185 178.527L161.549 180.674C161.317 181.422 161.01 182.103 160.741 182.828L157.218 191.924C156.911 192.717 156.597 193.51 156.29 194.31C155.984 195.111 155.542 195.874 155.191 196.666L152.872 201.454L150.546 206.233C150.149 206.981 149.798 207.819 149.371 208.552C148.945 209.285 148.496 210.048 148.07 210.759L143.096 219.159C142.692 219.817 142.348 220.498 141.899 221.126L140.605 222.959L138.122 226.459L133.634 232.72C130.642 236.333 128.143 239.183 126.423 241.165C125.578 242.238 124.645 243.239 123.633 244.157C124.336 242.989 125.137 241.883 126.026 240.851C127.687 238.734 130.028 235.772 132.901 232.129L137.202 225.823L139.61 222.315C140.029 221.717 140.448 221.104 140.874 220.483C141.301 219.862 141.622 219.181 142.034 218.516L146.948 210.123L148.227 207.924C148.668 207.176 148.975 206.428 149.386 205.62L151.69 200.87C152.438 199.262 153.239 197.684 154.002 196.12C154.361 195.372 154.794 194.58 155.094 193.787L156.029 191.423L159.604 182.447C159.881 181.699 160.195 181.033 160.434 180.315C160.674 179.597 160.876 178.894 161.093 178.191L162.364 174.129L164.661 166.836L167.256 156.065C167.517 154.714 167.892 153.388 168.378 152.101Z" fill="black"/>
</g>
<g opacity="0.4">
<path d="M197.58 298.311C199.009 300.899 200.46 303.547 202.562 305.589C204.664 307.631 207.536 309.083 210.528 308.783C213.52 308.484 216.25 306.046 216.28 303.099C217.686 304.153 219.848 303.585 221.015 302.261C222.182 300.937 222.563 299.104 222.698 297.346C224.613 298.476 227.276 297.586 228.555 295.768C229.142 294.821 229.514 293.757 229.643 292.65C229.772 291.543 229.656 290.422 229.303 289.365C228.574 287.262 227.538 285.278 226.228 283.479C227.724 283.598 229.265 283.703 230.582 283.037C231.898 282.371 232.826 280.621 232.025 279.365C231.5 278.663 230.737 278.176 229.879 277.996C227.567 277.248 225.952 276.694 223.543 276.971C222.99 276.971 224.508 283.314 209.421 291.976C200.467 297.1 197.58 298.311 197.58 298.311Z" fill="black"/>
</g>
<path d="M231.554 307.437C231.554 307.504 230.545 307.31 228.914 307.355C226.795 307.405 224.711 307.905 222.8 308.822C220.889 309.739 219.194 311.052 217.829 312.673C216.774 313.915 216.333 314.82 216.235 314.782C216.297 314.549 216.396 314.327 216.527 314.124C216.847 313.554 217.21 313.009 217.612 312.493C218.956 310.787 220.674 309.411 222.634 308.472C224.593 307.534 226.741 307.057 228.914 307.078C229.566 307.082 230.217 307.142 230.859 307.257C231.099 307.276 231.335 307.336 231.554 307.437Z" fill="#EB996E"/>
<path d="M198.561 294.265C200.992 296.599 202.652 299.179 205.203 301.528C206.362 302.598 208.195 304.617 209.691 304.887C211.187 305.156 212.234 304.954 212.847 303.503C213.349 302.328 212.451 300.72 211.838 299.763C210.214 297.212 208.659 295.222 207.447 293.24C206.871 292.313 207.611 292.118 207.881 292.552C209.048 293.764 210.798 294.796 211.845 296.135C213.281 297.938 213.536 300.339 217.29 299.576C217.793 299.494 218.269 299.297 218.682 299C220.095 297.915 220.178 296.008 219.564 294.512C219.035 293.357 218.328 292.292 217.47 291.355C219.071 293.158 220.814 295.095 223.357 295.26C224.075 295.347 224.803 295.209 225.439 294.864C226.076 294.52 226.59 293.986 226.91 293.337C227.658 291.632 226.588 289.979 225.503 288.647C223.584 286.28 221.448 284.096 219.123 282.125C218.255 281.396 217.16 280.991 216.026 280.98C214.71 280.98 213.034 281.22 212.286 282.357C211.859 282.905 211.548 283.535 211.372 284.207C211.196 284.88 211.158 285.581 211.262 286.269C211.262 286.269 207.97 284.601 205.322 286.344C203.693 287.489 202.521 289.174 202.016 291.101L198.561 294.265Z" fill="#FFBE9D"/>
<path d="M216.101 280.263C215.575 279.651 215.248 278.894 215.165 278.091C215.083 277.289 215.247 276.48 215.638 275.775C216.199 274.675 216.902 273.605 217.62 273.366C220.754 272.311 234.457 274.682 234.33 277.719C234.203 280.756 233.201 282.207 225.773 281.138C224.464 280.951 222.414 280.696 222.414 280.696L220.619 283.389L216.101 280.263Z" fill="#FFBE9D"/>
<path d="M218.554 292.994C216.756 290.028 214.134 287.65 211.007 286.149C211.517 286.232 212.008 286.404 212.458 286.658C214.71 287.747 216.6 289.461 217.904 291.595C218.205 292.017 218.426 292.491 218.554 292.994Z" fill="#EB996E"/>
<path d="M220.858 283.651C220.791 283.711 219.886 282.978 218.652 282.222C218.135 281.895 217.601 281.598 217.051 281.332C216.624 281.138 216.34 281.085 216.348 281.025C216.355 280.966 216.669 280.936 217.141 281.078C217.747 281.273 218.326 281.547 218.861 281.893C220.125 282.663 220.955 283.569 220.858 283.651Z" fill="#EB996E"/>
<path d="M223.162 280.824C222.271 280.928 221.367 280.825 220.522 280.525C219.903 280.336 219.329 280.025 218.831 279.612C218.457 279.29 218.3 279.029 218.337 278.991C219.057 279.457 219.827 279.838 220.634 280.128C221.491 280.304 222.336 280.536 223.162 280.824Z" fill="#EB996E"/>
<path d="M209.847 296.756C209.375 296.261 208.956 295.716 208.598 295.133C207.744 293.751 206.664 292.522 205.404 291.498C204.098 290.542 202.479 290.115 200.871 290.301C200.212 290.419 199.571 290.623 198.964 290.907C198.964 290.907 199.099 290.75 199.405 290.563C199.842 290.298 200.324 290.115 200.826 290.024C201.664 289.889 202.52 289.922 203.344 290.121C204.169 290.32 204.945 290.681 205.629 291.184C206.93 292.229 208.017 293.517 208.83 294.976C209.219 295.54 209.559 296.135 209.847 296.756Z" fill="#EB996E"/>
<path d="M220.327 327.05C218.483 327.442 216.613 327.71 214.732 327.85C212.862 328.121 210.975 328.261 209.085 328.269C210.932 327.877 212.804 327.61 214.687 327.469C216.556 327.202 218.44 327.062 220.327 327.05Z" fill="#EB996E"/>
<path d="M338.16 78.2803L339.005 79.8286L340.546 80.6739L339.005 81.5191L338.16 83.06L337.314 81.5191L335.774 80.6739L337.314 79.8286L338.16 78.2803Z" fill="#A3A09F"/>
<path d="M355.82 116.556L356.666 118.104L358.206 118.949L356.666 119.794L355.82 121.335L354.975 119.794L353.427 118.949L354.975 118.104L355.82 116.556Z" fill="#A3A09F"/>
<path d="M72.8217 218.673L73.6669 220.221L75.2153 221.066L73.6669 221.904L72.8217 223.453L71.9764 221.904L70.4355 221.066L71.9764 220.221L72.8217 218.673Z" fill="#A3A09F"/>
<path d="M314.994 87.7949L316.946 91.3629L320.514 93.3152L316.946 95.26L314.994 98.8279L313.049 95.26L309.481 93.3152L313.049 91.3629L314.994 87.7949Z" fill="#A3A09F"/>
<path d="M88.6498 194.415L90.5946 197.968L94.1551 199.913L90.5946 201.865L88.6498 205.418L86.705 201.865L83.1445 199.913L86.705 197.968L88.6498 194.415Z" fill="#A3A09F"/>
<path d="M360.622 279.283L362.567 282.844L366.12 284.788L362.567 286.733L360.622 290.294L358.678 286.733L355.117 284.788L358.678 282.844L360.622 279.283Z" fill="#A3A09F"/>
</g>
<defs>
<clipPath id="clip0_282_3062">
<rect width="506" height="455" fill="white" transform="matrix(-1 0 0 1 506 0)"/>
</clipPath>
</defs>
</svg>
