<svg width="25" height="24" viewBox="0 0 25 24" fill="none" xmlns="http://www.w3.org/2000/svg">
<path d="M0.695503 12C0.695503 18.6274 6.06809 24 12.6955 24C19.3229 24 24.6955 18.6274 24.6955 12C24.6955 5.37258 19.3229 0 12.6955 0C6.06809 0 0.695503 5.37258 0.695503 12Z" fill="#1877F2"/>
<path d="M18.6955 12C18.6955 8.7 15.9955 6 12.6955 6C9.3955 6 6.6955 8.7 6.6955 12C6.6955 15 8.8705 17.475 11.7205 17.925V13.725H10.2205V12H11.7205V10.65C11.7205 9.15 12.6205 8.325 13.9705 8.325C14.6455 8.325 15.3205 8.475 15.3205 8.475V9.975H14.5705C13.8205 9.975 13.5955 10.425 13.5955 10.875V12H15.2455L14.9455 13.725H13.5205V18C16.5205 17.55 18.6955 15 18.6955 12Z" fill="white"/>
</svg>
