<svg width="750" height="500" viewBox="0 0 750 500" fill="none" xmlns="http://www.w3.org/2000/svg">
<path d="M112.589 322.609H86.1094V333.799H112.589V322.609Z" fill="#EBEBEB"/>
<path d="M97.8198 336.72H71.3398V347.91H97.8198V336.72Z" fill="#EBEBEB"/>
<path d="M453.3 216.59H426.82V227.78H453.3V216.59Z" fill="#EBEBEB"/>
<path d="M438.53 230.7H412.05V241.89H438.53V230.7Z" fill="#EBEBEB"/>
<path d="M423.82 216.59H397.34V227.78H423.82V216.59Z" fill="#EBEBEB"/>
<path d="M678.66 336.72H652.18V347.91H678.66V336.72Z" fill="#EBEBEB"/>
<path d="M663.89 62.8398H637.41V74.0298H663.89V62.8398Z" fill="#EBEBEB"/>
<path d="M678.66 76.9502H652.18V88.1402H678.66V76.9502Z" fill="#EBEBEB"/>
<path d="M112.589 62.8398H86.1094V74.0298H112.589V62.8398Z" fill="#EBEBEB"/>
<path d="M213.22 229.43L206.78 243.61L211.13 245.61C211.752 245.897 212.282 246.351 212.661 246.921C213.041 247.491 213.255 248.155 213.28 248.84C213.317 249.616 213.394 250.391 213.51 251.16C213.617 251.835 213.536 252.526 213.275 253.158C213.013 253.79 212.583 254.337 212.03 254.74L208.15 257.52L217.22 270.18L221.1 267.41C221.658 267.012 222.315 266.778 222.998 266.732C223.682 266.686 224.364 266.831 224.97 267.15C225.658 267.522 226.366 267.856 227.09 268.15C227.731 268.394 228.292 268.811 228.711 269.354C229.129 269.898 229.389 270.547 229.46 271.23L229.92 275.98L245.42 274.45L244.95 269.69C244.889 269.006 245.018 268.319 245.323 267.705C245.629 267.091 246.098 266.573 246.68 266.21C247 266.01 247.32 265.79 247.63 265.57C247.94 265.35 248.25 265.12 248.55 264.88C249.077 264.445 249.714 264.165 250.39 264.071C251.066 263.977 251.756 264.074 252.38 264.35L256.75 266.35L263.18 252.17L258.83 250.17C258.209 249.882 257.679 249.428 257.299 248.858C256.92 248.288 256.706 247.624 256.68 246.94C256.647 246.166 256.573 245.395 256.46 244.63C256.353 243.954 256.435 243.263 256.696 242.631C256.957 241.999 257.388 241.452 257.94 241.05L261.82 238.27L252.74 225.61L248.87 228.39C248.311 228.783 247.653 229.015 246.97 229.059C246.288 229.103 245.606 228.958 245 228.64C244.317 228.28 243.612 227.963 242.89 227.69C242.248 227.447 241.687 227.03 241.268 226.486C240.85 225.942 240.591 225.292 240.52 224.61L240.05 219.85L224.55 221.38L225.02 226.14C225.078 226.82 224.947 227.502 224.642 228.113C224.337 228.723 223.869 229.238 223.29 229.6C222.96 229.81 222.64 230.03 222.29 230.25L221.37 230.94C220.841 231.376 220.2 231.657 219.52 231.751C218.841 231.844 218.148 231.747 217.52 231.47L213.22 229.43ZM227.55 237.43C229.601 235.958 232.043 235.128 234.566 235.044C237.089 234.96 239.581 235.627 241.725 236.96C243.869 238.292 245.57 240.231 246.612 242.53C247.654 244.83 247.99 247.387 247.578 249.877C247.167 252.368 246.026 254.681 244.299 256.523C242.573 258.365 240.339 259.653 237.88 260.225C235.421 260.797 232.848 260.627 230.486 259.736C228.124 258.845 226.079 257.273 224.61 255.22C222.659 252.473 221.874 249.067 222.424 245.744C222.975 242.42 224.818 239.45 227.55 237.48V237.43Z" fill="#EBEBEB"/>
<path d="M645.85 109.71L639.33 113.48L640.48 115.48C640.645 115.768 640.727 116.096 640.717 116.428C640.706 116.76 640.603 117.083 640.42 117.36C640.208 117.68 640.018 118.014 639.85 118.36C639.705 118.658 639.479 118.91 639.198 119.087C638.917 119.263 638.592 119.358 638.26 119.36H636V126.89H638.3C638.632 126.892 638.957 126.986 639.238 127.163C639.519 127.34 639.745 127.592 639.89 127.89C640.06 128.235 640.25 128.569 640.46 128.89C640.643 129.167 640.746 129.489 640.757 129.821C640.767 130.153 640.685 130.482 640.52 130.77L639.37 132.77L645.89 136.53L647.04 134.53C647.211 134.245 647.457 134.013 647.752 133.859C648.047 133.706 648.378 133.637 648.71 133.66H649.81C650.14 133.635 650.471 133.703 650.765 133.857C651.058 134.011 651.302 134.244 651.47 134.53L652.63 136.53L659.15 132.77L658 130.77C657.835 130.483 657.754 130.157 657.764 129.826C657.775 129.496 657.877 129.175 658.06 128.9C658.265 128.577 658.452 128.243 658.62 127.9C658.767 127.601 658.995 127.349 659.278 127.172C659.56 126.995 659.887 126.901 660.22 126.9H662.52V119.37H660.22C659.887 119.367 659.562 119.271 659.279 119.095C658.997 118.919 658.769 118.668 658.62 118.37C658.456 118.024 658.269 117.69 658.06 117.37C657.877 117.093 657.774 116.771 657.763 116.438C657.753 116.106 657.835 115.778 658 115.49L659.15 113.49L652.63 109.72L651.47 111.72C651.301 112.003 651.058 112.233 650.767 112.387C650.476 112.54 650.148 112.611 649.82 112.59H648.71C648.377 112.613 648.045 112.543 647.75 112.388C647.454 112.233 647.209 111.998 647.04 111.71L645.85 109.71ZM649.22 116.91C650.44 116.91 651.633 117.272 652.648 117.95C653.663 118.628 654.453 119.591 654.92 120.719C655.387 121.846 655.509 123.087 655.271 124.284C655.033 125.481 654.446 126.58 653.583 127.443C652.72 128.306 651.621 128.893 650.424 129.131C649.227 129.369 647.986 129.247 646.859 128.78C645.731 128.313 644.768 127.522 644.09 126.508C643.412 125.493 643.05 124.3 643.05 123.08C643.049 122.269 643.207 121.466 643.517 120.717C643.827 119.968 644.281 119.287 644.854 118.714C645.427 118.141 646.108 117.687 646.857 117.377C647.606 117.067 648.409 116.909 649.22 116.91Z" fill="#EBEBEB"/>
<path d="M88.3895 142.53L92.9595 148.53L94.7895 147.12C95.0544 146.92 95.3699 146.798 95.7003 146.768C96.0307 146.738 96.363 146.801 96.6595 146.95C96.9995 147.11 97.3495 147.25 97.6595 147.38C97.9732 147.487 98.2508 147.679 98.461 147.935C98.6713 148.191 98.8058 148.501 98.8495 148.83L99.1495 151.11L106.62 150.11L106.32 147.83C106.278 147.501 106.328 147.168 106.464 146.866C106.6 146.565 106.816 146.306 107.09 146.12C107.402 145.91 107.702 145.683 107.99 145.44C108.239 145.222 108.544 145.078 108.871 145.023C109.197 144.968 109.533 145.005 109.84 145.13L112 146L114.89 139L112.75 138.12C112.445 137.987 112.183 137.774 111.992 137.502C111.802 137.23 111.69 136.911 111.67 136.58C111.67 136.4 111.67 136.22 111.61 136.03C111.55 135.84 111.56 135.67 111.53 135.48C111.463 135.156 111.488 134.821 111.603 134.511C111.718 134.202 111.918 133.931 112.18 133.73L114 132.4L109.43 126.4L107.59 127.8C107.325 127.999 107.01 128.121 106.68 128.153C106.35 128.185 106.018 128.125 105.72 127.98C105.394 127.819 105.06 127.675 104.72 127.55C104.407 127.441 104.131 127.248 103.921 126.992C103.711 126.736 103.575 126.427 103.53 126.1L103.23 123.81L95.7595 124.81L96.0595 127.1C96.1011 127.426 96.0511 127.758 95.9152 128.059C95.7792 128.359 95.5627 128.615 95.2895 128.8C94.9802 129.013 94.6831 129.243 94.3995 129.49C94.1475 129.707 93.8402 129.849 93.5119 129.902C93.1836 129.955 92.847 129.916 92.5395 129.79L90.4095 128.91L87.5195 135.86L89.6495 136.75C89.9546 136.878 90.2176 137.09 90.4085 137.36C90.5994 137.63 90.7106 137.949 90.7295 138.28L90.7895 138.83C90.7895 139.02 90.7895 139.2 90.8795 139.38C90.9435 139.705 90.9157 140.042 90.7991 140.353C90.6826 140.664 90.4819 140.936 90.2195 141.14L88.3895 142.53ZM95.0895 138.26C94.9335 137.049 95.1398 135.82 95.6823 134.727C96.2249 133.634 97.0794 132.726 98.1377 132.119C99.196 131.512 100.411 131.232 101.628 131.315C102.846 131.398 104.011 131.84 104.977 132.585C105.943 133.33 106.667 134.345 107.056 135.502C107.446 136.658 107.483 137.904 107.165 139.082C106.846 140.26 106.185 141.317 105.266 142.119C104.346 142.922 103.21 143.433 102 143.59C101.196 143.693 100.38 143.638 99.5973 143.426C98.815 143.215 98.0821 142.851 97.4405 142.356C96.7988 141.861 96.2609 141.244 95.8575 140.542C95.4541 139.839 95.1932 139.063 95.0895 138.26Z" fill="#EBEBEB"/>
<path d="M301.92 76.1396H220.87V174.45H301.92V76.1396Z" fill="#EBEBEB"/>
<path d="M292.66 85.1094H230.13V165.479H292.66V85.1094Z" fill="white"/>
<path d="M232.57 85.1094H230.13V165.479H232.57V85.1094Z" fill="#DBDBDB"/>
<path d="M304.36 76.1396H301.92V174.45H304.36V76.1396Z" fill="#DBDBDB"/>
<path d="M265.83 96.1895H251.09V140.119H265.83V96.1895Z" fill="#DBDBDB"/>
<path d="M283.959 126.1H244.649V147.62H283.959V126.1Z" stroke="#EBEBEB" stroke-miterlimit="10"/>
<path d="M526.69 76.1396H445.64V174.45H526.69V76.1396Z" fill="#EBEBEB"/>
<path d="M517.429 85.1094H454.899V165.479H517.429V85.1094Z" fill="white"/>
<path d="M457.339 85.1094H454.899V165.479H457.339V85.1094Z" fill="#DBDBDB"/>
<path d="M529.129 76.1396H526.689V174.45H529.129V76.1396Z" fill="#DBDBDB"/>
<path d="M490.599 96.1895H475.859V140.119H490.599V96.1895Z" fill="#DBDBDB"/>
<path d="M508.73 126.1H469.42V147.62H508.73V126.1Z" stroke="#EBEBEB" stroke-miterlimit="10"/>
<path d="M414.3 76.1396H333.25V174.45H414.3V76.1396Z" fill="#EBEBEB"/>
<path d="M405.05 85.1094H342.52V165.479H405.05V85.1094Z" fill="white"/>
<path d="M344.96 85.1094H342.52V165.479H344.96V85.1094Z" fill="#DBDBDB"/>
<path d="M416.75 76.1396H414.31V174.45H416.75V76.1396Z" fill="#DBDBDB"/>
<path d="M380.359 105.88H367.729V137.82H380.359V105.88Z" fill="#EBEBEB"/>
<path d="M393.659 125.29H359.729V147.31H393.659V125.29Z" stroke="#DBDBDB" stroke-miterlimit="10"/>
<path d="M375 458.52C548.252 458.52 688.7 447.466 688.7 433.83C688.7 420.194 548.252 409.14 375 409.14C201.748 409.14 61.2998 420.194 61.2998 433.83C61.2998 447.466 201.748 458.52 375 458.52Z" fill="#EBEBEB"/>
<path d="M222.69 302.939H191.04V371.319H222.69V302.939Z" fill="#F63C75"/>
<g opacity="0.1">
<path d="M222.7 302.939H215.45V371.319H222.7V302.939Z" fill="black"/>
</g>
<path d="M264.39 277.09H232.74V371.32H264.39V277.09Z" fill="#F63C75"/>
<g opacity="0.1">
<path d="M264.4 277.09H257.15V371.32H264.4V277.09Z" fill="black"/>
</g>
<path d="M181.08 318.34H149.43V371.32H181.08V318.34Z" fill="#F63C75"/>
<g opacity="0.1">
<path d="M181.08 318.34H173.83V371.32H181.08V318.34Z" fill="black"/>
</g>
<path d="M306.1 242.68H274.45V371.32H306.1V242.68Z" fill="#F63C75"/>
<g opacity="0.1">
<path d="M306.1 242.68H298.85V371.32H306.1V242.68Z" fill="black"/>
</g>
<path d="M138.21 350.78V337.59C138.21 337.59 253.5 330 300.09 231.68L304.72 232.6C304.72 232.6 273.79 333.41 138.21 350.78Z" fill="#37474F"/>
<path d="M309.039 235.91L294.479 232.19L306.549 222.93L309.039 235.91Z" fill="#37474F"/>
<path d="M52.7695 371.11L133.33 370.87L213.89 370.78L375 370.61L536.11 370.78L616.669 370.87L697.229 371.11L616.669 371.36L536.11 371.44L375 371.61L213.89 371.44L133.33 371.36L52.7695 371.11Z" fill="#263238"/>
<path d="M656.32 311.131C656.32 311.131 665.67 277.591 673.13 266.201C680.59 254.811 694.5 242.301 694.5 242.301C694.5 242.301 694.17 294.001 656.32 311.131Z" fill="#F63C75"/>
<path d="M657 310.55C660.147 305.3 662.992 299.875 665.52 294.3C666.593 288.309 668.145 282.413 670.16 276.67C670.16 276.56 670.35 276.62 670.33 276.73C669.09 282.02 667.64 287.28 666.33 292.56C670.11 284.4 673.69 276.13 678.18 268.41C679.22 264.684 680.673 261.085 682.51 257.68C682.51 257.58 682.73 257.68 682.68 257.74C681.543 260.361 680.568 263.05 679.76 265.79C681.883 262.35 684.256 259.071 686.86 255.98C687.03 255.79 687.35 255.98 687.19 256.21C681.19 263.88 677.04 272.6 673.09 281.43C677.338 276.823 681.257 271.924 684.82 266.77C684.82 266.77 684.93 266.77 684.9 266.83C681.187 272.606 676.985 278.053 672.34 283.11C669.47 289.58 666.64 296.11 663.21 302.23C670.06 296.44 675.33 288.94 680.55 281.71C680.577 281.682 680.612 281.665 680.65 281.661C680.688 281.657 680.726 281.667 680.757 281.689C680.789 281.71 680.811 281.743 680.821 281.78C680.831 281.817 680.827 281.856 680.81 281.89C675.59 289.82 670.19 297.29 662.68 303.17C661.162 305.872 659.493 308.486 657.68 311C657.621 311.09 657.528 311.153 657.422 311.175C657.316 311.196 657.205 311.175 657.115 311.115C657.025 311.055 656.962 310.962 656.941 310.856C656.919 310.75 656.941 310.64 657 310.55Z" fill="#263238"/>
<path d="M651.3 311.17C651.3 311.17 668.1 280.25 663.22 250.27C658.34 220.29 653.12 209.61 653.12 209.61C653.12 209.61 626.71 256.24 651.3 311.17Z" fill="#F63C75"/>
<path d="M644.41 262.56C645.83 271.068 647.998 279.434 650.89 287.56C650.94 276.56 651.15 265.56 651.44 254.56C649.551 247.861 648.487 240.957 648.27 234C648.27 233.8 648.57 233.81 648.58 234C649.109 239.947 650.096 245.844 651.53 251.64C651.783 242.56 652.077 233.483 652.41 224.41C652.41 224.378 652.423 224.348 652.445 224.325C652.468 224.303 652.498 224.29 652.53 224.29C652.562 224.29 652.592 224.303 652.615 224.325C652.637 224.348 652.65 224.378 652.65 224.41C652.65 238.58 652.65 252.76 652.55 266.94C654.597 261.46 656.218 255.83 657.4 250.1C657.4 250.04 657.5 250.1 657.49 250.1C656.99 256.73 654.98 263.1 652.49 269.27C652.42 278.34 652.32 287.4 652.12 296.46C654.96 286.83 658 277.46 658.82 267.31C658.827 267.288 658.841 267.268 658.86 267.254C658.879 267.24 658.901 267.233 658.925 267.233C658.948 267.233 658.971 267.24 658.99 267.254C659.009 267.268 659.023 267.288 659.03 267.31C658.81 278.53 655.92 289.93 652.21 300.49C652.173 300.596 652.107 300.69 652.02 300.76C651.94 304.07 651.85 307.38 651.73 310.69C651.716 310.776 651.671 310.855 651.604 310.912C651.537 310.968 651.453 310.999 651.365 310.999C651.277 310.999 651.193 310.968 651.126 310.912C651.059 310.855 651.014 310.776 651 310.69C650.873 303.91 650.817 297.133 650.83 290.36C647.172 281.49 644.937 272.097 644.21 262.53C644.214 262.504 644.228 262.48 644.25 262.464C644.271 262.448 644.298 262.441 644.325 262.445C644.351 262.449 644.375 262.463 644.391 262.485C644.407 262.507 644.414 262.534 644.41 262.56Z" fill="#263238"/>
<path d="M645.56 257.78C646.145 260.472 646.536 263.203 646.73 265.951C646.73 266.041 646.59 266.051 646.57 265.951C645.92 263.273 645.459 260.553 645.19 257.81C645.17 257.61 645.52 257.57 645.56 257.78Z" fill="#263238"/>
<path d="M655.38 235.17C655.38 235.08 655.54 235.11 655.54 235.17C655.515 237.076 655.233 238.97 654.7 240.8C654.691 240.831 654.67 240.856 654.642 240.871C654.613 240.886 654.581 240.889 654.55 240.88C654.52 240.871 654.494 240.85 654.479 240.822C654.464 240.794 654.461 240.761 654.47 240.73C654.83 238.9 655.06 237 655.38 235.17Z" fill="#263238"/>
<path d="M647 312.91C647 312.91 643.46 280.82 632.18 266.12C620.9 251.42 604.61 245.33 604.61 245.33C604.61 245.33 618.17 300.93 647 312.91Z" fill="#F63C75"/>
<path d="M626.651 287.75C631.076 292.856 635.926 297.576 641.151 301.86C638.484 295.56 635.517 289.407 632.251 283.4C626.511 279.56 620.791 275.56 616.821 269.8C616.81 269.781 616.806 269.759 616.81 269.738C616.815 269.717 616.826 269.698 616.843 269.685C616.86 269.671 616.881 269.665 616.903 269.666C616.924 269.667 616.945 269.675 616.961 269.69C621.071 274.69 626.191 278.49 631.521 282.07C626.581 273.023 621.087 264.29 615.071 255.92C615.048 255.876 615.041 255.825 615.052 255.777C615.063 255.729 615.091 255.686 615.13 255.656C615.17 255.626 615.218 255.611 615.268 255.614C615.317 255.616 615.364 255.636 615.401 255.67C618.956 260.001 622.271 264.525 625.331 269.22C624.021 265.92 622.88 262.51 621.55 259.22C621.549 259.203 621.553 259.186 621.561 259.172C621.57 259.157 621.583 259.146 621.599 259.139C621.614 259.132 621.631 259.131 621.648 259.135C621.664 259.138 621.679 259.147 621.691 259.16C624.066 263.278 625.93 267.67 627.24 272.24C631.401 278.911 635.077 285.872 638.24 293.07C637.37 288.31 636.441 283.57 635.321 278.85C635.321 278.76 635.45 278.72 635.48 278.85C637.198 284.015 638.378 289.343 639.001 294.75C640.947 299.35 642.694 304.017 644.24 308.75C644.24 308.88 644.09 308.96 644.04 308.83C643.274 306.83 642.477 304.877 641.651 302.97C641.651 302.97 641.58 302.97 641.54 302.97C635.96 298.69 630.541 293.68 626.641 287.79C626.581 287.75 626.621 287.72 626.651 287.75Z" fill="#263238"/>
<path d="M612.581 263.11C613.751 264.11 614.841 265.11 615.981 266.11C617.051 266.943 618.055 267.859 618.981 268.85C618.981 268.85 618.981 268.95 618.921 268.93C617.655 268.224 616.494 267.345 615.471 266.32C614.361 265.376 613.334 264.338 612.401 263.22C612.381 263.16 612.501 263 612.581 263.11Z" fill="#263238"/>
<path d="M672.691 309.601L671.521 324.891L668.001 371.111H637.331L633.811 324.891L632.641 309.601H672.691Z" fill="#455A64"/>
<path d="M672.691 309.601L671.521 324.891H633.811L632.641 309.601H672.691Z" fill="#37474F"/>
<path d="M629.91 313.82H675.41V302.1H629.91V313.82Z" fill="#455A64"/>
<path d="M238.73 416.69C236.73 417.35 178.02 416.84 175.79 415.4C174.95 414.86 174.52 406.32 174.31 395.97C174.26 393.74 169.83 357.75 169.83 357.75L209.05 357.98L212.13 396.2C212.13 396.2 234.5 406.44 236.77 408.27C239.04 410.1 240.79 416 238.73 416.69Z" fill="#EB9481"/>
<path d="M238.731 416.691C236.731 417.351 178.021 416.841 175.791 415.401C175.131 414.971 174.721 409.571 174.471 402.221C184.471 403.731 218.471 408.771 226.011 408.031C231.121 407.531 227.831 404.381 224.161 401.811C229.871 404.531 235.681 407.391 236.771 408.271C239.001 410.111 240.791 416.001 238.731 416.691Z" fill="#263238"/>
<path d="M114 212.42C114 212.42 158.58 290.42 159.73 295.9C161.51 304.28 171.84 395.62 171.84 395.62L215.72 395.35C215.72 395.35 207 313.8 199.58 289.73C195.52 276.59 174.16 240.97 164.15 223.38C163.26 221.81 163.52 214.62 163.52 214.62L114 212.42Z" fill="#455A64"/>
<path d="M211.49 388C204.68 387.87 184.09 387.3 175.02 388C174.95 388 174.95 388.12 175.02 388.13C178.13 388.61 204.68 388.29 211.49 388.13C211.504 388.146 211.521 388.157 211.541 388.162C211.561 388.167 211.582 388.166 211.601 388.159C211.62 388.152 211.637 388.139 211.648 388.122C211.66 388.106 211.666 388.086 211.666 388.065C211.666 388.045 211.66 388.025 211.648 388.008C211.637 387.991 211.62 387.979 211.601 387.971C211.582 387.964 211.561 387.963 211.541 387.969C211.521 387.974 211.504 387.985 211.49 388Z" fill="#263238"/>
<path d="M121.671 219.62C124.601 224.34 127.671 228.96 130.671 233.62C133.671 238.28 136.671 242.98 139.591 247.69C145.471 257.11 151.214 266.61 156.821 276.19C159.542 280.606 161.862 285.258 163.751 290.09C165.48 294.933 166.762 299.924 167.581 305C168.451 310.1 169.001 315.24 169.511 320.38C170.064 325.86 170.607 331.333 171.141 336.8C172.251 348 174.771 367.88 175.891 379.08C176.021 380.45 176.151 381.83 176.271 383.2C176.271 383.4 175.931 383.44 175.911 383.2C174.651 372.07 172.221 352.2 171.091 341.08C170.524 335.54 169.961 329.993 169.401 324.44C168.881 319.28 168.401 314.12 167.651 308.98C166.976 303.908 165.919 298.894 164.491 293.98C162.919 288.897 160.782 284.007 158.121 279.4C152.751 269.86 147.051 260.48 141.351 251.12C135.651 241.76 129.811 232.28 123.791 223C123.051 221.85 122.301 220.72 121.521 219.59C121.471 219.61 121.621 219.53 121.671 219.62Z" fill="#263238"/>
<path d="M131.63 419.87C129.47 419.71 73.97 396.43 72.44 394.26C72.3761 394.133 72.3484 393.991 72.36 393.85C72.36 391.93 76.36 385.27 79.68 376.5C79.89 375.94 98.94 343.76 98.94 343.76L135.22 358.69L114.65 390.89C114.65 390.89 131.55 408.78 132.96 411.33C134.37 413.88 133.78 420 131.63 419.87Z" fill="#EB9481"/>
<path d="M131.63 419.87C129.47 419.71 73.97 396.43 72.44 394.26C72.3761 394.133 72.3484 393.991 72.36 393.85C72.36 392.31 74.95 387.69 77.69 381.38C87.69 388.75 119.03 408.23 124.93 408.65C128.04 408.87 125.46 403.73 123.41 400.3C127.77 405.05 132.27 410.07 132.96 411.3C134.36 413.88 133.78 420 131.63 419.87Z" fill="#263238"/>
<path d="M117.92 391.7L77.3203 374.7C77.3203 374.7 131.19 292.39 131.63 286.86C132.02 281.96 110.32 239 109.63 226.55C108.85 213.11 115.44 202.8 122.63 196.44L163.56 214.6C163.56 214.6 159.98 221.91 152.94 225.78C152.94 225.78 173.94 275.38 172.51 290.54C171.08 305.7 117.92 391.7 117.92 391.7Z" fill="#455A64"/>
<path d="M119.831 384C113.961 381.39 115.681 382.06 109.831 379.51C106.951 378.27 87.9707 370.1 85.0707 369.42C85.0107 369.42 84.9707 369.5 85.0707 369.54C87.5907 371.12 106.711 378.95 109.621 380.14C115.621 382.57 113.891 381.81 119.861 384.14C119.868 384.129 119.873 384.116 119.876 384.103C119.878 384.09 119.878 384.077 119.875 384.064C119.872 384.051 119.867 384.038 119.859 384.027C119.852 384.016 119.842 384.007 119.831 384Z" fill="#263238"/>
<path d="M159.84 225C155.455 225.97 151.16 227.308 147 229C146.972 229.016 146.95 229.042 146.939 229.072C146.927 229.103 146.927 229.136 146.937 229.167C146.948 229.198 146.969 229.224 146.997 229.241C147.025 229.258 147.058 229.264 147.09 229.26C151.41 228.05 155.8 226.93 160.04 225.5C160.106 225.473 160.159 225.421 160.188 225.356C160.216 225.29 160.217 225.216 160.19 225.15C160.164 225.083 160.112 225.03 160.046 225.002C159.981 224.974 159.906 224.973 159.84 225Z" fill="#263238"/>
<path d="M154.861 223.19C154.442 223.911 154.075 224.659 153.761 225.43C153.442 226.011 153.245 226.651 153.181 227.31C153.181 227.44 153.351 227.47 153.431 227.4C153.875 226.866 154.239 226.27 154.511 225.63C154.871 224.94 155.261 224.25 155.601 223.55C155.831 223.09 155.131 222.74 154.861 223.19Z" fill="#263238"/>
<path d="M155.42 219.23C155.69 218.59 155.96 217.95 156.24 217.31C156.52 216.67 156.86 215.99 157.1 215.31C157.1 215.21 157.31 215.31 157.26 215.39C157 216.04 156.82 216.73 156.61 217.39C156.4 218.05 156.17 218.72 155.94 219.39C155.51 220.63 154.99 221.85 154.44 223.04C155.123 223.083 155.807 222.97 156.44 222.711C157.086 222.31 157.592 221.72 157.89 221.021C158.27 220.301 158.62 219.561 159.01 218.851C159.479 218.077 159.881 217.264 160.21 216.42C160.21 216.31 160.41 216.421 160.37 216.491C159.774 218.286 159 220.018 158.06 221.661C157.67 222.301 157.34 222.96 156.63 223.2C155.845 223.414 155.024 223.458 154.22 223.33C154.12 223.33 154 223.33 154.03 223.18C154.46 221.85 154.9 220.51 155.42 219.23Z" fill="#263238"/>
<path d="M153.531 227.41C154.991 230.6 156.271 233.78 157.631 236.96C158.991 240.14 160.201 243.2 161.401 246.36C163.831 252.73 166.001 259.22 167.901 265.78C168.834 269.02 169.687 272.287 170.461 275.58C171.31 278.865 171.922 282.207 172.291 285.58C172.601 288.947 172.261 292.342 171.291 295.58C170.291 298.89 164.891 310.11 163.361 313.2C162.421 315.09 162.111 314.83 162.561 313.87C163.851 311.17 171.291 295.58 171.681 289.12C171.881 285.78 170.471 281.05 169.761 277.79C169.051 274.53 168.201 271.17 167.291 267.88C165.501 261.42 163.361 255.08 161.151 248.75C159.911 245.2 158.581 241.69 157.321 238.15C156.061 234.61 154.751 231.37 153.321 227.47C153.317 227.456 153.315 227.442 153.317 227.428C153.319 227.414 153.323 227.4 153.33 227.387C153.337 227.375 153.346 227.364 153.358 227.355C153.369 227.346 153.382 227.339 153.396 227.335C153.409 227.331 153.424 227.33 153.438 227.332C153.452 227.333 153.466 227.338 153.479 227.345C153.491 227.352 153.502 227.361 153.511 227.372C153.52 227.384 153.527 227.396 153.531 227.41Z" fill="#263238"/>
<path d="M122.67 216.55C123.41 216.29 124.42 216.75 125.16 216.89C126.115 217.062 127.081 217.168 128.05 217.21C129.007 217.255 129.966 217.235 130.92 217.15C131.881 217.134 132.825 216.898 133.68 216.46C135.079 215.465 136.28 214.217 137.22 212.78C138.357 211.318 139.292 209.711 140 208C140 207.9 140.19 208 140.16 208.07C139.84 209.07 139.6 210.07 139.16 210.98C138.773 211.876 138.315 212.738 137.79 213.56C136.914 215.2 135.647 216.598 134.1 217.63C132.39 218.58 130.21 218.49 128.33 218.36C127.236 218.289 126.15 218.132 125.08 217.89C124.31 217.72 123.01 217.58 122.53 216.89C122.514 216.859 122.505 216.825 122.503 216.79C122.502 216.755 122.508 216.72 122.521 216.688C122.534 216.655 122.555 216.626 122.58 216.602C122.606 216.579 122.637 216.561 122.67 216.55Z" fill="#263238"/>
<path d="M89.0607 367.08C95.8907 357.02 124.651 307.52 131.061 297.13C132.752 294.709 134.193 292.122 135.361 289.41C136.451 286.41 135.881 283.48 134.971 280.52C133.249 275.103 131.223 269.788 128.901 264.6C126.611 259.39 124.141 254.25 121.711 249.1C119.151 244.034 116.884 238.825 114.921 233.5C113.041 228.485 112.723 223.018 114.011 217.82C115.441 212.59 118.451 207.91 121.591 203.55C122.421 202.4 123.261 201.27 124.091 200.12C124.151 200.03 124.281 200.12 124.221 200.23C120.771 204.77 117.391 209.58 115.341 214.93C114.289 217.571 113.684 220.37 113.551 223.21C113.5 226.093 113.912 228.967 114.771 231.72C116.361 237.08 118.901 242.16 121.271 247.21C123.641 252.26 126.171 257.49 128.511 262.69C130.893 267.909 132.999 273.25 134.821 278.69C135.621 281.11 136.511 283.69 136.421 286.24C136.321 289.08 134.941 291.61 133.511 293.99C127.281 304.32 98.6708 353.46 91.8708 363.49C91.0241 364.756 90.1674 366.02 89.3008 367.28C89.1808 367.43 89.0007 367.24 89.0607 367.08Z" fill="#263238"/>
<path d="M126.56 118.09C117.94 125.48 120.34 136.25 116.74 142.09C114.54 145.66 107.37 149.44 105.95 153.56C103.6 160.33 109.34 162.76 108.06 166.43C106.24 171.65 99.2602 171.24 98.0602 179.77C96.8602 188.3 106.18 197.36 128.44 199.82C150.7 202.28 162.94 194.12 163.74 186.89C164.54 179.66 157.13 177.25 156.62 171.89C156.3 168.43 160.87 166.03 161.11 159.68C161.35 153.33 155.11 151.26 154.26 145.87C153.41 140.48 156.26 127.36 148.26 120.67C140.26 113.98 130.82 114.44 126.56 118.09Z" fill="#263238"/>
<path d="M127.56 118.281C125.154 119.992 123.192 122.255 121.84 124.881C120.445 127.664 119.378 130.601 118.66 133.631C118.284 135.437 117.703 137.195 116.93 138.871C116.157 140.269 115.141 141.518 113.93 142.561C111.52 144.741 108.65 146.401 106.48 148.841C104.31 151.281 102.84 154.261 103.66 157.421C104.1 159.141 105.24 160.541 105.94 162.151C106.64 163.761 106.88 165.551 105.57 166.811C104.46 167.891 102.85 168.391 101.57 169.271C100.324 170.139 99.2267 171.202 98.3202 172.421C97.413 173.632 96.7669 175.017 96.4227 176.491C96.0784 177.964 96.0435 179.493 96.3202 180.981C97.6302 187.911 104.13 191.851 110.13 194.331L112.65 195.331C112.78 195.381 112.89 195.191 112.76 195.131C106.76 192.441 99.7602 189.271 97.4402 182.541C96.9125 181.075 96.7282 179.507 96.9016 177.959C97.075 176.411 97.6014 174.923 98.4402 173.611C99.2925 172.31 100.373 171.175 101.63 170.261C102.84 169.371 104.23 168.821 105.47 167.971C106.079 167.581 106.575 167.037 106.907 166.394C107.239 165.752 107.395 165.033 107.36 164.311C107.167 162.723 106.598 161.204 105.7 159.881C104.766 158.507 104.271 156.882 104.28 155.221C104.46 153.604 105.076 152.066 106.06 150.771C107.94 148.121 110.71 146.381 113.2 144.371C115.745 142.497 117.641 139.875 118.62 136.871C119.08 135.281 119.36 133.651 119.76 132.051C120.123 130.561 120.567 129.092 121.09 127.651C122.076 124.751 123.683 122.103 125.8 119.891C126.36 119.325 126.977 118.819 127.64 118.381C127.71 118.351 127.64 118.231 127.56 118.281Z" fill="#263238"/>
<path d="M164.681 181.59C164.404 180.411 163.876 179.305 163.131 178.35C162.361 177.35 161.421 176.54 160.571 175.64C159.689 174.835 159.057 173.794 158.751 172.64C158.601 171.23 158.955 169.813 159.751 168.64C160.512 167.398 161.181 166.101 161.751 164.76C162.506 162.723 162.773 160.538 162.532 158.38C162.29 156.221 161.547 154.149 160.361 152.33C159.601 151.09 158.741 149.91 157.971 148.67C157.115 147.322 156.442 145.866 155.971 144.34C154.971 140.99 154.751 137.46 153.971 134.06C153.11 130.58 151.901 127.197 150.361 123.96C150.361 123.88 150.201 123.96 150.241 124.04C151.608 126.962 152.667 130.018 153.401 133.16C154.111 136.16 154.401 139.16 154.911 142.16C155.123 143.64 155.489 145.095 156.001 146.5C156.528 147.797 157.174 149.042 157.931 150.22C159.431 152.67 160.991 155.1 161.401 158C161.817 160.861 161.316 163.781 159.971 166.34C158.801 168.55 157.161 170.99 158.181 173.58C159.051 175.78 161.181 177.09 162.531 178.91C163.26 179.905 163.77 181.043 164.028 182.25C164.287 183.456 164.288 184.703 164.031 185.91C162.841 192.14 156.591 195.23 150.741 195.54C150.709 195.548 150.681 195.567 150.66 195.593C150.64 195.62 150.629 195.652 150.629 195.685C150.629 195.718 150.64 195.75 150.66 195.776C150.681 195.803 150.709 195.821 150.741 195.83C155.821 195.77 161.351 193.53 163.741 188.77C164.866 186.554 165.197 184.02 164.681 181.59Z" fill="#263238"/>
<path d="M151.34 164.9C165.34 177.59 183.61 190.96 193.18 188.31C201.84 185.92 213.82 174.89 226.91 162.98C229.51 160.62 210.06 141.37 207.55 144.16C202.55 149.67 192.55 163.57 188.63 165.27C186.94 166 167 157.5 154 153.43C138.3 148.48 145.78 159.85 151.34 164.9Z" fill="#EB9481"/>
<path d="M237.43 158.45C232.87 161.8 225.43 166.31 222.06 166.84C218.89 167.34 205.4 146.91 207.42 144.31C213.69 136.2 226.25 130.31 232.02 130.55C237.79 130.79 242.15 155 237.43 158.45Z" fill="#EB9481"/>
<path d="M89.0004 338.71C83.1061 338.65 77.3129 337.171 72.1104 334.4L72.5903 333.52C78.5903 336.77 88.1703 339.28 97.0203 336.52C100.064 335.575 102.879 334.011 105.289 331.925C107.698 329.839 109.65 327.277 111.02 324.4C117.08 312.61 130.66 263.85 138.77 234.72C143.36 218.23 145.59 210.27 146.1 209.55C147.79 207.13 238.69 127.1 240.53 126.41C242.37 125.72 509.64 54.9202 521.01 51.9102L521.27 52.9102C518.49 53.6502 243.39 126.51 240.88 127.38C238.39 128.69 148.79 207.62 146.88 210.16C146.41 210.94 143.3 222.1 139.7 235.02C131 266.06 118 313 111.84 324.88C108.55 331.28 103.65 335.53 97.2703 337.5C94.5894 338.314 91.8019 338.721 89.0004 338.71Z" fill="#263238"/>
<path d="M223.07 132C221.93 134.76 225.85 134.53 225.85 134.53C225.85 134.53 220.28 136.23 220.2 139.53C220.12 142.83 224.86 142.27 225.2 142.25C224.9 142.34 219.83 144.03 220.1 147.37C220.37 150.71 225.04 149.57 225.34 149.49C225.09 149.66 221.83 152.02 222.6 154.49C223.94 158.77 232.45 152.97 235.98 153.8C235.98 153.8 237.07 158.53 237.09 158.71C237.09 158.71 243.49 154.78 244.34 149.95C244.476 149.251 244.368 148.527 244.035 147.897C243.702 147.268 243.164 146.771 242.51 146.49C242.51 146.49 245.34 145.06 245.22 142.42C245.15 141.07 242.93 139.98 242.93 139.98C243.561 139.625 244.081 139.103 244.434 138.471C244.787 137.84 244.959 137.123 244.93 136.4C244.73 134.53 242.53 133.73 242.53 133.73C242.53 133.73 244.12 131.54 243.3 129.73C241.62 126 225.54 126 223.07 132Z" fill="#EB9481"/>
<path d="M243.001 139.94C243.061 139.94 243.071 139.84 243.001 139.83C236.924 138.409 230.54 139.207 225.001 142.08C224.811 142.18 224.751 142.47 225.001 142.36C228.841 140.59 237.831 139.51 243.001 139.94Z" fill="#263238"/>
<path d="M225.001 149.82C230.441 147.06 236.211 146.32 242.251 146.42C242.331 146.42 242.331 146.31 242.251 146.29C239.311 145.44 235.451 145.78 232.471 146.29C229.695 146.713 227.08 147.862 224.891 149.62C224.841 149.7 224.911 149.88 225.001 149.82Z" fill="#263238"/>
<path d="M225.85 134.5C224.803 134.921 223.799 135.44 222.85 136.05C221.916 136.601 221.144 137.387 220.61 138.33C220.385 138.776 220.335 139.289 220.47 139.77C220.618 140.253 220.883 140.692 221.24 141.05C221.63 141.368 222.083 141.602 222.568 141.736C223.053 141.87 223.561 141.902 224.06 141.83L226.5 141.56L224.3 142.66C223.316 143.137 222.418 143.772 221.64 144.54C221.258 144.875 220.952 145.287 220.742 145.749C220.531 146.211 220.422 146.712 220.42 147.22C220.412 147.694 220.573 148.155 220.873 148.521C221.173 148.887 221.594 149.135 222.06 149.22C223.094 149.413 224.161 149.341 225.16 149.01L227.95 148.18L225.6 149.87C224.938 150.333 224.342 150.885 223.83 151.51C223.305 152.062 222.956 152.759 222.83 153.51C222.793 153.851 222.852 154.196 223 154.505C223.149 154.814 223.381 155.076 223.67 155.26C224.382 155.576 225.169 155.683 225.94 155.57C227.613 155.351 229.265 154.997 230.88 154.51C231.7 154.3 232.53 154.08 233.37 153.9C234.201 153.677 235.07 153.633 235.92 153.77C235.074 153.724 234.228 153.847 233.43 154.13C232.61 154.37 231.81 154.65 231 154.92C229.381 155.531 227.706 155.983 226 156.27C225.079 156.448 224.126 156.351 223.26 155.99C222.813 155.74 222.449 155.366 222.209 154.914C221.97 154.462 221.866 153.95 221.91 153.44C222.028 152.498 222.421 151.611 223.04 150.89C223.603 150.191 224.255 149.57 224.98 149.04L225.42 149.9C224.242 150.313 222.978 150.413 221.75 150.19C221.073 150.041 220.469 149.663 220.04 149.12C219.631 148.576 219.401 147.92 219.38 147.24C219.382 146.598 219.52 145.964 219.785 145.379C220.051 144.795 220.438 144.274 220.92 143.85C221.788 143.027 222.784 142.352 223.87 141.85L224.11 142.68C223.491 142.754 222.864 142.69 222.272 142.493C221.681 142.295 221.141 141.97 220.69 141.54C220.265 141.084 219.965 140.526 219.82 139.92C219.675 139.301 219.761 138.651 220.06 138.09C220.69 137.096 221.583 136.297 222.64 135.78C223.658 135.233 224.735 134.804 225.85 134.5Z" fill="#263238"/>
<path d="M209.08 142.36C209.08 142.36 222.77 120.2 228.51 128.93C230.22 131.52 234.14 144.21 231.61 145.04C228.34 146.12 225.72 141.13 224.61 137.74C224.61 137.74 221.45 145.36 215.49 144.74C213.19 144.489 210.987 143.671 209.08 142.36Z" fill="#EB9481"/>
<path d="M228 128.23C228.791 129.168 229.441 130.216 229.93 131.34C230.439 132.456 230.88 133.602 231.25 134.77C232.007 137.109 232.562 139.508 232.91 141.94C233 142.587 233 143.244 232.91 143.89C232.848 144.25 232.709 144.591 232.5 144.89C232.391 145.066 232.248 145.219 232.08 145.34C231.916 145.461 231.733 145.555 231.54 145.62C230.836 145.837 230.078 145.798 229.4 145.51C228.786 145.232 228.225 144.85 227.74 144.38C226.848 143.477 226.114 142.429 225.57 141.28C225.024 140.168 224.556 139.018 224.17 137.84H224.97C224.58 138.697 224.108 139.514 223.56 140.28C223.031 141.05 222.421 141.76 221.74 142.4C221.053 143.032 220.279 143.561 219.44 143.97C218.609 144.38 217.705 144.625 216.78 144.69C217.67 144.499 218.522 144.161 219.3 143.69C220.061 143.22 220.754 142.648 221.36 141.99C221.972 141.384 222.521 140.717 223 140C223.468 139.248 223.866 138.455 224.19 137.63L224.58 136.63L224.99 137.63C225.399 138.751 225.88 139.843 226.43 140.9C226.943 141.937 227.619 142.886 228.43 143.71C228.767 144.101 229.199 144.399 229.684 144.574C230.169 144.749 230.692 144.796 231.2 144.71C232 144.51 232.04 143.18 231.94 142.04C231.84 140.9 231.62 139.68 231.4 138.5C231.18 137.32 230.93 136.13 230.62 134.96C230.102 132.595 229.218 130.324 228 128.23Z" fill="#263238"/>
<path d="M174.49 184.51L182 162.78C182 162.78 163.61 154.37 153.08 152.11C142.55 149.85 140 154.29 149.39 164C158.78 173.71 174.49 184.51 174.49 184.51Z" fill="#F63C75"/>
<path d="M178.18 162.261C176.84 165.071 175.75 168.021 174.66 170.941C173.57 173.861 172.58 176.761 171.73 179.731C171.73 179.781 171.81 179.821 171.83 179.731C173.03 176.851 174.14 173.931 175.21 171.001C176.28 168.071 177.39 165.221 178.29 162.271C178.31 162.241 178.21 162.201 178.18 162.261Z" fill="#263238"/>
<path opacity="0.1" d="M178.36 173.361L174.49 184.511C174.49 184.511 158.81 173.631 149.39 163.961C146.14 160.631 144.33 157.961 143.78 155.891L178.36 173.361Z" fill="black"/>
<path d="M164.271 215.26L111.391 206.09C111.391 206.09 124.191 168.62 135.391 155.19C140.871 148.6 148.941 151.28 152.241 154.14C153.291 155.05 163.601 169.29 164.621 175.21C165.501 180.45 161.931 186.04 161.931 186.04L164.271 215.26Z" fill="#F63C75"/>
<path d="M159.39 186.07C157.414 185.865 155.427 185.775 153.44 185.8C152.44 185.8 151.44 185.88 150.44 185.98L149.02 186.14C148.5 186.21 148.02 186.35 147.47 186.4C147.42 186.4 147.42 186.5 147.47 186.49C147.96 186.49 148.47 186.49 148.95 186.49H150.43L153.43 186.42C155.43 186.35 157.43 186.3 159.37 186.29C159.5 186.23 159.49 186.08 159.39 186.07Z" fill="#263238"/>
<path d="M129.411 158.54C109.221 175.54 89.9405 213.41 98.2105 218.1C105.761 222.38 131.261 222.1 141.881 220.78C145.001 220.39 141.531 196.17 138.191 196.58C134.191 197.07 123.961 197.38 123.561 197.31C122.701 197.15 135.471 170.59 139.561 160.82C145.241 147.21 137.001 152.16 129.411 158.54Z" fill="#EB9481"/>
<path d="M170.09 194.69C170.403 195.387 170.496 196.163 170.354 196.914C170.213 197.665 169.845 198.355 169.3 198.89C170.411 199.584 171.243 200.646 171.65 201.89C172.27 204.09 169.09 206.03 169.09 206.03C170.097 206.975 170.794 208.202 171.09 209.55C171.47 211.72 168.54 214.13 168.54 214.13C168.977 215.507 168.902 216.994 168.33 218.32C166.66 221.8 160.81 222.45 157.09 222.91C153.37 223.37 142.41 221.17 140.28 220.97L137.15 197.14C137.15 197.14 153.24 190.36 157.68 190.44C161.41 190.48 168.79 192.07 170.09 194.69Z" fill="#EB9481"/>
<path d="M169.09 198.53C165.09 197.53 161.09 197.69 157.02 197.66C157.002 197.66 156.984 197.668 156.971 197.681C156.958 197.694 156.95 197.712 156.95 197.73C156.95 197.749 156.958 197.767 156.971 197.78C156.984 197.793 157.002 197.8 157.02 197.8C161.02 197.8 165.02 198.57 169.02 198.72C169.045 198.729 169.073 198.728 169.098 198.717C169.122 198.706 169.141 198.685 169.15 198.66C169.159 198.635 169.158 198.607 169.147 198.583C169.136 198.558 169.115 198.539 169.09 198.53Z" fill="#263238"/>
<path d="M169 205.69C168.077 205.547 167.139 205.523 166.21 205.62C165.21 205.62 164.21 205.72 163.21 205.79C161.21 205.94 159.26 206.13 157.3 206.38C157.21 206.38 157.21 206.53 157.3 206.52C159.3 206.38 161.24 206.26 163.21 206.2L166.21 206.13C167.142 206.192 168.078 206.148 169 206C169.041 206 169.08 205.984 169.11 205.955C169.139 205.926 169.155 205.886 169.155 205.845C169.155 205.804 169.139 205.765 169.11 205.735C169.08 205.706 169.041 205.69 169 205.69Z" fill="#263238"/>
<path d="M168.44 214.1C167.602 213.981 166.751 214.001 165.92 214.16L163.23 214.41C161.43 214.56 159.63 214.71 157.82 214.8C157.801 214.8 157.784 214.808 157.771 214.821C157.757 214.834 157.75 214.852 157.75 214.87C157.75 214.889 157.757 214.907 157.771 214.92C157.784 214.933 157.801 214.94 157.82 214.94C159.66 214.86 161.49 214.8 163.32 214.7L166.02 214.54C166.844 214.57 167.667 214.452 168.45 214.19L168.44 214.1Z" fill="#263238"/>
<path d="M107.721 180.05L128.861 189.13C128.861 189.13 138.551 171.39 141.571 161.05C144.591 150.71 140.331 147.77 130.011 156.48C119.691 165.19 107.721 180.05 107.721 180.05Z" fill="#F63C75"/>
<path d="M129.611 184.6C126.901 183.07 124.041 181.76 121.211 180.47C118.381 179.18 115.551 177.98 112.651 176.92C112.637 176.92 112.625 176.925 112.615 176.935C112.606 176.944 112.601 176.957 112.601 176.97C112.601 176.983 112.606 176.996 112.615 177.005C112.625 177.015 112.637 177.02 112.651 177.02C115.431 178.42 118.261 179.74 121.111 181.02C123.961 182.3 126.731 183.6 129.601 184.71C129.621 184.73 129.661 184.64 129.611 184.6Z" fill="#263238"/>
<path d="M138.8 168.82C137.44 172.35 135.9 175.82 134.28 179.19C133.46 180.89 132.62 182.58 131.74 184.25C130.86 185.92 129.96 187.58 128.95 189.18V189.27H128.87C128.36 189.02 127.87 188.77 127.37 188.51L128.95 189.07L128.81 189.12L131.21 184L133.66 178.91C134.49 177.22 135.32 175.53 136.19 173.86C137.06 172.19 137.87 170.47 138.8 168.82Z" fill="#263238"/>
<path d="M134.801 177.32C135.22 176.405 135.719 175.528 136.291 174.7C136.851 173.866 137.487 173.086 138.191 172.37C137.783 173.294 137.284 174.175 136.701 175C136.14 175.831 135.504 176.607 134.801 177.32Z" fill="#263238"/>
<path d="M139.31 154.44C139.8 155.25 145.9 159.54 149.84 158.01C151.13 157.51 148.71 150.38 148.71 150.38L148.65 149.81L147.84 141.87L137.29 139.2L135.79 138.88C135.79 138.88 136.16 141.04 136.64 143.72C136.64 143.85 136.69 143.97 136.71 144.11C136.73 144.25 136.71 144.4 136.78 144.54C136.85 144.95 136.92 145.36 137 145.76C137.08 146.16 137.11 146.37 137.19 146.7C137.27 147.03 137.32 147.34 137.39 147.7C137.873 149.988 138.514 152.241 139.31 154.44Z" fill="#EB9481"/>
<path d="M136.64 143.72C138.078 145.546 139.897 147.036 141.969 148.088C144.041 149.14 146.318 149.727 148.64 149.81L147.83 141.87L137.28 139.2L135.78 138.88C135.78 138.88 136.16 141 136.64 143.72Z" fill="#263238"/>
<path d="M155.1 126.17C161.03 138.87 154.1 143.86 151.35 145.17C148.86 146.33 140.25 149.95 133.04 137.93C125.83 125.91 129.87 119.14 135.42 116.2C140.97 113.26 149.18 113.47 155.1 126.17Z" fill="#EB9481"/>
<path d="M149.86 123.4C149.55 123.5 149.24 123.55 148.92 123.62C148.596 123.728 148.245 123.728 147.92 123.62C147.825 123.568 147.748 123.487 147.703 123.387C147.658 123.288 147.646 123.177 147.67 123.07C147.75 122.861 147.885 122.678 148.061 122.54C148.238 122.403 148.448 122.316 148.67 122.29C149.101 122.157 149.566 122.193 149.97 122.39C150.076 122.434 150.164 122.511 150.222 122.61C150.28 122.708 150.304 122.823 150.292 122.936C150.28 123.05 150.231 123.156 150.153 123.24C150.075 123.323 149.973 123.38 149.86 123.4Z" fill="#263238"/>
<path d="M143.09 129.81C143.397 129.71 143.697 129.593 143.99 129.46C144.327 129.381 144.626 129.191 144.84 128.92C144.894 128.824 144.913 128.712 144.895 128.603C144.877 128.494 144.822 128.394 144.74 128.32C144.558 128.197 144.346 128.125 144.126 128.111C143.907 128.097 143.687 128.142 143.49 128.24C143.066 128.379 142.709 128.671 142.49 129.06C142.446 129.151 142.428 129.252 142.439 129.352C142.449 129.453 142.489 129.548 142.552 129.626C142.615 129.705 142.699 129.764 142.794 129.797C142.89 129.829 142.992 129.834 143.09 129.81Z" fill="#263238"/>
<path d="M145.801 130.53C145.801 130.53 145.751 130.6 145.801 130.64C146.251 131.48 146.631 132.52 145.991 133.19C146.871 132.63 146.361 131.26 145.801 130.53Z" fill="#263238"/>
<path d="M144.59 130.001C143.17 130.581 144.43 133.391 145.75 132.851C147.07 132.311 145.79 129.531 144.59 130.001Z" fill="#263238"/>
<path d="M144.11 130.41C143.93 130.68 143.82 131.07 143.54 131.23C143.26 131.39 142.82 131.23 142.47 131.06C142.47 131.06 142.42 131.06 142.47 131.11C142.71 131.66 143.16 132.11 143.78 131.94C144.038 131.822 144.243 131.612 144.355 131.352C144.468 131.092 144.481 130.799 144.39 130.53C144.33 130.41 144.18 130.31 144.11 130.41Z" fill="#263238"/>
<path d="M150.45 128C150.45 128 150.53 128 150.55 128C150.9 128.88 151.46 129.84 152.38 129.78V129.83C151.37 130.16 150.64 128.88 150.45 128Z" fill="#263238"/>
<path d="M150.83 126.73C152.19 126.01 153.53 128.73 152.28 129.45C151.03 130.17 149.69 127.34 150.83 126.73Z" fill="#263238"/>
<path d="M151.49 126.631C151.78 126.631 152.13 126.841 152.4 126.731C152.67 126.621 152.79 126.191 152.85 125.811C152.85 125.811 152.85 125.811 152.9 125.811C153.17 126.331 153.27 126.971 152.81 127.311C152.35 127.651 151.81 127.311 151.45 126.881C151.37 126.801 151.38 126.621 151.49 126.631Z" fill="#263238"/>
<path d="M148.801 137.65C149.098 137.84 149.452 137.918 149.801 137.87C150.128 137.735 150.421 137.531 150.661 137.271C150.661 137.271 150.731 137.271 150.721 137.271C150.661 137.495 150.543 137.7 150.378 137.864C150.212 138.028 150.006 138.144 149.781 138.201C149.582 138.225 149.381 138.19 149.202 138.099C149.024 138.008 148.877 137.866 148.781 137.691C148.701 137.671 148.761 137.63 148.801 137.65Z" fill="#263238"/>
<path d="M151 132.84C151 132.84 151.77 134.05 152.06 134.66C152.06 134.72 151.95 134.81 151.75 134.92C151.271 135.26 150.707 135.46 150.121 135.499C149.535 135.538 148.95 135.414 148.43 135.14C148.36 135.14 148.43 135.01 148.49 135.02C149.515 135.192 150.567 135.027 151.49 134.55C151.49 134.36 150.08 132.55 150.18 132.47C150.674 132.295 151.188 132.184 151.71 132.14C150.16 129.57 148.22 127.27 146.71 124.69C146.699 124.672 146.696 124.65 146.7 124.628C146.704 124.607 146.716 124.588 146.733 124.575C146.75 124.562 146.771 124.555 146.792 124.556C146.814 124.557 146.834 124.565 146.85 124.58C149.011 126.984 150.927 129.597 152.57 132.38C152.74 132.71 151.27 132.83 151 132.84Z" fill="#263238"/>
<path d="M151.26 135C151.116 135.598 150.819 136.149 150.4 136.6C150.168 136.838 149.867 136.995 149.54 137.05C148.82 137.17 148.54 136.59 148.43 136.05C148.375 135.75 148.355 135.445 148.37 135.14C149.324 135.402 150.336 135.353 151.26 135Z" fill="#263238"/>
<path d="M150.401 136.55C150.169 136.788 149.868 136.946 149.541 137C148.821 137.12 148.541 136.54 148.431 136C148.773 135.855 149.154 135.831 149.512 135.931C149.87 136.03 150.183 136.249 150.401 136.55Z" fill="#FF9CBD"/>
<path d="M134.43 138.58C137.43 136.85 133.43 126.84 132.89 125.58C133.25 126.34 135.19 130.32 135.57 130.32C135.904 130.146 136.202 129.912 136.45 129.63C136.206 129.157 135.999 128.665 135.83 128.16C135.74 127.93 136.16 128.59 136.72 129.38L137.21 128.92C136.654 127.933 136.23 126.878 135.95 125.78C135.85 125.36 136.82 126.98 137.95 128.25C140.197 126.092 142.675 124.191 145.34 122.58C146.1 122.15 146.77 121.81 147.34 121.58C146.73 120.41 145.96 119.25 146.18 119.47C146.778 120.049 147.317 120.685 147.79 121.37C148.12 121.22 148.43 121.09 148.71 120.98C147.93 119.3 145.79 117.09 146.26 117.35C147.679 118.181 148.931 119.27 149.95 120.56C151.18 120.2 151.6 120.25 151.48 119.95C150.644 118.299 149.489 116.83 148.081 115.629C146.674 114.427 145.042 113.517 143.28 112.95C137.49 111.32 128.89 115.09 127.46 122.95C127.46 122.95 123.81 128.5 125.22 132.57C126.63 136.64 132.67 139.58 134.43 138.58Z" fill="#263238"/>
<path d="M135.51 137.93C135.51 137.93 131.14 134.87 129.65 136.57C128.16 138.27 132.49 143.44 134.98 143.46C135.3 143.484 135.621 143.444 135.924 143.341C136.227 143.238 136.507 143.074 136.745 142.86C136.983 142.646 137.176 142.386 137.311 142.095C137.446 141.805 137.52 141.49 137.53 141.17L135.51 137.93Z" fill="#EB9481"/>
<path d="M130.931 138V138.06C131.762 138.156 132.564 138.424 133.286 138.847C134.007 139.271 134.632 139.841 135.121 140.52C134.974 140.393 134.801 140.299 134.615 140.247C134.428 140.194 134.231 140.184 134.04 140.216C133.849 140.249 133.667 140.323 133.508 140.435C133.349 140.546 133.217 140.692 133.121 140.86C133.121 140.86 133.121 140.95 133.191 140.93C133.427 140.743 133.716 140.634 134.018 140.62C134.319 140.605 134.618 140.686 134.871 140.85C135.297 141.138 135.69 141.474 136.041 141.85C136.161 141.96 136.381 141.8 136.271 141.66C135.621 139.63 133.101 137.45 130.931 138Z" fill="#263238"/>
<path d="M148.781 150.38L147.861 157.22L138.141 151.32L136.591 154.4C136.591 154.4 147.321 164.97 147.221 164.4L148.421 158.4L153.061 161.19L150.391 151.91L148.781 150.38Z" fill="#EBEBEB"/>
<path d="M152 156.52C151.51 155 151.05 153.46 150.49 151.97C150.49 151.91 150.38 151.91 150.38 151.97C150.45 153.54 152.38 159.33 152.72 160.74C152.52 160.62 148.46 158.33 148.44 158.39C148.1 159.39 147.21 163.76 147.17 164.14C145.48 162.46 138.42 155.93 136.53 154.41C136.519 154.404 136.506 154.403 136.494 154.405C136.482 154.407 136.471 154.413 136.462 154.422C136.453 154.43 136.447 154.442 136.445 154.454C136.443 154.466 136.445 154.479 136.45 154.49C138.04 156.32 147.21 164.97 147.3 164.92C147.82 162.829 148.234 160.713 148.54 158.58C150.094 159.689 151.721 160.691 153.41 161.58C153.028 159.87 152.557 158.181 152 156.52Z" fill="#263238"/>
<path d="M165 115C163.531 112.818 162.738 110.251 162.72 107.62C162.72 98.28 172.97 90.71 185.62 90.71C198.27 90.71 208.51 98.28 208.51 107.62C208.51 116.96 198.26 124.54 185.62 124.54C179.999 124.628 174.486 122.995 169.82 119.86L161.93 121.86L165 115Z" fill="#F63C75"/>
<path d="M193.87 107.64C193.868 108.111 194.006 108.572 194.266 108.965C194.527 109.357 194.898 109.664 195.332 109.845C195.767 110.027 196.246 110.076 196.708 109.985C197.171 109.894 197.596 109.668 197.929 109.336C198.263 109.004 198.491 108.579 198.584 108.118C198.676 107.656 198.63 107.177 198.45 106.741C198.27 106.306 197.965 105.933 197.573 105.671C197.182 105.409 196.721 105.27 196.25 105.27C195.621 105.272 195.019 105.522 194.574 105.966C194.128 106.41 193.875 107.011 193.87 107.64Z" fill="#263238"/>
<path d="M185.64 110.01C186.948 110.01 188.01 108.948 188.01 107.64C188.01 106.331 186.948 105.27 185.64 105.27C184.331 105.27 183.27 106.331 183.27 107.64C183.27 108.948 184.331 110.01 185.64 110.01Z" fill="#263238"/>
<path d="M175.019 110.01C176.328 110.01 177.389 108.948 177.389 107.64C177.389 106.331 176.328 105.27 175.019 105.27C173.711 105.27 172.649 106.331 172.649 107.64C172.649 108.948 173.711 110.01 175.019 110.01Z" fill="#263238"/>
<path d="M318.55 388.31L237.86 402.9C194.47 410.16 142.67 412.18 67.6201 404.49L148.73 390.93C214.34 396.35 275.16 395.56 318.55 388.31Z" fill="#36E192"/>
<path d="M323.58 414.669L237 428.919C266.42 423.999 297.14 415.539 318.88 404.839C439.48 346.529 490.19 144.569 490.88 142.649H588C587.28 144.569 575.84 177.649 527.41 269.889C497.46 324.709 453.19 365.089 399.98 391.279C378.22 401.999 353 409.749 323.58 414.669Z" fill="#36E192"/>
<g opacity="0.3">
<path d="M323.58 414.669L237 428.919C266.42 423.999 297.14 415.539 318.88 404.839C439.48 346.529 490.19 144.569 490.88 142.649H588C587.28 144.569 575.84 177.649 527.41 269.889C497.46 324.709 453.19 365.089 399.98 391.279C378.22 401.999 353 409.749 323.58 414.669Z" fill="white"/>
</g>
<path d="M468.33 132.52L490.89 142.65C490.16 144.57 442.39 343.09 318.89 404.84C243.6 442.48 179.21 440.22 68.4402 431.07L67.6602 404.49C175.27 413.38 257.84 406.87 309.33 379.92C425.48 319.1 468.16 133 468.33 132.52Z" fill="#36E192"/>
<g opacity="0.1">
<path d="M468.33 132.52L490.89 142.65C490.16 144.57 442.39 343.09 318.89 404.84C243.6 442.48 179.21 440.22 68.4402 431.07L67.6602 404.49C175.27 413.38 257.84 406.87 309.33 379.92C425.48 319.1 468.16 133 468.33 132.52Z" fill="black"/>
</g>
<path d="M468.33 132.52H572.98L587.98 142.65H490.89L468.33 132.52Z" fill="#36E192"/>
<path d="M548.03 67.4697L616.08 153.8L455.71 153.37L548.03 67.4697Z" fill="#36E192"/>
<g opacity="0.3">
<path d="M548.03 67.4697L616.08 153.8L455.71 153.37L548.03 67.4697Z" fill="white"/>
</g>
<path d="M455.71 153.37L428.13 132.21L520.45 46.3096L548.03 67.4696L455.71 153.37Z" fill="#36E192"/>
<g opacity="0.1">
<path d="M455.71 153.37L428.13 132.21L520.45 46.3096L548.03 67.4696L455.71 153.37Z" fill="black"/>
</g>
<path d="M499.621 433.62C501.621 434.27 558.621 433.53 560.751 432.12C561.571 431.6 561.951 423.29 562.121 413.24V412.92C562.121 410.85 556.861 376.11 556.861 376.11L518.741 376.49L525.351 412.99V413.61C525.351 413.61 503.661 423.61 501.461 425.45C499.261 427.29 497.621 433 499.621 433.62Z" fill="#AD6359"/>
<path d="M499.61 433.62C500.61 433.95 516.12 433.91 531.25 433.62C534.25 433.56 537.32 433.49 540.25 433.41C551.04 433.11 559.95 432.67 560.78 432.13C561.61 431.59 561.98 423.53 562.14 413.67C562.14 413.53 562.14 413.39 562.14 413.25C562.14 413.11 562.14 413.03 562.14 412.93L525.41 413V413.62C525.41 413.62 503.72 423.62 501.53 425.45C499.34 427.28 497.62 433 499.61 433.62Z" fill="#A6A6A6"/>
<path d="M500.241 431.4C509.841 431.04 548.601 430.5 558.121 430.87C558.201 430.87 558.201 430.93 558.121 430.93C548.611 431.5 509.841 431.73 500.241 431.56C500.001 431.56 500.001 431.41 500.241 431.4Z" fill="#263238"/>
<path d="M521.26 413.15C525.03 412.39 529.66 412.91 532.59 415.57C532.7 415.67 532.59 415.83 532.43 415.79C528.801 414.676 525.063 413.952 521.28 413.63C521.217 413.632 521.155 413.61 521.108 413.567C521.061 413.523 521.033 413.463 521.03 413.4C521.028 413.336 521.051 413.274 521.094 413.227C521.137 413.18 521.197 413.152 521.26 413.15Z" fill="#263238"/>
<path d="M518.56 414.83C522.33 414.07 526.96 414.59 529.88 417.25C529.99 417.35 529.88 417.51 529.72 417.47C526.093 416.358 522.36 415.63 518.58 415.3C518.526 415.292 518.476 415.264 518.439 415.223C518.402 415.182 518.381 415.129 518.378 415.074C518.376 415.018 518.393 414.964 518.426 414.92C518.459 414.875 518.507 414.844 518.56 414.83Z" fill="#263238"/>
<path d="M515.85 416.51C519.62 415.75 524.25 416.27 527.17 418.93C527.29 419.03 527.17 419.19 527.02 419.15C523.389 418.045 519.652 417.324 515.87 417C515.805 417.003 515.742 416.98 515.694 416.935C515.646 416.891 515.618 416.83 515.615 416.765C515.613 416.7 515.636 416.637 515.68 416.589C515.724 416.541 515.785 416.513 515.85 416.51Z" fill="#263238"/>
<path d="M524.6 413.12H563.33C563.33 413.12 550.33 331.51 550.68 329.84C550.85 328.98 600.75 240.7 600.75 240.7H557C557 240.7 516.47 303.84 510.91 319.7C506.84 331.3 524.6 413.12 524.6 413.12Z" fill="#221661"/>
<path d="M523.66 405.6C526 405.41 528.33 405.22 530.66 405.12C532.99 405.02 535.32 404.99 537.66 404.94C542.32 404.84 546.98 404.78 551.66 404.72C552.99 404.72 554.32 404.72 555.66 404.72C557 404.72 558.34 404.86 559.66 404.72C559.76 404.72 559.76 404.87 559.66 404.87C558.49 404.87 557.32 405.12 556.16 405.2C555 405.28 553.83 405.4 552.66 405.48C550.33 405.63 548 405.74 545.66 405.84C541 406.04 536.34 406.09 531.66 406.12C528.99 406.12 526.34 405.93 523.66 405.74C523.642 405.721 523.632 405.696 523.632 405.67C523.632 405.644 523.642 405.618 523.66 405.6Z" fill="#455A64"/>
<path d="M545.42 326.56C546.181 324.145 547.297 321.857 548.73 319.77C551.656 314.93 554.58 310.09 557.5 305.25C563.427 295.437 569.383 285.64 575.37 275.86C578.37 271.02 581.37 266.2 584.3 261.37C587.05 256.91 593.3 244.98 594 243.83C594 243.74 594.19 243.78 594.14 243.83C592.14 248.03 589.51 253.28 587.05 257.66C584.34 262.47 581.44 267.18 578.63 271.93C572.86 281.7 567 291.36 561.15 301C558.203 305.887 555.247 310.77 552.28 315.65C550.86 317.99 549.39 320.32 548.02 322.65C546.613 324.916 545.872 327.532 545.88 330.2C546.035 332.99 546.335 335.771 546.78 338.53C547.15 341.32 547.51 344.1 547.89 346.89C548.643 352.463 549.427 358.027 550.24 363.58C551.867 374.76 553.563 385.927 555.33 397.08C555.55 398.47 555.78 399.85 556 401.24C556 401.37 555.82 401.42 555.8 401.29C553.8 390.13 551.86 378.97 550.17 367.76C548.48 356.55 546.94 345.31 545.45 334.07C544.975 331.59 544.965 329.043 545.42 326.56Z" fill="#455A64"/>
<path d="M685.61 436.72C683.61 437.34 626.61 436.02 624.5 434.59C623.68 434.06 623.391 425.75 623.331 415.69V415.38C623.331 413.31 608.23 378.49 608.23 378.49L645.47 379.25L660.091 415.82V416.45C660.091 416.45 681.67 426.7 683.86 428.52C686.05 430.34 687.62 436.1 685.61 436.72Z" fill="#AD6359"/>
<path d="M685.61 436.72C683.61 437.34 626.61 436.02 624.5 434.59C623.68 434.06 623.391 425.75 623.331 415.69V415.38C623.331 415.38 620.781 408.38 620.771 408.11L657.54 408.76L660.091 415.82V416.45C660.091 416.45 681.67 426.7 683.86 428.52C686.05 430.34 687.62 436.1 685.61 436.72Z" fill="#EBEBEB"/>
<path d="M685.61 436.72C683.61 437.34 626.61 436.02 624.5 434.59C623.68 434.06 623.39 425.75 623.33 415.69V415.38L660.09 415.82V416.45C660.09 416.45 681.67 426.7 683.86 428.52C686.05 430.34 687.62 436.1 685.61 436.72Z" fill="#A6A6A6"/>
<path d="M685 434.49C675.4 434.03 636.65 433.09 627.12 433.37C627.05 433.37 627.05 433.42 627.12 433.43C636.63 434.09 675.39 434.72 685 434.65C685.22 434.65 685.22 434.5 685 434.49Z" fill="#263238"/>
<path d="M664.181 416C660.421 415.21 655.781 415.68 652.831 418.31C652.721 418.41 652.83 418.57 652.99 418.53C656.627 417.452 660.368 416.765 664.151 416.48C664.214 416.484 664.277 416.462 664.325 416.42C664.372 416.378 664.402 416.319 664.406 416.255C664.41 416.191 664.388 416.129 664.346 416.081C664.304 416.033 664.244 416.004 664.181 416Z" fill="#263238"/>
<path d="M666.87 417.73C663.11 416.94 658.47 417.41 655.52 420.03C655.41 420.14 655.52 420.3 655.68 420.26C659.315 419.177 663.057 418.49 666.84 418.21C666.904 418.214 666.966 418.192 667.014 418.15C667.062 418.108 667.091 418.048 667.095 417.985C667.099 417.921 667.077 417.858 667.035 417.811C666.993 417.763 666.934 417.734 666.87 417.73Z" fill="#263238"/>
<path d="M669.56 419.44C665.8 418.64 661.16 419.12 658.21 421.74C658.1 421.84 658.21 422 658.37 421.97C662.007 420.889 665.748 420.199 669.53 419.91C669.586 419.903 669.636 419.877 669.674 419.836C669.712 419.795 669.735 419.743 669.739 419.687C669.742 419.632 669.726 419.577 669.694 419.532C669.661 419.487 669.614 419.454 669.56 419.44Z" fill="#263238"/>
<path d="M561.57 240.7C561.57 240.7 566.82 272.7 567.17 273.7C567.17 273.7 569.17 274.63 572.64 276.25L615.13 416.31L662.13 416.47L606.35 240.7H561.57Z" fill="#221661"/>
<path d="M565.47 272.72C569.55 274.424 573.474 276.479 577.2 278.86C577.224 278.881 577.24 278.91 577.245 278.941C577.251 278.972 577.246 279.004 577.23 279.032C577.215 279.06 577.191 279.082 577.162 279.094C577.133 279.107 577.1 279.109 577.07 279.1C573.07 277.18 569.07 275.33 565.23 273.19C565.167 273.158 565.12 273.103 565.099 273.037C565.077 272.97 565.083 272.898 565.115 272.835C565.147 272.773 565.202 272.726 565.268 272.704C565.335 272.683 565.407 272.688 565.47 272.72Z" fill="#455A64"/>
<path d="M567 254.4C567.64 258.23 568 262.11 568.43 265.97C568.54 266.89 568.65 267.82 568.75 268.74C568.775 269.594 569.001 270.43 569.41 271.18C570.24 272.47 571.73 273.07 573.08 273.66C573.24 273.73 573.18 273.98 573 273.92C571.549 273.567 570.209 272.859 569.1 271.86C567.87 270.56 567.91 268.59 567.72 266.91C567.175 262.768 566.874 258.597 566.82 254.42C566.817 254.396 566.824 254.372 566.839 254.353C566.854 254.335 566.876 254.323 566.9 254.32C566.924 254.317 566.948 254.324 566.966 254.339C566.985 254.354 566.997 254.376 567 254.4Z" fill="#455A64"/>
<path d="M571.63 255.57C571.77 258.33 572.07 261.09 572.3 263.84C572.42 265.19 572.51 266.55 572.6 267.91C572.69 269.27 572.84 270.71 572.8 272.1C572.794 272.118 572.783 272.133 572.767 272.144C572.752 272.155 572.734 272.16 572.715 272.16C572.697 272.16 572.678 272.155 572.663 272.144C572.648 272.133 572.636 272.118 572.63 272.1C572.4 270.79 572.37 269.43 572.26 268.1C572.15 266.77 572.05 265.31 571.98 263.92C571.82 261.13 571.74 258.33 571.49 255.55C571.493 255.531 571.503 255.515 571.518 255.503C571.533 255.492 571.552 255.487 571.57 255.49C571.589 255.493 571.606 255.503 571.617 255.518C571.628 255.533 571.633 255.551 571.63 255.57Z" fill="#455A64"/>
<path d="M577.64 282.13C580.9 290.07 615.7 403.9 616.08 404.89C616.08 404.97 615.98 405.02 615.94 404.94C611.29 395.84 581.58 293.15 578.62 285.15L577.51 282.15C577.48 282.11 577.61 282.06 577.64 282.13Z" fill="#455A64"/>
<path d="M614.78 408.43C616.14 408.24 617.55 408.25 618.92 408.15C620.29 408.05 621.68 408.03 623.06 408C625.82 407.94 628.58 407.897 631.34 407.87C636.82 407.8 642.34 407.78 647.78 407.78C650.91 407.78 654.03 407.95 657.16 408.01C657.26 408.01 657.26 408.16 657.16 408.17C654.41 408.28 651.65 408.45 648.89 408.55C646.13 408.65 643.37 408.67 640.61 408.71C635.05 408.79 629.49 408.88 623.93 408.87C622.38 408.87 620.84 408.87 619.3 408.81C617.76 408.75 616.3 408.81 614.77 408.59C614.67 408.58 614.7 408.44 614.78 408.43Z" fill="#455A64"/>
<path d="M567.441 192.5C558.091 185.86 543.991 169.71 541.201 163.34C537.621 155.15 531.311 126.87 534.151 123.57C535.721 121.75 556.15 124.45 557.29 126.73C558.43 129.01 559.01 153.91 559.29 155.8C559.57 157.69 568.931 175.56 574.151 184.07C580.311 194 573.531 196.82 567.441 192.5Z" fill="#AD6359"/>
<path d="M534.48 130.29C533.575 128.633 533.225 126.73 533.48 124.86C534.05 121.86 536.09 118.69 535.48 116.86C534.57 113.99 531.8 109.38 532.89 108.34C535.12 106.19 537.89 107.67 541.13 112.95C541.97 114.32 543.21 117.79 544.24 117.95C546.05 118.26 546.81 115.09 547.02 112.19C547.43 106.58 546.89 98.36 550.6 97.3C552 96.89 552.67 98.93 552.97 101.45C553.11 97.79 553.66 94.17 555.2 93.66C555.598 93.5428 556.026 93.5808 556.397 93.7663C556.768 93.9519 557.055 94.2713 557.2 94.66C557.276 94.2135 557.491 93.8023 557.814 93.4847C558.137 93.1671 558.552 92.959 559 92.89C560.44 92.65 561.45 93.89 562.14 95.74C562.262 95.5976 562.417 95.4862 562.591 95.4149C562.764 95.3437 562.953 95.3146 563.14 95.33C567.03 95.4 568.72 109.47 567.36 113.01C564.507 119.973 560.712 126.511 556.08 132.44C550.85 134 534.48 130.3 534.48 130.29Z" fill="#AD6359"/>
<path d="M552.45 117.79C553.597 115.437 554.205 112.858 554.23 110.24C554.23 107.17 553.4 104.17 553.09 101.12C553.09 101.04 552.95 101.06 552.96 101.12C553.18 102.6 553.25 104.12 553.41 105.61C553.57 107.1 553.77 108.53 553.83 109.99C553.947 112.654 553.462 115.31 552.41 117.76C552.41 117.76 552.44 117.82 552.45 117.79Z" fill="#263238"/>
<path d="M557.391 118.72C558.467 115.941 559.254 113.059 559.741 110.12C560.151 106.89 559.441 103.66 558.741 100.51C558.341 98.6198 557.911 96.7398 557.431 94.8698C557.431 94.7898 557.281 94.7998 557.301 94.8698C558.001 98.0798 558.611 101.32 559.111 104.58C559.597 107.599 559.484 110.684 558.781 113.66C558.371 115.35 557.781 117.02 557.301 118.66C557.341 118.73 557.381 118.75 557.391 118.72Z" fill="#263238"/>
<path d="M562.441 118.48C563.639 116.052 564.388 113.426 564.651 110.73C564.696 107.424 564.326 104.125 563.551 100.91C563.161 99.1703 562.721 97.4503 562.251 95.7303C562.251 95.6603 562.111 95.7303 562.121 95.7303C563.091 99.5794 563.809 103.488 564.271 107.43C564.523 109.306 564.479 111.209 564.141 113.07C563.723 114.903 563.148 116.697 562.421 118.43C562.421 118.43 562.431 118.49 562.441 118.48Z" fill="#263238"/>
<path d="M559.15 135L533.3 140.47C533.3 140.47 538.78 160.72 541.01 165.47C543.24 170.22 561.13 190.62 568.1 194.28C575.07 197.94 579.68 194.19 575.32 184.84C570.96 175.49 561.43 157.65 560.83 155.66C560.23 153.67 559.15 135 559.15 135Z" fill="#455A64"/>
<path d="M573.771 192.14C573.174 192.583 572.631 193.093 572.151 193.66C572.825 193.353 573.463 192.971 574.051 192.52C574.646 192.079 575.187 191.569 575.661 191C574.99 191.309 574.357 191.691 573.771 192.14ZM567.771 181.86C567.266 183.251 567.061 184.734 567.171 186.21C567.676 184.818 567.88 183.336 567.771 181.86ZM542.111 155.77C541.671 155.173 541.165 154.63 540.601 154.15C540.9 154.828 541.283 155.467 541.741 156.05C542.177 156.645 542.684 157.186 543.251 157.66C542.948 156.99 542.572 156.357 542.131 155.77H542.111ZM537.341 139.59L536.851 139.69C537.284 140.282 537.788 140.819 538.351 141.29C538.085 140.688 537.753 140.117 537.361 139.59H537.341ZM560.651 175.92C560.211 175.323 559.705 174.78 559.141 174.3C559.44 174.978 559.823 175.616 560.281 176.2C560.717 176.795 561.224 177.336 561.791 177.81C561.488 177.14 561.112 176.507 560.671 175.92H560.651ZM555.271 158.05C554.675 158.487 554.135 158.994 553.661 159.56C554.333 159.254 554.967 158.872 555.551 158.42C556.146 157.983 556.687 157.476 557.161 156.91C556.495 157.216 555.868 157.599 555.291 158.05H555.271ZM550.721 136.76L550.571 136.93L551.101 136.68L550.721 136.76ZM563.431 165C562.699 164.891 561.957 164.868 561.221 164.93C562.612 165.435 564.095 165.639 565.571 165.53C564.88 165.271 564.162 165.093 563.431 165ZM545.551 145.56C544.819 145.451 544.078 145.428 543.341 145.49C544.73 146.004 546.214 146.212 547.691 146.1C547 145.838 546.282 145.657 545.551 145.56ZM548.551 165.25C548.046 166.641 547.841 168.124 547.951 169.6C548.456 168.208 548.66 166.726 548.551 165.25ZM558.641 142.32C558.127 143.712 557.919 145.199 558.031 146.68C558.531 145.284 558.739 143.8 558.641 142.32Z" fill="white"/>
<path d="M558.06 142.22C554.41 143.22 539.32 146.56 536.06 147.07C535.83 147.07 535.76 146.97 535.99 146.91C543.232 144.892 550.58 143.276 558 142.07C558.01 142.066 558.02 142.064 558.031 142.064C558.042 142.065 558.052 142.067 558.062 142.071C558.072 142.075 558.08 142.081 558.088 142.089C558.095 142.096 558.101 142.105 558.105 142.115C558.109 142.125 558.111 142.136 558.111 142.146C558.111 142.157 558.109 142.167 558.104 142.177C558.1 142.187 558.094 142.196 558.087 142.203C558.079 142.21 558.07 142.216 558.06 142.22Z" fill="#263238"/>
<path d="M568.101 194.21C563.101 191.59 552.531 180.37 546.101 172.48L571.251 176.48C572.801 179.54 574.251 182.48 575.331 184.81C579.681 194.12 575.081 197.88 568.101 194.21Z" fill="#263238"/>
<path d="M609.16 245.12C609.16 245.12 548.77 253.46 548.64 253.35C547.75 252.64 550.88 188.08 553.28 182.54C555.85 176.6 563.85 173.54 568.35 176.02C579.64 182.33 593.96 208.1 597.35 216.1C603 229.27 608.78 241.52 609.16 245.12Z" fill="#455A64"/>
<path d="M560.67 175.92C560.52 175.966 560.373 176.023 560.23 176.09L560.32 176.22C560.757 176.815 561.264 177.356 561.83 177.83C561.516 177.152 561.127 176.511 560.67 175.92ZM559.23 239.42C558.717 240.813 558.509 242.3 558.62 243.78C559.121 242.384 559.329 240.9 559.23 239.42ZM580.23 199.06C579.717 200.453 579.509 201.94 579.62 203.42C580.121 202.024 580.329 200.54 580.23 199.06ZM567.83 181.86C567.325 183.251 567.121 184.734 567.23 186.21C567.735 184.819 567.94 183.336 567.83 181.86ZM583.71 248.45C583.683 248.512 583.659 248.575 583.64 248.64H583.72C583.709 248.575 583.693 248.512 583.67 248.45H583.71ZM570.1 222C569.595 223.391 569.391 224.874 569.5 226.35C570.005 224.959 570.21 223.476 570.1 222ZM554.1 204C553.596 205.395 553.392 206.881 553.5 208.36C554.005 206.965 554.209 205.479 554.1 204ZM594.92 225.72C594.652 226.412 594.471 227.134 594.38 227.87C594.272 228.601 594.248 229.343 594.31 230.08C594.57 229.386 594.748 228.665 594.84 227.93C594.961 227.196 594.992 226.451 594.93 225.71L594.92 225.72ZM584.39 193.32C584.131 193.305 583.87 193.305 583.61 193.32C583.936 193.448 584.27 193.555 584.61 193.64L584.39 193.32ZM567.1 202.32C566.369 202.211 565.627 202.188 564.89 202.25C566.279 202.765 567.763 202.973 569.24 202.86C568.555 202.589 567.84 202.397 567.11 202.29L567.1 202.32ZM585.05 221.32C584.319 221.211 583.577 221.188 582.84 221.25C584.232 221.755 585.714 221.959 587.19 221.85C586.505 221.578 585.79 221.387 585.06 221.28L585.05 221.32ZM551.22 217.88C550.763 217.818 550.302 217.781 549.84 217.77C549.84 217.87 549.84 217.97 549.84 218.07C550.282 218.184 550.729 218.274 551.18 218.34C551.912 218.448 552.654 218.472 553.39 218.41C552.695 218.136 551.97 217.944 551.23 217.84L551.22 217.88ZM588 242.38C587.269 242.271 586.527 242.248 585.79 242.31C587.185 242.814 588.671 243.019 590.15 242.91C589.456 242.653 588.735 242.475 588 242.38ZM569.28 236.46C568.549 236.351 567.807 236.328 567.07 236.39C568.465 236.894 569.951 237.099 571.43 236.99C570.739 236.733 570.021 236.555 569.29 236.46H569.28ZM550.56 234.66C550.033 234.593 549.502 234.556 548.97 234.55C548.966 234.633 548.966 234.717 548.97 234.8C549.473 234.941 549.984 235.048 550.5 235.12C551.231 235.233 551.974 235.257 552.71 235.19C552.02 234.931 551.302 234.754 550.57 234.66H550.56ZM573.76 192.14C573.164 192.583 572.62 193.093 572.14 193.66C572.815 193.353 573.452 192.971 574.04 192.52C574.636 192.08 575.177 191.569 575.65 191C574.984 191.31 574.353 191.692 573.77 192.14H573.76ZM594.82 216.22C594.225 216.657 593.684 217.164 593.21 217.73C593.883 217.425 594.517 217.042 595.1 216.59C595.696 216.153 596.236 215.646 596.71 215.08C596.042 215.386 595.411 215.768 594.83 216.22H594.82ZM576.31 213.12C575.715 213.557 575.174 214.064 574.7 214.63C575.373 214.325 576.007 213.942 576.59 213.49C577.186 213.053 577.726 212.546 578.2 211.98C577.532 212.286 576.901 212.668 576.32 213.12H576.31ZM600.74 240.7C600.143 241.134 599.602 241.641 599.13 242.21C600.472 241.58 601.667 240.677 602.64 239.56C601.965 239.86 601.33 240.243 600.75 240.7H600.74ZM573.74 245.14C573.143 245.574 572.602 246.081 572.13 246.65C573.472 246.02 574.667 245.117 575.64 244C574.969 244.3 574.337 244.683 573.76 245.14H573.74ZM558.21 226.38C557.613 226.814 557.072 227.321 556.6 227.89C557.942 227.26 559.137 226.357 560.11 225.24C559.439 225.54 558.807 225.923 558.23 226.38H558.21ZM577.21 183.9C577.139 183.799 577.063 183.702 576.98 183.61C576.714 183.297 576.444 182.997 576.17 182.71C576.037 182.579 575.897 182.455 575.75 182.34C576.053 183.016 576.436 183.654 576.89 184.24C577.327 184.835 577.834 185.376 578.4 185.85C578.084 185.154 577.684 184.5 577.21 183.9ZM588.53 207.05C588.091 206.454 587.585 205.91 587.02 205.43C587.323 206.106 587.706 206.744 588.16 207.33C588.597 207.925 589.104 208.466 589.67 208.94C589.365 208.268 588.983 207.633 588.53 207.05ZM604.37 232.13C604.046 231.736 603.685 231.374 603.29 231.05C603.589 231.728 603.972 232.367 604.43 232.95C604.63 233.2 604.81 233.44 605.03 233.68L604.37 232.13ZM565.37 250C565.527 250.368 565.714 250.723 565.93 251.06L566.37 251C566.058 250.633 565.709 250.298 565.33 250H565.37ZM550.83 248.32C550.391 247.724 549.885 247.18 549.32 246.7C549.62 247.378 550.003 248.017 550.46 248.6C550.897 249.195 551.404 249.736 551.97 250.21C551.649 249.538 551.253 248.904 550.79 248.32H550.83ZM582.27 232.66C581.831 232.064 581.325 231.52 580.76 231.04C581.06 231.718 581.443 232.357 581.9 232.94C582.337 233.535 582.844 234.076 583.41 234.55C583.089 233.878 582.693 233.244 582.23 232.66H582.27ZM560.16 192.66C559.721 192.064 559.215 191.52 558.65 191.04C558.95 191.718 559.332 192.357 559.79 192.94C560.227 193.535 560.734 194.076 561.3 194.55C560.981 193.868 560.585 193.223 560.12 192.63L560.16 192.66ZM563.73 212.54C563.291 211.944 562.784 211.4 562.22 210.92C562.519 211.598 562.902 212.237 563.36 212.82C563.797 213.415 564.304 213.956 564.87 214.43C564.551 213.747 564.155 213.103 563.69 212.51L563.73 212.54Z" fill="white"/>
<path d="M556.091 185.5C558.921 185.97 566.211 180.38 567.491 175.87C567.571 175.56 566.491 172.75 565.331 169.28C564.641 167.17 563.921 164.81 563.411 162.6L550.351 169.12C551.767 171.697 552.865 174.437 553.621 177.28C553.686 177.586 553.722 177.897 553.731 178.21C553.726 178.26 553.726 178.31 553.731 178.36C553.861 180.14 552.831 185 556.091 185.5Z" fill="#AD6359"/>
<path d="M562.75 162.93C562.95 166.03 563.01 176.14 555.19 178.11C554.715 178.238 554.23 178.325 553.74 178.37C553.736 178.316 553.736 178.263 553.74 178.21C553.727 177.897 553.69 177.587 553.63 177.28C552.88 174.436 551.782 171.695 550.36 169.12L562.75 162.93Z" fill="#263238"/>
<path d="M550.381 140.16C550.381 140.16 545.381 141.02 543.381 145.5C541.381 149.98 541.381 155.13 541.751 155.5C542.121 155.87 550.381 140.16 550.381 140.16Z" fill="#263238"/>
<path d="M567.381 150.07C567.761 155.32 561.921 168.89 557.711 171.25C551.611 174.67 543.231 173.25 540.711 166.25C538.291 159.5 546.211 141.95 550.711 139.97C557.491 137.05 566.831 142.32 567.381 150.07Z" fill="#AD6359"/>
<path d="M550.901 156.08C550.901 156.08 550.951 156.15 550.901 156.19C550.471 157.09 550.121 158.19 550.811 158.85C550.811 158.85 550.811 158.92 550.811 158.9C549.871 158.31 550.341 156.86 550.901 156.08Z" fill="#263238"/>
<path d="M552.131 155.49C553.641 156.03 552.451 159.02 551.051 158.49C549.651 157.96 550.861 155 552.131 155.49Z" fill="#263238"/>
<path d="M545.79 153.84C545.79 153.84 545.7 153.84 545.69 153.84C545.35 154.77 544.8 155.84 543.84 155.76V155.82C544.91 156.13 545.62 154.78 545.79 153.84Z" fill="#263238"/>
<path d="M545.351 152.54C543.911 151.83 542.601 154.77 543.941 155.42C545.281 156.07 546.561 153.13 545.351 152.54Z" fill="#263238"/>
<path d="M554.561 153.13C554.121 153.04 553.721 152.89 553.291 152.76C552.826 152.695 552.397 152.477 552.071 152.14C551.99 152.016 551.952 151.868 551.963 151.72C551.974 151.572 552.033 151.431 552.131 151.32C552.361 151.126 552.64 150.998 552.938 150.95C553.236 150.903 553.541 150.937 553.821 151.05C554.423 151.184 554.951 151.542 555.301 152.05C555.367 152.169 555.4 152.304 555.393 152.44C555.387 152.576 555.343 152.708 555.266 152.82C555.189 152.932 555.083 153.021 554.958 153.076C554.833 153.131 554.696 153.149 554.561 153.13Z" fill="#263238"/>
<path d="M544.3 150.91C544.618 151.202 544.952 151.475 545.3 151.73C545.624 152.068 546.048 152.293 546.51 152.37C546.661 152.367 546.806 152.312 546.922 152.216C547.038 152.12 547.119 151.987 547.15 151.84C547.174 151.54 547.116 151.239 546.982 150.97C546.848 150.7 546.644 150.472 546.39 150.31C545.938 149.894 545.345 149.666 544.73 149.67C544.592 149.682 544.461 149.735 544.352 149.82C544.243 149.905 544.16 150.02 544.115 150.151C544.07 150.282 544.063 150.423 544.096 150.558C544.129 150.692 544.2 150.815 544.3 150.91Z" fill="#263238"/>
<path d="M549.12 164.25C548.825 164.442 548.47 164.524 548.12 164.48C547.778 164.338 547.471 164.123 547.22 163.85C547.22 163.85 547.16 163.85 547.16 163.85C547.218 164.092 547.342 164.314 547.519 164.491C547.695 164.668 547.917 164.792 548.16 164.85C548.368 164.872 548.577 164.834 548.764 164.74C548.95 164.646 549.105 164.5 549.21 164.32C549.214 164.308 549.215 164.295 549.211 164.283C549.208 164.27 549.201 164.26 549.191 164.252C549.181 164.244 549.168 164.24 549.156 164.239C549.143 164.239 549.131 164.243 549.12 164.25Z" fill="#263238"/>
<path d="M549.25 161.1C548.869 161.371 548.436 161.56 547.978 161.656C547.521 161.753 547.048 161.754 546.59 161.66C546.191 161.576 545.805 161.442 545.44 161.26C545.368 161.224 545.298 161.184 545.23 161.14L545 161C544.956 160.97 544.922 160.927 544.904 160.876C544.886 160.826 544.885 160.771 544.9 160.72V160.63V160.55C545.16 159.83 545.66 158.77 545.66 158.77C545.35 158.77 543.79 158.87 543.96 158.5C545.318 155.339 546.994 152.323 548.96 149.5C548.972 149.479 548.992 149.463 549.015 149.457C549.039 149.45 549.064 149.453 549.085 149.465C549.106 149.477 549.122 149.497 549.129 149.52C549.135 149.544 549.132 149.569 549.12 149.59C547.87 152.53 546.12 155.23 544.82 158.17C545.381 158.132 545.944 158.179 546.49 158.31C546.58 158.38 545.49 160.31 545.39 160.66C545.949 160.952 546.562 161.128 547.191 161.178C547.819 161.228 548.452 161.15 549.05 160.95C549.29 161 549.34 161.05 549.25 161.1Z" fill="#263238"/>
<path d="M546 161.06C546.177 161.722 546.521 162.328 547 162.82C547.278 163.073 547.627 163.237 548 163.29C548.81 163.39 549.1 162.72 549.2 162.09C549.239 161.757 549.239 161.422 549.2 161.09C548.157 161.418 547.037 161.408 546 161.06Z" fill="#263238"/>
<path d="M547 162.82C547.278 163.074 547.627 163.237 548 163.29C548.81 163.39 549.1 162.72 549.2 162.09C548.805 161.946 548.372 161.94 547.973 162.073C547.574 162.205 547.231 162.468 547 162.82Z" fill="#FF9CBD"/>
<path d="M562.781 162.22C561.121 162.1 561.141 156.95 561.321 155.04C561.491 153.36 562.861 148.35 562.921 148.04C562.981 147.73 554.771 149.78 551.441 147.22C548.111 144.66 546.911 140.33 547.441 138.73C547.971 137.13 554.211 134.96 558.331 136.32C562.451 137.68 565.911 144.92 565.911 144.92C565.543 143.914 565.256 142.881 565.051 141.83C565.698 142.263 566.228 142.85 566.595 143.537C566.961 144.224 567.152 144.991 567.151 145.77C567.151 145.77 567.541 143.24 567.751 143.27C567.961 143.3 569.221 146.09 568.171 147.42C568.171 147.42 569.731 150.36 569.081 152.67C568.431 154.98 564.741 162.36 562.781 162.22Z" fill="#263238"/>
<path d="M549.07 145.36C549.952 146.391 550.983 147.285 552.13 148.01C553.466 148.664 554.943 148.98 556.43 148.93C557.916 148.926 559.391 148.683 560.8 148.21C562.03 147.8 563.23 147.21 564.5 146.89C564.82 146.81 564.97 147.29 564.72 147.46C562.131 149.165 559.065 149.995 555.97 149.83C554.531 149.753 553.136 149.303 551.923 148.525C550.71 147.746 549.72 146.666 549.05 145.39C549.05 145.39 549.06 145.35 549.07 145.36Z" fill="#263238"/>
<path d="M561.72 161.1C561.72 161.1 566.05 157.33 567.83 158.99C569.61 160.65 565.56 166.65 562.91 166.99C562.57 167.054 562.221 167.048 561.884 166.973C561.546 166.898 561.227 166.755 560.947 166.553C560.666 166.351 560.429 166.094 560.251 165.798C560.073 165.502 559.957 165.172 559.91 164.83L561.72 161.1Z" fill="#AD6359"/>
<path d="M566.63 160.68V160.75C564.76 161.01 563.47 162.37 562.43 163.85C562.571 163.704 562.743 163.591 562.932 163.518C563.122 163.445 563.325 163.414 563.527 163.427C563.73 163.44 563.927 163.498 564.106 163.595C564.284 163.692 564.439 163.827 564.56 163.99C564.56 163.99 564.56 164.09 564.49 164.07C564.216 163.898 563.895 163.817 563.572 163.836C563.249 163.856 562.941 163.976 562.69 164.18C562.266 164.517 561.883 164.903 561.55 165.33C561.43 165.46 561.18 165.33 561.28 165.15C561.79 162.93 564.24 160.32 566.63 160.68Z" fill="#263238"/>
<path d="M556.36 196.58C544.26 194.22 520.72 183.8 517.05 181.1C509.36 175.43 493.72 147.67 495.05 143.23C495.79 140.78 516.81 139.99 518.96 141.69C521.11 143.39 530.4 164.19 531.54 165.88C532.68 167.57 556.42 183.59 561.63 188.15C571.06 196.41 564.23 198.12 556.36 196.58Z" fill="#AD6359"/>
<path d="M517.52 149.33C517.52 149.33 521.96 141.4 524.62 136.07C526.1 133.07 528.19 127.78 528.28 125.07C528.42 121.07 526.43 104.2 522.33 104.59C518.62 104.95 522.17 119.22 522.17 119.22C522.17 119.22 519.86 104.5 515.47 105.75C511.08 107 517.24 122.59 517.24 122.59C517.24 122.59 514.53 107.53 510.24 109.53C506.97 111.05 511.75 125.53 511.75 125.53C511.75 125.53 509.33 112.6 505.9 114.01C502.12 115.58 505.69 129.18 505.69 129.18C497.59 134.24 494.34 137.79 495.02 144.18C495.1 145.2 517.52 149.33 517.52 149.33Z" fill="#AD6359"/>
<path d="M523.69 125.52C523.48 123.78 523.28 122.02 522.92 120.31C522.56 118.6 522.14 116.89 521.62 115.22C520.989 113.021 520.11 110.901 519 108.9C520.516 112.625 521.684 116.481 522.49 120.42C522.85 122.13 523.29 123.83 523.66 125.54C523.64 125.58 523.7 125.56 523.69 125.52Z" fill="#263238"/>
<path d="M517.53 126.94C517.17 124.73 516.89 122.53 516.43 120.34C515.97 118.15 515.22 115.12 514.62 112.97C514.62 112.81 514.31 112.8 514.35 112.97C514.87 115.14 515.49 118.27 515.99 120.44C516.49 122.61 517.06 124.77 517.48 126.95C517.48 127 517.53 127 517.53 126.94Z" fill="#263238"/>
<path d="M512.46 129.11C511.988 125.701 511.164 122.35 510 119.11C509.95 118.95 509.86 119.11 509.91 119.23C510.79 122.53 511.5 125.11 512.34 129.1C512.35 129.19 512.46 129.18 512.46 129.11Z" fill="#263238"/>
<path d="M497.49 153.16L524.94 150.34C524.94 150.34 530.65 163.56 531.79 165.14C532.93 166.72 558.66 183.68 563.79 187.94C568.92 192.2 568.03 200.11 556.99 197.94C547.46 196.07 521.69 185.39 516.83 182.13C511.97 178.87 497.49 153.16 497.49 153.16Z" fill="#455A64"/>
<path d="M560.12 192.63C559.681 192.034 559.174 191.49 558.61 191.01C558.909 191.689 559.292 192.327 559.75 192.91C560.187 193.506 560.694 194.046 561.26 194.52C560.951 193.85 560.568 193.216 560.12 192.63ZM549.12 192.15C548.524 192.587 547.984 193.094 547.51 193.66C548.182 193.355 548.816 192.972 549.4 192.52C549.992 192.08 550.53 191.569 551 191C550.334 191.31 549.707 191.696 549.13 192.15H549.12ZM550.3 181.29C549.568 181.182 548.827 181.158 548.09 181.22C549.479 181.735 550.963 181.943 552.44 181.83C551.753 181.569 551.038 181.388 550.31 181.29H550.3ZM540.5 186.29C539.996 187.685 539.791 189.171 539.9 190.65C540.404 189.255 540.609 187.77 540.5 186.29ZM506.14 156.7C505.701 156.104 505.194 155.56 504.63 155.08C504.929 155.759 505.312 156.397 505.77 156.98C506.207 157.576 506.714 158.116 507.28 158.59C506.971 157.92 506.588 157.286 506.14 156.7ZM534.55 170.51C534.111 169.914 533.604 169.37 533.04 168.89C533.343 169.567 533.726 170.205 534.18 170.79C534.617 171.386 535.124 171.926 535.69 172.4C535.385 171.728 535.002 171.094 534.55 170.51ZM522.34 174C521.745 174.437 521.204 174.944 520.73 175.51C521.402 175.205 522.036 174.822 522.62 174.37C523.215 173.934 523.756 173.427 524.23 172.86C523.558 173.166 522.923 173.548 522.34 174ZM540.85 177.1C540.254 177.537 539.714 178.044 539.24 178.61C539.912 178.305 540.546 177.922 541.13 177.47C541.725 177.034 542.266 176.527 542.74 175.96C542.067 176.269 541.433 176.655 540.85 177.11V177.1ZM519.79 153C519.193 153.443 518.65 153.953 518.17 154.52C518.844 154.214 519.482 153.831 520.07 153.38C520.665 152.94 521.206 152.43 521.68 151.86C521.01 152.169 520.376 152.552 519.79 153ZM529.68 182.47C528.948 182.362 528.207 182.338 527.47 182.4C528.861 182.905 530.344 183.11 531.82 183C531.128 182.752 530.41 182.584 529.68 182.5V182.47ZM513.88 165.21C513.148 165.102 512.407 165.078 511.67 165.14C513.059 165.655 514.543 165.863 516.02 165.75C515.328 165.499 514.61 165.328 513.88 165.24V165.21ZM519.27 181.83C519.091 182.297 518.953 182.779 518.86 183.27L519.26 183.48C519.316 182.942 519.32 182.399 519.27 181.86V181.83ZM526.21 160C525.696 161.393 525.488 162.88 525.6 164.36C526.101 162.964 526.308 161.48 526.21 160Z" fill="white"/>
<path d="M503.2 159.63C506.97 159.34 522.34 157.63 525.63 157.02C525.86 157.02 525.89 156.83 525.63 156.84C518.104 157.305 510.609 158.186 503.18 159.48C503.165 159.488 503.153 159.5 503.145 159.514C503.137 159.529 503.134 159.546 503.136 159.562C503.139 159.579 503.146 159.594 503.157 159.606C503.169 159.619 503.184 159.627 503.2 159.63Z" fill="#263238"/>
<path d="M562.171 200.52C559.898 199.746 557.689 198.8 555.561 197.69C553.417 196.622 551.342 195.42 549.351 194.09C551.587 194.935 553.774 195.907 555.901 197C556.961 197.55 558.021 198.1 559.061 198.68C560.101 199.26 561.141 199.9 562.171 200.52Z" fill="#263238"/>
<path d="M555.5 197.24C554.731 197.186 553.972 197.039 553.24 196.8C552.502 196.576 551.793 196.264 551.13 195.87C551.899 195.927 552.658 196.078 553.39 196.32C554.127 196.543 554.835 196.852 555.5 197.24Z" fill="#263238"/>
<path d="M563.79 187.94C562.709 187.335 561.703 186.607 560.79 185.77C559.866 184.963 559.04 184.05 558.33 183.05C559.411 183.655 560.417 184.383 561.33 185.22C562.254 186.027 563.08 186.94 563.79 187.94Z" fill="#263238"/>
</svg>
