<svg width="25" height="24" viewBox="0 0 25 24" fill="none" xmlns="http://www.w3.org/2000/svg">
<path d="M0.695496 12C0.695496 18.6274 6.06808 24 12.6955 24C19.3229 24 24.6955 18.6274 24.6955 12C24.6955 5.37258 19.3229 0 12.6955 0C6.06808 0 0.695496 5.37258 0.695496 12Z" fill="#F00073"/>
<path d="M12.6955 6.8999C14.3455 6.8999 14.5705 6.8999 15.2455 6.8999C15.8455 6.8999 16.1455 7.0499 16.3705 7.1249C16.6705 7.2749 16.8955 7.3499 17.1205 7.5749C17.3455 7.7999 17.4955 8.0249 17.5705 8.3249C17.6455 8.5499 17.7205 8.8499 17.7955 9.4499C17.7955 10.1249 17.7955 10.2749 17.7955 11.9999C17.7955 13.7249 17.7955 13.8749 17.7955 14.5499C17.7955 15.1499 17.6455 15.4499 17.5705 15.6749C17.4205 15.9749 17.3455 16.1999 17.1205 16.4249C16.8955 16.6499 16.6705 16.7999 16.3705 16.8749C16.1455 16.9499 15.8455 17.0249 15.2455 17.0999C14.5705 17.0999 14.4205 17.0999 12.6955 17.0999C10.9705 17.0999 10.8205 17.0999 10.1455 17.0999C9.54549 17.0999 9.24549 16.9499 9.02049 16.8749C8.72049 16.7249 8.49549 16.6499 8.27049 16.4249C8.04549 16.1999 7.89549 15.9749 7.82049 15.6749C7.74549 15.4499 7.67049 15.1499 7.59549 14.5499C7.59549 13.8749 7.59549 13.7249 7.59549 11.9999C7.59549 10.2749 7.59549 10.1249 7.59549 9.4499C7.59549 8.8499 7.74549 8.5499 7.82049 8.3249C7.97049 8.0249 8.04549 7.7999 8.27049 7.5749C8.49549 7.3499 8.72049 7.1999 9.02049 7.1249C9.24549 7.0499 9.54549 6.9749 10.1455 6.8999C10.8205 6.8999 11.0455 6.8999 12.6955 6.8999ZM12.6955 5.7749C10.9705 5.7749 10.8205 5.7749 10.1455 5.7749C9.47049 5.7749 9.02049 5.9249 8.64549 6.0749C8.27049 6.2249 7.89549 6.4499 7.52049 6.8249C7.14549 7.1999 6.99549 7.4999 6.77049 7.9499C6.62049 8.3249 6.54549 8.7749 6.47049 9.4499C6.47049 10.1249 6.47049 10.3499 6.47049 11.9999C6.47049 13.7249 6.47049 13.8749 6.47049 14.5499C6.47049 15.2249 6.62049 15.6749 6.77049 16.0499C6.92049 16.4249 7.14549 16.7999 7.52049 17.1749C7.89549 17.5499 8.19549 17.6999 8.64549 17.9249C9.02049 18.0749 9.47049 18.1499 10.1455 18.2249C10.8205 18.2249 11.0455 18.2249 12.6955 18.2249C14.3455 18.2249 14.5705 18.2249 15.2455 18.2249C15.9205 18.2249 16.3705 18.0749 16.7455 17.9249C17.1205 17.7749 17.4955 17.5499 17.8705 17.1749C18.2455 16.7999 18.3955 16.4999 18.6205 16.0499C18.7705 15.6749 18.8455 15.2249 18.9205 14.5499C18.9205 13.8749 18.9205 13.6499 18.9205 11.9999C18.9205 10.3499 18.9205 10.1249 18.9205 9.4499C18.9205 8.7749 18.7705 8.3249 18.6205 7.9499C18.4705 7.5749 18.2455 7.1999 17.8705 6.8249C17.4955 6.4499 17.1955 6.2999 16.7455 6.0749C16.3705 5.9249 15.9205 5.8499 15.2455 5.7749C14.5705 5.7749 14.4205 5.7749 12.6955 5.7749Z" fill="white"/>
<path d="M12.6955 8.7749C10.8955 8.7749 9.47049 10.1999 9.47049 11.9999C9.47049 13.7999 10.8955 15.2249 12.6955 15.2249C14.4955 15.2249 15.9205 13.7999 15.9205 11.9999C15.9205 10.1999 14.4955 8.7749 12.6955 8.7749ZM12.6955 14.0999C11.5705 14.0999 10.5955 13.1999 10.5955 11.9999C10.5955 10.8749 11.4955 9.8999 12.6955 9.8999C13.8205 9.8999 14.7955 10.7999 14.7955 11.9999C14.7955 13.1249 13.8205 14.0999 12.6955 14.0999Z" fill="white"/>
<path d="M15.9955 9.4499C16.4097 9.4499 16.7455 9.11412 16.7455 8.6999C16.7455 8.28569 16.4097 7.9499 15.9955 7.9499C15.5813 7.9499 15.2455 8.28569 15.2455 8.6999C15.2455 9.11412 15.5813 9.4499 15.9955 9.4499Z" fill="white"/>
</svg>
