<svg width="25" height="24" viewBox="0 0 25 24" fill="none" xmlns="http://www.w3.org/2000/svg">
<path d="M0.695503 12C0.695503 18.6274 6.06809 24 12.6955 24C19.3229 24 24.6955 18.6274 24.6955 12C24.6955 5.37258 19.3229 0 12.6955 0C6.06809 0 0.695503 5.37258 0.695503 12Z" fill="#2867B2"/>
<path d="M9.3955 18H6.84549V9.975H9.3955V18ZM8.1205 8.85C7.2955 8.85 6.6955 8.25 6.6955 7.425C6.6955 6.6 7.3705 6 8.1205 6C8.9455 6 9.5455 6.6 9.5455 7.425C9.5455 8.25 8.9455 8.85 8.1205 8.85ZM18.6955 18H16.1455V13.65C16.1455 12.375 15.6205 12 14.8705 12C14.1205 12 13.3705 12.6 13.3705 13.725V18H10.8205V9.975H13.2205V11.1C13.4455 10.575 14.3455 9.75 15.6205 9.75C17.0455 9.75 18.5455 10.575 18.5455 13.05V18H18.6955Z" fill="white"/>
</svg>
