<svg width="163" height="37" viewBox="0 0 163 37" fill="none" xmlns="http://www.w3.org/2000/svg">
<path d="M30.2808 1.04785H4.26762C1.91068 1.04785 0 2.96164 0 5.32243V31.1063C0 33.4671 1.91068 35.3809 4.26762 35.3809H30.2808C32.6377 35.3809 34.5484 33.4671 34.5484 31.1063V5.32243C34.5484 2.96164 32.6377 1.04785 30.2808 1.04785Z" fill="#36E192"/>
<ellipse cx="22.4878" cy="25.8636" rx="5.17236" ry="5.37925" fill="white"/>
<path d="M66.7293 27L65.4693 23.22H57.0993L55.8393 27H51.3693L58.7193 6H63.8493L71.2293 27H66.7293ZM58.4193 19.35H64.1793L61.2993 10.77L58.4193 19.35ZM85.0682 12H88.8482V26.28C88.8482 28.6 88.0782 30.37 86.5382 31.59C85.0182 32.81 83.1782 33.42 81.0182 33.42C79.3982 33.42 77.9682 33.11 76.7282 32.49C75.5082 31.87 74.5682 30.96 73.9082 29.76L77.2082 27.87C77.9682 29.27 79.2782 29.97 81.1382 29.97C82.3582 29.97 83.3182 29.65 84.0182 29.01C84.7182 28.37 85.0682 27.46 85.0682 26.28V24.66C83.9282 26.18 82.3282 26.94 80.2682 26.94C78.1482 26.94 76.3682 26.2 74.9282 24.72C73.5082 23.22 72.7982 21.4 72.7982 19.26C72.7982 17.14 73.5182 15.33 74.9582 13.83C76.3982 12.33 78.1682 11.58 80.2682 11.58C82.3282 11.58 83.9282 12.34 85.0682 13.86V12ZM77.8382 22.23C78.6382 22.99 79.6482 23.37 80.8682 23.37C82.0882 23.37 83.0882 22.99 83.8682 22.23C84.6682 21.45 85.0682 20.46 85.0682 19.26C85.0682 18.08 84.6682 17.11 83.8682 16.35C83.0882 15.57 82.0882 15.18 80.8682 15.18C79.6482 15.18 78.6382 15.57 77.8382 16.35C77.0582 17.11 76.6682 18.08 76.6682 19.26C76.6682 20.46 77.0582 21.45 77.8382 22.23ZM96.5275 21.09C97.0475 22.97 98.4575 23.91 100.757 23.91C102.237 23.91 103.357 23.41 104.118 22.41L107.238 24.21C105.758 26.35 103.578 27.42 100.697 27.42C98.2175 27.42 96.2275 26.67 94.7275 25.17C93.2275 23.67 92.4775 21.78 92.4775 19.5C92.4775 17.24 93.2175 15.36 94.6975 13.86C96.1775 12.34 98.0775 11.58 100.397 11.58C102.597 11.58 104.407 12.34 105.827 13.86C107.267 15.38 107.987 17.26 107.987 19.5C107.987 20 107.937 20.53 107.837 21.09H96.5275ZM96.4675 18.09H104.118C103.898 17.07 103.438 16.31 102.738 15.81C102.057 15.31 101.277 15.06 100.397 15.06C99.3575 15.06 98.4975 15.33 97.8175 15.87C97.1375 16.39 96.6875 17.13 96.4675 18.09ZM119.929 11.58C121.569 11.58 122.919 12.13 123.979 13.23C125.059 14.33 125.599 15.85 125.599 17.79V27H121.729V18.27C121.729 17.27 121.459 16.51 120.919 15.99C120.379 15.45 119.659 15.18 118.759 15.18C117.759 15.18 116.959 15.49 116.359 16.11C115.759 16.73 115.459 17.66 115.459 18.9V27H111.589V12H115.459V13.68C116.399 12.28 117.889 11.58 119.929 11.58ZM136.944 27.42C134.684 27.42 132.794 26.66 131.274 25.14C129.774 23.62 129.024 21.74 129.024 19.5C129.024 17.26 129.774 15.38 131.274 13.86C132.794 12.34 134.684 11.58 136.944 11.58C138.404 11.58 139.734 11.93 140.934 12.63C142.134 13.33 143.044 14.27 143.664 15.45L140.334 17.4C140.034 16.78 139.574 16.29 138.954 15.93C138.354 15.57 137.674 15.39 136.914 15.39C135.754 15.39 134.794 15.78 134.034 16.56C133.274 17.32 132.894 18.3 132.894 19.5C132.894 20.68 133.274 21.66 134.034 22.44C134.794 23.2 135.754 23.58 136.914 23.58C137.694 23.58 138.384 23.41 138.984 23.07C139.604 22.71 140.064 22.22 140.364 21.6L143.724 23.52C143.064 24.7 142.134 25.65 140.934 26.37C139.734 27.07 138.404 27.42 136.944 27.42ZM149.706 21.09C150.226 22.97 151.636 23.91 153.936 23.91C155.416 23.91 156.536 23.41 157.296 22.41L160.416 24.21C158.936 26.35 156.756 27.42 153.876 27.42C151.396 27.42 149.406 26.67 147.906 25.17C146.406 23.67 145.656 21.78 145.656 19.5C145.656 17.24 146.396 15.36 147.876 13.86C149.356 12.34 151.256 11.58 153.576 11.58C155.776 11.58 157.586 12.34 159.006 13.86C160.446 15.38 161.166 17.26 161.166 19.5C161.166 20 161.116 20.53 161.016 21.09H149.706ZM149.646 18.09H157.296C157.076 17.07 156.616 16.31 155.916 15.81C155.236 15.31 154.456 15.06 153.576 15.06C152.536 15.06 151.676 15.33 150.996 15.87C150.316 16.39 149.866 17.13 149.646 18.09Z" fill="#221661"/>
</svg>
