<svg width="397" height="282" viewBox="0 0 397 282" fill="none" xmlns="http://www.w3.org/2000/svg">
<g clip-path="url(#clip0_101_450)">
<path d="M-18 368L87.1045 -87H506V368H-18Z" fill="#36E192"/>
<path d="M358.724 240.243H333.42V240.435H358.724V240.243Z" fill="#EBEBEB"/>
<path d="M268.052 242.327H261.413V242.519H268.052V242.327Z" fill="#EBEBEB"/>
<path d="M332.656 233.135H317.995V233.326H332.656V233.135Z" fill="#EBEBEB"/>
<path d="M88.0763 234.422H55.0791V234.613H88.0763V234.422Z" fill="#EBEBEB"/>
<path d="M99.7199 234.422H94.8838V234.613H99.7199V234.422Z" fill="#EBEBEB"/>
<path d="M187.015 237.654H115.443V237.846H187.015V237.654Z" fill="#EBEBEB"/>
<path d="M196.068 193.755H48.5548C47.3978 193.755 46.2882 193.294 45.4701 192.474C44.652 191.653 44.1924 190.541 44.1924 189.381V-18.5346C44.2025 -19.6879 44.6665 -20.7906 45.4835 -21.6026C46.3006 -22.4146 47.4044 -22.8702 48.5548 -22.8701H196.068C197.225 -22.8701 198.335 -22.4093 199.153 -21.589C199.971 -20.7688 200.43 -19.6563 200.43 -18.4963V189.381C200.43 190.541 199.971 191.653 199.153 192.474C198.335 193.294 197.225 193.755 196.068 193.755ZM48.5548 -22.7169C47.4491 -22.7149 46.3893 -22.2736 45.6074 -21.4897C44.8255 -20.7058 44.3854 -19.6432 44.3834 -18.5346V189.381C44.3854 190.489 44.8255 191.552 45.6074 192.336C46.3893 193.12 47.4491 193.561 48.5548 193.563H196.068C197.174 193.561 198.234 193.12 199.015 192.336C199.797 191.552 200.237 190.489 200.239 189.381V-18.5346C200.237 -19.6432 199.797 -20.7058 199.015 -21.4897C198.234 -22.2736 197.174 -22.7149 196.068 -22.7169H48.5548Z" fill="#EBEBEB"/>
<path d="M361.329 193.755H213.801C212.645 193.753 211.536 193.291 210.718 192.471C209.901 191.652 209.44 190.54 209.438 189.381V-18.5346C209.451 -19.6873 209.915 -20.7888 210.732 -21.6004C211.548 -22.412 212.651 -22.8682 213.801 -22.8701H361.329C362.477 -22.8661 363.577 -22.4088 364.391 -21.5972C365.204 -20.7857 365.666 -19.6853 365.676 -18.5346V189.381C365.676 190.538 365.219 191.648 364.404 192.468C363.589 193.288 362.484 193.751 361.329 193.755ZM213.801 -22.7169C212.695 -22.7149 211.635 -22.2736 210.853 -21.4897C210.072 -20.7058 209.631 -19.6432 209.629 -18.5346V189.381C209.631 190.489 210.072 191.552 210.853 192.336C211.635 193.12 212.695 193.561 213.801 193.563H361.329C362.435 193.561 363.495 193.12 364.277 192.336C365.059 191.552 365.499 190.489 365.501 189.381V-18.5346C365.499 -19.6432 365.059 -20.7058 364.277 -21.4897C363.495 -22.2736 362.435 -22.7149 361.329 -22.7169H213.801Z" fill="#EBEBEB"/>
<path d="M397 227.918H15V228.109H397V227.918Z" fill="#EBEBEB"/>
<path d="M137.574 48.3573L137.803 48.6919C138.325 49.4519 138.523 50.3884 138.356 51.2953C138.188 52.2022 137.668 53.0053 136.91 53.5278L59.5629 106.846C58.8049 107.369 57.8708 107.568 56.9663 107.4C56.0618 107.232 55.2608 106.711 54.7396 105.951L54.5102 105.616C53.9879 104.855 53.7887 103.916 53.9566 103.007C54.1244 102.098 54.6455 101.293 55.4052 100.77L132.74 47.4599C133.5 46.9363 134.436 46.7366 135.342 46.9049C136.249 47.0732 137.052 47.5956 137.574 48.3573Z" fill="#E0E0E0"/>
<path d="M71.223 220.802H112.54C114.252 220.802 115.894 221.484 117.105 222.698C118.316 223.911 118.996 225.558 118.996 227.274V227.65H64.752V227.274C64.752 226.423 64.9194 225.58 65.2448 224.794C65.5702 224.008 66.0471 223.293 66.6482 222.692C67.2493 222.091 67.9628 221.614 68.7478 221.29C69.5328 220.966 70.374 220.8 71.223 220.802Z" fill="#E0E0E0"/>
<path d="M91.6064 185.521H92.1641C93.392 185.521 94.5696 186.01 95.4379 186.88C96.3062 187.751 96.794 188.931 96.794 190.162V224.226H86.9766V190.162C86.9766 188.931 87.4643 187.751 88.3326 186.88C89.2009 186.01 90.3785 185.521 91.6064 185.521Z" fill="#E0E0E0"/>
<path d="M54.8009 101.875L54.4352 102.031C52.668 102.783 51.8435 104.829 52.5936 106.601L89.2636 193.216C90.0138 194.988 92.0545 195.815 93.8218 195.063L94.1875 194.907C95.9547 194.155 96.7792 192.109 96.029 190.337L59.359 103.722C58.6089 101.95 56.5681 101.123 54.8009 101.875Z" fill="#F0F0F0"/>
<path d="M129.754 43.698L130.424 43.0264C131.942 41.5036 134.002 40.6482 136.15 40.6482C138.298 40.6482 140.358 41.5037 141.877 43.0264L147.587 48.7515L135.464 60.906L129.77 55.1971C129.015 54.4439 128.415 53.5486 128.005 52.5626C127.595 51.5766 127.383 50.5191 127.382 49.4509C127.38 48.3827 127.589 47.3247 127.996 46.3375C128.403 45.3503 129 44.4533 129.754 43.698Z" fill="#EBEBEB"/>
<path d="M153.605 49.2413L147.249 42.8682L129.585 60.5781L135.941 66.9512L147.562 97.9819L184.555 60.8921L153.605 49.2413Z" fill="#F0F0F0"/>
<path d="M303.937 201.185C293.035 199.929 290.514 182.587 298.375 175.18C306.237 167.772 323.351 171.35 323.924 182.349C324.176 187.244 314.435 185.475 310.874 188.477C307.314 191.48 308.735 201.729 303.937 201.185Z" fill="#F0F0F0"/>
<path d="M318.926 178.335C313.166 179.009 310.148 183.965 309.315 185.566L308.376 184.586C308.024 183.123 307.367 179.009 310.049 176.482C310.128 176.41 310.176 176.31 310.185 176.204C310.193 176.097 310.161 175.991 310.095 175.907C310.059 175.864 310.016 175.828 309.966 175.802C309.916 175.776 309.862 175.76 309.806 175.756C309.751 175.752 309.695 175.759 309.642 175.777C309.589 175.795 309.54 175.824 309.499 175.861C307.054 178.159 307.031 181.453 307.321 183.521C305.428 181.575 303.385 179.782 301.209 178.159C301.088 178.079 300.94 178.049 300.798 178.076C300.655 178.104 300.529 178.186 300.445 178.305C300.362 178.425 300.33 178.573 300.356 178.716C300.382 178.86 300.463 178.987 300.583 179.071C302.788 180.737 304.86 182.573 306.779 184.563C303.893 184.242 300.98 184.831 298.444 186.248C298.397 186.278 298.356 186.316 298.325 186.362C298.293 186.407 298.27 186.458 298.258 186.512C298.246 186.566 298.245 186.622 298.254 186.677C298.264 186.731 298.284 186.784 298.314 186.83C298.373 186.921 298.465 186.985 298.57 187.009C298.676 187.033 298.786 187.016 298.879 186.961C302.447 184.839 306.687 185.383 307.726 185.566C308.131 185.988 308.551 186.432 308.972 186.899C307.222 187.561 305.62 188.562 304.257 189.845C302.894 191.128 301.796 192.667 301.026 194.375C300.996 194.474 301.003 194.58 301.046 194.674C301.088 194.768 301.164 194.843 301.258 194.885C301.353 194.926 301.459 194.932 301.557 194.9C301.655 194.868 301.738 194.801 301.79 194.712C302.548 193.061 303.627 191.578 304.964 190.349C306.301 189.121 307.868 188.172 309.575 187.558C314.808 193.491 319.416 199.949 323.327 206.831L324.282 206.279C320.215 199.107 315.395 192.392 309.904 186.248C310.393 185.222 313.227 179.867 319.003 179.186C319.11 179.176 319.208 179.125 319.278 179.043C319.348 178.962 319.384 178.856 319.377 178.749C319.375 178.692 319.362 178.636 319.338 178.584C319.314 178.532 319.28 178.486 319.238 178.447C319.196 178.409 319.147 178.379 319.094 178.36C319.04 178.341 318.983 178.332 318.926 178.335Z" fill="#E0E0E0"/>
<path d="M348.708 193.142C361.902 188.378 359.954 166.056 347.997 159.155C336.04 152.253 315.81 161.782 318.323 175.608C319.446 181.736 331.044 176.696 336.354 179.438C341.778 182.234 342.894 195.264 348.708 193.142Z" fill="#F0F0F0"/>
<path d="M323.358 169.166C330.723 168.301 335.934 173.578 337.439 175.332C337.737 174.812 338.019 174.314 338.302 173.839C338.302 171.916 337.92 166.6 333.84 164.248C333.773 164.219 333.712 164.175 333.662 164.121C333.613 164.066 333.574 164.002 333.55 163.932C333.526 163.862 333.517 163.788 333.523 163.715C333.529 163.641 333.55 163.569 333.585 163.504C333.62 163.439 333.668 163.382 333.726 163.336C333.783 163.291 333.85 163.258 333.922 163.239C333.993 163.22 334.067 163.217 334.14 163.228C334.213 163.24 334.282 163.266 334.344 163.306C338.05 165.42 339.051 169.541 339.295 172.192C341.071 169.23 343.076 166.412 345.293 163.766C345.42 163.645 345.589 163.575 345.765 163.572C345.941 163.568 346.112 163.629 346.245 163.745C346.378 163.86 346.464 164.021 346.485 164.196C346.507 164.371 346.463 164.548 346.362 164.693C344.107 167.414 342.063 170.305 340.25 173.341C342.504 172.575 346.775 171.564 351.114 172.935C351.18 172.956 351.242 172.991 351.295 173.036C351.348 173.082 351.391 173.137 351.423 173.199C351.454 173.262 351.473 173.329 351.479 173.399C351.484 173.469 351.476 173.539 351.454 173.605C351.433 173.671 351.398 173.733 351.353 173.786C351.308 173.839 351.252 173.883 351.19 173.914C351.128 173.946 351.061 173.965 350.991 173.97C350.922 173.976 350.852 173.968 350.786 173.946C345.728 172.36 340.617 174.291 339.372 174.819C338.99 175.463 338.608 176.137 338.21 176.849C342.999 177.471 347.346 179.972 350.297 183.804C350.382 183.918 350.418 184.061 350.398 184.202C350.378 184.343 350.303 184.47 350.19 184.555C350.076 184.64 349.934 184.677 349.793 184.657C349.653 184.637 349.526 184.562 349.441 184.448C348.017 182.616 346.243 181.086 344.223 179.948C342.203 178.811 339.977 178.088 337.675 177.822C332.902 186.744 329.062 196.136 326.215 205.85L324.863 205.436C327.826 195.334 331.852 185.577 336.873 176.328C335.964 175.195 330.868 169.373 323.488 170.2C323.351 170.218 323.212 170.182 323.101 170.099C322.989 170.016 322.915 169.893 322.892 169.756C322.879 169.616 322.92 169.477 323.007 169.367C323.094 169.257 323.22 169.185 323.358 169.166Z" fill="#E0E0E0"/>
<path d="M345.048 203.582C352.978 203.774 356.508 191.602 351.618 185.512C346.728 179.423 334.107 180.281 332.602 188.094C331.937 191.571 339.088 191.28 341.335 193.808C343.581 196.336 341.571 203.498 345.048 203.582Z" fill="#E0E0E0"/>
<path d="M336.644 186.485C340.708 187.542 342.374 191.395 342.809 192.613L343.573 192C343.963 190.989 344.849 188.109 343.176 186.025C343.124 185.968 343.095 185.893 343.095 185.815C343.095 185.737 343.124 185.662 343.176 185.604C343.204 185.575 343.238 185.552 343.276 185.536C343.313 185.521 343.353 185.513 343.394 185.513C343.434 185.513 343.474 185.521 343.512 185.536C343.549 185.552 343.583 185.575 343.611 185.604C345.139 187.481 344.818 189.855 344.375 191.303C345.921 190.108 347.556 189.032 349.265 188.086C349.313 188.061 349.365 188.046 349.419 188.042C349.473 188.038 349.527 188.044 349.579 188.062C349.63 188.079 349.677 188.106 349.718 188.142C349.758 188.177 349.791 188.221 349.815 188.27C349.858 188.364 349.864 188.471 349.832 188.569C349.799 188.667 349.73 188.749 349.639 188.798C347.894 189.768 346.229 190.874 344.658 192.107C346.757 192.161 348.788 192.865 350.472 194.122C350.501 194.151 350.524 194.185 350.539 194.222C350.555 194.259 350.563 194.3 350.563 194.34C350.563 194.381 350.555 194.421 350.539 194.459C350.524 194.496 350.501 194.53 350.472 194.559C350.417 194.612 350.343 194.642 350.266 194.642C350.189 194.642 350.115 194.612 350.059 194.559C348.257 193.259 346.075 192.596 343.856 192.674L342.832 193.502C345.225 194.808 347.005 197.011 347.783 199.63C347.804 199.707 347.794 199.789 347.754 199.859C347.715 199.929 347.65 199.98 347.573 200.001C347.496 200.022 347.413 200.012 347.344 199.973C347.274 199.933 347.223 199.868 347.202 199.79C346.823 198.532 346.198 197.362 345.362 196.349C344.526 195.336 343.497 194.501 342.335 193.892C337.997 197.617 334.055 201.78 330.57 206.317L329.943 205.826C333.567 201.099 337.686 196.775 342.228 192.927C341.984 192.161 340.487 188.025 336.414 186.96C336.341 186.938 336.278 186.891 336.237 186.826C336.196 186.761 336.18 186.683 336.193 186.608C336.211 186.566 336.237 186.529 336.271 186.5C336.305 186.47 336.345 186.449 336.389 186.437C336.432 186.425 336.477 186.423 336.522 186.432C336.566 186.44 336.607 186.458 336.644 186.485Z" fill="#F0F0F0"/>
<path d="M296.649 204.333H350.442V219.722C350.442 221.957 349.557 224.1 347.98 225.68C346.404 227.26 344.267 228.148 342.038 228.148H305.022C302.793 228.148 300.656 227.26 299.08 225.68C297.504 224.1 296.618 221.957 296.618 219.722V204.333H296.649Z" fill="#E0E0E0"/>
<path d="M202.317 259.562C284.129 259.562 350.449 255.68 350.449 250.891C350.449 246.102 284.129 242.22 202.317 242.22C120.506 242.22 54.1855 246.102 54.1855 250.891C54.1855 255.68 120.506 259.562 202.317 259.562Z" fill="#F5F5F5"/>
<path d="M334.749 26.2148H210.736V171.64H334.749V26.2148Z" fill="#2B2B2B"/>
<path opacity="0.3" d="M334.749 26.2148H210.736V171.64H334.749V26.2148Z" fill="white"/>
<path d="M228.01 39.9648H213.28V123.842H228.01V39.9648Z" fill="#263238"/>
<path opacity="0.4" d="M228.01 39.9648H213.28V123.842H228.01V39.9648Z" fill="white"/>
<path d="M334.749 26.2148H210.736V34.9779H334.749V26.2148Z" fill="#263238"/>
<path opacity="0.4" d="M334.756 34.9855V26.2148H210.736V34.9855" fill="white"/>
<path d="M218.437 48.1992H216.336C215.598 48.1992 214.999 48.7994 214.999 49.5397V51.6462C214.999 52.3866 215.598 52.9867 216.336 52.9867H218.437C219.175 52.9867 219.774 52.3866 219.774 51.6462V49.5397C219.774 48.7994 219.175 48.1992 218.437 48.1992Z" fill="#2B2B2B"/>
<path d="M224.847 48.1992H222.746C222.008 48.1992 221.409 48.7994 221.409 49.5397V51.6462C221.409 52.3866 222.008 52.9867 222.746 52.9867H224.847C225.586 52.9867 226.184 52.3866 226.184 51.6462V49.5397C226.184 48.7994 225.586 48.1992 224.847 48.1992Z" fill="#2B2B2B"/>
<path d="M218.437 54.9932H216.336C215.598 54.9932 214.999 55.5933 214.999 56.3337V58.4402C214.999 59.1805 215.598 59.7807 216.336 59.7807H218.437C219.175 59.7807 219.774 59.1805 219.774 58.4402V56.3337C219.774 55.5933 219.175 54.9932 218.437 54.9932Z" fill="#2B2B2B"/>
<path d="M224.847 54.9932H222.746C222.008 54.9932 221.409 55.5933 221.409 56.3337V58.4402C221.409 59.1805 222.008 59.7807 222.746 59.7807H224.847C225.586 59.7807 226.184 59.1805 226.184 58.4402V56.3337C226.184 55.5933 225.586 54.9932 224.847 54.9932Z" fill="#2B2B2B"/>
<path d="M218.437 61.7959H216.336C215.598 61.7959 214.999 62.3961 214.999 63.1364V65.2429C214.999 65.9832 215.598 66.5834 216.336 66.5834H218.437C219.175 66.5834 219.774 65.9832 219.774 65.2429V63.1364C219.774 62.3961 219.175 61.7959 218.437 61.7959Z" fill="#2B2B2B"/>
<path d="M224.847 61.7959H222.746C222.008 61.7959 221.409 62.3961 221.409 63.1364V65.2429C221.409 65.9832 222.008 66.5834 222.746 66.5834H224.847C225.586 66.5834 226.184 65.9832 226.184 65.2429V63.1364C226.184 62.3961 225.586 61.7959 224.847 61.7959Z" fill="#2B2B2B"/>
<path d="M218.437 68.5898H216.336C215.598 68.5898 214.999 69.19 214.999 69.9303V72.0368C214.999 72.7772 215.598 73.3773 216.336 73.3773H218.437C219.175 73.3773 219.774 72.7772 219.774 72.0368V69.9303C219.774 69.19 219.175 68.5898 218.437 68.5898Z" fill="#2B2B2B"/>
<path d="M224.847 68.5898H222.746C222.008 68.5898 221.409 69.19 221.409 69.9303V72.0368C221.409 72.7772 222.008 73.3773 222.746 73.3773H224.847C225.586 73.3773 226.184 72.7772 226.184 72.0368V69.9303C226.184 69.19 225.586 68.5898 224.847 68.5898Z" fill="#2B2B2B"/>
<path d="M218.437 75.3916H216.336C215.598 75.3916 214.999 75.9918 214.999 76.7321V78.8386C214.999 79.5789 215.598 80.1791 216.336 80.1791H218.437C219.175 80.1791 219.774 79.5789 219.774 78.8386V76.7321C219.774 75.9918 219.175 75.3916 218.437 75.3916Z" fill="#2B2B2B"/>
<path d="M224.847 75.3916H222.746C222.008 75.3916 221.409 75.9918 221.409 76.7321V78.8386C221.409 79.5789 222.008 80.1791 222.746 80.1791H224.847C225.586 80.1791 226.184 79.5789 226.184 78.8386V76.7321C226.184 75.9918 225.586 75.3916 224.847 75.3916Z" fill="#2B2B2B"/>
<path d="M218.437 82.1865H216.336C215.598 82.1865 214.999 82.7867 214.999 83.527V85.6335C214.999 86.3739 215.598 86.974 216.336 86.974H218.437C219.175 86.974 219.774 86.3739 219.774 85.6335V83.527C219.774 82.7867 219.175 82.1865 218.437 82.1865Z" fill="#2B2B2B"/>
<path d="M224.847 82.1865H222.746C222.008 82.1865 221.409 82.7867 221.409 83.527V85.6335C221.409 86.3739 222.008 86.974 222.746 86.974H224.847C225.586 86.974 226.184 86.3739 226.184 85.6335V83.527C226.184 82.7867 225.586 82.1865 224.847 82.1865Z" fill="#2B2B2B"/>
<path d="M218.437 88.9883H216.336C215.598 88.9883 214.999 89.5884 214.999 90.3288V92.4353C214.999 93.1756 215.598 93.7758 216.336 93.7758H218.437C219.175 93.7758 219.774 93.1756 219.774 92.4353V90.3288C219.774 89.5884 219.175 88.9883 218.437 88.9883Z" fill="#2B2B2B"/>
<path d="M224.847 88.9883H222.746C222.008 88.9883 221.409 89.5884 221.409 90.3288V92.4353C221.409 93.1756 222.008 93.7758 222.746 93.7758H224.847C225.586 93.7758 226.184 93.1756 226.184 92.4353V90.3288C226.184 89.5884 225.586 88.9883 224.847 88.9883Z" fill="#2B2B2B"/>
<path d="M218.437 95.7832H216.336C215.598 95.7832 214.999 96.3834 214.999 97.1237V99.2302C214.999 99.9705 215.598 100.571 216.336 100.571H218.437C219.175 100.571 219.774 99.9705 219.774 99.2302V97.1237C219.774 96.3834 219.175 95.7832 218.437 95.7832Z" fill="#2B2B2B"/>
<path d="M224.847 95.7832H222.746C222.008 95.7832 221.409 96.3834 221.409 97.1237V99.2302C221.409 99.9705 222.008 100.571 222.746 100.571H224.847C225.586 100.571 226.184 99.9705 226.184 99.2302V97.1237C226.184 96.3834 225.586 95.7832 224.847 95.7832Z" fill="#2B2B2B"/>
<path d="M220.523 106.606H216.542C215.69 106.606 214.999 107.299 214.999 108.154V112.145C214.999 112.999 215.69 113.692 216.542 113.692H220.523C221.375 113.692 222.066 112.999 222.066 112.145V108.154C222.066 107.299 221.375 106.606 220.523 106.606Z" fill="#2B2B2B"/>
<path d="M226.169 117.806H217.956V115.469C217.956 115.317 218.016 115.171 218.124 115.063C218.231 114.956 218.377 114.895 218.529 114.895C218.605 114.894 218.68 114.908 218.75 114.937C218.82 114.965 218.883 115.007 218.937 115.061C218.99 115.115 219.032 115.178 219.061 115.248C219.089 115.319 219.103 115.394 219.102 115.469V116.657H225.023V110.72H223.839C223.763 110.721 223.688 110.707 223.618 110.679C223.548 110.65 223.485 110.608 223.431 110.554C223.378 110.501 223.336 110.437 223.307 110.367C223.279 110.297 223.265 110.222 223.266 110.146C223.266 109.993 223.326 109.847 223.434 109.74C223.541 109.632 223.687 109.571 223.839 109.571H226.131L226.169 117.806Z" fill="#2B2B2B"/>
<path d="M228.01 39.9648H213.28V44.9438H228.01V39.9648Z" fill="#2B2B2B"/>
<path d="M329.989 166.737C329.433 166.737 328.9 166.516 328.506 166.123C328.112 165.73 327.89 165.196 327.888 164.639V39.7805C327.888 39.5042 327.942 39.2307 328.048 38.9755C328.153 38.7204 328.308 38.4887 328.504 38.2937C328.699 38.0987 328.93 37.9442 329.185 37.8392C329.44 37.7342 329.713 37.6806 329.989 37.6817C330.544 37.6817 331.076 37.9028 331.469 38.2964C331.862 38.69 332.082 39.2238 332.082 39.7805V164.639C332.082 165.195 331.862 165.729 331.469 166.123C331.076 166.516 330.544 166.737 329.989 166.737Z" fill="#263238"/>
<path opacity="0.4" d="M329.989 166.737C329.433 166.737 328.9 166.516 328.506 166.123C328.112 165.73 327.89 165.196 327.888 164.639V39.7805C327.888 39.5042 327.942 39.2307 328.048 38.9755C328.153 38.7204 328.308 38.4887 328.504 38.2937C328.699 38.0987 328.93 37.9442 329.185 37.8392C329.44 37.7342 329.713 37.6806 329.989 37.6817C330.544 37.6817 331.076 37.9028 331.469 38.2964C331.862 38.69 332.082 39.2238 332.082 39.7805V164.639C332.082 165.195 331.862 165.729 331.469 166.123C331.076 166.516 330.544 166.737 329.989 166.737Z" fill="white"/>
<path opacity="0.4" d="M319.859 44.9434H236.965V82.1939H319.859V44.9434Z" fill="white"/>
<path d="M315.534 79.8276L279.344 63.5655L314.9 47.5867L314.587 46.8896L278.411 63.1442L242.236 46.8896L241.923 47.5867L277.472 63.5655L241.923 79.5366L242.236 80.2413L278.411 63.9868L315.221 80.5247L315.534 79.8276Z" fill="#2B2B2B"/>
<path opacity="0.4" d="M275.959 92.4355H242.075V120.012H275.959V92.4355Z" fill="white"/>
<path d="M274.378 118.219L259.625 106.223L274.11 94.4344L273.629 93.8369L259.021 105.725L244.406 93.8369L243.925 94.4344L258.41 106.223L243.925 118.012L244.406 118.602L259.021 106.713L273.897 118.816L274.378 118.219Z" fill="#2B2B2B"/>
<path opacity="0.4" d="M314.74 92.4355H280.856V120.012H314.74V92.4355Z" fill="white"/>
<path d="M313.15 118.219L298.405 106.223L312.891 94.4344L312.409 93.8369L297.794 105.725L283.186 93.8369L282.705 94.4344L297.191 106.223L282.705 118.012L283.186 118.602L297.794 106.713L312.669 118.816L313.15 118.219Z" fill="#2B2B2B"/>
<path d="M275.065 127.173H242.977C242.738 127.173 242.508 127.078 242.339 126.908C242.17 126.739 242.075 126.509 242.075 126.269C242.075 126.151 242.099 126.034 242.144 125.925C242.189 125.815 242.256 125.716 242.34 125.633C242.424 125.55 242.523 125.484 242.632 125.439C242.742 125.395 242.859 125.372 242.977 125.373H275.065C275.302 125.373 275.529 125.468 275.697 125.636C275.864 125.804 275.959 126.032 275.959 126.269C275.96 126.388 275.937 126.505 275.893 126.615C275.848 126.724 275.783 126.824 275.699 126.908C275.616 126.992 275.518 127.059 275.409 127.104C275.3 127.15 275.183 127.173 275.065 127.173Z" fill="#263238"/>
<path opacity="0.4" d="M275.065 127.173H242.977C242.738 127.173 242.508 127.078 242.339 126.908C242.17 126.739 242.075 126.509 242.075 126.269C242.075 126.151 242.099 126.034 242.144 125.925C242.189 125.815 242.256 125.716 242.34 125.633C242.424 125.55 242.523 125.484 242.632 125.439C242.742 125.395 242.859 125.372 242.977 125.373H275.065C275.302 125.373 275.529 125.468 275.697 125.636C275.864 125.804 275.959 126.032 275.959 126.269C275.96 126.388 275.937 126.505 275.893 126.615C275.848 126.724 275.783 126.824 275.699 126.908C275.616 126.992 275.518 127.059 275.409 127.104C275.3 127.15 275.183 127.173 275.065 127.173Z" fill="white"/>
<path d="M269.358 130.789H242.977C242.738 130.789 242.508 130.694 242.339 130.524C242.17 130.355 242.075 130.125 242.075 129.885C242.075 129.646 242.17 129.416 242.339 129.246C242.508 129.077 242.738 128.981 242.977 128.981H269.358C269.597 128.981 269.826 129.077 269.995 129.246C270.164 129.416 270.259 129.646 270.259 129.885C270.259 130.125 270.164 130.355 269.995 130.524C269.826 130.694 269.597 130.789 269.358 130.789Z" fill="#263238"/>
<path opacity="0.4" d="M269.358 130.789H242.977C242.738 130.789 242.508 130.694 242.339 130.524C242.17 130.355 242.075 130.125 242.075 129.885C242.075 129.646 242.17 129.416 242.339 129.246C242.508 129.077 242.738 128.981 242.977 128.981H269.358C269.597 128.981 269.826 129.077 269.995 129.246C270.164 129.416 270.259 129.646 270.259 129.885C270.259 130.125 270.164 130.355 269.995 130.524C269.826 130.694 269.597 130.789 269.358 130.789Z" fill="white"/>
<path d="M271.214 134.397H242.946C242.707 134.397 242.478 134.302 242.309 134.132C242.14 133.963 242.045 133.733 242.045 133.493C242.055 133.255 242.158 133.03 242.333 132.868C242.508 132.706 242.739 132.619 242.977 132.628H271.245C271.484 132.628 271.713 132.723 271.882 132.892C272.052 133.062 272.147 133.292 272.147 133.531C272.137 133.77 272.033 133.995 271.858 134.157C271.684 134.319 271.452 134.405 271.214 134.397Z" fill="#263238"/>
<path opacity="0.4" d="M271.214 134.397H242.946C242.707 134.397 242.478 134.302 242.309 134.132C242.14 133.963 242.045 133.733 242.045 133.493C242.055 133.255 242.158 133.03 242.333 132.868C242.508 132.706 242.739 132.619 242.977 132.628H271.245C271.484 132.628 271.713 132.723 271.882 132.892C272.052 133.062 272.147 133.292 272.147 133.531C272.137 133.77 272.033 133.995 271.858 134.157C271.684 134.319 271.452 134.405 271.214 134.397Z" fill="white"/>
<path d="M313.838 127.173H281.75C281.515 127.167 281.291 127.069 281.127 126.9C280.963 126.732 280.871 126.505 280.871 126.269C280.871 126.151 280.894 126.034 280.94 125.925C280.985 125.815 281.052 125.716 281.136 125.633C281.219 125.55 281.319 125.484 281.428 125.439C281.538 125.395 281.655 125.372 281.773 125.373H313.861C313.979 125.372 314.096 125.395 314.205 125.439C314.314 125.484 314.414 125.55 314.498 125.633C314.581 125.716 314.648 125.815 314.693 125.925C314.739 126.034 314.762 126.151 314.762 126.269C314.762 126.39 314.738 126.509 314.691 126.621C314.645 126.732 314.576 126.832 314.49 126.917C314.404 127.001 314.302 127.067 314.19 127.111C314.078 127.155 313.958 127.176 313.838 127.173Z" fill="#263238"/>
<path opacity="0.4" d="M313.838 127.173H281.75C281.515 127.167 281.291 127.069 281.127 126.9C280.963 126.732 280.871 126.505 280.871 126.269C280.871 126.151 280.894 126.034 280.94 125.925C280.985 125.815 281.052 125.716 281.136 125.633C281.219 125.55 281.319 125.484 281.428 125.439C281.538 125.395 281.655 125.372 281.773 125.373H313.861C313.979 125.372 314.096 125.395 314.205 125.439C314.314 125.484 314.414 125.55 314.498 125.633C314.581 125.716 314.648 125.815 314.693 125.925C314.739 126.034 314.762 126.151 314.762 126.269C314.762 126.39 314.738 126.509 314.691 126.621C314.645 126.732 314.576 126.832 314.49 126.917C314.404 127.001 314.302 127.067 314.19 127.111C314.078 127.155 313.958 127.176 313.838 127.173Z" fill="white"/>
<path d="M310.431 130.789H281.758C281.519 130.789 281.29 130.694 281.12 130.524C280.951 130.355 280.856 130.125 280.856 129.885C280.856 129.646 280.951 129.416 281.12 129.246C281.29 129.077 281.519 128.981 281.758 128.981H310.431C310.67 128.981 310.899 129.077 311.068 129.246C311.237 129.416 311.332 129.646 311.332 129.885C311.332 130.125 311.237 130.355 311.068 130.524C310.899 130.694 310.67 130.789 310.431 130.789Z" fill="#263238"/>
<path opacity="0.4" d="M310.431 130.789H281.758C281.519 130.789 281.29 130.694 281.12 130.524C280.951 130.355 280.856 130.125 280.856 129.885C280.856 129.646 280.951 129.416 281.12 129.246C281.29 129.077 281.519 128.981 281.758 128.981H310.431C310.67 128.981 310.899 129.077 311.068 129.246C311.237 129.416 311.332 129.646 311.332 129.885C311.332 130.125 311.237 130.355 311.068 130.524C310.899 130.694 310.67 130.789 310.431 130.789Z" fill="white"/>
<path d="M308.467 134.397H281.727C281.488 134.397 281.258 134.301 281.089 134.132C280.92 133.962 280.825 133.732 280.825 133.493C280.825 133.253 280.92 133.023 281.089 132.854C281.258 132.684 281.488 132.589 281.727 132.589H308.467C308.585 132.589 308.702 132.612 308.812 132.658C308.921 132.703 309.02 132.77 309.104 132.854C309.188 132.938 309.254 133.037 309.3 133.147C309.345 133.257 309.368 133.374 309.368 133.493C309.368 133.611 309.345 133.729 309.3 133.839C309.254 133.948 309.188 134.048 309.104 134.132C309.02 134.216 308.921 134.282 308.812 134.328C308.702 134.373 308.585 134.397 308.467 134.397Z" fill="#263238"/>
<path opacity="0.4" d="M308.467 134.397H281.727C281.488 134.397 281.258 134.301 281.089 134.132C280.92 133.962 280.825 133.732 280.825 133.493C280.825 133.253 280.92 133.023 281.089 132.854C281.258 132.684 281.488 132.589 281.727 132.589H308.467C308.585 132.589 308.702 132.612 308.812 132.658C308.921 132.703 309.02 132.77 309.104 132.854C309.188 132.938 309.254 133.037 309.3 133.147C309.345 133.257 309.368 133.374 309.368 133.493C309.368 133.611 309.345 133.729 309.3 133.839C309.254 133.948 309.188 134.048 309.104 134.132C309.02 134.216 308.921 134.282 308.812 134.328C308.702 134.373 308.585 134.397 308.467 134.397Z" fill="white"/>
<path d="M275.065 143.443H242.977C242.738 143.443 242.508 143.348 242.339 143.179C242.17 143.009 242.075 142.779 242.075 142.54C242.075 142.421 242.099 142.303 242.144 142.194C242.189 142.084 242.256 141.984 242.339 141.9C242.423 141.817 242.522 141.75 242.632 141.705C242.741 141.659 242.858 141.636 242.977 141.636H275.065C275.183 141.636 275.3 141.659 275.409 141.705C275.518 141.75 275.616 141.817 275.699 141.901C275.783 141.985 275.848 142.085 275.893 142.194C275.937 142.304 275.96 142.421 275.959 142.54C275.96 142.658 275.937 142.775 275.893 142.885C275.848 142.995 275.783 143.094 275.699 143.178C275.616 143.262 275.518 143.329 275.409 143.375C275.3 143.42 275.183 143.443 275.065 143.443Z" fill="#263238"/>
<path opacity="0.4" d="M275.065 143.443H242.977C242.738 143.443 242.508 143.348 242.339 143.179C242.17 143.009 242.075 142.779 242.075 142.54C242.075 142.421 242.099 142.303 242.144 142.194C242.189 142.084 242.256 141.984 242.339 141.9C242.423 141.817 242.522 141.75 242.632 141.705C242.741 141.659 242.858 141.636 242.977 141.636H275.065C275.183 141.636 275.3 141.659 275.409 141.705C275.518 141.75 275.616 141.817 275.699 141.901C275.783 141.985 275.848 142.085 275.893 142.194C275.937 142.304 275.96 142.421 275.959 142.54C275.96 142.658 275.937 142.775 275.893 142.885C275.848 142.995 275.783 143.094 275.699 143.178C275.616 143.262 275.518 143.329 275.409 143.375C275.3 143.42 275.183 143.443 275.065 143.443Z" fill="white"/>
<path d="M271.65 147.051H242.977C242.859 147.052 242.742 147.03 242.632 146.985C242.523 146.94 242.424 146.875 242.34 146.791C242.256 146.708 242.189 146.609 242.144 146.5C242.099 146.39 242.075 146.273 242.075 146.155C242.075 145.915 242.17 145.685 242.339 145.516C242.508 145.346 242.738 145.251 242.977 145.251H271.65C271.889 145.251 272.118 145.346 272.287 145.516C272.456 145.685 272.551 145.915 272.551 146.155C272.551 146.273 272.528 146.39 272.482 146.5C272.437 146.609 272.37 146.708 272.287 146.791C272.203 146.875 272.103 146.94 271.994 146.985C271.885 147.03 271.768 147.052 271.65 147.051Z" fill="#263238"/>
<path opacity="0.4" d="M271.65 147.051H242.977C242.859 147.052 242.742 147.03 242.632 146.985C242.523 146.94 242.424 146.875 242.34 146.791C242.256 146.708 242.189 146.609 242.144 146.5C242.099 146.39 242.075 146.273 242.075 146.155C242.075 145.915 242.17 145.685 242.339 145.516C242.508 145.346 242.738 145.251 242.977 145.251H271.65C271.889 145.251 272.118 145.346 272.287 145.516C272.456 145.685 272.551 145.915 272.551 146.155C272.551 146.273 272.528 146.39 272.482 146.5C272.437 146.609 272.37 146.708 272.287 146.791C272.203 146.875 272.103 146.94 271.994 146.985C271.885 147.03 271.768 147.052 271.65 147.051Z" fill="white"/>
<path d="M267.394 150.667H242.946C242.707 150.667 242.478 150.572 242.309 150.402C242.14 150.233 242.045 150.003 242.045 149.763C242.045 149.524 242.14 149.294 242.309 149.124C242.478 148.955 242.707 148.859 242.946 148.859H267.394C267.513 148.859 267.63 148.883 267.739 148.928C267.849 148.974 267.948 149.04 268.032 149.124C268.116 149.208 268.182 149.308 268.227 149.417C268.273 149.527 268.296 149.645 268.296 149.763C268.296 149.882 268.273 149.999 268.227 150.109C268.182 150.219 268.116 150.318 268.032 150.402C267.948 150.486 267.849 150.553 267.739 150.598C267.63 150.644 267.513 150.667 267.394 150.667Z" fill="#263238"/>
<path opacity="0.4" d="M267.394 150.667H242.946C242.707 150.667 242.478 150.572 242.309 150.402C242.14 150.233 242.045 150.003 242.045 149.763C242.045 149.524 242.14 149.294 242.309 149.124C242.478 148.955 242.707 148.859 242.946 148.859H267.394C267.513 148.859 267.63 148.883 267.739 148.928C267.849 148.974 267.948 149.04 268.032 149.124C268.116 149.208 268.182 149.308 268.227 149.417C268.273 149.527 268.296 149.645 268.296 149.763C268.296 149.882 268.273 149.999 268.227 150.109C268.182 150.219 268.116 150.318 268.032 150.402C267.948 150.486 267.849 150.553 267.739 150.598C267.63 150.644 267.513 150.667 267.394 150.667Z" fill="white"/>
<path d="M311.546 143.443H281.75C281.511 143.443 281.282 143.348 281.113 143.179C280.944 143.009 280.849 142.779 280.849 142.54C280.849 142.421 280.872 142.303 280.917 142.194C280.963 142.084 281.029 141.984 281.113 141.9C281.196 141.817 281.296 141.75 281.405 141.705C281.515 141.659 281.632 141.636 281.75 141.636H311.546C311.665 141.636 311.782 141.659 311.891 141.705C312.001 141.75 312.1 141.817 312.184 141.9C312.267 141.984 312.334 142.084 312.379 142.194C312.424 142.303 312.448 142.421 312.448 142.54C312.448 142.779 312.353 143.009 312.184 143.179C312.015 143.348 311.785 143.443 311.546 143.443Z" fill="#263238"/>
<path opacity="0.4" d="M311.546 143.443H281.75C281.511 143.443 281.282 143.348 281.113 143.179C280.944 143.009 280.849 142.779 280.849 142.54C280.849 142.421 280.872 142.303 280.917 142.194C280.963 142.084 281.029 141.984 281.113 141.9C281.196 141.817 281.296 141.75 281.405 141.705C281.515 141.659 281.632 141.636 281.75 141.636H311.546C311.665 141.636 311.782 141.659 311.891 141.705C312.001 141.75 312.1 141.817 312.184 141.9C312.267 141.984 312.334 142.084 312.379 142.194C312.424 142.303 312.448 142.421 312.448 142.54C312.448 142.779 312.353 143.009 312.184 143.179C312.015 143.348 311.785 143.443 311.546 143.443Z" fill="white"/>
<path d="M308.139 147.051H281.758C281.64 147.052 281.523 147.03 281.414 146.985C281.304 146.94 281.205 146.875 281.121 146.791C281.037 146.708 280.971 146.609 280.925 146.5C280.88 146.39 280.856 146.273 280.856 146.155C280.856 145.915 280.951 145.685 281.12 145.516C281.29 145.346 281.519 145.251 281.758 145.251H308.139C308.378 145.251 308.607 145.346 308.776 145.516C308.945 145.685 309.04 145.915 309.04 146.155C309.04 146.273 309.017 146.39 308.972 146.5C308.926 146.609 308.86 146.708 308.776 146.791C308.692 146.875 308.593 146.94 308.483 146.985C308.374 147.03 308.257 147.052 308.139 147.051Z" fill="#263238"/>
<path opacity="0.4" d="M308.139 147.051H281.758C281.64 147.052 281.523 147.03 281.414 146.985C281.304 146.94 281.205 146.875 281.121 146.791C281.037 146.708 280.971 146.609 280.925 146.5C280.88 146.39 280.856 146.273 280.856 146.155C280.856 145.915 280.951 145.685 281.12 145.516C281.29 145.346 281.519 145.251 281.758 145.251H308.139C308.378 145.251 308.607 145.346 308.776 145.516C308.945 145.685 309.04 145.915 309.04 146.155C309.04 146.273 309.017 146.39 308.972 146.5C308.926 146.609 308.86 146.708 308.776 146.791C308.692 146.875 308.593 146.94 308.483 146.985C308.374 147.03 308.257 147.052 308.139 147.051Z" fill="white"/>
<path d="M308.467 150.667H281.727C281.488 150.667 281.258 150.572 281.089 150.402C280.92 150.233 280.825 150.003 280.825 149.763C280.825 149.524 280.92 149.294 281.089 149.124C281.258 148.955 281.488 148.859 281.727 148.859H308.467C308.585 148.859 308.702 148.883 308.812 148.928C308.921 148.974 309.02 149.04 309.104 149.124C309.188 149.208 309.254 149.308 309.3 149.417C309.345 149.527 309.368 149.645 309.368 149.763C309.368 149.882 309.345 149.999 309.3 150.109C309.254 150.219 309.188 150.318 309.104 150.402C309.02 150.486 308.921 150.553 308.812 150.598C308.702 150.644 308.585 150.667 308.467 150.667Z" fill="#263238"/>
<path opacity="0.4" d="M308.467 150.667H281.727C281.488 150.667 281.258 150.572 281.089 150.402C280.92 150.233 280.825 150.003 280.825 149.763C280.825 149.524 280.92 149.294 281.089 149.124C281.258 148.955 281.488 148.859 281.727 148.859H308.467C308.585 148.859 308.702 148.883 308.812 148.928C308.921 148.974 309.02 149.04 309.104 149.124C309.188 149.208 309.254 149.308 309.3 149.417C309.345 149.527 309.368 149.645 309.368 149.763C309.368 149.882 309.345 149.999 309.3 150.109C309.254 150.219 309.188 150.318 309.104 150.402C309.02 150.486 308.921 150.553 308.812 150.598C308.702 150.644 308.585 150.667 308.467 150.667Z" fill="white"/>
<path opacity="0.4" d="M329.989 147.373C329.797 147.373 329.606 147.335 329.428 147.261C329.25 147.187 329.088 147.079 328.952 146.942C328.816 146.806 328.708 146.644 328.634 146.465C328.56 146.287 328.522 146.096 328.522 145.902V137.369C328.522 136.979 328.677 136.605 328.952 136.329C329.227 136.053 329.6 135.898 329.989 135.898C330.182 135.898 330.372 135.937 330.55 136.011C330.727 136.085 330.888 136.193 331.024 136.33C331.16 136.466 331.267 136.629 331.34 136.807C331.413 136.985 331.45 137.176 331.449 137.369V145.902C331.45 146.095 331.413 146.286 331.34 146.465C331.267 146.643 331.16 146.805 331.024 146.942C330.888 147.079 330.727 147.187 330.55 147.261C330.372 147.335 330.182 147.373 329.989 147.373Z" fill="white"/>
<path d="M263.07 113.692H84.0649C82.0912 113.69 80.1972 114.473 78.7981 115.869C77.3989 117.264 76.6087 119.159 76.6006 121.138V234.889C76.6006 235.871 76.7937 236.844 77.1689 237.752C77.5441 238.659 78.0941 239.484 78.7873 240.178C79.4805 240.872 80.3034 241.423 81.209 241.798C82.1146 242.173 83.085 242.366 84.0649 242.365H107.818V238.719C107.826 238.212 108.03 237.729 108.389 237.371C108.747 237.013 109.23 236.81 109.735 236.804H237.323C237.836 236.804 238.328 237.008 238.69 237.372C239.053 237.735 239.256 238.228 239.256 238.742V242.388H263.017C264.994 242.388 266.891 241.6 268.289 240.198C269.688 238.796 270.473 236.895 270.473 234.912V121.138C270.465 119.17 269.683 117.284 268.297 115.89C266.911 114.496 265.033 113.706 263.07 113.692Z" fill="#263238"/>
<path d="M175.134 118.587C175.134 118.901 175.04 119.208 174.865 119.469C174.69 119.729 174.442 119.931 174.151 120.049C173.861 120.167 173.542 120.196 173.236 120.131C172.929 120.066 172.649 119.911 172.431 119.686C172.213 119.461 172.067 119.175 172.011 118.866C171.956 118.557 171.994 118.238 172.12 117.951C172.246 117.664 172.455 117.42 172.719 117.253C172.984 117.085 173.293 117 173.606 117.009C174.016 117.019 174.406 117.19 174.692 117.485C174.977 117.781 175.136 118.176 175.134 118.587Z" fill="#2B2B2B"/>
<path d="M285.173 239.562H61.9551V245.161H285.173V239.562Z" fill="#263238"/>
<path opacity="0.5" d="M285.173 239.562H61.9551V245.161H285.173V239.562Z" fill="white"/>
<path d="M61.9551 245.169L65.4236 247.942C67.7017 249.772 70.534 250.769 73.4533 250.768H273.69C276.609 250.769 279.442 249.772 281.72 247.942L285.173 245.169H61.9551Z" fill="#263238"/>
<path opacity="0.3" d="M61.9551 245.169L65.4236 247.942C67.7017 249.772 70.534 250.769 73.4533 250.768H273.69C276.609 250.769 279.442 249.772 281.72 247.942L285.173 245.169H61.9551Z" fill="white"/>
<path opacity="0.4" d="M152.114 239.745C152.114 240.44 152.39 241.106 152.88 241.598C153.37 242.089 154.034 242.365 154.727 242.365H192.4C193.093 242.365 193.758 242.089 194.248 241.598C194.738 241.106 195.013 240.44 195.013 239.745C195.013 239.684 195.013 239.623 195.013 239.562H152.13C152.13 239.623 152.114 239.684 152.114 239.745Z" fill="white"/>
<path d="M261.81 123.834H85.3262V224.548H261.81V123.834Z" fill="#2B2B2B"/>
<path opacity="0.6" d="M261.81 123.834H85.3262V224.548H261.81V123.834Z" fill="white"/>
<path d="M261.81 123.834H85.3262V135.96H261.81V123.834Z" fill="#2B2B2B"/>
<path opacity="0.8" d="M163.215 132.919H94.8296C94.0434 132.919 93.2894 132.606 92.7335 132.048C92.1775 131.491 91.8652 130.735 91.8652 129.947C91.8652 129.158 92.1775 128.402 92.7335 127.845C93.2894 127.288 94.0434 126.975 94.8296 126.975H163.215C164.001 126.975 164.755 127.288 165.311 127.845C165.867 128.402 166.18 129.158 166.18 129.947C166.18 130.735 165.867 131.491 165.311 132.048C164.755 132.606 164.001 132.919 163.215 132.919Z" fill="white"/>
<path opacity="0.8" d="M255.095 129.947C255.095 130.535 254.921 131.109 254.595 131.598C254.269 132.087 253.806 132.468 253.265 132.693C252.723 132.917 252.127 132.976 251.552 132.862C250.977 132.747 250.449 132.464 250.034 132.048C249.62 131.633 249.337 131.103 249.223 130.527C249.109 129.95 249.167 129.352 249.392 128.809C249.616 128.266 249.996 127.802 250.483 127.476C250.971 127.149 251.544 126.975 252.13 126.975C252.52 126.974 252.906 127.05 253.266 127.199C253.626 127.348 253.953 127.567 254.229 127.843C254.504 128.119 254.722 128.447 254.871 128.808C255.02 129.169 255.096 129.556 255.095 129.947Z" fill="white"/>
<path opacity="0.6" d="M241.846 132.919C243.483 132.919 244.81 131.588 244.81 129.947C244.81 128.305 243.483 126.975 241.846 126.975C240.209 126.975 238.882 128.305 238.882 129.947C238.882 131.588 240.209 132.919 241.846 132.919Z" fill="white"/>
<path opacity="0.4" d="M231.555 132.919C233.192 132.919 234.519 131.588 234.519 129.947C234.519 128.305 233.192 126.975 231.555 126.975C229.918 126.975 228.591 128.305 228.591 129.947C228.591 131.588 229.918 132.919 231.555 132.919Z" fill="white"/>
<path d="M255.094 147.55H91.8652V204.961H255.094V147.55Z" fill="#2B2B2B"/>
<path d="M107.497 204.961L138.821 173.555C139.209 173.165 139.67 172.856 140.177 172.646C140.685 172.435 141.229 172.326 141.778 172.326C142.327 172.326 142.871 172.435 143.378 172.646C143.885 172.856 144.346 173.165 144.734 173.555L176.058 204.961H107.497Z" fill="#2B2B2B"/>
<path opacity="0.3" d="M107.497 204.961L138.821 173.555C139.209 173.165 139.67 172.856 140.177 172.646C140.685 172.435 141.229 172.326 141.778 172.326C142.327 172.326 142.871 172.435 143.378 172.646C143.885 172.856 144.346 173.165 144.734 173.555L176.058 204.961H107.497Z" fill="black"/>
<path d="M144.734 173.556C144.17 172.99 143.455 172.599 142.674 172.429C141.894 172.259 141.082 172.318 140.334 172.598C140.334 175.164 146.171 177.294 146.171 179.867C146.171 182.441 140.326 184.578 140.326 187.152C140.326 189.726 151.022 191.855 151.022 194.429C151.022 197.003 140.326 199.132 140.326 201.706C140.326 202.625 141.48 203.805 142.985 204.962H176.058L144.734 173.556Z" fill="#2B2B2B"/>
<path opacity="0.4" d="M144.734 173.556C144.17 172.99 143.455 172.599 142.674 172.429C141.894 172.259 141.082 172.318 140.334 172.598C140.334 175.164 146.171 177.294 146.171 179.867C146.171 182.441 140.326 184.578 140.326 187.152C140.326 189.726 151.022 191.855 151.022 194.429C151.022 197.003 140.326 199.132 140.326 201.706C140.326 202.625 141.48 203.805 142.985 204.962H176.058L144.734 173.556Z" fill="white"/>
<path d="M163.124 204.961L203.708 164.24C204.724 163.23 206.097 162.663 207.528 162.663C208.959 162.663 210.332 163.23 211.348 164.24L251.962 204.961H163.124Z" fill="#2B2B2B"/>
<path opacity="0.3" d="M163.124 204.961L203.708 164.24C204.724 163.23 206.097 162.663 207.528 162.663C208.959 162.663 210.332 163.23 211.348 164.24L251.962 204.961H163.124Z" fill="black"/>
<path d="M211.409 164.241C210.676 163.506 209.747 162.998 208.734 162.778C207.72 162.558 206.665 162.635 205.694 163C205.694 166.332 213.273 169.128 213.273 172.422C213.273 175.715 205.694 178.55 205.694 181.866C205.694 185.183 219.599 187.994 219.599 191.304C219.599 194.613 205.694 197.432 205.694 200.741C205.694 201.936 207.222 203.468 209.14 204.961H252.023L211.409 164.241Z" fill="#2B2B2B"/>
<path opacity="0.4" d="M211.409 164.241C210.676 163.506 209.747 162.998 208.734 162.778C207.72 162.558 206.665 162.635 205.694 163C205.694 166.332 213.273 169.128 213.273 172.422C213.273 175.715 205.694 178.55 205.694 181.866C205.694 185.183 219.599 187.994 219.599 191.304C219.599 194.613 205.694 197.432 205.694 200.741C205.694 201.936 207.222 203.468 209.14 204.961H252.023L211.409 164.241Z" fill="white"/>
<path opacity="0.5" d="M174.141 143.413H156.707C156.454 143.414 156.204 143.365 155.97 143.269C155.737 143.172 155.524 143.031 155.346 142.852C155.167 142.674 155.025 142.461 154.928 142.228C154.831 141.994 154.781 141.743 154.781 141.49C154.781 141.237 154.831 140.986 154.928 140.753C155.025 140.519 155.167 140.306 155.346 140.128C155.524 139.949 155.737 139.808 155.97 139.712C156.204 139.615 156.454 139.566 156.707 139.567H174.141C174.65 139.567 175.137 139.77 175.497 140.131C175.857 140.491 176.059 140.98 176.059 141.49C176.059 142 175.857 142.489 175.497 142.85C175.137 143.21 174.65 143.413 174.141 143.413Z" fill="white"/>
<path d="M200.652 143.413H183.21C182.701 143.413 182.213 143.21 181.854 142.85C181.494 142.489 181.292 142 181.292 141.49C181.292 140.98 181.494 140.491 181.854 140.131C182.213 139.77 182.701 139.567 183.21 139.567H200.652C201.16 139.567 201.648 139.77 202.008 140.131C202.367 140.491 202.569 140.98 202.569 141.49C202.569 142 202.367 142.489 202.008 142.85C201.648 143.21 201.16 143.413 200.652 143.413Z" fill="#2B2B2B"/>
<path opacity="0.5" d="M227.155 143.413H209.72C209.212 143.413 208.724 143.21 208.364 142.85C208.005 142.489 207.803 142 207.803 141.49C207.803 140.98 208.005 140.491 208.364 140.131C208.724 139.77 209.212 139.567 209.72 139.567H227.155C227.663 139.567 228.151 139.77 228.511 140.131C228.87 140.491 229.073 140.98 229.073 141.49C229.073 142 228.87 142.489 228.511 142.85C228.151 143.21 227.663 143.413 227.155 143.413Z" fill="white"/>
<path d="M201.202 213.418H171.406C171.025 213.418 170.66 213.266 170.39 212.996C170.121 212.726 169.97 212.36 169.97 211.978C169.97 211.595 170.121 211.228 170.39 210.957C170.659 210.686 171.024 210.532 171.406 210.53H201.202C201.584 210.532 201.949 210.686 202.218 210.957C202.487 211.228 202.638 211.595 202.638 211.978C202.638 212.36 202.487 212.726 202.218 212.996C201.948 213.266 201.583 213.418 201.202 213.418Z" fill="#263238"/>
<path d="M223.572 213.418H206.619C206.238 213.418 205.873 213.266 205.603 212.996C205.334 212.726 205.183 212.36 205.183 211.978C205.183 211.595 205.334 211.228 205.603 210.957C205.872 210.686 206.237 210.532 206.619 210.53H223.572C223.954 210.532 224.319 210.686 224.588 210.957C224.857 211.228 225.008 211.595 225.008 211.978C225.008 212.36 224.857 212.726 224.588 212.996C224.318 213.266 223.953 213.418 223.572 213.418Z" fill="#263238"/>
<path d="M193.615 219.845H171.459C171.077 219.843 170.712 219.689 170.443 219.418C170.174 219.147 170.022 218.78 170.022 218.397C170.022 218.015 170.174 217.649 170.443 217.379C170.713 217.109 171.078 216.957 171.459 216.957H193.615C193.996 216.957 194.361 217.109 194.63 217.379C194.9 217.649 195.051 218.015 195.051 218.397C195.051 218.78 194.9 219.147 194.631 219.418C194.362 219.689 193.996 219.843 193.615 219.845Z" fill="#263238"/>
<path d="M214.403 219.845H198.841C198.459 219.843 198.094 219.689 197.825 219.418C197.555 219.147 197.404 218.78 197.404 218.397C197.404 218.015 197.556 217.649 197.825 217.379C198.094 217.109 198.46 216.957 198.841 216.957H214.403C214.784 216.957 215.15 217.109 215.419 217.379C215.688 217.649 215.84 218.015 215.84 218.397C215.84 218.78 215.689 219.147 215.419 219.418C215.15 219.689 214.785 219.843 214.403 219.845Z" fill="#263238"/>
<path opacity="0.4" d="M201.202 213.418H171.406C171.025 213.418 170.66 213.266 170.39 212.996C170.121 212.726 169.97 212.36 169.97 211.978C169.97 211.595 170.121 211.228 170.39 210.957C170.659 210.686 171.024 210.532 171.406 210.53H201.202C201.584 210.532 201.949 210.686 202.218 210.957C202.487 211.228 202.638 211.595 202.638 211.978C202.638 212.36 202.487 212.726 202.218 212.996C201.948 213.266 201.583 213.418 201.202 213.418Z" fill="white"/>
<path opacity="0.4" d="M223.572 213.418H206.619C206.238 213.418 205.873 213.266 205.603 212.996C205.334 212.726 205.183 212.36 205.183 211.978C205.183 211.595 205.334 211.228 205.603 210.957C205.872 210.686 206.237 210.532 206.619 210.53H223.572C223.954 210.532 224.319 210.686 224.588 210.957C224.857 211.228 225.008 211.595 225.008 211.978C225.008 212.36 224.857 212.726 224.588 212.996C224.318 213.266 223.953 213.418 223.572 213.418Z" fill="white"/>
<path opacity="0.4" d="M193.615 219.845H171.459C171.077 219.843 170.712 219.689 170.443 219.418C170.174 219.147 170.022 218.78 170.022 218.397C170.022 218.015 170.174 217.649 170.443 217.379C170.713 217.109 171.078 216.957 171.459 216.957H193.615C193.996 216.957 194.361 217.109 194.63 217.379C194.9 217.649 195.051 218.015 195.051 218.397C195.051 218.78 194.9 219.147 194.631 219.418C194.362 219.689 193.996 219.843 193.615 219.845Z" fill="white"/>
<path opacity="0.4" d="M214.403 219.845H198.841C198.459 219.843 198.094 219.689 197.825 219.418C197.555 219.147 197.404 218.78 197.404 218.397C197.404 218.015 197.556 217.649 197.825 217.379C198.094 217.109 198.46 216.957 198.841 216.957H214.403C214.784 216.957 215.15 217.109 215.419 217.379C215.688 217.649 215.84 218.015 215.84 218.397C215.84 218.78 215.689 219.147 215.419 219.418C215.15 219.689 214.785 219.843 214.403 219.845Z" fill="white"/>
<path opacity="0.5" d="M253.665 143.413H236.223C235.715 143.413 235.227 143.21 234.867 142.85C234.508 142.489 234.306 142 234.306 141.49C234.306 140.98 234.508 140.491 234.867 140.131C235.227 139.77 235.715 139.567 236.223 139.567H253.665C254.174 139.567 254.662 139.77 255.021 140.131C255.381 140.491 255.583 140.98 255.583 141.49C255.583 142 255.381 142.489 255.021 142.85C254.662 143.21 254.174 143.413 253.665 143.413Z" fill="white"/>
<path d="M162.498 178.028H106.695V224.54H162.498V178.028Z" fill="#2B2B2B"/>
<path opacity="0.8" d="M162.498 178.028H106.695V224.54H162.498V178.028Z" fill="white"/>
<path d="M152.283 183.275H116.917V206.585H152.283V183.275Z" fill="#2B2B2B"/>
<path opacity="0.4" d="M152.283 183.275H116.917V206.585H152.283V183.275Z" fill="white"/>
<path d="M129.011 195.991L118.438 206.593H139.585L129.011 195.991Z" fill="#2B2B2B"/>
<path opacity="0.2" d="M129.011 195.991L118.438 206.593H139.585L129.011 195.991Z" fill="black"/>
<path d="M151.924 206.593L141.426 188.638L130.937 206.593H151.924Z" fill="#2B2B2B"/>
<path opacity="0.8" d="M133.924 190.737C133.924 191.158 133.799 191.57 133.566 191.92C133.332 192.27 133.001 192.543 132.612 192.704C132.224 192.865 131.797 192.908 131.385 192.825C130.973 192.743 130.595 192.54 130.298 192.243C130.001 191.945 129.799 191.565 129.717 191.152C129.635 190.739 129.677 190.311 129.837 189.922C129.998 189.533 130.27 189.2 130.62 188.966C130.969 188.732 131.38 188.607 131.8 188.607C132.079 188.606 132.356 188.661 132.614 188.767C132.872 188.874 133.106 189.031 133.304 189.229C133.501 189.427 133.658 189.662 133.764 189.921C133.87 190.18 133.925 190.457 133.924 190.737Z" fill="white"/>
<path d="M241.541 156.879H240.777C240.777 156.369 240.575 155.88 240.215 155.52C239.856 155.159 239.368 154.957 238.859 154.957H237.637C237.638 154.704 237.589 154.453 237.493 154.219C237.397 153.984 237.256 153.772 237.078 153.592C236.9 153.413 236.688 153.271 236.455 153.173C236.222 153.076 235.972 153.026 235.719 153.026H223.923C223.67 153.026 223.421 153.076 223.187 153.173C222.954 153.271 222.742 153.413 222.564 153.592C222.386 153.772 222.245 153.984 222.149 154.219C222.053 154.453 222.004 154.704 222.005 154.957H220.783C220.274 154.957 219.787 155.159 219.427 155.52C219.067 155.88 218.865 156.369 218.865 156.879H214.908C214.431 156.922 213.987 157.142 213.664 157.497C213.34 157.851 213.161 158.314 213.161 158.794C213.161 159.275 213.34 159.737 213.664 160.092C213.987 160.446 214.431 160.667 214.908 160.709H241.541C242.018 160.667 242.462 160.446 242.785 160.092C243.108 159.737 243.287 159.275 243.287 158.794C243.287 158.314 243.108 157.851 242.785 157.497C242.462 157.142 242.018 156.922 241.541 156.879Z" fill="#2B2B2B"/>
<path opacity="0.8" d="M241.541 156.879H240.777C240.777 156.369 240.575 155.88 240.215 155.52C239.856 155.159 239.368 154.957 238.859 154.957H237.637C237.638 154.704 237.589 154.453 237.493 154.219C237.397 153.984 237.256 153.772 237.078 153.592C236.9 153.413 236.688 153.271 236.455 153.173C236.222 153.076 235.972 153.026 235.719 153.026H223.923C223.67 153.026 223.421 153.076 223.187 153.173C222.954 153.271 222.742 153.413 222.564 153.592C222.386 153.772 222.245 153.984 222.149 154.219C222.053 154.453 222.004 154.704 222.005 154.957H220.783C220.274 154.957 219.787 155.159 219.427 155.52C219.067 155.88 218.865 156.369 218.865 156.879H214.908C214.431 156.922 213.987 157.142 213.664 157.497C213.34 157.851 213.161 158.314 213.161 158.794C213.161 159.275 213.34 159.737 213.664 160.092C213.987 160.446 214.431 160.667 214.908 160.709H241.541C242.018 160.667 242.462 160.446 242.785 160.092C243.108 159.737 243.287 159.275 243.287 158.794C243.287 158.314 243.108 157.851 242.785 157.497C242.462 157.142 242.018 156.922 241.541 156.879Z" fill="white"/>
<path d="M141.969 171.142H141.305C141.305 170.712 141.134 170.299 140.83 169.994C140.526 169.69 140.114 169.518 139.685 169.518H138.653C138.653 169.088 138.483 168.675 138.179 168.37C137.875 168.066 137.463 167.895 137.034 167.895H133.573C133.143 167.895 132.731 168.066 132.428 168.37C132.124 168.675 131.953 169.088 131.953 169.518H130.922C130.709 169.518 130.499 169.56 130.303 169.642C130.107 169.724 129.929 169.844 129.779 169.995C129.629 170.145 129.511 170.325 129.43 170.521C129.35 170.718 129.309 170.929 129.31 171.142H125.963C125.534 171.142 125.122 171.313 124.818 171.618C124.514 171.923 124.344 172.336 124.344 172.766C124.344 173.197 124.514 173.61 124.818 173.915C125.122 174.219 125.534 174.39 125.963 174.39H141.969C142.399 174.39 142.811 174.219 143.115 173.915C143.418 173.61 143.589 173.197 143.589 172.766C143.589 172.336 143.418 171.923 143.115 171.618C142.811 171.313 142.399 171.142 141.969 171.142Z" fill="#2B2B2B"/>
<path opacity="0.8" d="M141.969 171.142H141.305C141.305 170.712 141.134 170.299 140.83 169.994C140.526 169.69 140.114 169.518 139.685 169.518H138.653C138.653 169.088 138.483 168.675 138.179 168.37C137.875 168.066 137.463 167.895 137.034 167.895H133.573C133.143 167.895 132.731 168.066 132.428 168.37C132.124 168.675 131.953 169.088 131.953 169.518H130.922C130.709 169.518 130.499 169.56 130.303 169.642C130.107 169.724 129.929 169.844 129.779 169.995C129.629 170.145 129.511 170.325 129.43 170.521C129.35 170.718 129.309 170.929 129.31 171.142H125.963C125.534 171.142 125.122 171.313 124.818 171.618C124.514 171.923 124.344 172.336 124.344 172.766C124.344 173.197 124.514 173.61 124.818 173.915C125.122 174.219 125.534 174.39 125.963 174.39H141.969C142.399 174.39 142.811 174.219 143.115 173.915C143.418 173.61 143.589 173.197 143.589 172.766C143.589 172.336 143.418 171.923 143.115 171.618C142.811 171.313 142.399 171.142 141.969 171.142Z" fill="white"/>
<path d="M197.283 176.289H196.519C196.519 175.78 196.317 175.291 195.957 174.93C195.597 174.569 195.11 174.367 194.601 174.367H193.379C193.377 174.028 193.287 173.695 193.119 173.402C193.289 173.11 193.378 172.779 193.379 172.441C193.38 172.103 193.292 171.772 193.123 171.479C192.955 171.187 192.713 170.944 192.421 170.776C192.129 170.608 191.798 170.52 191.461 170.522H187.366C186.857 170.522 186.37 170.724 186.01 171.085C185.65 171.445 185.448 171.934 185.448 172.444H183.844C183.335 172.444 182.848 172.647 182.488 173.007C182.128 173.368 181.926 173.857 181.926 174.367H180.711C180.459 174.366 180.209 174.415 179.975 174.511C179.742 174.607 179.529 174.749 179.351 174.927C179.172 175.106 179.03 175.318 178.933 175.552C178.836 175.786 178.786 176.036 178.786 176.289H174.829C174.352 176.332 173.908 176.553 173.585 176.907C173.261 177.261 173.082 177.724 173.082 178.204C173.082 178.685 173.261 179.148 173.585 179.502C173.908 179.856 174.352 180.077 174.829 180.119H197.275C197.752 180.077 198.196 179.856 198.519 179.502C198.842 179.148 199.022 178.685 199.022 178.204C199.022 177.724 198.842 177.261 198.519 176.907C198.196 176.553 197.752 176.332 197.275 176.289H197.283Z" fill="#2B2B2B"/>
<path opacity="0.8" d="M197.283 176.289H196.519C196.519 175.78 196.317 175.291 195.957 174.93C195.597 174.569 195.11 174.367 194.601 174.367H193.379C193.377 174.028 193.287 173.695 193.119 173.402C193.289 173.11 193.378 172.779 193.379 172.441C193.38 172.103 193.292 171.772 193.123 171.479C192.955 171.187 192.713 170.944 192.421 170.776C192.129 170.608 191.798 170.52 191.461 170.522H187.366C186.857 170.522 186.37 170.724 186.01 171.085C185.65 171.445 185.448 171.934 185.448 172.444H183.844C183.335 172.444 182.848 172.647 182.488 173.007C182.128 173.368 181.926 173.857 181.926 174.367H180.711C180.459 174.366 180.209 174.415 179.975 174.511C179.742 174.607 179.529 174.749 179.351 174.927C179.172 175.106 179.03 175.318 178.933 175.552C178.836 175.786 178.786 176.036 178.786 176.289H174.829C174.352 176.332 173.908 176.553 173.585 176.907C173.261 177.261 173.082 177.724 173.082 178.204C173.082 178.685 173.261 179.148 173.585 179.502C173.908 179.856 174.352 180.077 174.829 180.119H197.275C197.752 180.077 198.196 179.856 198.519 179.502C198.842 179.148 199.022 178.685 199.022 178.204C199.022 177.724 198.842 177.261 198.519 176.907C198.196 176.553 197.752 176.332 197.275 176.289H197.283Z" fill="white"/>
<path d="M149.822 212.177H117.734C117.626 212.178 117.519 212.158 117.419 212.117C117.319 212.076 117.228 212.016 117.151 211.94C117.075 211.864 117.014 211.773 116.972 211.673C116.931 211.573 116.909 211.466 116.909 211.358C116.909 211.138 116.996 210.928 117.151 210.773C117.306 210.617 117.515 210.53 117.734 210.53H149.822C149.931 210.53 150.038 210.552 150.138 210.593C150.238 210.635 150.329 210.696 150.406 210.773C150.482 210.849 150.543 210.941 150.585 211.041C150.626 211.141 150.647 211.249 150.647 211.358C150.647 211.466 150.626 211.573 150.584 211.673C150.543 211.773 150.482 211.864 150.405 211.94C150.329 212.016 150.238 212.076 150.137 212.117C150.037 212.158 149.93 212.178 149.822 212.177Z" fill="#263238"/>
<path opacity="0.4" d="M149.822 212.177H117.734C117.626 212.178 117.519 212.158 117.419 212.117C117.319 212.076 117.228 212.016 117.151 211.94C117.075 211.864 117.014 211.773 116.972 211.673C116.931 211.573 116.909 211.466 116.909 211.358C116.909 211.138 116.996 210.928 117.151 210.773C117.306 210.617 117.515 210.53 117.734 210.53H149.822C149.931 210.53 150.038 210.552 150.138 210.593C150.238 210.635 150.329 210.696 150.406 210.773C150.482 210.849 150.543 210.941 150.585 211.041C150.626 211.141 150.647 211.249 150.647 211.358C150.647 211.466 150.626 211.573 150.584 211.673C150.543 211.773 150.482 211.864 150.405 211.94C150.329 212.016 150.238 212.076 150.137 212.117C150.037 212.158 149.93 212.178 149.822 212.177Z" fill="white"/>
<path d="M144.62 215.478H117.742C117.634 215.478 117.526 215.457 117.426 215.415C117.326 215.373 117.235 215.313 117.159 215.236C117.082 215.159 117.021 215.068 116.98 214.967C116.938 214.867 116.917 214.759 116.917 214.651C116.917 214.542 116.938 214.435 116.98 214.335C117.022 214.235 117.082 214.145 117.159 214.068C117.236 213.992 117.327 213.932 117.427 213.891C117.527 213.851 117.634 213.83 117.742 213.831H144.62C144.836 213.831 145.044 213.917 145.198 214.071C145.351 214.225 145.437 214.433 145.437 214.651C145.438 214.759 145.418 214.866 145.377 214.967C145.336 215.067 145.276 215.158 145.2 215.235C145.124 215.312 145.034 215.373 144.934 215.415C144.835 215.457 144.728 215.478 144.62 215.478Z" fill="#263238"/>
<path opacity="0.4" d="M144.62 215.478H117.742C117.634 215.478 117.526 215.457 117.426 215.415C117.326 215.373 117.235 215.313 117.159 215.236C117.082 215.159 117.021 215.068 116.98 214.967C116.938 214.867 116.917 214.759 116.917 214.651C116.917 214.542 116.938 214.435 116.98 214.335C117.022 214.235 117.082 214.145 117.159 214.068C117.236 213.992 117.327 213.932 117.427 213.891C117.527 213.851 117.634 213.83 117.742 213.831H144.62C144.836 213.831 145.044 213.917 145.198 214.071C145.351 214.225 145.437 214.433 145.437 214.651C145.438 214.759 145.418 214.866 145.377 214.967C145.336 215.067 145.276 215.158 145.2 215.235C145.124 215.312 145.034 215.373 144.934 215.415C144.835 215.457 144.728 215.478 144.62 215.478Z" fill="white"/>
<path d="M146.316 218.772H117.742C117.634 218.773 117.527 218.752 117.427 218.712C117.327 218.671 117.236 218.611 117.159 218.535C117.082 218.458 117.022 218.368 116.98 218.268C116.938 218.168 116.917 218.061 116.917 217.952C116.917 217.844 116.938 217.736 116.98 217.636C117.021 217.535 117.082 217.444 117.159 217.367C117.235 217.29 117.326 217.23 117.426 217.188C117.526 217.146 117.634 217.125 117.742 217.125H146.316C146.424 217.125 146.531 217.146 146.63 217.188C146.73 217.23 146.82 217.291 146.896 217.368C146.972 217.445 147.033 217.536 147.073 217.636C147.114 217.737 147.134 217.844 147.133 217.952C147.133 218.17 147.047 218.378 146.894 218.532C146.74 218.686 146.533 218.772 146.316 218.772Z" fill="#263238"/>
<path opacity="0.4" d="M146.316 218.772H117.742C117.634 218.773 117.527 218.752 117.427 218.712C117.327 218.671 117.236 218.611 117.159 218.535C117.082 218.458 117.022 218.368 116.98 218.268C116.938 218.168 116.917 218.061 116.917 217.952C116.917 217.844 116.938 217.736 116.98 217.636C117.021 217.535 117.082 217.444 117.159 217.367C117.235 217.29 117.326 217.23 117.426 217.188C117.526 217.146 117.634 217.125 117.742 217.125H146.316C146.424 217.125 146.531 217.146 146.63 217.188C146.73 217.23 146.82 217.291 146.896 217.368C146.972 217.445 147.033 217.536 147.073 217.636C147.114 217.737 147.134 217.844 147.133 217.952C147.133 218.17 147.047 218.378 146.894 218.532C146.74 218.686 146.533 218.772 146.316 218.772Z" fill="white"/>
<path d="M129.378 128.155C129.087 127.891 128.706 127.75 128.314 127.76C127.922 127.771 127.549 127.932 127.272 128.21C126.995 128.489 126.836 128.864 126.827 129.257C126.818 129.65 126.96 130.032 127.224 130.322C127.476 130.574 127.808 130.729 128.162 130.761C128.517 130.793 128.871 130.7 129.164 130.499C129.172 130.578 129.204 130.653 129.256 130.713L130.287 131.74C130.321 131.773 130.361 131.8 130.405 131.818C130.449 131.836 130.496 131.846 130.543 131.846C130.591 131.846 130.638 131.836 130.682 131.818C130.726 131.8 130.766 131.773 130.799 131.74C130.833 131.706 130.859 131.666 130.878 131.622C130.896 131.578 130.905 131.531 130.905 131.483C130.905 131.435 130.896 131.388 130.878 131.344C130.859 131.3 130.833 131.26 130.799 131.226L129.775 130.192C129.715 130.14 129.641 130.108 129.562 130.1C129.762 129.805 129.853 129.45 129.819 129.094C129.786 128.739 129.63 128.407 129.378 128.155ZM129.073 130.008C128.921 130.161 128.728 130.266 128.517 130.309C128.307 130.351 128.088 130.33 127.889 130.248C127.69 130.166 127.521 130.027 127.401 129.848C127.281 129.669 127.217 129.458 127.217 129.242C127.217 129.027 127.281 128.816 127.401 128.637C127.521 128.458 127.69 128.319 127.889 128.237C128.088 128.155 128.307 128.134 128.517 128.176C128.728 128.219 128.921 128.323 129.073 128.476C129.272 128.681 129.384 128.956 129.384 129.242C129.384 129.529 129.272 129.804 129.073 130.008Z" fill="#2B2B2B"/>
<path opacity="0.2" d="M129.378 128.155C129.087 127.891 128.706 127.75 128.314 127.76C127.922 127.771 127.549 127.932 127.272 128.21C126.995 128.489 126.836 128.864 126.827 129.257C126.818 129.65 126.96 130.032 127.224 130.322C127.476 130.574 127.808 130.729 128.162 130.761C128.517 130.793 128.871 130.7 129.164 130.499C129.172 130.578 129.204 130.653 129.256 130.713L130.287 131.74C130.321 131.773 130.361 131.8 130.405 131.818C130.449 131.836 130.496 131.846 130.543 131.846C130.591 131.846 130.638 131.836 130.682 131.818C130.726 131.8 130.766 131.773 130.799 131.74C130.833 131.706 130.859 131.666 130.878 131.622C130.896 131.578 130.905 131.531 130.905 131.483C130.905 131.435 130.896 131.388 130.878 131.344C130.859 131.3 130.833 131.26 130.799 131.226L129.775 130.192C129.715 130.14 129.641 130.108 129.562 130.1C129.762 129.805 129.853 129.45 129.819 129.094C129.786 128.739 129.63 128.407 129.378 128.155ZM129.073 130.008C128.921 130.161 128.728 130.266 128.517 130.309C128.307 130.351 128.088 130.33 127.889 130.248C127.69 130.166 127.521 130.027 127.401 129.848C127.281 129.669 127.217 129.458 127.217 129.242C127.217 129.027 127.281 128.816 127.401 128.637C127.521 128.458 127.69 128.319 127.889 128.237C128.088 128.155 128.307 128.134 128.517 128.176C128.728 128.219 128.921 128.323 129.073 128.476C129.272 128.681 129.384 128.956 129.384 129.242C129.384 129.529 129.272 129.804 129.073 130.008Z" fill="black"/>
<path d="M294.365 176.29C293.959 176.29 293.571 176.451 293.284 176.739C292.998 177.026 292.837 177.416 292.837 177.822V192.728H280.353L282.79 190.285C282.932 190.143 283.045 189.974 283.122 189.788C283.198 189.602 283.238 189.402 283.238 189.201C283.238 189 283.198 188.8 283.122 188.614C283.045 188.428 282.932 188.259 282.79 188.117C282.504 187.832 282.116 187.672 281.713 187.672C281.309 187.672 280.922 187.832 280.635 188.117L274.523 194.245L280.635 200.373C280.922 200.658 281.309 200.819 281.713 200.819C282.116 200.819 282.504 200.658 282.79 200.373C282.932 200.231 283.045 200.062 283.122 199.876C283.198 199.69 283.238 199.491 283.238 199.289C283.238 199.088 283.198 198.889 283.122 198.703C283.045 198.517 282.932 198.348 282.79 198.205L280.353 195.762H295.893V177.822C295.893 177.416 295.732 177.026 295.445 176.739C295.158 176.451 294.77 176.29 294.365 176.29Z" fill="#2B2B2B"/>
<path opacity="0.7" d="M294.365 176.29C293.959 176.29 293.571 176.451 293.284 176.739C292.998 177.026 292.837 177.416 292.837 177.822V192.728H280.353L282.79 190.285C282.932 190.143 283.045 189.974 283.122 189.788C283.198 189.602 283.238 189.402 283.238 189.201C283.238 189 283.198 188.8 283.122 188.614C283.045 188.428 282.932 188.259 282.79 188.117C282.504 187.832 282.116 187.672 281.713 187.672C281.309 187.672 280.922 187.832 280.635 188.117L274.523 194.245L280.635 200.373C280.922 200.658 281.309 200.819 281.713 200.819C282.116 200.819 282.504 200.658 282.79 200.373C282.932 200.231 283.045 200.062 283.122 199.876C283.198 199.69 283.238 199.491 283.238 199.289C283.238 199.088 283.198 198.889 283.122 198.703C283.045 198.517 282.932 198.348 282.79 198.205L280.353 195.762H295.893V177.822C295.893 177.416 295.732 177.026 295.445 176.739C295.158 176.451 294.77 176.29 294.365 176.29Z" fill="white"/>
<path opacity="0.4" d="M336.201 14.9092V22.1555H343.429L336.201 14.9092Z" fill="white"/>
<path d="M343.726 25.0968L343.78 56.5028C343.78 56.6995 343.705 56.8888 343.57 57.0314C343.435 57.174 343.25 57.259 343.054 57.2688L314.068 57.3225C313.865 57.3225 313.671 57.2417 313.528 57.0981C313.384 56.9544 313.304 56.7596 313.304 56.5565L313.228 15.6674C313.228 15.4642 313.308 15.2694 313.451 15.1257C313.595 14.9821 313.789 14.9014 313.992 14.9014H333.519L343.726 25.0968Z" fill="#2B2B2B"/>
<g opacity="0.7">
<path d="M343.726 25.0968L343.78 56.5028C343.78 56.6995 343.705 56.8888 343.57 57.0314C343.435 57.174 343.25 57.259 343.054 57.2688L314.068 57.3225C313.865 57.3225 313.671 57.2417 313.528 57.0981C313.384 56.9544 313.304 56.7596 313.304 56.5565L313.228 15.6674C313.228 15.4642 313.308 15.2694 313.451 15.1257C313.595 14.9821 313.789 14.9014 313.992 14.9014H333.519L343.726 25.0968Z" fill="white"/>
</g>
<path d="M333.534 14.9092V24.3923C333.534 24.5954 333.615 24.7902 333.758 24.9339C333.901 25.0776 334.096 25.1583 334.298 25.1583H343.726L333.534 14.9092Z" fill="#2B2B2B"/>
<path opacity="0.9" d="M333.534 14.9092V24.3923C333.534 24.5954 333.615 24.7902 333.758 24.9339C333.901 25.0776 334.096 25.1583 334.298 25.1583H343.726L333.534 14.9092Z" fill="white"/>
<g opacity="0.8">
<path d="M336.323 33.8986H320.898C320.659 33.8986 320.429 33.8034 320.26 33.6338C320.091 33.4643 319.996 33.2344 319.996 32.9947C319.996 32.876 320.019 32.7585 320.065 32.6488C320.11 32.5391 320.176 32.4395 320.26 32.3556C320.344 32.2716 320.443 32.205 320.553 32.1596C320.662 32.1142 320.779 32.0908 320.898 32.0908H336.323C336.441 32.0908 336.558 32.1142 336.668 32.1596C336.777 32.205 336.877 32.2716 336.96 32.3556C337.044 32.4395 337.11 32.5391 337.156 32.6488C337.201 32.7585 337.224 32.876 337.224 32.9947C337.224 33.2344 337.129 33.4643 336.96 33.6338C336.791 33.8034 336.562 33.8986 336.323 33.8986Z" fill="white"/>
<path d="M336.147 39.0843H320.867C320.749 39.0853 320.632 39.0629 320.523 39.0183C320.414 38.9737 320.314 38.9078 320.23 38.8245C320.146 38.7412 320.08 38.642 320.035 38.5328C319.989 38.4236 319.966 38.3064 319.966 38.1881C319.966 37.9483 320.061 37.7184 320.23 37.5489C320.399 37.3794 320.628 37.2842 320.867 37.2842H336.147C336.386 37.2842 336.616 37.3794 336.785 37.5489C336.954 37.7184 337.049 37.9483 337.049 38.1881C337.049 38.3064 337.025 38.4236 336.98 38.5328C336.935 38.642 336.868 38.7412 336.784 38.8245C336.701 38.9078 336.601 38.9737 336.492 39.0183C336.382 39.0629 336.265 39.0853 336.147 39.0843Z" fill="white"/>
<path d="M335.819 44.5998H320.898C320.659 44.5998 320.429 44.5045 320.26 44.335C320.091 44.1655 319.996 43.9356 319.996 43.6959C319.996 43.4561 320.091 43.2262 320.26 43.0567C320.429 42.8872 320.659 42.792 320.898 42.792H335.819C336.058 42.792 336.287 42.8872 336.456 43.0567C336.625 43.2262 336.72 43.4561 336.72 43.6959C336.72 43.9356 336.625 44.1655 336.456 44.335C336.287 44.5045 336.058 44.5998 335.819 44.5998Z" fill="white"/>
</g>
<path d="M242.382 29.417H200.247V57.1922H242.382V29.417Z" fill="#2B2B2B"/>
<path opacity="0.7" d="M242.382 29.417H200.247V57.1922H242.382V29.417Z" fill="white"/>
<path d="M214.656 44.5605L202.058 57.1919H227.254L214.656 44.5605Z" fill="#2B2B2B"/>
<path opacity="0.3" d="M214.656 44.5605L202.058 57.1919H227.254L214.656 44.5605Z" fill="white"/>
<path d="M241.946 57.1924L229.447 35.8057L216.948 57.1924H241.946Z" fill="#2B2B2B"/>
<path opacity="0.5" d="M241.946 57.1924L229.447 35.8057L216.948 57.1924H241.946Z" fill="white"/>
<path opacity="0.8" d="M217.987 40.8453C219.383 40.8453 220.516 39.7102 220.516 38.3099C220.516 36.9096 219.383 35.7744 217.987 35.7744C216.59 35.7744 215.458 36.9096 215.458 38.3099C215.458 39.7102 216.59 40.8453 217.987 40.8453Z" fill="white"/>
<path d="M187.427 69.2719C187.427 68.9655 187.427 68.6668 187.389 68.3604L191.209 65.7253C191.003 64.8105 190.717 63.9158 190.353 63.052L185.693 63.1822C185.374 62.6627 185.017 62.1684 184.623 61.7038L186.151 57.3146C185.439 56.694 184.672 56.1402 183.859 55.6601L180.169 58.5019C179.606 58.2695 179.026 58.0801 178.435 57.9351L177.121 53.4693C176.652 53.4234 176.186 53.4004 175.722 53.4004C175.249 53.4004 174.783 53.4004 174.317 53.4693L173.003 57.9351C172.411 58.0801 171.831 58.2695 171.268 58.5019L167.578 55.6601C166.765 56.1402 165.998 56.694 165.286 57.3146L166.814 61.7038C166.423 62.1704 166.065 62.6644 165.745 63.1822L161.092 63.052C160.725 63.9156 160.437 64.8103 160.229 65.7253L164.049 68.3604C164.049 68.6668 164.01 68.9655 164.01 69.2719C164.01 69.5783 164.01 69.8847 164.049 70.1911L160.229 72.8261C160.438 73.7409 160.727 74.6354 161.092 75.4995L165.745 75.3693C166.065 75.8871 166.423 76.3811 166.814 76.8476L165.286 81.2368C166 81.8548 166.767 82.4085 167.578 82.8914L171.268 80.0495C171.83 80.2829 172.41 80.4699 173.003 80.6087L174.317 85.0821C174.783 85.0821 175.249 85.1511 175.722 85.1511C176.196 85.1511 176.655 85.1511 177.121 85.0821L178.435 80.6087C179.027 80.4699 179.607 80.2829 180.169 80.0495L183.859 82.8914C184.67 82.4085 185.437 81.8548 186.151 81.2368L184.623 76.8476C185.017 76.383 185.374 75.8888 185.693 75.3693L190.353 75.4995C190.716 74.6352 191.002 73.7407 191.209 72.8261L187.389 70.1911C187.412 69.8847 187.427 69.586 187.427 69.2719ZM175.799 74.6339C174.741 74.6339 173.707 74.3194 172.828 73.7302C171.948 73.1411 171.263 72.3036 170.858 71.3239C170.453 70.3441 170.347 69.266 170.554 68.2258C170.76 67.1857 171.269 66.2303 172.017 65.4804C172.765 64.7305 173.718 64.2198 174.755 64.0129C175.793 63.806 176.868 63.9122 177.845 64.3181C178.823 64.7239 179.658 65.4112 180.246 66.2929C180.833 67.1747 181.147 68.2114 181.147 69.2719C181.147 70.694 180.583 72.0578 179.58 73.0634C178.578 74.069 177.217 74.6339 175.799 74.6339Z" fill="#2B2B2B"/>
<path opacity="0.7" d="M187.427 69.2719C187.427 68.9655 187.427 68.6668 187.389 68.3604L191.209 65.7253C191.003 64.8105 190.717 63.9158 190.353 63.052L185.693 63.1822C185.374 62.6627 185.017 62.1684 184.623 61.7038L186.151 57.3146C185.439 56.694 184.672 56.1402 183.859 55.6601L180.169 58.5019C179.606 58.2695 179.026 58.0801 178.435 57.9351L177.121 53.4693C176.652 53.4234 176.186 53.4004 175.722 53.4004C175.249 53.4004 174.783 53.4004 174.317 53.4693L173.003 57.9351C172.411 58.0801 171.831 58.2695 171.268 58.5019L167.578 55.6601C166.765 56.1402 165.998 56.694 165.286 57.3146L166.814 61.7038C166.423 62.1704 166.065 62.6644 165.745 63.1822L161.092 63.052C160.725 63.9156 160.437 64.8103 160.229 65.7253L164.049 68.3604C164.049 68.6668 164.01 68.9655 164.01 69.2719C164.01 69.5783 164.01 69.8847 164.049 70.1911L160.229 72.8261C160.438 73.7409 160.727 74.6354 161.092 75.4995L165.745 75.3693C166.065 75.8871 166.423 76.3811 166.814 76.8476L165.286 81.2368C166 81.8548 166.767 82.4085 167.578 82.8914L171.268 80.0495C171.83 80.2829 172.41 80.4699 173.003 80.6087L174.317 85.0821C174.783 85.0821 175.249 85.1511 175.722 85.1511C176.196 85.1511 176.655 85.1511 177.121 85.0821L178.435 80.6087C179.027 80.4699 179.607 80.2829 180.169 80.0495L183.859 82.8914C184.67 82.4085 185.437 81.8548 186.151 81.2368L184.623 76.8476C185.017 76.383 185.374 75.8888 185.693 75.3693L190.353 75.4995C190.716 74.6352 191.002 73.7407 191.209 72.8261L187.389 70.1911C187.412 69.8847 187.427 69.586 187.427 69.2719ZM175.799 74.6339C174.741 74.6339 173.707 74.3194 172.828 73.7302C171.948 73.1411 171.263 72.3036 170.858 71.3239C170.453 70.3441 170.347 69.266 170.554 68.2258C170.76 67.1857 171.269 66.2303 172.017 65.4804C172.765 64.7305 173.718 64.2198 174.755 64.0129C175.793 63.806 176.868 63.9122 177.845 64.3181C178.823 64.7239 179.658 65.4112 180.246 66.2929C180.833 67.1747 181.147 68.2114 181.147 69.2719C181.147 70.694 180.583 72.0578 179.58 73.0634C178.578 74.069 177.217 74.6339 175.799 74.6339Z" fill="white"/>
<path d="M202.034 88.0386C202.034 87.8471 202.034 87.6479 202.034 87.4564L204.51 85.7559C204.376 85.1658 204.189 84.589 203.952 84.0324L200.957 84.1167C200.75 83.7829 200.517 83.4653 200.262 83.1668L201.263 80.3326C200.808 79.9388 200.323 79.5827 199.811 79.2679L197.435 81.0986C197.07 80.95 196.695 80.8297 196.312 80.7386L195.472 77.8585C194.869 77.7972 194.263 77.7972 193.661 77.8585L192.813 80.7386C192.433 80.8308 192.06 80.9512 191.697 81.0986L189.321 79.2679C188.807 79.5826 188.319 79.9387 187.862 80.3326L188.871 83.1668C188.615 83.4653 188.383 83.7829 188.175 84.1167L185.18 84.0324C184.943 84.589 184.757 85.1658 184.623 85.7559L187.098 87.4564C187.098 87.6479 187.098 87.8471 187.098 88.0386C187.098 88.2301 187.098 88.4369 187.098 88.6284L184.607 90.3289C184.741 90.9191 184.928 91.4959 185.165 92.0524L188.16 91.9682C188.367 92.302 188.6 92.6195 188.855 92.918L187.847 95.7522C188.304 96.1462 188.792 96.5023 189.306 96.817L191.682 94.9786C192.045 95.1332 192.421 95.2562 192.805 95.3462L193.646 98.2264C193.944 98.2264 194.249 98.2264 194.547 98.2264C194.845 98.2264 195.158 98.2264 195.456 98.2264L196.297 95.3462C196.681 95.2562 197.057 95.1332 197.42 94.9786L199.796 96.817C200.308 96.5022 200.793 96.1461 201.247 95.7522L200.247 92.918C200.502 92.6195 200.734 92.302 200.942 91.9682L203.937 92.0524C204.174 91.4959 204.36 90.9191 204.494 90.3289L202.019 88.6284C202.027 88.4369 202.034 88.2378 202.034 88.0386ZM194.539 91.4933C193.858 91.4933 193.192 91.2907 192.625 90.9111C192.058 90.5315 191.617 89.9919 191.356 89.3606C191.095 88.7294 191.027 88.0348 191.16 87.3646C191.293 86.6945 191.621 86.0789 192.103 85.5958C192.585 85.1127 193.199 84.7836 193.867 84.6503C194.536 84.517 195.228 84.5854 195.858 84.8469C196.488 85.1084 197.026 85.5512 197.404 86.1193C197.783 86.6874 197.985 87.3553 197.985 88.0386C197.986 88.4926 197.898 88.9422 197.725 89.3618C197.552 89.7814 197.298 90.1627 196.978 90.4837C196.658 90.8047 196.278 91.0591 195.859 91.2324C195.441 91.4056 194.992 91.4943 194.539 91.4933Z" fill="#2B2B2B"/>
<path opacity="0.7" d="M202.034 88.0386C202.034 87.8471 202.034 87.6479 202.034 87.4564L204.51 85.7559C204.376 85.1658 204.189 84.589 203.952 84.0324L200.957 84.1167C200.75 83.7829 200.517 83.4653 200.262 83.1668L201.263 80.3326C200.808 79.9388 200.323 79.5827 199.811 79.2679L197.435 81.0986C197.07 80.95 196.695 80.8297 196.312 80.7386L195.472 77.8585C194.869 77.7972 194.263 77.7972 193.661 77.8585L192.813 80.7386C192.433 80.8308 192.06 80.9512 191.697 81.0986L189.321 79.2679C188.807 79.5826 188.319 79.9387 187.862 80.3326L188.871 83.1668C188.615 83.4653 188.383 83.7829 188.175 84.1167L185.18 84.0324C184.943 84.589 184.757 85.1658 184.623 85.7559L187.098 87.4564C187.098 87.6479 187.098 87.8471 187.098 88.0386C187.098 88.2301 187.098 88.4369 187.098 88.6284L184.607 90.3289C184.741 90.9191 184.928 91.4959 185.165 92.0524L188.16 91.9682C188.367 92.302 188.6 92.6195 188.855 92.918L187.847 95.7522C188.304 96.1462 188.792 96.5023 189.306 96.817L191.682 94.9786C192.045 95.1332 192.421 95.2562 192.805 95.3462L193.646 98.2264C193.944 98.2264 194.249 98.2264 194.547 98.2264C194.845 98.2264 195.158 98.2264 195.456 98.2264L196.297 95.3462C196.681 95.2562 197.057 95.1332 197.42 94.9786L199.796 96.817C200.308 96.5022 200.793 96.1461 201.247 95.7522L200.247 92.918C200.502 92.6195 200.734 92.302 200.942 91.9682L203.937 92.0524C204.174 91.4959 204.36 90.9191 204.494 90.3289L202.019 88.6284C202.027 88.4369 202.034 88.2378 202.034 88.0386ZM194.539 91.4933C193.858 91.4933 193.192 91.2907 192.625 90.9111C192.058 90.5315 191.617 89.9919 191.356 89.3606C191.095 88.7294 191.027 88.0348 191.16 87.3646C191.293 86.6945 191.621 86.0789 192.103 85.5958C192.585 85.1127 193.199 84.7836 193.867 84.6503C194.536 84.517 195.228 84.5854 195.858 84.8469C196.488 85.1084 197.026 85.5512 197.404 86.1193C197.783 86.6874 197.985 87.3553 197.985 88.0386C197.986 88.4926 197.898 88.9422 197.725 89.3618C197.552 89.7814 197.298 90.1627 196.978 90.4837C196.658 90.8047 196.278 91.0591 195.859 91.2324C195.441 91.4056 194.992 91.4943 194.539 91.4933Z" fill="white"/>
<path d="M177.946 89.0886V104.661L175.501 102.218C175.215 101.933 174.827 101.772 174.424 101.772C174.02 101.772 173.633 101.933 173.347 102.218C173.205 102.36 173.092 102.529 173.015 102.715C172.938 102.901 172.898 103.1 172.898 103.302C172.898 103.503 172.938 103.702 173.015 103.888C173.092 104.074 173.205 104.243 173.347 104.386L179.459 110.514L185.571 104.386C185.713 104.243 185.825 104.074 185.902 103.888C185.979 103.702 186.019 103.503 186.019 103.302C186.019 103.1 185.979 102.901 185.902 102.715C185.825 102.529 185.713 102.36 185.571 102.218C185.284 101.933 184.897 101.772 184.493 101.772C184.09 101.772 183.702 101.933 183.416 102.218L180.979 104.661V89.0886C180.979 88.6823 180.818 88.2927 180.531 88.0054C180.245 87.718 179.856 87.5566 179.451 87.5566C179.05 87.5627 178.667 87.7267 178.385 88.0134C178.104 88.3 177.946 88.6863 177.946 89.0886Z" fill="#2B2B2B"/>
<path opacity="0.7" d="M177.946 89.0886V104.661L175.501 102.218C175.215 101.933 174.827 101.772 174.424 101.772C174.02 101.772 173.633 101.933 173.347 102.218C173.205 102.36 173.092 102.529 173.015 102.715C172.938 102.901 172.898 103.1 172.898 103.302C172.898 103.503 172.938 103.702 173.015 103.888C173.092 104.074 173.205 104.243 173.347 104.386L179.459 110.514L185.571 104.386C185.713 104.243 185.825 104.074 185.902 103.888C185.979 103.702 186.019 103.503 186.019 103.302C186.019 103.1 185.979 102.901 185.902 102.715C185.825 102.529 185.713 102.36 185.571 102.218C185.284 101.933 184.897 101.772 184.493 101.772C184.09 101.772 183.702 101.933 183.416 102.218L180.979 104.661V89.0886C180.979 88.6823 180.818 88.2927 180.531 88.0054C180.245 87.718 179.856 87.5566 179.451 87.5566C179.05 87.5627 178.667 87.7267 178.385 88.0134C178.104 88.3 177.946 88.6863 177.946 89.0886Z" fill="white"/>
<path d="M151.702 98.1729H105.992C103.097 98.1729 100.751 100.525 100.751 103.428V111.494C100.751 114.396 103.097 116.748 105.992 116.748H151.702C154.597 116.748 156.943 114.396 156.943 111.494V103.428C156.943 100.525 154.597 98.1729 151.702 98.1729Z" fill="#2B2B2B"/>
<path opacity="0.7" d="M151.702 98.1729H105.992C103.097 98.1729 100.751 100.525 100.751 103.428V111.494C100.751 114.396 103.097 116.748 105.992 116.748H151.702C154.597 116.748 156.943 114.396 156.943 111.494V103.428C156.943 100.525 154.597 98.1729 151.702 98.1729Z" fill="white"/>
<path opacity="0.8" d="M130.547 102.316C129.898 101.665 129.077 101.212 128.181 101.011C127.285 100.81 126.35 100.868 125.486 101.18C124.622 101.492 123.865 102.044 123.302 102.772C122.739 103.499 122.395 104.373 122.309 105.289C122.223 106.206 122.4 107.128 122.818 107.948C123.235 108.768 123.877 109.452 124.668 109.919C125.46 110.387 126.367 110.619 127.285 110.588C128.203 110.558 129.093 110.266 129.851 109.747C129.876 109.997 129.983 110.232 130.157 110.413L133.419 113.684C133.637 113.894 133.927 114.01 134.229 114.008C134.531 114.005 134.82 113.884 135.034 113.671C135.248 113.457 135.37 113.168 135.373 112.866C135.377 112.563 135.263 112.271 135.054 112.052L131.792 108.781C131.61 108.603 131.373 108.493 131.12 108.467C131.754 107.536 132.043 106.411 131.939 105.288C131.834 104.165 131.342 103.114 130.547 102.316ZM129.599 108.176C129.119 108.659 128.506 108.988 127.839 109.121C127.172 109.254 126.48 109.186 125.852 108.925C125.224 108.665 124.686 108.223 124.308 107.656C123.93 107.089 123.729 106.422 123.729 105.74C123.729 105.059 123.93 104.392 124.308 103.825C124.686 103.258 125.224 102.816 125.852 102.555C126.48 102.295 127.172 102.227 127.839 102.36C128.506 102.493 129.119 102.822 129.599 103.305C129.919 103.624 130.173 104.004 130.346 104.422C130.519 104.84 130.608 105.288 130.608 105.74C130.608 106.193 130.519 106.641 130.346 107.059C130.173 107.477 129.919 107.857 129.599 108.176Z" fill="white"/>
</g>
<defs>
<clipPath id="clip0_101_450">
<rect width="506" height="455" fill="white" transform="translate(0 -87)"/>
</clipPath>
</defs>
</svg>
