<svg width="374" height="374" viewBox="0 0 374 374" fill="none" xmlns="http://www.w3.org/2000/svg">
<path d="M101.959 94.5254C95.1629 94.5254 88.6447 91.8255 83.8388 87.0196C79.0329 82.2137 76.333 75.6955 76.333 68.8989C76.333 62.1024 79.0329 55.5842 83.8388 50.7783C88.6447 45.9724 95.1629 43.2725 101.959 43.2725C108.756 43.2725 115.274 45.9724 120.08 50.7783C124.886 55.5842 127.586 62.1024 127.586 68.8989C127.586 75.6955 124.886 82.2137 120.08 87.0196C115.274 91.8255 108.756 94.5254 101.959 94.5254Z" fill="#EBEBEB"/>
<path d="M95.6391 63.1914H90.3358V80.3281H95.6391V63.1914Z" fill="white"/>
<path d="M92.9613 60.9471C93.5883 60.953 94.203 60.7725 94.7272 60.4284C95.2514 60.0844 95.6616 59.5923 95.9057 59.0147C96.1498 58.4371 96.2167 57.8 96.098 57.1843C95.9794 56.5686 95.6804 56.002 95.2391 55.5565C94.7978 55.111 94.2341 54.8067 93.6196 54.6822C93.005 54.5576 92.3673 54.6185 91.7874 54.8571C91.2075 55.0957 90.7116 55.5012 90.3625 56.0221C90.0135 56.5431 89.8272 57.156 89.8272 57.783C89.8252 58.6176 90.1538 59.4191 90.7411 60.012C91.3284 60.6049 92.1267 60.9411 92.9613 60.9471Z" fill="white"/>
<path d="M104.121 71.3293C104.121 68.9208 105.228 67.4846 107.353 67.4846C109.297 67.4846 110.24 68.8609 110.24 71.3293V80.3053H115.513V69.4743C115.513 64.8816 112.918 62.6675 109.282 62.6675C108.251 62.6542 107.234 62.9075 106.33 63.4029C105.426 63.8983 104.665 64.6189 104.121 65.4949V63.1911H99.0273V80.3203H104.121V71.3293Z" fill="white"/>
<path d="M136.3 17.8701L139.808 24.2805L146.226 27.7961L139.808 31.3042L136.3 37.7146L132.792 31.3042L126.374 27.7961L132.792 24.2805L136.3 17.8701Z" fill="#F5F5F5"/>
<path d="M282.647 191.69L285.28 196.508L290.089 199.133L285.28 201.766L282.647 206.583L280.014 201.766L275.204 199.133L280.014 196.508L282.647 191.69Z" fill="#EBEBEB"/>
<path d="M290.089 167.934L291.278 170.103L293.448 171.292L291.278 172.481L290.089 174.651L288.907 172.481L286.73 171.292L288.907 170.103L290.089 167.934Z" fill="#E0E0E0"/>
<path d="M111.235 20.2783L112.424 22.455L114.593 23.6368L112.424 24.8262L111.235 26.9954L110.053 24.8262L107.876 23.6368L110.053 22.455L111.235 20.2783Z" fill="#E0E0E0"/>
<path d="M51.709 221.977C53.0892 221.345 54.254 220.322 55.0595 219.035C55.8651 217.748 56.2761 216.254 56.2419 214.736C56.2419 210.45 52.9133 207.009 48.8966 207.039C44.8798 207.069 41.6559 210.577 41.6933 214.863C41.6825 216.394 42.1258 217.893 42.9674 219.171C43.8089 220.449 45.0107 221.449 46.4207 222.044C35.2456 223.877 35.9038 236.039 35.9038 236.039L62.3755 235.815C62.3755 235.815 62.8318 223.51 51.709 221.977Z" fill="#E0E0E0"/>
<path d="M305.663 302.148C305.476 301.188 304.955 300.326 304.191 299.716C303.428 299.105 302.473 298.786 301.495 298.814C300.518 298.843 299.583 299.218 298.857 299.873C298.131 300.527 297.661 301.418 297.532 302.387C297.396 301.42 296.921 300.532 296.191 299.882C295.462 299.233 294.525 298.863 293.549 298.84C292.572 298.816 291.619 299.141 290.86 299.755C290.1 300.369 289.583 301.233 289.401 302.192C289.205 303.61 289.564 305.049 290.403 306.209C291.234 307.353 292.209 308.384 293.306 309.276C294.802 310.6 296.155 311.834 297.636 313.151C299.132 311.819 300.352 310.57 301.818 309.239C302.909 308.337 303.878 307.296 304.698 306.142C305.516 304.982 305.861 303.553 305.663 302.148Z" fill="#EBEBEB"/>
<path d="M322.904 144.476L325.739 143.915L330.227 134.057L329.105 128.394C329.105 128.394 333.436 127.257 334.394 134.775C335.351 142.292 335.531 140.295 335.531 140.295C335.531 140.295 344.843 138.485 345.778 139.136C346.459 139.614 348.546 148.815 349.638 153.811C349.94 155.009 349.832 156.273 349.332 157.403C348.832 158.532 347.968 159.461 346.878 160.042C346.567 160.195 346.238 160.306 345.898 160.371C343.579 160.835 331.342 161.299 331.342 161.299L326.442 162.271L322.904 144.476Z" fill="#E0E0E0"/>
<path d="M314.474 144.529L320.061 163.588L324.923 162.623L321.153 143.616L314.474 144.529Z" fill="#E0E0E0"/>
<path d="M351.912 351.051C351.912 351.163 277.733 351.245 186.252 351.245C94.7719 351.245 20.5703 351.163 20.5703 351.051C20.5703 350.939 94.7345 350.856 186.252 350.856C277.77 350.856 351.912 350.946 351.912 351.051Z" fill="#263238"/>
<path d="M294.286 136.996C287.037 140.52 278.685 141.02 271.067 138.388C263.449 135.755 257.189 130.204 253.662 122.957C250.139 115.707 249.638 107.356 252.271 99.7376C254.904 92.1196 260.454 85.8591 267.702 82.3326C271.291 80.5869 275.189 79.5653 279.173 79.3261C283.158 79.0869 287.15 79.6348 290.922 80.9386C294.694 82.2423 298.173 84.2764 301.159 86.9245C304.145 89.5727 306.581 92.7832 308.326 96.3726C310.072 99.9618 311.093 103.86 311.333 107.844C311.572 111.828 311.024 115.82 309.72 119.592C308.416 123.365 306.382 126.843 303.734 129.83C301.086 132.816 297.875 135.251 294.286 136.996Z" fill="#A3A09F"/>
<path d="M273.484 116.456C273.595 116.454 273.705 116.426 273.804 116.376C273.904 116.326 273.99 116.254 274.059 116.166C274.127 116.077 274.174 115.975 274.198 115.866C274.221 115.757 274.22 115.645 274.194 115.536C274.12 115.17 273.918 114.242 273.843 113.861C273.738 113.33 273.611 113.187 273.095 112.948C271.755 112.332 270.689 111.242 270.103 109.889C267.814 105.176 269.288 99.2447 274.942 96.4995C279.947 94.0611 284.188 95.7515 286.162 99.8655C288.773 105.244 288.601 110.936 285.07 112.656C284.63 112.899 284.139 113.034 283.637 113.052C283.135 113.07 282.636 112.97 282.18 112.759C281.723 112.549 281.323 112.235 281.01 111.841C280.698 111.448 280.482 110.987 280.38 110.495C279.797 107.862 279.632 104.787 278.81 103.082C278.062 101.586 276.625 100.681 274.935 101.504C272.938 102.476 272.339 105.318 273.686 108.079C274.166 109.099 274.857 110.007 275.713 110.741C275.713 110.741 277.882 120.376 278.256 122.066C279.004 125.425 281.413 128.798 281.645 129.18C281.678 129.222 281.722 129.254 281.773 129.272C281.823 129.29 281.878 129.294 281.931 129.282C281.983 129.27 282.031 129.244 282.069 129.206C282.107 129.168 282.134 129.12 282.146 129.067C282.213 128.738 283.163 124.654 282.542 121.333C282.37 120.391 281.36 115.566 281.36 115.566C282.609 116.486 285.033 116.658 287.045 115.678C293.029 112.761 294.45 105.318 290.89 98.003C288.205 92.4753 281.009 89.603 273.895 93.0662C265.032 97.3747 263.655 105.894 266.228 111.19C267.784 114.399 270.365 116.688 273.484 116.456Z" fill="white"/>
<path d="M324.632 222.725C322.059 221.744 319.706 220.265 317.705 218.374C315.705 216.482 314.097 214.215 312.973 211.701C311.85 209.188 311.233 206.477 311.158 203.725C311.083 200.973 311.552 198.233 312.537 195.662C313.517 193.09 314.995 190.736 316.885 188.736C318.776 186.735 321.043 185.126 323.555 184.002C326.068 182.878 328.778 182.261 331.53 182.185C334.281 182.109 337.021 182.576 339.592 183.56C342.164 184.541 344.518 186.019 346.519 187.911C348.519 189.802 350.127 192.07 351.251 194.583C352.374 197.097 352.991 199.807 353.066 202.559C353.14 205.311 352.672 208.051 351.687 210.622C350.707 213.195 349.229 215.548 347.338 217.549C345.448 219.55 343.181 221.158 340.668 222.282C338.156 223.406 335.446 224.024 332.694 224.1C329.942 224.176 327.203 223.709 324.632 222.725Z" fill="#A3A09F"/>
<path fill-rule="evenodd" clip-rule="evenodd" d="M343.063 206.703C343.998 203.953 343.837 200.949 342.613 198.315C341.39 195.681 339.198 193.62 336.495 192.56C333.791 191.501 330.782 191.524 328.095 192.626C325.408 193.727 323.249 195.822 322.067 198.475C321.999 198.624 321.939 198.781 321.88 198.931C321.148 200.837 320.956 202.907 321.326 204.915L317.279 209.799L323.832 210.173C325.095 211.667 326.724 212.806 328.56 213.48C330.396 214.154 332.375 214.34 334.304 214.019C336.234 213.697 338.046 212.88 339.564 211.648C341.083 210.415 342.255 208.809 342.966 206.987C343.003 206.894 343.036 206.799 343.063 206.703ZM329.06 211.737C327.326 211.078 325.825 209.923 324.744 208.416L320.922 208.199L323.278 205.356C322.75 203.441 322.847 201.408 323.555 199.552C323.667 199.268 323.794 198.983 323.929 198.714C324.995 196.603 326.81 194.966 329.019 194.123C331.228 193.28 333.673 193.292 335.873 194.157C338.074 195.022 339.873 196.676 340.918 198.798C341.963 200.919 342.178 203.354 341.522 205.625C341.455 205.865 341.38 206.097 341.29 206.329C340.384 208.666 338.587 210.549 336.294 211.563C334.001 212.577 331.399 212.639 329.06 211.737Z" fill="white"/>
<path fill-rule="evenodd" clip-rule="evenodd" d="M336.451 206.897C336.234 206.673 335.209 205.566 334.999 205.401C334.79 205.236 334.64 205.117 334.371 205.311C334.102 205.506 333.376 205.887 333.167 205.999C332.957 206.112 332.793 206.074 332.583 205.85C331.936 205.257 331.397 204.556 330.99 203.778C330.627 203.046 330.375 202.265 330.242 201.459C330.197 201.145 330.377 201.055 330.556 200.98C330.736 200.906 330.93 200.778 331.117 200.681L331.259 200.591C331.357 200.516 331.45 200.433 331.536 200.345C331.6 200.289 331.648 200.217 331.675 200.137C331.703 200.057 331.709 199.971 331.693 199.888C331.693 199.739 331.641 198.273 331.618 197.682C331.596 197.091 331.349 197.091 331.2 197.031C331.05 196.971 330.885 196.881 330.713 196.821C330.581 196.774 330.441 196.754 330.3 196.763C330.16 196.772 330.023 196.81 329.898 196.874C329.503 197.04 329.146 197.285 328.85 197.595C328.553 197.906 328.325 198.274 328.178 198.676C328.069 198.973 328.001 199.282 327.976 199.597C327.933 200.316 328.017 201.038 328.223 201.728C328.29 201.945 328.926 205.251 331.155 207.286C333.384 209.321 333.526 208.976 334.02 209.111C334.411 209.188 334.815 209.178 335.203 209.082C335.59 208.986 335.952 208.807 336.264 208.558C336.582 208.242 336.798 207.838 336.884 207.398C336.802 207.256 336.66 207.121 336.451 206.897Z" fill="white"/>
<path d="M52.0834 125.844C47.844 125.844 43.7782 124.159 40.7805 121.162C37.7827 118.164 36.0986 114.098 36.0986 109.859C36.0986 105.619 37.7827 101.554 40.7805 98.5558C43.7782 95.5581 47.844 93.874 52.0834 93.874C54.1825 93.874 56.2611 94.2875 58.2005 95.0908C60.1399 95.8941 61.902 97.0715 63.3863 98.5558C64.8706 100.04 66.0481 101.802 66.8514 103.742C67.6547 105.681 68.0682 107.76 68.0682 109.859C68.0682 111.958 67.6547 114.037 66.8514 115.976C66.0481 117.915 64.8706 119.677 63.3863 121.162C61.902 122.646 60.1399 123.823 58.2005 124.627C56.2611 125.43 54.1825 125.844 52.0834 125.844Z" fill="#A3A09F"/>
<path d="M43.5712 115.192C45.1063 116.171 46.8808 116.711 48.7013 116.751C50.5218 116.791 52.3184 116.331 53.8954 115.421C55.4725 114.51 56.7693 113.184 57.6448 111.588C58.5202 109.991 58.9407 108.185 58.8603 106.366C59.536 105.875 60.1208 105.27 60.5882 104.578C59.9478 104.859 59.27 105.045 58.576 105.131C59.3076 104.704 59.8601 104.027 60.1319 103.224C59.4395 103.636 58.6798 103.922 57.8879 104.069C57.3633 103.495 56.6626 103.113 55.8963 102.981C55.13 102.85 54.3418 102.977 53.6559 103.343C52.97 103.709 52.4255 104.293 52.1082 105.003C51.791 105.713 51.7191 106.508 51.9039 107.263C50.5141 107.192 49.1548 106.829 47.9139 106.199C46.6731 105.569 45.5784 104.685 44.7006 103.606C44.2559 104.376 44.1205 105.287 44.3218 106.153C44.5232 107.02 45.0463 107.778 45.7852 108.273C45.2294 108.259 44.6852 108.11 44.1995 107.839C44.1902 108.654 44.4653 109.446 44.9773 110.079C45.4893 110.713 46.2062 111.148 47.0045 111.31C46.4898 111.45 45.95 111.471 45.4262 111.37C45.6501 112.063 46.0847 112.669 46.6692 113.103C47.2538 113.537 47.9593 113.779 48.6875 113.793C47.2304 114.91 45.3939 115.412 43.5712 115.192Z" fill="white"/>
<path d="M80.7841 304.892C73.6853 306.578 66.2074 305.377 59.994 301.552C53.7805 297.727 49.3398 291.592 47.6477 284.494C46.8089 280.976 46.6717 277.326 47.2442 273.755C47.8166 270.183 49.0874 266.759 50.9839 263.679C52.8804 260.599 55.3654 257.922 58.2968 255.803C61.2282 253.684 64.5486 252.163 68.0681 251.328C71.5847 250.49 75.232 250.353 78.8016 250.924C82.3713 251.496 85.7933 252.765 88.8725 254.659C91.9516 256.553 94.6275 259.035 96.7473 261.964C98.8671 264.892 100.389 268.209 101.227 271.726C102.066 275.246 102.202 278.897 101.628 282.47C101.054 286.043 99.7813 289.468 97.8826 292.548C95.9839 295.629 93.4963 298.304 90.5624 300.423C87.6285 302.541 84.3057 304.06 80.7841 304.892Z" fill="#455A64"/>
<path d="M71.5611 266.079C75.4806 265.144 75.9518 265.047 77.5451 264.748C78.4775 264.538 79.4388 264.49 80.3875 264.605C81.0818 264.689 81.7488 264.927 82.3397 265.301C82.9361 265.663 83.4466 266.151 83.8357 266.73C84.3651 267.526 84.7547 268.406 84.9877 269.333C85.429 270.866 85.5561 271.33 86.4837 275.25C87.4112 279.169 87.5084 279.64 87.8076 281.234C88.021 282.165 88.0691 283.127 87.9497 284.076C87.8734 284.772 87.6351 285.441 87.2541 286.028C86.8969 286.626 86.4115 287.137 85.8329 287.524C85.0342 288.053 84.1515 288.443 83.2224 288.676C81.7264 289.117 81.2327 289.245 77.3132 290.172C73.3937 291.1 72.9224 291.204 71.3292 291.504C70.3948 291.717 69.4303 291.765 68.4793 291.646C67.7844 291.564 67.117 291.326 66.527 290.95C65.9366 290.577 65.44 290.073 65.0759 289.476C64.5418 288.682 64.1495 287.802 63.9165 286.873C63.4827 285.34 63.3555 284.884 62.4205 280.964C61.4855 277.045 61.3883 276.573 61.0891 274.98C60.8836 274.045 60.8356 273.082 60.9469 272.13C61.0389 271.439 61.2756 270.774 61.6417 270.18C62.0077 269.586 62.4948 269.075 63.0713 268.682C63.8662 268.149 64.7466 267.757 65.6743 267.523C67.1703 267.089 67.6715 266.962 71.591 266.027M70.9627 263.379C66.9758 264.329 66.4747 264.463 64.9263 264.912C63.7148 265.213 62.5637 265.719 61.5229 266.408C60.6399 267.019 59.8934 267.806 59.3307 268.72C58.768 269.634 58.4014 270.656 58.2541 271.719C58.097 272.966 58.1527 274.231 58.4187 275.459C58.7254 277.037 58.8226 277.546 59.7726 281.533C60.7225 285.52 60.8572 286.021 61.2686 287.562C61.5678 288.774 62.0739 289.925 62.7646 290.965C63.3732 291.881 64.1781 292.65 65.1208 293.216C66.0279 293.787 67.0492 294.153 68.1128 294.286C69.3597 294.444 70.6245 294.388 71.8528 294.122C73.4311 293.822 73.9397 293.718 77.9265 292.768C81.9134 291.818 82.4145 291.683 83.9554 291.272C85.1652 290.966 86.3154 290.46 87.3588 289.776C88.2509 289.174 89.0014 288.385 89.5579 287.464C90.1258 286.555 90.493 285.535 90.6351 284.472C90.7899 283.225 90.7317 281.96 90.463 280.732C90.1638 279.147 90.0591 278.645 89.1091 274.659C88.1592 270.672 88.0245 270.171 87.6131 268.622C87.3059 267.413 86.8004 266.263 86.1171 265.219C85.5152 264.329 84.7264 263.581 83.8058 263.027C82.9001 262.452 81.8784 262.084 80.8138 261.95C79.5669 261.792 78.3021 261.848 77.0738 262.115C75.4881 262.421 74.9869 262.519 71.0001 263.469" fill="white"/>
<path d="M72.6308 270.575C71.14 270.93 69.788 271.719 68.7458 272.843C67.7035 273.966 67.0178 275.374 66.7753 276.887C66.5329 278.4 66.7446 279.951 67.3836 281.344C68.0227 282.737 69.0604 283.91 70.3656 284.713C71.6709 285.516 73.1849 285.914 74.7164 285.857C76.2479 285.8 77.728 285.29 78.9696 284.391C80.2112 283.493 81.1586 282.246 81.6919 280.81C82.2253 279.373 82.3206 277.81 81.9659 276.319C81.4883 274.321 80.237 272.593 78.4868 271.516C76.7365 270.439 74.6304 270.1 72.6308 270.575ZM75.6228 283.014C74.6543 283.243 73.6397 283.179 72.7072 282.832C71.7747 282.484 70.9662 281.868 70.3838 281.061C69.8014 280.254 69.4713 279.292 69.4352 278.297C69.3991 277.303 69.6585 276.32 70.1808 275.473C70.7031 274.626 71.4648 273.952 72.3696 273.538C73.2744 273.124 74.2817 272.987 75.2643 273.144C76.2469 273.302 77.1607 273.748 77.8902 274.425C78.6197 275.102 79.1321 275.98 79.3628 276.948C79.5163 277.592 79.5412 278.26 79.4363 278.913C79.3313 279.567 79.0984 280.193 78.751 280.757C78.4036 281.32 77.9485 281.809 77.4118 282.197C76.875 282.584 76.2671 282.862 75.6228 283.014Z" fill="white"/>
<path d="M82.1605 267.994C82.2422 268.342 82.219 268.706 82.0938 269.041C81.9685 269.376 81.7469 269.667 81.4567 269.876C81.1666 270.085 80.821 270.204 80.4635 270.216C80.1061 270.229 79.7528 270.136 79.4484 269.948C79.1439 269.761 78.9019 269.487 78.7528 269.162C78.6037 268.837 78.5543 268.475 78.6108 268.122C78.6673 267.768 78.8271 267.44 79.0702 267.177C79.3132 266.915 79.6285 266.731 79.9763 266.647C80.2082 266.591 80.449 266.581 80.6848 266.618C80.9206 266.655 81.1466 266.739 81.3498 266.864C81.553 266.989 81.7293 267.153 81.8684 267.347C82.0076 267.541 82.1069 267.761 82.1605 267.994Z" fill="white"/>
<path d="M289.334 280.665C287.648 280.666 285.978 280.334 284.42 279.69C282.862 279.045 281.446 278.1 280.253 276.908C279.061 275.716 278.114 274.3 277.469 272.743C276.823 271.185 276.491 269.515 276.491 267.829C276.491 266.143 276.823 264.473 277.469 262.915C278.114 261.357 279.061 259.942 280.253 258.75C281.446 257.558 282.862 256.613 284.42 255.968C285.978 255.323 287.648 254.992 289.334 254.993C291.022 254.99 292.693 255.32 294.253 255.964C295.813 256.608 297.231 257.553 298.425 258.745C299.619 259.937 300.567 261.353 301.213 262.912C301.86 264.47 302.192 266.141 302.192 267.829C302.192 269.516 301.86 271.187 301.213 272.746C300.567 274.305 299.619 275.721 298.425 276.913C297.231 278.105 295.813 279.05 294.253 279.694C292.693 280.338 291.022 280.668 289.334 280.665Z" fill="#455A64"/>
<path d="M287.374 275.585H290.501V267.784H292.678L292.917 265.166H290.501V263.67C290.501 263.056 290.628 262.81 291.249 262.81H292.947V260.087H290.778C288.452 260.087 287.404 261.112 287.404 263.079V265.173H285.736V267.784H287.359L287.374 275.585Z" fill="white"/>
<path d="M245.546 351.597L142.404 351.56C136.452 351.56 130.745 349.196 126.536 344.987C122.328 340.779 119.964 335.071 119.964 329.12L120.009 70.5514C120.009 67.6007 120.591 64.6791 121.721 61.9536C122.852 59.2281 124.509 56.7523 126.597 54.668C128.686 52.5837 131.165 50.9317 133.892 49.8066C136.62 48.6815 139.543 48.1055 142.494 48.1114L245.628 48.1712C251.579 48.1712 257.287 50.5354 261.495 54.7437C265.704 58.9521 268.068 64.6598 268.068 70.6112L268.023 329.12C268.028 332.073 267.45 334.998 266.322 337.728C265.194 340.457 263.539 342.937 261.45 345.025C259.362 347.113 256.882 348.769 254.153 349.896C251.424 351.024 248.499 351.602 245.546 351.597Z" fill="#263238"/>
<path d="M245.516 57.237H225.514C224.201 57.2684 222.954 57.8176 222.045 58.7649C221.136 59.7121 220.638 60.9805 220.66 62.2935V65.9213C220.675 66.5732 220.561 67.2216 220.325 67.8295C220.089 68.4374 219.735 68.9927 219.284 69.4638C218.833 69.9349 218.294 70.3124 217.697 70.5747C217.1 70.8371 216.457 70.9791 215.805 70.9927H176.827C176.175 70.9781 175.532 70.8352 174.934 70.572C174.337 70.3089 173.798 69.9307 173.347 69.459C172.896 68.9874 172.543 68.4315 172.307 67.8232C172.071 67.2149 171.957 66.5661 171.972 65.9138V62.2635C171.998 60.9473 171.502 59.6743 170.593 58.7226C169.683 57.7709 168.434 57.218 167.118 57.1846H160.072H142.576C140.51 57.1797 138.463 57.5824 136.553 58.3696C134.643 59.1568 132.907 60.313 131.444 61.7721C129.982 63.2313 128.822 64.9646 128.03 66.8728C127.238 68.781 126.831 70.8267 126.831 72.8926L126.778 325.275C126.778 329.441 128.433 333.437 131.379 336.382C134.325 339.328 138.32 340.983 142.486 340.983L245.426 341.043C247.489 341.043 249.531 340.637 251.437 339.847C253.343 339.058 255.075 337.901 256.533 336.442C257.992 334.984 259.149 333.252 259.938 331.346C260.728 329.441 261.134 327.398 261.134 325.335L261.186 72.945C261.186 68.7854 259.536 64.7957 256.599 61.8509C253.661 58.9062 249.675 57.2469 245.516 57.237Z" fill="white"/>
<path d="M247.019 77.7394C247.019 77.8067 244.416 77.8815 241.214 77.904C238.013 77.9264 235.402 77.904 235.402 77.8366C235.402 77.7693 237.998 77.687 241.207 77.6646C244.416 77.6422 247.019 77.6721 247.019 77.7394Z" fill="#263238"/>
<path d="M247.041 80.7092C247.041 80.7766 244.446 80.8514 241.237 80.8813C238.028 80.9112 235.425 80.8813 235.425 80.8065C235.425 80.7317 238.028 80.6644 241.237 80.6345C244.446 80.6045 247.041 80.6419 247.041 80.7092Z" fill="#263238"/>
<path d="M247.071 83.679C247.071 83.7463 244.468 83.8286 241.259 83.851C238.05 83.8735 235.455 83.851 235.447 83.7762C235.44 83.7014 238.05 83.6341 241.259 83.6042C244.468 83.5743 247.071 83.6117 247.071 83.679Z" fill="#263238"/>
<path d="M137.632 86.581H137.938H138.784L141.91 86.5062L141.82 86.5885C141.82 85.9003 141.82 85.1448 141.783 84.3445C141.783 83.9256 141.783 83.5291 141.783 83.0429C141.832 82.7917 141.96 82.5626 142.149 82.3891C142.337 82.2156 142.576 82.1066 142.83 82.078C143.339 82.078 143.78 82.078 144.326 82.078C144.612 82.1242 144.873 82.2708 145.06 82.4915C145.248 82.7122 145.351 82.9925 145.351 83.2823C145.351 84.3444 145.351 85.444 145.388 86.5885L145.246 86.4463H149.188L149.039 86.5959C149.039 85.0102 149.039 83.3646 148.994 81.6816C148.994 81.2627 148.994 80.8513 148.994 80.4324C148.977 80.2462 148.918 80.0663 148.822 79.9057C148.727 79.7452 148.596 79.6082 148.44 79.5049L146.72 77.7995L145.052 76.1613L144.251 75.3685C143.975 75.0992 143.758 74.8224 143.436 74.7551C143.282 74.7145 143.121 74.7089 142.964 74.7387C142.807 74.7684 142.66 74.8328 142.531 74.9271C142.292 75.1291 142.037 75.4133 141.783 75.6751L140.362 77.1038C139.472 78.0239 138.544 78.8691 137.871 79.6695C137.671 80.1411 137.604 80.6584 137.677 81.1655C137.677 81.6517 137.677 82.1154 137.677 82.5493C137.677 83.402 137.677 84.15 137.677 84.7933C137.677 85.4365 137.677 85.833 137.677 86.2219C137.687 86.3938 137.687 86.5662 137.677 86.7381C137.668 86.5811 137.668 86.4238 137.677 86.2668C137.677 85.8853 137.677 85.4141 137.677 84.8531C137.677 84.2921 137.677 83.4543 137.624 82.6091C137.624 82.1603 137.624 81.6891 137.624 81.1879C137.624 80.9336 137.624 80.6793 137.624 80.4399C137.622 80.1513 137.697 79.8673 137.841 79.6171C138.589 78.727 139.442 77.9341 140.339 76.9841L141.746 75.5405C142 75.2936 142.202 75.0468 142.494 74.7925C142.654 74.6699 142.841 74.5854 143.039 74.5452C143.237 74.5051 143.442 74.5103 143.638 74.5606C144.01 74.6973 144.339 74.9326 144.588 75.2413L145.396 76.0342L147.064 77.6723L148.792 79.3628C148.954 79.5081 149.101 79.6684 149.233 79.8415C149.363 80.04 149.435 80.2703 149.443 80.5072C149.443 80.9261 149.443 81.345 149.443 81.7638C149.443 83.4468 149.443 85.0924 149.48 86.6782V86.8278H149.33H145.388H145.112V86.6857C145.112 85.5413 145.112 84.4417 145.112 83.3795C145.117 83.1513 145.039 82.9289 144.894 82.7531C144.748 82.5773 144.544 82.4598 144.319 82.4221C143.862 82.4221 143.324 82.4221 142.883 82.4221C142.681 82.4423 142.491 82.5254 142.339 82.6596C142.187 82.7939 142.082 82.9725 142.037 83.1701C142.037 83.5665 142.037 84.0228 142.037 84.4267C142.037 85.2421 142.037 86.005 142.037 86.6707V86.7605H141.948H138.769H137.938C137.83 86.7114 137.727 86.6513 137.632 86.581Z" fill="#263238"/>
<path d="M205.7 283.799C205.341 283.855 204.978 283.88 204.615 283.874L201.668 283.934C199.185 283.971 195.744 283.993 191.944 283.993C188.144 283.993 184.704 283.993 182.22 283.934L179.273 283.874C178.91 283.88 178.547 283.855 178.188 283.799C178.547 283.738 178.91 283.713 179.273 283.724L182.22 283.657C184.704 283.657 188.144 283.604 191.944 283.604C195.744 283.604 199.177 283.604 201.668 283.657L204.615 283.724C204.978 283.713 205.342 283.738 205.7 283.799Z" fill="#455A64"/>
<path d="M248.912 290.561C248.912 290.673 233.076 290.755 213.546 290.755C194.016 290.755 178.181 290.673 178.181 290.561C178.181 290.448 194.016 290.366 213.546 290.366C233.076 290.366 248.912 290.456 248.912 290.561Z" fill="#455A64"/>
<path d="M226.808 296.956C226.808 297.068 215.925 297.151 202.498 297.151C189.072 297.151 178.181 297.068 178.181 296.956C178.181 296.844 189.064 296.762 202.498 296.762C215.932 296.762 226.808 296.822 226.808 296.956Z" fill="#455A64"/>
<path d="M250.31 309.321L248.111 307.114L246.017 309.201V302.888H250.303L250.31 309.321ZM248.111 306.837L248.179 306.904L250.116 308.849V303.09H246.219V308.737L248.111 306.837Z" fill="#263238"/>
<path d="M191.794 308.498L191.046 308.154C190.599 308.364 190.09 308.4 189.619 308.254C189.147 308.109 188.746 307.793 188.495 307.368C188.244 306.943 188.161 306.44 188.261 305.957C188.362 305.473 188.639 305.045 189.039 304.755C189.438 304.466 189.932 304.335 190.422 304.39C190.913 304.445 191.365 304.681 191.691 305.051C192.017 305.422 192.193 305.901 192.184 306.395C192.175 306.888 191.983 307.361 191.644 307.72L191.794 308.498ZM189.991 304.294C189.48 304.33 189.001 304.559 188.653 304.936C188.306 305.312 188.114 305.807 188.119 306.32C188.124 306.833 188.324 307.324 188.679 307.694C189.034 308.064 189.517 308.285 190.029 308.311C190.37 308.287 190.701 308.182 190.994 308.004L191.57 308.258L191.435 307.697C191.699 307.409 191.873 307.051 191.935 306.665C191.998 306.28 191.947 305.884 191.788 305.528C191.629 305.171 191.369 304.868 191.041 304.657C190.712 304.446 190.329 304.335 189.939 304.339L189.991 304.294Z" fill="#263238"/>
<path d="M196.776 308.176L195.894 306.007L194.226 304.511H198.265L196.776 308.176ZM194.6 304.638L196.021 305.939L196.769 307.787L198.04 304.608L194.6 304.638Z" fill="#263238"/>
<path d="M198.18 304.463L195.973 305.898L196.054 306.024L198.261 304.588L198.18 304.463Z" fill="#263238"/>
<path d="M185.429 304.93C185.369 304.641 185.21 304.383 184.978 304.2C184.747 304.018 184.458 303.924 184.164 303.933C183.869 303.943 183.588 304.057 183.369 304.254C183.15 304.452 183.008 304.72 182.968 305.012C182.928 304.716 182.783 304.445 182.56 304.247C182.337 304.049 182.051 303.937 181.753 303.932C181.455 303.926 181.165 304.028 180.935 304.218C180.705 304.407 180.551 304.673 180.5 304.967C180.442 305.398 180.552 305.834 180.806 306.186C181.059 306.532 181.356 306.844 181.689 307.114C182.145 307.51 182.557 307.862 183.005 308.281C183.454 307.877 183.828 307.495 184.277 307.091C184.606 306.816 184.898 306.499 185.145 306.149C185.395 305.795 185.497 305.357 185.429 304.93Z" fill="#A3A09F"/>
<path d="M254.813 314.908C254.813 314.908 254.813 314.662 254.813 314.205C254.813 313.749 254.813 313.053 254.813 312.156C254.813 310.353 254.813 307.668 254.776 304.257C254.776 297.383 254.739 287.382 254.709 274.838L254.836 274.965L135.223 275.033L135.418 274.838C135.418 288.766 135.418 302.267 135.418 314.908L135.231 314.721L220.824 314.804L245.807 314.856H252.539H254.275H254.873H254.297H252.584H245.92L220.974 314.908L135.253 314.998H135.059V314.908C135.059 302.267 135.059 288.766 135.059 274.838V274.644H135.268L254.881 274.711H255.008V274.838C255.008 287.412 254.956 297.443 254.941 304.339C254.941 307.765 254.941 310.405 254.941 312.208C254.941 313.091 254.941 313.764 254.941 314.228C254.941 314.691 254.813 314.908 254.813 314.908Z" fill="#263238"/>
<path d="M140.176 281.538L140.023 308.031L173.159 308.222L173.312 281.728L140.176 281.538Z" fill="#EBEBEB"/>
<path d="M173.304 281.712H172.668H170.858H164.058L140.122 281.659L140.302 281.487C140.265 289.379 140.22 298.415 140.175 307.974C140.212 308.026 139.808 307.608 139.98 307.78H142.262H144.506H148.994L157.596 307.832L173.109 307.944L172.952 308.109C173.027 300.15 173.094 293.553 173.147 288.915C173.147 286.611 173.199 284.801 173.214 283.537C173.214 282.931 173.214 282.46 173.214 282.116C173.214 281.772 173.214 281.615 173.214 281.615C173.214 281.615 173.214 281.764 173.214 282.078C173.214 282.393 173.214 282.879 173.214 283.477C173.214 284.726 173.214 286.529 173.214 288.818C173.214 293.478 173.214 300.113 173.214 308.109V308.266H173.049L157.536 308.206L148.934 308.161H144.446H142.202H139.92L139.719 307.959C139.786 298.392 139.838 289.356 139.891 281.472V281.293H140.07L164.081 281.51L170.813 281.6H172.586H173.034L173.304 281.712Z" fill="#263238"/>
<path d="M141.311 283.211L141.178 306.369L171.987 306.547L172.121 283.389L141.311 283.211Z" fill="#E0E0E0"/>
<path d="M141.162 306.351L152.008 292.02L158.62 301.063L163.168 296.276L171.972 306.531L141.162 306.351Z" fill="#F5F5F5"/>
<path d="M161.515 290.314C161.514 290.795 161.37 291.265 161.101 291.664C160.832 292.063 160.451 292.373 160.006 292.556C159.561 292.738 159.071 292.784 158.6 292.688C158.128 292.592 157.696 292.359 157.357 292.017C157.019 291.675 156.789 291.241 156.698 290.768C156.606 290.296 156.657 289.807 156.843 289.364C157.03 288.92 157.344 288.542 157.745 288.277C158.147 288.012 158.618 287.872 159.099 287.875C159.418 287.876 159.734 287.94 160.028 288.063C160.322 288.186 160.589 288.366 160.813 288.593C161.038 288.819 161.215 289.088 161.336 289.383C161.456 289.679 161.517 289.995 161.515 290.314Z" fill="#F5F5F5"/>
<path d="M196.043 109.859C195.924 109.879 195.803 109.879 195.684 109.859L194.674 109.897L190.934 109.964C187.785 109.964 183.454 110.016 178.622 110.016C173.79 110.016 169.459 110.016 166.31 109.964L162.57 109.897L161.553 109.859C161.436 109.88 161.317 109.88 161.201 109.859C161.316 109.831 161.434 109.818 161.553 109.822H162.57L166.31 109.762C169.459 109.725 173.79 109.702 178.622 109.702C183.454 109.702 187.785 109.702 190.934 109.762L194.674 109.822H195.684C195.805 109.819 195.925 109.831 196.043 109.859Z" fill="#263238"/>
<path d="M244.992 256.302L241.73 253.026L238.611 256.13V246.75H244.984L244.992 256.302ZM241.73 252.622L241.828 252.719L244.708 255.606V247.049H238.903V255.442L241.73 252.622Z" fill="#263238"/>
<path d="M162.069 255.315L160.573 254.634C159.702 255.039 158.711 255.105 157.794 254.818C156.877 254.531 156.1 253.913 155.614 253.084C155.129 252.255 154.97 251.274 155.169 250.334C155.368 249.395 155.911 248.563 156.691 248.001C157.47 247.44 158.431 247.19 159.386 247.3C160.34 247.409 161.22 247.871 161.852 248.595C162.484 249.318 162.824 250.251 162.804 251.212C162.785 252.172 162.408 253.091 161.747 253.789L162.069 255.315ZM158.501 247.049C157.982 247.054 157.47 247.16 156.992 247.363C156.515 247.565 156.082 247.86 155.718 248.23C155.354 248.6 155.067 249.037 154.873 249.518C154.678 249.999 154.581 250.514 154.585 251.032C154.59 251.551 154.696 252.064 154.899 252.541C155.101 253.019 155.396 253.451 155.766 253.815C156.136 254.179 156.573 254.466 157.054 254.66C157.535 254.855 158.05 254.952 158.568 254.948C159.241 254.907 159.894 254.702 160.468 254.35L160.535 254.312L161.657 254.813L161.403 253.706L161.455 253.654C161.975 253.087 162.317 252.38 162.44 251.621C162.563 250.862 162.462 250.083 162.148 249.381C161.833 248.679 161.321 248.084 160.673 247.67C160.025 247.255 159.27 247.04 158.501 247.049Z" fill="#263238"/>
<path d="M171.883 254.664L170.133 250.393L166.856 247.401L174.815 247.341L171.883 254.664ZM167.597 247.685L170.394 250.251L171.89 253.886L174.389 247.633L167.597 247.685Z" fill="#263238"/>
<path d="M174.656 247.328L170.317 250.151L170.476 250.396L174.815 247.573L174.656 247.328Z" fill="#263238"/>
<path d="M149.548 248.336C149.435 247.764 149.122 247.25 148.665 246.886C148.208 246.523 147.637 246.334 147.054 246.353C146.47 246.372 145.913 246.597 145.48 246.989C145.048 247.381 144.769 247.915 144.693 248.493C144.607 247.917 144.32 247.39 143.882 247.005C143.444 246.621 142.883 246.405 142.301 246.395C141.718 246.385 141.151 246.582 140.7 246.952C140.249 247.321 139.944 247.838 139.839 248.411C139.726 249.257 139.943 250.114 140.444 250.805C140.946 251.486 141.532 252.102 142.187 252.637C143.077 253.385 143.893 254.133 144.783 254.934C145.651 254.141 146.399 253.393 147.274 252.592C147.92 252.048 148.496 251.425 148.987 250.737C149.473 250.038 149.674 249.179 149.548 248.336Z" fill="#A3A09F"/>
<path d="M148.821 115.259C151.804 115.259 154.222 112.841 154.222 109.859C154.222 106.876 151.804 104.458 148.821 104.458C145.839 104.458 143.421 106.876 143.421 109.859C143.421 112.841 145.839 115.259 148.821 115.259Z" fill="#EBEBEB"/>
<path d="M242.957 225.335C242.957 225.447 220.323 225.537 192.408 225.537C164.492 225.537 141.85 225.447 141.85 225.335C141.85 225.223 164.485 225.141 192.408 225.141C220.331 225.141 242.957 225.23 242.957 225.335Z" fill="#455A64"/>
<path d="M242.957 216.92C242.957 217.025 220.323 217.115 192.408 217.115C164.492 217.115 141.85 217.025 141.85 216.92C141.85 216.815 164.485 216.726 192.408 216.726C220.331 216.726 242.957 216.815 242.957 216.92Z" fill="#455A64"/>
<path d="M196.881 233.869C196.881 233.974 184.561 234.064 169.369 234.064C154.178 234.064 141.851 233.974 141.851 233.869C141.851 233.765 154.17 233.675 169.369 233.675C184.569 233.675 196.881 233.765 196.881 233.869Z" fill="#455A64"/>
<path d="M190.096 325.597C190.089 326.022 189.956 326.435 189.714 326.785C189.472 327.135 189.133 327.405 188.737 327.562C188.342 327.719 187.91 327.755 187.494 327.667C187.078 327.578 186.698 327.368 186.401 327.064C186.104 326.76 185.904 326.375 185.825 325.957C185.747 325.539 185.794 325.108 185.96 324.716C186.126 324.325 186.405 323.992 186.76 323.759C187.116 323.525 187.532 323.402 187.957 323.405C188.242 323.408 188.523 323.467 188.784 323.579C189.046 323.691 189.283 323.853 189.482 324.057C189.681 324.261 189.837 324.501 189.943 324.766C190.048 325.03 190.1 325.312 190.096 325.597Z" fill="#263238"/>
<path d="M196.724 325.627C196.715 326.05 196.581 326.461 196.34 326.808C196.098 327.155 195.76 327.424 195.366 327.579C194.973 327.734 194.542 327.77 194.129 327.682C193.715 327.593 193.337 327.385 193.041 327.082C192.746 326.779 192.546 326.396 192.468 325.98C192.389 325.565 192.436 325.135 192.6 324.746C192.765 324.356 193.042 324.024 193.395 323.791C193.748 323.558 194.161 323.434 194.584 323.436C194.869 323.437 195.151 323.496 195.413 323.607C195.675 323.719 195.912 323.881 196.111 324.085C196.31 324.289 196.467 324.53 196.572 324.795C196.677 325.059 196.729 325.342 196.724 325.627Z" fill="#263238"/>
<path d="M203.403 325.656C203.395 326.079 203.261 326.49 203.019 326.837C202.778 327.185 202.439 327.453 202.046 327.608C201.652 327.764 201.222 327.799 200.808 327.711C200.395 327.622 200.016 327.414 199.721 327.111C199.425 326.808 199.226 326.425 199.148 326.01C199.069 325.594 199.115 325.164 199.28 324.775C199.445 324.385 199.721 324.053 200.074 323.82C200.427 323.587 200.841 323.463 201.264 323.465C201.549 323.468 201.83 323.527 202.091 323.639C202.353 323.75 202.59 323.913 202.789 324.116C202.988 324.32 203.144 324.561 203.25 324.825C203.355 325.089 203.407 325.372 203.403 325.656Z" fill="#263238"/>
<path d="M255.531 120.54H135.903V193.694H255.531V120.54Z" fill="#E0E0E0"/>
<path d="M146.952 193.717L181.226 147.835L202.484 176.528L216.883 161.179L245.135 193.687L146.952 193.717Z" fill="#F5F5F5"/>
<path d="M211.489 142.202C211.491 143.732 211.038 145.229 210.189 146.501C209.34 147.774 208.133 148.767 206.72 149.353C205.307 149.94 203.751 150.094 202.251 149.797C200.75 149.499 199.371 148.763 198.288 147.682C197.206 146.6 196.469 145.222 196.17 143.722C195.871 142.221 196.023 140.666 196.609 139.252C197.194 137.838 198.185 136.63 199.457 135.78C200.729 134.929 202.225 134.476 203.755 134.476C205.805 134.476 207.771 135.289 209.221 136.738C210.671 138.187 211.487 140.152 211.489 142.202Z" fill="#F5F5F5"/>
<path d="M255.21 261.688C255.21 260.125 255.135 194.039 255.03 96.2007L255.21 96.3802H135.597L135.792 96.1857C135.792 158.075 135.792 215.35 135.792 261.673L135.627 261.516L255.255 261.673L135.627 261.838H135.47V261.673C135.47 215.35 135.47 158.075 135.433 96.1857V95.9912H135.642H255.255H255.434V96.1632C255.397 145.135 255.367 186.522 255.344 215.679C255.344 230.235 255.307 241.732 255.3 249.6C255.3 253.52 255.3 256.534 255.3 258.576C255.3 259.586 255.3 260.357 255.3 260.88C255.3 261.404 255.21 261.688 255.21 261.688Z" fill="#263238"/>
<path d="M198.968 282.22L201.616 273.327C202.08 271.397 202.693 269.123 203.516 266.527C204.264 264.193 206.164 261.74 207.899 259.975C210.6 257.23 211.886 257.215 213.696 255.756C213.861 255.651 214.048 255.494 214.205 255.412C214.547 255.226 214.848 254.971 215.088 254.664C216.651 252.973 215.148 250.348 211.969 250.602C209.582 250.789 205.678 251.47 199.335 258.015C199.253 258.12 199.17 258.202 199.095 258.299C195.767 262.63 192.64 250.273 192.072 245.673C191.961 244.96 191.692 244.281 191.284 243.686C190.876 243.092 190.339 242.596 189.713 242.237C189.087 241.878 188.389 241.664 187.67 241.611C186.95 241.559 186.228 241.669 185.557 241.933L170.103 249.159C168.629 248.731 167.057 248.784 165.615 249.308C164.534 249.688 163.632 250.457 163.087 251.465C162.543 252.473 162.393 253.649 162.668 254.761L168.944 279.752L150.535 341.013H190.217L198.968 282.22Z" fill="#FFBE9D"/>
<path d="M229.487 225.956L217.22 249.997L211.086 248.291L180.268 273.372C179.011 274.401 177.401 274.898 175.782 274.759C174.163 274.619 172.662 273.853 171.599 272.624L159.855 258.988C159.855 258.988 183.53 248.792 187.905 240.355C192.281 231.917 187.225 229.995 187.225 229.995L198.363 217.339L229.487 225.956Z" fill="#A3A09F"/>
<path d="M213.577 176.857C213.577 176.857 195.625 172.885 170.35 148.59C145.075 124.295 133.212 92.0037 130.152 92.1832C127.093 92.3627 113.554 86.072 87.8678 141.94C62.1815 197.808 72.3019 210.756 77.3958 210.681C82.4897 210.607 117.204 200.905 138.881 203.366C160.558 205.827 188.421 217.129 188.421 217.129L213.577 176.857Z" fill="#A3A09F"/>
<path d="M251.717 207.308L245.591 218.954L242.846 224.19C241.034 227.637 237.969 230.257 234.282 231.51C230.595 232.762 226.568 232.552 223.031 230.922L184.547 217.511L206.987 166.348L245.434 186.835C248.971 188.728 251.617 191.942 252.793 195.777C253.97 199.612 253.584 203.757 251.717 207.308Z" fill="#A3A09F"/>
<g opacity="0.4">
<path d="M251.717 207.308L245.591 218.954L242.846 224.19C241.034 227.637 237.969 230.257 234.282 231.51C230.595 232.762 226.568 232.552 223.031 230.922L184.547 217.511L206.987 166.348L245.434 186.835C248.971 188.728 251.617 191.942 252.793 195.777C253.97 199.612 253.584 203.757 251.717 207.308Z" fill="black"/>
</g>
<path d="M89.9173 142.957C76.2513 173.221 70.559 200.194 77.2013 203.194C83.8435 206.193 100.322 184.097 113.988 153.826C127.654 123.554 133.346 96.5961 126.704 93.5892C120.062 90.5822 103.583 112.693 89.9173 142.957Z" fill="#A3A09F"/>
<g opacity="0.5">
<path d="M89.9173 142.957C76.2513 173.221 70.559 200.194 77.2013 203.194C83.8435 206.193 100.322 184.097 113.988 153.826C127.654 123.554 133.346 96.5961 126.704 93.5892C120.062 90.5822 103.583 112.693 89.9173 142.957Z" fill="black"/>
</g>
<path d="M255.023 224.138L244.589 220.862L251.044 208.595L258.868 213.457L255.023 224.138Z" fill="#A3A09F"/>
<g opacity="0.6">
<path d="M251.044 208.595L244.589 220.862L246.736 221.535L251.979 209.171L251.044 208.595Z" fill="black"/>
</g>
<path d="M243.848 211.422C243.699 211.758 238.493 209.739 232.224 206.934C225.956 204.129 221.004 201.525 221.147 201.189C221.289 200.852 226.502 202.879 232.778 205.714C239.054 208.549 244.005 211.085 243.848 211.422Z" fill="#A3A09F"/>
<path d="M247.065 204.114C246.901 204.443 242.188 202.461 236.541 199.678C230.893 196.895 226.45 194.375 226.615 194.038C226.779 193.702 231.484 195.691 237.132 198.474C242.779 201.256 247.23 203.777 247.065 204.114Z" fill="#A3A09F"/>
<path d="M239.809 219.089C239.757 219.268 238.515 218.984 236.54 218.341C235.553 218.034 234.379 217.645 233.085 217.204C231.79 216.762 230.467 216.059 229.038 215.409C223.331 212.761 218.97 210.172 219.112 209.858C219.254 209.544 223.944 211.571 229.584 214.197C231.005 214.84 232.322 215.543 233.563 216.059C234.805 216.575 235.919 217.032 236.854 217.451C238.724 218.311 239.861 218.909 239.809 219.089Z" fill="#A3A09F"/>
<path d="M117.781 136.233C117.781 136.233 102.177 126.554 93.6428 147.64C85.1081 168.726 101.519 172.189 101.519 172.189C108.606 161.03 114.081 148.925 117.781 136.233Z" fill="#A3A09F"/>
<g opacity="0.5">
<path d="M134.378 111.101C134.475 111.101 134.251 112.552 133.772 115.132C133.294 117.713 132.575 121.445 131.573 126.038L129.404 133.421C129.01 134.742 128.604 136.111 128.185 137.527L127.549 139.674C127.317 140.422 127.01 141.103 126.741 141.828L123.218 150.924C122.911 151.717 122.597 152.51 122.29 153.31C121.984 154.111 121.542 154.874 121.191 155.666L118.872 160.454L116.546 165.233C116.149 165.981 115.798 166.819 115.371 167.552C114.945 168.285 114.496 169.048 114.07 169.759L109.096 178.159C108.692 178.817 108.348 179.498 107.899 180.126L106.605 181.959L104.122 185.459L99.6336 191.72C96.6416 195.333 94.1432 198.183 92.4228 200.165C91.5778 201.238 90.6446 202.239 89.6328 203.157C90.336 201.989 91.1367 200.883 92.0264 199.851C93.687 197.734 96.0282 194.772 98.9005 191.129L103.202 184.823L105.61 181.315C106.029 180.717 106.448 180.104 106.874 179.483C107.301 178.862 107.622 178.181 108.034 177.516L112.948 169.123L114.227 166.924C114.668 166.176 114.975 165.428 115.386 164.62L117.69 159.87C118.438 158.262 119.239 156.684 120.002 155.12C120.361 154.372 120.794 153.58 121.094 152.787L122.029 150.423L125.604 141.447C125.881 140.699 126.195 140.033 126.434 139.315C126.674 138.597 126.876 137.894 127.093 137.191L128.364 133.129L130.661 125.836L133.256 115.065C133.517 113.714 133.892 112.388 134.378 111.101Z" fill="black"/>
</g>
<g opacity="0.4">
<path d="M163.58 257.311C165.009 259.899 166.46 262.547 168.562 264.589C170.664 266.631 173.536 268.083 176.528 267.783C179.52 267.484 182.25 265.046 182.28 262.099C183.686 263.153 185.848 262.585 187.015 261.261C188.182 259.937 188.563 258.104 188.698 256.346C190.613 257.476 193.276 256.586 194.555 254.768C195.142 253.821 195.514 252.757 195.643 251.65C195.772 250.543 195.656 249.422 195.303 248.365C194.574 246.262 193.538 244.278 192.228 242.479C193.724 242.598 195.265 242.703 196.582 242.037C197.898 241.371 198.826 239.621 198.025 238.365C197.5 237.663 196.737 237.176 195.879 236.996C193.567 236.248 191.952 235.694 189.543 235.971C188.99 235.971 190.508 242.314 175.421 250.976C166.467 256.1 163.58 257.311 163.58 257.311Z" fill="black"/>
</g>
<path d="M197.554 266.437C197.554 266.504 196.545 266.31 194.914 266.355C192.795 266.405 190.711 266.905 188.8 267.822C186.889 268.739 185.194 270.052 183.829 271.673C182.774 272.915 182.333 273.82 182.235 273.782C182.297 273.549 182.396 273.327 182.527 273.124C182.847 272.554 183.21 272.009 183.612 271.493C184.956 269.787 186.674 268.411 188.634 267.472C190.593 266.534 192.741 266.057 194.914 266.078C195.566 266.082 196.217 266.142 196.859 266.257C197.099 266.276 197.335 266.336 197.554 266.437Z" fill="#EB996E"/>
<path d="M164.561 253.265C166.992 255.599 168.652 258.179 171.203 260.528C172.362 261.598 174.195 263.617 175.691 263.887C177.187 264.156 178.234 263.954 178.847 262.503C179.349 261.328 178.451 259.72 177.838 258.763C176.214 256.212 174.659 254.222 173.447 252.24C172.871 251.313 173.611 251.118 173.881 251.552C175.048 252.764 176.798 253.796 177.845 255.135C179.281 256.938 179.536 259.339 183.29 258.576C183.793 258.494 184.269 258.297 184.682 258C186.095 256.915 186.178 255.008 185.564 253.512C185.035 252.357 184.328 251.292 183.47 250.355C185.071 252.158 186.814 254.095 189.357 254.26C190.075 254.347 190.803 254.209 191.439 253.864C192.076 253.52 192.59 252.986 192.91 252.337C193.658 250.632 192.588 248.979 191.503 247.647C189.584 245.28 187.448 243.096 185.123 241.125C184.255 240.396 183.16 239.991 182.026 239.98C180.71 239.98 179.034 240.22 178.286 241.357C177.859 241.905 177.548 242.535 177.372 243.207C177.196 243.88 177.158 244.581 177.262 245.269C177.262 245.269 173.97 243.601 171.322 245.344C169.693 246.489 168.521 248.174 168.016 250.101L164.561 253.265Z" fill="#FFBE9D"/>
<path d="M182.101 239.263C181.575 238.651 181.248 237.894 181.165 237.091C181.083 236.289 181.247 235.48 181.638 234.775C182.199 233.675 182.902 232.605 183.62 232.366C186.754 231.311 200.457 233.682 200.33 236.719C200.203 239.756 199.201 241.207 191.773 240.138C190.464 239.951 188.414 239.696 188.414 239.696L186.619 242.389L182.101 239.263Z" fill="#FFBE9D"/>
<path d="M184.554 251.994C182.756 249.028 180.134 246.65 177.007 245.149C177.517 245.232 178.008 245.404 178.458 245.658C180.71 246.747 182.6 248.461 183.904 250.595C184.205 251.017 184.426 251.491 184.554 251.994Z" fill="#EB996E"/>
<path d="M186.858 242.651C186.791 242.711 185.886 241.978 184.652 241.222C184.135 240.895 183.601 240.598 183.051 240.332C182.624 240.138 182.34 240.085 182.348 240.025C182.355 239.966 182.669 239.936 183.141 240.078C183.747 240.273 184.326 240.547 184.861 240.893C186.125 241.663 186.955 242.569 186.858 242.651Z" fill="#EB996E"/>
<path d="M189.162 239.824C188.271 239.928 187.367 239.825 186.522 239.525C185.903 239.336 185.329 239.025 184.831 238.612C184.457 238.29 184.3 238.029 184.337 237.991C185.057 238.457 185.827 238.838 186.634 239.128C187.491 239.304 188.336 239.536 189.162 239.824Z" fill="#EB996E"/>
<path d="M175.847 255.756C175.375 255.261 174.956 254.716 174.598 254.133C173.744 252.751 172.664 251.522 171.404 250.498C170.098 249.542 168.479 249.115 166.871 249.301C166.212 249.419 165.571 249.623 164.964 249.907C164.964 249.907 165.099 249.75 165.405 249.563C165.842 249.298 166.324 249.115 166.826 249.024C167.664 248.889 168.52 248.922 169.344 249.121C170.169 249.32 170.945 249.681 171.629 250.184C172.93 251.229 174.017 252.517 174.83 253.976C175.219 254.54 175.559 255.135 175.847 255.756Z" fill="#EB996E"/>
<path d="M186.327 286.05C184.483 286.442 182.613 286.71 180.732 286.85C178.862 287.121 176.975 287.261 175.085 287.269C176.932 286.877 178.804 286.61 180.687 286.469C182.556 286.202 184.44 286.062 186.327 286.05Z" fill="#EB996E"/>
<path d="M304.16 37.2803L305.005 38.8286L306.546 39.6739L305.005 40.5191L304.16 42.06L303.314 40.5191L301.774 39.6739L303.314 38.8286L304.16 37.2803Z" fill="#A3A09F"/>
<path d="M321.82 75.5557L322.666 77.104L324.206 77.9493L322.666 78.7945L321.82 80.3354L320.975 78.7945L319.427 77.9493L320.975 77.104L321.82 75.5557Z" fill="#A3A09F"/>
<path d="M38.8217 177.673L39.6669 179.221L41.2153 180.066L39.6669 180.904L38.8217 182.453L37.9764 180.904L36.4355 180.066L37.9764 179.221L38.8217 177.673Z" fill="#A3A09F"/>
<path d="M280.994 46.7949L282.946 50.3629L286.514 52.3152L282.946 54.26L280.994 57.8279L279.049 54.26L275.481 52.3152L279.049 50.3629L280.994 46.7949Z" fill="#A3A09F"/>
<path d="M54.6498 153.415L56.5946 156.968L60.1551 158.913L56.5946 160.865L54.6498 164.418L52.705 160.865L49.1445 158.913L52.705 156.968L54.6498 153.415Z" fill="#A3A09F"/>
<path d="M326.622 238.283L328.567 241.844L332.12 243.788L328.567 245.733L326.622 249.294L324.678 245.733L321.117 243.788L324.678 241.844L326.622 238.283Z" fill="#A3A09F"/>
</svg>
