<svg width="382" height="282" viewBox="0 0 382 282" fill="none" xmlns="http://www.w3.org/2000/svg">
<path d="M343.724 240.243H318.42V240.435H343.724V240.243Z" fill="#EBEBEB"/>
<path d="M253.052 242.327H246.413V242.519H253.052V242.327Z" fill="#EBEBEB"/>
<path d="M317.656 233.135H302.995V233.326H317.656V233.135Z" fill="#EBEBEB"/>
<path d="M73.0763 234.422H40.0791V234.613H73.0763V234.422Z" fill="#EBEBEB"/>
<path d="M84.7199 234.422H79.8838V234.613H84.7199V234.422Z" fill="#EBEBEB"/>
<path d="M172.015 237.654H100.443V237.846H172.015V237.654Z" fill="#EBEBEB"/>
<path d="M181.068 193.755H33.5548C32.3978 193.755 31.2882 193.294 30.4701 192.474C29.652 191.653 29.1924 190.541 29.1924 189.381V-18.5346C29.2025 -19.6879 29.6665 -20.7906 30.4835 -21.6026C31.3006 -22.4146 32.4044 -22.8702 33.5548 -22.8701H181.068C182.225 -22.8701 183.335 -22.4093 184.153 -21.589C184.971 -20.7688 185.43 -19.6563 185.43 -18.4963V189.381C185.43 190.541 184.971 191.653 184.153 192.474C183.335 193.294 182.225 193.755 181.068 193.755ZM33.5548 -22.7169C32.4491 -22.7149 31.3893 -22.2736 30.6074 -21.4897C29.8255 -20.7058 29.3854 -19.6432 29.3834 -18.5346V189.381C29.3854 190.489 29.8255 191.552 30.6074 192.336C31.3893 193.12 32.4491 193.561 33.5548 193.563H181.068C182.174 193.561 183.234 193.12 184.015 192.336C184.797 191.552 185.237 190.489 185.239 189.381V-18.5346C185.237 -19.6432 184.797 -20.7058 184.015 -21.4897C183.234 -22.2736 182.174 -22.7149 181.068 -22.7169H33.5548Z" fill="#EBEBEB"/>
<path d="M346.329 193.755H198.801C197.645 193.753 196.536 193.291 195.718 192.471C194.901 191.652 194.44 190.54 194.438 189.381V-18.5346C194.451 -19.6873 194.915 -20.7888 195.732 -21.6004C196.548 -22.412 197.651 -22.8682 198.801 -22.8701H346.329C347.477 -22.8661 348.577 -22.4088 349.391 -21.5972C350.204 -20.7857 350.666 -19.6853 350.676 -18.5346V189.381C350.676 190.538 350.219 191.648 349.404 192.468C348.589 193.288 347.484 193.751 346.329 193.755ZM198.801 -22.7169C197.695 -22.7149 196.635 -22.2736 195.853 -21.4897C195.072 -20.7058 194.631 -19.6432 194.629 -18.5346V189.381C194.631 190.489 195.072 191.552 195.853 192.336C196.635 193.12 197.695 193.561 198.801 193.563H346.329C347.435 193.561 348.495 193.12 349.277 192.336C350.059 191.552 350.499 190.489 350.501 189.381V-18.5346C350.499 -19.6432 350.059 -20.7058 349.277 -21.4897C348.495 -22.2736 347.435 -22.7149 346.329 -22.7169H198.801Z" fill="#EBEBEB"/>
<path d="M382 227.918H0V228.109H382V227.918Z" fill="#EBEBEB"/>
<path d="M122.574 48.3573L122.803 48.6919C123.325 49.4519 123.523 50.3884 123.356 51.2953C123.188 52.2022 122.668 53.0053 121.91 53.5278L44.5629 106.846C43.8049 107.369 42.8708 107.568 41.9663 107.4C41.0618 107.232 40.2608 106.711 39.7396 105.951L39.5102 105.616C38.9879 104.855 38.7887 103.916 38.9566 103.007C39.1244 102.098 39.6455 101.293 40.4052 100.77L117.74 47.4599C118.5 46.9363 119.436 46.7366 120.342 46.9049C121.249 47.0732 122.052 47.5956 122.574 48.3573Z" fill="#E0E0E0"/>
<path d="M56.223 220.802H97.5401C99.2523 220.802 100.894 221.484 102.105 222.698C103.316 223.911 103.996 225.558 103.996 227.274V227.65H49.752V227.274C49.752 226.423 49.9194 225.58 50.2448 224.794C50.5702 224.008 51.0471 223.293 51.6482 222.692C52.2493 222.091 52.9628 221.614 53.7478 221.29C54.5328 220.966 55.374 220.8 56.223 220.802Z" fill="#E0E0E0"/>
<path d="M76.6064 185.521H77.1641C78.392 185.521 79.5696 186.01 80.4379 186.88C81.3062 187.751 81.794 188.931 81.794 190.162V224.226H71.9766V190.162C71.9766 188.931 72.4643 187.751 73.3326 186.88C74.2009 186.01 75.3785 185.521 76.6064 185.521Z" fill="#E0E0E0"/>
<path d="M39.8009 101.875L39.4352 102.031C37.668 102.783 36.8435 104.829 37.5936 106.601L74.2636 193.216C75.0138 194.988 77.0545 195.815 78.8218 195.063L79.1875 194.907C80.9547 194.155 81.7792 192.109 81.029 190.337L44.359 103.722C43.6089 101.95 41.5681 101.123 39.8009 101.875Z" fill="#F0F0F0"/>
<path d="M114.754 43.698L115.424 43.0264C116.942 41.5036 119.002 40.6482 121.15 40.6482C123.298 40.6482 125.358 41.5036 126.877 43.0264L132.587 48.7515L120.464 60.906L114.77 55.1971C114.015 54.4439 113.415 53.5486 113.005 52.5626C112.595 51.5766 112.383 50.5191 112.382 49.4509C112.38 48.3827 112.589 47.3247 112.996 46.3375C113.403 45.3503 114 44.4533 114.754 43.698Z" fill="#EBEBEB"/>
<path d="M138.605 49.2413L132.249 42.8682L114.585 60.5781L120.941 66.9512L132.562 97.9819L169.555 60.8921L138.605 49.2413Z" fill="#F0F0F0"/>
<path d="M288.937 201.185C278.035 199.929 275.514 182.587 283.375 175.18C291.237 167.772 308.351 171.35 308.924 182.349C309.176 187.244 299.435 185.475 295.874 188.477C292.314 191.48 293.735 201.729 288.937 201.185Z" fill="#F0F0F0"/>
<path d="M303.926 178.335C298.166 179.009 295.148 183.965 294.315 185.566L293.376 184.586C293.024 183.123 292.367 179.009 295.049 176.482C295.128 176.41 295.176 176.31 295.185 176.204C295.193 176.097 295.161 175.991 295.095 175.907C295.059 175.864 295.016 175.828 294.966 175.802C294.916 175.776 294.862 175.76 294.806 175.756C294.751 175.752 294.695 175.759 294.642 175.777C294.589 175.795 294.54 175.824 294.499 175.861C292.054 178.159 292.031 181.453 292.321 183.521C290.428 181.575 288.385 179.782 286.209 178.159C286.088 178.079 285.94 178.049 285.798 178.076C285.655 178.104 285.529 178.186 285.445 178.305C285.362 178.425 285.33 178.573 285.356 178.716C285.382 178.86 285.463 178.987 285.583 179.071C287.788 180.737 289.86 182.573 291.779 184.563C288.893 184.242 285.98 184.831 283.444 186.248C283.397 186.278 283.356 186.316 283.325 186.362C283.293 186.407 283.27 186.458 283.258 186.512C283.246 186.566 283.245 186.622 283.254 186.677C283.264 186.731 283.284 186.784 283.314 186.83C283.373 186.921 283.465 186.985 283.57 187.009C283.676 187.033 283.786 187.016 283.879 186.961C287.447 184.839 291.687 185.383 292.726 185.566C293.131 185.988 293.551 186.432 293.972 186.899C292.222 187.561 290.62 188.562 289.257 189.845C287.894 191.128 286.796 192.667 286.026 194.375C285.996 194.474 286.003 194.58 286.046 194.674C286.088 194.768 286.164 194.843 286.258 194.885C286.353 194.926 286.459 194.932 286.557 194.9C286.655 194.868 286.738 194.801 286.79 194.712C287.548 193.061 288.627 191.578 289.964 190.349C291.301 189.121 292.868 188.172 294.575 187.558C299.808 193.491 304.416 199.949 308.327 206.831L309.282 206.279C305.215 199.107 300.395 192.392 294.904 186.248C295.393 185.222 298.227 179.867 304.003 179.186C304.11 179.176 304.208 179.125 304.278 179.043C304.348 178.962 304.384 178.856 304.377 178.749C304.375 178.692 304.362 178.636 304.338 178.584C304.314 178.532 304.28 178.486 304.238 178.447C304.196 178.409 304.147 178.379 304.094 178.36C304.04 178.341 303.983 178.332 303.926 178.335Z" fill="#E0E0E0"/>
<path d="M333.708 193.142C346.902 188.378 344.954 166.056 332.997 159.155C321.04 152.253 300.81 161.782 303.323 175.608C304.446 181.736 316.044 176.696 321.354 179.438C326.778 182.234 327.894 195.264 333.708 193.142Z" fill="#F0F0F0"/>
<path d="M308.358 169.166C315.723 168.301 320.934 173.578 322.439 175.332C322.737 174.812 323.019 174.314 323.302 173.839C323.302 171.916 322.92 166.6 318.84 164.248C318.773 164.219 318.712 164.175 318.662 164.121C318.613 164.066 318.574 164.002 318.55 163.932C318.526 163.862 318.517 163.788 318.523 163.715C318.529 163.641 318.55 163.569 318.585 163.504C318.62 163.439 318.668 163.382 318.726 163.336C318.783 163.291 318.85 163.258 318.922 163.239C318.993 163.22 319.067 163.217 319.14 163.228C319.213 163.24 319.282 163.266 319.344 163.306C323.05 165.42 324.051 169.541 324.295 172.192C326.071 169.23 328.076 166.412 330.293 163.766C330.42 163.645 330.589 163.575 330.765 163.572C330.941 163.568 331.112 163.629 331.245 163.745C331.378 163.86 331.464 164.021 331.485 164.196C331.507 164.371 331.463 164.548 331.362 164.693C329.107 167.414 327.063 170.305 325.25 173.341C327.504 172.575 331.775 171.564 336.114 172.935C336.18 172.956 336.242 172.991 336.295 173.036C336.348 173.082 336.391 173.137 336.423 173.199C336.454 173.262 336.473 173.329 336.479 173.399C336.484 173.469 336.476 173.539 336.454 173.605C336.433 173.671 336.398 173.733 336.353 173.786C336.308 173.839 336.252 173.883 336.19 173.914C336.128 173.946 336.061 173.965 335.991 173.97C335.922 173.976 335.852 173.968 335.786 173.946C330.728 172.36 325.617 174.291 324.372 174.819C323.99 175.463 323.608 176.137 323.21 176.849C327.999 177.471 332.346 179.972 335.297 183.804C335.382 183.918 335.418 184.061 335.398 184.202C335.378 184.343 335.303 184.47 335.19 184.555C335.076 184.64 334.934 184.677 334.793 184.657C334.653 184.637 334.526 184.562 334.441 184.448C333.017 182.616 331.243 181.086 329.223 179.948C327.203 178.811 324.977 178.088 322.675 177.822C317.902 186.744 314.062 196.136 311.215 205.85L309.863 205.436C312.826 195.334 316.852 185.577 321.873 176.328C320.964 175.195 315.868 169.373 308.488 170.2C308.351 170.218 308.212 170.182 308.101 170.099C307.989 170.016 307.915 169.893 307.892 169.756C307.879 169.616 307.92 169.477 308.007 169.367C308.094 169.257 308.22 169.185 308.358 169.166Z" fill="#E0E0E0"/>
<path d="M330.048 203.582C337.978 203.774 341.508 191.602 336.618 185.512C331.728 179.423 319.107 180.281 317.602 188.094C316.937 191.571 324.088 191.28 326.335 193.808C328.581 196.336 326.571 203.498 330.048 203.582Z" fill="#E0E0E0"/>
<path d="M321.644 186.485C325.708 187.542 327.374 191.395 327.809 192.613L328.573 192C328.963 190.989 329.849 188.109 328.176 186.025C328.124 185.968 328.095 185.893 328.095 185.815C328.095 185.737 328.124 185.662 328.176 185.604C328.204 185.575 328.238 185.552 328.276 185.536C328.313 185.521 328.353 185.513 328.394 185.513C328.434 185.513 328.474 185.521 328.512 185.536C328.549 185.552 328.583 185.575 328.611 185.604C330.139 187.481 329.818 189.855 329.375 191.303C330.921 190.108 332.556 189.032 334.265 188.086C334.313 188.061 334.365 188.046 334.419 188.042C334.473 188.038 334.527 188.044 334.579 188.062C334.63 188.079 334.677 188.106 334.718 188.142C334.758 188.177 334.791 188.221 334.815 188.27C334.858 188.364 334.864 188.471 334.832 188.569C334.799 188.667 334.73 188.749 334.639 188.798C332.894 189.768 331.229 190.874 329.658 192.107C331.757 192.161 333.788 192.865 335.472 194.122C335.501 194.151 335.524 194.185 335.539 194.222C335.555 194.259 335.563 194.3 335.563 194.34C335.563 194.381 335.555 194.421 335.539 194.459C335.524 194.496 335.501 194.53 335.472 194.559C335.417 194.612 335.343 194.642 335.266 194.642C335.189 194.642 335.115 194.612 335.059 194.559C333.257 193.259 331.075 192.596 328.856 192.674L327.832 193.502C330.225 194.808 332.005 197.011 332.783 199.63C332.804 199.707 332.794 199.789 332.754 199.859C332.715 199.929 332.65 199.98 332.573 200.001C332.496 200.022 332.413 200.012 332.344 199.973C332.274 199.933 332.223 199.868 332.202 199.79C331.823 198.532 331.198 197.362 330.362 196.349C329.526 195.336 328.497 194.501 327.335 193.892C322.997 197.617 319.055 201.78 315.57 206.317L314.943 205.826C318.567 201.099 322.686 196.775 327.228 192.927C326.984 192.161 325.487 188.025 321.414 186.96C321.341 186.938 321.278 186.891 321.237 186.826C321.196 186.761 321.18 186.683 321.193 186.608C321.211 186.566 321.237 186.529 321.271 186.5C321.305 186.47 321.345 186.449 321.389 186.437C321.432 186.425 321.477 186.423 321.522 186.432C321.566 186.44 321.607 186.458 321.644 186.485Z" fill="#F0F0F0"/>
<path d="M281.649 204.333H335.442V219.722C335.442 221.957 334.557 224.1 332.98 225.68C331.404 227.26 329.267 228.148 327.038 228.148H290.022C287.793 228.148 285.656 227.26 284.08 225.68C282.504 224.1 281.618 221.957 281.618 219.722V204.333H281.649Z" fill="#E0E0E0"/>
<path d="M187.317 259.562C269.129 259.562 335.449 255.68 335.449 250.891C335.449 246.102 269.129 242.22 187.317 242.22C105.506 242.22 39.1855 246.102 39.1855 250.891C39.1855 255.68 105.506 259.562 187.317 259.562Z" fill="#F5F5F5"/>
<path d="M319.749 26.2148H195.736V171.64H319.749V26.2148Z" fill="#2B2B2B"/>
<path opacity="0.3" d="M319.749 26.2148H195.736V171.64H319.749V26.2148Z" fill="white"/>
<path d="M213.01 39.9648H198.28V123.842H213.01V39.9648Z" fill="#263238"/>
<path opacity="0.4" d="M213.01 39.9648H198.28V123.842H213.01V39.9648Z" fill="white"/>
<path d="M319.749 26.2148H195.736V34.9779H319.749V26.2148Z" fill="#263238"/>
<path opacity="0.4" d="M319.756 34.9855V26.2148H195.736V34.9855" fill="white"/>
<path d="M203.437 48.1992H201.336C200.598 48.1992 199.999 48.7994 199.999 49.5397V51.6462C199.999 52.3866 200.598 52.9867 201.336 52.9867H203.437C204.175 52.9867 204.774 52.3866 204.774 51.6462V49.5397C204.774 48.7994 204.175 48.1992 203.437 48.1992Z" fill="#2B2B2B"/>
<path d="M209.847 48.1992H207.746C207.008 48.1992 206.409 48.7994 206.409 49.5397V51.6462C206.409 52.3866 207.008 52.9867 207.746 52.9867H209.847C210.586 52.9867 211.184 52.3866 211.184 51.6462V49.5397C211.184 48.7994 210.586 48.1992 209.847 48.1992Z" fill="#2B2B2B"/>
<path d="M203.437 54.9932H201.336C200.598 54.9932 199.999 55.5933 199.999 56.3337V58.4402C199.999 59.1805 200.598 59.7807 201.336 59.7807H203.437C204.175 59.7807 204.774 59.1805 204.774 58.4402V56.3337C204.774 55.5933 204.175 54.9932 203.437 54.9932Z" fill="#2B2B2B"/>
<path d="M209.847 54.9932H207.746C207.008 54.9932 206.409 55.5933 206.409 56.3337V58.4402C206.409 59.1805 207.008 59.7807 207.746 59.7807H209.847C210.586 59.7807 211.184 59.1805 211.184 58.4402V56.3337C211.184 55.5933 210.586 54.9932 209.847 54.9932Z" fill="#2B2B2B"/>
<path d="M203.437 61.7959H201.336C200.598 61.7959 199.999 62.3961 199.999 63.1364V65.2429C199.999 65.9832 200.598 66.5834 201.336 66.5834H203.437C204.175 66.5834 204.774 65.9832 204.774 65.2429V63.1364C204.774 62.3961 204.175 61.7959 203.437 61.7959Z" fill="#2B2B2B"/>
<path d="M209.847 61.7959H207.746C207.008 61.7959 206.409 62.3961 206.409 63.1364V65.2429C206.409 65.9832 207.008 66.5834 207.746 66.5834H209.847C210.586 66.5834 211.184 65.9832 211.184 65.2429V63.1364C211.184 62.3961 210.586 61.7959 209.847 61.7959Z" fill="#2B2B2B"/>
<path d="M203.437 68.5898H201.336C200.598 68.5898 199.999 69.19 199.999 69.9303V72.0368C199.999 72.7772 200.598 73.3773 201.336 73.3773H203.437C204.175 73.3773 204.774 72.7772 204.774 72.0368V69.9303C204.774 69.19 204.175 68.5898 203.437 68.5898Z" fill="#2B2B2B"/>
<path d="M209.847 68.5898H207.746C207.008 68.5898 206.409 69.19 206.409 69.9303V72.0368C206.409 72.7772 207.008 73.3773 207.746 73.3773H209.847C210.586 73.3773 211.184 72.7772 211.184 72.0368V69.9303C211.184 69.19 210.586 68.5898 209.847 68.5898Z" fill="#2B2B2B"/>
<path d="M203.437 75.3916H201.336C200.598 75.3916 199.999 75.9918 199.999 76.7321V78.8386C199.999 79.5789 200.598 80.1791 201.336 80.1791H203.437C204.175 80.1791 204.774 79.5789 204.774 78.8386V76.7321C204.774 75.9918 204.175 75.3916 203.437 75.3916Z" fill="#2B2B2B"/>
<path d="M209.847 75.3916H207.746C207.008 75.3916 206.409 75.9918 206.409 76.7321V78.8386C206.409 79.5789 207.008 80.1791 207.746 80.1791H209.847C210.586 80.1791 211.184 79.5789 211.184 78.8386V76.7321C211.184 75.9918 210.586 75.3916 209.847 75.3916Z" fill="#2B2B2B"/>
<path d="M203.437 82.1865H201.336C200.598 82.1865 199.999 82.7867 199.999 83.527V85.6335C199.999 86.3739 200.598 86.974 201.336 86.974H203.437C204.175 86.974 204.774 86.3739 204.774 85.6335V83.527C204.774 82.7867 204.175 82.1865 203.437 82.1865Z" fill="#2B2B2B"/>
<path d="M209.847 82.1865H207.746C207.008 82.1865 206.409 82.7867 206.409 83.527V85.6335C206.409 86.3739 207.008 86.974 207.746 86.974H209.847C210.586 86.974 211.184 86.3739 211.184 85.6335V83.527C211.184 82.7867 210.586 82.1865 209.847 82.1865Z" fill="#2B2B2B"/>
<path d="M203.437 88.9883H201.336C200.598 88.9883 199.999 89.5884 199.999 90.3288V92.4353C199.999 93.1756 200.598 93.7758 201.336 93.7758H203.437C204.175 93.7758 204.774 93.1756 204.774 92.4353V90.3288C204.774 89.5884 204.175 88.9883 203.437 88.9883Z" fill="#2B2B2B"/>
<path d="M209.847 88.9883H207.746C207.008 88.9883 206.409 89.5884 206.409 90.3288V92.4353C206.409 93.1756 207.008 93.7758 207.746 93.7758H209.847C210.586 93.7758 211.184 93.1756 211.184 92.4353V90.3288C211.184 89.5884 210.586 88.9883 209.847 88.9883Z" fill="#2B2B2B"/>
<path d="M203.437 95.7832H201.336C200.598 95.7832 199.999 96.3834 199.999 97.1237V99.2302C199.999 99.9705 200.598 100.571 201.336 100.571H203.437C204.175 100.571 204.774 99.9705 204.774 99.2302V97.1237C204.774 96.3834 204.175 95.7832 203.437 95.7832Z" fill="#2B2B2B"/>
<path d="M209.847 95.7832H207.746C207.008 95.7832 206.409 96.3834 206.409 97.1237V99.2302C206.409 99.9705 207.008 100.571 207.746 100.571H209.847C210.586 100.571 211.184 99.9705 211.184 99.2302V97.1237C211.184 96.3834 210.586 95.7832 209.847 95.7832Z" fill="#2B2B2B"/>
<path d="M205.523 106.606H201.542C200.69 106.606 199.999 107.299 199.999 108.154V112.145C199.999 112.999 200.69 113.692 201.542 113.692H205.523C206.375 113.692 207.066 112.999 207.066 112.145V108.154C207.066 107.299 206.375 106.606 205.523 106.606Z" fill="#2B2B2B"/>
<path d="M211.169 117.806H202.956V115.469C202.956 115.317 203.016 115.171 203.124 115.063C203.231 114.956 203.377 114.895 203.529 114.895C203.605 114.894 203.68 114.908 203.75 114.937C203.82 114.965 203.883 115.007 203.937 115.061C203.99 115.115 204.032 115.178 204.061 115.248C204.089 115.319 204.103 115.394 204.102 115.469V116.657H210.023V110.72H208.839C208.763 110.721 208.688 110.707 208.618 110.679C208.548 110.65 208.485 110.608 208.431 110.554C208.378 110.501 208.336 110.437 208.307 110.367C208.279 110.297 208.265 110.222 208.266 110.146C208.266 109.993 208.326 109.847 208.434 109.74C208.541 109.632 208.687 109.571 208.839 109.571H211.131L211.169 117.806Z" fill="#2B2B2B"/>
<path d="M213.01 39.9648H198.28V44.9438H213.01V39.9648Z" fill="#2B2B2B"/>
<path d="M314.989 166.737C314.433 166.737 313.9 166.516 313.506 166.123C313.112 165.73 312.89 165.196 312.888 164.639V39.7805C312.888 39.5042 312.942 39.2307 313.048 38.9755C313.153 38.7204 313.308 38.4887 313.504 38.2937C313.699 38.0987 313.93 37.9442 314.185 37.8392C314.44 37.7342 314.713 37.6806 314.989 37.6817C315.544 37.6817 316.076 37.9028 316.469 38.2964C316.862 38.69 317.082 39.2238 317.082 39.7805V164.639C317.082 165.195 316.862 165.729 316.469 166.123C316.076 166.516 315.544 166.737 314.989 166.737Z" fill="#263238"/>
<path opacity="0.4" d="M314.989 166.737C314.433 166.737 313.9 166.516 313.506 166.123C313.112 165.73 312.89 165.196 312.888 164.639V39.7805C312.888 39.5042 312.942 39.2307 313.048 38.9755C313.153 38.7204 313.308 38.4887 313.504 38.2937C313.699 38.0987 313.93 37.9442 314.185 37.8392C314.44 37.7342 314.713 37.6806 314.989 37.6817C315.544 37.6817 316.076 37.9028 316.469 38.2964C316.862 38.69 317.082 39.2238 317.082 39.7805V164.639C317.082 165.195 316.862 165.729 316.469 166.123C316.076 166.516 315.544 166.737 314.989 166.737Z" fill="white"/>
<path opacity="0.4" d="M304.859 44.9434H221.965V82.1939H304.859V44.9434Z" fill="white"/>
<path d="M300.534 79.8276L264.344 63.5655L299.9 47.5867L299.587 46.8896L263.411 63.1442L227.236 46.8896L226.923 47.5867L262.472 63.5655L226.923 79.5366L227.236 80.2413L263.411 63.9868L300.221 80.5247L300.534 79.8276Z" fill="#2B2B2B"/>
<path opacity="0.4" d="M260.959 92.4355H227.075V120.012H260.959V92.4355Z" fill="white"/>
<path d="M259.378 118.219L244.625 106.223L259.11 94.4344L258.629 93.8369L244.021 105.725L229.406 93.8369L228.925 94.4344L243.41 106.223L228.925 118.012L229.406 118.602L244.021 106.713L258.897 118.816L259.378 118.219Z" fill="#2B2B2B"/>
<path opacity="0.4" d="M299.74 92.4355H265.856V120.012H299.74V92.4355Z" fill="white"/>
<path d="M298.15 118.219L283.405 106.223L297.891 94.4344L297.409 93.8369L282.794 105.725L268.186 93.8369L267.705 94.4344L282.191 106.223L267.705 118.012L268.186 118.602L282.794 106.713L297.669 118.816L298.15 118.219Z" fill="#2B2B2B"/>
<path d="M260.065 127.173H227.977C227.738 127.173 227.508 127.078 227.339 126.908C227.17 126.739 227.075 126.509 227.075 126.269C227.075 126.151 227.099 126.034 227.144 125.925C227.189 125.815 227.256 125.716 227.34 125.633C227.424 125.55 227.523 125.484 227.632 125.439C227.742 125.395 227.859 125.372 227.977 125.373H260.065C260.302 125.373 260.529 125.468 260.697 125.636C260.864 125.804 260.959 126.032 260.959 126.269C260.96 126.388 260.937 126.505 260.893 126.615C260.848 126.724 260.783 126.824 260.699 126.908C260.616 126.992 260.518 127.059 260.409 127.104C260.3 127.15 260.183 127.173 260.065 127.173Z" fill="#263238"/>
<path opacity="0.4" d="M260.065 127.173H227.977C227.738 127.173 227.508 127.078 227.339 126.908C227.17 126.739 227.075 126.509 227.075 126.269C227.075 126.151 227.099 126.034 227.144 125.925C227.189 125.815 227.256 125.716 227.34 125.633C227.424 125.55 227.523 125.484 227.632 125.439C227.742 125.395 227.859 125.372 227.977 125.373H260.065C260.302 125.373 260.529 125.468 260.697 125.636C260.864 125.804 260.959 126.032 260.959 126.269C260.96 126.388 260.937 126.505 260.893 126.615C260.848 126.724 260.783 126.824 260.699 126.908C260.616 126.992 260.518 127.059 260.409 127.104C260.3 127.15 260.183 127.173 260.065 127.173Z" fill="white"/>
<path d="M254.358 130.789H227.977C227.738 130.789 227.508 130.694 227.339 130.524C227.17 130.355 227.075 130.125 227.075 129.885C227.075 129.646 227.17 129.416 227.339 129.246C227.508 129.077 227.738 128.981 227.977 128.981H254.358C254.597 128.981 254.826 129.077 254.995 129.246C255.164 129.416 255.259 129.646 255.259 129.885C255.259 130.125 255.164 130.355 254.995 130.524C254.826 130.694 254.597 130.789 254.358 130.789Z" fill="#263238"/>
<path opacity="0.4" d="M254.358 130.789H227.977C227.738 130.789 227.508 130.694 227.339 130.524C227.17 130.355 227.075 130.125 227.075 129.885C227.075 129.646 227.17 129.416 227.339 129.246C227.508 129.077 227.738 128.981 227.977 128.981H254.358C254.597 128.981 254.826 129.077 254.995 129.246C255.164 129.416 255.259 129.646 255.259 129.885C255.259 130.125 255.164 130.355 254.995 130.524C254.826 130.694 254.597 130.789 254.358 130.789Z" fill="white"/>
<path d="M256.214 134.397H227.946C227.707 134.397 227.478 134.302 227.309 134.132C227.14 133.963 227.045 133.733 227.045 133.493C227.055 133.255 227.158 133.03 227.333 132.868C227.508 132.706 227.739 132.619 227.977 132.628H256.245C256.484 132.628 256.713 132.723 256.882 132.892C257.052 133.062 257.147 133.292 257.147 133.531C257.137 133.77 257.033 133.995 256.858 134.157C256.684 134.319 256.452 134.405 256.214 134.397Z" fill="#263238"/>
<path opacity="0.4" d="M256.214 134.397H227.946C227.707 134.397 227.478 134.302 227.309 134.132C227.14 133.963 227.045 133.733 227.045 133.493C227.055 133.255 227.158 133.03 227.333 132.868C227.508 132.706 227.739 132.619 227.977 132.628H256.245C256.484 132.628 256.713 132.723 256.882 132.892C257.052 133.062 257.147 133.292 257.147 133.531C257.137 133.77 257.033 133.995 256.858 134.157C256.684 134.319 256.452 134.405 256.214 134.397Z" fill="white"/>
<path d="M298.838 127.173H266.75C266.515 127.167 266.291 127.069 266.127 126.9C265.963 126.732 265.871 126.505 265.871 126.269C265.871 126.151 265.894 126.034 265.94 125.925C265.985 125.815 266.052 125.716 266.136 125.633C266.219 125.55 266.319 125.484 266.428 125.439C266.538 125.395 266.655 125.372 266.773 125.373H298.861C298.979 125.372 299.096 125.395 299.205 125.439C299.314 125.484 299.414 125.55 299.498 125.633C299.581 125.716 299.648 125.815 299.693 125.925C299.739 126.034 299.762 126.151 299.762 126.269C299.762 126.39 299.738 126.509 299.691 126.621C299.645 126.732 299.576 126.832 299.49 126.917C299.404 127.001 299.302 127.067 299.19 127.111C299.078 127.155 298.958 127.176 298.838 127.173Z" fill="#263238"/>
<path opacity="0.4" d="M298.838 127.173H266.75C266.515 127.167 266.291 127.069 266.127 126.9C265.963 126.732 265.871 126.505 265.871 126.269C265.871 126.151 265.894 126.034 265.94 125.925C265.985 125.815 266.052 125.716 266.136 125.633C266.219 125.55 266.319 125.484 266.428 125.439C266.538 125.395 266.655 125.372 266.773 125.373H298.861C298.979 125.372 299.096 125.395 299.205 125.439C299.314 125.484 299.414 125.55 299.498 125.633C299.581 125.716 299.648 125.815 299.693 125.925C299.739 126.034 299.762 126.151 299.762 126.269C299.762 126.39 299.738 126.509 299.691 126.621C299.645 126.732 299.576 126.832 299.49 126.917C299.404 127.001 299.302 127.067 299.19 127.111C299.078 127.155 298.958 127.176 298.838 127.173Z" fill="white"/>
<path d="M295.431 130.789H266.758C266.519 130.789 266.29 130.694 266.12 130.524C265.951 130.355 265.856 130.125 265.856 129.885C265.856 129.646 265.951 129.416 266.12 129.246C266.29 129.077 266.519 128.981 266.758 128.981H295.431C295.67 128.981 295.899 129.077 296.068 129.246C296.237 129.416 296.332 129.646 296.332 129.885C296.332 130.125 296.237 130.355 296.068 130.524C295.899 130.694 295.67 130.789 295.431 130.789Z" fill="#263238"/>
<path opacity="0.4" d="M295.431 130.789H266.758C266.519 130.789 266.29 130.694 266.12 130.524C265.951 130.355 265.856 130.125 265.856 129.885C265.856 129.646 265.951 129.416 266.12 129.246C266.29 129.077 266.519 128.981 266.758 128.981H295.431C295.67 128.981 295.899 129.077 296.068 129.246C296.237 129.416 296.332 129.646 296.332 129.885C296.332 130.125 296.237 130.355 296.068 130.524C295.899 130.694 295.67 130.789 295.431 130.789Z" fill="white"/>
<path d="M293.467 134.397H266.727C266.488 134.397 266.258 134.301 266.089 134.132C265.92 133.962 265.825 133.732 265.825 133.493C265.825 133.253 265.92 133.023 266.089 132.854C266.258 132.684 266.488 132.589 266.727 132.589H293.467C293.585 132.589 293.702 132.612 293.812 132.658C293.921 132.703 294.02 132.77 294.104 132.854C294.188 132.938 294.254 133.037 294.3 133.147C294.345 133.257 294.368 133.374 294.368 133.493C294.368 133.611 294.345 133.729 294.3 133.839C294.254 133.948 294.188 134.048 294.104 134.132C294.02 134.216 293.921 134.282 293.812 134.328C293.702 134.373 293.585 134.397 293.467 134.397Z" fill="#263238"/>
<path opacity="0.4" d="M293.467 134.397H266.727C266.488 134.397 266.258 134.301 266.089 134.132C265.92 133.962 265.825 133.732 265.825 133.493C265.825 133.253 265.92 133.023 266.089 132.854C266.258 132.684 266.488 132.589 266.727 132.589H293.467C293.585 132.589 293.702 132.612 293.812 132.658C293.921 132.703 294.02 132.77 294.104 132.854C294.188 132.938 294.254 133.037 294.3 133.147C294.345 133.257 294.368 133.374 294.368 133.493C294.368 133.611 294.345 133.729 294.3 133.839C294.254 133.948 294.188 134.048 294.104 134.132C294.02 134.216 293.921 134.282 293.812 134.328C293.702 134.373 293.585 134.397 293.467 134.397Z" fill="white"/>
<path d="M260.065 143.443H227.977C227.738 143.443 227.508 143.348 227.339 143.179C227.17 143.009 227.075 142.779 227.075 142.54C227.075 142.421 227.099 142.303 227.144 142.194C227.189 142.084 227.256 141.984 227.339 141.9C227.423 141.817 227.522 141.75 227.632 141.705C227.741 141.659 227.858 141.636 227.977 141.636H260.065C260.183 141.636 260.3 141.659 260.409 141.705C260.518 141.75 260.616 141.817 260.699 141.901C260.783 141.985 260.848 142.085 260.893 142.194C260.937 142.304 260.96 142.421 260.959 142.54C260.96 142.658 260.937 142.775 260.893 142.885C260.848 142.995 260.783 143.094 260.699 143.178C260.616 143.262 260.518 143.329 260.409 143.375C260.3 143.42 260.183 143.443 260.065 143.443Z" fill="#263238"/>
<path opacity="0.4" d="M260.065 143.443H227.977C227.738 143.443 227.508 143.348 227.339 143.179C227.17 143.009 227.075 142.779 227.075 142.54C227.075 142.421 227.099 142.303 227.144 142.194C227.189 142.084 227.256 141.984 227.339 141.9C227.423 141.817 227.522 141.75 227.632 141.705C227.741 141.659 227.858 141.636 227.977 141.636H260.065C260.183 141.636 260.3 141.659 260.409 141.705C260.518 141.75 260.616 141.817 260.699 141.901C260.783 141.985 260.848 142.085 260.893 142.194C260.937 142.304 260.96 142.421 260.959 142.54C260.96 142.658 260.937 142.775 260.893 142.885C260.848 142.995 260.783 143.094 260.699 143.178C260.616 143.262 260.518 143.329 260.409 143.375C260.3 143.42 260.183 143.443 260.065 143.443Z" fill="white"/>
<path d="M256.65 147.051H227.977C227.859 147.052 227.742 147.03 227.632 146.985C227.523 146.94 227.424 146.875 227.34 146.791C227.256 146.708 227.189 146.609 227.144 146.5C227.099 146.39 227.075 146.273 227.075 146.155C227.075 145.915 227.17 145.685 227.339 145.516C227.508 145.346 227.738 145.251 227.977 145.251H256.65C256.889 145.251 257.118 145.346 257.287 145.516C257.456 145.685 257.551 145.915 257.551 146.155C257.551 146.273 257.528 146.39 257.482 146.5C257.437 146.609 257.37 146.708 257.287 146.791C257.203 146.875 257.103 146.94 256.994 146.985C256.885 147.03 256.768 147.052 256.65 147.051Z" fill="#263238"/>
<path opacity="0.4" d="M256.65 147.051H227.977C227.859 147.052 227.742 147.03 227.632 146.985C227.523 146.94 227.424 146.875 227.34 146.791C227.256 146.708 227.189 146.609 227.144 146.5C227.099 146.39 227.075 146.273 227.075 146.155C227.075 145.915 227.17 145.685 227.339 145.516C227.508 145.346 227.738 145.251 227.977 145.251H256.65C256.889 145.251 257.118 145.346 257.287 145.516C257.456 145.685 257.551 145.915 257.551 146.155C257.551 146.273 257.528 146.39 257.482 146.5C257.437 146.609 257.37 146.708 257.287 146.791C257.203 146.875 257.103 146.94 256.994 146.985C256.885 147.03 256.768 147.052 256.65 147.051Z" fill="white"/>
<path d="M252.394 150.667H227.946C227.707 150.667 227.478 150.572 227.309 150.402C227.14 150.233 227.045 150.003 227.045 149.763C227.045 149.524 227.14 149.294 227.309 149.124C227.478 148.955 227.707 148.859 227.946 148.859H252.394C252.513 148.859 252.63 148.883 252.739 148.928C252.849 148.974 252.948 149.04 253.032 149.124C253.116 149.208 253.182 149.308 253.227 149.417C253.273 149.527 253.296 149.645 253.296 149.763C253.296 149.882 253.273 149.999 253.227 150.109C253.182 150.219 253.116 150.318 253.032 150.402C252.948 150.486 252.849 150.553 252.739 150.598C252.63 150.644 252.513 150.667 252.394 150.667Z" fill="#263238"/>
<path opacity="0.4" d="M252.394 150.667H227.946C227.707 150.667 227.478 150.572 227.309 150.402C227.14 150.233 227.045 150.003 227.045 149.763C227.045 149.524 227.14 149.294 227.309 149.124C227.478 148.955 227.707 148.859 227.946 148.859H252.394C252.513 148.859 252.63 148.883 252.739 148.928C252.849 148.974 252.948 149.04 253.032 149.124C253.116 149.208 253.182 149.308 253.227 149.417C253.273 149.527 253.296 149.645 253.296 149.763C253.296 149.882 253.273 149.999 253.227 150.109C253.182 150.219 253.116 150.318 253.032 150.402C252.948 150.486 252.849 150.553 252.739 150.598C252.63 150.644 252.513 150.667 252.394 150.667Z" fill="white"/>
<path d="M296.546 143.443H266.75C266.511 143.443 266.282 143.348 266.113 143.179C265.944 143.009 265.849 142.779 265.849 142.54C265.849 142.421 265.872 142.303 265.917 142.194C265.963 142.084 266.029 141.984 266.113 141.9C266.196 141.817 266.296 141.75 266.405 141.705C266.515 141.659 266.632 141.636 266.75 141.636H296.546C296.665 141.636 296.782 141.659 296.891 141.705C297.001 141.75 297.1 141.817 297.184 141.9C297.267 141.984 297.334 142.084 297.379 142.194C297.424 142.303 297.448 142.421 297.448 142.54C297.448 142.779 297.353 143.009 297.184 143.179C297.015 143.348 296.785 143.443 296.546 143.443Z" fill="#263238"/>
<path opacity="0.4" d="M296.546 143.443H266.75C266.511 143.443 266.282 143.348 266.113 143.179C265.944 143.009 265.849 142.779 265.849 142.54C265.849 142.421 265.872 142.303 265.917 142.194C265.963 142.084 266.029 141.984 266.113 141.9C266.196 141.817 266.296 141.75 266.405 141.705C266.515 141.659 266.632 141.636 266.75 141.636H296.546C296.665 141.636 296.782 141.659 296.891 141.705C297.001 141.75 297.1 141.817 297.184 141.9C297.267 141.984 297.334 142.084 297.379 142.194C297.424 142.303 297.448 142.421 297.448 142.54C297.448 142.779 297.353 143.009 297.184 143.179C297.015 143.348 296.785 143.443 296.546 143.443Z" fill="white"/>
<path d="M293.139 147.051H266.758C266.64 147.052 266.523 147.03 266.414 146.985C266.304 146.94 266.205 146.875 266.121 146.791C266.037 146.708 265.971 146.609 265.925 146.5C265.88 146.39 265.856 146.273 265.856 146.155C265.856 145.915 265.951 145.685 266.12 145.516C266.29 145.346 266.519 145.251 266.758 145.251H293.139C293.378 145.251 293.607 145.346 293.776 145.516C293.945 145.685 294.04 145.915 294.04 146.155C294.04 146.273 294.017 146.39 293.972 146.5C293.926 146.609 293.86 146.708 293.776 146.791C293.692 146.875 293.593 146.94 293.483 146.985C293.374 147.03 293.257 147.052 293.139 147.051Z" fill="#263238"/>
<path opacity="0.4" d="M293.139 147.051H266.758C266.64 147.052 266.523 147.03 266.414 146.985C266.304 146.94 266.205 146.875 266.121 146.791C266.037 146.708 265.971 146.609 265.925 146.5C265.88 146.39 265.856 146.273 265.856 146.155C265.856 145.915 265.951 145.685 266.12 145.516C266.29 145.346 266.519 145.251 266.758 145.251H293.139C293.378 145.251 293.607 145.346 293.776 145.516C293.945 145.685 294.04 145.915 294.04 146.155C294.04 146.273 294.017 146.39 293.972 146.5C293.926 146.609 293.86 146.708 293.776 146.791C293.692 146.875 293.593 146.94 293.483 146.985C293.374 147.03 293.257 147.052 293.139 147.051Z" fill="white"/>
<path d="M293.467 150.667H266.727C266.488 150.667 266.258 150.572 266.089 150.402C265.92 150.233 265.825 150.003 265.825 149.763C265.825 149.524 265.92 149.294 266.089 149.124C266.258 148.955 266.488 148.859 266.727 148.859H293.467C293.585 148.859 293.702 148.883 293.812 148.928C293.921 148.974 294.02 149.04 294.104 149.124C294.188 149.208 294.254 149.308 294.3 149.417C294.345 149.527 294.368 149.645 294.368 149.763C294.368 149.882 294.345 149.999 294.3 150.109C294.254 150.219 294.188 150.318 294.104 150.402C294.02 150.486 293.921 150.553 293.812 150.598C293.702 150.644 293.585 150.667 293.467 150.667Z" fill="#263238"/>
<path opacity="0.4" d="M293.467 150.667H266.727C266.488 150.667 266.258 150.572 266.089 150.402C265.92 150.233 265.825 150.003 265.825 149.763C265.825 149.524 265.92 149.294 266.089 149.124C266.258 148.955 266.488 148.859 266.727 148.859H293.467C293.585 148.859 293.702 148.883 293.812 148.928C293.921 148.974 294.02 149.04 294.104 149.124C294.188 149.208 294.254 149.308 294.3 149.417C294.345 149.527 294.368 149.645 294.368 149.763C294.368 149.882 294.345 149.999 294.3 150.109C294.254 150.219 294.188 150.318 294.104 150.402C294.02 150.486 293.921 150.553 293.812 150.598C293.702 150.644 293.585 150.667 293.467 150.667Z" fill="white"/>
<path opacity="0.4" d="M314.989 147.373C314.797 147.373 314.606 147.335 314.428 147.261C314.25 147.187 314.088 147.079 313.952 146.942C313.816 146.806 313.708 146.644 313.634 146.465C313.56 146.287 313.522 146.096 313.522 145.902V137.369C313.522 136.979 313.677 136.605 313.952 136.329C314.227 136.053 314.6 135.898 314.989 135.898C315.182 135.898 315.372 135.937 315.55 136.011C315.727 136.085 315.888 136.193 316.024 136.33C316.16 136.466 316.267 136.629 316.34 136.807C316.413 136.985 316.45 137.176 316.449 137.369V145.902C316.45 146.095 316.413 146.286 316.34 146.465C316.267 146.643 316.16 146.805 316.024 146.942C315.888 147.079 315.727 147.187 315.55 147.261C315.372 147.335 315.182 147.373 314.989 147.373Z" fill="white"/>
<path d="M248.07 113.692H69.0649C67.0912 113.69 65.1972 114.473 63.7981 115.869C62.3989 117.264 61.6087 119.159 61.6006 121.138V234.889C61.6006 235.871 61.7937 236.844 62.1689 237.752C62.5441 238.659 63.0941 239.484 63.7873 240.178C64.4805 240.872 65.3034 241.423 66.209 241.798C67.1146 242.173 68.085 242.366 69.0649 242.365H92.8176V238.719C92.8256 238.212 93.0304 237.729 93.3885 237.371C93.7466 237.013 94.2298 236.81 94.7353 236.804H222.323C222.836 236.804 223.328 237.008 223.69 237.372C224.053 237.735 224.256 238.228 224.256 238.742V242.388H248.017C249.994 242.388 251.891 241.6 253.289 240.198C254.688 238.796 255.473 236.895 255.473 234.912V121.138C255.465 119.17 254.683 117.284 253.297 115.89C251.911 114.496 250.033 113.706 248.07 113.692Z" fill="#263238"/>
<path d="M160.134 118.587C160.134 118.901 160.04 119.208 159.865 119.469C159.69 119.729 159.442 119.931 159.151 120.049C158.861 120.167 158.542 120.196 158.236 120.131C157.929 120.066 157.649 119.911 157.431 119.686C157.213 119.461 157.067 119.175 157.011 118.866C156.956 118.557 156.994 118.238 157.12 117.951C157.246 117.664 157.455 117.42 157.719 117.253C157.984 117.085 158.293 117 158.606 117.009C159.016 117.019 159.406 117.19 159.692 117.485C159.977 117.781 160.136 118.176 160.134 118.587Z" fill="#2B2B2B"/>
<path d="M270.173 239.562H46.9551V245.161H270.173V239.562Z" fill="#263238"/>
<path opacity="0.5" d="M270.173 239.562H46.9551V245.161H270.173V239.562Z" fill="white"/>
<path d="M46.9551 245.169L50.4236 247.942C52.7017 249.772 55.534 250.769 58.4533 250.768H258.69C261.609 250.769 264.442 249.772 266.72 247.942L270.173 245.169H46.9551Z" fill="#263238"/>
<path opacity="0.3" d="M46.9551 245.169L50.4236 247.942C52.7017 249.772 55.534 250.769 58.4533 250.768H258.69C261.609 250.769 264.442 249.772 266.72 247.942L270.173 245.169H46.9551Z" fill="white"/>
<path opacity="0.4" d="M137.114 239.745C137.114 240.44 137.39 241.106 137.88 241.598C138.37 242.089 139.034 242.365 139.727 242.365H177.4C178.093 242.365 178.758 242.089 179.248 241.598C179.738 241.106 180.013 240.44 180.013 239.745C180.013 239.684 180.013 239.623 180.013 239.562H137.13C137.13 239.623 137.114 239.684 137.114 239.745Z" fill="white"/>
<path d="M246.81 123.834H70.3262V224.548H246.81V123.834Z" fill="#2B2B2B"/>
<path opacity="0.6" d="M246.81 123.834H70.3262V224.548H246.81V123.834Z" fill="white"/>
<path d="M246.81 123.834H70.3262V135.96H246.81V123.834Z" fill="#2B2B2B"/>
<path opacity="0.8" d="M148.215 132.919H79.8296C79.0434 132.919 78.2894 132.606 77.7335 132.048C77.1775 131.491 76.8652 130.735 76.8652 129.947C76.8652 129.158 77.1775 128.402 77.7335 127.845C78.2894 127.288 79.0434 126.975 79.8296 126.975H148.215C149.001 126.975 149.755 127.288 150.311 127.845C150.867 128.402 151.18 129.158 151.18 129.947C151.18 130.735 150.867 131.491 150.311 132.048C149.755 132.606 149.001 132.919 148.215 132.919Z" fill="white"/>
<path opacity="0.8" d="M240.095 129.947C240.095 130.535 239.921 131.109 239.595 131.598C239.269 132.087 238.806 132.468 238.265 132.693C237.723 132.917 237.127 132.976 236.552 132.862C235.977 132.747 235.449 132.464 235.034 132.048C234.62 131.633 234.337 131.103 234.223 130.527C234.109 129.95 234.167 129.352 234.392 128.809C234.616 128.266 234.996 127.802 235.483 127.476C235.971 127.149 236.544 126.975 237.13 126.975C237.52 126.974 237.906 127.05 238.266 127.199C238.626 127.348 238.953 127.567 239.229 127.843C239.504 128.119 239.722 128.447 239.871 128.808C240.02 129.169 240.096 129.556 240.095 129.947Z" fill="white"/>
<path opacity="0.6" d="M226.846 132.919C228.483 132.919 229.81 131.588 229.81 129.947C229.81 128.305 228.483 126.975 226.846 126.975C225.209 126.975 223.882 128.305 223.882 129.947C223.882 131.588 225.209 132.919 226.846 132.919Z" fill="white"/>
<path opacity="0.4" d="M216.555 132.919C218.192 132.919 219.519 131.588 219.519 129.947C219.519 128.305 218.192 126.975 216.555 126.975C214.918 126.975 213.591 128.305 213.591 129.947C213.591 131.588 214.918 132.919 216.555 132.919Z" fill="white"/>
<path d="M240.094 147.55H76.8652V204.961H240.094V147.55Z" fill="#2B2B2B"/>
<path d="M92.4971 204.961L123.821 173.555C124.209 173.165 124.67 172.856 125.177 172.646C125.685 172.435 126.229 172.326 126.778 172.326C127.327 172.326 127.871 172.435 128.378 172.646C128.885 172.856 129.346 173.165 129.734 173.555L161.058 204.961H92.4971Z" fill="#2B2B2B"/>
<path opacity="0.3" d="M92.4971 204.961L123.821 173.555C124.209 173.165 124.67 172.856 125.177 172.646C125.685 172.435 126.229 172.326 126.778 172.326C127.327 172.326 127.871 172.435 128.378 172.646C128.885 172.856 129.346 173.165 129.734 173.555L161.058 204.961H92.4971Z" fill="black"/>
<path d="M129.734 173.556C129.17 172.99 128.455 172.599 127.674 172.429C126.894 172.259 126.082 172.318 125.334 172.598C125.334 175.164 131.171 177.294 131.171 179.867C131.171 182.441 125.326 184.578 125.326 187.152C125.326 189.726 136.022 191.855 136.022 194.429C136.022 197.003 125.326 199.132 125.326 201.706C125.326 202.625 126.48 203.805 127.985 204.962H161.058L129.734 173.556Z" fill="#2B2B2B"/>
<path opacity="0.4" d="M129.734 173.556C129.17 172.99 128.455 172.599 127.674 172.429C126.894 172.259 126.082 172.318 125.334 172.598C125.334 175.164 131.171 177.294 131.171 179.867C131.171 182.441 125.326 184.578 125.326 187.152C125.326 189.726 136.022 191.855 136.022 194.429C136.022 197.003 125.326 199.132 125.326 201.706C125.326 202.625 126.48 203.805 127.985 204.962H161.058L129.734 173.556Z" fill="white"/>
<path d="M148.124 204.961L188.708 164.24C189.724 163.23 191.097 162.663 192.528 162.663C193.959 162.663 195.332 163.23 196.348 164.24L236.962 204.961H148.124Z" fill="#2B2B2B"/>
<path opacity="0.3" d="M148.124 204.961L188.708 164.24C189.724 163.23 191.097 162.663 192.528 162.663C193.959 162.663 195.332 163.23 196.348 164.24L236.962 204.961H148.124Z" fill="black"/>
<path d="M196.409 164.241C195.676 163.506 194.747 162.998 193.734 162.778C192.72 162.558 191.665 162.635 190.694 163C190.694 166.332 198.273 169.128 198.273 172.422C198.273 175.715 190.694 178.55 190.694 181.866C190.694 185.183 204.599 187.994 204.599 191.304C204.599 194.613 190.694 197.432 190.694 200.741C190.694 201.936 192.222 203.468 194.14 204.961H237.023L196.409 164.241Z" fill="#2B2B2B"/>
<path opacity="0.4" d="M196.409 164.241C195.676 163.506 194.747 162.998 193.734 162.778C192.72 162.558 191.665 162.635 190.694 163C190.694 166.332 198.273 169.128 198.273 172.422C198.273 175.715 190.694 178.55 190.694 181.866C190.694 185.183 204.599 187.994 204.599 191.304C204.599 194.613 190.694 197.432 190.694 200.741C190.694 201.936 192.222 203.468 194.14 204.961H237.023L196.409 164.241Z" fill="white"/>
<path opacity="0.5" d="M159.141 143.413H141.707C141.454 143.414 141.204 143.365 140.97 143.269C140.737 143.172 140.524 143.031 140.346 142.852C140.167 142.674 140.025 142.461 139.928 142.228C139.831 141.994 139.781 141.743 139.781 141.49C139.781 141.237 139.831 140.986 139.928 140.753C140.025 140.519 140.167 140.306 140.346 140.128C140.524 139.949 140.737 139.808 140.97 139.712C141.204 139.615 141.454 139.566 141.707 139.567H159.141C159.65 139.567 160.137 139.77 160.497 140.131C160.857 140.491 161.059 140.98 161.059 141.49C161.059 142 160.857 142.489 160.497 142.85C160.137 143.21 159.65 143.413 159.141 143.413Z" fill="white"/>
<path d="M185.652 143.413H168.21C167.701 143.413 167.213 143.21 166.854 142.85C166.494 142.489 166.292 142 166.292 141.49C166.292 140.98 166.494 140.491 166.854 140.131C167.213 139.77 167.701 139.567 168.21 139.567H185.652C186.16 139.567 186.648 139.77 187.008 140.131C187.367 140.491 187.569 140.98 187.569 141.49C187.569 142 187.367 142.489 187.008 142.85C186.648 143.21 186.16 143.413 185.652 143.413Z" fill="#2B2B2B"/>
<path opacity="0.5" d="M212.155 143.413H194.72C194.212 143.413 193.724 143.21 193.364 142.85C193.005 142.489 192.803 142 192.803 141.49C192.803 140.98 193.005 140.491 193.364 140.131C193.724 139.77 194.212 139.567 194.72 139.567H212.155C212.663 139.567 213.151 139.77 213.511 140.131C213.87 140.491 214.073 140.98 214.073 141.49C214.073 142 213.87 142.489 213.511 142.85C213.151 143.21 212.663 143.413 212.155 143.413Z" fill="white"/>
<path d="M186.202 213.418H156.406C156.025 213.418 155.66 213.266 155.39 212.996C155.121 212.726 154.97 212.36 154.97 211.978C154.97 211.595 155.121 211.228 155.39 210.957C155.659 210.686 156.024 210.532 156.406 210.53H186.202C186.584 210.532 186.949 210.686 187.218 210.957C187.487 211.228 187.638 211.595 187.638 211.978C187.638 212.36 187.487 212.726 187.218 212.996C186.948 213.266 186.583 213.418 186.202 213.418Z" fill="#263238"/>
<path d="M208.572 213.418H191.619C191.238 213.418 190.873 213.266 190.603 212.996C190.334 212.726 190.183 212.36 190.183 211.978C190.183 211.595 190.334 211.228 190.603 210.957C190.872 210.686 191.237 210.532 191.619 210.53H208.572C208.954 210.532 209.319 210.686 209.588 210.957C209.857 211.228 210.008 211.595 210.008 211.978C210.008 212.36 209.857 212.726 209.588 212.996C209.318 213.266 208.953 213.418 208.572 213.418Z" fill="#263238"/>
<path d="M178.615 219.845H156.459C156.077 219.843 155.712 219.689 155.443 219.418C155.174 219.147 155.022 218.78 155.022 218.397C155.022 218.015 155.174 217.649 155.443 217.379C155.713 217.109 156.078 216.957 156.459 216.957H178.615C178.996 216.957 179.361 217.109 179.63 217.379C179.9 217.649 180.051 218.015 180.051 218.397C180.051 218.78 179.9 219.147 179.631 219.418C179.362 219.689 178.996 219.843 178.615 219.845Z" fill="#263238"/>
<path d="M199.403 219.845H183.841C183.459 219.843 183.094 219.689 182.825 219.418C182.555 219.147 182.404 218.78 182.404 218.397C182.404 218.015 182.556 217.649 182.825 217.379C183.094 217.109 183.46 216.957 183.841 216.957H199.403C199.784 216.957 200.15 217.109 200.419 217.379C200.688 217.649 200.84 218.015 200.84 218.397C200.84 218.78 200.689 219.147 200.419 219.418C200.15 219.689 199.785 219.843 199.403 219.845Z" fill="#263238"/>
<path opacity="0.4" d="M186.202 213.418H156.406C156.025 213.418 155.66 213.266 155.39 212.996C155.121 212.726 154.97 212.36 154.97 211.978C154.97 211.595 155.121 211.228 155.39 210.957C155.659 210.686 156.024 210.532 156.406 210.53H186.202C186.584 210.532 186.949 210.686 187.218 210.957C187.487 211.228 187.638 211.595 187.638 211.978C187.638 212.36 187.487 212.726 187.218 212.996C186.948 213.266 186.583 213.418 186.202 213.418Z" fill="white"/>
<path opacity="0.4" d="M208.572 213.418H191.619C191.238 213.418 190.873 213.266 190.603 212.996C190.334 212.726 190.183 212.36 190.183 211.978C190.183 211.595 190.334 211.228 190.603 210.957C190.872 210.686 191.237 210.532 191.619 210.53H208.572C208.954 210.532 209.319 210.686 209.588 210.957C209.857 211.228 210.008 211.595 210.008 211.978C210.008 212.36 209.857 212.726 209.588 212.996C209.318 213.266 208.953 213.418 208.572 213.418Z" fill="white"/>
<path opacity="0.4" d="M178.615 219.845H156.459C156.077 219.843 155.712 219.689 155.443 219.418C155.174 219.147 155.022 218.78 155.022 218.397C155.022 218.015 155.174 217.649 155.443 217.379C155.713 217.109 156.078 216.957 156.459 216.957H178.615C178.996 216.957 179.361 217.109 179.63 217.379C179.9 217.649 180.051 218.015 180.051 218.397C180.051 218.78 179.9 219.147 179.631 219.418C179.362 219.689 178.996 219.843 178.615 219.845Z" fill="white"/>
<path opacity="0.4" d="M199.403 219.845H183.841C183.459 219.843 183.094 219.689 182.825 219.418C182.555 219.147 182.404 218.78 182.404 218.397C182.404 218.015 182.556 217.649 182.825 217.379C183.094 217.109 183.46 216.957 183.841 216.957H199.403C199.784 216.957 200.15 217.109 200.419 217.379C200.688 217.649 200.84 218.015 200.84 218.397C200.84 218.78 200.689 219.147 200.419 219.418C200.15 219.689 199.785 219.843 199.403 219.845Z" fill="white"/>
<path opacity="0.5" d="M238.665 143.413H221.223C220.715 143.413 220.227 143.21 219.867 142.85C219.508 142.489 219.306 142 219.306 141.49C219.306 140.98 219.508 140.491 219.867 140.131C220.227 139.77 220.715 139.567 221.223 139.567H238.665C239.174 139.567 239.662 139.77 240.021 140.131C240.381 140.491 240.583 140.98 240.583 141.49C240.583 142 240.381 142.489 240.021 142.85C239.662 143.21 239.174 143.413 238.665 143.413Z" fill="white"/>
<path d="M147.498 178.028H91.6953V224.54H147.498V178.028Z" fill="#2B2B2B"/>
<path opacity="0.8" d="M147.498 178.028H91.6953V224.54H147.498V178.028Z" fill="white"/>
<path d="M137.283 183.275H101.917V206.585H137.283V183.275Z" fill="#2B2B2B"/>
<path opacity="0.4" d="M137.283 183.275H101.917V206.585H137.283V183.275Z" fill="white"/>
<path d="M114.011 195.991L103.438 206.593H124.585L114.011 195.991Z" fill="#2B2B2B"/>
<path opacity="0.2" d="M114.011 195.991L103.438 206.593H124.585L114.011 195.991Z" fill="black"/>
<path d="M136.924 206.593L126.426 188.638L115.937 206.593H136.924Z" fill="#2B2B2B"/>
<path opacity="0.8" d="M118.924 190.737C118.924 191.158 118.799 191.57 118.566 191.92C118.332 192.27 118.001 192.543 117.612 192.704C117.224 192.865 116.797 192.908 116.385 192.825C115.973 192.743 115.595 192.54 115.298 192.243C115.001 191.945 114.799 191.565 114.717 191.152C114.635 190.739 114.677 190.311 114.837 189.922C114.998 189.533 115.27 189.2 115.62 188.966C115.969 188.732 116.38 188.607 116.8 188.607C117.079 188.606 117.356 188.661 117.614 188.767C117.872 188.874 118.106 189.031 118.304 189.229C118.501 189.427 118.658 189.662 118.764 189.921C118.87 190.18 118.925 190.457 118.924 190.737Z" fill="white"/>
<path d="M226.541 156.879H225.777C225.777 156.369 225.575 155.88 225.215 155.52C224.856 155.159 224.368 154.957 223.859 154.957H222.637C222.638 154.704 222.589 154.453 222.493 154.219C222.397 153.984 222.256 153.772 222.078 153.592C221.9 153.413 221.688 153.271 221.455 153.173C221.222 153.076 220.972 153.026 220.719 153.026H208.923C208.67 153.026 208.421 153.076 208.187 153.173C207.954 153.271 207.742 153.413 207.564 153.592C207.386 153.772 207.245 153.984 207.149 154.219C207.053 154.453 207.004 154.704 207.005 154.957H205.783C205.274 154.957 204.787 155.159 204.427 155.52C204.067 155.88 203.865 156.369 203.865 156.879H199.908C199.431 156.922 198.987 157.142 198.664 157.497C198.34 157.851 198.161 158.314 198.161 158.794C198.161 159.275 198.34 159.737 198.664 160.092C198.987 160.446 199.431 160.667 199.908 160.709H226.541C227.018 160.667 227.462 160.446 227.785 160.092C228.108 159.737 228.287 159.275 228.287 158.794C228.287 158.314 228.108 157.851 227.785 157.497C227.462 157.142 227.018 156.922 226.541 156.879Z" fill="#2B2B2B"/>
<path opacity="0.8" d="M226.541 156.879H225.777C225.777 156.369 225.575 155.88 225.215 155.52C224.856 155.159 224.368 154.957 223.859 154.957H222.637C222.638 154.704 222.589 154.453 222.493 154.219C222.397 153.984 222.256 153.772 222.078 153.592C221.9 153.413 221.688 153.271 221.455 153.173C221.222 153.076 220.972 153.026 220.719 153.026H208.923C208.67 153.026 208.421 153.076 208.187 153.173C207.954 153.271 207.742 153.413 207.564 153.592C207.386 153.772 207.245 153.984 207.149 154.219C207.053 154.453 207.004 154.704 207.005 154.957H205.783C205.274 154.957 204.787 155.159 204.427 155.52C204.067 155.88 203.865 156.369 203.865 156.879H199.908C199.431 156.922 198.987 157.142 198.664 157.497C198.34 157.851 198.161 158.314 198.161 158.794C198.161 159.275 198.34 159.737 198.664 160.092C198.987 160.446 199.431 160.667 199.908 160.709H226.541C227.018 160.667 227.462 160.446 227.785 160.092C228.108 159.737 228.287 159.275 228.287 158.794C228.287 158.314 228.108 157.851 227.785 157.497C227.462 157.142 227.018 156.922 226.541 156.879Z" fill="white"/>
<path d="M126.969 171.142H126.305C126.305 170.712 126.134 170.299 125.83 169.994C125.526 169.69 125.114 169.518 124.685 169.518H123.653C123.653 169.088 123.483 168.675 123.179 168.37C122.875 168.066 122.463 167.895 122.034 167.895H118.573C118.143 167.895 117.731 168.066 117.428 168.37C117.124 168.675 116.953 169.088 116.953 169.518H115.922C115.709 169.518 115.499 169.56 115.303 169.642C115.107 169.724 114.929 169.844 114.779 169.995C114.629 170.145 114.511 170.325 114.43 170.521C114.35 170.718 114.309 170.929 114.31 171.142H110.963C110.534 171.142 110.122 171.313 109.818 171.618C109.514 171.923 109.344 172.336 109.344 172.766C109.344 173.197 109.514 173.61 109.818 173.915C110.122 174.219 110.534 174.39 110.963 174.39H126.969C127.399 174.39 127.811 174.219 128.115 173.915C128.418 173.61 128.589 173.197 128.589 172.766C128.589 172.336 128.418 171.923 128.115 171.618C127.811 171.313 127.399 171.142 126.969 171.142Z" fill="#2B2B2B"/>
<path opacity="0.8" d="M126.969 171.142H126.305C126.305 170.712 126.134 170.299 125.83 169.994C125.526 169.69 125.114 169.518 124.685 169.518H123.653C123.653 169.088 123.483 168.675 123.179 168.37C122.875 168.066 122.463 167.895 122.034 167.895H118.573C118.143 167.895 117.731 168.066 117.428 168.37C117.124 168.675 116.953 169.088 116.953 169.518H115.922C115.709 169.518 115.499 169.56 115.303 169.642C115.107 169.724 114.929 169.844 114.779 169.995C114.629 170.145 114.511 170.325 114.43 170.521C114.35 170.718 114.309 170.929 114.31 171.142H110.963C110.534 171.142 110.122 171.313 109.818 171.618C109.514 171.923 109.344 172.336 109.344 172.766C109.344 173.197 109.514 173.61 109.818 173.915C110.122 174.219 110.534 174.39 110.963 174.39H126.969C127.399 174.39 127.811 174.219 128.115 173.915C128.418 173.61 128.589 173.197 128.589 172.766C128.589 172.336 128.418 171.923 128.115 171.618C127.811 171.313 127.399 171.142 126.969 171.142Z" fill="white"/>
<path d="M182.283 176.289H181.519C181.519 175.78 181.317 175.291 180.957 174.93C180.597 174.569 180.11 174.367 179.601 174.367H178.379C178.377 174.028 178.287 173.695 178.119 173.402C178.289 173.11 178.378 172.779 178.379 172.441C178.38 172.103 178.292 171.772 178.123 171.479C177.955 171.187 177.713 170.944 177.421 170.776C177.129 170.608 176.798 170.52 176.461 170.522H172.366C171.857 170.522 171.37 170.724 171.01 171.085C170.65 171.445 170.448 171.934 170.448 172.444H168.844C168.335 172.444 167.848 172.647 167.488 173.007C167.128 173.368 166.926 173.857 166.926 174.367H165.711C165.459 174.366 165.209 174.415 164.975 174.511C164.742 174.607 164.529 174.749 164.351 174.927C164.172 175.106 164.03 175.318 163.933 175.552C163.836 175.786 163.786 176.036 163.786 176.289H159.829C159.352 176.332 158.908 176.553 158.585 176.907C158.261 177.261 158.082 177.724 158.082 178.204C158.082 178.685 158.261 179.148 158.585 179.502C158.908 179.856 159.352 180.077 159.829 180.119H182.275C182.752 180.077 183.196 179.856 183.519 179.502C183.842 179.148 184.022 178.685 184.022 178.204C184.022 177.724 183.842 177.261 183.519 176.907C183.196 176.553 182.752 176.332 182.275 176.289H182.283Z" fill="#2B2B2B"/>
<path opacity="0.8" d="M182.283 176.289H181.519C181.519 175.78 181.317 175.291 180.957 174.93C180.597 174.569 180.11 174.367 179.601 174.367H178.379C178.377 174.028 178.287 173.695 178.119 173.402C178.289 173.11 178.378 172.779 178.379 172.441C178.38 172.103 178.292 171.772 178.123 171.479C177.955 171.187 177.713 170.944 177.421 170.776C177.129 170.608 176.798 170.52 176.461 170.522H172.366C171.857 170.522 171.37 170.724 171.01 171.085C170.65 171.445 170.448 171.934 170.448 172.444H168.844C168.335 172.444 167.848 172.647 167.488 173.007C167.128 173.368 166.926 173.857 166.926 174.367H165.711C165.459 174.366 165.209 174.415 164.975 174.511C164.742 174.607 164.529 174.749 164.351 174.927C164.172 175.106 164.03 175.318 163.933 175.552C163.836 175.786 163.786 176.036 163.786 176.289H159.829C159.352 176.332 158.908 176.553 158.585 176.907C158.261 177.261 158.082 177.724 158.082 178.204C158.082 178.685 158.261 179.148 158.585 179.502C158.908 179.856 159.352 180.077 159.829 180.119H182.275C182.752 180.077 183.196 179.856 183.519 179.502C183.842 179.148 184.022 178.685 184.022 178.204C184.022 177.724 183.842 177.261 183.519 176.907C183.196 176.553 182.752 176.332 182.275 176.289H182.283Z" fill="white"/>
<path d="M134.822 212.177H102.734C102.626 212.178 102.519 212.158 102.419 212.117C102.319 212.076 102.228 212.016 102.151 211.94C102.075 211.864 102.014 211.773 101.972 211.673C101.931 211.573 101.909 211.466 101.909 211.358C101.909 211.138 101.996 210.928 102.151 210.773C102.306 210.617 102.515 210.53 102.734 210.53H134.822C134.931 210.53 135.038 210.552 135.138 210.593C135.238 210.635 135.329 210.696 135.406 210.773C135.482 210.849 135.543 210.941 135.585 211.041C135.626 211.141 135.647 211.249 135.647 211.358C135.647 211.466 135.626 211.573 135.584 211.673C135.543 211.773 135.482 211.864 135.405 211.94C135.329 212.016 135.238 212.076 135.137 212.117C135.037 212.158 134.93 212.178 134.822 212.177Z" fill="#263238"/>
<path opacity="0.4" d="M134.822 212.177H102.734C102.626 212.178 102.519 212.158 102.419 212.117C102.319 212.076 102.228 212.016 102.151 211.94C102.075 211.864 102.014 211.773 101.972 211.673C101.931 211.573 101.909 211.466 101.909 211.358C101.909 211.138 101.996 210.928 102.151 210.773C102.306 210.617 102.515 210.53 102.734 210.53H134.822C134.931 210.53 135.038 210.552 135.138 210.593C135.238 210.635 135.329 210.696 135.406 210.773C135.482 210.849 135.543 210.941 135.585 211.041C135.626 211.141 135.647 211.249 135.647 211.358C135.647 211.466 135.626 211.573 135.584 211.673C135.543 211.773 135.482 211.864 135.405 211.94C135.329 212.016 135.238 212.076 135.137 212.117C135.037 212.158 134.93 212.178 134.822 212.177Z" fill="white"/>
<path d="M129.62 215.478H102.742C102.634 215.478 102.526 215.457 102.426 215.415C102.326 215.373 102.235 215.313 102.159 215.236C102.082 215.159 102.021 215.068 101.98 214.967C101.938 214.867 101.917 214.759 101.917 214.651C101.917 214.542 101.938 214.435 101.98 214.335C102.022 214.235 102.082 214.145 102.159 214.068C102.236 213.992 102.327 213.932 102.427 213.891C102.527 213.851 102.634 213.83 102.742 213.831H129.62C129.836 213.831 130.044 213.917 130.198 214.071C130.351 214.225 130.437 214.433 130.437 214.651C130.438 214.759 130.418 214.866 130.377 214.967C130.336 215.067 130.276 215.158 130.2 215.235C130.124 215.312 130.034 215.373 129.934 215.415C129.835 215.457 129.728 215.478 129.62 215.478Z" fill="#263238"/>
<path opacity="0.4" d="M129.62 215.478H102.742C102.634 215.478 102.526 215.457 102.426 215.415C102.326 215.373 102.235 215.313 102.159 215.236C102.082 215.159 102.021 215.068 101.98 214.967C101.938 214.867 101.917 214.759 101.917 214.651C101.917 214.542 101.938 214.435 101.98 214.335C102.022 214.235 102.082 214.145 102.159 214.068C102.236 213.992 102.327 213.932 102.427 213.891C102.527 213.851 102.634 213.83 102.742 213.831H129.62C129.836 213.831 130.044 213.917 130.198 214.071C130.351 214.225 130.437 214.433 130.437 214.651C130.438 214.759 130.418 214.866 130.377 214.967C130.336 215.067 130.276 215.158 130.2 215.235C130.124 215.312 130.034 215.373 129.934 215.415C129.835 215.457 129.728 215.478 129.62 215.478Z" fill="white"/>
<path d="M131.316 218.772H102.742C102.634 218.773 102.527 218.752 102.427 218.712C102.327 218.671 102.236 218.611 102.159 218.535C102.082 218.458 102.022 218.368 101.98 218.268C101.938 218.168 101.917 218.061 101.917 217.952C101.917 217.844 101.938 217.736 101.98 217.636C102.021 217.535 102.082 217.444 102.159 217.367C102.235 217.29 102.326 217.23 102.426 217.188C102.526 217.146 102.634 217.125 102.742 217.125H131.316C131.424 217.125 131.531 217.146 131.63 217.188C131.73 217.23 131.82 217.291 131.896 217.368C131.972 217.445 132.033 217.536 132.073 217.636C132.114 217.737 132.134 217.844 132.133 217.952C132.133 218.17 132.047 218.378 131.894 218.532C131.74 218.686 131.533 218.772 131.316 218.772Z" fill="#263238"/>
<path opacity="0.4" d="M131.316 218.772H102.742C102.634 218.773 102.527 218.752 102.427 218.712C102.327 218.671 102.236 218.611 102.159 218.535C102.082 218.458 102.022 218.368 101.98 218.268C101.938 218.168 101.917 218.061 101.917 217.952C101.917 217.844 101.938 217.736 101.98 217.636C102.021 217.535 102.082 217.444 102.159 217.367C102.235 217.29 102.326 217.23 102.426 217.188C102.526 217.146 102.634 217.125 102.742 217.125H131.316C131.424 217.125 131.531 217.146 131.63 217.188C131.73 217.23 131.82 217.291 131.896 217.368C131.972 217.445 132.033 217.536 132.073 217.636C132.114 217.737 132.134 217.844 132.133 217.952C132.133 218.17 132.047 218.378 131.894 218.532C131.74 218.686 131.533 218.772 131.316 218.772Z" fill="white"/>
<path d="M114.378 128.155C114.087 127.891 113.706 127.75 113.314 127.76C112.922 127.771 112.549 127.932 112.272 128.21C111.995 128.489 111.836 128.864 111.827 129.257C111.818 129.65 111.96 130.032 112.224 130.322C112.476 130.574 112.808 130.729 113.162 130.761C113.517 130.793 113.871 130.7 114.164 130.499C114.172 130.578 114.204 130.653 114.256 130.713L115.287 131.74C115.321 131.773 115.361 131.8 115.405 131.818C115.449 131.836 115.496 131.846 115.543 131.846C115.591 131.846 115.638 131.836 115.682 131.818C115.726 131.8 115.766 131.773 115.799 131.74C115.833 131.706 115.859 131.666 115.878 131.622C115.896 131.578 115.905 131.531 115.905 131.483C115.905 131.435 115.896 131.388 115.878 131.344C115.859 131.3 115.833 131.26 115.799 131.226L114.775 130.192C114.715 130.14 114.641 130.108 114.562 130.1C114.762 129.805 114.853 129.45 114.819 129.094C114.786 128.739 114.63 128.407 114.378 128.155ZM114.073 130.008C113.921 130.161 113.728 130.266 113.517 130.309C113.307 130.351 113.088 130.33 112.889 130.248C112.69 130.166 112.521 130.027 112.401 129.848C112.281 129.669 112.217 129.458 112.217 129.242C112.217 129.027 112.281 128.816 112.401 128.637C112.521 128.458 112.69 128.319 112.889 128.237C113.088 128.155 113.307 128.134 113.517 128.176C113.728 128.219 113.921 128.323 114.073 128.476C114.272 128.681 114.384 128.956 114.384 129.242C114.384 129.529 114.272 129.804 114.073 130.008Z" fill="#2B2B2B"/>
<path opacity="0.2" d="M114.378 128.155C114.087 127.891 113.706 127.75 113.314 127.76C112.922 127.771 112.549 127.932 112.272 128.21C111.995 128.489 111.836 128.864 111.827 129.257C111.818 129.65 111.96 130.032 112.224 130.322C112.476 130.574 112.808 130.729 113.162 130.761C113.517 130.793 113.871 130.7 114.164 130.499C114.172 130.578 114.204 130.653 114.256 130.713L115.287 131.74C115.321 131.773 115.361 131.8 115.405 131.818C115.449 131.836 115.496 131.846 115.543 131.846C115.591 131.846 115.638 131.836 115.682 131.818C115.726 131.8 115.766 131.773 115.799 131.74C115.833 131.706 115.859 131.666 115.878 131.622C115.896 131.578 115.905 131.531 115.905 131.483C115.905 131.435 115.896 131.388 115.878 131.344C115.859 131.3 115.833 131.26 115.799 131.226L114.775 130.192C114.715 130.14 114.641 130.108 114.562 130.1C114.762 129.805 114.853 129.45 114.819 129.094C114.786 128.739 114.63 128.407 114.378 128.155ZM114.073 130.008C113.921 130.161 113.728 130.266 113.517 130.309C113.307 130.351 113.088 130.33 112.889 130.248C112.69 130.166 112.521 130.027 112.401 129.848C112.281 129.669 112.217 129.458 112.217 129.242C112.217 129.027 112.281 128.816 112.401 128.637C112.521 128.458 112.69 128.319 112.889 128.237C113.088 128.155 113.307 128.134 113.517 128.176C113.728 128.219 113.921 128.323 114.073 128.476C114.272 128.681 114.384 128.956 114.384 129.242C114.384 129.529 114.272 129.804 114.073 130.008Z" fill="black"/>
<path d="M279.365 176.29C278.959 176.29 278.571 176.451 278.284 176.739C277.998 177.026 277.837 177.416 277.837 177.822V192.728H265.353L267.79 190.285C267.932 190.143 268.045 189.974 268.122 189.788C268.198 189.602 268.238 189.402 268.238 189.201C268.238 189 268.198 188.8 268.122 188.614C268.045 188.428 267.932 188.259 267.79 188.117C267.504 187.832 267.116 187.672 266.713 187.672C266.309 187.672 265.922 187.832 265.635 188.117L259.523 194.245L265.635 200.373C265.922 200.658 266.309 200.819 266.713 200.819C267.116 200.819 267.504 200.658 267.79 200.373C267.932 200.231 268.045 200.062 268.122 199.876C268.198 199.69 268.238 199.491 268.238 199.289C268.238 199.088 268.198 198.889 268.122 198.703C268.045 198.517 267.932 198.348 267.79 198.205L265.353 195.762H280.893V177.822C280.893 177.416 280.732 177.026 280.445 176.739C280.158 176.451 279.77 176.29 279.365 176.29Z" fill="#2B2B2B"/>
<path opacity="0.7" d="M279.365 176.29C278.959 176.29 278.571 176.451 278.284 176.739C277.998 177.026 277.837 177.416 277.837 177.822V192.728H265.353L267.79 190.285C267.932 190.143 268.045 189.974 268.122 189.788C268.198 189.602 268.238 189.402 268.238 189.201C268.238 189 268.198 188.8 268.122 188.614C268.045 188.428 267.932 188.259 267.79 188.117C267.504 187.832 267.116 187.672 266.713 187.672C266.309 187.672 265.922 187.832 265.635 188.117L259.523 194.245L265.635 200.373C265.922 200.658 266.309 200.819 266.713 200.819C267.116 200.819 267.504 200.658 267.79 200.373C267.932 200.231 268.045 200.062 268.122 199.876C268.198 199.69 268.238 199.491 268.238 199.289C268.238 199.088 268.198 198.889 268.122 198.703C268.045 198.517 267.932 198.348 267.79 198.205L265.353 195.762H280.893V177.822C280.893 177.416 280.732 177.026 280.445 176.739C280.158 176.451 279.77 176.29 279.365 176.29Z" fill="white"/>
<path opacity="0.4" d="M321.201 14.9092V22.1555H328.429L321.201 14.9092Z" fill="white"/>
<path d="M328.726 25.0968L328.78 56.5028C328.78 56.6995 328.705 56.8888 328.57 57.0314C328.435 57.174 328.25 57.259 328.054 57.2688L299.068 57.3225C298.865 57.3225 298.671 57.2417 298.528 57.0981C298.384 56.9544 298.304 56.7596 298.304 56.5565L298.228 15.6674C298.228 15.4642 298.308 15.2694 298.451 15.1257C298.595 14.9821 298.789 14.9014 298.992 14.9014H318.519L328.726 25.0968Z" fill="#2B2B2B"/>
<g opacity="0.7">
<path d="M328.726 25.0968L328.78 56.5028C328.78 56.6995 328.705 56.8888 328.57 57.0314C328.435 57.174 328.25 57.259 328.054 57.2688L299.068 57.3225C298.865 57.3225 298.671 57.2417 298.528 57.0981C298.384 56.9544 298.304 56.7596 298.304 56.5565L298.228 15.6674C298.228 15.4642 298.308 15.2694 298.451 15.1257C298.595 14.9821 298.789 14.9014 298.992 14.9014H318.519L328.726 25.0968Z" fill="white"/>
</g>
<path d="M318.534 14.9092V24.3923C318.534 24.5954 318.615 24.7902 318.758 24.9339C318.901 25.0776 319.096 25.1583 319.298 25.1583H328.726L318.534 14.9092Z" fill="#2B2B2B"/>
<path opacity="0.9" d="M318.534 14.9092V24.3923C318.534 24.5954 318.615 24.7902 318.758 24.9339C318.901 25.0776 319.096 25.1583 319.298 25.1583H328.726L318.534 14.9092Z" fill="white"/>
<g opacity="0.8">
<path d="M321.323 33.8986H305.898C305.659 33.8986 305.429 33.8034 305.26 33.6338C305.091 33.4643 304.996 33.2344 304.996 32.9947C304.996 32.876 305.019 32.7585 305.065 32.6488C305.11 32.5391 305.176 32.4395 305.26 32.3556C305.344 32.2716 305.443 32.205 305.553 32.1596C305.662 32.1142 305.779 32.0908 305.898 32.0908H321.323C321.441 32.0908 321.558 32.1142 321.668 32.1596C321.777 32.205 321.877 32.2716 321.96 32.3556C322.044 32.4395 322.11 32.5391 322.156 32.6488C322.201 32.7585 322.224 32.876 322.224 32.9947C322.224 33.2344 322.129 33.4643 321.96 33.6338C321.791 33.8034 321.562 33.8986 321.323 33.8986Z" fill="white"/>
<path d="M321.147 39.0843H305.867C305.749 39.0853 305.632 39.0629 305.523 39.0183C305.414 38.9737 305.314 38.9078 305.23 38.8245C305.146 38.7412 305.08 38.642 305.035 38.5328C304.989 38.4236 304.966 38.3064 304.966 38.1881C304.966 37.9483 305.061 37.7184 305.23 37.5489C305.399 37.3794 305.628 37.2842 305.867 37.2842H321.147C321.386 37.2842 321.616 37.3794 321.785 37.5489C321.954 37.7184 322.049 37.9483 322.049 38.1881C322.049 38.3064 322.025 38.4236 321.98 38.5328C321.935 38.642 321.868 38.7412 321.784 38.8245C321.701 38.9078 321.601 38.9737 321.492 39.0183C321.382 39.0629 321.265 39.0853 321.147 39.0843Z" fill="white"/>
<path d="M320.819 44.5998H305.898C305.659 44.5998 305.429 44.5045 305.26 44.335C305.091 44.1655 304.996 43.9356 304.996 43.6959C304.996 43.4561 305.091 43.2262 305.26 43.0567C305.429 42.8872 305.659 42.792 305.898 42.792H320.819C321.058 42.792 321.287 42.8872 321.456 43.0567C321.625 43.2262 321.72 43.4561 321.72 43.6959C321.72 43.9356 321.625 44.1655 321.456 44.335C321.287 44.5045 321.058 44.5998 320.819 44.5998Z" fill="white"/>
</g>
<path d="M227.382 29.417H185.247V57.1922H227.382V29.417Z" fill="#2B2B2B"/>
<path opacity="0.7" d="M227.382 29.417H185.247V57.1922H227.382V29.417Z" fill="white"/>
<path d="M199.656 44.5605L187.058 57.1919H212.254L199.656 44.5605Z" fill="#2B2B2B"/>
<path opacity="0.3" d="M199.656 44.5605L187.058 57.1919H212.254L199.656 44.5605Z" fill="white"/>
<path d="M226.946 57.1924L214.447 35.8057L201.948 57.1924H226.946Z" fill="#2B2B2B"/>
<path opacity="0.5" d="M226.946 57.1924L214.447 35.8057L201.948 57.1924H226.946Z" fill="white"/>
<path opacity="0.8" d="M202.987 40.8453C204.383 40.8453 205.516 39.7102 205.516 38.3099C205.516 36.9096 204.383 35.7744 202.987 35.7744C201.59 35.7744 200.458 36.9096 200.458 38.3099C200.458 39.7102 201.59 40.8453 202.987 40.8453Z" fill="white"/>
<path d="M172.427 69.2719C172.427 68.9655 172.427 68.6668 172.389 68.3604L176.209 65.7253C176.003 64.8105 175.717 63.9158 175.353 63.052L170.693 63.1822C170.374 62.6627 170.017 62.1684 169.623 61.7038L171.151 57.3146C170.439 56.694 169.672 56.1402 168.859 55.6601L165.169 58.5019C164.606 58.2695 164.026 58.0801 163.435 57.9351L162.121 53.4693C161.652 53.4234 161.186 53.4004 160.722 53.4004C160.249 53.4004 159.783 53.4004 159.317 53.4693L158.003 57.9351C157.411 58.0801 156.831 58.2695 156.268 58.5019L152.578 55.6601C151.765 56.1402 150.998 56.694 150.286 57.3146L151.814 61.7038C151.423 62.1704 151.065 62.6644 150.745 63.1822L146.092 63.052C145.725 63.9156 145.437 64.8103 145.229 65.7253L149.049 68.3604C149.049 68.6668 149.01 68.9655 149.01 69.2719C149.01 69.5783 149.01 69.8847 149.049 70.1911L145.229 72.8261C145.438 73.7409 145.727 74.6355 146.092 75.4995L150.745 75.3693C151.065 75.8871 151.423 76.3811 151.814 76.8476L150.286 81.2368C151 81.8548 151.767 82.4085 152.578 82.8914L156.268 80.0495C156.83 80.2829 157.41 80.4699 158.003 80.6087L159.317 85.0821C159.783 85.0821 160.249 85.1511 160.722 85.1511C161.196 85.1511 161.655 85.1511 162.121 85.0821L163.435 80.6087C164.027 80.4699 164.607 80.2829 165.169 80.0495L168.859 82.8914C169.67 82.4085 170.437 81.8548 171.151 81.2368L169.623 76.8476C170.017 76.383 170.374 75.8888 170.693 75.3693L175.353 75.4995C175.716 74.6352 176.002 73.7407 176.209 72.8261L172.389 70.1911C172.412 69.8847 172.427 69.586 172.427 69.2719ZM160.799 74.6339C159.741 74.6339 158.707 74.3194 157.828 73.7302C156.948 73.1411 156.263 72.3036 155.858 71.3239C155.453 70.3441 155.347 69.266 155.554 68.2258C155.76 67.1857 156.269 66.2303 157.017 65.4804C157.765 64.7305 158.718 64.2198 159.755 64.0129C160.793 63.806 161.868 63.9122 162.845 64.3181C163.823 64.7239 164.658 65.4112 165.246 66.2929C165.833 67.1747 166.147 68.2114 166.147 69.2719C166.147 70.694 165.583 72.0578 164.58 73.0634C163.578 74.069 162.217 74.6339 160.799 74.6339Z" fill="#2B2B2B"/>
<path opacity="0.7" d="M172.427 69.2719C172.427 68.9655 172.427 68.6668 172.389 68.3604L176.209 65.7253C176.003 64.8105 175.717 63.9158 175.353 63.052L170.693 63.1822C170.374 62.6627 170.017 62.1684 169.623 61.7038L171.151 57.3146C170.439 56.694 169.672 56.1402 168.859 55.6601L165.169 58.5019C164.606 58.2695 164.026 58.0801 163.435 57.9351L162.121 53.4693C161.652 53.4234 161.186 53.4004 160.722 53.4004C160.249 53.4004 159.783 53.4004 159.317 53.4693L158.003 57.9351C157.411 58.0801 156.831 58.2695 156.268 58.5019L152.578 55.6601C151.765 56.1402 150.998 56.694 150.286 57.3146L151.814 61.7038C151.423 62.1704 151.065 62.6644 150.745 63.1822L146.092 63.052C145.725 63.9156 145.437 64.8103 145.229 65.7253L149.049 68.3604C149.049 68.6668 149.01 68.9655 149.01 69.2719C149.01 69.5783 149.01 69.8847 149.049 70.1911L145.229 72.8261C145.438 73.7409 145.727 74.6355 146.092 75.4995L150.745 75.3693C151.065 75.8871 151.423 76.3811 151.814 76.8476L150.286 81.2368C151 81.8548 151.767 82.4085 152.578 82.8914L156.268 80.0495C156.83 80.2829 157.41 80.4699 158.003 80.6087L159.317 85.0821C159.783 85.0821 160.249 85.1511 160.722 85.1511C161.196 85.1511 161.655 85.1511 162.121 85.0821L163.435 80.6087C164.027 80.4699 164.607 80.2829 165.169 80.0495L168.859 82.8914C169.67 82.4085 170.437 81.8548 171.151 81.2368L169.623 76.8476C170.017 76.383 170.374 75.8888 170.693 75.3693L175.353 75.4995C175.716 74.6352 176.002 73.7407 176.209 72.8261L172.389 70.1911C172.412 69.8847 172.427 69.586 172.427 69.2719ZM160.799 74.6339C159.741 74.6339 158.707 74.3194 157.828 73.7302C156.948 73.1411 156.263 72.3036 155.858 71.3239C155.453 70.3441 155.347 69.266 155.554 68.2258C155.76 67.1857 156.269 66.2303 157.017 65.4804C157.765 64.7305 158.718 64.2198 159.755 64.0129C160.793 63.806 161.868 63.9122 162.845 64.3181C163.823 64.7239 164.658 65.4112 165.246 66.2929C165.833 67.1747 166.147 68.2114 166.147 69.2719C166.147 70.694 165.583 72.0578 164.58 73.0634C163.578 74.069 162.217 74.6339 160.799 74.6339Z" fill="white"/>
<path d="M187.034 88.0386C187.034 87.8471 187.034 87.6479 187.034 87.4564L189.51 85.7559C189.376 85.1658 189.189 84.589 188.952 84.0324L185.957 84.1167C185.75 83.7829 185.517 83.4653 185.262 83.1668L186.263 80.3326C185.808 79.9388 185.323 79.5827 184.811 79.2679L182.435 81.0986C182.07 80.95 181.695 80.8297 181.312 80.7386L180.472 77.8585C179.869 77.7972 179.263 77.7972 178.661 77.8585L177.813 80.7386C177.433 80.8308 177.06 80.9512 176.697 81.0986L174.321 79.2679C173.807 79.5826 173.319 79.9387 172.862 80.3326L173.871 83.1668C173.615 83.4653 173.383 83.7829 173.175 84.1167L170.18 84.0324C169.943 84.589 169.757 85.1658 169.623 85.7559L172.098 87.4564C172.098 87.6479 172.098 87.8471 172.098 88.0386C172.098 88.2301 172.098 88.4369 172.098 88.6284L169.607 90.3289C169.741 90.9191 169.928 91.4959 170.165 92.0524L173.16 91.9682C173.367 92.302 173.6 92.6195 173.855 92.918L172.847 95.7522C173.304 96.1462 173.792 96.5023 174.306 96.817L176.682 94.9786C177.045 95.1332 177.421 95.2562 177.805 95.3462L178.646 98.2264C178.944 98.2264 179.249 98.2264 179.547 98.2264C179.845 98.2264 180.158 98.2264 180.456 98.2264L181.297 95.3462C181.681 95.2562 182.057 95.1332 182.42 94.9786L184.796 96.817C185.308 96.5022 185.793 96.1461 186.247 95.7522L185.247 92.918C185.502 92.6195 185.734 92.302 185.942 91.9682L188.937 92.0524C189.174 91.4959 189.36 90.9191 189.494 90.3289L187.019 88.6284C187.027 88.4369 187.034 88.2378 187.034 88.0386ZM179.539 91.4933C178.858 91.4933 178.192 91.2907 177.625 90.9111C177.058 90.5315 176.617 89.9919 176.356 89.3606C176.095 88.7294 176.027 88.0348 176.16 87.3646C176.293 86.6945 176.621 86.0789 177.103 85.5958C177.585 85.1127 178.199 84.7836 178.867 84.6503C179.536 84.517 180.228 84.5854 180.858 84.8469C181.488 85.1084 182.026 85.5512 182.404 86.1193C182.783 86.6874 182.985 87.3553 182.985 88.0386C182.986 88.4926 182.898 88.9422 182.725 89.3618C182.552 89.7814 182.298 90.1627 181.978 90.4837C181.658 90.8047 181.278 91.0591 180.859 91.2324C180.441 91.4056 179.992 91.4943 179.539 91.4933Z" fill="#2B2B2B"/>
<path opacity="0.7" d="M187.034 88.0386C187.034 87.8471 187.034 87.6479 187.034 87.4564L189.51 85.7559C189.376 85.1658 189.189 84.589 188.952 84.0324L185.957 84.1167C185.75 83.7829 185.517 83.4653 185.262 83.1668L186.263 80.3326C185.808 79.9388 185.323 79.5827 184.811 79.2679L182.435 81.0986C182.07 80.95 181.695 80.8297 181.312 80.7386L180.472 77.8585C179.869 77.7972 179.263 77.7972 178.661 77.8585L177.813 80.7386C177.433 80.8308 177.06 80.9512 176.697 81.0986L174.321 79.2679C173.807 79.5826 173.319 79.9387 172.862 80.3326L173.871 83.1668C173.615 83.4653 173.383 83.7829 173.175 84.1167L170.18 84.0324C169.943 84.589 169.757 85.1658 169.623 85.7559L172.098 87.4564C172.098 87.6479 172.098 87.8471 172.098 88.0386C172.098 88.2301 172.098 88.4369 172.098 88.6284L169.607 90.3289C169.741 90.9191 169.928 91.4959 170.165 92.0524L173.16 91.9682C173.367 92.302 173.6 92.6195 173.855 92.918L172.847 95.7522C173.304 96.1462 173.792 96.5023 174.306 96.817L176.682 94.9786C177.045 95.1332 177.421 95.2562 177.805 95.3462L178.646 98.2264C178.944 98.2264 179.249 98.2264 179.547 98.2264C179.845 98.2264 180.158 98.2264 180.456 98.2264L181.297 95.3462C181.681 95.2562 182.057 95.1332 182.42 94.9786L184.796 96.817C185.308 96.5022 185.793 96.1461 186.247 95.7522L185.247 92.918C185.502 92.6195 185.734 92.302 185.942 91.9682L188.937 92.0524C189.174 91.4959 189.36 90.9191 189.494 90.3289L187.019 88.6284C187.027 88.4369 187.034 88.2378 187.034 88.0386ZM179.539 91.4933C178.858 91.4933 178.192 91.2907 177.625 90.9111C177.058 90.5315 176.617 89.9919 176.356 89.3606C176.095 88.7294 176.027 88.0348 176.16 87.3646C176.293 86.6945 176.621 86.0789 177.103 85.5958C177.585 85.1127 178.199 84.7836 178.867 84.6503C179.536 84.517 180.228 84.5854 180.858 84.8469C181.488 85.1084 182.026 85.5512 182.404 86.1193C182.783 86.6874 182.985 87.3553 182.985 88.0386C182.986 88.4926 182.898 88.9422 182.725 89.3618C182.552 89.7814 182.298 90.1627 181.978 90.4837C181.658 90.8047 181.278 91.0591 180.859 91.2324C180.441 91.4056 179.992 91.4943 179.539 91.4933Z" fill="white"/>
<path d="M162.946 89.0886V104.661L160.501 102.218C160.215 101.933 159.827 101.772 159.424 101.772C159.02 101.772 158.633 101.933 158.347 102.218C158.205 102.36 158.092 102.529 158.015 102.715C157.938 102.901 157.898 103.1 157.898 103.302C157.898 103.503 157.938 103.702 158.015 103.888C158.092 104.074 158.205 104.243 158.347 104.386L164.459 110.514L170.571 104.386C170.713 104.243 170.825 104.074 170.902 103.888C170.979 103.702 171.019 103.503 171.019 103.302C171.019 103.1 170.979 102.901 170.902 102.715C170.825 102.529 170.713 102.36 170.571 102.218C170.284 101.933 169.897 101.772 169.493 101.772C169.09 101.772 168.702 101.933 168.416 102.218L165.979 104.661V89.0886C165.979 88.6823 165.818 88.2927 165.531 88.0054C165.245 87.718 164.856 87.5566 164.451 87.5566C164.05 87.5627 163.667 87.7267 163.385 88.0134C163.104 88.3 162.946 88.6863 162.946 89.0886Z" fill="#2B2B2B"/>
<path opacity="0.7" d="M162.946 89.0886V104.661L160.501 102.218C160.215 101.933 159.827 101.772 159.424 101.772C159.02 101.772 158.633 101.933 158.347 102.218C158.205 102.36 158.092 102.529 158.015 102.715C157.938 102.901 157.898 103.1 157.898 103.302C157.898 103.503 157.938 103.702 158.015 103.888C158.092 104.074 158.205 104.243 158.347 104.386L164.459 110.514L170.571 104.386C170.713 104.243 170.825 104.074 170.902 103.888C170.979 103.702 171.019 103.503 171.019 103.302C171.019 103.1 170.979 102.901 170.902 102.715C170.825 102.529 170.713 102.36 170.571 102.218C170.284 101.933 169.897 101.772 169.493 101.772C169.09 101.772 168.702 101.933 168.416 102.218L165.979 104.661V89.0886C165.979 88.6823 165.818 88.2927 165.531 88.0054C165.245 87.718 164.856 87.5566 164.451 87.5566C164.05 87.5627 163.667 87.7267 163.385 88.0134C163.104 88.3 162.946 88.6863 162.946 89.0886Z" fill="white"/>
<path d="M136.702 98.1729H90.992C88.0975 98.1729 85.751 100.525 85.751 103.428V111.494C85.751 114.396 88.0975 116.748 90.992 116.748H136.702C139.597 116.748 141.943 114.396 141.943 111.494V103.428C141.943 100.525 139.597 98.1729 136.702 98.1729Z" fill="#2B2B2B"/>
<path opacity="0.7" d="M136.702 98.1729H90.992C88.0975 98.1729 85.751 100.525 85.751 103.428V111.494C85.751 114.396 88.0975 116.748 90.992 116.748H136.702C139.597 116.748 141.943 114.396 141.943 111.494V103.428C141.943 100.525 139.597 98.1729 136.702 98.1729Z" fill="white"/>
<path opacity="0.8" d="M115.547 102.316C114.898 101.665 114.077 101.212 113.181 101.011C112.285 100.81 111.35 100.868 110.486 101.18C109.622 101.492 108.865 102.044 108.302 102.772C107.739 103.499 107.395 104.373 107.309 105.289C107.223 106.206 107.4 107.128 107.818 107.948C108.235 108.768 108.877 109.452 109.668 109.919C110.46 110.387 111.367 110.619 112.285 110.588C113.203 110.558 114.093 110.266 114.851 109.747C114.876 109.997 114.983 110.232 115.157 110.413L118.419 113.684C118.637 113.894 118.927 114.01 119.229 114.008C119.531 114.005 119.82 113.884 120.034 113.671C120.248 113.457 120.37 113.168 120.373 112.866C120.377 112.563 120.263 112.271 120.054 112.052L116.792 108.781C116.61 108.603 116.373 108.493 116.12 108.467C116.754 107.536 117.043 106.411 116.939 105.288C116.834 104.165 116.342 103.114 115.547 102.316ZM114.599 108.176C114.119 108.659 113.506 108.988 112.839 109.121C112.172 109.254 111.48 109.186 110.852 108.925C110.224 108.665 109.686 108.223 109.308 107.656C108.93 107.089 108.729 106.422 108.729 105.74C108.729 105.059 108.93 104.392 109.308 103.825C109.686 103.258 110.224 102.816 110.852 102.555C111.48 102.295 112.172 102.227 112.839 102.36C113.506 102.493 114.119 102.822 114.599 103.305C114.919 103.624 115.173 104.004 115.346 104.422C115.519 104.84 115.608 105.288 115.608 105.74C115.608 106.193 115.519 106.641 115.346 107.059C115.173 107.477 114.919 107.857 114.599 108.176Z" fill="white"/>
</svg>
