<svg width="696" height="438" viewBox="0 0 696 438" fill="none" xmlns="http://www.w3.org/2000/svg">
<path d="M913.755 363.876C887.066 308.147 809.614 228.819 726.144 181.519C712.146 173.448 698.149 166.195 684.152 159.452C596.855 117.566 499.573 108.371 462.854 42.5795C425.994 -15.4991 439.525 -102.234 463.32 -158.78C472.518 -181.015 483.445 -202.343 495.981 -222.528C505.872 -238.772 512.404 -248.835 512.964 -257.263C514.737 -272.025 496.587 -280.096 450.583 -282.803C420.862 -284.54 352.601 -275.652 284.481 -220.843C230.964 -180.387 182.02 -116.281 136.342 -65.2004C87.398 -9.77804 47.693 8.91743 22.078 40.8938C-6.19703 72.3083 -10.35 128.701 27.583 206.446C57.071 269.53 121.225 336.242 175.255 380.12C182.627 386.249 189.859 392.124 196.951 397.742C243.609 434.418 288.074 463.279 312.942 493.365C314.151 509.279 313.112 525.302 309.863 540.87C306.41 560.792 301.838 579.691 302.538 593.738C302.538 594.249 302.538 594.709 302.538 595.22C301.894 599.611 301.598 604.054 301.651 608.501C301.651 609.625 301.651 610.646 301.371 611.719C300.687 615.885 300.297 620.104 300.205 624.336C300.205 625.051 300.205 625.766 300.205 626.481C299.123 631.518 298.421 636.643 298.105 641.805C297.592 644.819 297.265 647.679 297.032 650.387C296.799 653.094 296.099 655.495 295.819 658.253C292.774 666.484 290.538 675.045 289.147 683.793C288.587 685.683 288.167 687.522 287.747 689.31C285.782 694.94 284.222 700.73 283.081 706.626C282.521 708.414 281.961 710.151 281.495 711.734C278.897 718.364 276.745 725.193 275.056 732.167C268.291 750.862 265.724 766.595 272.583 776.147C282.708 800.104 375.23 780.387 511.098 694.418C635.021 615.805 745.227 495.715 821.559 471.809C875.868 450.202 921.08 446.269 925.699 410.513C927.145 398.355 923.413 382.623 913.755 363.876ZM311.309 475.027C310.129 472.302 308.773 469.674 307.25 467.161C306.363 465.526 305.43 463.943 304.404 462.41C303.377 460.878 302.678 458.886 301.698 457.302C289.52 433.652 264.698 412.147 238.896 386.76C213.981 362.599 186.546 332.87 170.309 301.405C129.064 225.448 166.11 168.187 187.666 124.206C213.048 67.6089 246.222 20.053 275.523 21.6365L280.188 21.9429C289.147 22.4026 294.186 22.4027 296.005 25.4675C297.825 28.5323 297.778 35.6836 297.685 49.3221C297.685 56.1669 297.685 64.6462 298.292 74.8623C299.048 82.6568 300.201 90.399 301.744 98.0528C308.329 131.033 321.577 161.979 340.517 188.619C371.218 233.927 422.215 261.562 456.835 273.821C462.574 276.069 468.126 278.112 473.398 280.053C505.079 291.444 528.968 300.179 542.872 316.167C560.089 334.965 561.862 366.277 543.152 409.951C522.482 460.776 467.986 524.065 421.468 559.259C384.888 587.915 351.482 605.232 331.279 610.646C345.276 566.615 343.083 535.66 329.272 510.937C328.433 508.945 327.453 507.055 326.426 505.114C324.829 500.73 322.745 496.578 320.221 492.752C319.462 490.994 318.605 489.288 317.655 487.644C316.663 485.323 315.541 483.071 314.295 480.902C313.396 478.887 312.399 476.926 311.309 475.027ZM340.19 16.0176C341.593 58.1083 354.606 98.7468 377.517 132.584C413.257 187.444 479.184 207.876 526.262 219.42L548.937 225.754C592.562 238.116 627.696 255.177 646.172 279.798C669.501 309.833 665.349 347.786 636.001 401.267C606.513 458.222 533.867 547 459.541 601.809C383.255 659.53 321.107 682.21 305.57 671.943L308.463 665.915C328.106 671.738 384.422 649.569 453.662 596.752C524.302 544.292 594.055 458.835 621.397 402.187C641.833 362.395 648.318 331.849 641.46 306.564C638.93 297.461 634.56 289.098 628.675 282.096C610.806 259.11 577.772 244.348 536.246 232.701C529.341 230.658 522.249 228.666 514.69 226.623C470.086 215.436 406.911 193.574 372.058 140.348C338.837 93.2518 331.699 35.4282 334.218 -2.21814C335.034 -16.5435 336.906 -30.7733 339.817 -44.7682C341.963 -55.4951 343.503 -62.1356 342.57 -67.1415C341.17 -76.336 331.465 -79.0943 309.35 -77.613C284.761 -75.7741 258.026 -60.3989 235.724 -36.3399C212.908 -13.0472 191.025 22.9135 167.323 59.8447C134.663 113.735 71.442 169.872 127.011 274.741C146.141 311.774 178.661 348.041 209.595 376.902C176.935 347.071 142.175 308.862 122.019 270.041C64.443 161.393 132.283 106.584 166.53 51.1099C191.725 12.9527 215.334 -24.8979 240.016 -49.3655C264.698 -73.8331 292.646 -90.7407 318.681 -92.4264C340.61 -93.8055 350.968 -91.4047 351.995 -83.6405C352.695 -79.3497 350.968 -72.7093 348.449 -62.0845C344.778 -47.3431 342.25 -32.2892 340.89 -17.0826C339.959 -6.08014 339.725 4.97971 340.19 16.0176ZM296.939 23.935C294.372 20.0529 289.52 20.104 279.815 19.5421H275.149C244.868 17.9075 211.975 65.106 185.893 122.572C164.057 166.654 126.311 224.171 168.023 301.354C181.601 327.813 203.156 353.251 224.432 374.961C201.943 352.485 179.034 325.872 164.757 298.34C121.505 218.705 162.004 161.138 185.053 115.829C212.395 57.3928 248.321 6.87421 279.675 8.30441L284.341 8.61093C293.673 9.01953 299.132 9.01963 301.184 12.2377C303.237 15.4557 302.771 23.4754 302.351 37.1649C302.351 44.3673 301.978 53.1531 302.351 63.829C303.086 71.961 304.223 80.0436 305.757 88.0411C311.966 122.189 325.388 154.271 344.949 181.723C376.49 228.257 429.353 255.126 465.327 266.976C471.299 269.122 477.038 271.114 482.543 273.004C515.53 284.139 540.539 293.181 554.956 309.833C572.873 329.55 574.366 361.986 554.676 407.397C532.934 460.265 475.871 526.772 426.881 563.805C386.055 595.782 349.242 614.375 328.339 618.819C329.132 616.571 329.879 614.375 330.579 612.179C351.248 606.815 384.562 589.448 421.795 560.23C468.453 524.882 523.322 461.287 544.085 410.155C558.082 377.464 560.695 351.668 554.256 332.615C551.966 325.92 548.367 319.853 543.712 314.839C529.714 298.697 505.686 289.963 473.725 278.521L457.161 272.34C422.681 260.081 371.918 232.65 341.403 187.597C318.15 154.995 303.614 115.97 299.411 74.8623C298.852 64.6462 298.852 56.4223 298.852 49.3221C299.225 34.9174 299.645 27.8682 296.939 23.935ZM327.593 611.361C328.386 609.063 329.086 606.866 329.786 604.67C328.992 606.815 328.339 609.063 327.639 611.259L327.593 611.361ZM327.593 620.811C348.822 616.367 385.682 597.774 427.207 565.236C476.384 528.049 533.774 461.236 555.656 408.061C570.54 374.092 573.339 347.326 566.761 327.456C564.44 320.453 560.727 314.102 555.889 308.862C541.285 292.006 516.184 282.914 483.103 271.778L465.84 265.75C430.007 253.951 377.19 227.236 346.023 181.059C322.035 147.343 307.453 106.759 304.031 64.1865C303.704 53.6639 304.031 44.8781 304.031 37.7268C304.544 22.4027 305.057 15.0471 302.398 10.9095C299.738 6.77202 294.652 6.82312 284.248 6.31232H279.582C247.108 4.26912 211.368 54.4301 183.28 113.582C159.951 158.992 118.706 216.764 162.424 297.471C178.661 328.886 205.723 358.768 230.964 383.287C204.37 357.746 175.535 326.485 158.505 293.589C113.2 209.868 157.199 151.841 181.834 104.898C199.33 72.4616 215.101 43.6011 231.291 24.8545C247.481 6.10802 265.818 -6.04919 283.828 -7.5816L289.007 -7.27512C299.225 -6.81541 304.824 -6.86645 306.923 -3.34192C309.023 0.182651 308.23 8.45773 307.437 22.8624C307.017 30.4223 306.643 39.719 306.783 50.9056C309.193 95.6208 323.823 138.511 348.775 174.01C381.109 222.026 435.932 248.332 473.352 259.876C479.604 262.022 485.576 263.963 491.315 265.853C525.655 276.835 551.97 286.285 566.901 303.959C585.564 324.748 586.684 358.462 565.921 405.609C543.012 460.52 483.243 530.45 431.593 569.373C386.288 604.823 345.836 624.54 324.7 627.86L327.593 620.811ZM312.476 39.2592C312.702 48.4319 313.481 57.5781 314.809 66.6384C319.94 103.133 333.459 137.601 354.094 166.807C387.221 215.998 444.051 241.283 483.057 252.521C489.542 254.615 495.794 256.505 501.72 258.395C537.553 269.224 565.128 279.593 580.758 298.135C600.214 320.151 600.821 354.937 578.752 403.719C554.49 460.52 491.875 533.923 437.472 574.839C386.801 614.375 342.057 635.216 321.201 636.748C322.18 634.45 323.16 632.151 324.047 629.955C345.603 626.583 386.008 606.917 432.06 570.956C483.943 531.829 544.038 461.593 567.367 406.375C583.091 371.027 586.31 343.291 579.545 322.45C577.167 315.115 573.308 308.462 568.254 302.988C553.09 285.212 526.775 275.609 492.295 264.576C486.556 262.686 480.584 260.745 474.332 258.599C437.005 247.055 382.416 220.953 350.315 173.244C325.548 138.101 310.999 95.6208 308.556 51.3142C308.556 40.2297 308.836 30.882 309.256 23.4754C310.143 7.84473 310.983 -0.379246 308.276 -4.77216C305.57 -9.16507 300.111 -9.16507 288.96 -9.88022L283.734 -10.1867C265.071 -8.70539 246.408 3.29852 230.078 22.607C213.748 41.9154 197.837 70.3673 180.154 102.855C155.006 150.155 110.214 208.336 156.032 293.385C171.569 323.42 196.811 352.434 221.353 376.544C195.505 351.617 168.676 321.224 152.346 289.707C104.802 201.747 152.859 143.77 179.221 95.6008C197.884 62.1433 215.101 31.6993 232.644 12.1355C250.187 -7.42833 269.97 -20.505 289.38 -22.1395C305.617 -23.3655 313.502 -21.5777 314.948 -15.2948C315.589 -9.40078 315.353 -3.43203 314.249 2.37912C312.795 14.6045 312.202 26.9342 312.476 39.2592ZM321.061 628.371C321.994 626.021 322.974 623.672 323.813 621.373H324.14C323.3 623.672 322.367 626.021 321.434 628.422L321.061 628.371ZM324.513 619.483C325.307 617.338 326.1 615.192 326.846 613.047C326.146 615.141 325.446 617.286 324.653 619.483H324.513ZM321.481 612.179H321.201C323.58 605.742 325.633 599.511 327.359 593.585C325.726 599.511 323.767 605.691 321.481 612.179ZM316.815 609.573L315.975 612.025C317.188 608.654 318.355 605.283 319.428 601.809C321.434 596.139 323.114 590.674 324.607 585.412C322.346 593.611 319.698 601.675 316.675 609.573H316.815ZM323.953 -31.896C322.274 -40.171 313.642 -42.5207 294.979 -41.1415C273.796 -39.4559 251.447 -25.8173 232.458 -4.41458C212.955 16.5284 194.385 48.4537 173.902 82.9331C145.394 133.043 91.971 190.815 142.455 284.957C159.578 318.108 188.039 350.289 215.381 376.493C186.453 349.318 156.172 315.503 138.115 280.921C85.765 183.46 142.781 126.454 173.062 74.8113C194.898 39.0549 215.054 5.49502 235.584 -16.2653C256.113 -38.0256 279.722 -52.839 302.071 -54.6779C320.734 -56.057 330.066 -54.0138 331.139 -47.0668C331.502 -40.5081 330.855 -33.9292 329.226 -27.6052C326.848 -14.1268 325.459 -0.461703 325.073 13.2592C324.834 23.2689 325.192 33.285 326.146 43.2435C329.754 82.3413 343.191 119.579 364.966 150.819C399.492 202.717 460.614 225.754 503.213 236.686L523.695 242.56C562.981 253.644 593.682 266.414 610.806 287.511C632.035 313.051 630.868 349.625 605.72 401.216C580.571 456.332 514.644 537.652 448.11 587.456C386.475 635.012 333.985 656.925 313.829 653.86L316.722 647.322C338.557 647.782 386.148 626.89 442.418 583.165C505.779 535.558 569.094 457.456 592.749 403.361C610.479 365.613 614.958 336.19 608.053 313.357C605.582 305.222 601.468 297.802 596.015 291.648C579.545 271.727 550.29 260.285 512.638 249.354L493.135 243.53C452.496 232.497 393.847 208.336 360.253 158.022C334.012 120.293 319.831 74.1653 319.894 26.7445C319.981 13.82 321.01 0.923651 322.974 -11.8213C324.367 -18.399 324.699 -25.1931 323.953 -31.896ZM314.342 644.819C315.182 642.878 315.928 640.988 316.722 639.047H317.095L315.602 642.571L314.622 644.819H314.342ZM318.634 620.045H318.308L319.428 617.082L320.547 614.12H320.874C320.174 615.907 319.381 617.899 318.634 619.892V620.045ZM320.687 630.261C319.848 632.355 318.914 634.552 317.981 636.748H317.608C318.075 635.573 318.541 634.45 318.961 633.326C319.381 632.202 319.801 631.283 320.221 630.261H320.687ZM317.608 621.68H317.888L316.581 625.102C316.162 626.123 315.788 627.145 315.368 628.116C316.022 626.072 316.815 623.927 317.608 621.782V621.68ZM313.315 618.87C313.922 617.184 314.575 615.499 315.182 613.762C314.575 615.55 313.969 617.287 313.315 618.972V618.87ZM314.342 630.159C313.595 632.049 312.896 633.888 312.102 635.778L314.342 630.159ZM313.362 646.811H313.642C312.756 648.854 311.869 650.898 310.936 652.941H310.609C311.589 650.949 312.476 648.956 313.362 646.913V646.811ZM309.35 642.98C310.049 641.294 310.703 639.66 311.402 637.872H311.682L309.35 642.98ZM309.35 656.057L309.629 655.393H310.003L306.97 662.084H306.643C307.483 660.143 308.37 658.1 309.256 656.159L309.35 656.057ZM307.857 646.709C307.343 647.833 306.83 648.956 306.363 650.131C306.97 648.599 307.623 647.067 308.276 645.534C308.09 645.943 307.95 646.402 307.763 646.811L307.857 646.709ZM130.044 275.405C75.174 172.426 137.416 116.187 169.47 62.5009C192.798 25.5697 214.588 -10.2378 237.217 -33.3773C259.846 -56.5167 285.367 -72.3006 309.49 -74.2417C329.739 -75.6209 339.397 -73.4244 340.517 -66.0688C341.357 -61.9313 339.91 -55.8527 337.857 -45.6366C334.96 -31.4336 333.104 -17.0001 332.305 -2.47354C331.658 8.05412 331.658 18.6176 332.305 29.1453C334.904 69.8487 348.172 108.868 370.518 141.523C405.698 195.106 469.153 217.071 513.851 228.359L535.36 234.438C576.652 245.982 609.453 260.642 627.136 283.322C649.392 310.854 647.012 348.399 619.95 401.216C592.842 457.456 523.602 542.658 453.615 594.76C385.355 646.964 328.293 669.491 309.723 663.361L313.082 656.159C334.032 659.173 386.008 637.514 448.623 589.294C515.484 539.338 581.878 457.609 607.26 402.238C626.249 363.416 631.662 333.381 624.756 309.373C622.28 300.773 618.034 292.909 612.345 286.387C595.222 265.035 564.148 252.163 524.675 240.976L504.193 235.102C461.687 224.171 400.846 201.236 366.599 149.747C339.568 110.575 325.649 62.4263 327.173 13.3614C327.572 -0.138761 328.961 -13.582 331.325 -26.8389C333.052 -37.0551 334.265 -43.2358 333.238 -47.9352C331.652 -56.67 322.6 -59.1729 302.118 -57.6916C279.302 -55.8527 254.993 -41.4991 234.37 -18.8193C213.235 3.04311 193.078 36.9606 171.009 72.717C140.588 124.462 82.359 181.519 135.223 280.666C155.705 320.202 191.679 358.206 223.872 387.424C189.906 356.98 151.553 316.882 130.044 275.405ZM145.161 285.621C95.284 193.012 147.727 135.342 175.908 85.385C196.158 50.8545 214.588 18.9803 233.671 -1.80948C252.754 -22.5993 274.263 -36.34 294.979 -38.0767C312.429 -39.3537 320.827 -37.4637 322.227 -30.8232C322.741 -24.6087 322.316 -18.3439 320.967 -12.281C319.163 0.478634 318.274 13.3732 318.308 26.2848C318.325 35.8691 318.917 45.4417 320.081 54.9409C324.517 92.7918 338.04 128.678 359.273 158.941C393.147 209.562 452.076 233.876 492.761 244.91L512.311 250.733C549.637 261.613 578.892 273.004 595.175 292.721C615.471 316.269 615.331 352.128 591.863 402.391C568.534 456.23 505.499 533.923 442.558 581.173C386.941 624.387 339.024 645.483 317.748 644.819L319.008 641.907C319.474 640.835 319.894 639.762 320.361 638.74C341.73 637.157 386.335 616.418 437.798 576.32C492.481 535.456 555.469 461.491 579.965 404.383C596.622 367.758 600.354 339.204 593.542 317.546C591.105 309.863 587.118 302.879 581.878 297.114C566.107 278.367 538.393 267.998 502.56 257.067L483.896 251.244C444.984 240.006 388.435 214.874 355.541 165.99C329.886 129.678 315.398 85.4013 314.155 39.5146C313.876 27.3115 314.437 15.1027 315.835 2.992C317.077 -3.26708 317.299 -9.71747 316.488 -16.0609C314.669 -23.9274 306.737 -26.2771 288.96 -24.8468C269.27 -23.2122 248.648 -10.4932 231.151 9.83691C213.654 30.1669 196.251 60.049 177.215 93.5068C150.526 142.033 101.536 200.112 149.64 289.503C168.536 326.025 201.337 361.016 230.638 388.088L236.843 393.86L230.031 387.577C199.284 359.483 164.804 323.267 145.161 285.416V285.621ZM317.095 580.917C318.541 575.809 319.894 570.701 321.107 565.593C319.381 573.102 317.281 580.917 315.042 588.222L313.362 593.738C314.622 589.346 315.882 585.055 317.095 580.713V580.917ZM317.795 587.813C319.661 581.632 321.387 575.349 322.927 569.118C320.921 577.648 318.261 586.332 315.695 594.913L313.175 602.575C314.715 597.518 316.302 592.564 317.795 587.609V587.813ZM318.541 594.454C320.407 588.528 322.227 582.501 323.813 576.524C321.753 585.366 319.213 594.065 316.208 602.575C315.228 605.538 314.202 608.501 313.175 611.514H312.942C314.809 605.64 316.722 599.97 318.541 594.249V594.454ZM312.289 613.404C311.776 614.835 311.263 616.265 310.703 617.746L312.289 613.404ZM312.289 621.169C311.636 622.956 310.936 624.744 310.236 626.277C311.029 624.387 311.729 622.752 312.382 620.964L312.289 621.169ZM309.909 620.045C309.773 620.321 309.663 620.612 309.583 620.913L309.909 620.045ZM309.35 628.831C309.368 629.035 309.368 629.24 309.35 629.444C308.93 630.465 308.556 631.538 308.136 632.56L309.35 628.831ZM306.83 635.42L305.384 638.996C305.944 637.617 306.41 636.442 306.923 635.216L306.83 635.42ZM305.477 665.149L304.917 666.375L303.097 670.257V669.951L305.384 664.843L305.477 665.149ZM304.917 652.992C304.264 654.524 303.611 656.006 302.911 657.538L304.917 652.992ZM304.077 674.905C321.341 684.56 382.462 662.289 459.634 604.057C534.287 549.094 607.586 459.908 637.354 402.697C659.516 362.293 667.495 331.542 660.683 304.929C658.174 295.254 653.691 286.329 647.572 278.827C628.909 253.9 593.449 236.583 549.591 224.171C542.265 222.026 534.707 219.931 526.915 217.786C479.884 206.191 414.236 185.809 378.87 131.307C344.996 83.1885 338.977 22.7092 342.896 -16.8271C344.27 -31.8767 346.782 -46.7753 350.408 -61.3694C353.115 -72.6071 355.074 -79.6051 354.141 -84.8664C352.928 -94.5717 342.523 -97.5344 318.634 -96.0531C292.04 -94.1631 263.065 -77.8684 238.476 -52.3792C213.608 -27.6562 189.812 10.3987 164.337 48.5559C129.717 104.336 60.43 158.89 118.799 269.581C141.801 314.124 183.28 357.185 219.72 389.161C232.084 400.194 244.262 410.462 255.506 420.218C244.262 410.717 232.178 400.705 219.813 389.978C181.787 357.338 138.255 312.796 114.413 266.823C54.085 152.862 127.991 100.301 164.337 43.3457C191.305 4.32013 216.687 -35.2672 243.329 -60.8075C269.457 -87.1651 300.205 -104.022 328.153 -106.065C351.482 -107.495 362.726 -104.941 363.613 -96.9214C364.266 -92.4774 362.213 -85.6326 359.273 -74.5992C354.957 -59.3551 351.835 -43.7361 349.942 -27.9116C348.684 -16.5756 348.169 -5.15538 348.402 6.26123C349.009 43.7032 358.9 88.8584 384.982 125.637C421.282 181.161 489.682 199.754 539.279 212.014C547.444 214.261 555.423 216.458 563.075 218.807C609.173 232.191 646.825 252.316 666.048 279.031C690.497 311.876 684.058 349.778 652.051 403.412C619.81 460.418 543.525 552.568 465.093 609.727C381.109 672.351 314.342 694.929 301.791 680.882L301.324 680.116L304.077 674.905ZM681.259 306.104C678.773 295.831 674.213 286.3 667.915 278.214C648.412 251.141 610.479 230.811 564.148 217.275C556.449 214.925 548.517 212.729 540.259 210.481C490.755 198.12 422.681 179.833 386.708 124.411C352.228 75.8329 347.189 13.3614 352.321 -27.4519C354.248 -43.0357 357.369 -58.4142 361.653 -73.4244C364.826 -85.1218 367.019 -92.3753 366.319 -97.8409C365.246 -108.057 354.188 -111.071 328.619 -109.538C299.645 -107.75 268.384 -90.7407 241.882 -63.9745C214.961 -38.4343 189.346 1.51072 162.098 40.5362C125.331 97.6438 49.839 150.002 110.774 266.21C132.143 307.432 169.33 347.939 204.09 379.405C167.23 346.866 127.478 304.01 104.988 260.745C41.581 140.246 122.299 90.2376 160.978 31.1374C190.326 -9.01184 218.04 -51.2554 247.201 -78.3281C275.756 -106.269 309.49 -124.3 339.817 -125.935C365.292 -127.263 377.143 -124.403 377.937 -115.719C378.496 -111.071 376.07 -103.919 372.478 -92.3753C367.395 -76.4519 363.57 -60.08 361.046 -43.4401C359.293 -31.6154 358.357 -19.6627 358.247 -7.68375C357.687 31.495 366.832 78.438 393.287 116.085C430.053 172.886 501.346 189.743 554.023 203.33C562.733 205.714 571.209 208.217 579.452 210.839C628.536 226.163 669.361 250.12 689.471 279.389C715.272 315.758 705.847 352.996 670.807 406.273C635.161 462.462 554.956 558.442 471.859 618.308C382.836 683.691 312.756 706.831 300.158 691.966C299.304 690.633 298.6 689.192 298.058 687.676L299.925 683.896C313.922 698.096 379.243 676.182 465.373 612.383C544.272 555.07 621.164 462.462 653.731 405.251C677.573 364.489 687.464 333.943 681.166 306.104H681.259ZM301.371 661.165L300.298 663.565C300.671 662.748 300.998 661.982 301.371 661.165ZM301.371 673.118H301.604L299.785 676.949V676.642C300.298 675.467 300.858 674.343 301.418 673.118H301.371ZM297.778 680.831L296.659 683.232C297.125 682.363 297.452 681.597 297.825 680.831H297.778ZM294.466 688.033C294.37 688.193 294.291 688.364 294.232 688.544L294.466 688.033ZM295.819 691.711C296.24 692.591 296.708 693.443 297.219 694.265C310.283 710.049 379.616 687.88 471.439 620.76C555.096 560.74 635.954 464.454 672.067 407.856C698.616 367.401 710.747 337.519 704.728 308.3C702.341 297.312 697.68 287.07 691.104 278.367C670.761 248.69 629.562 224.222 580.151 208.949C571.94 206.293 563.464 203.773 554.723 201.389C502.046 187.699 431.08 170.741 394.687 114.552C359.693 64.9017 356.194 -0.430332 363.099 -43.1337C365.668 -59.5629 369.492 -75.727 374.53 -91.4558C378.356 -103.715 380.969 -111.326 380.269 -116.996C379.476 -127.621 367.578 -131.094 339.817 -129.715C308.93 -127.927 274.496 -109.845 245.522 -81.5462C216.081 -54.2692 188.133 -12.0256 158.785 28.328C119.592 87.6835 37.195 137.283 101.489 260.234C122.625 301.098 158.925 341.963 193.825 373.479C156.499 340.43 115.533 296.399 94.724 253.491C66.076 196.587 64.583 150.462 81.146 118.332C95.89 86.713 123.138 61.6836 156.919 16.5795C188.273 -25.0511 218.46 -69.7977 250.701 -99.4755C291.34 -138.858 333.098 -148.768 352.368 -149.738C380.083 -150.862 392.96 -147.593 393.38 -138.603C393.847 -133.495 390.954 -126.037 386.662 -113.88C380.627 -97.1468 375.943 -79.8665 372.664 -62.2377C370.333 -49.813 368.883 -37.2097 368.325 -24.5404C366.319 16.6816 374.53 66.0254 401.312 104.796C438.358 163.487 512.778 178.914 569.28 194.391C578.612 197.098 587.57 199.908 596.342 202.921C648.925 220.34 693.39 249.354 714.479 281.585C741.727 321.99 728.477 358.206 689.797 410.513C650.278 465.731 565.874 565.389 477.598 628.013C383.022 696.308 309.629 719.958 297.219 703.868C295.489 702.303 294.129 700.306 293.253 698.045L295.819 691.711ZM290.733 702.285C291.586 703.926 292.709 705.381 294.046 706.575C306.923 723.33 379.476 700.905 476.944 630.874C565.827 568.147 651.025 467.927 690.917 412.556C720.218 372.611 735.102 343.853 729.923 313.153C727.611 301.363 722.819 290.327 715.926 280.921C694.556 248.23 649.672 218.859 596.762 201.185C587.959 198.154 578.907 195.293 569.607 192.603C513.617 177.279 439.292 161.495 402.619 103.263C367.205 52.1826 365.619 -16.7761 374.624 -61.8291C377.931 -79.2671 382.615 -96.358 388.621 -112.909C393.287 -125.833 396.366 -133.904 395.806 -140.084C395.293 -151.322 382.509 -155.408 352.368 -154.182C332.725 -153.212 290.173 -143.251 248.834 -103.102C216.174 -73.2712 185.8 -28.2692 154.306 13.2081C120.152 58.3122 92.531 83.1885 77.367 114.859C60.29 147.295 61.597 194.238 90.618 252.316C112.594 297.88 156.312 344.261 195.458 378.281C154.026 342.933 107.135 293.845 84.086 246.084C53.945 186.065 53.152 138.151 71.488 105.919C87.865 73.994 117.259 49.7307 153.559 2.94101C187.666 -40.0688 220.326 -87.7269 255.973 -119.192C300.718 -161.078 346.536 -171.192 367.438 -171.959C397.579 -172.776 411.483 -169.047 411.623 -159.546C411.95 -154.438 408.544 -146.418 403.505 -133.699C396.388 -116.263 390.674 -98.1799 386.428 -79.6562C383.504 -66.682 381.492 -53.4816 380.409 -40.171C376.77 2.94102 383.955 54.2769 411.017 93.9668C448.343 153.935 526.262 167.625 586.777 185.912C596.762 189.028 606.466 192.297 615.938 196.128C672.72 216.866 721.618 252.316 743.687 287.817C772.568 333.023 754.605 366.788 711.026 417C666.608 469.511 577.725 572.795 483.85 638.281C383.629 709.18 306.363 732.831 294.139 715.872C291.542 713.167 289.891 709.553 289.473 705.656L290.733 702.285ZM286.721 710.968C287.58 713.999 289.196 716.706 291.386 718.784C304.031 736.56 380.036 714.084 483.803 641.09C578.378 575.452 668.055 471.554 712.893 418.941C745.553 380.477 764.216 353.864 760.064 321.888C758.017 309.23 753.216 297.299 746.066 287.102C723.671 250.886 674.307 215.13 617.151 194.187C607.819 190.56 597.881 187.24 587.897 183.971C527.241 165.633 449.743 151.841 412.837 92.0258C377.05 39.6679 377.563 -32.2535 388.948 -79.4008C393.203 -97.6832 398.901 -115.526 405.978 -132.729C411.39 -146.265 415.076 -154.693 414.656 -161.232C414.656 -173.082 400.659 -177.577 367.998 -176.556C346.676 -175.892 300.018 -165.676 254.527 -123.177C218.647 -91.5069 185.333 -43.4912 151.46 -0.583557C114.74 46.3594 85.019 70.4183 68.129 102.395C49.186 134.933 49.466 183.664 80.307 245.012C104.335 294.969 153.559 345.896 196.204 382.061C202.052 387.067 207.791 391.902 213.421 396.568C216.734 399.326 220.093 402.033 223.453 404.741L212.115 395.699C206.205 390.864 200.155 385.756 193.965 380.375C149.22 342.933 97.337 289.299 72.655 237.35C40.927 173.806 41.021 124.104 61.317 91.7698C79.607 59.6404 111.241 36.2966 150.293 -12.281C186.36 -56.9765 222.613 -108.006 261.665 -141.361C310.796 -185.648 361.046 -195.864 383.629 -196.273C416.289 -196.63 431.406 -192.289 431.266 -182.277C431.266 -176.76 427.487 -168.485 421.562 -155.153C413.268 -136.917 406.43 -117.929 401.125 -98.4028C397.537 -84.8544 394.916 -71.0209 393.287 -57.0276C387.781 -11.8213 393.66 41.8132 420.955 82.5244C458.281 144.128 540.259 156.234 605.72 178.045C616.451 181.672 626.949 185.554 637.214 189.845C698.802 214.721 752.878 257.629 775.974 297.114C783.192 307.716 787.861 320.135 789.552 333.228C792.491 365.919 770.002 389.416 734.029 425.173C683.872 473.852 590.276 580.968 490.195 649.365C382.882 723.534 302.024 746.98 290.313 729C288.607 727.116 287.285 724.859 286.432 722.377C285.58 719.894 285.217 717.242 285.367 714.595C285.647 713.318 286.207 712.143 286.767 711.224L286.721 710.968ZM282.055 721.184C282.49 725.21 284.13 728.964 286.721 731.86C298.992 750.913 378.776 728.591 489.355 652.583C590.183 583.982 684.711 476.202 735.242 427.471C771.962 391.153 795.151 367.656 792.258 334.249C790.601 320.705 785.869 307.832 778.494 296.807C755.165 256.658 700.435 213.189 638.52 187.955C628.224 183.664 617.68 179.697 606.886 176.053C541.565 154.088 459.821 141.778 422.821 80.5323C386.662 26.8467 389.741 -48.6503 403.738 -98.2495C409.015 -117.583 415.805 -136.382 424.034 -154.438C430.427 -168.638 434.719 -177.475 434.486 -184.473C434.486 -196.988 419.929 -202.096 384.282 -201.841C360.953 -201.534 309.956 -191.216 259.752 -145.959C220.326 -111.632 183.933 -60.0924 147.494 -15.6012C108.021 33.0274 75.921 55.9115 57.164 88.2965C36.215 120.835 35.795 171.456 68.035 236.43C92.531 287.511 142.688 340.634 187.013 378.23C140.355 339.204 86.185 282.914 60.43 229.075C26.977 161.853 28.05 110.312 50.492 78.1826C71.022 45.9508 104.802 23.7307 146.794 -26.7368C185.66 -73.2712 225.459 -127.876 268.571 -163.275C322.974 -210.678 378.31 -220.74 403.038 -220.689C438.825 -220.689 454.922 -215.581 454.362 -204.803C454.362 -199.031 449.696 -190.399 442.978 -176.505C433.37 -157.556 425.284 -137.731 418.809 -117.251C414.457 -103.133 411.103 -88.6683 408.777 -73.9863C401.219 -26.7879 405.558 29.0431 433.086 70.6737C470.412 133.656 557.009 144.179 628.489 170.996C640.153 175.389 651.818 180.139 662.922 185.401C730.389 216.049 790.718 268.509 814.933 312.489C830.47 338.745 831.684 360.965 821.792 378.638C811.201 397.845 788.805 413.373 760.11 436.308C702.815 478.961 604.227 589.55 497.427 661.062C382.882 738.45 297.872 761.742 286.441 742.281C282.055 737.479 280.982 730.277 282.288 721.44L282.055 721.184ZM277.762 731.911L278.182 730.839C277.915 736.207 279.591 741.474 282.848 745.499C294.606 765.931 378.45 744.068 496.494 664.894C604.227 593.381 703.748 481.617 761.51 438.964C803.129 406.171 832.197 387.424 831.17 352.894C830.086 338.349 825.444 324.392 817.733 312.489C793.191 267.743 732.209 214.466 664.135 183.562C652.844 178.454 641.273 173.346 629.562 169.004C558.036 141.982 471.905 131.204 434.859 68.6305C398.373 13.6679 404.345 -65.1494 421.282 -116.792C427.728 -136.955 435.751 -156.473 445.264 -175.126C452.682 -189.99 457.628 -199.236 457.628 -206.642C458.328 -219.821 442.418 -225.746 403.645 -226.206C378.45 -226.206 322.227 -215.99 266.751 -168.076C223.173 -132.32 182.767 -77.3065 143.761 -30.7722C101.302 19.7464 66.729 41.6089 45.78 73.8918C22.451 106.226 21.144 158.686 55.111 227.491C81.706 283.68 137.789 341.503 185.753 381.295L200.497 393.554C194.805 388.957 188.988 384.172 183.047 379.2C132.703 337.876 73.588 276.528 46.013 218.297C10.786 146.784 13.026 93.3028 37.801 61.3771C60.944 29.2985 97.43 8.35551 142.595 -44.7682C184.587 -93.6012 228.352 -152.599 276.176 -190.348C336.831 -241.428 397.486 -250.827 424.408 -250.061C463.46 -248.835 480.77 -242.858 479.837 -231.621C479.837 -225.44 474.332 -216.296 466.4 -201.841C455.273 -181.981 445.719 -161.115 437.845 -139.471C432.61 -124.672 428.415 -109.457 425.294 -93.9588C415.216 -44.2574 417.642 14.383 445.264 57.3928C482.59 122.419 574.086 131.919 652.471 165.02C665.193 170.332 677.775 176.172 690.217 182.54C764.45 219.982 831.964 283.833 857.205 332.768C873.629 362.242 873.302 385.023 860.471 401.114C846.754 418.737 819.879 430.332 787.359 450.304C722.038 485.499 618.084 600.481 503.633 675.365C380.969 756.174 291.713 778.701 280.982 757.605C276.316 751.679 275.709 742.894 277.996 732.116L277.762 731.911ZM907.222 432.171C889.399 447.086 856.645 453.012 819.226 468.387C743.314 492.446 634.181 611.412 511.285 689.821C379.663 773.899 285.554 795.404 275.663 772.571C271.37 766.799 270.997 758.524 272.817 748.512C272.949 753.081 274.476 757.47 277.156 760.976C288.167 783.094 376.117 762.1 502.606 679.554C618.084 604.516 722.924 488.564 788.805 453.471C836.023 425.122 872.043 412.3 873.396 376.851C873.816 364.489 869.71 349.829 860.565 333.381C834.95 283.578 766.643 218.859 691.757 180.906C679.299 174.47 666.608 168.544 653.777 163.181C575.252 129.876 484.13 120.069 447.223 55.4007C410.644 -1.34975 420.115 -84.4578 440.505 -138.705C448.319 -159.99 457.794 -180.498 468.826 -200.002C477.411 -215.581 483.15 -225.542 483.43 -233.204C484.643 -247.2 467.659 -254.198 425.341 -255.731C397.953 -256.599 335.991 -246.894 274.45 -195.302C226.439 -157.145 182.114 -97.5344 139.888 -48.7014C94.35 4.37132 57.0239 24.8545 34.1619 57.3928C8.54695 89.4714 5.84095 144.23 41.721 217.173C69.015 275.098 126.684 335.986 176.702 377.668C123.698 334.352 61.55 269.377 32.809 208.387C-4.51705 132.584 -0.785042 77.212 26.603 45.8997C51.565 13.8722 90.711 -5.18081 139.329 -60.6543C184.353 -111.735 232.644 -175.177 285.787 -215.173C352.881 -269.114 419.789 -278.002 449.09 -276.469C491.642 -274.017 510.211 -266.968 508.812 -255.118C508.438 -248.681 502.373 -239.283 493.275 -224.163C480.563 -203.622 469.495 -181.917 460.194 -159.291C453.965 -143.919 448.848 -128.035 444.89 -111.786C432.153 -59.9391 432.526 0.999912 460.334 45.0313C497.66 111.436 595.082 119.967 682.145 161.597C696.298 168.204 710.295 175.474 724.137 183.409C806.815 230.045 883.287 308.301 909.602 363.008C926.725 395.955 924.159 418.941 907.456 432.375L907.222 432.171Z" fill="#FFBDBD" fill-opacity="0.3"/>
</svg>
