<svg width="696" height="212" viewBox="0 0 696 212" fill="none" xmlns="http://www.w3.org/2000/svg">
<path d="M913.755 176.122C887.066 149.148 809.614 110.752 726.144 87.8581C712.146 83.9516 698.149 80.4409 684.152 77.1772C596.855 56.9036 499.573 52.4531 462.854 20.6089C425.994 -7.5022 439.525 -49.4834 463.32 -76.8529C472.518 -87.615 483.445 -97.9382 495.981 -107.708C505.872 -115.57 512.404 -120.441 512.964 -124.52C514.737 -131.666 496.587 -135.572 450.583 -136.882C420.862 -137.723 352.601 -133.421 284.481 -106.893C230.965 -87.3111 182.02 -56.2826 136.342 -31.5585C87.3981 -4.73312 47.6931 4.31583 22.0781 19.793C-6.19691 34.9982 -10.3499 62.2932 27.5831 99.9232C57.0711 130.457 121.225 162.747 175.255 183.985C182.627 186.951 189.859 189.795 196.951 192.514C243.609 210.266 288.074 224.235 312.942 238.797C314.151 246.5 313.112 254.255 309.863 261.79C306.41 271.433 301.838 280.581 302.538 287.38C302.538 287.627 302.538 287.85 302.538 288.097C301.895 290.222 301.598 292.373 301.651 294.525C301.651 295.069 301.651 295.563 301.371 296.083C300.687 298.099 300.297 300.141 300.205 302.19C300.205 302.536 300.205 302.882 300.205 303.228C299.123 305.666 298.421 308.146 298.105 310.645C297.592 312.104 297.265 313.488 297.032 314.799C296.799 316.109 296.099 317.271 295.819 318.606C292.775 322.59 290.538 326.734 289.147 330.968C288.587 331.883 288.167 332.773 287.747 333.638C285.782 336.363 284.222 339.166 283.081 342.019C282.521 342.885 281.962 343.726 281.495 344.492C278.897 347.701 276.745 351.006 275.056 354.382C268.291 363.43 265.725 371.046 272.583 375.669C282.708 387.265 375.23 377.721 511.098 336.111C635.021 298.06 745.227 239.935 821.559 228.364C875.868 217.906 921.08 216.002 925.699 198.695C927.145 192.811 923.413 185.196 913.755 176.122ZM311.309 229.921C310.129 228.602 308.773 227.33 307.25 226.114C306.364 225.323 305.43 224.556 304.404 223.814C303.377 223.073 302.678 222.109 301.698 221.342C289.52 209.895 264.698 199.486 238.896 187.198C213.981 175.504 186.546 161.115 170.309 145.885C129.064 109.12 166.11 81.4051 187.666 60.1175C213.048 32.7236 246.222 9.70566 275.523 10.4721L280.189 10.6204C289.147 10.8429 294.186 10.843 296.006 12.3264C297.825 13.8098 297.779 17.2711 297.685 23.8724C297.685 27.1854 297.685 31.2896 298.292 36.2344C299.048 40.007 300.201 43.7544 301.744 47.459C308.329 63.4219 321.577 78.4003 340.517 91.2946C371.218 113.224 422.215 126.6 456.835 132.534C462.574 133.622 468.126 134.611 473.398 135.55C505.079 141.064 528.968 145.292 542.872 153.03C560.089 162.129 561.862 177.284 543.152 198.423C522.482 223.024 467.986 253.657 421.468 270.691C384.889 284.561 351.482 292.943 331.279 295.563C345.276 274.252 343.083 259.269 329.273 247.302C328.433 246.338 327.453 245.423 326.426 244.484C324.829 242.362 322.745 240.352 320.221 238.501C319.462 237.65 318.605 236.824 317.655 236.028C316.664 234.905 315.542 233.815 314.295 232.765C313.396 231.79 312.399 230.84 311.309 229.921ZM340.19 7.75244C341.593 28.1251 354.607 47.7949 377.517 64.1726C413.257 90.7259 479.184 100.615 526.262 106.203L548.937 109.269C592.562 115.252 627.696 123.51 646.172 135.427C669.501 149.964 665.349 168.334 636.001 194.22C606.513 221.787 533.867 264.758 459.541 291.286C383.256 319.224 321.107 330.202 305.57 325.232L308.463 322.315C328.106 325.133 384.422 314.403 453.662 288.838C524.302 263.447 594.055 222.084 621.397 194.665C641.833 175.405 648.318 160.621 641.46 148.382C638.93 143.976 634.56 139.928 628.675 136.539C610.806 125.414 577.772 118.268 536.246 112.631C529.341 111.642 522.249 110.678 514.69 109.689C470.086 104.275 406.911 93.6929 372.058 67.9305C338.837 45.1352 331.699 17.1475 334.218 -1.07399C335.034 -8.00774 336.906 -14.8952 339.817 -21.669C341.964 -26.861 343.503 -30.0751 342.57 -32.4981C341.17 -36.9484 331.465 -38.2834 309.35 -37.5665C284.761 -36.6764 258.026 -29.2345 235.724 -17.5895C212.908 -6.31546 191.025 11.0902 167.323 28.9656C134.663 55.0494 71.4421 82.2207 127.011 132.979C146.141 150.904 178.661 168.458 209.595 182.427C176.935 167.988 142.175 149.494 122.019 130.704C64.4431 78.1167 132.283 51.5882 166.53 24.7378C191.725 6.26898 215.334 -12.0514 240.016 -23.8942C264.698 -35.7369 292.646 -43.9205 318.681 -44.7364C340.61 -45.4039 350.968 -44.2419 351.995 -40.4839C352.695 -38.4071 350.968 -35.193 348.449 -30.0504C344.778 -22.9153 342.25 -15.6289 340.89 -8.26865C339.959 -2.94327 339.725 2.4099 340.19 7.75244ZM296.939 11.5846C294.373 9.70561 289.52 9.73035 279.815 9.45837H275.149C244.869 8.66719 211.975 31.5121 185.893 59.3266C164.057 80.6631 126.311 108.502 168.023 145.86C181.601 158.667 203.156 170.979 224.432 181.488C201.943 170.609 179.034 157.728 164.757 144.402C121.505 105.857 162.004 77.9933 185.053 56.0629C212.395 27.7788 248.321 3.32687 279.675 4.01912L284.341 4.16748C293.673 4.36525 299.132 4.3653 301.185 5.92291C303.238 7.48048 302.771 11.3622 302.351 17.9881C302.351 21.4742 301.978 25.7267 302.351 30.894C303.086 34.8301 304.223 38.7422 305.757 42.6131C311.966 59.1413 325.388 74.6695 344.95 87.9568C376.49 110.48 429.353 123.485 465.327 129.221C471.299 130.26 477.038 131.224 482.543 132.138C515.53 137.528 540.539 141.905 554.956 149.964C572.873 159.508 574.366 175.207 554.676 197.187C532.934 222.776 475.871 254.967 426.881 272.891C386.055 288.369 349.242 297.368 328.339 299.519C329.133 298.431 329.879 297.368 330.579 296.305C351.248 293.709 384.562 285.303 421.795 271.161C468.453 254.052 523.322 223.271 544.085 198.522C558.082 182.699 560.695 170.213 554.256 160.991C551.966 157.751 548.367 154.814 543.712 152.387C529.714 144.574 505.686 140.347 473.725 134.809L457.161 131.817C422.681 125.884 371.918 112.606 341.404 90.7999C318.15 75.02 303.614 56.1311 299.412 36.2344C298.852 31.2896 298.852 27.3091 298.852 23.8724C299.225 16.9003 299.645 13.4884 296.939 11.5846ZM327.593 295.909C328.386 294.797 329.086 293.734 329.786 292.671C328.993 293.709 328.339 294.797 327.64 295.86L327.593 295.909ZM327.593 300.483C348.822 298.332 385.682 289.333 427.207 273.584C476.384 255.585 533.774 223.246 555.656 197.509C570.54 181.067 573.339 168.112 566.761 158.494C564.44 155.105 560.727 152.031 555.889 149.494C541.285 141.336 516.184 136.935 483.103 131.545L465.84 128.627C430.007 122.916 377.19 109.986 346.023 87.6354C322.035 71.3163 307.453 51.6729 304.031 31.0671C303.704 25.974 304.031 21.7215 304.031 18.2601C304.544 10.843 305.057 7.28271 302.398 5.28003C299.738 3.2774 294.652 3.30214 284.248 3.0549H279.582C247.108 2.06596 211.368 26.3448 183.28 54.9753C159.951 76.9546 118.706 104.917 162.424 143.981C178.661 159.186 205.723 173.65 230.965 185.517C204.37 173.155 175.535 158.024 158.505 142.102C113.2 101.579 157.199 73.4934 181.834 50.7721C199.331 35.0724 215.101 21.1034 231.291 12.0297C247.481 2.95602 265.818 -2.92828 283.828 -3.67L289.007 -3.52165C299.225 -3.29915 304.824 -3.32385 306.923 -1.61792C309.023 0.0880432 308.23 4.09332 307.437 11.0655C307.017 14.7246 306.643 19.2243 306.783 24.6389C309.193 46.2818 323.823 67.0414 348.775 84.2236C381.109 107.464 435.932 120.197 473.352 125.784C479.604 126.823 485.576 127.762 491.315 128.677C525.655 133.993 551.97 138.567 566.901 147.121C585.564 157.184 586.684 173.502 565.921 196.322C543.012 222.9 483.243 256.747 431.593 275.586C386.288 292.745 345.836 302.288 324.7 303.895L327.593 300.483ZM312.476 19.0018C312.702 23.4416 313.481 27.8685 314.809 32.2538C319.941 49.9178 333.459 66.6009 354.094 80.7372C387.221 104.547 444.051 116.785 483.057 122.224C489.542 123.238 495.794 124.153 501.72 125.067C537.553 130.309 565.128 135.328 580.758 144.302C600.214 154.958 600.821 171.796 578.752 195.407C554.49 222.9 491.875 258.428 437.472 278.232C386.802 297.368 342.057 307.456 321.201 308.197C322.181 307.085 323.16 305.972 324.047 304.909C345.603 303.277 386.008 293.758 432.06 276.353C483.943 257.414 544.038 223.419 567.367 196.692C583.091 179.583 586.31 166.159 579.545 156.071C577.167 152.521 573.308 149.301 568.254 146.651C553.09 138.047 526.775 133.399 492.295 128.059C486.556 127.144 480.584 126.205 474.332 125.166C437.005 119.579 382.416 106.945 350.315 83.8528C325.548 66.843 310.999 46.2818 308.556 24.8366C308.556 19.4715 308.836 14.9471 309.256 11.3622C310.143 3.79663 310.983 -0.183929 308.277 -2.31018C305.57 -4.43643 300.111 -4.43643 288.96 -4.78258L283.735 -4.93092C265.072 -4.21393 246.408 1.59618 230.078 10.9418C213.748 20.2875 197.838 34.0587 180.154 49.7832C155.006 72.6773 110.214 100.838 156.032 142.003C171.569 156.541 196.811 170.584 221.353 182.254C195.505 170.189 168.676 155.478 152.346 140.223C104.802 97.6488 152.859 69.5869 179.221 46.2722C197.884 30.0781 215.101 15.3427 232.644 5.87344C250.188 -3.59583 269.97 -9.92516 289.38 -10.7163C305.617 -11.3097 313.502 -10.4444 314.949 -7.40332C315.589 -4.55052 315.353 -1.66153 314.249 1.15117C312.795 7.06848 312.202 13.0363 312.476 19.0018ZM321.061 304.143C321.994 303.005 322.974 301.868 323.814 300.755H324.14C323.3 301.868 322.367 303.005 321.434 304.167L321.061 304.143ZM324.513 299.841C325.307 298.802 326.1 297.764 326.846 296.725C326.146 297.739 325.447 298.777 324.653 299.841H324.513ZM321.481 296.305H321.201C323.58 293.19 325.633 290.174 327.36 287.306C325.727 290.174 323.767 293.165 321.481 296.305ZM316.815 295.044L315.975 296.231C317.188 294.599 318.355 292.968 319.428 291.286C321.434 288.542 323.114 285.897 324.607 283.35C322.346 287.318 319.698 291.221 316.675 295.044H316.815ZM323.954 -15.4386C322.274 -19.4439 313.642 -20.5812 294.979 -19.9136C273.796 -19.0977 251.447 -12.4964 232.458 -2.1371C212.955 7.99969 194.385 23.4521 173.902 40.1408C145.394 64.3948 91.9711 92.3575 142.455 137.924C159.578 153.97 188.039 169.546 215.381 182.229C186.453 169.076 156.172 152.709 138.115 135.97C85.7651 88.7975 142.781 61.2056 173.062 36.2097C194.898 18.9029 215.054 2.65932 235.584 -7.87305C256.113 -18.4054 279.722 -25.5754 302.071 -26.4655C320.734 -27.133 330.066 -26.144 331.139 -22.7816C331.502 -19.607 330.855 -16.4227 329.226 -13.3618C326.848 -6.83801 325.459 -0.223846 325.073 6.41733C324.834 11.2622 325.193 16.1102 326.146 20.9303C329.754 39.8543 343.191 57.878 364.966 72.9987C399.492 98.1183 460.614 109.269 503.213 114.56L523.695 117.403C562.981 122.768 593.682 128.949 610.806 139.16C632.035 151.522 630.868 169.224 605.72 194.195C580.571 220.873 514.644 260.233 448.11 284.339C386.475 307.357 333.985 317.963 313.829 316.48L316.722 313.315C338.557 313.538 386.148 303.426 442.418 282.262C505.779 259.219 569.094 221.417 592.749 195.234C610.479 176.963 614.958 162.722 608.053 151.67C605.582 147.733 601.468 144.141 596.015 141.163C579.545 131.52 550.29 125.982 512.638 120.691L493.135 117.873C452.496 112.532 393.847 100.838 360.253 76.4851C334.012 58.2236 319.831 35.897 319.894 12.9445C319.981 6.68877 321.01 0.446701 322.974 -5.72209C324.368 -8.90582 324.699 -12.1943 323.954 -15.4386ZM314.342 312.104C315.182 311.164 315.928 310.249 316.722 309.31H317.095L315.602 311.016L314.622 312.104H314.342ZM318.635 300.113H318.308L319.428 298.678L320.548 297.245H320.874C320.174 298.11 319.381 299.074 318.635 300.039V300.113ZM320.688 305.057C319.848 306.071 318.915 307.134 317.981 308.197H317.608C318.075 307.628 318.541 307.085 318.961 306.541C319.381 305.997 319.801 305.552 320.221 305.057H320.688ZM317.608 300.904H317.888L316.582 302.56C316.162 303.055 315.788 303.549 315.369 304.019C316.022 303.03 316.815 301.992 317.608 300.953V300.904ZM313.316 299.544C313.922 298.728 314.575 297.912 315.182 297.072C314.575 297.937 313.969 298.778 313.316 299.593V299.544ZM314.342 305.008C313.596 305.923 312.896 306.813 312.102 307.728L314.342 305.008ZM313.362 313.068H313.642C312.756 314.057 311.869 315.046 310.936 316.035H310.609C311.589 315.071 312.476 314.106 313.362 313.117V313.068ZM309.35 311.214C310.05 310.398 310.703 309.607 311.403 308.741H311.683L309.35 311.214ZM309.35 317.543L309.63 317.222H310.003L306.97 320.46H306.643C307.483 319.521 308.37 318.532 309.256 317.592L309.35 317.543ZM307.857 313.018C307.343 313.563 306.83 314.106 306.364 314.675C306.97 313.933 307.623 313.192 308.277 312.45C308.09 312.648 307.95 312.87 307.763 313.068L307.857 313.018ZM130.044 133.301C75.1741 83.4569 137.416 56.2362 169.47 30.2512C192.798 12.3758 214.588 -4.95563 237.217 -16.1556C259.846 -27.3555 285.368 -34.9952 309.49 -35.9347C329.739 -36.6023 339.397 -35.5391 340.517 -31.9789C341.357 -29.9762 339.911 -27.0341 337.858 -22.0893C334.961 -15.2148 333.104 -8.22871 332.305 -1.1976C331.658 3.89796 331.658 9.01089 332.305 14.1065C334.904 33.8077 348.172 52.6936 370.518 68.4993C405.698 94.4344 469.153 105.066 513.851 110.529L535.36 113.472C576.652 119.059 609.453 126.155 627.136 137.133C649.392 150.459 647.012 168.631 619.95 194.195C592.842 221.417 523.602 262.656 453.615 287.874C385.355 313.142 328.293 324.045 309.723 321.078L313.082 317.592C334.032 319.051 386.008 308.568 448.623 285.229C515.484 261.049 581.878 221.491 607.26 194.69C626.249 175.9 631.662 161.362 624.756 149.742C622.28 145.579 618.034 141.773 612.345 138.616C595.222 128.281 564.148 122.051 524.675 116.636L504.193 113.793C461.687 108.502 400.846 97.4014 366.599 72.4798C339.568 53.5199 325.649 30.2151 327.173 6.4668C327.572 -0.0675354 328.961 -6.57431 331.326 -12.9909C333.052 -17.9357 334.265 -20.9273 333.238 -23.2019C331.652 -27.4297 322.6 -28.6411 302.118 -27.9241C279.302 -27.0341 254.993 -20.0867 234.371 -9.10926C213.235 1.47255 193.078 17.8892 171.009 35.196C140.588 60.2414 82.3591 87.8581 135.223 135.847C155.705 154.983 191.679 173.378 223.873 187.52C189.906 172.784 151.553 153.376 130.044 133.301ZM145.161 138.245C95.2841 93.4209 147.727 65.5075 175.908 41.3275C196.158 24.6141 214.588 9.18645 233.671 -0.87619C252.754 -10.9388 274.263 -17.5896 294.979 -18.4302C312.429 -19.0483 320.827 -18.1335 322.227 -14.9193C322.741 -11.9114 322.316 -8.87914 320.967 -5.9446C319.163 0.231293 318.274 6.47252 318.308 12.722C318.325 17.3609 318.917 21.9942 320.081 26.592C324.517 44.9126 338.04 62.282 359.273 76.9299C393.147 101.431 452.076 113.2 492.761 118.54L512.311 121.359C549.637 126.625 578.892 132.138 595.175 141.682C615.471 153.08 615.331 170.436 591.863 194.764C568.534 220.823 505.499 258.428 442.558 281.298C386.942 302.214 339.024 312.425 317.748 312.104L319.008 310.694C319.474 310.175 319.894 309.656 320.361 309.161C341.73 308.395 386.335 298.357 437.798 278.949C492.481 259.17 555.469 223.37 579.965 195.728C596.622 178.001 600.354 164.18 593.542 153.698C591.105 149.979 587.118 146.599 581.878 143.808C566.107 134.734 538.393 129.715 502.56 124.425L483.896 121.606C444.984 116.167 388.435 104.002 355.541 80.3418C329.886 62.7661 315.398 41.3354 314.155 19.1254C313.876 13.2189 314.437 7.30962 315.835 1.44781C317.078 -1.5817 317.299 -4.7038 316.488 -7.77415C314.669 -11.5817 306.737 -12.719 288.96 -12.0267C269.271 -11.2355 248.648 -5.07925 231.151 4.76088C213.655 14.601 196.251 29.0645 177.215 45.2587C150.526 68.7461 101.536 96.8574 149.64 140.124C168.536 157.802 201.337 174.738 230.638 187.841L236.843 190.635L230.031 187.594C199.284 173.996 164.804 156.467 145.161 138.146V138.245ZM317.095 281.174C318.541 278.702 319.894 276.229 321.107 273.757C319.381 277.391 317.281 281.174 315.042 284.71L313.362 287.38C314.622 285.254 315.882 283.177 317.095 281.075V281.174ZM317.795 284.512C319.661 281.52 321.387 278.479 322.927 275.463C320.921 279.592 318.261 283.795 315.695 287.948L313.176 291.657C314.715 289.209 316.302 286.811 317.795 284.413V284.512ZM318.541 287.726C320.408 284.858 322.227 281.941 323.814 279.048C321.753 283.327 319.213 287.538 316.208 291.657C315.229 293.091 314.202 294.525 313.176 295.983H312.942C314.809 293.14 316.722 290.396 318.541 287.627V287.726ZM312.289 296.898C311.776 297.591 311.263 298.283 310.703 299L312.289 296.898ZM312.289 300.657C311.636 301.522 310.936 302.387 310.236 303.129C311.029 302.214 311.729 301.423 312.382 300.557L312.289 300.657ZM309.91 300.113C309.773 300.246 309.663 300.387 309.583 300.533L309.91 300.113ZM309.35 304.365C309.368 304.464 309.368 304.563 309.35 304.662C308.93 305.156 308.556 305.675 308.137 306.17L309.35 304.365ZM306.83 307.554L305.384 309.285C305.944 308.618 306.41 308.049 306.923 307.456L306.83 307.554ZM305.477 321.944L304.917 322.537L303.098 324.416V324.268L305.384 321.796L305.477 321.944ZM304.917 316.06C304.264 316.801 303.611 317.518 302.911 318.26L304.917 316.06ZM304.077 326.666C321.341 331.339 382.462 320.56 459.634 292.374C534.287 265.771 607.586 222.603 637.354 194.912C659.516 175.356 667.495 160.472 660.683 147.591C658.174 142.908 653.691 138.588 647.572 134.957C628.909 122.892 593.449 114.51 549.591 108.502C542.265 107.464 534.707 106.45 526.915 105.412C479.884 99.7998 414.236 89.9345 378.87 63.5545C344.996 40.2644 338.977 10.9913 342.897 -8.14502C344.27 -15.4293 346.782 -22.6405 350.408 -29.7043C353.115 -35.1435 355.074 -38.5307 354.141 -41.0772C352.928 -45.7748 342.523 -47.2088 318.635 -46.4918C292.04 -45.577 263.065 -37.6901 238.476 -25.3529C213.608 -13.3865 189.812 5.03279 164.337 23.5016C129.717 50.5001 60.4301 76.9052 118.799 130.482C141.801 152.041 183.28 172.884 219.72 188.361C232.084 193.701 244.262 198.671 255.507 203.393C244.262 198.794 232.178 193.948 219.813 188.756C181.787 172.958 138.255 151.399 114.413 129.147C54.0851 73.9875 127.991 48.5471 164.337 20.9798C191.305 2.09065 216.687 -17.0703 243.329 -29.4323C269.457 -42.1899 300.205 -50.3487 328.153 -51.3377C351.482 -52.03 362.726 -50.7938 363.613 -46.9121C364.266 -44.7611 362.213 -41.4481 359.273 -36.1077C354.957 -28.7293 351.835 -21.1694 349.942 -13.5101C348.684 -8.02324 348.169 -2.49567 348.402 3.03018C349.009 21.1528 358.9 43.0087 384.982 60.8101C421.282 87.6848 489.682 96.6841 539.279 102.618C547.444 103.706 555.423 104.769 563.075 105.906C609.173 112.384 646.825 122.125 666.048 135.056C690.497 150.953 684.058 169.298 652.051 195.258C619.81 222.85 543.525 267.453 465.093 295.119C381.109 325.43 314.342 336.358 301.791 329.559L301.325 329.188L304.077 326.666ZM681.259 148.159C678.773 143.187 674.213 138.574 667.915 134.66C648.412 121.556 610.479 111.716 564.148 105.165C556.449 104.027 548.517 102.964 540.259 101.876C490.755 95.8932 422.681 87.042 386.708 60.2167C352.228 36.7041 347.189 6.46681 352.321 -13.2876C354.248 -20.8304 357.369 -28.2739 361.653 -35.5391C364.826 -41.2009 367.019 -44.7117 366.319 -47.3571C365.246 -52.3019 354.188 -53.7608 328.619 -53.0189C299.645 -52.1536 268.384 -43.9205 241.882 -30.9652C214.961 -18.6033 189.346 0.73085 162.098 19.6199C125.331 47.261 49.8391 72.6033 110.774 128.85C132.143 148.802 169.33 168.408 204.09 183.639C167.23 167.889 127.478 147.146 104.988 126.205C41.5811 67.8812 122.299 43.6763 160.978 15.0707C190.326 -4.36226 218.04 -24.8089 247.201 -37.9126C275.756 -51.4366 309.49 -60.1639 339.817 -60.9553C365.292 -61.5981 377.143 -60.2138 377.937 -56.0106C378.496 -53.7608 376.07 -50.2993 372.478 -44.7117C367.395 -37.0045 363.57 -29.0802 361.046 -21.0262C359.293 -15.3028 358.358 -9.51747 358.247 -3.71944C357.687 15.2438 366.832 37.9651 393.287 56.1868C430.053 83.6795 501.346 91.8386 554.023 98.415C562.733 99.5689 571.209 100.78 579.452 102.049C628.536 109.467 669.361 121.062 689.471 135.229C715.272 152.832 705.847 170.856 670.807 196.643C635.161 223.84 554.956 270.296 471.859 299.272C382.836 330.918 312.756 342.119 300.158 334.924C299.305 334.279 298.6 333.581 298.059 332.847L299.925 331.018C313.922 337.891 379.243 327.284 465.373 296.404C544.272 268.664 621.164 223.84 653.731 196.148C677.573 176.419 687.464 161.634 681.166 148.159H681.259ZM301.371 320.015L300.298 321.177C300.671 320.782 300.998 320.411 301.371 320.015ZM301.371 325.801H301.604L299.785 327.655V327.507C300.298 326.938 300.858 326.394 301.418 325.801H301.371ZM297.779 329.534L296.659 330.696C297.125 330.276 297.452 329.905 297.825 329.534H297.779ZM294.466 333.02C294.37 333.098 294.291 333.18 294.233 333.267L294.466 333.02ZM295.819 334.8C296.241 335.226 296.708 335.639 297.219 336.036C310.283 343.676 379.616 332.946 471.439 300.459C555.096 271.408 635.954 224.804 672.067 197.409C698.616 177.828 710.747 163.365 704.728 149.222C702.341 143.904 697.68 138.947 691.104 134.734C670.761 120.37 629.562 108.527 580.151 101.135C571.94 99.8491 563.464 98.6294 554.723 97.4755C502.046 90.8493 431.08 82.6413 394.687 55.4448C359.693 31.4133 356.194 -0.208664 363.099 -20.8779C365.668 -28.8299 369.492 -36.6536 374.531 -44.2666C378.357 -50.2004 380.969 -53.8843 380.27 -56.6287C379.476 -61.7714 367.579 -63.4523 339.817 -62.7849C308.93 -61.9195 274.496 -53.1674 245.522 -39.4702C216.081 -26.2676 188.133 -5.82097 158.785 13.7109C119.592 42.4401 37.1951 66.447 101.489 125.958C122.625 145.736 158.925 165.516 193.825 180.77C156.499 164.774 115.533 143.462 94.7241 122.694C66.0761 95.1513 64.5831 72.8259 81.1461 57.2744C95.8901 41.9703 123.138 29.8556 156.919 8.02443C188.273 -12.1255 218.46 -33.7837 250.701 -48.1483C291.34 -67.2103 333.099 -72.0069 352.368 -72.4764C380.083 -73.0204 392.96 -71.4382 393.38 -67.0868C393.847 -64.6145 390.954 -61.0047 386.662 -55.1205C380.627 -47.0212 375.943 -38.6572 372.664 -30.1245C370.333 -24.1108 368.883 -18.0105 368.325 -11.8784C366.319 8.07384 374.531 31.9571 401.312 50.7227C438.358 79.1302 512.778 86.5972 569.28 94.0883C578.612 95.3986 587.57 96.7587 596.342 98.217C648.925 106.648 693.39 120.691 714.479 136.292C741.727 155.849 728.477 173.378 689.797 198.695C650.278 225.422 565.874 273.658 477.598 303.969C383.022 337.025 309.63 348.472 297.219 340.685C295.49 339.927 294.129 338.96 293.253 337.866L295.819 334.8ZM290.733 339.918C291.586 340.713 292.71 341.417 294.046 341.995C306.923 350.104 379.476 339.25 476.944 305.354C565.827 274.993 651.025 226.485 690.917 199.684C720.218 180.35 735.102 166.431 729.923 151.571C727.611 145.865 722.819 140.523 715.926 135.97C694.556 120.147 649.672 105.931 596.762 97.3768C587.959 95.9097 578.907 94.5249 569.607 93.2229C513.617 85.8058 439.292 78.1661 402.619 49.9807C367.205 25.257 365.619 -8.12029 374.624 -29.9268C377.932 -38.3671 382.615 -46.6394 388.621 -54.6505C393.287 -60.9059 396.366 -64.8124 395.806 -67.8037C395.293 -73.2431 382.509 -75.2208 352.368 -74.6274C332.725 -74.1579 290.173 -69.3366 248.834 -49.9037C216.174 -35.465 185.8 -13.6832 154.306 6.39261C120.152 28.2238 92.5311 40.2644 77.3671 55.5934C60.2901 71.293 61.5971 94.0143 90.6181 122.125C112.594 144.179 156.312 166.628 195.458 183.094C154.026 165.985 107.135 142.226 84.0861 119.109C53.9451 90.0584 53.1521 66.8672 71.4881 51.2663C87.8651 35.8141 117.259 24.0702 153.559 1.42313C187.666 -19.3944 220.327 -42.4618 255.973 -57.6916C300.718 -77.9652 346.536 -82.8605 367.439 -83.2318C397.579 -83.6272 411.483 -81.8223 411.623 -77.2236C411.95 -74.7513 408.544 -70.8694 403.505 -64.7132C396.388 -56.2739 390.675 -47.5212 386.428 -38.5554C383.504 -32.2757 381.492 -25.8864 380.409 -19.4439C376.77 1.42314 383.956 26.2707 411.017 45.4813C448.343 74.5069 526.262 81.1331 586.777 89.9844C596.762 91.4926 606.466 93.0748 615.938 94.9291C672.72 104.967 721.618 122.125 743.687 139.308C772.568 161.189 754.605 177.532 711.026 201.835C666.608 227.251 577.725 277.243 483.85 308.939C383.629 343.256 306.364 354.703 294.139 346.495C291.542 345.185 289.892 343.436 289.473 341.55L290.733 339.918ZM286.721 344.121C287.58 345.588 289.196 346.898 291.386 347.904C304.031 356.508 380.036 345.629 483.803 310.299C578.378 278.529 668.055 228.24 712.893 202.775C745.553 184.157 764.216 171.276 760.064 155.799C758.017 149.673 753.216 143.898 746.066 138.962C723.671 121.433 674.307 104.126 617.151 93.9896C607.819 92.2341 597.881 90.6271 587.897 89.0449C527.241 80.1689 449.743 73.4934 412.837 44.5418C377.05 19.1996 377.563 -15.6116 388.948 -38.4318C393.203 -47.2808 398.901 -55.9171 405.978 -64.2437C411.39 -70.7954 415.076 -74.8747 414.656 -78.0397C414.656 -83.7753 400.659 -85.951 367.998 -85.4568C346.676 -85.1354 300.018 -80.1907 254.527 -59.6204C218.647 -44.2914 185.333 -21.0509 151.46 -0.282822C114.74 22.4384 85.0191 34.0834 68.1291 49.5606C49.1861 65.3096 49.4661 88.8963 80.3071 118.59C104.335 142.77 153.559 167.42 196.205 184.924C202.052 187.347 207.791 189.687 213.421 191.946C216.734 193.281 220.093 194.591 223.453 195.902L212.115 191.525C206.205 189.185 200.155 186.712 193.965 184.108C149.22 165.985 97.3371 140.026 72.6551 114.881C40.9271 84.1248 41.0211 60.0681 61.3171 44.4179C79.6071 28.8667 111.241 17.5679 150.293 -5.9446C186.36 -27.578 222.613 -52.2772 261.665 -68.4218C310.796 -89.8575 361.046 -94.8022 383.629 -95.0002C416.289 -95.173 431.406 -93.0718 431.266 -88.2259C431.266 -85.5555 427.487 -81.5503 421.562 -75.0973C413.268 -66.2708 406.43 -57.0803 401.125 -47.6291C397.537 -41.0714 394.916 -34.3758 393.287 -27.6028C387.781 -5.72209 393.66 20.238 420.955 39.9429C458.281 69.7601 540.259 75.6197 605.72 86.1766C616.451 87.9321 626.949 89.8111 637.214 91.888C698.802 103.928 752.878 124.697 775.974 143.808C783.192 148.94 787.861 154.951 789.552 161.288C792.491 177.111 770.002 188.484 734.029 205.791C683.872 229.353 590.276 281.199 490.195 314.304C382.882 350.203 302.024 361.552 290.313 352.849C288.607 351.937 287.285 350.845 286.432 349.643C285.58 348.441 285.217 347.158 285.368 345.877C285.648 345.258 286.207 344.69 286.767 344.245L286.721 344.121ZM282.055 349.066C282.49 351.014 284.13 352.831 286.721 354.233C298.992 363.455 378.776 352.651 489.355 315.862C590.183 282.658 684.711 230.49 735.242 206.903C771.962 189.325 795.151 177.952 792.258 161.782C790.601 155.227 785.869 148.996 778.494 143.66C755.165 124.227 700.435 103.187 638.52 90.9732C628.224 88.8963 617.68 86.9762 606.886 85.2124C541.565 74.5809 459.821 68.6227 422.821 38.9787C386.662 12.9939 389.741 -23.548 403.738 -47.5549C409.015 -56.9128 415.805 -66.0118 424.034 -74.7513C430.427 -81.6243 434.719 -85.9016 434.486 -89.2888C434.486 -95.3463 419.929 -97.8186 384.282 -97.6952C360.953 -97.5466 309.956 -92.5525 259.752 -70.6473C220.327 -54.0324 183.933 -29.0862 147.494 -7.55165C108.021 15.9855 75.9211 27.0618 57.1641 42.7368C36.2151 58.4859 35.7951 82.9874 68.0351 114.436C92.5311 139.16 142.688 164.873 187.013 183.07C140.355 164.18 86.1851 136.935 60.4301 110.876C26.9771 78.3394 28.0501 53.3926 50.4921 37.8414C71.0221 22.2407 104.802 11.4857 146.794 -12.9415C185.66 -35.465 225.459 -61.8948 268.571 -79.0285C322.974 -101.972 378.31 -106.843 403.038 -106.818C438.825 -106.818 454.922 -104.346 454.362 -99.1288C454.362 -96.3351 449.696 -92.1571 442.978 -85.4321C433.37 -76.2604 425.284 -66.6648 418.809 -56.7521C414.457 -49.9184 411.103 -42.9174 408.777 -35.8111C401.219 -12.9662 405.558 14.057 433.086 34.207C470.412 64.6915 557.009 69.7848 628.489 82.7647C640.153 84.891 651.818 87.1901 662.922 89.737C730.389 104.571 790.718 129.963 814.933 151.25C830.47 163.958 831.684 174.713 821.792 183.267C811.201 192.564 788.805 200.08 760.11 211.181C702.815 231.825 604.227 285.353 497.427 319.966C382.882 357.423 297.872 368.697 286.441 359.277C282.055 356.953 280.982 353.467 282.288 349.19L282.055 349.066ZM277.762 354.258L278.182 353.739C277.915 356.337 279.592 358.887 282.848 360.835C294.606 370.724 378.45 360.142 496.494 321.82C604.227 287.207 703.748 233.111 761.51 212.466C803.129 196.594 832.197 187.52 831.17 170.807C830.086 163.767 825.444 157.011 817.733 151.25C793.191 129.592 732.209 103.805 664.135 88.8469C652.844 86.3745 641.273 83.9022 629.562 81.8006C558.036 68.7214 471.905 63.5047 434.859 33.2181C398.373 6.61516 404.345 -31.5339 421.282 -56.5299C427.728 -66.2892 435.751 -75.7363 445.264 -84.7646C452.682 -91.9591 457.628 -96.4343 457.628 -100.019C458.328 -106.398 442.418 -109.266 403.645 -109.488C378.45 -109.488 322.227 -104.544 266.751 -81.3523C223.173 -64.0458 182.767 -37.4181 143.761 -14.8947C101.302 9.55725 66.7291 20.1391 45.7801 35.7646C22.4511 51.4149 21.1441 76.8065 55.1111 110.109C81.7061 137.306 137.789 165.293 185.753 184.553L200.497 190.487C194.805 188.262 188.988 185.946 183.047 183.539C132.703 163.538 73.5881 133.844 46.0131 105.659C10.7861 71.0457 13.0261 45.1599 37.8011 29.7073C60.9441 14.1806 97.4301 4.04385 142.595 -21.669C184.587 -45.3051 228.352 -73.8612 276.176 -92.1324C336.831 -116.856 397.486 -121.405 424.408 -121.035C463.46 -120.441 480.77 -117.548 479.837 -112.109C479.837 -109.118 474.332 -104.692 466.4 -97.6952C455.273 -88.0826 445.719 -77.9831 437.845 -67.507C432.61 -60.344 428.415 -52.9796 425.294 -45.4781C415.216 -21.4218 417.642 6.96127 445.264 27.7788C482.59 59.2526 574.086 63.8508 652.471 79.8722C665.193 82.4433 677.775 85.27 690.217 88.3522C764.45 106.475 831.964 137.38 857.205 161.065C873.629 175.331 873.302 186.358 860.471 194.146C846.754 202.676 819.879 208.288 787.359 217.955C722.038 234.99 618.084 290.643 503.633 326.889C380.969 366.002 291.713 376.905 280.982 366.694C276.316 363.826 275.709 359.574 277.996 354.357L277.762 354.258ZM907.222 209.178C889.399 216.397 856.645 219.266 819.226 226.707C743.314 238.352 634.181 295.934 511.285 333.885C379.663 374.581 285.554 384.99 275.663 373.938C271.37 371.144 270.997 367.139 272.817 362.293C272.949 364.505 274.477 366.629 277.156 368.326C288.167 379.031 376.117 368.87 502.606 328.916C618.084 292.596 722.924 236.473 788.805 219.488C836.023 205.766 872.043 199.56 873.396 182.402C873.816 176.419 869.71 169.323 860.565 161.362C834.95 137.257 766.643 105.931 691.757 87.5614C679.299 84.4462 666.608 81.5779 653.777 78.9821C575.252 62.8619 484.13 58.1151 447.223 26.8146C410.644 -0.653671 420.115 -40.8795 440.505 -67.1362C448.319 -77.4385 457.794 -87.3648 468.826 -96.8051C477.411 -104.346 483.15 -109.167 483.43 -112.875C484.643 -119.65 467.659 -123.037 425.341 -123.779C397.953 -124.199 335.991 -119.502 274.45 -94.5302C226.439 -76.0615 182.114 -47.2088 139.888 -23.5727C94.3501 2.11543 57.0241 12.0297 34.1621 27.7788C8.54707 43.3054 5.84108 69.8095 41.7211 105.115C69.0151 133.152 126.684 162.623 176.702 182.798C123.698 161.832 61.5501 130.383 32.8091 100.863C-4.51693 64.1726 -0.78492 37.3717 26.6031 22.2159C51.5651 6.71404 90.7111 -2.50798 139.329 -29.3581C184.353 -54.0822 232.644 -84.7893 285.788 -104.148C352.881 -130.257 419.789 -134.559 449.09 -133.817C491.642 -132.63 510.211 -129.218 508.812 -123.482C508.438 -120.367 502.373 -115.818 493.275 -108.499C480.563 -98.5572 469.495 -88.0516 460.194 -77.1002C453.965 -69.6599 448.848 -61.9717 444.89 -54.1069C432.153 -29.012 432.526 0.483612 460.334 21.7956C497.66 53.9366 595.082 58.0658 682.145 78.2155C696.298 81.4134 710.295 84.9322 724.137 88.7728C806.815 111.346 883.287 149.223 909.602 175.702C926.725 191.649 924.159 202.775 907.456 209.277L907.222 209.178Z" fill="#BDC4FF" fill-opacity="0.3"/>
</svg>
