<svg width="25" height="24" viewBox="0 0 25 24" fill="none" xmlns="http://www.w3.org/2000/svg">
<path d="M0.695503 12C0.695503 18.6274 6.06809 24 12.6955 24C19.3229 24 24.6955 18.6274 24.6955 12C24.6955 5.37258 19.3229 0 12.6955 0C6.06809 0 0.695503 5.37258 0.695503 12Z" fill="#1DA1F2"/>
<path d="M18.6955 8.25C18.2455 8.475 17.7955 8.55 17.2705 8.625C17.7955 8.325 18.1705 7.875 18.3205 7.275C17.8705 7.575 17.3455 7.725 16.7455 7.875C16.2955 7.425 15.6205 7.125 14.9455 7.125C13.3705 7.125 12.1705 8.625 12.5455 10.125C10.5205 10.05 8.7205 9.075 7.4455 7.575C6.7705 8.7 7.1455 10.125 8.1955 10.875C7.8205 10.875 7.4455 10.725 7.0705 10.575C7.0705 11.7 7.8955 12.75 9.0205 13.05C8.6455 13.125 8.2705 13.2 7.8955 13.125C8.1955 14.1 9.0955 14.85 10.2205 14.85C9.3205 15.525 7.9705 15.9 6.6955 15.75C7.8205 16.425 9.0955 16.875 10.4455 16.875C15.0205 16.875 17.5705 13.05 17.4205 9.525C17.9455 9.225 18.3955 8.775 18.6955 8.25Z" fill="white"/>
</svg>
