<svg width="25" height="24" viewBox="0 0 25 24" fill="none" xmlns="http://www.w3.org/2000/svg">
<path d="M0.695496 12C0.695496 18.6274 6.06808 24 12.6955 24C19.3229 24 24.6955 18.6274 24.6955 12C24.6955 5.37258 19.3229 0 12.6955 0C6.06808 0 0.695496 5.37258 0.695496 12Z" fill="#FF0000"/>
<path d="M18.3955 9.07481C18.2455 8.54981 17.8705 8.1748 17.3455 8.0248C16.4455 7.7998 12.6205 7.7998 12.6205 7.7998C12.6205 7.7998 8.8705 7.7998 7.8955 8.0248C7.3705 8.1748 6.99549 8.54981 6.84549 9.07481C6.69549 10.0498 6.6955 11.9998 6.6955 11.9998C6.6955 11.9998 6.6955 13.9498 6.9205 14.9248C7.0705 15.4498 7.44549 15.8248 7.97049 15.9748C8.87049 16.1998 12.6955 16.1998 12.6955 16.1998C12.6955 16.1998 16.4455 16.1998 17.4205 15.9748C17.9455 15.8248 18.3205 15.4498 18.4705 14.9248C18.6955 13.9498 18.6955 11.9998 18.6955 11.9998C18.6955 11.9998 18.6955 10.0498 18.3955 9.07481ZM11.4955 13.7998V10.1998L14.6455 11.9998L11.4955 13.7998Z" fill="white"/>
</svg>
