<svg width="10" height="12" viewBox="0 0 10 12" fill="none" xmlns="http://www.w3.org/2000/svg">
<g id="Group 175">
<path id="Vector" fill-rule="evenodd" clip-rule="evenodd" d="M4.28571 0C4.01516 0 3.76784 0.1605 3.64684 0.414592L3.12998 1.5H0.714286C0.3198 1.5 0 1.83579 0 2.25C0 2.66421 0.3198 3 0.714286 3V10.5C0.714286 11.3285 1.35388 12 2.14286 12H7.85714C8.64614 12 9.28572 11.3285 9.28572 10.5V3C9.68021 3 10 2.66421 10 2.25C10 1.83579 9.68021 1.5 9.28572 1.5H6.87L6.35314 0.414592C6.23214 0.1605 5.98486 0 5.71429 0H4.28571ZM2.85714 4.5C2.85714 4.08579 3.17694 3.75 3.57143 3.75C3.96591 3.75 4.28571 4.08579 4.28571 4.5V9C4.28571 9.41423 3.96591 9.75 3.57143 9.75C3.17694 9.75 2.85714 9.41423 2.85714 9V4.5ZM6.42857 3.75C6.03407 3.75 5.71429 4.08579 5.71429 4.5V9C5.71429 9.41423 6.03407 9.75 6.42857 9.75C6.82307 9.75 7.14286 9.41423 7.14286 9V4.5C7.14286 4.08579 6.82307 3.75 6.42857 3.75Z" fill="#EF1D1D"/>
</g>
</svg>
