<svg width="14" height="13" viewBox="0 0 14 13" fill="none" xmlns="http://www.w3.org/2000/svg">
<path d="M13.5207 0.479281C12.8817 -0.15976 11.8455 -0.15976 11.2065 0.479281L5 6.68585V9H7.31416L13.5207 2.79344C14.1598 2.1544 14.1598 1.11831 13.5207 0.479281Z" fill="#7F5283"/>
<path fill-rule="evenodd" clip-rule="evenodd" d="M0 3.57143C0 2.70355 0.767511 2 1.71429 2H5.14286C5.61624 2 6 2.35178 6 2.78571C6 3.21965 5.61624 3.57143 5.14286 3.57143H1.71429V11.4286H10.2857V8.28571C10.2857 7.85176 10.6695 7.5 11.1429 7.5C11.6163 7.5 12 7.85176 12 8.28571V11.4286C12 12.2965 11.2325 13 10.2857 13H1.71429C0.767511 13 0 12.2965 0 11.4286V3.57143Z" fill="#7F5283"/>
</svg>
