<svg width="12" height="12" viewBox="0 0 12 12" fill="none" xmlns="http://www.w3.org/2000/svg">
<g id="Icon">
<path id="shape (Stroke)" fill-rule="evenodd" clip-rule="evenodd" d="M4.45714 1C4.67017 1 4.84286 1.1722 4.84286 1.38462V2.02564H7.15714V1.38462C7.15714 1.1722 7.32983 1 7.54286 1C7.75588 1 7.92857 1.1722 7.92857 1.38462V2.02564H9.08572C9.8668 2.02564 10.5 2.65703 10.5 3.4359V9.58974C10.5 10.3686 9.8668 11 9.08572 11H2.91429C2.1332 11 1.5 10.3686 1.5 9.58974V3.4359C1.5 2.65703 2.1332 2.02564 2.91429 2.02564H4.07143V1.38462C4.07143 1.1722 4.24412 1 4.45714 1ZM4.07143 2.79487H2.91429C2.55925 2.79487 2.27143 3.08187 2.27143 3.4359V5.10256H9.72857V3.4359C9.72857 3.08187 9.44075 2.79487 9.08572 2.79487H7.92857V3.4359C7.92857 3.64831 7.75588 3.82051 7.54286 3.82051C7.32983 3.82051 7.15714 3.64831 7.15714 3.4359V2.79487H4.84286V3.4359C4.84286 3.64831 4.67017 3.82051 4.45714 3.82051C4.24412 3.82051 4.07143 3.64831 4.07143 3.4359V2.79487ZM9.72857 5.8718H2.27143V9.58974C2.27143 9.94377 2.55925 10.2308 2.91429 10.2308H9.08572C9.44075 10.2308 9.72857 9.94377 9.72857 9.58974V5.8718Z" fill="#848588"/>
</g>
</svg>
