<svg width="190" height="27" viewBox="0 0 190 27" fill="none" xmlns="http://www.w3.org/2000/svg">
<path d="M7.76 8.53125C9.04 8.53125 9.99333 8.83125 10.62 9.43125C11.2467 10.0312 11.56 10.9179 11.56 12.0912C11.56 12.7179 11.4067 13.2712 11.1 13.7512C10.7933 14.2179 10.34 14.5846 9.74 14.8512C9.14 15.1046 8.4 15.2312 7.52 15.2312L7.6 14.3312C8.01333 14.3312 8.48667 14.3912 9.02 14.5112C9.55333 14.6179 10.0667 14.8179 10.56 15.1112C11.0667 15.3912 11.48 15.7912 11.8 16.3112C12.1333 16.8179 12.3 17.4712 12.3 18.2712C12.3 19.1512 12.1533 19.8712 11.86 20.4312C11.58 20.9912 11.2067 21.4246 10.74 21.7312C10.2733 22.0379 9.77333 22.2512 9.24 22.3712C8.70667 22.4779 8.19333 22.5312 7.7 22.5312H2.72C2.37333 22.5312 2.08 22.4179 1.84 22.1912C1.61333 21.9512 1.5 21.6579 1.5 21.3112V9.75125C1.5 9.40458 1.61333 9.11792 1.84 8.89125C2.08 8.65125 2.37333 8.53125 2.72 8.53125H7.76ZM7.4 10.8912H3.84L4.1 10.5712V14.1912L3.86 14.0112H7.46C7.84667 14.0112 8.19333 13.8846 8.5 13.6312C8.80667 13.3779 8.96 13.0112 8.96 12.5312C8.96 11.9579 8.81333 11.5446 8.52 11.2912C8.24 11.0246 7.86667 10.8912 7.4 10.8912ZM7.56 16.3712H3.92L4.1 16.2112V20.4312L3.9 20.2312H7.7C8.31333 20.2312 8.8 20.0712 9.16 19.7512C9.52 19.4179 9.7 18.9246 9.7 18.2712C9.7 17.6712 9.58 17.2379 9.34 16.9712C9.1 16.7046 8.81333 16.5379 8.48 16.4712C8.14667 16.4046 7.84 16.3712 7.56 16.3712ZM25.3659 17.1912C25.3659 18.2846 25.1193 19.2512 24.6259 20.0912C24.1459 20.9179 23.4926 21.5646 22.6659 22.0312C21.8526 22.4979 20.9393 22.7313 19.9259 22.7313C18.9126 22.7313 17.9926 22.4979 17.1659 22.0312C16.3526 21.5646 15.6993 20.9179 15.2059 20.0912C14.7259 19.2512 14.4859 18.2846 14.4859 17.1912C14.4859 16.0979 14.7259 15.1379 15.2059 14.3112C15.6993 13.4712 16.3526 12.8179 17.1659 12.3512C17.9926 11.8712 18.9126 11.6312 19.9259 11.6312C20.9393 11.6312 21.8526 11.8712 22.6659 12.3512C23.4926 12.8179 24.1459 13.4712 24.6259 14.3112C25.1193 15.1379 25.3659 16.0979 25.3659 17.1912ZM22.9659 17.1912C22.9659 16.5112 22.8259 15.9246 22.5459 15.4312C22.2793 14.9246 21.9126 14.5312 21.4459 14.2512C20.9926 13.9712 20.4859 13.8312 19.9259 13.8312C19.3659 13.8312 18.8526 13.9712 18.3859 14.2512C17.9326 14.5312 17.5659 14.9246 17.2859 15.4312C17.0193 15.9246 16.8859 16.5112 16.8859 17.1912C16.8859 17.8579 17.0193 18.4446 17.2859 18.9512C17.5659 19.4446 17.9326 19.8312 18.3859 20.1112C18.8526 20.3912 19.3659 20.5312 19.9259 20.5312C20.4859 20.5312 20.9926 20.3912 21.4459 20.1112C21.9126 19.8312 22.2793 19.4446 22.5459 18.9512C22.8259 18.4446 22.9659 17.8579 22.9659 17.1912ZM28.1864 12.0312H32.9264C33.2464 12.0312 33.5131 12.1379 33.7264 12.3512C33.9397 12.5646 34.0464 12.8312 34.0464 13.1512C34.0464 13.4579 33.9397 13.7179 33.7264 13.9312C33.5131 14.1312 33.2464 14.2312 32.9264 14.2312H28.1864C27.8664 14.2312 27.5997 14.1246 27.3864 13.9112C27.1731 13.6979 27.0664 13.4312 27.0664 13.1112C27.0664 12.8046 27.1731 12.5512 27.3864 12.3512C27.5997 12.1379 27.8664 12.0312 28.1864 12.0312ZM30.3264 9.53125C30.6731 9.53125 30.9531 9.65125 31.1664 9.89125C31.3931 10.1179 31.5064 10.4046 31.5064 10.7512V19.6512C31.5064 19.8379 31.5397 19.9912 31.6064 20.1112C31.6864 20.2312 31.7864 20.3179 31.9064 20.3712C32.0397 20.4246 32.1797 20.4512 32.3264 20.4512C32.4864 20.4512 32.6331 20.4246 32.7664 20.3712C32.8997 20.3046 33.0531 20.2712 33.2264 20.2712C33.4131 20.2712 33.5797 20.3579 33.7264 20.5312C33.8864 20.7046 33.9664 20.9446 33.9664 21.2512C33.9664 21.6246 33.7597 21.9312 33.3464 22.1712C32.9464 22.4112 32.5131 22.5312 32.0464 22.5312C31.7664 22.5312 31.4531 22.5112 31.1064 22.4712C30.7731 22.4179 30.4531 22.3046 30.1464 22.1312C29.8531 21.9446 29.6064 21.6646 29.4064 21.2912C29.2064 20.9179 29.1064 20.4046 29.1064 19.7512V10.7512C29.1064 10.4046 29.2197 10.1179 29.4464 9.89125C29.6864 9.65125 29.9797 9.53125 30.3264 9.53125ZM38.49 22.5312C38.1167 22.5312 37.7833 22.4179 37.49 22.1912C37.1967 21.9512 37.05 21.6579 37.05 21.3112V9.75125C37.05 9.40458 37.1633 9.11792 37.39 8.89125C37.63 8.65125 37.9233 8.53125 38.27 8.53125H44.03C44.7233 8.53125 45.37 8.71792 45.97 9.09125C46.5833 9.45125 47.0767 9.95792 47.45 10.6112C47.8233 11.2512 48.01 11.9912 48.01 12.8312C48.01 13.3379 47.9033 13.8312 47.69 14.3112C47.49 14.7912 47.21 15.2246 46.85 15.6112C46.5033 15.9979 46.11 16.2979 45.67 16.5112L45.69 16.0512C46.0633 16.2512 46.37 16.4912 46.61 16.7712C46.8633 17.0379 47.0567 17.3312 47.19 17.6512C47.3367 17.9579 47.4233 18.2912 47.45 18.6512C47.5033 18.9846 47.5367 19.2779 47.55 19.5312C47.5767 19.7846 47.6167 19.9979 47.67 20.1712C47.7367 20.3446 47.8567 20.4779 48.03 20.5712C48.3233 20.7446 48.5033 20.9979 48.57 21.3312C48.65 21.6512 48.5767 21.9379 48.35 22.1912C48.2033 22.3646 48.0167 22.4779 47.79 22.5312C47.5633 22.5713 47.3367 22.5713 47.11 22.5312C46.8833 22.4779 46.6967 22.4112 46.55 22.3312C46.3233 22.1979 46.0967 22.0046 45.87 21.7512C45.6433 21.4846 45.4567 21.1312 45.31 20.6912C45.1767 20.2512 45.11 19.6846 45.11 18.9912C45.11 18.7646 45.07 18.5579 44.99 18.3712C44.91 18.1712 44.7967 18.0046 44.65 17.8712C44.5033 17.7246 44.3167 17.6179 44.09 17.5512C43.8633 17.4712 43.5967 17.4312 43.29 17.4312H39.25L39.55 16.9712V21.3112C39.55 21.6579 39.4567 21.9512 39.27 22.1912C39.0833 22.4179 38.8233 22.5312 38.49 22.5312ZM39.27 15.3712H43.93C44.17 15.3712 44.4033 15.2646 44.63 15.0512C44.8567 14.8246 45.0433 14.5246 45.19 14.1512C45.3367 13.7646 45.41 13.3446 45.41 12.8912C45.41 12.3046 45.25 11.8179 44.93 11.4312C44.6233 11.0312 44.29 10.8312 43.93 10.8312H39.31L39.55 10.1912V15.8512L39.27 15.3712Z" fill="#3D3C42"/>
<path d="M52.8205 22.5312C52.4471 22.5312 52.1138 22.4179 51.8205 22.1912C51.5271 21.9512 51.3805 21.6579 51.3805 21.3112V9.75125C51.3805 9.40458 51.4938 9.11792 51.7205 8.89125C51.9605 8.65125 52.2538 8.53125 52.6005 8.53125H58.3605C59.0538 8.53125 59.7005 8.71792 60.3005 9.09125C60.9138 9.45125 61.4071 9.95792 61.7805 10.6112C62.1538 11.2512 62.3405 11.9912 62.3405 12.8312C62.3405 13.3379 62.2338 13.8312 62.0205 14.3112C61.8205 14.7912 61.5405 15.2246 61.1805 15.6112C60.8338 15.9979 60.4405 16.2979 60.0005 16.5112L60.0205 16.0512C60.3938 16.2512 60.7005 16.4912 60.9405 16.7712C61.1938 17.0379 61.3871 17.3312 61.5205 17.6512C61.6671 17.9579 61.7538 18.2912 61.7805 18.6512C61.8338 18.9846 61.8671 19.2779 61.8805 19.5312C61.9071 19.7846 61.9471 19.9979 62.0005 20.1712C62.0671 20.3446 62.1871 20.4779 62.3605 20.5712C62.6538 20.7446 62.8338 20.9979 62.9005 21.3312C62.9805 21.6512 62.9071 21.9379 62.6805 22.1912C62.5338 22.3646 62.3471 22.4779 62.1205 22.5312C61.8938 22.5713 61.6671 22.5713 61.4405 22.5312C61.2138 22.4779 61.0271 22.4112 60.8805 22.3312C60.6538 22.1979 60.4271 22.0046 60.2005 21.7512C59.9738 21.4846 59.7871 21.1312 59.6405 20.6912C59.5071 20.2512 59.4405 19.6846 59.4405 18.9912C59.4405 18.7646 59.4005 18.5579 59.3205 18.3712C59.2405 18.1712 59.1271 18.0046 58.9805 17.8712C58.8338 17.7246 58.6471 17.6179 58.4205 17.5512C58.1938 17.4712 57.9271 17.4312 57.6205 17.4312H53.5805L53.8805 16.9712V21.3112C53.8805 21.6579 53.7871 21.9512 53.6005 22.1912C53.4138 22.4179 53.1538 22.5312 52.8205 22.5312ZM53.6005 15.3712H58.2605C58.5005 15.3712 58.7338 15.2646 58.9605 15.0512C59.1871 14.8246 59.3738 14.5246 59.5205 14.1512C59.6671 13.7646 59.7405 13.3446 59.7405 12.8912C59.7405 12.3046 59.5805 11.8179 59.2605 11.4312C58.9538 11.0312 58.6205 10.8312 58.2605 10.8312H53.6405L53.8805 10.1912V15.8512L53.6005 15.3712ZM70.4533 22.7313C69.3199 22.7313 68.3333 22.4979 67.4933 22.0312C66.6666 21.5512 66.0266 20.9046 65.5733 20.0912C65.1333 19.2779 64.9133 18.3579 64.9133 17.3312C64.9133 16.1312 65.1533 15.1112 65.6333 14.2712C66.1266 13.4179 66.7666 12.7646 67.5533 12.3112C68.3399 11.8579 69.1733 11.6312 70.0533 11.6312C70.7333 11.6312 71.3733 11.7712 71.9733 12.0512C72.5866 12.3312 73.1266 12.7179 73.5933 13.2112C74.0599 13.6912 74.4266 14.2512 74.6933 14.8912C74.9733 15.5312 75.1133 16.2112 75.1133 16.9312C75.0999 17.2512 74.9733 17.5112 74.7333 17.7112C74.4933 17.9112 74.2133 18.0112 73.8933 18.0112H66.2533L65.6533 16.0112H72.9933L72.5533 16.4112V15.8712C72.5266 15.4846 72.3866 15.1379 72.1333 14.8312C71.8933 14.5246 71.5866 14.2846 71.2133 14.1112C70.8533 13.9246 70.4666 13.8312 70.0533 13.8312C69.6533 13.8312 69.2799 13.8846 68.9333 13.9912C68.5866 14.0979 68.2866 14.2779 68.0333 14.5312C67.7799 14.7846 67.5799 15.1246 67.4333 15.5512C67.2866 15.9779 67.2133 16.5179 67.2133 17.1712C67.2133 17.8912 67.3599 18.5046 67.6533 19.0112C67.9599 19.5046 68.3466 19.8846 68.8133 20.1512C69.2933 20.4046 69.7999 20.5312 70.3333 20.5312C70.8266 20.5312 71.2199 20.4912 71.5133 20.4112C71.8066 20.3312 72.0399 20.2379 72.2133 20.1312C72.3999 20.0112 72.5666 19.9112 72.7133 19.8312C72.9533 19.7112 73.1799 19.6512 73.3933 19.6512C73.6866 19.6512 73.9266 19.7512 74.1133 19.9512C74.3133 20.1512 74.4133 20.3846 74.4133 20.6512C74.4133 21.0112 74.2266 21.3379 73.8533 21.6312C73.5066 21.9246 73.0199 22.1846 72.3933 22.4112C71.7666 22.6246 71.1199 22.7313 70.4533 22.7313ZM77.1902 20.8712C77.0568 20.6846 76.9968 20.4446 77.0102 20.1512C77.0235 19.8579 77.1968 19.6046 77.5302 19.3912C77.7435 19.2579 77.9702 19.2046 78.2102 19.2312C78.4502 19.2446 78.6835 19.3646 78.9102 19.5913C79.2968 19.9779 79.7035 20.2779 80.1302 20.4912C80.5568 20.7046 81.0902 20.8112 81.7302 20.8112C81.9302 20.7979 82.1502 20.7712 82.3902 20.7312C82.6302 20.6779 82.8368 20.5712 83.0102 20.4112C83.1968 20.2379 83.2902 19.9779 83.2902 19.6312C83.2902 19.3379 83.1902 19.1046 82.9902 18.9312C82.7902 18.7579 82.5235 18.6112 82.1902 18.4912C81.8702 18.3712 81.5102 18.2579 81.1102 18.1512C80.6968 18.0312 80.2702 17.8979 79.8302 17.7512C79.4035 17.6046 79.0102 17.4179 78.6502 17.1912C78.2902 16.9512 77.9968 16.6379 77.7702 16.2512C77.5435 15.8646 77.4302 15.3779 77.4302 14.7912C77.4302 14.1246 77.6168 13.5579 77.9902 13.0912C78.3635 12.6246 78.8435 12.2646 79.4302 12.0112C80.0302 11.7579 80.6568 11.6312 81.3102 11.6312C81.7235 11.6312 82.1568 11.6846 82.6102 11.7912C83.0635 11.8846 83.4968 12.0446 83.9102 12.2712C84.3235 12.4846 84.6702 12.7712 84.9502 13.1312C85.0968 13.3312 85.1835 13.5712 85.2102 13.8512C85.2368 14.1312 85.1102 14.3846 84.8302 14.6112C84.6302 14.7712 84.3968 14.8446 84.1302 14.8312C83.8635 14.8046 83.6435 14.7112 83.4702 14.5512C83.2435 14.2579 82.9368 14.0246 82.5502 13.8512C82.1768 13.6779 81.7435 13.5912 81.2502 13.5912C81.0502 13.5912 80.8302 13.6179 80.5902 13.6712C80.3635 13.7112 80.1635 13.8112 79.9902 13.9712C79.8168 14.1179 79.7302 14.3579 79.7302 14.6912C79.7302 14.9979 79.8302 15.2446 80.0302 15.4312C80.2302 15.6046 80.4968 15.7512 80.8302 15.8712C81.1768 15.9779 81.5435 16.0846 81.9302 16.1912C82.3302 16.2979 82.7368 16.4246 83.1502 16.5712C83.5635 16.7179 83.9435 16.9112 84.2902 17.1512C84.6368 17.3912 84.9168 17.7046 85.1302 18.0912C85.3435 18.4646 85.4502 18.9446 85.4502 19.5312C85.4502 20.2112 85.2502 20.7912 84.8502 21.2712C84.4502 21.7512 83.9502 22.1179 83.3502 22.3712C82.7502 22.6113 82.1368 22.7313 81.5102 22.7313C80.7235 22.7313 79.9368 22.5979 79.1502 22.3312C78.3635 22.0512 77.7102 21.5646 77.1902 20.8712ZM88.1786 12.0312H92.9186C93.2386 12.0312 93.5053 12.1379 93.7186 12.3512C93.9319 12.5646 94.0386 12.8312 94.0386 13.1512C94.0386 13.4579 93.9319 13.7179 93.7186 13.9312C93.5053 14.1312 93.2386 14.2312 92.9186 14.2312H88.1786C87.8586 14.2312 87.5919 14.1246 87.3786 13.9112C87.1653 13.6979 87.0586 13.4312 87.0586 13.1112C87.0586 12.8046 87.1653 12.5512 87.3786 12.3512C87.5919 12.1379 87.8586 12.0312 88.1786 12.0312ZM90.3186 9.53125C90.6653 9.53125 90.9453 9.65125 91.1586 9.89125C91.3853 10.1179 91.4986 10.4046 91.4986 10.7512V19.6512C91.4986 19.8379 91.5319 19.9912 91.5986 20.1112C91.6786 20.2312 91.7786 20.3179 91.8986 20.3712C92.0319 20.4246 92.1719 20.4512 92.3186 20.4512C92.4786 20.4512 92.6253 20.4246 92.7586 20.3712C92.8919 20.3046 93.0453 20.2712 93.2186 20.2712C93.4053 20.2712 93.5719 20.3579 93.7186 20.5312C93.8786 20.7046 93.9586 20.9446 93.9586 21.2512C93.9586 21.6246 93.7519 21.9312 93.3386 22.1712C92.9386 22.4112 92.5053 22.5312 92.0386 22.5312C91.7586 22.5312 91.4453 22.5112 91.0986 22.4712C90.7653 22.4179 90.4453 22.3046 90.1386 22.1312C89.8453 21.9446 89.5986 21.6646 89.3986 21.2912C89.1986 20.9179 89.0986 20.4046 89.0986 19.7512V10.7512C89.0986 10.4046 89.2119 10.1179 89.4386 9.89125C89.6786 9.65125 89.9719 9.53125 90.3186 9.53125ZM102.182 11.6712L97.8622 21.8312C97.7689 22.0846 97.6222 22.2846 97.4222 22.4312C97.2355 22.5646 97.0289 22.6313 96.8022 22.6313C96.4422 22.6313 96.1755 22.5312 96.0022 22.3312C95.8289 22.1312 95.7422 21.8846 95.7422 21.5912C95.7422 21.4712 95.7622 21.3446 95.8022 21.2113L100.782 9.25125C100.889 8.98458 101.049 8.77792 101.262 8.63125C101.489 8.48458 101.729 8.42458 101.982 8.45125C102.222 8.45125 102.442 8.52458 102.642 8.67125C102.856 8.80458 103.009 8.99792 103.102 9.25125L108.022 20.9712C108.089 21.1446 108.122 21.3046 108.122 21.4512C108.122 21.8112 108.002 22.0979 107.762 22.3112C107.536 22.5246 107.282 22.6313 107.002 22.6313C106.762 22.6313 106.542 22.5579 106.342 22.4112C106.156 22.2646 106.009 22.0646 105.902 21.8112L101.602 11.7912L102.182 11.6712ZM98.4822 19.3912L99.5822 17.0912H104.982L105.362 19.3912H98.4822ZM115.756 11.6312C116.689 11.6312 117.522 11.8712 118.256 12.3512C119.002 12.8179 119.589 13.4646 120.016 14.2912C120.456 15.1179 120.676 16.0779 120.676 17.1712C120.676 18.2646 120.456 19.2312 120.016 20.0712C119.589 20.8979 119.009 21.5512 118.276 22.0312C117.556 22.4979 116.742 22.7313 115.836 22.7313C115.302 22.7313 114.802 22.6446 114.336 22.4712C113.869 22.2979 113.456 22.0779 113.096 21.8112C112.749 21.5446 112.476 21.2779 112.276 21.0112C112.089 20.7312 111.996 20.4979 111.996 20.3112L112.616 20.0512V25.3113C112.616 25.6579 112.502 25.9446 112.276 26.1713C112.049 26.4113 111.762 26.5313 111.416 26.5313C111.069 26.5313 110.782 26.4179 110.556 26.1913C110.329 25.9646 110.216 25.6713 110.216 25.3113V13.0512C110.216 12.7046 110.329 12.4179 110.556 12.1912C110.782 11.9512 111.069 11.8312 111.416 11.8312C111.762 11.8312 112.049 11.9512 112.276 12.1912C112.502 12.4179 112.616 12.7046 112.616 13.0512V14.0312L112.276 13.8512C112.276 13.6779 112.369 13.4712 112.556 13.2312C112.742 12.9779 112.996 12.7312 113.316 12.4912C113.636 12.2379 114.002 12.0312 114.416 11.8712C114.842 11.7112 115.289 11.6312 115.756 11.6312ZM115.456 13.8312C114.869 13.8312 114.356 13.9779 113.916 14.2712C113.476 14.5646 113.129 14.9646 112.876 15.4712C112.636 15.9646 112.516 16.5312 112.516 17.1712C112.516 17.7979 112.636 18.3712 112.876 18.8912C113.129 19.3979 113.476 19.7979 113.916 20.0912C114.356 20.3846 114.869 20.5312 115.456 20.5312C116.042 20.5312 116.549 20.3846 116.976 20.0912C117.416 19.7979 117.756 19.3979 117.996 18.8912C118.249 18.3712 118.376 17.7979 118.376 17.1712C118.376 16.5312 118.249 15.9646 117.996 15.4712C117.756 14.9646 117.416 14.5646 116.976 14.2712C116.549 13.9779 116.042 13.8312 115.456 13.8312ZM128.914 11.6312C129.848 11.6312 130.681 11.8712 131.414 12.3512C132.161 12.8179 132.748 13.4646 133.174 14.2912C133.614 15.1179 133.834 16.0779 133.834 17.1712C133.834 18.2646 133.614 19.2312 133.174 20.0712C132.748 20.8979 132.168 21.5512 131.434 22.0312C130.714 22.4979 129.901 22.7313 128.994 22.7313C128.461 22.7313 127.961 22.6446 127.494 22.4712C127.028 22.2979 126.614 22.0779 126.254 21.8112C125.908 21.5446 125.634 21.2779 125.434 21.0112C125.248 20.7312 125.154 20.4979 125.154 20.3112L125.774 20.0512V25.3113C125.774 25.6579 125.661 25.9446 125.434 26.1713C125.208 26.4113 124.921 26.5313 124.574 26.5313C124.228 26.5313 123.941 26.4179 123.714 26.1913C123.488 25.9646 123.374 25.6713 123.374 25.3113V13.0512C123.374 12.7046 123.488 12.4179 123.714 12.1912C123.941 11.9512 124.228 11.8312 124.574 11.8312C124.921 11.8312 125.208 11.9512 125.434 12.1912C125.661 12.4179 125.774 12.7046 125.774 13.0512V14.0312L125.434 13.8512C125.434 13.6779 125.528 13.4712 125.714 13.2312C125.901 12.9779 126.154 12.7312 126.474 12.4912C126.794 12.2379 127.161 12.0312 127.574 11.8712C128.001 11.7112 128.448 11.6312 128.914 11.6312ZM128.614 13.8312C128.028 13.8312 127.514 13.9779 127.074 14.2712C126.634 14.5646 126.288 14.9646 126.034 15.4712C125.794 15.9646 125.674 16.5312 125.674 17.1712C125.674 17.7979 125.794 18.3712 126.034 18.8912C126.288 19.3979 126.634 19.7979 127.074 20.0912C127.514 20.3846 128.028 20.5312 128.614 20.5312C129.201 20.5312 129.708 20.3846 130.134 20.0912C130.574 19.7979 130.914 19.3979 131.154 18.8912C131.408 18.3712 131.534 17.7979 131.534 17.1712C131.534 16.5312 131.408 15.9646 131.154 15.4712C130.914 14.9646 130.574 14.5646 130.134 14.2712C129.708 13.9779 129.201 13.8312 128.614 13.8312Z" fill="#7F5283"/>
<path d="M180.223 0H155.978C153.781 0 152 1.50503 152 3.36159V23.6384C152 25.495 153.781 27 155.978 27H180.223C182.42 27 184.201 25.495 184.201 23.6384V3.36159C184.201 1.50503 182.42 0 180.223 0Z" fill="#3D3C42"/>
<ellipse cx="173" cy="19.4062" rx="5" ry="4.21875" fill="#D9D9D9"/>
</svg>
