<svg width="40" height="40" viewBox="0 0 40 40" fill="none" xmlns="http://www.w3.org/2000/svg">
<g id="Group 1000002799">
<circle id="Ellipse 2696" cx="20" cy="20" r="19.5" fill="white" stroke="#212121"/>
<g id="Group">
<path id="Vector" d="M31.743 12.057H17.914C17.6277 12.057 17.3855 11.8148 17.3855 11.5285C17.3855 11.2422 17.6277 11 17.914 11H31.743C32.0293 11 32.2715 11.2422 32.2715 11.5285C32.2715 11.8148 32.0293 12.057 31.743 12.057Z" fill="black"/>
<path id="Vector_2" d="M31.743 17.3641H11.528C11.2417 17.3641 10.9995 17.1219 10.9995 16.8356C10.9995 16.5494 11.2417 16.3071 11.528 16.3071H31.743C32.0293 16.3071 32.2715 16.5494 32.2715 16.8356C32.2715 17.1439 32.0293 17.3641 31.743 17.3641Z" fill="black"/>
<path id="Vector_3" d="M31.743 22.6927H17.914C17.6277 22.6927 17.3855 22.4505 17.3855 22.1642C17.3855 21.878 17.6277 21.6357 17.914 21.6357H31.743C32.0293 21.6357 32.2715 21.878 32.2715 22.1642C32.2715 22.4505 32.0293 22.6927 31.743 22.6927Z" fill="black"/>
<path id="Vector_4" d="M31.743 27.9999H11.528C11.2417 27.9999 10.9995 27.7576 10.9995 27.4714C10.9995 27.1851 11.2417 26.9429 11.528 26.9429H31.743C32.0293 26.9429 32.2715 27.1851 32.2715 27.4714C32.2715 27.7576 32.0293 27.9999 31.743 27.9999Z" fill="black"/>
</g>
</g>
</svg>
