<svg width="14" height="10" viewBox="0 0 14 10" fill="none" xmlns="http://www.w3.org/2000/svg">
<path d="M7 7C8.1046 7 9 6.1046 9 5C9 3.89543 8.1046 3 7 3C5.89543 3 5 3.89543 5 5C5 6.1046 5.89543 7 7 7Z" fill="#EFB31D"/>
<path fill-rule="evenodd" clip-rule="evenodd" d="M0 5C0.934771 2.10208 3.71527 0 6.99999 0C10.2847 0 13.0652 2.10206 14 4.99997C13.0652 7.89793 10.2847 10 6.99998 10C3.71527 10 0.934786 7.89793 0 5ZM9.93434 5C9.93434 6.57793 8.62057 7.85714 7.00001 7.85714C5.37944 7.85714 4.06569 6.57793 4.06569 5C4.06569 3.42204 5.37944 2.14286 7.00001 2.14286C8.62057 2.14286 9.93434 3.42204 9.93434 5Z" fill="#EFB31D"/>
</svg>
