<svg xmlns="http://www.w3.org/2000/svg" width="57.935" height="54.301" viewBox="0 0 57.935 54.301">
  <g id="admin_1_" data-name="admin (1)" transform="translate(-0.001 -0.5)">
    <path id="Path_1529" data-name="Path 1529" d="M61.043,60.6H10.2A2.7,2.7,0,0,1,7.5,57.909V10.7A2.7,2.7,0,0,1,10.2,8H61.043A2.7,2.7,0,0,1,63.738,10.7V57.909A2.7,2.7,0,0,1,61.043,60.6Zm0,0" transform="translate(-6.651 -6.652)" fill="#f4f4f4"/>
    <path id="Path_1530" data-name="Path 1530" d="M449.644,8h-3.96a2.7,2.7,0,0,1,2.695,2.695V57.909a2.7,2.7,0,0,1-2.695,2.695h3.96a2.7,2.7,0,0,0,2.695-2.695V10.695A2.7,2.7,0,0,0,449.644,8Zm0,0" transform="translate(-395.252 -6.651)" fill="#e8e8e8"/>
    <path id="Path_1531" data-name="Path 1531" d="M7.5,18.123H63.738V10.695A2.7,2.7,0,0,0,61.043,8H10.195A2.7,2.7,0,0,0,7.5,10.695Zm0,0" transform="translate(-6.651 -6.651)" fill="#5994ce"/>
    <path id="Path_1532" data-name="Path 1532" d="M449.644,8h-3.96a2.7,2.7,0,0,1,2.695,2.695v7.428h3.96V10.695A2.7,2.7,0,0,0,449.644,8Zm0,0" transform="translate(-395.252 -6.651)" fill="#4c7eb0"/>
    <path id="Path_1533" data-name="Path 1533" d="M53.5,37.076a2,2,0,1,1-2-2A2,2,0,0,1,53.5,37.076Zm0,0" transform="translate(-43.898 -30.666)" fill="#fa5d72"/>
    <path id="Path_1534" data-name="Path 1534" d="M113.257,37.076a2,2,0,1,1-2-2A2,2,0,0,1,113.257,37.076Zm0,0" transform="translate(-96.897 -30.666)" fill="#f6d867"/>
    <path id="Path_1535" data-name="Path 1535" d="M173.015,37.076a2,2,0,1,1-2-2A2,2,0,0,1,173.015,37.076Zm0,0" transform="translate(-149.894 -30.666)" fill="#2cab72"/>
    <path id="Path_1536" data-name="Path 1536" d="M7.5,97.465V137.25a2.7,2.7,0,0,0,2.695,2.695H25.777V97.465Zm0,0" transform="translate(-6.651 -85.993)" fill="#a7c3de"/>
    <path id="Path_1537" data-name="Path 1537" d="M144.57,97.465h2.767v42.48H144.57Zm0,0" transform="translate(-128.211 -85.993)" fill="#93acc4"/>
    <path id="Path_1538" data-name="Path 1538" d="M212.682,144.755H200.9a.9.9,0,0,1-.9-.9v-8.822a.9.9,0,0,1,.9-.9h11.786a.9.9,0,0,1,.9.9v8.822A.9.9,0,0,1,212.682,144.755Zm0,0" transform="translate(-177.369 -118.518)" fill="#fa5d72"/>
    <path id="Path_1539" data-name="Path 1539" d="M290.794,134.141h-2.716a.9.9,0,0,1,.9.9v8.822a.9.9,0,0,1-.9.9h2.716a.9.9,0,0,0,.9-.9v-8.822A.9.9,0,0,0,290.794,134.141Zm0,0" transform="translate(-255.48 -118.519)" fill="#e35567"/>
    <path id="Path_1540" data-name="Path 1540" d="M367.525,144.755h-11.47A1.054,1.054,0,0,1,355,143.7v-8.506a1.054,1.054,0,0,1,1.054-1.054h11.47a1.054,1.054,0,0,1,1.054,1.054V143.7A1.054,1.054,0,0,1,367.525,144.755Zm0,0" transform="translate(-314.83 -118.518)" fill="#fa5d72"/>
    <path id="Path_1541" data-name="Path 1541" d="M446.06,143.7v-8.506a1.054,1.054,0,0,0-1.054-1.054h-2.638a1.054,1.054,0,0,1,1.054,1.054V143.7a1.054,1.054,0,0,1-1.054,1.054h2.638A1.054,1.054,0,0,0,446.06,143.7Zm0,0" transform="translate(-392.311 -118.519)" fill="#e35567"/>
    <path id="Path_1542" data-name="Path 1542" d="M230.221,271.472H200.9a.9.9,0,0,1-.9-.9v-9.749a.9.9,0,0,1,.9-.9h29.325a.9.9,0,0,1,.9.9v9.749A.9.9,0,0,1,230.221,271.472Zm0,0" transform="translate(-177.369 -230.074)" fill="#fa5d72"/>
    <path id="Path_1543" data-name="Path 1543" d="M446.237,259.93h-2.659a.9.9,0,0,1,.9.9v9.749a.9.9,0,0,1-.9.9h2.659a.9.9,0,0,0,.9-.9v-9.749A.9.9,0,0,0,446.237,259.93Zm0,0" transform="translate(-393.385 -230.074)" fill="#e35567"/>
    <path id="Path_1544" data-name="Path 1544" d="M230.28,401.422H200.9a.9.9,0,0,1-.9-.9v-1.918a.9.9,0,0,1,.9-.9H230.28a.9.9,0,0,1,.9.9v1.918A.9.9,0,0,1,230.28,401.422Zm0,0" transform="translate(-177.369 -352.265)" fill="#fba826"/>
    <path id="Path_1545" data-name="Path 1545" d="M447.2,397.711h-2.6a.9.9,0,0,1,.9.9v1.918a.9.9,0,0,1-.9.9h2.6a.9.9,0,0,0,.9-.9v-1.918A.9.9,0,0,0,447.2,397.711Zm0,0" transform="translate(-394.293 -352.265)" fill="#e09721"/>
    <path id="Path_1546" data-name="Path 1546" d="M44.847,27.578a2.846,2.846,0,1,0,2.846,2.847,2.85,2.85,0,0,0-2.846-2.847Zm0,4A1.149,1.149,0,1,1,46,30.425a1.15,1.15,0,0,1-1.149,1.149Zm0,0" transform="translate(-37.247 -24.014)"/>
    <path id="Path_1547" data-name="Path 1547" d="M104.608,27.578a2.846,2.846,0,1,0,2.847,2.847A2.85,2.85,0,0,0,104.608,27.578Zm0,4a1.149,1.149,0,1,1,1.149-1.149A1.15,1.15,0,0,1,104.608,31.573Zm0,0" transform="translate(-90.246 -24.014)"/>
    <path id="Path_1548" data-name="Path 1548" d="M164.366,27.578a2.846,2.846,0,1,0,2.846,2.847A2.85,2.85,0,0,0,164.366,27.578Zm0,4a1.149,1.149,0,1,1,1.149-1.149A1.15,1.15,0,0,1,164.366,31.573Zm0,0" transform="translate(-143.243 -24.014)"/>
    <path id="Path_1549" data-name="Path 1549" d="M284.535,46.083a.848.848,0,0,0-.849-.849H263.017a.849.849,0,1,0,0,1.7h20.67a.849.849,0,0,0,.848-.849Zm0,0" transform="translate(-232.502 -39.673)"/>
    <path id="Path_1550" data-name="Path 1550" d="M54.392.5H3.544A3.548,3.548,0,0,0,0,4.044V51.257a3.565,3.565,0,0,0,.055.626c.005.029.011.058.017.087s.019.086.029.129.014.057.022.085.015.056.024.084a3.55,3.55,0,0,0,3.4,2.533H54.392a3.548,3.548,0,0,0,3.544-3.544V4.044A3.548,3.548,0,0,0,54.392.5ZM18.277,53.1H3.544a1.85,1.85,0,0,1-1.776-1.341c0-.015-.008-.029-.012-.044s-.008-.029-.011-.044a1.847,1.847,0,0,1-.047-.416V12.321H18.277Zm36.115,0H19.975V12.321H39.265a.849.849,0,0,0,0-1.7H1.7V4.044A1.848,1.848,0,0,1,3.544,2.2H54.392a1.848,1.848,0,0,1,1.846,1.846v6.58h-13.8a.849.849,0,1,0,0,1.7h13.8V51.257A1.848,1.848,0,0,1,54.392,53.1Zm0,0"/>
    <path id="Path_1551" data-name="Path 1551" d="M32.11,133.638h11.2a.849.849,0,0,0,0-1.7H32.11a.849.849,0,0,0,0,1.7Zm0,0" transform="translate(-27.724 -116.568)"/>
    <path id="Path_1552" data-name="Path 1552" d="M32.11,180.556h11.2a.849.849,0,0,0,0-1.7H32.11a.849.849,0,0,0,0,1.7Zm0,0" transform="translate(-27.724 -158.177)"/>
    <path id="Path_1553" data-name="Path 1553" d="M32.11,227.47h11.2a.849.849,0,0,0,0-1.7H32.11a.849.849,0,0,0,0,1.7Zm0,0" transform="translate(-27.724 -199.782)"/>
    <path id="Path_1554" data-name="Path 1554" d="M32.11,274.385h11.2a.849.849,0,1,0,0-1.7H32.11a.849.849,0,1,0,0,1.7Zm0,0" transform="translate(-27.724 -241.389)"/>
    <path id="Path_1555" data-name="Path 1555" d="M194.245,138.952h11.786a1.747,1.747,0,0,0,1.745-1.745v-8.822a1.747,1.747,0,0,0-1.745-1.745H194.245a1.747,1.747,0,0,0-1.745,1.745v8.822A1.747,1.747,0,0,0,194.245,138.952Zm-.048-10.567a.048.048,0,0,1,.048-.048h11.786a.048.048,0,0,1,.048.048v8.822a.048.048,0,0,1-.048.048H194.245a.048.048,0,0,1-.048-.048Zm0,0" transform="translate(-170.717 -111.867)"/>
    <path id="Path_1556" data-name="Path 1556" d="M349.245,138.952h11.786a1.747,1.747,0,0,0,1.745-1.745v-8.822a1.747,1.747,0,0,0-1.745-1.745H349.245a1.747,1.747,0,0,0-1.745,1.745v8.822A1.747,1.747,0,0,0,349.245,138.952Zm11.628-10.614a.206.206,0,0,1,.206.206v8.506a.206.206,0,0,1-.206.206H349.4a.206.206,0,0,1-.206-.206v-8.506a.206.206,0,0,1,.206-.206Zm0,0" transform="translate(-308.178 -111.867)"/>
    <path id="Path_1557" data-name="Path 1557" d="M223.629,390.211H194.245a1.747,1.747,0,0,0-1.745,1.745v1.918a1.747,1.747,0,0,0,1.745,1.745h29.384a1.747,1.747,0,0,0,1.745-1.745v-1.918A1.747,1.747,0,0,0,223.629,390.211Zm.048,3.663a.048.048,0,0,1-.048.048H194.245a.048.048,0,0,1-.048-.048v-1.918a.048.048,0,0,1,.048-.048h29.384a.048.048,0,0,1,.048.048Zm0,0" transform="translate(-170.717 -345.614)"/>
    <path id="Path_1558" data-name="Path 1558" d="M194.245,265.669h4.309a.849.849,0,1,0,0-1.7h-4.309a.048.048,0,0,1-.048-.048v-9.749a.048.048,0,0,1,.048-.048H223.57a.048.048,0,0,1,.048.048v9.749a.048.048,0,0,1-.048.048H201.722a.849.849,0,1,0,0,1.7H223.57a1.747,1.747,0,0,0,1.745-1.745v-9.749a1.747,1.747,0,0,0-1.745-1.745H194.245a1.747,1.747,0,0,0-1.745,1.745v9.749A1.747,1.747,0,0,0,194.245,265.669Zm0,0" transform="translate(-170.717 -223.423)"/>
  </g>
</svg>
