<svg xmlns="http://www.w3.org/2000/svg" width="522.652" height="313.948" viewBox="0 0 522.652 313.948">
  <g id="Catalogue-pana" transform="translate(-22.5 -45.11)">
    <g id="freepik--background-complete--inject-6" transform="translate(51.204 49.838)">
      <rect id="Rectangle_287" data-name="Rectangle 287" width="66.556" height="44.478" transform="translate(427.385 264.647)" fill="#ebebeb"/>
      <rect id="Rectangle_288" data-name="Rectangle 288" width="27.091" height="44.478" transform="translate(466.857 264.647)" fill="#e0e0e0"/>
      <rect id="Rectangle_289" data-name="Rectangle 289" width="64.423" height="93.376" transform="translate(392.136 0)" fill="#e0e0e0"/>
      <rect id="Rectangle_290" data-name="Rectangle 290" width="64.423" height="93.376" transform="translate(388.911 0)" fill="#f5f5f5"/>
      <rect id="Rectangle_291" data-name="Rectangle 291" width="48.414" height="73.153" transform="translate(396.915 10.115)" fill="#fff"/>
      <path id="Path_1237" data-name="Path 1237" d="M651.518,138.414V117.942c0-12.9-.051-31.167-.081-52.673l.161.161H603.221l.176-.176V138.4l-.139-.139,35.235.073,9.734.037h.059l-9.7.037-35.323.073h-.271v-.139c0-20.113,0-45.555-.037-73.145V65.02h48.722v.161c0,21.55-.066,39.853-.081,52.775,0,6.436-.037,11.537-.044,15.034v5A3.121,3.121,0,0,1,651.518,138.414Z" transform="translate(-206.189 -55.154)" fill="#e0e0e0"/>
      <path id="Path_1238" data-name="Path 1238" d="M677.174,51.56a11.127,11.127,0,0,1-1.143,1.671c-.733,1-1.81,2.36-3.027,3.834s-2.346,2.771-3.181,3.7a11.485,11.485,0,0,1-1.422,1.466,11.892,11.892,0,0,1,1.231-1.605l3.1-3.768c1.18-1.422,2.236-2.712,3.1-3.76a12.8,12.8,0,0,1,1.341-1.539Z" transform="translate(-223.665 -51.56)" fill="#e0e0e0"/>
      <path id="Path_1239" data-name="Path 1239" d="M669.54,164.83a60.165,60.165,0,0,0,8.444,10.562" transform="translate(-223.969 -81.804)" fill="#fff"/>
      <path id="Path_1240" data-name="Path 1240" d="M677.987,175.392a10.511,10.511,0,0,1-1.466-1.341,47.645,47.645,0,0,1-5.989-7.491,9.814,9.814,0,0,1-.982-1.73,13.035,13.035,0,0,1,1.187,1.591c.733,1,1.708,2.36,2.873,3.819s2.28,2.727,3.093,3.665A13.02,13.02,0,0,1,677.987,175.392Z" transform="translate(-223.972 -81.804)" fill="#e0e0e0"/>
      <path id="Path_1241" data-name="Path 1241" d="M592.23,175.056q4.207-5.212,8.437-10.416" transform="translate(-203.327 -81.753)" fill="#fff"/>
      <path id="Path_1242" data-name="Path 1242" d="M600.667,164.64a64.1,64.1,0,0,1-4.083,5.322,65.822,65.822,0,0,1-4.354,5.094,61.493,61.493,0,0,1,4.083-5.314,63.356,63.356,0,0,1,4.354-5.1Z" transform="translate(-203.327 -81.753)" fill="#e0e0e0"/>
      <path id="Path_1243" data-name="Path 1243" d="M592.24,51.56a60.44,60.44,0,0,1,4.1,4.9,57.656,57.656,0,0,1,3.819,5.131,58.68,58.68,0,0,1-4.1-4.9,60.27,60.27,0,0,1-3.819-5.131Z" transform="translate(-203.329 -51.56)" fill="#e0e0e0"/>
      <rect id="Rectangle_292" data-name="Rectangle 292" width="16.214" height="46.025" transform="translate(414.03 24.966)" fill="#e0e0e0"/>
      <rect id="Rectangle_293" data-name="Rectangle 293" width="66.556" height="44.478" transform="translate(380.562 112.412)" fill="#ebebeb"/>
      <rect id="Rectangle_294" data-name="Rectangle 294" width="27.091" height="44.478" transform="translate(420.026 112.412)" fill="#e0e0e0"/>
      <rect id="Rectangle_295" data-name="Rectangle 295" width="48.099" height="50.137" transform="translate(3.269 64.166)" fill="#e0e0e0"/>
      <rect id="Rectangle_296" data-name="Rectangle 296" width="48.099" height="50.137" transform="translate(0.015 64.166)" fill="#fafafa"/>
      <path id="Path_1244" data-name="Path 1244" d="M109.788,189.246H61.66V139.08h48.128Zm-48.1,0h48.07V139.109H61.689Z" transform="translate(-61.66 -74.929)" fill="#e0e0e0"/>
      <rect id="Rectangle_297" data-name="Rectangle 297" width="35.169" height="36.657" transform="translate(6.48 70.902)" fill="#fafafa"/>
      <path id="Path_1245" data-name="Path 1245" d="M68.177,198.64a5.768,5.768,0,0,1-.865,1c-.564.594-1.356,1.4-2.2,2.272s-1.7,1.642-2.3,2.2a5.789,5.789,0,0,1-1.012.843,5.4,5.4,0,0,1,.858-1c.564-.594,1.356-1.4,2.243-2.272s1.7-1.649,2.3-2.2A5.043,5.043,0,0,1,68.177,198.64Z" transform="translate(-61.697 -90.832)" fill="#e0e0e0"/>
      <path id="Path_1246" data-name="Path 1246" d="M118.48,198.51a6.069,6.069,0,0,1,1,.872c.594.557,1.4,1.349,2.272,2.236s1.642,1.693,2.2,2.294a5.653,5.653,0,0,1,.843,1.019,5.681,5.681,0,0,1-1-.865c-.594-.557-1.4-1.349-2.272-2.236s-1.649-1.708-2.2-2.309A4.817,4.817,0,0,1,118.48,198.51Z" transform="translate(-76.831 -90.797)" fill="#e0e0e0"/>
      <path id="Path_1247" data-name="Path 1247" d="M118.35,146.126a5.27,5.27,0,0,1,.865-1.012c.564-.594,1.349-1.393,2.2-2.265s1.7-1.649,2.294-2.2a5.952,5.952,0,0,1,1.019-.85,5.387,5.387,0,0,1-.865,1c-.557.594-1.349,1.4-2.2,2.272s-1.708,1.657-2.3,2.2A6.136,6.136,0,0,1,118.35,146.126Z" transform="translate(-76.797 -75.121)" fill="#e0e0e0"/>
      <path id="Path_1248" data-name="Path 1248" d="M68.071,146.211a5.63,5.63,0,0,1-1-.865c-.594-.564-1.393-1.356-2.265-2.236s-1.649-1.7-2.2-2.3a5.029,5.029,0,0,1-.843-1.019,6.1,6.1,0,0,1,1,.887c.594.564,1.393,1.356,2.265,2.243s1.657,1.7,2.2,2.3a5.791,5.791,0,0,1,.85.99Z" transform="translate(-61.687 -75.118)" fill="#e0e0e0"/>
      <path id="Path_1249" data-name="Path 1249" d="M105.56,184.837a.638.638,0,0,1,0-.176V174.7c0-6.421-.044-15.569-.073-26.52l.139.139H70.56l.154-.161v36.65l-.132-.132,25.391.073h.088l-25.479.073H70.45V147.88h35.36v.132c0,10.995-.051,20.165-.066,26.608v9.888A.76.76,0,0,1,105.56,184.837Z" transform="translate(-64.007 -77.278)" fill="#e0e0e0"/>
      <rect id="Rectangle_298" data-name="Rectangle 298" width="11.735" height="11.735" transform="translate(18.193 83.363)" fill="#ebebeb"/>
    </g>
    <g id="freepik--Floor--inject-6" transform="translate(22.5 358.676)">
      <path id="Path_1250" data-name="Path 1250" d="M539.259,473.091c0,.1-115.688.191-258.365.191S22.5,473.193,22.5,473.091s115.666-.191,258.394-.191S539.259,472.973,539.259,473.091Z" transform="translate(-22.5 -472.9)" fill="#263238"/>
    </g>
    <g id="freepik--Plant--inject-6" transform="translate(35.203 198.569)">
      <path id="Path_1251" data-name="Path 1251" d="M71.226,394.413c-10.995-5.952-23.368-16.771-28.176-29.063a65.64,65.64,0,0,1,28.176,29.063" transform="translate(-40.69 -284.076)" fill="#fb6d5d"/>
      <path id="Path_1252" data-name="Path 1252" d="M70.246,369.293c-10.995-5.945-23.368-16.771-28.176-29.063a65.418,65.418,0,0,1,28.176,29.063" transform="translate(-40.428 -277.369)" fill="#fb6d5d"/>
      <path id="Path_1253" data-name="Path 1253" d="M68.006,344.7c-10.995-5.945-23.368-16.771-28.176-29.063A65.571,65.571,0,0,1,68.006,344.7" transform="translate(-39.83 -270.803)" fill="#fb6d5d"/>
      <path id="Path_1254" data-name="Path 1254" d="M66.074,317.525c-10.211-7.44-21.191-19.9-24.5-32.765a67.594,67.594,0,0,1,24.5,32.765" transform="translate(-40.295 -262.558)" fill="#fb6d5d"/>
      <path id="Path_1255" data-name="Path 1255" d="M66.509,294.828c-6.9-11.053-12.8-27.077-11.449-40.358a72.676,72.676,0,0,1,11.449,40.359" transform="translate(-43.845 -254.47)" fill="#fb6d5d"/>
      <path id="Path_1256" data-name="Path 1256" d="M72.89,304.3c2.932-13.78,9.983-30.786,20.172-40.366A85.482,85.482,0,0,1,72.89,304.3" transform="translate(-48.657 -256.996)" fill="#fb6d5d"/>
      <path id="Path_1257" data-name="Path 1257" d="M76,325.595c4.163-14.1,12.93-31.2,24.328-40.315A88.692,88.692,0,0,1,76,325.595" transform="translate(-49.488 -262.697)" fill="#fb6d5d"/>
      <path id="Path_1258" data-name="Path 1258" d="M79.39,351.5c4.163-14.1,12.93-31.2,24.328-40.315A88.788,88.788,0,0,1,79.39,351.5" transform="translate(-50.393 -269.615)" fill="#fb6d5d"/>
      <path id="Path_1259" data-name="Path 1259" d="M81.11,383.075c4.163-14.1,12.93-31.2,24.328-40.315A88.787,88.787,0,0,1,81.11,383.075" transform="translate(-50.852 -278.044)" fill="#fb6d5d"/>
      <path id="Path_1260" data-name="Path 1260" d="M70.38,305.73a1.146,1.146,0,0,1,.066.227q.066.264.154.66c.139.623.323,1.466.564,2.565.484,2.2,1.121,5.453,1.84,9.463s1.466,8.8,2.25,14.117,1.466,11.207,2.008,17.394.938,12.094,1.195,17.467.352,10.225.359,14.3,0,7.33-.081,9.639c0,1.107-.059,1.979-.081,2.617v.682a.878.878,0,0,1,0,.227.88.88,0,0,1,0-.227v-3.306c0-2.272,0-5.563-.059-9.632s-.205-8.906-.462-14.279-.667-11.266-1.224-17.453-1.268-12.043-1.972-17.372-1.466-10.115-2.155-14.125-1.268-7.249-1.7-9.485c-.2-1.092-.359-1.95-.476-2.573l-.11-.674A.93.93,0,0,1,70.38,305.73Z" transform="translate(-47.987 -268.157)" fill="#263238"/>
      <g id="Group_1893" data-name="Group 1893" opacity="0.5">
        <path id="Path_1261" data-name="Path 1261" d="M71.226,394.413c-10.995-5.952-23.368-16.771-28.176-29.063a65.64,65.64,0,0,1,28.176,29.063" transform="translate(-40.69 -284.076)"/>
        <path id="Path_1262" data-name="Path 1262" d="M70.246,369.293c-10.995-5.945-23.368-16.771-28.176-29.063a65.418,65.418,0,0,1,28.176,29.063" transform="translate(-40.428 -277.369)"/>
        <path id="Path_1263" data-name="Path 1263" d="M68.006,344.7c-10.995-5.945-23.368-16.771-28.176-29.063A65.571,65.571,0,0,1,68.006,344.7" transform="translate(-39.83 -270.803)"/>
        <path id="Path_1264" data-name="Path 1264" d="M66.074,317.525c-10.211-7.44-21.191-19.9-24.5-32.765a67.594,67.594,0,0,1,24.5,32.765" transform="translate(-40.295 -262.558)"/>
        <path id="Path_1265" data-name="Path 1265" d="M66.509,294.828c-6.9-11.053-12.8-27.077-11.449-40.358a72.676,72.676,0,0,1,11.449,40.359" transform="translate(-43.845 -254.47)"/>
        <path id="Path_1266" data-name="Path 1266" d="M72.89,304.3c2.932-13.78,9.983-30.786,20.172-40.366A85.482,85.482,0,0,1,72.89,304.3" transform="translate(-48.657 -256.996)"/>
        <path id="Path_1267" data-name="Path 1267" d="M76,325.595c4.163-14.1,12.93-31.2,24.328-40.315A88.692,88.692,0,0,1,76,325.595" transform="translate(-49.488 -262.697)"/>
        <path id="Path_1268" data-name="Path 1268" d="M79.39,351.5c4.163-14.1,12.93-31.2,24.328-40.315A88.788,88.788,0,0,1,79.39,351.5" transform="translate(-50.393 -269.615)"/>
        <path id="Path_1269" data-name="Path 1269" d="M81.11,383.075c4.163-14.1,12.93-31.2,24.328-40.315A88.787,88.787,0,0,1,81.11,383.075" transform="translate(-50.852 -278.044)"/>
      </g>
      <path id="Path_1270" data-name="Path 1270" d="M85.479,397.846c-5.131-10.724-8.847-25.8-6.333-37.566a66.6,66.6,0,0,1,6.333,37.566" transform="translate(-50.113 -282.722)" fill="#fb6d5d"/>
      <path id="Path_1271" data-name="Path 1271" d="M97.1,378.9c-5.131-10.724-8.847-25.8-6.333-37.573A66.636,66.636,0,0,1,97.1,378.9" transform="translate(-53.215 -277.662)" fill="#fb6d5d"/>
      <path id="Path_1272" data-name="Path 1272" d="M107.519,359.643c-5.131-10.724-8.847-25.8-6.333-37.573a66.614,66.614,0,0,1,6.333,37.573" transform="translate(-55.997 -272.52)" fill="#fb6d5d"/>
      <path id="Path_1273" data-name="Path 1273" d="M118.945,338.666c-3.812-11.347-5.717-26.82-1.832-38.116a66.988,66.988,0,0,1,1.832,38.116" transform="translate(-59.895 -266.774)" fill="#fb6d5d"/>
      <path id="Path_1274" data-name="Path 1274" d="M127.07,322.384c.374-12.072,3.929-27.2,11.427-36.114a65.463,65.463,0,0,1-11.427,36.114" transform="translate(-63.124 -262.961)" fill="#fb6d5d"/>
      <path id="Path_1275" data-name="Path 1275" d="M124,337.23c8.884-8.378,22.386-16.7,34.524-17.79A66.87,66.87,0,0,1,124,337.23" transform="translate(-62.304 -271.818)" fill="#fb6d5d"/>
      <path id="Path_1276" data-name="Path 1276" d="M115.81,355.42c9.954-7.887,24.738-15.29,37.522-15.319A69.634,69.634,0,0,1,115.81,355.42" transform="translate(-60.117 -277.334)" fill="#fb6d5d"/>
      <path id="Path_1277" data-name="Path 1277" d="M105.6,376.36c9.954-7.887,24.738-15.29,37.522-15.32A69.634,69.634,0,0,1,105.6,376.36" transform="translate(-57.391 -282.925)" fill="#fb6d5d"/>
      <path id="Path_1278" data-name="Path 1278" d="M91.37,400.42c9.954-7.887,24.746-15.29,37.529-15.32a69.685,69.685,0,0,1-37.529,15.32" transform="translate(-53.592 -289.349)" fill="#fb6d5d"/>
      <path id="Path_1279" data-name="Path 1279" d="M114.885,332.55a.784.784,0,0,1-.059.205c-.059.147-.125.337-.205.564l-.836,2.2c-.733,1.884-1.832,4.589-3.254,7.909-2.844,6.641-7.051,15.693-12.278,25.4-2.624,4.852-5.248,9.4-7.711,13.494s-4.779,7.682-6.78,10.665-3.665,5.417-4.838,7.059l-1.356,1.884-.366.484a1,1,0,0,1-.132.154.343.343,0,0,1,.1-.183l.33-.506c.315-.476.733-1.121,1.29-1.935,1.136-1.664,2.749-4.1,4.706-7.125s4.244-6.678,6.7-10.76,5.043-8.649,7.667-13.494c5.219-9.69,9.47-18.713,12.38-25.31,1.466-3.3,2.609-5.981,3.386-7.85l.909-2.133.249-.557a.733.733,0,0,1,.1-.161Z" transform="translate(-49.773 -275.318)" fill="#263238"/>
      <path id="Path_1280" data-name="Path 1280" d="M94.4,457.372H62.947L57.09,414.03h43.334Z" transform="translate(-44.439 -297.074)" fill="#263238"/>
      <path id="Path_1281" data-name="Path 1281" d="M99.3,422.621c0,.11-9.1.191-20.319.191s-20.326-.081-20.326-.191,9.1-.191,20.326-.191S99.3,422.518,99.3,422.621Z" transform="translate(-44.858 -299.317)" fill="#455a64"/>
    </g>
    <g id="freepik--Device--inject-6" transform="translate(171.561 45.11)">
      <rect id="Rectangle_299" data-name="Rectangle 299" width="218.629" height="313.757" rx="11.55" fill="#263238"/>
      <rect id="Rectangle_300" data-name="Rectangle 300" width="204.842" height="262.022" transform="translate(6.795 22.386)" fill="#fff"/>
      <path id="Path_1282" data-name="Path 1282" d="M380.331,448.593a8.385,8.385,0,1,1-8.385-8.393A8.385,8.385,0,0,1,380.331,448.593Z" transform="translate(-262.627 -150.602)" fill="#455a64"/>
      <rect id="Rectangle_301" data-name="Rectangle 301" width="65.852" height="3.467" rx="1.22" transform="translate(76.392 9.038)" fill="#455a64"/>
      <rect id="Rectangle_302" data-name="Rectangle 302" width="52.724" height="52.724" rx="4.6" transform="translate(22.268 64.503)" fill="#fb6d5d"/>
      <rect id="Rectangle_303" data-name="Rectangle 303" width="21.55" height="11.493" rx="2.54" transform="translate(37.808 82.469)" fill="#fafafa"/>
      <rect id="Rectangle_304" data-name="Rectangle 304" width="31.035" height="11.024" rx="1.04" transform="translate(33.109 87.453)" fill="#fafafa"/>
      <path id="Path_1283" data-name="Path 1283" d="M298.905,164.42a23.514,23.514,0,0,1,.227,3.834v.22h-.227c-2.639.066-6.487.11-10.775.11s-8.136-.044-10.775-.11h-.227v-.22a23.514,23.514,0,0,1,.227-3.834,22.518,22.518,0,0,1,.227,3.834l-.227-.227c2.639-.066,6.487-.11,10.775-.11s8.136.044,10.775.11l-.227.227a22.515,22.515,0,0,1,.227-3.834Z" transform="translate(-239.547 -76.967)" fill="#263238"/>
      <path id="Path_1284" data-name="Path 1284" d="M277.177,175.445c-.191,0-.337-2.39-.337-5.336s.147-5.329.337-5.329.33,2.382.33,5.329S277.36,175.445,277.177,175.445Z" transform="translate(-239.472 -77.063)" fill="#263238"/>
      <path id="Path_1285" data-name="Path 1285" d="M306.747,175.722c-.191,0-.337-2.3-.337-5.131s.147-5.131.337-5.131.33,2.3.33,5.131S306.93,175.722,306.747,175.722Z" transform="translate(-247.368 -77.244)" fill="#263238"/>
      <rect id="Rectangle_305" data-name="Rectangle 305" width="52.724" height="52.724" rx="4.6" transform="translate(81.912 64.503)" fill="#e0e0e0"/>
      <rect id="Rectangle_306" data-name="Rectangle 306" width="21.55" height="11.493" rx="2.54" transform="translate(97.459 82.469)" fill="#fb6d5d"/>
      <rect id="Rectangle_307" data-name="Rectangle 307" width="31.035" height="11.024" rx="1.04" transform="translate(92.76 87.453)" fill="#fb6d5d"/>
      <path id="Path_1286" data-name="Path 1286" d="M380.279,164.42a24.191,24.191,0,0,1,.22,3.834v.22h-.227c-2.639.066-6.494.11-10.775.11s-8.144-.044-10.775-.11h-.235v-.22a22.515,22.515,0,0,1,.227-3.834,22.518,22.518,0,0,1,.227,3.834l-.227-.227c2.631-.066,6.487-.11,10.775-.11s8.136.044,10.775.11l-.227.227a22.526,22.526,0,0,1,.242-3.834Z" transform="translate(-261.271 -76.967)" fill="#263238"/>
      <path id="Path_1287" data-name="Path 1287" d="M358.547,175.445c-.183,0-.337-2.39-.337-5.336s.154-5.329.337-5.329.337,2.382.337,5.329S358.738,175.445,358.547,175.445Z" transform="translate(-261.199 -77.063)" fill="#263238"/>
      <path id="Path_1288" data-name="Path 1288" d="M388.12,175.722c-.183,0-.33-2.3-.33-5.131s.147-5.131.33-5.131.337,2.3.337,5.131S388.31,175.722,388.12,175.722Z" transform="translate(-269.097 -77.244)" fill="#263238"/>
      <rect id="Rectangle_308" data-name="Rectangle 308" width="52.724" height="52.724" rx="4.6" transform="translate(141.563 64.503)" fill="#e0e0e0"/>
      <rect id="Rectangle_309" data-name="Rectangle 309" width="21.55" height="11.493" rx="2.54" transform="translate(157.109 82.469)" fill="#455a64"/>
      <rect id="Rectangle_310" data-name="Rectangle 310" width="31.035" height="11.024" rx="1.04" transform="translate(152.411 87.453)" fill="#455a64"/>
      <path id="Path_1289" data-name="Path 1289" d="M461.652,164.42a22.519,22.519,0,0,1,.227,3.834v.22h-.235c-2.631.066-6.487.11-10.768.11s-8.144-.044-10.775-.11h-.235v-.22a22.518,22.518,0,0,1,.227-3.834,23.5,23.5,0,0,1,.227,3.834l-.227-.227c2.631-.066,6.487-.11,10.775-.11s8.136.044,10.768.11l-.227.227A23.513,23.513,0,0,1,461.652,164.42Z" transform="translate(-283 -76.967)" fill="#263238"/>
      <path id="Path_1290" data-name="Path 1290" d="M439.927,175.445c-.183,0-.337-2.39-.337-5.336s.154-5.329.337-5.329.337,2.382.337,5.329S440.11,175.445,439.927,175.445Z" transform="translate(-282.928 -77.063)" fill="#263238"/>
      <path id="Path_1291" data-name="Path 1291" d="M469.5,175.722c-.183,0-.337-2.3-.337-5.131s.154-5.131.337-5.131.337,2.3.337,5.131S469.688,175.722,469.5,175.722Z" transform="translate(-290.823 -77.244)" fill="#263238"/>
      <rect id="Rectangle_311" data-name="Rectangle 311" width="52.724" height="52.724" rx="4.6" transform="translate(22.268 130.839)" fill="#e0e0e0"/>
      <path id="Path_1292" data-name="Path 1292" d="M277.2,254.587l2.456,8.561,16.859.066,2.69-8.195a7.249,7.249,0,0,0-2.9-.337l-.293-9.126a1.246,1.246,0,0,0-1.745-1.114l-1.642.733H283.1l-1.092-.55a1.231,1.231,0,0,0-1.789,1.107v9.008A7.227,7.227,0,0,0,277.2,254.587Z" transform="translate(-239.568 -98.306)" fill="#fb6d5d"/>
      <rect id="Rectangle_312" data-name="Rectangle 312" width="0.887" height="7.792" transform="translate(40.07 164.844) rotate(0.24)" fill="#263238"/>
      <rect id="Rectangle_313" data-name="Rectangle 313" width="0.887" height="3.98" transform="translate(43.185 164.88) rotate(0.24)" fill="#263238"/>
      <rect id="Rectangle_314" data-name="Rectangle 314" width="0.887" height="3.98" transform="translate(52.112 164.917) rotate(0.24)" fill="#263238"/>
      <rect id="Rectangle_315" data-name="Rectangle 315" width="0.887" height="7.792" transform="translate(56.063 164.911) rotate(0.24)" fill="#263238"/>
      <path id="Path_1293" data-name="Path 1293" d="M285.384,258.523c-.066,0-.11-2.932-.1-6.516s.088-6.516.154-6.516.11,2.932.1,6.516S285.45,258.523,285.384,258.523Z" transform="translate(-241.727 -98.613)" fill="#263238"/>
      <path id="Path_1294" data-name="Path 1294" d="M298.364,258.583c-.066,0-.11-2.932-.1-6.516s.088-6.516.154-6.516.11,2.932.1,6.516S298.438,258.583,298.364,258.583Z" transform="translate(-245.193 -98.629)" fill="#263238"/>
      <path id="Path_1295" data-name="Path 1295" d="M297.365,258.436a2.11,2.11,0,0,1-.432.132l-.242.059-.271.1-.322.117-.337.183a3.511,3.511,0,0,0-1.334,1.349,4.215,4.215,0,0,0-.469,2.375v.125h-4.618l-5.05-.037h-.1v-.1a4.639,4.639,0,0,0-.586-2.2,4.911,4.911,0,0,0-1.077-1.341,6.692,6.692,0,0,0-1.312-.828,1.885,1.885,0,0,1,.4.132,4.315,4.315,0,0,1,1,.6,4.882,4.882,0,0,1,1.18,1.371,4.64,4.64,0,0,1,.645,2.25l-.11-.1h9.551l-.11.125a4.4,4.4,0,0,1,.491-2.448,3.569,3.569,0,0,1,1.466-1.371l.352-.169.33-.11.286-.1.242-.044a2.588,2.588,0,0,1,.44-.073Z" transform="translate(-240.639 -102.052)" fill="#263238"/>
      <path id="Path_1296" data-name="Path 1296" d="M283.988,264.389c0,.037-.315.1-.784.308a4.06,4.06,0,0,0-1.539,1.217,4.156,4.156,0,0,0-.733,1.818,7.881,7.881,0,0,1-.088.836,1.782,1.782,0,0,1-.081-.858,3.783,3.783,0,0,1,.733-1.942,3.738,3.738,0,0,1,1.679-1.231A1.686,1.686,0,0,1,283.988,264.389Z" transform="translate(-240.514 -103.658)" fill="#263238"/>
      <path id="Path_1297" data-name="Path 1297" d="M301.909,268.722c-.037,0-.044-.359-.183-.916a4.787,4.787,0,0,0-1-1.95,4.853,4.853,0,0,0-1.766-1.283c-.528-.22-.88-.279-.872-.315a1.956,1.956,0,0,1,.931.161,4.325,4.325,0,0,1,2.873,3.35A1.972,1.972,0,0,1,301.909,268.722Z" transform="translate(-245.146 -103.623)" fill="#263238"/>
      <rect id="Rectangle_316" data-name="Rectangle 316" width="52.724" height="52.724" rx="4.6" transform="translate(81.912 130.839)" fill="#e0e0e0"/>
      <rect id="Rectangle_317" data-name="Rectangle 317" width="52.724" height="52.724" rx="4.6" transform="translate(141.563 130.839)" fill="#fb6d5d"/>
      <rect id="Rectangle_318" data-name="Rectangle 318" width="52.724" height="52.724" rx="4.6" transform="translate(22.268 197.175)" fill="#fb6d5d"/>
      <rect id="Rectangle_319" data-name="Rectangle 319" width="52.724" height="52.724" rx="4.6" transform="translate(81.912 197.175)" fill="#e0e0e0"/>
      <rect id="Rectangle_320" data-name="Rectangle 320" width="52.724" height="52.724" rx="4.6" transform="translate(141.563 197.175)" fill="#e0e0e0"/>
      <circle id="Ellipse_36" data-name="Ellipse 36" cx="1.891" cy="1.891" r="1.891" transform="translate(99.797 263.518)" fill="#263238"/>
      <path id="Path_1298" data-name="Path 1298" d="M376.2,406.508a1.891,1.891,0,1,1-.551-1.342A1.891,1.891,0,0,1,376.2,406.508Z" transform="translate(-264.993 -141.1)" fill="#263238"/>
      <path id="Path_1299" data-name="Path 1299" d="M386.617,406.508a1.9,1.9,0,1,1-1.891-1.9A1.9,1.9,0,0,1,386.617,406.508Z" transform="translate(-267.77 -141.1)" fill="#263238"/>
      <path id="Path_1300" data-name="Path 1300" d="M269.1,105.333h-9.646a.366.366,0,0,1,0-.733H269.1a.366.366,0,0,1,0,.733Z" transform="translate(-234.733 -60.994)" fill="#263238"/>
      <path id="Path_1301" data-name="Path 1301" d="M262.986,107.3a.381.381,0,0,1-.213-.066l-4.332-3.086a.359.359,0,0,1-.161-.3.4.4,0,0,1,.161-.3l4.464-3.042a.366.366,0,1,1,.41.6l-4.024,2.749,3.914,2.778a.367.367,0,0,1-.213.667Z" transform="translate(-234.516 -59.877)" fill="#263238"/>
      <path id="Path_1302" data-name="Path 1302" d="M481.663,105.383h-9.646a.366.366,0,0,1,0-.733h9.646a.366.366,0,0,1,0,.733Z" transform="translate(-291.488 -61.008)" fill="#263238"/>
      <path id="Path_1303" data-name="Path 1303" d="M479.866,107.31a.381.381,0,0,1-.308-.161.374.374,0,0,1,.1-.506l4.031-2.756-3.907-2.771a.374.374,0,0,1-.088-.513.366.366,0,0,1,.513-.088l4.332,3.086a.33.33,0,0,1,.154.3.381.381,0,0,1-.154.3l-4.464,3.042a.374.374,0,0,1-.205.066Z" transform="translate(-293.584 -59.885)" fill="#263238"/>
      <rect id="Rectangle_321" data-name="Rectangle 321" width="21.748" height="14.528" rx="2.39" transform="translate(39.178 218.154) rotate(-0.1)" fill="#e0e0e0"/>
      <path id="Path_1304" data-name="Path 1304" d="M295.977,342.923a1.341,1.341,0,0,1,0-.279q0-.322.044-.792a17.793,17.793,0,0,0,0-2.932,6.545,6.545,0,0,0-1.664-3.841,4.317,4.317,0,0,0-2.148-1.195,12.032,12.032,0,0,0-2.7-.227,7.824,7.824,0,0,0-4.926,1.407,4.764,4.764,0,0,0-1.349,1.8,6.809,6.809,0,0,0-.506,1.913,14.5,14.5,0,0,0,0,2.932q.044.484.066.792v.279a1.129,1.129,0,0,1-.059-.271c0-.176-.066-.447-.11-.784a13.194,13.194,0,0,1-.088-2.932,7.008,7.008,0,0,1,.5-1.979,4.882,4.882,0,0,1,1.385-1.891,6.069,6.069,0,0,1,2.324-1.151,11.4,11.4,0,0,1,2.756-.33,12.278,12.278,0,0,1,2.763.235,4.523,4.523,0,0,1,2.258,1.275,6.656,6.656,0,0,1,1.679,3.988,15.081,15.081,0,0,1-.059,2.932,5,5,0,0,1-.088.784A1.773,1.773,0,0,1,295.977,342.923Z" transform="translate(-240.981 -122.095)" fill="#263238"/>
      <rect id="Rectangle_322" data-name="Rectangle 322" width="21.748" height="14.528" rx="2.39" transform="translate(36.429 218.085) rotate(-0.1)" fill="#fafafa"/>
      <path id="Path_1305" data-name="Path 1305" d="M295.511,357.025a2.331,2.331,0,0,0,.682-.169,1.672,1.672,0,0,0,.652-.513,1.693,1.693,0,0,0,.367-1.056c0-1.774,0-4.317-.051-7.454v-3.768a1.656,1.656,0,0,0-.6-1.1,1.752,1.752,0,0,0-1.261-.359H277.26a1.627,1.627,0,0,0-1.385.784,1.532,1.532,0,0,0-.235.777c0,.293,0,.579,0,.872v9.983a2.2,2.2,0,0,0,.081.733,1.745,1.745,0,0,0,.352.608,1.627,1.627,0,0,0,1.253.535h15.488l-7.455.059H277.3a1.862,1.862,0,0,1-1.429-.6,1.8,1.8,0,0,1-.4-.7,2.315,2.315,0,0,1-.1-.8v-10.87a1.825,1.825,0,0,1,.271-.894,1.884,1.884,0,0,1,1.605-.9h18.024a1.95,1.95,0,0,1,1.393.418,1.825,1.825,0,0,1,.667,1.239V355.1a1.8,1.8,0,0,1-.4,1.107,1.774,1.774,0,0,1-.7.513A1.385,1.385,0,0,1,295.511,357.025Z" transform="translate(-239.078 -124.433)" fill="#263238"/>
      <rect id="Rectangle_323" data-name="Rectangle 323" width="21.748" height="14.528" rx="2.39" transform="translate(98.345 218.153) rotate(-0.1)" fill="#fb6d5d"/>
      <path id="Path_1306" data-name="Path 1306" d="M376.7,342.923a1.345,1.345,0,0,1,0-.279q0-.322.044-.792a17.8,17.8,0,0,0,0-2.932,6.546,6.546,0,0,0-1.664-3.841,4.317,4.317,0,0,0-2.148-1.195,12.036,12.036,0,0,0-2.7-.227,7.824,7.824,0,0,0-4.926,1.407,4.764,4.764,0,0,0-1.349,1.8,6.809,6.809,0,0,0-.506,1.913,14.492,14.492,0,0,0,0,2.932q.044.484.066.792v.279a1.131,1.131,0,0,1-.059-.271c0-.176-.066-.447-.11-.784a13.192,13.192,0,0,1-.088-2.932,7.007,7.007,0,0,1,.5-1.979,4.882,4.882,0,0,1,1.385-1.891,6.069,6.069,0,0,1,2.324-1.151,11.4,11.4,0,0,1,2.756-.33,12.279,12.279,0,0,1,2.763.235,4.523,4.523,0,0,1,2.258,1.275,6.656,6.656,0,0,1,1.679,3.988,15.081,15.081,0,0,1-.059,2.932,4.987,4.987,0,0,1-.088.784,1.094,1.094,0,0,1-.073.271Z" transform="translate(-262.534 -122.095)" fill="#263238"/>
      <rect id="Rectangle_324" data-name="Rectangle 324" width="21.748" height="14.528" rx="2.39" transform="translate(95.596 218.084) rotate(-0.1)" fill="#fb6d5d"/>
      <path id="Path_1307" data-name="Path 1307" d="M376.252,357.025a2.331,2.331,0,0,0,.682-.169,1.672,1.672,0,0,0,.652-.513,1.693,1.693,0,0,0,.367-1.056c0-1.774,0-4.317-.051-7.454v-3.768a1.656,1.656,0,0,0-.6-1.1,1.752,1.752,0,0,0-1.261-.359H358a1.627,1.627,0,0,0-1.385.784,1.532,1.532,0,0,0-.235.777v10.856a2.2,2.2,0,0,0,.081.733,1.744,1.744,0,0,0,.352.608,1.634,1.634,0,0,0,1.261.535H373.54l-7.455.059h-8a1.862,1.862,0,0,1-1.429-.6,1.8,1.8,0,0,1-.4-.7,2.309,2.309,0,0,1-.088-.8v-10.87a1.826,1.826,0,0,1,.271-.894,1.884,1.884,0,0,1,1.605-.9h18.024a1.949,1.949,0,0,1,1.393.418,1.862,1.862,0,0,1,.674,1.239c0,.462,0,.887,0,1.319V355.1a1.767,1.767,0,0,1-1.1,1.62A1.385,1.385,0,0,1,376.252,357.025Z" transform="translate(-260.652 -124.433)" fill="#263238"/>
      <rect id="Rectangle_325" data-name="Rectangle 325" width="21.748" height="14.528" rx="2.39" transform="translate(159.858 218.148) rotate(-0.1)" fill="#455a64"/>
      <path id="Path_1308" data-name="Path 1308" d="M460.617,342.923a1.336,1.336,0,0,1,0-.279q0-.322.044-.792a17.786,17.786,0,0,0,0-2.932A6.6,6.6,0,0,0,459,335.08a4.317,4.317,0,0,0-2.148-1.195,12.071,12.071,0,0,0-2.7-.227,7.845,7.845,0,0,0-4.933,1.407,4.823,4.823,0,0,0-1.341,1.8,6.808,6.808,0,0,0-.506,1.913,14.492,14.492,0,0,0,0,2.932q.044.484.066.792a1.146,1.146,0,0,1,0,.279,1.125,1.125,0,0,1-.059-.271c0-.176-.066-.447-.11-.784a13.194,13.194,0,0,1-.088-2.932,6.767,6.767,0,0,1,.5-1.979,4.809,4.809,0,0,1,1.385-1.891,6.07,6.07,0,0,1,2.324-1.151,11.312,11.312,0,0,1,2.756-.33,12.275,12.275,0,0,1,2.763.234,4.552,4.552,0,0,1,2.258,1.275,6.6,6.6,0,0,1,1.671,3.988,14.608,14.608,0,0,1-.051,2.932,4.992,4.992,0,0,1-.088.784A1.766,1.766,0,0,1,460.617,342.923Z" transform="translate(-284.941 -122.095)" fill="#263238"/>
      <rect id="Rectangle_326" data-name="Rectangle 326" width="21.748" height="14.528" rx="2.39" transform="translate(157.109 218.079) rotate(-0.1)" fill="#455a64"/>
      <path id="Path_1309" data-name="Path 1309" d="M460.165,357.025a2.331,2.331,0,0,0,.682-.169,1.672,1.672,0,0,0,.652-.513,1.693,1.693,0,0,0,.367-1.056c0-1.774,0-4.317-.051-7.454v-3.768a1.642,1.642,0,0,0-.608-1.1,1.723,1.723,0,0,0-1.253-.359H441.913a1.627,1.627,0,0,0-1.385.784,1.532,1.532,0,0,0-.235.777v10.856a2.2,2.2,0,0,0,.081.733,1.644,1.644,0,0,0,1.605,1.143h15.451l-7.447.059h-8a1.855,1.855,0,0,1-1.422-.6,1.906,1.906,0,0,1-.41-.7,2.5,2.5,0,0,1-.088-.8v-10.87a1.825,1.825,0,0,1,.271-.894,1.876,1.876,0,0,1,1.6-.9H459.96a1.949,1.949,0,0,1,1.393.418,1.825,1.825,0,0,1,.667,1.239c0,.462,0,.887,0,1.319V355.1a1.8,1.8,0,0,1-.4,1.107,1.774,1.774,0,0,1-.7.513,1.385,1.385,0,0,1-.755.308Z" transform="translate(-283.052 -124.433)" fill="#263238"/>
      <path id="Path_1310" data-name="Path 1310" d="M360,256.559l2.456,8.591,16.859.073L381.99,257a7.162,7.162,0,0,0-2.9-.33l-.279-9.111a1.253,1.253,0,0,0-1.745-1.114l-1.642.733-9.529-.044-1.092-.55a1.231,1.231,0,0,0-1.789,1.107v9.016A7.118,7.118,0,0,0,360,256.559Z" transform="translate(-261.677 -98.841)" fill="#455a64"/>
      <rect id="Rectangle_327" data-name="Rectangle 327" width="0.887" height="7.792" transform="translate(100.762 166.286) rotate(0.24)" fill="#263238"/>
      <rect id="Rectangle_328" data-name="Rectangle 328" width="0.887" height="3.98" transform="translate(103.892 166.292) rotate(0.24)" fill="#263238"/>
      <rect id="Rectangle_329" data-name="Rectangle 329" width="0.887" height="3.98" transform="translate(112.805 166.351) rotate(0.24)" fill="#263238"/>
      <rect id="Rectangle_330" data-name="Rectangle 330" width="0.887" height="7.792" transform="translate(116.741 166.375) rotate(0.24)" fill="#263238"/>
      <path id="Path_1311" data-name="Path 1311" d="M368.184,260.493c-.066,0-.11-2.932-.1-6.516s.081-6.516.154-6.516.1,2.932.088,6.516S368.25,260.493,368.184,260.493Z" transform="translate(-263.836 -99.139)" fill="#263238"/>
      <path id="Path_1312" data-name="Path 1312" d="M381.164,260.543c-.066,0-.11-2.932-.1-6.516s.081-6.516.154-6.516.11,2.932.088,6.516S381.23,260.543,381.164,260.543Z" transform="translate(-267.301 -99.153)" fill="#263238"/>
      <path id="Path_1313" data-name="Path 1313" d="M380.157,260.411a3.712,3.712,0,0,1-.44.125l-.235.059-.279.11-.315.117-.337.183a3.438,3.438,0,0,0-1.334,1.341,4.237,4.237,0,0,0-.469,2.382v.117h-9.771v-.1a4.574,4.574,0,0,0-.579-2.2,4.867,4.867,0,0,0-1.107-1.356,6.691,6.691,0,0,0-1.312-.828,1.948,1.948,0,0,1,.388.125,4.449,4.449,0,0,1,1,.6,4.919,4.919,0,0,1,1.18,1.378,4.721,4.721,0,0,1,.645,2.25l-.11-.11h9.551l-.11.125a4.4,4.4,0,0,1,.528-2.492,3.555,3.555,0,0,1,1.429-1.371l.359-.176.33-.11.286-.088.242-.044A1.912,1.912,0,0,1,380.157,260.411Z" transform="translate(-262.739 -102.584)" fill="#263238"/>
      <path id="Path_1314" data-name="Path 1314" d="M366.808,266.349c0,.044-.315.1-.784.315a3.936,3.936,0,0,0-2.3,3.035,8.208,8.208,0,0,1-.088.836,1.833,1.833,0,0,1-.081-.858,3.665,3.665,0,0,1,.733-1.942,3.76,3.76,0,0,1,1.671-1.231,1.789,1.789,0,0,1,.85-.154Z" transform="translate(-262.62 -104.182)" fill="#263238"/>
      <path id="Path_1315" data-name="Path 1315" d="M384.706,270.682c-.037,0-.044-.359-.183-.909a4.743,4.743,0,0,0-1-1.95,4.817,4.817,0,0,0-1.774-1.283c-.52-.22-.88-.286-.872-.323a1.979,1.979,0,0,1,.938.161,4.354,4.354,0,0,1,2.873,3.357,1.935,1.935,0,0,1,.015.946Z" transform="translate(-267.252 -104.146)" fill="#263238"/>
      <path id="Path_1316" data-name="Path 1316" d="M441.64,253.488l2.463,8.569,16.859.073,2.69-8.2a7.249,7.249,0,0,0-2.9-.337l-.271-9.1a1.253,1.253,0,0,0-1.752-1.114l-1.642.733-9.492-.037-1.092-.55a1.231,1.231,0,0,0-1.8,1.107v9.009A7.227,7.227,0,0,0,441.64,253.488Z" transform="translate(-283.475 -98.02)" fill="#fafafa"/>
      <rect id="Rectangle_331" data-name="Rectangle 331" width="0.887" height="7.792" transform="translate(160.605 164.03) rotate(0.24)" fill="#263238"/>
      <rect id="Rectangle_332" data-name="Rectangle 332" width="0.887" height="3.98" transform="translate(163.735 164.043) rotate(0.24)" fill="#263238"/>
      <rect id="Rectangle_333" data-name="Rectangle 333" width="0.887" height="3.98" transform="translate(172.662 164.081) rotate(0.24)" fill="#263238"/>
      <rect id="Rectangle_334" data-name="Rectangle 334" width="0.887" height="7.792" transform="translate(176.576 164.126) rotate(0.24)" fill="#263238"/>
      <path id="Path_1317" data-name="Path 1317" d="M449.827,257.415c-.066,0-.1-2.932-.088-6.516s.081-6.509.147-6.509.11,2.932.1,6.516S449.929,257.415,449.827,257.415Z" transform="translate(-285.637 -98.319)" fill="#263238"/>
      <path id="Path_1318" data-name="Path 1318" d="M462.814,257.473c-.073,0-.11-2.932-.1-6.516s.081-6.516.147-6.516.11,2.932.1,6.516S462.88,257.473,462.814,257.473Z" transform="translate(-289.102 -98.333)" fill="#263238"/>
      <path id="Path_1319" data-name="Path 1319" d="M461.792,257.334a1.923,1.923,0,0,1-.432.132l-.242.059-.271.1-.323.117-.337.183a3.511,3.511,0,0,0-1.334,1.349,4.222,4.222,0,0,0-.469,2.375v.125h-9.778v-.1a4.559,4.559,0,0,0-.586-2.2,4.913,4.913,0,0,0-1.107-1.363,6.165,6.165,0,0,0-1.312-.821,1.136,1.136,0,0,1,.4.125,4.32,4.32,0,0,1,1,.6,4.985,4.985,0,0,1,1.18,1.371,4.691,4.691,0,0,1,.645,2.25l-.11-.1h9.551l-.11.125a4.354,4.354,0,0,1,.535-2.5,3.445,3.445,0,0,1,1.429-1.363l.352-.176.33-.11.286-.088.249-.044a3.385,3.385,0,0,1,.462-.044Z" transform="translate(-284.532 -101.764)" fill="#263238"/>
      <path id="Path_1320" data-name="Path 1320" d="M448.416,263.278c0,.037-.315.1-.777.308a3.929,3.929,0,0,0-2.3,3.035c-.081.506-.051.836-.088.836a1.605,1.605,0,0,1-.088-.85,3.738,3.738,0,0,1,.733-1.95,3.614,3.614,0,0,1,1.671-1.224A1.649,1.649,0,0,1,448.416,263.278Z" transform="translate(-284.41 -103.361)" fill="#263238"/>
      <path id="Path_1321" data-name="Path 1321" d="M466.349,267.612c-.037,0-.044-.359-.183-.916a4.655,4.655,0,0,0-2.763-3.225c-.528-.227-.88-.286-.872-.322a1.957,1.957,0,0,1,.931.161,4.353,4.353,0,0,1,1.9,1.283,4.4,4.4,0,0,1,.975,2.067A1.972,1.972,0,0,1,466.349,267.612Z" transform="translate(-289.053 -103.327)" fill="#263238"/>
      <path id="Path_1322" data-name="Path 1322" d="M340,103.46a2.888,2.888,0,0,1,3.071-2.932,2.932,2.932,0,0,1,2.4,1.055l-1,.909a1.642,1.642,0,0,0-1.312-.652,1.6,1.6,0,0,0,0,3.189,1.664,1.664,0,0,0,1.312-.652l1,.909a2.932,2.932,0,0,1-2.4,1.048A2.888,2.888,0,0,1,340,103.46Z" transform="translate(-256.336 -59.905)" fill="#263238"/>
      <path id="Path_1323" data-name="Path 1323" d="M351.813,105.221h-2.36l-.44,1.085H347.4l2.47-5.585h1.554l2.47,5.585h-1.657Zm-.462-1.165-.733-1.781-.733,1.781Z" transform="translate(-258.312 -59.958)" fill="#263238"/>
      <path id="Path_1324" data-name="Path 1324" d="M357.485,101.973H355.77V100.72h5v1.253h-1.708v4.332h-1.576Z" transform="translate(-260.547 -59.958)" fill="#263238"/>
      <path id="Path_1325" data-name="Path 1325" d="M366.513,105.221h-2.36l-.44,1.085H362.1l2.463-5.585h1.554l2.478,5.585h-1.642Zm-.462-1.165-.733-1.781-.733,1.781Z" transform="translate(-262.237 -59.958)" fill="#263238"/>
      <path id="Path_1326" data-name="Path 1326" d="M371.57,100.72h1.576v4.332h2.661v1.253H371.57Z" transform="translate(-264.766 -59.958)" fill="#263238"/>
      <path id="Path_1327" data-name="Path 1327" d="M377.688,103.334a3.108,3.108,0,1,1,3.1,2.932,2.932,2.932,0,0,1-3.1-2.932Zm4.611,0a1.51,1.51,0,1,0-1.51,1.6,1.466,1.466,0,0,0,1.525-1.6Z" transform="translate(-266.398 -59.779)" fill="#263238"/>
      <path id="Path_1328" data-name="Path 1328" d="M390.831,103.352h1.393v2.309a4.112,4.112,0,0,1-2.346.733,2.932,2.932,0,1,1,.037-5.805,3.064,3.064,0,0,1,2.441,1.019l-1,.909A1.767,1.767,0,0,0,390,101.9a1.6,1.6,0,0,0,0,3.189,2.052,2.052,0,0,0,.858-.183Z" transform="translate(-268.766 -59.915)" fill="#263238"/>
      <path id="Path_1329" data-name="Path 1329" d="M395.6,103.871v-3.1h1.576v3.049c0,.96.4,1.341,1.063,1.341s1.048-.381,1.048-1.341V100.77h1.561v3.1a2.624,2.624,0,1,1-5.248,0Z" transform="translate(-271.182 -59.972)" fill="#263238"/>
      <path id="Path_1330" data-name="Path 1330" d="M408.7,105.089v1.217H404.21V100.72h4.4v1.224h-2.822v.938h2.485v1.18h-2.485v1.026Z" transform="translate(-273.481 -59.958)" fill="#263238"/>
      <path id="Path_1331" data-name="Path 1331" d="M394.305,114.261c0,.1-13.45.191-30.053.191s-30.053-.088-30.053-.191,13.45-.191,30.053-.191S394.305,114.151,394.305,114.261Z" transform="translate(-254.788 -63.523)" fill="#e0e0e0"/>
      <path id="Path_1332" data-name="Path 1332" d="M381.482,117.581c0,.1-4.4.191-9.866.191s-9.866-.088-9.866-.191,4.4-.191,9.866-.191S381.482,117.471,381.482,117.581Z" transform="translate(-262.144 -64.409)" fill="#e0e0e0"/>
    </g>
    <g id="freepik--Character--inject-6" transform="translate(94.158 83.788)">
      <path id="Path_1333" data-name="Path 1333" d="M135.88,434.645l.88,27.56,34.348-.579c-.257-3.276-19.564-9.426-19.564-9.426l-.139-18.53Z" transform="translate(-124.432 -187.537)" fill="#fb6d5d"/>
      <g id="Group_1894" data-name="Group 1894" transform="translate(11.448 246.133)" opacity="0.3">
        <path id="Path_1334" data-name="Path 1334" d="M135.88,434.645l.88,27.56,34.348-.579c-.257-3.276-19.564-9.426-19.564-9.426l-.139-18.53Z" transform="translate(-135.88 -433.67)"/>
      </g>
      <path id="Path_1335" data-name="Path 1335" d="M144.307,456.986a1.393,1.393,0,0,0-.938,1.613,1.356,1.356,0,0,0,1.6.953,1.466,1.466,0,0,0,.982-1.723,1.393,1.393,0,0,0-1.767-.8" transform="translate(-126.423 -193.752)" fill="#263238"/>
      <path id="Path_1336" data-name="Path 1336" d="M137.048,471.555l-.088-2.785,33.051.484s1.539.645,1.385,1.723Z" transform="translate(-124.72 -196.909)" fill="#263238"/>
      <path id="Path_1337" data-name="Path 1337" d="M156.87,459.279c0,.169-.843.264-1.657.814s-1.239,1.268-1.4,1.2.081-1.034,1.078-1.686S156.87,459.125,156.87,459.279Z" transform="translate(-129.208 -194.337)" fill="#263238"/>
      <path id="Path_1338" data-name="Path 1338" d="M163.325,461.336c.037.161-.682.462-1.239,1.18s-.733,1.466-.88,1.466-.286-.953.425-1.833S163.318,461.175,163.325,461.336Z" transform="translate(-131.162 -194.907)" fill="#263238"/>
      <path id="Path_1339" data-name="Path 1339" d="M166.85,465.938c-.154.044-.4-.792,0-1.723s1.187-1.3,1.261-1.165-.4.638-.733,1.407S167.012,465.938,166.85,465.938Z" transform="translate(-132.643 -195.374)" fill="#263238"/>
      <path id="Path_1340" data-name="Path 1340" d="M156.19,452.844c-.073.154-.843-.059-1.788,0s-1.686.4-1.774.257.608-.733,1.73-.836S156.263,452.712,156.19,452.844Z" transform="translate(-128.901 -192.498)" fill="#263238"/>
      <path id="Path_1341" data-name="Path 1341" d="M156.3,446.432a3.211,3.211,0,0,1-1.723,0,7.682,7.682,0,0,1-1.81-.52,9.124,9.124,0,0,1-1-.506,2.529,2.529,0,0,1-.528-.4.733.733,0,0,1-.088-.894.909.909,0,0,1,.733-.4,2.093,2.093,0,0,1,.645.081,5.8,5.8,0,0,1,1.078.345,6.055,6.055,0,0,1,1.605,1.019c.814.733,1.092,1.341,1.034,1.378s-.469-.462-1.29-1.056a6.384,6.384,0,0,0-2.543-1.129c-.367-.088-.674-.088-.733.073s-.037.088,0,.2a1.783,1.783,0,0,0,.388.286,10.457,10.457,0,0,0,.916.506,9.885,9.885,0,0,0,1.679.608A12.415,12.415,0,0,1,156.3,446.432Z" transform="translate(-128.481 -190.22)" fill="#263238"/>
      <path id="Path_1342" data-name="Path 1342" d="M173.65,116.541A12.783,12.783,0,0,0,161.365,104.3H160.7c-7.147.147-10.995,6.3-10.68,13.443l-.5,30.573c5.981,3.907,11.728,6.817,16.448,4.97l.733-12.717s6.9-.806,7.249-7.66C174.127,129.537,173.914,122.691,173.65,116.541Z" transform="translate(-128.074 -99.592)" fill="#ffbe9d"/>
      <path id="Path_1343" data-name="Path 1343" d="M169.78,152.641a15.987,15.987,0,0,1-8.84-2.881s1.862,5.065,8.73,4.713Z" transform="translate(-131.123 -111.73)" fill="#eb996e"/>
      <path id="Path_1344" data-name="Path 1344" d="M178.972,127.594a.982.982,0,0,1-.982.953.938.938,0,0,1-.99-.894.975.975,0,0,1,.982-.953.931.931,0,0,1,.99.894Z" transform="translate(-135.411 -105.573)" fill="#263238"/>
      <path id="Path_1345" data-name="Path 1345" d="M178.842,125.038c-.132.125-.85-.454-1.906-.491s-1.847.462-1.957.33.081-.286.425-.52a2.668,2.668,0,0,1,1.576-.418,2.6,2.6,0,0,1,1.5.55C178.8,124.752,178.9,124.987,178.842,125.038Z" transform="translate(-134.863 -104.835)" fill="#263238"/>
      <path id="Path_1346" data-name="Path 1346" d="M165.557,127.587a.99.99,0,0,1-.982.953.931.931,0,0,1-.975-.887.982.982,0,0,1,.975-.953A.946.946,0,0,1,165.557,127.587Z" transform="translate(-131.833 -105.573)" fill="#263238"/>
      <path id="Path_1347" data-name="Path 1347" d="M164.694,124.768c-.125.125-.843-.454-1.9-.491s-1.847.462-1.957.33.081-.286.425-.52a2.661,2.661,0,0,1,1.569-.418,2.558,2.558,0,0,1,1.51.55C164.658,124.475,164.76,124.717,164.694,124.768Z" transform="translate(-131.087 -104.763)" fill="#263238"/>
      <path id="Path_1348" data-name="Path 1348" d="M170.857,132.8a7.218,7.218,0,0,1,1.73-.242c.264,0,.52-.059.579-.242a1.466,1.466,0,0,0-.154-.806c-.227-.66-.462-1.356-.733-2.082A35.31,35.31,0,0,1,170.7,124a34.983,34.983,0,0,1,2.016,5.285l.689,2.089a1.576,1.576,0,0,1,.1,1.063.689.689,0,0,1-.454.381,2.2,2.2,0,0,1-.462.044A7.05,7.05,0,0,1,170.857,132.8Z" transform="translate(-133.724 -104.852)" fill="#263238"/>
      <path id="Path_1349" data-name="Path 1349" d="M159.548,121.649c.11-.286,1.158-.147,2.4-.293s2.243-.476,2.4-.22c.073.125-.1.388-.506.667a4,4,0,0,1-1.781.623,4.12,4.12,0,0,1-1.876-.227C159.731,122.015,159.5,121.788,159.548,121.649Z" transform="translate(-130.75 -104.062)" fill="#263238"/>
      <path id="Path_1350" data-name="Path 1350" d="M178.389,120.019c-.235.227-1.121-.051-2.2-.1s-1.994.081-2.2-.176c-.088-.125.066-.359.476-.572a3.57,3.57,0,0,1,1.8-.323,3.423,3.423,0,0,1,1.737.55C178.389,119.689,178.5,119.909,178.389,120.019Z" transform="translate(-134.601 -103.473)" fill="#263238"/>
      <path id="Path_1351" data-name="Path 1351" d="M148.994,129.408c-.11-.059-4.655-1.576-4.684,3.123s4.684,3.753,4.7,3.614S148.994,129.408,148.994,129.408Z" transform="translate(-126.682 -106.222)" fill="#ffbe9d"/>
      <path id="Path_1352" data-name="Path 1352" d="M148.018,134.912s-.088.051-.227.117a.813.813,0,0,1-.608,0,2.023,2.023,0,0,1-.924-1.818,2.727,2.727,0,0,1,.235-1.173.938.938,0,0,1,.623-.623.4.4,0,0,1,.476.227c.066.132.037.227.059.235s.1-.081.066-.271a.557.557,0,0,0-.183-.3.63.63,0,0,0-.454-.117,1.151,1.151,0,0,0-.858.733,2.815,2.815,0,0,0-.293,1.312,2.126,2.126,0,0,0,1.18,2.03.872.872,0,0,0,.733-.117C148,135.022,148.032,134.919,148.018,134.912Z" transform="translate(-127.114 -106.77)" fill="#eb996e"/>
      <path id="Path_1353" data-name="Path 1353" d="M161.051,131.008a.125.125,0,0,1-.132-.11.117.117,0,0,1,.1-.139.11.11,0,0,1,.132.1.117.117,0,0,1-.1.147Z" transform="translate(-131.117 -106.656)" fill="#eb996e"/>
      <path id="Path_1354" data-name="Path 1354" d="M163.821,130.476a.134.134,0,0,1-.132-.125c-.007-.081,0-.154.088-.161a.146.146,0,0,1,.044.286Z" transform="translate(-131.856 -106.505)" fill="#eb996e"/>
      <path id="Path_1355" data-name="Path 1355" d="M165.678,130.471c-.066,0-.125-.073-.139-.183s.037-.191.1-.2.125.073.132.176S165.737,130.464,165.678,130.471Z" transform="translate(-132.35 -106.478)" fill="#eb996e"/>
      <path id="Path_1356" data-name="Path 1356" d="M162.347,132.824c-.066,0-.117-.044-.117-.081s.059-.073.125-.073.11.037.11.081S162.413,132.824,162.347,132.824Z" transform="translate(-131.467 -107.167)" fill="#eb996e"/>
      <path id="Path_1357" data-name="Path 1357" d="M164.884,132.294a.132.132,0,0,1-.125-.125.118.118,0,1,1,.235-.015A.132.132,0,0,1,164.884,132.294Z" transform="translate(-132.142 -106.996)" fill="#eb996e"/>
      <path id="Path_1358" data-name="Path 1358" d="M178.048,131.227a.131.131,0,0,1-.044-.257.132.132,0,0,1,.044.257Z" transform="translate(-135.653 -106.713)" fill="#eb996e"/>
      <path id="Path_1359" data-name="Path 1359" d="M179.954,131.113a.125.125,0,0,1-.125-.139.139.139,0,0,1,.1-.154.132.132,0,0,1,.125.139C180.049,131.04,180.005,131.113,179.954,131.113Z" transform="translate(-136.166 -106.673)" fill="#eb996e"/>
      <path id="Path_1360" data-name="Path 1360" d="M176.394,131.234a.11.11,0,0,1-.125-.088.1.1,0,0,1,.1-.117.11.11,0,0,1,.132.081.117.117,0,0,1-.1.125Z" transform="translate(-135.216 -106.728)" fill="#eb996e"/>
      <path id="Path_1361" data-name="Path 1361" d="M177.7,133.137a.125.125,0,0,1-.154-.081.117.117,0,0,1,.059-.169.134.134,0,0,1,.1.249Z" transform="translate(-135.552 -107.224)" fill="#eb996e"/>
      <path id="Path_1362" data-name="Path 1362" d="M179.346,132.932a.1.1,0,1,1,.139-.059.1.1,0,0,1-.139.059Z" transform="translate(-136.019 -107.187)" fill="#eb996e"/>
      <path id="Path_1363" data-name="Path 1363" d="M171.544,140.642c-.051.1-.9-.337-2.038-.535s-2.082-.1-2.1-.213a4.332,4.332,0,0,1,4.134.733Z" transform="translate(-132.85 -109.034)" fill="#263238"/>
      <path id="Path_1364" data-name="Path 1364" d="M176.933,105.539a2.829,2.829,0,0,1-.806-.388,1.766,1.766,0,0,1-.374-1.371,1.466,1.466,0,0,0-.506-1.3c-.579-.323-1.334.227-1.95,0s-.682-1.092-1-1.679a1.811,1.811,0,0,0-2.236-.733c-.542.242-1.129.77-1.642.462s-.381-.938-.579-1.422a1.275,1.275,0,0,0-1.767-.586c-.454.271-.88.865-1.363.645s-.388-.887-.77-1.173a.843.843,0,0,0-1.041.161,5.672,5.672,0,0,0-.682.924,1.173,1.173,0,0,1-.946.557c-.418,0-.733-.41-1.034-.682a3.369,3.369,0,0,0-3.987.088,6.868,6.868,0,0,0-1.825,2.016,7.953,7.953,0,0,0-3.826.1,6.707,6.707,0,0,0-4.86,6.48,40.066,40.066,0,0,0,.872,3.995,30.689,30.689,0,0,1,.081,4.86c0,1.62.1,3.108,1.165,4.332l1.4.359a3.453,3.453,0,0,0,.33.476,1.466,1.466,0,0,0,1.847.484,1.847,1.847,0,0,0,.586-1.063c.858-2.932,1.715-6.1,1.319-9.089a4.017,4.017,0,0,1,1.972-4.1,6.311,6.311,0,0,1,1.407-.616,3.943,3.943,0,0,1,1.466,0,4.031,4.031,0,0,1,2.551,1.664c.418.6.733,1.385,1.466,1.569s1.5-.41,2.287-.41a3.391,3.391,0,0,1,2.067,1.224,2.408,2.408,0,0,0,2.2.887c.806-.242,1.114-1,1.811-1.231a2.2,2.2,0,0,1,1.532.2,6.781,6.781,0,0,0,1.466.579,1.349,1.349,0,0,0,1.407-.476c.315-.506.117-1.239.491-1.708s.938-.432,1.466-.638a1.832,1.832,0,0,0,.044-3.35Z" transform="translate(-127.061 -97.877)" fill="#263238"/>
      <path id="Path_1365" data-name="Path 1365" d="M146.91,118.8c0-.059.476,0,1.217-.1a6.67,6.67,0,0,0,4.808-2.859,10.993,10.993,0,0,1,.674-1.019,2.485,2.485,0,0,1-.447,1.165,6.032,6.032,0,0,1-5.021,2.983,2.507,2.507,0,0,1-1.231-.169Z" transform="translate(-127.377 -102.401)" fill="#455a64"/>
      <path id="Path_1366" data-name="Path 1366" d="M146.54,121.7a10.643,10.643,0,0,0,3.665-.55,10.863,10.863,0,0,0,3.057-2.06,2.536,2.536,0,0,1-.652.916,6.494,6.494,0,0,1-2.265,1.466,6.428,6.428,0,0,1-2.734.484,2.36,2.36,0,0,1-1.07-.257Z" transform="translate(-127.278 -103.541)" fill="#455a64"/>
      <path id="Path_1367" data-name="Path 1367" d="M136.575,250.12l-8.525,26.864,5.431,121.647,16.617-2.016,2.177-57.862,8.964-64.723.9-22.906Z" transform="translate(-122.341 -138.527)" fill="#263238"/>
      <path id="Path_1368" data-name="Path 1368" d="M141.21,412.94l-16.28,22.268,27.421,20.685c1.818-2.741-9.61-19.476-9.61-19.476l11.3-14.66Z" transform="translate(-121.508 -182.002)" fill="#fb6d5d"/>
      <path id="Path_1369" data-name="Path 1369" d="M139.86,435.639a1.4,1.4,0,0,0-1.737.7,1.349,1.349,0,0,0,.667,1.73,1.466,1.466,0,0,0,1.84-.733,1.407,1.407,0,0,0-.9-1.722" transform="translate(-125.003 -188.04)" fill="#263238"/>
      <path id="Path_1370" data-name="Path 1370" d="M124.93,442.5l1.649-2.25,25.743,20.729s.814,1.466,0,2.2Z" transform="translate(-121.508 -189.294)" fill="#263238"/>
      <path id="Path_1371" data-name="Path 1371" d="M148.2,445.386c-.1.132-.821-.315-1.8-.381s-1.759.235-1.84.088.7-.733,1.891-.674S148.326,445.283,148.2,445.386Z" transform="translate(-126.747 -190.406)" fill="#263238"/>
      <path id="Path_1372" data-name="Path 1372" d="M151.944,450.969c-.066.147-.814-.059-1.7.161s-1.466.733-1.591.623.359-.931,1.466-1.187S152.039,450.866,151.944,450.969Z" transform="translate(-127.837 -192.03)" fill="#263238"/>
      <path id="Path_1373" data-name="Path 1373" d="M151.887,456.677c-.147-.066.169-.872,1.07-1.349s1.745-.293,1.715-.139-.733.257-1.466.652S152.027,456.765,151.887,456.677Z" transform="translate(-128.697 -193.238)" fill="#263238"/>
      <path id="Path_1374" data-name="Path 1374" d="M151.932,439.742c-.147.081-.623-.564-1.415-1.085S149,437.91,149,437.763s.946-.22,1.876.41S152.093,439.691,151.932,439.742Z" transform="translate(-127.935 -188.603)" fill="#263238"/>
      <path id="Path_1375" data-name="Path 1375" d="M155.935,434.69a3.424,3.424,0,0,1-1.363-1.041,7.594,7.594,0,0,1-1.107-1.532,7.68,7.68,0,0,1-.476-1.019,2.435,2.435,0,0,1-.169-.63.733.733,0,0,1,.476-.733.931.931,0,0,1,.821.139,2.2,2.2,0,0,1,.454.454,6.633,6.633,0,0,1,.638.938,6.076,6.076,0,0,1,.638,1.789,2.932,2.932,0,0,1,0,1.723c-.1,0-.088-.652-.374-1.627a6.6,6.6,0,0,0-.733-1.613,6.879,6.879,0,0,0-.6-.843c-.235-.293-.484-.484-.652-.41s-.081.051-.088.183a1.81,1.81,0,0,0,.132.462,7.72,7.72,0,0,0,.41.96,9.391,9.391,0,0,0,.946,1.517C155.5,434.192,155.993,434.624,155.935,434.69Z" transform="translate(-128.954 -186.475)" fill="#263238"/>
      <path id="Path_1376" data-name="Path 1376" d="M165.516,251.49l9.646.381s21.462,76.752,19.3,83.48-41.883,51.383-41.883,51.383L140.69,374.273s12.725-21.645,18.435-27.8c4.09-4.4,14.66-12.849,14.66-12.849L160.2,306.244Z" transform="translate(-125.716 -138.893)" fill="#263238"/>
      <path id="Path_1377" data-name="Path 1377" d="M173.082,292.2a8.982,8.982,0,0,1-.41,1.209c-.286.733-.7,1.884-1.18,3.262a114.354,114.354,0,0,0-3.24,10.995c-1.041,4.361-1.708,8.349-2.1,11.259-.2,1.466-.345,2.631-.432,3.445a9.1,9.1,0,0,1-.183,1.261,7.328,7.328,0,0,1,0-1.275c.044-.821.147-2,.308-3.467a95.621,95.621,0,0,1,1.994-11.31,96.647,96.647,0,0,1,3.357-10.995c.52-1.378.968-2.477,1.3-3.232a7.689,7.689,0,0,1,.586-1.151Z" transform="translate(-132.344 -149.763)" fill="#455a64"/>
      <path id="Path_1378" data-name="Path 1378" d="M152.507,416.613l-.235-.213-.645-.645-2.441-2.5-8.686-9.023-.081-.081.066-.11c3.086-5.175,6.766-11.427,11.068-17.929a87.081,87.081,0,0,1,11.508-14.323,65.807,65.807,0,0,1,5.688-4.933c.916-.674,1.774-1.319,2.595-1.9l2.316-1.569h.044l4.618,1.034,1.224.286a1.853,1.853,0,0,1,.418.117,3.063,3.063,0,0,1-.425-.066l-1.239-.227-4.64-.931h.081l-2.287,1.6c-.814.579-1.664,1.239-2.573,1.913a68.525,68.525,0,0,0-5.622,4.955,88.433,88.433,0,0,0-11.42,14.293c-4.3,6.487-8,12.725-11.119,17.885v-.2l8.583,9.118,2.375,2.551.616.682a1.337,1.337,0,0,1,.213.213Z" transform="translate(-125.644 -168.771)" fill="#455a64"/>
      <path id="Path_1379" data-name="Path 1379" d="M189,225.621c.037.2,3.489-1.034,3.863-2.39a29.467,29.467,0,0,0,.271-5.27l-8.8-5.322.044,7.33A7.279,7.279,0,0,1,189,225.621Z" transform="translate(-137.371 -128.52)" fill="#ffbe9d"/>
      <path id="Path_1380" data-name="Path 1380" d="M177.4,149.843l3.892,2.485a14.452,14.452,0,0,0,2.771,4.4c1.554,1.385,4.229,4.185,4.229,4.185l1.18,4.237,8.5-2.162L194.3,150.708l-1.07-3.247s-1.862-2.851-4.266-1.334c0,0,.3-1.063-.733-1.129a12.236,12.236,0,0,0-2.53.264,4.075,4.075,0,0,0-2.146-.77,8.54,8.54,0,0,0-1.635.169s-.286-1.209-.931-1.055-1.466,1.3-1.693,1.986a8.861,8.861,0,0,0-.066,2.565Z" transform="translate(-135.518 -110.083)" fill="#ffbe9d"/>
      <path id="Path_1381" data-name="Path 1381" d="M192.933,147a3.591,3.591,0,0,0-1.415,1.466,4.4,4.4,0,0,0-.462,2.14,8.469,8.469,0,0,0,.117,1.319c.037.227.073.462.117.7a3.107,3.107,0,0,0,.147.667.645.645,0,0,0,.454.315,1.143,1.143,0,0,0,.608,0,1.07,1.07,0,0,0,.777-.792,17.888,17.888,0,0,0,.059-2.243,1.576,1.576,0,0,1,.359-.865,1.224,1.224,0,0,1,.586-.4c.388-.11.594.059.579.066a1.466,1.466,0,0,0-.528.073,1.3,1.3,0,0,0-.733,1.151,12.645,12.645,0,0,1,0,2.309,1.466,1.466,0,0,1-2.521.55,3.094,3.094,0,0,1-.176-.77c-.044-.242-.081-.476-.117-.733a8.863,8.863,0,0,1-.1-1.371,4.53,4.53,0,0,1,.572-2.272,3.057,3.057,0,0,1,1.107-1.129A1.313,1.313,0,0,1,192.933,147Z" transform="translate(-139.066 -110.993)" fill="#eb996e"/>
      <path id="Path_1382" data-name="Path 1382" d="M196.914,153.153c0,.1-.469.147-1.026.176s-1.026.044-1.048-.059.432-.286,1.026-.323S196.921,153.05,196.914,153.153Z" transform="translate(-140.174 -112.58)" fill="#eb996e"/>
      <path id="Path_1383" data-name="Path 1383" d="M190.116,152.986a1.378,1.378,0,0,1,.117.528,1.8,1.8,0,0,1-.5,1.415,1.422,1.422,0,0,1-1.012.418,1.334,1.334,0,0,1-1.077-.66,3.548,3.548,0,0,1-.447-1.261q-.125-.66-.2-1.363a18.65,18.65,0,0,1-.1-2.668,7.41,7.41,0,0,1,.315-2.2,2.331,2.331,0,0,1,.894-1.195.917.917,0,0,1,.513-.191,3.281,3.281,0,0,0-.425.308,2.418,2.418,0,0,0-.733,1.165,8.283,8.283,0,0,0-.22,2.1,21.939,21.939,0,0,0,.125,2.617,7.007,7.007,0,0,0,.564,2.485,1,1,0,0,0,.792.528,1.187,1.187,0,0,0,.814-.3,1.767,1.767,0,0,0,.535-1.217A2.77,2.77,0,0,1,190.116,152.986Z" transform="translate(-138.053 -110.676)" fill="#eb996e"/>
      <path id="Path_1384" data-name="Path 1384" d="M185.583,152.094c.081,0-.147.733-1.224,1.092a1.466,1.466,0,0,1-1.466-1.136,7.388,7.388,0,0,1-.264-2.2,10.2,10.2,0,0,1,.733-3.914,1.774,1.774,0,0,1,.865-.887c.279-.117.447-.081.447-.059s-.154.051-.381.191a1.759,1.759,0,0,0-.682.865,11.926,11.926,0,0,0-.616,3.8,7.645,7.645,0,0,0,.213,2.082,1.268,1.268,0,0,0,1.07.99,2.2,2.2,0,0,0,.982-.513C185.5,152.226,185.553,152.087,185.583,152.094Z" transform="translate(-136.913 -110.451)" fill="#eb996e"/>
      <path id="Path_1385" data-name="Path 1385" d="M182.613,145.049a2.382,2.382,0,0,1-.051.946,4.185,4.185,0,0,1-.828,2.2,1.187,1.187,0,0,1-.623.41.9.9,0,0,1-.733-.132,1.283,1.283,0,0,1-.579-.953,1.466,1.466,0,0,1,.125-.96c.066,0,0,.381.139.909a1.07,1.07,0,0,0,.491.733.66.66,0,0,0,.872-.227,4.933,4.933,0,0,0,.85-1.979C182.445,145.386,182.562,145.012,182.613,145.049Z" transform="translate(-136.15 -110.472)" fill="#eb996e"/>
      <path id="Path_1386" data-name="Path 1386" d="M196.742,158.7a18.752,18.752,0,0,0-1.642-1.319,18.151,18.151,0,0,0-1.95-.814,2.8,2.8,0,0,1,2.14.484A2.829,2.829,0,0,1,196.742,158.7Z" transform="translate(-139.723 -113.535)" fill="#eb996e"/>
      <path id="Path_1387" data-name="Path 1387" d="M198.191,162.26a4.772,4.772,0,0,1-5.131,2.2,12.533,12.533,0,0,0,2.756-.645A12.387,12.387,0,0,0,198.191,162.26Z" transform="translate(-139.699 -115.068)" fill="#eb996e"/>
      <path id="Path_1388" data-name="Path 1388" d="M181.267,142.7a8.239,8.239,0,0,1-4.127,6.927,17.644,17.644,0,0,0,2.639-3.115,18.026,18.026,0,0,0,1.488-3.812Z" transform="translate(-135.448 -109.845)" fill="#eb996e"/>
      <path id="Path_1389" data-name="Path 1389" d="M183.727,172.548a8.164,8.164,0,0,1,3.753,4.786c.843,2.478,5.607,11.141,5.607,11.141l-1.957-16.544L199.538,169s7.1,15.459,8.8,24.922c1.693,9.272-2.932,15.393-7.865,15.217s-16.859-8.481-16.859-8.481Z" transform="translate(-137.176 -116.868)" fill="#fb6d5d"/>
      <path id="Path_1390" data-name="Path 1390" d="M193.868,173a5.862,5.862,0,0,1,.191.975c.1.733.227,1.605.381,2.683.3,2.265.7,5.4,1.107,8.862.154,1.349.308,2.646.447,3.841h0c.213,1.246.41,2.412.594,3.467a17.96,17.96,0,0,0,.682,2.668c.52,1.466.946,2.272.894,2.294a3.2,3.2,0,0,1-.344-.557q-.408-.813-.733-1.664a16.172,16.172,0,0,1-.777-2.683c-.2-1.056-.41-2.2-.645-3.46h0c-.147-1.195-.308-2.492-.469-3.841-.41-3.46-.733-6.6-1-8.877-.1-1.077-.191-1.979-.257-2.69A4.282,4.282,0,0,1,193.868,173Z" transform="translate(-139.914 -117.936)" fill="#263238"/>
      <g id="Group_1895" data-name="Group 1895" transform="translate(58.294 81.453)" opacity="0.3">
        <path id="Path_1391" data-name="Path 1391" d="M213.006,209.623c0-1.679-5.864.4-8.129,1.935a14.572,14.572,0,0,0-5.087,6.685s4.009,2.309,7.088,1.261C211.247,218.023,212.955,212.5,213.006,209.623Z" transform="translate(-199.79 -209.001)"/>
      </g>
      <path id="Path_1392" data-name="Path 1392" d="M139.584,158.094s-15.891,7.682-17.592,12.388,1.129,16.8,1.129,16.8l6.274,32.64,1.3,12.2-3.394,4.926,1.466,5.058c17.13,2.28,33.146,2.756,46.8-.623l-.946-11.244-6.3-26.058-.821-21.894-.381-13.238-8.539-7s-1.393,3.812-4.918,3.013-11.794-9.177-11.794-9.177Z" transform="translate(-120.578 -113.365)" fill="#fb6d5d"/>
      <path id="Path_1393" data-name="Path 1393" d="M123.383,193.764c.484.5,10.511,27.121,17.592,30.4s11.251,2.14,14.33,1.3,16.544-10.35,16.544-10.35-.946-6.392-4.86-6.6a30.573,30.573,0,0,0-7.381.586l-4.75-3.145s-2.756-5.387-4.347-5.615l-9.228-20.524s-8.583-16.749-17.115-9.016C115.862,178.32,123.383,193.764,123.383,193.764Z" transform="translate(-120.261 -116.806)" fill="#fb6d5d"/>
      <path id="Path_1394" data-name="Path 1394" d="M167,164.981a3.387,3.387,0,0,1-.513.814,8.482,8.482,0,0,1-1.825,1.825,5.762,5.762,0,0,1-1.649.806,6.3,6.3,0,0,1-2.1.213,14.4,14.4,0,0,1-4.6-1.209,16.126,16.126,0,0,1-4.112-2.448,24.312,24.312,0,0,1-2.756-2.727c-.733-.828-1.268-1.532-1.635-2.023a4.134,4.134,0,0,1-.542-.792,4.932,4.932,0,0,1,.652.733c.41.462.982,1.136,1.73,1.935a27.294,27.294,0,0,0,2.771,2.639,16.485,16.485,0,0,0,4.009,2.36,14.727,14.727,0,0,0,4.471,1.209,5.542,5.542,0,0,0,3.57-.887,9.17,9.17,0,0,0,1.884-1.73,7.1,7.1,0,0,1,.645-.718Z" transform="translate(-127.473 -114.315)" fill="#263238"/>
      <path id="Path_1395" data-name="Path 1395" d="M182.6,183.91c.1,0,.5,6.34.88,14.169s.608,14.176.5,14.183-.5-6.34-.88-14.169S182.49,183.917,182.6,183.91Z" transform="translate(-136.899 -120.849)" fill="#263238"/>
      <path id="Path_1396" data-name="Path 1396" d="M127.429,171.683l.176-.081.542-.22a9.009,9.009,0,0,1,2.2-.52,8.3,8.3,0,0,1,3.665.425,11.581,11.581,0,0,1,4.149,2.661,21.036,21.036,0,0,1,3.665,4.874c.55.968.99,2.045,1.466,3.123s1,2.2,1.517,3.364l6.985,15.473-.132-.1a3.079,3.079,0,0,1,1.466,1.063,15.18,15.18,0,0,1,1.1,1.466,34.267,34.267,0,0,1,1.891,3.2l-.037-.044,1.862,1.862-.117-.051,9.045.608,1.165.073a4.317,4.317,0,0,1,1.209.271,4.552,4.552,0,0,1,1.913,1.51,11.427,11.427,0,0,1,1.884,4.5,3.411,3.411,0,0,0,.088.476v.117l-.1.066c-3.958,2.771-7.858,5.431-11.728,7.828-.975.586-1.942,1.18-2.932,1.7-.242.139-.491.257-.733.381a7.33,7.33,0,0,1-.777.337,13.606,13.606,0,0,1-1.605.462,17.108,17.108,0,0,1-6.428.447,22.048,22.048,0,0,1-5.908-1.671,11.262,11.262,0,0,1-1.349-.638,4.3,4.3,0,0,1-.623-.4,5.862,5.862,0,0,1-.572-.462,16.342,16.342,0,0,1-1.972-2.067,56.677,56.677,0,0,1-5.5-8.8c-2.932-5.607-4.926-10.321-6.311-13.568-.667-1.62-1.195-2.881-1.554-3.753s-.557-1.3-.557-1.3a7.331,7.331,0,0,1,.623,1.275l1.627,3.724c1.422,3.225,3.46,7.924,6.406,13.5a58.412,58.412,0,0,0,5.527,8.73,10.262,10.262,0,0,0,4.4,3.46,21.8,21.8,0,0,0,5.82,1.635,16.741,16.741,0,0,0,6.3-.454,12.458,12.458,0,0,0,1.569-.454,6.54,6.54,0,0,0,.733-.33,7.775,7.775,0,0,0,.733-.374c.982-.513,1.942-1.1,2.932-1.693,3.863-2.39,7.762-5.05,11.728-7.814l-.081.183-.088-.462a11,11,0,0,0-1.81-4.339,4.237,4.237,0,0,0-1.752-1.393,7.748,7.748,0,0,0-2.258-.323l-9.045-.638h-.066l-.051-.051-1.854-1.862h0a35.79,35.79,0,0,0-1.862-3.159,15.09,15.09,0,0,0-1.07-1.407,2.859,2.859,0,0,0-1.275-.953h-.1v-.073l-6.934-15.5-1.5-3.372c-.5-1.092-.924-2.148-1.466-3.108a20.8,20.8,0,0,0-3.584-4.845,11.434,11.434,0,0,0-4.053-2.661,8.341,8.341,0,0,0-3.57-.469,9.528,9.528,0,0,0-2.2.462l-.55.2Z" transform="translate(-121.39 -117.352)" fill="#263238"/>
      <path id="Path_1397" data-name="Path 1397" d="M172.087,222.2c0,.227-2,.147-4.435-.051l-3.123-.249a5.475,5.475,0,0,1-1.29-.169,18.417,18.417,0,0,1,4.442.059c1.224.1,2.331.213,3.13.3Z" transform="translate(-131.737 -130.923)" fill="#263238"/>
      <path id="Path_1398" data-name="Path 1398" d="M151.9,212.2a16.646,16.646,0,0,1,3.518-.432,16.941,16.941,0,0,1,3.548-.051,16.669,16.669,0,0,1-3.526.432,16.859,16.859,0,0,1-3.54.051Z" transform="translate(-128.709 -128.254)" fill="#263238"/>
      <g id="Group_1896" data-name="Group 1896" transform="translate(15.714 98.687)" opacity="0.3">
        <path id="Path_1399" data-name="Path 1399" d="M165.273,240.281a15.62,15.62,0,0,0-10.379-7.528A17.519,17.519,0,0,0,141.7,236.11a15.041,15.041,0,0,0,10.782,7.022A17.746,17.746,0,0,0,165.273,240.281Z" transform="translate(-141.7 -232.513)"/>
      </g>
      <g id="Group_1897" data-name="Group 1897" transform="translate(20.713 46.107)" opacity="0.3">
        <path id="Path_1400" data-name="Path 1400" d="M148.52,160.78a18.832,18.832,0,0,0,5.5,7.946,10.149,10.149,0,0,0,9.162,2.008c1.6-.513,3.137-1.745,3.291-3.408A14.455,14.455,0,0,1,149,161.462" transform="translate(-148.52 -160.78)"/>
      </g>
      <g id="Group_1898" data-name="Group 1898" transform="translate(45.729 64.815)" opacity="0.3">
        <path id="Path_1401" data-name="Path 1401" d="M183.881,205.608a57.731,57.731,0,0,0-.066-18.42c-.073-.425-.33-.975-.733-.872s-.4.513-.418.85a149.56,149.56,0,0,0,.894,18.647" transform="translate(-182.648 -186.303)"/>
      </g>
      <path id="Path_1402" data-name="Path 1402" d="M169.549,266.731a1.326,1.326,0,0,1-.359.125l-1.026.286c-.447.117-1,.257-1.642.388s-1.378.315-2.2.447a55.994,55.994,0,0,1-5.776.733,66.077,66.077,0,0,1-7.139.169,67.183,67.183,0,0,1-7.11-.66,57.491,57.491,0,0,1-5.717-1.151c-.806-.183-1.525-.41-2.2-.594s-1.173-.352-1.613-.506l-1-.352a2.429,2.429,0,0,1-.345-.147,1.327,1.327,0,0,1,.366.073l1.026.286c.447.132.99.286,1.627.44s1.356.367,2.2.535c1.605.381,3.54.733,5.7,1.07a61.665,61.665,0,0,0,7.073.623,69.545,69.545,0,0,0,7.1-.139,57.488,57.488,0,0,0,5.761-.667c.821-.11,1.554-.264,2.2-.381s1.2-.227,1.649-.33l1.048-.213a1.409,1.409,0,0,1,.381-.037Z" transform="translate(-123.775 -142.626)" fill="#263238"/>
      <g id="Group_1899" data-name="Group 1899" transform="translate(12.929 121.935)" opacity="0.3">
        <path id="Path_1403" data-name="Path 1403" d="M137.973,265.74a3.789,3.789,0,0,1,3.02-1.51,12.951,12.951,0,0,1,3.46.476,52.431,52.431,0,0,0,23.969-.33,2.565,2.565,0,0,1-1.341,2.4,8.062,8.062,0,0,1-2.793.77c-8.8,1.649-17.9.579-26.388-1.466" transform="translate(-137.9 -264.23)"/>
      </g>
    </g>
    <g id="freepik--Boxes--inject-6" transform="translate(397.667 206.779)">
      <rect id="Rectangle_335" data-name="Rectangle 335" width="98.771" height="71.012" transform="translate(17.995 0)" fill="#fb6d5d"/>
      <path id="Path_1404" data-name="Path 1404" d="M592.33,265.67c.139,0,0,15,0,15H585v-15Z" transform="translate(-547.859 -265.67)" fill="#263238"/>
      <g id="Group_1900" data-name="Group 1900" transform="translate(67.377 0)" opacity="0.4">
        <rect id="Rectangle_336" data-name="Rectangle 336" width="49.389" height="71.012" transform="translate(49.389 71.012) rotate(180)"/>
      </g>
      <rect id="Rectangle_337" data-name="Rectangle 337" width="13.223" height="9.36" transform="translate(21 57.107)" fill="#fafafa"/>
      <path id="Path_1405" data-name="Path 1405" d="M576.23,352.95H563v-9.39h13.26Zm-13.194-.037H576.23V343.6H563Z" transform="translate(-541.985 -286.467)" fill="#263238"/>
      <rect id="Rectangle_338" data-name="Rectangle 338" width="6.612" height="9.36" transform="translate(36.664 57.107)" fill="#fafafa"/>
      <path id="Path_1406" data-name="Path 1406" d="M590.978,352.95H584.33v-9.39h6.648Zm-6.6-.037h6.6V343.6h-6.6Z" transform="translate(-547.68 -286.467)" fill="#263238"/>
      <rect id="Rectangle_339" data-name="Rectangle 339" width="112.36" height="80.776" transform="translate(0 71.071)" fill="#fb6d5d"/>
      <path id="Path_1407" data-name="Path 1407" d="M572.419,362.63c.154,0,0,17.049,0,17.049H564.1V362.63Z" transform="translate(-542.279 -291.559)" fill="#263238"/>
      <g id="Group_1901" data-name="Group 1901" transform="translate(56.184 71.064)" opacity="0.4">
        <rect id="Rectangle_340" data-name="Rectangle 340" width="56.176" height="80.776" transform="translate(56.176 80.776) rotate(180)"/>
      </g>
      <rect id="Rectangle_341" data-name="Rectangle 341" width="15.041" height="10.643" transform="translate(3.423 136.029)" fill="#fafafa"/>
      <path id="Path_1408" data-name="Path 1408" d="M554.063,461.91H539V451.23h15.078ZM539,461.873h15.026V451.267H539Z" transform="translate(-535.577 -315.216)" fill="#263238"/>
      <rect id="Rectangle_342" data-name="Rectangle 342" width="7.52" height="10.643" transform="translate(21.242 136.029)" fill="#fafafa"/>
      <path id="Path_1409" data-name="Path 1409" d="M570.847,461.91H563.29V451.23h7.557Zm-7.521-.037h7.484V451.267h-7.484Z" transform="translate(-542.063 -315.216)" fill="#263238"/>
      <path id="Path_1410" data-name="Path 1410" d="M657.651,362.481c0,.1-22.114.191-49.389.191s-49.382-.088-49.382-.191,22.107-.191,49.382-.191S657.651,362.378,657.651,362.481Z" transform="translate(-540.885 -291.468)" fill="#263238"/>
    </g>
    <g id="freepik--speech-bubble--inject-6" transform="translate(54.902 53.122)">
      <path id="Path_1411" data-name="Path 1411" d="M94.284,74.518a.894.894,0,0,1,.506.8v4.4a.894.894,0,0,1-1.136.858,2.763,2.763,0,0,0-2.2.33,2.477,2.477,0,0,0-1.121,1.62,2.544,2.544,0,0,0,.454,1.935,2.844,2.844,0,0,0,1.825,1.209A3.335,3.335,0,0,0,96.1,83.409a.889.889,0,0,1,1.693.542,5.131,5.131,0,0,1-5.461,3.474,4.589,4.589,0,0,1-3.013-1.957,4.127,4.127,0,0,1,1.268-6.055,4.684,4.684,0,0,1,2.448-.682V75.317a.887.887,0,0,1,.887-.887.865.865,0,0,1,.359.088Z" transform="translate(-72.525 -60.95)" fill="#fb6d5d"/>
      <path id="Path_1412" data-name="Path 1412" d="M94.71,71.733a.733.733,0,1,1,.733.733A.733.733,0,0,1,94.71,71.733Z" transform="translate(-74.183 -60.034)" fill="#fb6d5d"/>
      <path id="Path_1413" data-name="Path 1413" d="M123.489,104.374a1.427,1.427,0,0,0-.579.183,2.727,2.727,0,0,0-1.239,1.056,2.522,2.522,0,0,0-.381,1.055,2.258,2.258,0,0,0,.22,1.253,2.45,2.45,0,0,0,4.589-.264,2.2,2.2,0,0,0,.073-1.268,2.639,2.639,0,0,0-.5-1,2.749,2.749,0,0,0-1.356-.909c-.374-.1-.6-.088-.6-.11a.418.418,0,0,1,.161,0,1.04,1.04,0,0,1,.2,0,1.327,1.327,0,0,1,.264,0,2.727,2.727,0,0,1,1.466.894,2.587,2.587,0,0,1,.55,1.056,2.419,2.419,0,0,1-.059,1.363,2.734,2.734,0,0,1-.858,1.239,2.6,2.6,0,0,1-1.466.623,2.639,2.639,0,0,1-1.554-.44,2.785,2.785,0,0,1-1-1.136,2.3,2.3,0,0,1-.22-1.341,2.551,2.551,0,0,1,.425-1.114,2.675,2.675,0,0,1,1.319-1.056,1.561,1.561,0,0,1,.257-.073.674.674,0,0,1,.191,0C123.438,104.367,123.489,104.367,123.489,104.374Z" transform="translate(-81.25 -68.942)" fill="#263238"/>
      <path id="Path_1414" data-name="Path 1414" d="M132.618,113.137a.844.844,0,0,0-.359.125,1.722,1.722,0,0,0-.733.667,1.466,1.466,0,0,0-.088,1.466,1.51,1.51,0,0,0,2.822-.169,1.466,1.466,0,0,0-.293-1.473,1.708,1.708,0,0,0-.828-.572c-.242-.066-.381-.066-.381-.081a.733.733,0,0,1,.4,0,1.693,1.693,0,0,1,.924.564,1.657,1.657,0,0,1,.352.667,1.466,1.466,0,0,1,0,.88,1.752,1.752,0,0,1-1.5,1.195,1.774,1.774,0,0,1-1.642-1.012,1.517,1.517,0,0,1-.139-.865,1.664,1.664,0,0,1,.279-.733,1.635,1.635,0,0,1,.843-.66.8.8,0,0,1,.352,0Z" transform="translate(-83.907 -71.268)" fill="#263238"/>
      <path id="Path_1415" data-name="Path 1415" d="M107.873,78.279V76.234a4.439,4.439,0,0,0-.059-.865c-.059-.308-.051-.652-.081-1.012a3.745,3.745,0,0,0-.073-.557c-.037-.191-.073-.381-.11-.586a19.651,19.651,0,0,0-1.781-5.607,20.34,20.34,0,0,0-4.742-6.208l-.828-.733c-.293-.227-.608-.44-.916-.667l-.469-.33a3.665,3.665,0,0,0-.484-.323l-1.019-.594-.52-.293-.55-.249L95.127,57.7c-.381-.161-.784-.271-1.18-.418l-.6-.205-.3-.1L92.73,56.9a19.256,19.256,0,0,0-2.558-.5c-.44-.051-.88-.132-1.327-.161H86.8l-.689.051c-.454.044-.924.059-1.385.117A21.9,21.9,0,0,0,81.94,57l-.733.2-.359.059-.337.132-1.371.535c-.447.2-.887.44-1.327.66-.22.117-.454.213-.667.352l-.638.4a22.854,22.854,0,0,0-2.448,1.8l-1.129,1.041-.286.271-.257.293-.52.586-.513.594-.469.638-.462.645-.227.323c-.073.11-.139.227-.205.345l-.806,1.385-.674,1.466a20.3,20.3,0,0,0-1,12.879l.44,1.525c.191.506.388,1,.579,1.466l.147.374.176.352.359.733.359.733.418.667.425.66.205.33.242.308.946,1.224A24.919,24.919,0,0,0,74,92.125l.564.5c.191.161.4.293.6.447.41.286.8.586,1.217.858l1.268.733.264.2.33.154.66.3a21.652,21.652,0,0,0,2.675,1.012c.454.125.909.22,1.363.33l.667.154c.227.051.454.066.682.1l1.349.176c.447.044.894,0,1.334.051a19.13,19.13,0,0,0,2.595-.073h.323l.315-.051.623-.11c.41-.081.828-.132,1.224-.227l1.187-.33.579-.161.564-.22,1.1-.425a3.791,3.791,0,0,0,.528-.242l.513-.257c.337-.176.682-.337,1-.513l.938-.594a20.385,20.385,0,0,0,5.644-5.395l.5-.689.41-.733.4-.682c.066-.117.132-.22.191-.337l.154-.337q.323-.682.594-1.3c.183-.418.3-.828.44-1.209.066-.2.132-.381.2-.564a3.96,3.96,0,0,0,.154-.535c.088-.352.161-.682.235-.99s.147-.586.2-.843.066-.506.1-.733q.088-.63.132-.968a.755.755,0,0,1,.059-.33,2.262,2.262,0,0,1-.037.33c-.037.22-.066.55-.117.975a6.341,6.341,0,0,1-.088.733c-.037.279-.117.542-.183.85s-.147.638-.227.99a4.046,4.046,0,0,1-.154.542c-.066.183-.125.367-.191.564-.139.381-.257.8-.432,1.217l-.594,1.3-.154.345c-.059.117-.125.22-.191.337l-.4.689c-.132.235-.271.469-.418.733s-.323.462-.491.733a20.523,20.523,0,0,1-5.666,5.446l-.938.594c-.323.183-.667.345-1.012.52l-.513.264a4.4,4.4,0,0,1-.535.242l-1.107.432c-.183.073-.367.154-.557.22l-.586.161-1.195.337c-.4.1-.821.154-1.239.235l-.623.11-.323.051h-.315a19.549,19.549,0,0,1-2.631.11A11.789,11.789,0,0,1,85.62,97.3l-1.356-.242a3.711,3.711,0,0,1-.689-.1L82.9,96.8c-.454-.11-.916-.2-1.371-.33a21.609,21.609,0,0,1-2.683-1.012l-.667-.308c-.11-.051-.22-.1-.33-.154l-.323-.183-1.283-.733c-.41-.264-.806-.572-1.217-.865a7.2,7.2,0,0,1-.608-.447l-.572-.5a23.456,23.456,0,0,1-2.2-2.2l-.96-1.231-.242-.315-.213-.33-.381-.667-.425-.674-.367-.733-.359-.733-.183-.359-.147-.374c-.191-.5-.388-1-.586-1.5l-.462-1.488a20.392,20.392,0,0,1,1.019-13c.227-.5.447-.99.674-1.466l.836-1.429c.073-.117.132-.235.205-.345l.235-.33.469-.645.469-.645.52-.6.52-.594.264-.293.286-.271,1.136-1.07a23.257,23.257,0,0,1,2.492-1.8l.645-.41c.213-.132.447-.235.667-.352.447-.22.887-.462,1.341-.66l1.385-.535.337-.139.352-.1.733-.2a21.361,21.361,0,0,1,2.815-.586c.469-.059.938-.081,1.4-.117l.733-.051h2.06c.447,0,.894.11,1.334.154a19.594,19.594,0,0,1,2.58.513l.315.073.3.1.608.205c.4.147.8.264,1.18.425l1.129.513.55.257c.183.1.352.2.528.3l1.026.6a3.466,3.466,0,0,1,.484.323l.469.337c.308.227.623.44.916.667l.836.733a20.333,20.333,0,0,1,4.75,6.26,19.226,19.226,0,0,1,1.818,5.651c.037.205.073.4.1.594a3.746,3.746,0,0,1,.073.557,7.381,7.381,0,0,0,.066,1.012c0,.315.051.6.051.872v1.715A.486.486,0,0,1,107.873,78.279Z" transform="translate(-66.705 -56.04)" fill="#263238"/>
    </g>
  </g>
</svg>
