<svg xmlns="http://www.w3.org/2000/svg" width="61.979" height="61.984" viewBox="0 0 61.979 61.984">
  <g id="_3d-printing" data-name="3d-printing" transform="translate(-0.021)">
    <g id="Group_1911" data-name="Group 1911" transform="translate(0.929 0.908)">
      <g id="Group_1909" data-name="Group 1909" transform="translate(0 6.908)">
        <g id="Group_1906" data-name="Group 1906" transform="translate(0 0)">
          <g id="Group_1905" data-name="Group 1905">
            <g id="Group_1904" data-name="Group 1904">
              <g id="Group_1903" data-name="Group 1903">
                <path id="Path_1416" data-name="Path 1416" d="M188.607,396.89v-.446h-9.846v.446a12.358,12.358,0,0,1-3.478,8.6l-1.559,1.611h19.921l-1.559-1.611A12.358,12.358,0,0,1,188.607,396.89Z" transform="translate(-153.603 -356.265)" fill="#e96759"/>
                <path id="Path_1417" data-name="Path 1417" d="M242.357,405.486a12.358,12.358,0,0,1-3.479-8.6v-.446h-7.959v.446a12.358,12.358,0,0,0,3.478,8.6l1.559,1.611h7.959Z" transform="translate(-203.874 -356.266)" fill="#dc5a4c"/>
                <g id="Group_1902" data-name="Group 1902">
                  <path id="Path_1418" data-name="Path 1418" d="M64.349,106.586H10.856a3.335,3.335,0,0,1-3.335-3.335V67.893a3.335,3.335,0,0,1,3.335-3.335H55.625a12.976,12.976,0,0,1,7.729,2.553l4.33,3.211v32.929A3.335,3.335,0,0,1,64.349,106.586Z" transform="translate(-7.521 -64.558)" fill="#f2f9ff"/>
                  <path id="Path_1419" data-name="Path 1419" d="M412.6,67.111a12.976,12.976,0,0,0-7.729-2.553,4.151,4.151,0,0,1,4.151,4.151v34.542a3.335,3.335,0,0,1-3.335,3.335h7.909a3.335,3.335,0,0,0,3.335-3.335V70.322Z" transform="translate(-356.762 -64.558)" fill="#e2f4ff"/>
                  <path id="Path_1420" data-name="Path 1420" d="M7.521,360.138a3.335,3.335,0,0,0,3.335,3.335H64.349a3.335,3.335,0,0,0,3.335-3.335v-3.31H7.521Z" transform="translate(-7.521 -321.445)" fill="#e96759"/>
                  <path id="Path_1421" data-name="Path 1421" d="M422.846,360.139v-3.31h-7.909v3.31a3.335,3.335,0,0,1-3.335,3.335h7.909A3.335,3.335,0,0,0,422.846,360.139Z" transform="translate(-362.683 -321.446)" fill="#dc5a4c"/>
                  <path id="Path_1422" data-name="Path 1422" d="M164.824,469.221H141.331a2.43,2.43,0,1,1,0-4.859h23.493a2.43,2.43,0,0,1,0,4.859Z" transform="translate(-122.996 -415.961)" fill="#e96759"/>
                  <path id="Path_1423" data-name="Path 1423" d="M295.611,464.361H287.7a2.43,2.43,0,0,1,2.43,2.43v2.43h5.479a2.43,2.43,0,0,0,0-4.859Z" transform="translate(-253.783 -415.96)" fill="#dc5a4c"/>
                </g>
              </g>
            </g>
          </g>
        </g>
        <g id="Group_1908" data-name="Group 1908" transform="translate(6.299 9.305)">
          <g id="Group_1907" data-name="Group 1907">
            <path id="Path_1424" data-name="Path 1424" d="M78.193,156.541v-9.154a1.391,1.391,0,0,0-.7-1.2l-7.928-4.577a1.391,1.391,0,0,0-1.391,0l-7.928,4.577a1.391,1.391,0,0,0-.7,1.2v9.154a1.391,1.391,0,0,0,.7,1.2l7.928,4.577a1.391,1.391,0,0,0,1.391,0l7.928-4.577A1.391,1.391,0,0,0,78.193,156.541Z" transform="translate(-59.556 -141.419)" fill="#bed8fb"/>
            <path id="Path_1425" data-name="Path 1425" d="M70.227,151.964l9.132-5.273a1.39,1.39,0,0,0-.509-.509l-7.928-4.577a1.391,1.391,0,0,0-1.391,0L61.6,146.183a1.39,1.39,0,0,0-.509.509Z" transform="translate(-60.909 -141.419)" fill="#92c7fe"/>
          </g>
        </g>
      </g>
      <g id="Group_1910" data-name="Group 1910" transform="translate(32.698)">
        <path id="Path_1426" data-name="Path 1426" d="M303.8,16.684a5.083,5.083,0,0,0-2.726-1.6,1.629,1.629,0,0,1-1.226-1.153,8.839,8.839,0,0,0-15.724-2.691,1.664,1.664,0,0,1-1.059.672,6.689,6.689,0,0,0-5.453,6.651,6.759,6.759,0,0,0,6.8,6.61h15.5a5.28,5.28,0,0,0,2.576-.647,4.771,4.771,0,0,0,1.208-.95,5.165,5.165,0,0,0,.112-6.892Z" transform="translate(-277.612 -7.5)" fill="#b3e59f"/>
        <path id="Path_1427" data-name="Path 1427" d="M363.374,25.146v.028h7.352a5.28,5.28,0,0,0,2.576-.647,4.77,4.77,0,0,0,1.208-.95,5.165,5.165,0,0,0,.112-6.892,5.083,5.083,0,0,0-2.726-1.6,1.629,1.629,0,0,1-1.226-1.153,8.843,8.843,0,0,0-12.482-5.487,8.859,8.859,0,0,1,4.522,5.466,1.644,1.644,0,0,0,1.218,1.171,5.1,5.1,0,0,1-.554,10.065Z" transform="translate(-348.433 -7.5)" fill="#95d6a4"/>
      </g>
    </g>
    <g id="Group_1912" data-name="Group 1912" transform="translate(0.021)">
      <path id="Path_1428" data-name="Path 1428" d="M293.314,195.674H272.3a.908.908,0,0,0,0,1.816h21.01a.908.908,0,0,0,0-1.816Z" transform="translate(-238.543 -171.985)"/>
      <path id="Path_1429" data-name="Path 1429" d="M293.314,240H272.3a.908.908,0,0,0,0,1.816h21.01a.908.908,0,0,0,0-1.816Z" transform="translate(-238.543 -210.946)"/>
      <path id="Path_1430" data-name="Path 1430" d="M293.314,284.327H272.3a.908.908,0,0,0,0,1.816h21.01a.908.908,0,0,0,0-1.816Z" transform="translate(-238.543 -249.906)"/>
      <path id="Path_1431" data-name="Path 1431" d="M357.084,52l1.9-1.539v5.446a.908.908,0,0,0,1.816,0V50.463l1.9,1.539a.908.908,0,0,0,1.142-1.412l-3.382-2.734h0a.908.908,0,0,0-1.084-.041c-.077.053-.015.012-3.439,2.776A.908.908,0,1,0,357.084,52Z" transform="translate(-312.558 -41.885)"/>
      <path id="Path_1432" data-name="Path 1432" d="M61.092,69.294a.908.908,0,0,0-.908.908V92.441H1.837V61.3a2.43,2.43,0,0,1,2.427-2.427h26.48a.908.908,0,1,0,0-1.816H4.264A4.248,4.248,0,0,0,.021,61.3V96.659A4.248,4.248,0,0,0,4.264,100.9h20.68a11.425,11.425,0,0,1-2.053,4.557H19.264a3.338,3.338,0,1,0,0,6.675H42.757a3.338,3.338,0,1,0,0-6.675H39.13a11.425,11.425,0,0,1-2.053-4.557h20.68A4.248,4.248,0,0,0,62,96.659V70.2A.908.908,0,0,0,61.092,69.294ZM44.279,108.8a1.523,1.523,0,0,1-1.522,1.522H19.264a1.522,1.522,0,0,1,0-3.043H42.757A1.523,1.523,0,0,1,44.279,108.8Zm-7.338-3.338H25.08a13.233,13.233,0,0,0,1.713-4.557h8.435A13.233,13.233,0,0,0,36.941,105.459Zm20.816-6.373H4.264a2.43,2.43,0,0,1-2.427-2.427v-2.4H60.184v2.4A2.43,2.43,0,0,1,57.757,99.086Z" transform="translate(-0.021 -50.15)"/>
      <path id="Path_1433" data-name="Path 1433" d="M71.361,138.812l-7.928-4.577a2.305,2.305,0,0,0-2.3,0l-7.928,4.577a2.306,2.306,0,0,0-1.149,1.991v9.154a2.305,2.305,0,0,0,1.149,1.991l7.928,4.577a2.305,2.305,0,0,0,2.3,0l7.928-4.577a2.306,2.306,0,0,0,1.149-1.991V140.8A2.306,2.306,0,0,0,71.361,138.812ZM54.114,150.375a.485.485,0,0,1-.242-.418v-8.384l7.5,4.332v8.663Zm16.338,0-7.261,4.192V145.9l2.157-1.245a.908.908,0,0,0-.908-1.573l-2.157,1.245L54.781,140l7.261-4.192a.484.484,0,0,1,.483,0L69.786,140l-1.669.964a.908.908,0,1,0,.908,1.573l1.669-.964v8.384A.485.485,0,0,1,70.453,150.375Z" transform="translate(-45.757 -117.714)"/>
      <path id="Path_1434" data-name="Path 1434" d="M277.817,19.49h15.5a5.978,5.978,0,0,0,4.455-1.894,6.049,6.049,0,0,0,.12-8.107A5.975,5.975,0,0,0,294.677,7.6a.717.717,0,0,1-.546-.512,9.747,9.747,0,0,0-17.339-2.969.756.756,0,0,1-.484.3,7.58,7.58,0,0,0-6.195,7.554A7.678,7.678,0,0,0,277.817,19.49ZM276.641,6.213a2.563,2.563,0,0,0,1.633-1.04,7.931,7.931,0,0,1,14.109,2.413,2.539,2.539,0,0,0,1.906,1.793A4.172,4.172,0,0,1,296.53,10.7h0a4.237,4.237,0,0,1-.1,5.677,4.164,4.164,0,0,1-3.113,1.3h-15.5a5.856,5.856,0,0,1-5.888-5.713,5.767,5.767,0,0,1,4.712-5.748Z" transform="translate(-237.415)"/>
    </g>
  </g>
</svg>
