<svg xmlns="http://www.w3.org/2000/svg" width="587.234" height="437.56" viewBox="0 0 587.234 437.56">
  <g id="heroImg" transform="translate(0 -55)">
    <g id="freepik--background-complete--inject-6" transform="translate(0 55)">
      <rect id="Rectangle_380" data-name="Rectangle 380" width="587.234" height="0.294" transform="translate(0 384.521)" fill="#ebebeb"/>
      <rect id="Rectangle_381" data-name="Rectangle 381" width="38.898" height="0.294" transform="translate(489.495 403.418)" fill="#ebebeb"/>
      <rect id="Rectangle_382" data-name="Rectangle 382" width="10.206" height="0.294" transform="translate(378.801 406.613)" fill="#ebebeb"/>
      <rect id="Rectangle_383" data-name="Rectangle 383" width="22.538" height="0.294" transform="translate(465.783 392.519)" fill="#ebebeb"/>
      <rect id="Rectangle_384" data-name="Rectangle 384" width="50.725" height="0.294" transform="translate(61.613 394.492)" fill="#ebebeb"/>
      <rect id="Rectangle_385" data-name="Rectangle 385" width="7.434" height="0.294" transform="translate(122.802 394.492)" fill="#ebebeb"/>
      <rect id="Rectangle_386" data-name="Rectangle 386" width="110.024" height="0.294" transform="translate(154.407 399.449)" fill="#ebebeb"/>
      <path id="Path_2015" data-name="Path 2015" d="M271.683,387.14H44.9a6.706,6.706,0,0,1-6.694-6.706V61.647A6.706,6.706,0,0,1,44.9,55H271.683a6.706,6.706,0,0,1,6.706,6.706V380.434A6.706,6.706,0,0,1,271.683,387.14ZM44.9,55.235a6.413,6.413,0,0,0-6.4,6.413V380.434a6.413,6.413,0,0,0,6.4,6.413H271.683a6.424,6.424,0,0,0,6.413-6.413V61.647a6.424,6.424,0,0,0-6.413-6.413Z" transform="translate(6.666 -55)" fill="#ebebeb"/>
      <path id="Path_2016" data-name="Path 2016" d="M488,387.14H261.206a6.718,6.718,0,0,1-6.706-6.706V61.647A6.718,6.718,0,0,1,261.206,55H488a6.706,6.706,0,0,1,6.683,6.647V380.434A6.706,6.706,0,0,1,488,387.14Zm-226.79-331.9a6.424,6.424,0,0,0-6.413,6.413V380.434a6.424,6.424,0,0,0,6.413,6.413H488a6.424,6.424,0,0,0,6.413-6.413V61.647A6.424,6.424,0,0,0,488,55.235Z" transform="translate(44.402 -55)" fill="#ebebeb"/>
      <path id="Path_2017" data-name="Path 2017" d="M361.509,101.754a5.731,5.731,0,0,0-5.79-5.743,5.943,5.943,0,0,0-1.656.235,12.43,12.43,0,0,0,.129-1.762,12.156,12.156,0,0,0-12.109-12.156,12.85,12.85,0,0,0-2.243.2,10.629,10.629,0,0,0-19.708,5.379h-.176a9.807,9.807,0,0,0,0,19.6h35.962a5.755,5.755,0,0,0,5.59-5.755Z" transform="translate(54.171 -51.088)" fill="#f0f0f0"/>
      <path id="Path_2018" data-name="Path 2018" d="M338.41,107.113V95.92h-9.126v11.193H321.85l12,10.147,12-10.147Z" transform="translate(56.153 -47.861)" fill="#e0e0e0"/>
      <path id="Path_2019" data-name="Path 2019" d="M216.956,120.234a12.2,12.2,0,0,0-12.191-12.2,12.39,12.39,0,0,0-3.523.517,24.572,24.572,0,0,0,.282-3.747,25.838,25.838,0,0,0-25.838-25.838,25.525,25.525,0,0,0-4.762.447,22.573,22.573,0,0,0-41.852,11.415h-.376a20.812,20.812,0,1,0,0,41.611h76.4A12.191,12.191,0,0,0,216.956,120.234Z" transform="translate(18.736 -52.632)" fill="#f0f0f0"/>
      <path id="Path_2020" data-name="Path 2020" d="M148.347,116.56v23.783h19.39V116.56h15.8l-25.5-21.54L132.55,116.56Z" transform="translate(23.126 -48.018)" fill="#e0e0e0"/>
      <path id="Path_2021" data-name="Path 2021" d="M208.97,167.881V135.9H306.9v31.664" transform="translate(36.459 -40.885)" fill="none" stroke="#e6e6e6" stroke-miterlimit="10" stroke-width="1"/>
      <line id="Line_11" data-name="Line 11" y2="62.035" transform="translate(295.837 64.878)" fill="none" stroke="#e6e6e6" stroke-miterlimit="10" stroke-width="1"/>
      <rect id="Rectangle_387" data-name="Rectangle 387" width="36.103" height="22.609" rx="1.19" transform="translate(277.797 52.698)" fill="#f0f0f0"/>
      <rect id="Rectangle_388" data-name="Rectangle 388" width="33.602" height="19.05" rx="0.42" transform="translate(279.042 55.353)" fill="#e0e0e0"/>
      <rect id="Rectangle_389" data-name="Rectangle 389" width="36.103" height="22.609" rx="1.19" transform="translate(227.377 124.094)" fill="#f0f0f0"/>
      <rect id="Rectangle_390" data-name="Rectangle 390" width="33.602" height="19.05" rx="0.42" transform="translate(228.622 126.749)" fill="#e0e0e0"/>
      <rect id="Rectangle_391" data-name="Rectangle 391" width="36.103" height="22.609" rx="1.19" transform="translate(277.797 124.094)" fill="#f0f0f0"/>
      <rect id="Rectangle_392" data-name="Rectangle 392" width="33.602" height="19.05" rx="0.42" transform="translate(279.042 126.749)" fill="#e0e0e0"/>
      <rect id="Rectangle_393" data-name="Rectangle 393" width="36.103" height="22.609" rx="1.19" transform="translate(325.387 124.094)" fill="#f0f0f0"/>
      <rect id="Rectangle_394" data-name="Rectangle 394" width="33.602" height="19.05" rx="0.42" transform="translate(326.632 126.749)" fill="#e0e0e0"/>
      <rect id="Rectangle_395" data-name="Rectangle 395" width="14.657" height="14.657" rx="0.81" transform="translate(285.473 95.017) rotate(-45)" fill="#e0e0e0"/>
      <rect id="Rectangle_396" data-name="Rectangle 396" width="25.545" height="15.303" rx="0.87" transform="translate(80.111 79.453)" fill="#e0e0e0" opacity="0.8"/>
      <rect id="Rectangle_397" data-name="Rectangle 397" width="20.659" height="11.686" rx="0.87" transform="translate(67.062 112.373)" fill="#e0e0e0"/>
      <rect id="Rectangle_398" data-name="Rectangle 398" width="20.659" height="11.686" rx="0.87" transform="translate(98.409 112.373)" fill="#e0e0e0"/>
      <rect id="Rectangle_399" data-name="Rectangle 399" width="10.84" height="9.983" rx="0.87" transform="translate(88.954 137.107)" fill="#e0e0e0"/>
      <rect id="Rectangle_400" data-name="Rectangle 400" width="10.84" height="9.983" rx="0.87" transform="translate(102.719 137.107)" fill="#e0e0e0"/>
      <rect id="Rectangle_401" data-name="Rectangle 401" width="10.84" height="9.983" rx="0.87" transform="translate(116.496 137.107)" fill="#e0e0e0"/>
      <rect id="Rectangle_402" data-name="Rectangle 402" width="10.84" height="9.983" rx="0.87" transform="translate(57.091 137.107)" fill="#e0e0e0"/>
      <rect id="Rectangle_403" data-name="Rectangle 403" width="10.84" height="9.983" rx="0.87" transform="translate(72.03 137.107)" fill="#e0e0e0"/>
      <path id="Path_2022" data-name="Path 2022" d="M96.116,153.3h1.174v-8.221H82.023v-9.4H80.848v9.4H65.58V153.3h1.174V146.25H96.116Z" transform="translate(11.442 -40.924)" fill="#e0e0e0"/>
      <path id="Path_2023" data-name="Path 2023" d="M67.848,167.727H52.58V173.6h1.174v-4.7H67.848v4.7h1.174V160.68H67.848Z" transform="translate(9.174 -36.562)" fill="#e0e0e0"/>
      <path id="Path_2024" data-name="Path 2024" d="M94.848,168.9V160.68H93.674V168.9H79.58v4.7h1.174v-3.523H93.674V173.6h1.174v-3.523h12.919V173.6h1.174v-4.7Z" transform="translate(13.884 -36.562)" fill="#e0e0e0"/>
      <path id="Path_2025" data-name="Path 2025" d="M381,129.09v8.48l4.346.411a22.692,22.692,0,0,0,3.242,7.8l-2.8,3.371,5.966,5.966,3.371-2.8a22.468,22.468,0,0,0,7.8,3.242l.388,4.322h8.433l.411-4.346a22.467,22.467,0,0,0,7.8-3.242l3.371,2.8,5.966-5.966-2.783-3.336a22.693,22.693,0,0,0,3.242-7.8l4.346-.411v-8.433l-4.346-.411a22.537,22.537,0,0,0-3.242-7.787l2.8-3.371-5.966-5.966-3.371,2.783a22.692,22.692,0,0,0-7.8-3.242l-.411-4.346h-8.444l-.411,4.346a22.691,22.691,0,0,0-7.8,3.242l-3.371-2.783-5.966,5.966,2.8,3.371a22.539,22.539,0,0,0-3.242,7.787Zm26.555-7.2a11.407,11.407,0,1,1-.012,0Z" transform="translate(66.473 -45.961)" fill="#f5f5f5"/>
      <path id="Path_2026" data-name="Path 2026" d="M389.264,183.884a17.7,17.7,0,0,0,6.107-2.549l2.643,2.2,4.7-4.7-2.185-2.643a17.769,17.769,0,0,0,2.537-6.107l3.406-.329v-6.612l-3.406-.317a17.676,17.676,0,0,0-2.537-6.107l2.185-2.643-4.7-4.7-2.643,2.185a17.676,17.676,0,0,0-6.107-2.537l-.317-3.406h-6.612l-.317,3.406a17.676,17.676,0,0,0-6.107,2.537l-2.654-2.138-4.7,4.7,2.184,2.643a17.675,17.675,0,0,0-2.537,6.107l-3.406.317V169.8l3.406.329a17.771,17.771,0,0,0,2.537,6.107l-2.185,2.619,4.7,4.7,2.643-2.2a17.7,17.7,0,0,0,6.107,2.549l.317,3.394h6.612Zm-12.579-17.406a8.961,8.961,0,1,1,8.961,8.949,8.961,8.961,0,0,1-8.961-8.949Z" transform="translate(63.646 -39.19)" fill="#f5f5f5"/>
      <path id="Path_2027" data-name="Path 2027" d="M376.873,152.181l2.22,1.832,3.934-3.923-1.844-2.22a14.822,14.822,0,0,0,2.138-5.132l2.854-.27v-5.544l-2.854-.27a14.822,14.822,0,0,0-2.138-5.132l1.844-2.22-3.888-3.923-2.22,1.832a14.869,14.869,0,0,0-5.121-2.138l-.27-2.854h-5.555l-.27,2.854a14.822,14.822,0,0,0-5.132,2.138l-2.22-1.832-3.923,3.923,1.832,2.22a14.811,14.811,0,0,0-2.126,5.132l-2.866.27v5.543l2.866.27a14.811,14.811,0,0,0,2.126,5.132l-1.879,2.278,3.923,3.923,2.22-1.832a14.587,14.587,0,0,0,5.132,2.126l.27,2.866h5.555l.27-2.866a14.621,14.621,0,0,0,5.121-2.184ZM361.183,139.7a7.517,7.517,0,1,1,7.517,7.517A7.517,7.517,0,0,1,361.183,139.7Z" transform="translate(61.286 -43.272)" fill="#f5f5f5"/>
      <rect id="Rectangle_404" data-name="Rectangle 404" width="78.866" height="51.289" transform="translate(437.184 315.967)" fill="#f5f5f5"/>
      <rect id="Rectangle_405" data-name="Rectangle 405" width="73.087" height="39.11" transform="translate(440.062 325.586)" fill="#e0e0e0"/>
      <rect id="Rectangle_406" data-name="Rectangle 406" width="54.073" height="1.679" transform="translate(446.016 331.435)" fill="#f5f5f5"/>
      <rect id="Rectangle_407" data-name="Rectangle 407" width="25.944" height="1.679" transform="translate(446.016 336.579)" fill="#f5f5f5"/>
      <rect id="Rectangle_408" data-name="Rectangle 408" width="32.674" height="1.679" transform="translate(446.016 341.735)" fill="#f5f5f5"/>
      <rect id="Rectangle_409" data-name="Rectangle 409" width="11.51" height="1.679" transform="translate(446.016 346.891)" fill="#f5f5f5"/>
      <rect id="Rectangle_410" data-name="Rectangle 410" width="7.458" height="1.679" transform="translate(446.016 352.047)" fill="#f5f5f5"/>
      <rect id="Rectangle_411" data-name="Rectangle 411" width="56.116" height="34.612" transform="translate(56.151 315.931) rotate(-0.26)" fill="#ebebeb"/>
      <path id="Path_2028" data-name="Path 2028" d="M67.834,348.645a1.175,1.175,0,0,1-.693-.223l-10.23-7.481a1.177,1.177,0,0,1-.012-1.891l10.171-7.575a1.176,1.176,0,1,1,1.4,1.891l-8.891,6.624,8.949,6.53a1.174,1.174,0,0,1-.693,2.126Z" transform="translate(9.845 -6.804)" fill="#fafafa"/>
      <path id="Path_2029" data-name="Path 2029" d="M77.644,348.583a1.171,1.171,0,0,1-.7-2.114l8.891-6.624-8.949-6.53a1.176,1.176,0,0,1,1.4-1.891l10.23,7.47a1.177,1.177,0,0,1,.012,1.891L78.349,348.36A1.175,1.175,0,0,1,77.644,348.583Z" transform="translate(13.33 -6.813)" fill="#fafafa"/>
      <path id="Path_2030" data-name="Path 2030" d="M69.694,348.639a1.182,1.182,0,0,1-1.1-1.562L73.863,332a1.176,1.176,0,0,1,2.22.775l-5.273,15.08A1.174,1.174,0,0,1,69.694,348.639Z" transform="translate(11.955 -6.81)" fill="#fafafa"/>
    </g>
    <g id="freepik--Shadow--inject-6" transform="translate(65.899 465.97)">
      <ellipse id="freepik--path--inject-6" cx="227.718" cy="13.295" rx="227.718" ry="13.295" fill="#f5f5f5"/>
    </g>
    <g id="freepik--Ladder--inject-6" transform="translate(357.485 411.287)">
      <path id="Path_2031" data-name="Path 2031" d="M334.38,425.878h8.632L354.757,361h-8.632Z" transform="translate(-299.146 -357.899)" fill="#263238"/>
      <path id="Path_2032" data-name="Path 2032" d="M334.38,425.878h8.632L354.757,361h-8.632Z" transform="translate(-299.146 -357.899)" fill="#fff" opacity="0.2"/>
      <path id="Path_2033" data-name="Path 2033" d="M334.38,425.878h6.283L352.408,361h-6.283Z" transform="translate(-299.146 -357.899)" fill="#fff" opacity="0.2"/>
      <path id="Path_2034" data-name="Path 2034" d="M313.973,378H348.49a1.891,1.891,0,0,0,1.9-1.9h0a1.891,1.891,0,0,0-1.9-1.9H313.973a1.891,1.891,0,0,0-1.9,1.9h0a1.891,1.891,0,0,0,1.9,1.9Z" transform="translate(-303.038 -355.598)" fill="#263238"/>
      <path id="Path_2035" data-name="Path 2035" d="M310.7,396.5h34.529a1.914,1.914,0,0,0,1.9-1.914h0a1.914,1.914,0,0,0-1.9-1.9H310.7a1.914,1.914,0,0,0-1.9,1.9h0a1.914,1.914,0,0,0,1.9,1.914Z" transform="translate(-303.609 -352.372)" fill="#263238"/>
      <path id="Path_2036" data-name="Path 2036" d="M304.38,425.878h8.632L324.757,361h-8.632Z" transform="translate(-304.38 -357.899)" fill="#263238"/>
      <path id="Path_2037" data-name="Path 2037" d="M304.38,425.878h8.632L324.757,361h-8.632Z" transform="translate(-304.38 -357.899)" fill="#fff" opacity="0.2"/>
      <path id="Path_2038" data-name="Path 2038" d="M304.38,425.878h6.283L322.408,361h-6.283Z" transform="translate(-304.38 -357.899)" fill="#fff" opacity="0.2"/>
      <path id="Path_2039" data-name="Path 2039" d="M375.757,425.878h-8.632L355.38,361h8.632Z" transform="translate(-295.482 -357.899)" fill="#263238"/>
      <path id="Path_2040" data-name="Path 2040" d="M375.757,425.878h-8.632L355.38,361h8.632Z" transform="translate(-295.482 -357.899)" fill="#fff" opacity="0.4"/>
      <path id="Path_2041" data-name="Path 2041" d="M373.408,425.878h-6.283L355.38,361h6.283Z" transform="translate(-295.482 -357.899)" fill="#fff" opacity="0.2"/>
      <path id="Path_2042" data-name="Path 2042" d="M365.232,378H330.7a1.9,1.9,0,0,1-1.9-1.9h0a1.9,1.9,0,0,1,1.9-1.9h34.529a1.9,1.9,0,0,1,1.9,1.9h0A1.9,1.9,0,0,1,365.232,378Z" transform="translate(-300.119 -355.598)" fill="#263238"/>
      <path id="Path_2043" data-name="Path 2043" d="M368.49,396.5H333.973a1.9,1.9,0,0,1-1.9-1.914h0a1.9,1.9,0,0,1,1.9-1.9H368.49a1.9,1.9,0,0,1,1.9,1.9h0a1.9,1.9,0,0,1-1.9,1.914Z" transform="translate(-299.549 -352.372)" fill="#263238"/>
      <path id="Path_2044" data-name="Path 2044" d="M365.232,378H330.7a1.9,1.9,0,0,1-1.9-1.9h0a1.9,1.9,0,0,1,1.9-1.9h34.529a1.9,1.9,0,0,1,1.9,1.9h0A1.9,1.9,0,0,1,365.232,378Z" transform="translate(-300.119 -355.598)" fill="#fff" opacity="0.2"/>
      <path id="Path_2045" data-name="Path 2045" d="M368.49,396.5H333.973a1.9,1.9,0,0,1-1.9-1.914h0a1.9,1.9,0,0,1,1.9-1.9H368.49a1.9,1.9,0,0,1,1.9,1.9h0a1.9,1.9,0,0,1-1.9,1.914Z" transform="translate(-299.549 -352.372)" fill="#fff" opacity="0.2"/>
      <path id="Path_2046" data-name="Path 2046" d="M345.757,425.878h-8.632L325.38,361h8.632Z" transform="translate(-300.716 -357.899)" fill="#263238"/>
      <path id="Path_2047" data-name="Path 2047" d="M345.757,425.878h-8.632L325.38,361h8.632Z" transform="translate(-300.716 -357.899)" fill="#fff" opacity="0.4"/>
      <path id="Path_2048" data-name="Path 2048" d="M343.408,425.878h-6.283L325.38,361h6.283Z" transform="translate(-300.716 -357.899)" fill="#fff" opacity="0.2"/>
      <rect id="Rectangle_412" data-name="Rectangle 412" width="65.148" height="6.189" rx="1.19" transform="translate(8.139)" fill="#263238"/>
      <rect id="Rectangle_413" data-name="Rectangle 413" width="26.496" height="6.189" rx="1.19" transform="translate(8.139)" fill="#fff" opacity="0.2"/>
    </g>
    <g id="freepik--Screen--inject-6" transform="translate(149.392 427.13)">
      <rect id="Rectangle_414" data-name="Rectangle 414" width="78.866" height="51.289" fill="#fb6d5d"/>
      <rect id="Rectangle_415" data-name="Rectangle 415" width="78.866" height="51.289" fill="#fff" opacity="0.6"/>
      <rect id="Rectangle_416" data-name="Rectangle 416" width="73.099" height="39.11" transform="translate(2.889 9.619)" fill="#fb6d5d"/>
      <rect id="Rectangle_417" data-name="Rectangle 417" width="54.073" height="1.679" transform="translate(8.844 15.456)" fill="#fff"/>
      <rect id="Rectangle_418" data-name="Rectangle 418" width="25.944" height="1.679" transform="translate(8.844 20.612)" fill="#fff"/>
      <rect id="Rectangle_419" data-name="Rectangle 419" width="32.674" height="1.679" transform="translate(8.844 25.768)" fill="#fff"/>
      <rect id="Rectangle_420" data-name="Rectangle 420" width="11.51" height="1.679" transform="translate(8.844 30.912)" fill="#fff"/>
      <rect id="Rectangle_421" data-name="Rectangle 421" width="7.458" height="1.679" transform="translate(8.844 36.068)" fill="#fff"/>
    </g>
    <g id="freepik--Device--inject-6" transform="translate(134.524 183.463)">
      <path id="Path_2049" data-name="Path 2049" d="M286.866,428.919h-64.2l10.864-85.349H276Z" transform="translate(-95.675 -133.117)" fill="#fb6d5d"/>
      <path id="Path_2050" data-name="Path 2050" d="M286.866,428.919h-64.2l7.434-58.395,3.441-26.954h42.445l5.074,39.768Z" transform="translate(-95.675 -133.117)" fill="#37474f"/>
      <path id="Path_2051" data-name="Path 2051" d="M279.96,383.338,229,370.524l3.441-26.954h42.445Z" transform="translate(-94.57 -133.117)" opacity="0.1"/>
      <path id="Path_2052" data-name="Path 2052" d="M424.987,164.38H122.28a7.74,7.74,0,0,0-7.74,7.752V377.053a7.74,7.74,0,0,0,7.74,7.74H424.987a7.74,7.74,0,0,0,7.74-7.74v-204.9a7.74,7.74,0,0,0-7.74-7.775Z" transform="translate(-114.54 -164.38)" fill="#fb6d5d"/>
      <path id="Path_2053" data-name="Path 2053" d="M424.987,164.38H122.28a7.74,7.74,0,0,0-7.74,7.752V377.053a7.74,7.74,0,0,0,7.74,7.74H424.987a7.74,7.74,0,0,0,7.74-7.74v-204.9a7.74,7.74,0,0,0-7.74-7.775Z" transform="translate(-114.54 -164.38)" fill="#37474f"/>
      <rect id="Rectangle_422" data-name="Rectangle 422" width="297.81" height="197.604" transform="translate(10.194 7.587)" fill="#fb6d5d"/>
      <rect id="Rectangle_423" data-name="Rectangle 423" width="110.271" height="6.307" rx="1.04" transform="translate(103.952 289.389)" fill="#fb6d5d"/>
      <rect id="Rectangle_424" data-name="Rectangle 424" width="110.271" height="6.307" rx="1.04" transform="translate(103.952 289.389)" fill="#37474f"/>
      <rect id="Rectangle_425" data-name="Rectangle 425" width="297.81" height="29.456" transform="translate(10.194 7.775)" opacity="0.2"/>
      <rect id="Rectangle_426" data-name="Rectangle 426" width="127.618" height="167.608" transform="translate(10.194 37.583)" fill="#fff" opacity="0.4"/>
      <path id="Path_2054" data-name="Path 2054" d="M338.2,232.78v2.936H335.26" transform="translate(-76.031 -152.446)" fill="none" stroke="#fff" stroke-miterlimit="10" stroke-width="1"/>
      <line id="Line_12" data-name="Line 12" x1="96.189" transform="translate(156.839 83.27)" fill="none" stroke="#fff" stroke-miterlimit="10" stroke-width="1" stroke-dasharray="5.284 5.284"/>
      <path id="Path_2055" data-name="Path 2055" d="M245.876,235.716H242.94V232.78" transform="translate(-92.138 -152.446)" fill="none" stroke="#fff" stroke-miterlimit="10" stroke-width="1"/>
      <line id="Line_13" data-name="Line 13" y1="50.537" transform="translate(150.802 24.476)" fill="none" stroke="#fff" stroke-miterlimit="10" stroke-width="1" stroke-dasharray="4.529 4.529"/>
      <path id="Path_2056" data-name="Path 2056" d="M242.94,183.4V180.46h2.936" transform="translate(-92.138 -161.575)" fill="none" stroke="#fff" stroke-miterlimit="10" stroke-width="1"/>
      <line id="Line_14" data-name="Line 14" x2="96.189" transform="translate(159.939 18.885)" fill="none" stroke="#fff" stroke-miterlimit="10" stroke-width="1" stroke-dasharray="5.284 5.284"/>
      <path id="Path_2057" data-name="Path 2057" d="M335.26,180.46H338.2V183.4" transform="translate(-76.031 -161.575)" fill="none" stroke="#fff" stroke-miterlimit="10" stroke-width="1"/>
      <line id="Line_15" data-name="Line 15" y2="50.537" transform="translate(262.165 27.142)" fill="none" stroke="#fff" stroke-miterlimit="10" stroke-width="1" stroke-dasharray="4.529 4.529"/>
      <rect id="Rectangle_427" data-name="Rectangle 427" width="3.723" height="3.723" transform="translate(260.309 17.018)" fill="#fb6d5d" stroke="#fff" stroke-miterlimit="10" stroke-width="1"/>
      <rect id="Rectangle_428" data-name="Rectangle 428" width="3.723" height="3.723" transform="translate(260.309 81.414)" fill="#fb6d5d" stroke="#fff" stroke-miterlimit="10" stroke-width="1"/>
      <rect id="Rectangle_429" data-name="Rectangle 429" width="3.723" height="3.723" transform="translate(148.934 17.018)" fill="#fb6d5d" stroke="#fff" stroke-miterlimit="10" stroke-width="1"/>
      <rect id="Rectangle_430" data-name="Rectangle 430" width="3.723" height="3.723" transform="translate(148.934 81.414)" fill="#fb6d5d" stroke="#fff" stroke-miterlimit="10" stroke-width="1"/>
      <rect id="Rectangle_431" data-name="Rectangle 431" width="3.723" height="3.723" transform="translate(204.628 17.018)" fill="#fb6d5d" stroke="#fff" stroke-miterlimit="10" stroke-width="1"/>
      <rect id="Rectangle_432" data-name="Rectangle 432" width="3.723" height="3.723" transform="translate(204.628 81.414)" fill="#fb6d5d" stroke="#fff" stroke-miterlimit="10" stroke-width="1"/>
      <rect id="Rectangle_433" data-name="Rectangle 433" width="3.723" height="3.723" transform="translate(260.309 49.21)" fill="#fb6d5d" stroke="#fff" stroke-miterlimit="10" stroke-width="1"/>
      <rect id="Rectangle_434" data-name="Rectangle 434" width="3.723" height="3.723" transform="translate(148.934 49.21)" fill="#fb6d5d" stroke="#fff" stroke-miterlimit="10" stroke-width="1"/>
      <rect id="Rectangle_435" data-name="Rectangle 435" width="31.699" height="11.733" rx="1.89" transform="translate(222.574 40.507)" fill="#fff" opacity="0.7"/>
      <rect id="Rectangle_436" data-name="Rectangle 436" width="31.699" height="11.733" rx="1.89" transform="translate(175.595 40.507)" fill="#fff" opacity="0.7"/>
      <rect id="Rectangle_437" data-name="Rectangle 437" width="31.699" height="11.733" rx="1.89" transform="translate(115.121 183.311)" fill="#fff" opacity="0.7"/>
      <line id="Line_16" data-name="Line 16" x2="9.913" transform="translate(288.344 18.251)" fill="none" stroke="#fff" stroke-linecap="round" stroke-linejoin="round" stroke-width="1.5"/>
      <line id="Line_17" data-name="Line 17" x2="9.913" transform="translate(288.344 22.949)" fill="none" stroke="#fff" stroke-linecap="round" stroke-linejoin="round" stroke-width="1.5"/>
      <line id="Line_18" data-name="Line 18" x2="9.913" transform="translate(288.344 27.647)" fill="none" stroke="#fff" stroke-linecap="round" stroke-linejoin="round" stroke-width="1.5"/>
      <rect id="Rectangle_438" data-name="Rectangle 438" width="99.889" height="99.889" transform="translate(30.384 63.562)" fill="#fff" opacity="0.5"/>
      <line id="Line_19" data-name="Line 19" y2="86.171" transform="translate(72.195 71.725)" fill="none" stroke="#fb6d5d" stroke-miterlimit="10" stroke-width="1"/>
      <path id="Path_2058" data-name="Path 2058" d="M219.091,311.621h0A43.091,43.091,0,0,1,176,268.529h0a43.079,43.079,0,0,1,43.079-43.079h0" transform="translate(-103.817 -153.725)" fill="none" stroke="#fb6d5d" stroke-miterlimit="10" stroke-width="1"/>
      <rect id="Rectangle_439" data-name="Rectangle 439" width="3.723" height="3.723" transform="translate(113.418 69.869)" fill="#fff" stroke="#fb6d5d" stroke-miterlimit="10" stroke-width="1"/>
      <rect id="Rectangle_440" data-name="Rectangle 440" width="3.723" height="3.723" transform="translate(113.418 156.028)" fill="#fff" stroke="#fb6d5d" stroke-miterlimit="10" stroke-width="1"/>
      <rect id="Rectangle_441" data-name="Rectangle 441" width="3.723" height="3.723" transform="translate(70.339 112.949)" fill="#fff" stroke="#fb6d5d" stroke-miterlimit="10" stroke-width="1"/>
      <path id="Path_2059" data-name="Path 2059" d="M177.116,225.593a.963.963,0,1,1-.963-.963.975.975,0,0,1,.963.963Z" transform="translate(-103.958 -153.868)" fill="#fff" stroke="#fb6d5d" stroke-miterlimit="10" stroke-width="1"/>
      <path id="Path_2060" data-name="Path 2060" d="M177.116,298.963a.963.963,0,1,1-.286-.685.963.963,0,0,1,.286.685Z" transform="translate(-103.958 -141.067)" fill="#fff" stroke="#fb6d5d" stroke-miterlimit="10" stroke-width="1"/>
      <path id="Path_2061" data-name="Path 2061" d="M322.721,324.266H292.478a8.738,8.738,0,0,1-8.738-8.738h0a8.738,8.738,0,0,1,8.738-8.738h30.243a8.738,8.738,0,0,1,8.738,8.738h0A8.738,8.738,0,0,1,322.721,324.266Z" transform="translate(-85.02 -139.534)" fill="#fff" opacity="0.7"/>
      <path id="Path_2062" data-name="Path 2062" d="M353.713,258.782H260.284a1.914,1.914,0,0,1-1.914-1.914h0A1.9,1.9,0,0,1,260.284,255H353.7a1.9,1.9,0,0,1,1.914,1.9h0a1.914,1.914,0,0,1-1.9,1.879Z" transform="translate(-89.446 -148.57)" fill="#fff" opacity="0.7"/>
      <path id="Path_2063" data-name="Path 2063" d="M353.713,270.657H260.284a1.9,1.9,0,0,1-1.914-1.9h0a1.914,1.914,0,0,1,1.914-1.914H353.7a1.914,1.914,0,0,1,1.914,1.914h0A1.9,1.9,0,0,1,353.713,270.657Z" transform="translate(-89.446 -146.504)" fill="#fff" opacity="0.7"/>
      <path id="Path_2064" data-name="Path 2064" d="M348.479,282.567H290.284a1.914,1.914,0,0,1-1.914-1.9h0a1.914,1.914,0,0,1,1.914-1.914h58.183a1.914,1.914,0,0,1,1.914,1.914h0a1.914,1.914,0,0,1-1.9,1.9Z" transform="translate(-84.212 -144.426)" fill="#fff" opacity="0.7"/>
      <rect id="Rectangle_442" data-name="Rectangle 442" width="6.601" height="6.601" transform="translate(19.602 15.938)" opacity="0.4"/>
      <rect id="Rectangle_443" data-name="Rectangle 443" width="6.601" height="6.601" rx="1.44" transform="translate(32.427 15.938)" opacity="0.4"/>
      <rect id="Rectangle_444" data-name="Rectangle 444" width="6.601" height="6.601" rx="2.57" transform="translate(45.264 15.938)" opacity="0.4"/>
      <path id="Path_2065" data-name="Path 2065" d="M150.845,317.887v-2.572l-1.315-.117a7.258,7.258,0,0,0-.987-2.349l.846-1.022-1.82-1.82-1.022.846a7.258,7.258,0,0,0-2.349-.987l-.117-1.315h-2.572l-.129,1.315a7.3,7.3,0,0,0-2.349.987l-1.022-.846-1.82,1.82.846,1.022a6.789,6.789,0,0,0-.987,2.349l-1.327.117v2.572l1.327.129a6.824,6.824,0,0,0,.987,2.349l-.846,1.034,1.82,1.809,1.022-.846a6.823,6.823,0,0,0,2.349.987l.129,1.327h2.572l.117-1.327a6.789,6.789,0,0,0,2.349-.987l1.022.846,1.82-1.809-.846-1.034a7.047,7.047,0,0,0,.987-2.349Zm-8.092,2.2a3.523,3.523,0,1,1,3.523-3.523A3.523,3.523,0,0,1,142.753,320.083Z" transform="translate(-111.019 -139.227)" fill="#fff" opacity="0.9"/>
      <path id="Path_2066" data-name="Path 2066" d="M159.214,323.767v-1.973l-1.034-.106a5.414,5.414,0,0,0-.775-1.856l.658-.81-1.421-1.421-.8.669a5.475,5.475,0,0,0-1.867-.775l-.094-1.045h-2.02l-.094,1.045a5.475,5.475,0,0,0-1.867.775l-.8-.669-1.433,1.421.669.81a5.415,5.415,0,0,0-.775,1.856l-1.034.106V323.8l1.034.106a5.414,5.414,0,0,0,.775,1.856l-.669.81,1.433,1.421.8-.669a5.475,5.475,0,0,0,1.867.775l.094,1.034h2.02l.094-1.034a5.475,5.475,0,0,0,1.867-.775l.8.669,1.421-1.421-.658-.81a5.414,5.414,0,0,0,.775-1.856Zm-6.342,1.727a2.725,2.725,0,1,1,1.931-.8A2.736,2.736,0,0,1,152.872,325.493Z" transform="translate(-108.959 -137.849)" fill="#fff" opacity="0.6"/>
      <path id="Path_2067" data-name="Path 2067" d="M150.029,328.462v-1.691l-.869-.082a4.581,4.581,0,0,0-.646-1.562l.564-.669-1.174-1.174-.681.552a4.579,4.579,0,0,0-1.562-.646l-.082-.869h-1.715l-.082.869a4.58,4.58,0,0,0-1.562.646l-.681-.552-1.174,1.174.564.669a4.579,4.579,0,0,0-.646,1.562l-.881.082v1.691l.881.082a4.545,4.545,0,0,0,.646,1.574l-.564.669,1.174,1.174.681-.564a4.381,4.381,0,0,0,1.562.658l.082.869h1.691l.082-.869a4.38,4.38,0,0,0,1.562-.658l.681.564,1.174-1.174-.564-.669a4.545,4.545,0,0,0,.646-1.574Zm-5.32,1.445a2.29,2.29,0,1,1,1.658-.65A2.29,2.29,0,0,1,144.709,329.907Z" transform="translate(-110.203 -136.824)" fill="#fff" opacity="0.4"/>
      <path id="Path_2068" data-name="Path 2068" d="M337.18,179.89l4.98,13.318,8.327-8.339Z" transform="translate(-75.696 -161.674)" fill="#fb6d5d"/>
      <rect id="Rectangle_445" data-name="Rectangle 445" width="2.631" height="5.837" transform="translate(267.646 26.234) rotate(-45)" fill="#fb6d5d"/>
      <path id="Path_2069" data-name="Path 2069" d="M350.487,184.87l-13.307-4.98,4.98,13.318,3.242-3.242,2.055,2.067,1.856-1.856-2.055-2.067Z" transform="translate(-75.696 -161.674)" fill="#fff" opacity="0.4"/>
      <path id="Path_2070" data-name="Path 2070" d="M163.664,221.859l12.532,4.7-6.565-6.565a1.28,1.28,0,0,1-1.539-.2,1.3,1.3,0,0,1,1.832-1.832,1.28,1.28,0,0,1,.2,1.539l6.565,6.565-4.7-12.532-4.158.916-.153-1.492-.787-.787-4.6,4.6.787.787,1.5.153Z" transform="translate(-106.209 -156.042)" fill="#263238"/>
      <path id="Path_2071" data-name="Path 2071" d="M163.664,221.859l12.532,4.7-6.565-6.565a1.28,1.28,0,0,1-1.539-.2,1.3,1.3,0,0,1,1.832-1.832,1.28,1.28,0,0,1,.2,1.539l6.565,6.565-4.7-12.532-4.158.916-.153-1.492-.787-.787-4.6,4.6.787.787,1.5.153Z" transform="translate(-106.209 -156.042)" fill="#fff" opacity="0.2"/>
      <g id="Group_2049" data-name="Group 2049" transform="translate(9.607 7.587)" opacity="0.1">
        <path id="Path_2072" data-name="Path 2072" d="M166.857,170.84,122.72,335.759V170.84Z" transform="translate(-122.72 -170.84)" fill="#fff"/>
        <path id="Path_2073" data-name="Path 2073" d="M215.978,170.84l-52.886,197.6H126.66l52.875-197.6Z" transform="translate(-122.033 -170.84)" fill="#fff"/>
        <path id="Path_2074" data-name="Path 2074" d="M258.114,170.84l-52.886,197.6H188.75l52.886-197.6Z" transform="translate(-111.2 -170.84)" fill="#fff"/>
        <path id="Path_2075" data-name="Path 2075" d="M298.072,170.84l-52.886,197.6h-5.9l52.886-197.6Z" transform="translate(-102.382 -170.84)" fill="#fff"/>
      </g>
    </g>
    <g id="freepik--character-2--inject-6" transform="translate(408.834 179.551)">
      <path id="Path_2076" data-name="Path 2076" d="M444.6,208c4.169,4.8,25.38,45.663,21.281,55.2s-38.088-1.456-38.088-1.456l2.032-13.471s13.2.47,14.469-.787-17.864-20.354-17.864-20.354Z" transform="translate(-334.435 -152.857)" fill="#263238"/>
      <g id="Group_2050" data-name="Group 2050" transform="translate(91.971 55.143)" opacity="0.2">
        <path id="Path_2077" data-name="Path 2077" d="M465.86,263.2a5.144,5.144,0,0,1-2.478,2.513h0l-.681.305h-.094a5.217,5.217,0,0,1-.646.223,14.247,14.247,0,0,1-2.936.611l-.857.082c-.423,0-.846.059-1.28.07h-1.174c-11.392,0-27.964-5.344-27.964-5.344l2.032-13.471s13.2.47,14.469-.787c.305-.305-.6-1.668-2.138-3.523h0c-3.735-4.592-11.216-12.238-14.305-15.362l-1.4-1.409L444.6,208C448.772,212.757,469.983,253.616,465.86,263.2Z" transform="translate(-426.41 -208)" fill="#fff"/>
      </g>
      <path id="Path_2078" data-name="Path 2078" d="M463.2,264.1h0l-.681.305h-.094a5.207,5.207,0,0,1-.646.223,14.248,14.248,0,0,1-2.936.611l-.857.082c-.423,0-.846.059-1.28.07h-1.174c-11.392,0-27.964-5.344-27.964-5.344l2.032-13.471s14.869,1.257,16.137,0c.235-.493-1.409-2.161-3.841-4.287h0c-3.735-4.592-11.216-12.238-14.3-15.362l8.6-9.184,6.542-.7S457.214,240.482,463.2,264.1Z" transform="translate(-334.236 -151.28)" opacity="0.2"/>
      <path id="Path_2079" data-name="Path 2079" d="M405.842,207.051c-2.349,1.7-3.523,4.122-2.584,5.4l62.059,85.56c.928,1.28,3.594.928,5.943-.775s3.523-4.134,2.584-5.4l-62.059-85.572C410.857,205,408.2,205.336,405.842,207.051Z" transform="translate(-338.535 -153.294)" fill="#263238"/>
      <path id="Path_2080" data-name="Path 2080" d="M411.781,206.263l62.059,85.56c.928,1.268-.235,3.688-2.584,5.4s-5.015,2.044-5.931.775l-62.059-85.572a2.654,2.654,0,0,1,.223-2.842,6.871,6.871,0,0,1,1.174-1.539,8.5,8.5,0,0,1,1.175-1.01C408.2,205.347,410.853,204.995,411.781,206.263Z" transform="translate(-338.531 -153.293)" fill="#fff" opacity="0.7"/>
      <path id="Path_2081" data-name="Path 2081" d="M473.761,291.441c.928,1.268-.235,3.688-2.584,5.4s-5.015,2.044-5.931.775c-.517-.7.763-1.773,1.515-3.312L403.41,209.229a6.874,6.874,0,0,1,1.174-1.539l62.071,85.572a10.044,10.044,0,0,1,1.174-1.022C470.179,290.525,472.833,290.173,473.761,291.441Z" transform="translate(-338.451 -152.911)" opacity="0.3"/>
      <path id="Path_2082" data-name="Path 2082" d="M399.178,205.151c-1.985,2.114-2.666,4.7-1.515,5.79l77.163,72.242c1.174,1.081,3.7.235,5.684-1.891s2.666-4.7,1.515-5.8l-77.163-72.242C403.712,202.18,401.163,203.037,399.178,205.151Z" transform="translate(-339.552 -153.767)" fill="#fb6d5d"/>
      <path id="Path_2083" data-name="Path 2083" d="M404.866,203.259,482.029,275.5c1.174,1.069.47,3.664-1.515,5.79s-4.533,2.96-5.684,1.891L397.667,210.94a2.69,2.69,0,0,1-.317-2.842,7.28,7.28,0,0,1,.869-1.738,9.868,9.868,0,0,1,.963-1.174C401.167,203.036,403.715,202.179,404.866,203.259Z" transform="translate(-339.555 -153.766)" fill="#fff" opacity="0.7"/>
      <path id="Path_2084" data-name="Path 2084" d="M481.989,274.967c1.174,1.069.47,3.664-1.515,5.79s-4.533,2.96-5.684,1.891c-.634-.6.423-1.879.869-3.523L397.31,207.588a7.281,7.281,0,0,1,.869-1.738L475.353,278.1a9.035,9.035,0,0,1,.951-1.174C478.29,274.733,480.838,273.887,481.989,274.967Z" transform="translate(-339.516 -153.232)" opacity="0.3"/>
      <path id="Path_2085" data-name="Path 2085" d="M417.947,420.1l-5.872.094c-5.978-28.082-10.206-62.834-12.837-89.048-.411-4.111-.787-8-1.174-11.627-.153-1.726-.305-3.382-.446-4.98-.7-7.881-1.174-14.094-1.48-17.993-.211-2.819-.317-4.369-.317-4.369h21.352l-.2,5.414-.7,17.864-.07,2.044-.446,11.8-.74,20.1C422.3,377.7,417.947,420.1,417.947,420.1Z" transform="translate(-339.776 -138.171)" fill="#ebb376"/>
      <path id="Path_2086" data-name="Path 2086" d="M461.726,418.527l-5.79,1.092c-11.592-28.974-22.479-66.076-29.561-92-1.092-4.017-2.1-7.775-3.007-11.181a1.881,1.881,0,0,0-.129-.505c-1.785-6.765-3.159-12.156-4.017-15.573l-1.022-4.146,20.906-3.617,1.174,8.809,1.75,12.919.341,2.537,1.174,8.82,3.183,23.654C458.8,376,461.726,418.527,461.726,418.527Z" transform="translate(-335.871 -138.097)" fill="#ebb376"/>
      <path id="Path_2087" data-name="Path 2087" d="M441.937,313.2l-18.721,2.091a1.881,1.881,0,0,0-.129-.505c-1.785-6.765-3.159-12.156-4.017-15.573l21.14,1.045Z" transform="translate(-335.719 -136.944)" opacity="0.2"/>
      <path id="Path_2088" data-name="Path 2088" d="M416.871,296.947l-.658,17.864-.07,2.044-18.087,2.008c-.153-1.726-.305-3.382-.446-4.98-.7-7.881-1.174-14.094-1.48-17.993Z" transform="translate(-339.722 -137.523)" opacity="0.2"/>
      <path id="Path_2089" data-name="Path 2089" d="M399.947,420.608a11.745,11.745,0,0,1,3.676-2.02h0s4-3.97,5.943-15.926l5.238-1.374a4.487,4.487,0,0,1,4.768,1.867,2.5,2.5,0,0,1,.329.693,30.683,30.683,0,0,1,.564,3.888,108.225,108.225,0,0,1,.082,13.131H419.6l-.376-8.221c-.141-2.807-2.29.482-2.9,3.523s-1.914,6.213-8.045,6.366C401.11,422.64,398.138,422.358,399.947,420.608Z" transform="translate(-339.146 -119.156)" fill="#263238"/>
      <path id="Path_2090" data-name="Path 2090" d="M418.4,404.138c.341-2.8.446-7.657.446-7.657L407.2,397.772s1.409,5.532.247,9.689C413.319,405.852,418.4,404.138,418.4,404.138Z" transform="translate(-337.79 -119.973)" fill="#263238"/>
      <path id="Path_2091" data-name="Path 2091" d="M440.307,420.607a11.746,11.746,0,0,1,3.676-2.008h0s4-3.97,5.931-15.926l5.25-1.374a4.487,4.487,0,0,1,4.768,1.867,2.5,2.5,0,0,1,.329.693,30.683,30.683,0,0,1,.564,3.888,107.454,107.454,0,0,1,.07,13.13H460l-.376-8.221c-.141-2.807-2.29.482-2.9,3.523s-1.914,6.213-8.057,6.366C441.47,422.638,438.5,422.356,440.307,420.607Z" transform="translate(-332.104 -119.154)" fill="#263238"/>
      <path id="Path_2092" data-name="Path 2092" d="M458.753,404.138c.352-2.8.458-7.657.458-7.657l-11.651,1.292s1.409,5.532.247,9.689C453.679,405.852,458.753,404.138,458.753,404.138Z" transform="translate(-330.749 -119.973)" fill="#263238"/>
      <path id="Path_2093" data-name="Path 2093" d="M448.551,317.184l-22.162,2.83-.857.106-4.557-16.7-1.174,17.9-23.748-1.245c-10.57-62.094,7.5-76.763,7.5-76.763l32.216,6.483c14.587,24.8,11.122,53.626,11.122,53.626Z" transform="translate(-340.314 -146.697)" fill="#fb6d5d"/>
      <path id="Path_2094" data-name="Path 2094" d="M414.988,178.1c0,2.443-1.081,4.416-2.349,4.416s-2.419-1.973-2.419-4.416,1.081-4.416,2.419-4.416S414.988,175.653,414.988,178.1Z" transform="translate(-337.263 -158.845)" fill="none" stroke="#263238" stroke-linecap="round" stroke-linejoin="round" stroke-width="0.5"/>
      <path id="Path_2095" data-name="Path 2095" d="M430.551,194.432a1.61,1.61,0,0,1-.282.211,12.767,12.767,0,0,1-4.5,2.2c-4.757,1.1-8.01.446-10.136-1.7h0c-2.971-3.23-3.711-8.949-3.289-15.855a26.119,26.119,0,0,1,1.5-8.057s0-.106,0-.129a1.84,1.84,0,0,1,.117-.294,9.4,9.4,0,0,1,6.929-5.743,19.017,19.017,0,0,1,4.075-.458C438.443,164.494,440.862,186.786,430.551,194.432Z" transform="translate(-336.911 -160.429)" fill="#ebb376"/>
      <path id="Path_2096" data-name="Path 2096" d="M429.764,190.362a12.449,12.449,0,0,1-4.5,2.008c-4.757,1.1-8.01.294-10.136-1.891a13.424,13.424,0,0,0,8.538-.7,7.047,7.047,0,0,1,6.1.587Z" transform="translate(-336.407 -156.113)" opacity="0.2"/>
      <path id="Path_2097" data-name="Path 2097" d="M430.793,202.924c.834,3.829-4.134,5.391-4.134,5.391-8.116-3.523-9.619-7.787-9.619-7.787,6.777-3.523,4.815-13.518,4.815-13.518l1.374.681,9.666,1.891s-2.678,5.144-3.03,6.319h0C428.033,202.067,430.793,202.924,430.793,202.924Z" transform="translate(-336.073 -156.519)" fill="#ebb376"/>
      <path id="Path_2098" data-name="Path 2098" d="M413.6,171.68s-.74,9.4,8.221,13.495c0,0,3.84,9.807,9.49,9.936,7.716.188,14.5-10.77,11.839-21.939C439.664,158.678,417.713,157.5,413.6,171.68Z" transform="translate(-336.676 -160.944)" fill="#263238"/>
      <path id="Path_2099" data-name="Path 2099" d="M416.72,179.91c0-1.468,1.174-3.946,3.523-3.606s3.688,6.189-2.138,7.493C417.225,183.986,416.72,183,416.72,179.91Z" transform="translate(-336.129 -158.393)" fill="#ebb376"/>
      <path id="Path_2100" data-name="Path 2100" d="M430.471,161.755s-9-2.278-13.976,1.351c-5.814,4.228-8.022,8.6-1.174,15.386,0,0,15.115-4.9,20.142-3.864a53.874,53.874,0,0,1,8.621,2.5C445.175,167.146,435.5,159.711,430.471,161.755Z" transform="translate(-337.114 -161.049)" fill="#263238"/>
      <path id="Path_2101" data-name="Path 2101" d="M416.919,180.25s2.349,10.876-1.339,20.154c0,0,21.375,7.411,28.81,3.382s.622-17.547.305-25.345-3.7-19.32-15.01-16.736S416.919,180.25,416.919,180.25Z" transform="translate(-336.328 -160.999)" fill="#263238"/>
      <line id="Line_20" data-name="Line 20" x2="9.032" transform="translate(72.898 18.558)" fill="none" stroke="#263238" stroke-linecap="round" stroke-linejoin="round" stroke-width="0.5"/>
      <path id="Path_2102" data-name="Path 2102" d="M422.194,314.855l-.857.106-4.557-16.7s9.772-16.689,6.718-25.38C423.932,273.491,434.456,289.1,422.194,314.855Z" transform="translate(-336.119 -141.538)" opacity="0.2"/>
      <path id="Path_2103" data-name="Path 2103" d="M407.464,200.059s10.746-3.829,26.942.846,16.807,11.569,16.807,11.569-10.265,23.266-11.886,49.61l-42.21-1.574S392.079,223.326,407.464,200.059Z" transform="translate(-339.687 -154.5)" fill="#263238"/>
      <path id="Path_2104" data-name="Path 2104" d="M451.213,212.48s-10.265,23.266-11.886,49.61l-42.21-1.574a113.267,113.267,0,0,1-.775-12.919,125.928,125.928,0,0,1,1.174-18.9c1.409-9.748,4.31-20.154,9.948-28.681,0,0,10.746-3.829,26.942.846S451.213,212.48,451.213,212.48Z" transform="translate(-339.687 -154.507)" fill="#fff" opacity="0.2"/>
      <path id="Path_2105" data-name="Path 2105" d="M406.882,225.846s-1.75,10.711-10.57,17.312a125.92,125.92,0,0,1,1.174-18.9Z" transform="translate(-339.692 -150.02)" opacity="0.2"/>
      <path id="Path_2106" data-name="Path 2106" d="M368.653,201.766l-5.32-7.892s-.81-3.429-1.844-4.2S350.237,184.537,349,184.56s-1.174,7.963,0,9.314,7.681,4.24,9.4,4.533.869,0,.869,0l4.7,9.4Z" transform="translate(-348.101 -156.947)" fill="#ebb376"/>
      <path id="Path_2107" data-name="Path 2107" d="M414.19,200.807A231.3,231.3,0,0,0,381.3,217.789L364.122,194.3s-4.627,1.433-6.342,9.49c0,0,8.82,33.6,20.283,36.937s35.563-9.713,35.563-9.713S420.6,213.561,414.19,200.807Z" transform="translate(-346.412 -155.248)" fill="#263238"/>
      <path id="Path_2108" data-name="Path 2108" d="M414.19,200.807A231.3,231.3,0,0,0,381.3,217.789L364.122,194.3s-4.627,1.433-6.342,9.49c0,0,8.82,33.6,20.283,36.937s35.563-9.713,35.563-9.713S420.6,213.561,414.19,200.807Z" transform="translate(-346.412 -155.248)" fill="#fff" opacity="0.2"/>
      <path id="Path_2109" data-name="Path 2109" d="M415.06,198.581s3.747,26.825,15.62,27.905,17.194-18.792,15.186-21.14S428.555,198.4,415.06,198.581Z" transform="translate(-336.419 -154.502)" fill="#263238"/>
      <path id="Path_2110" data-name="Path 2110" d="M415.06,198.581s3.747,26.825,15.62,27.905,17.194-18.792,15.186-21.14S428.555,198.4,415.06,198.581Z" transform="translate(-336.419 -154.502)" fill="#fff" opacity="0.3"/>
    </g>
    <g id="freepik--character-1--inject-6" transform="translate(25.042 154.319)">
      <g id="freepik--group--inject-6">
        <path id="Path_2111" data-name="Path 2111" d="M55.36,411.664h8.7l.716-20.154h-8.7Z" transform="translate(-15.384 -95.608)" fill="#b97964"/>
        <path id="Path_2112" data-name="Path 2112" d="M65.729,407.81H55.159a.74.74,0,0,0-.74.6l-1.715,7.74a1.28,1.28,0,0,0,.987,1.527h.282c3.418-.059,5.872-.27,10.194-.27,2.654,0,10.57.282,14.282.282s4.122-3.606,2.631-3.935c-6.706-1.468-11.745-3.523-13.894-5.414A2.114,2.114,0,0,0,65.729,407.81Z" transform="translate(-15.852 -92.764)" fill="#263238"/>
        <path id="Path_2113" data-name="Path 2113" d="M64.323,409.122a.211.211,0,0,1-.153-.176.188.188,0,0,1,.094-.2c.317-.2,3.124-1.926,4.087-1.433a.611.611,0,0,1,.352.576,1.174,1.174,0,0,1-.435,1.1,2.525,2.525,0,0,1-1.668.446,10.76,10.76,0,0,1-2.278-.317Zm.6-.294a4.228,4.228,0,0,0,3.1-.153.845.845,0,0,0,.27-.74c0-.164-.07-.247-.129-.247a.54.54,0,0,0-.27-.059,8.515,8.515,0,0,0-2.971,1.2Z" transform="translate(-13.847 -92.866)" fill="#fb6d5d"/>
        <path id="Path_2114" data-name="Path 2114" d="M64.264,409.449a.211.211,0,0,1-.094-.188c0-.117.223-2.619,1.174-3.441a1.057,1.057,0,0,1,.869-.258.693.693,0,0,1,.669.54c.176.916-1.562,2.83-2.466,3.324h-.094Zm1.4-3.371A4.886,4.886,0,0,0,64.64,408.8c.893-.681,2-2.126,1.891-2.69,0,0,0-.211-.305-.211h-.094A.693.693,0,0,0,65.662,406.079Z" transform="translate(-13.847 -93.159)" fill="#fb6d5d"/>
        <path id="Path_2115" data-name="Path 2115" d="M56.026,391.52h8.7l-.376,10.394h-8.7Z" transform="translate(-15.333 -95.606)" opacity="0.2"/>
        <path id="Path_2116" data-name="Path 2116" d="M93.49,412.1l8.985.951,1.679-19.355-8.973-.951Z" transform="translate(-8.731 -95.393)" fill="#b97964"/>
        <path id="Path_2117" data-name="Path 2117" d="M103.87,407.57h-10.5a.763.763,0,0,0-.74.6l-1.715,7.752a1.268,1.268,0,0,0,.928,1.55h.282c3.418-.059,5.872-.27,10.206-.27,2.643,0,10.57.27,14.27.27s4.122-3.606,2.631-3.934c-6.706-1.456-11.745-3.523-13.894-5.414A2.173,2.173,0,0,0,103.87,407.57Z" transform="translate(-9.187 -92.806)" fill="#263238"/>
        <path id="Path_2118" data-name="Path 2118" d="M102.473,408.881a.211.211,0,0,1-.153-.176.176.176,0,0,1,.106-.2c.305-.2,3.112-1.926,4.075-1.421a.587.587,0,0,1,.352.564,1.245,1.245,0,0,1-.423,1.116,2.643,2.643,0,0,1-1.679.435,10.758,10.758,0,0,1-2.278-.317Zm.6-.282a4.228,4.228,0,0,0,3.1-.164.834.834,0,0,0,.27-.74c0-.164-.07-.235-.129-.235a.422.422,0,0,0-.258-.059,8.222,8.222,0,0,0-2.936,1.2Z" transform="translate(-7.191 -92.907)" fill="#fb6d5d"/>
        <path id="Path_2119" data-name="Path 2119" d="M102.426,409.22a.223.223,0,0,1-.106-.188c0-.129.223-2.619,1.233-3.441a1.174,1.174,0,0,1,.869-.27.681.681,0,0,1,.669.54c.176.928-1.562,2.842-2.466,3.324h-.094Zm1.386-3.382a4.85,4.85,0,0,0-1.022,2.713c.893-.669,2-2.126,1.891-2.69,0,0,0-.211-.305-.211h-.082a.763.763,0,0,0-.482.188Z" transform="translate(-7.19 -93.2)" fill="#fb6d5d"/>
        <path id="Path_2120" data-name="Path 2120" d="M95.061,392.74l8.973.951-.881,9.983-8.973-.951Z" transform="translate(-8.611 -95.393)" opacity="0.2"/>
        <path id="Path_2121" data-name="Path 2121" d="M60.063,241.05h46.192c4.381,23.971,18.122,108.779,8.221,184.392L98.843,423.5S100.288,323.192,86.5,286.091c-1.586,19.849-3.523,40.965-5.109,52.205-4.017,27.659-12.614,88.085-12.614,88.085H52.91s3.253-57.854,4.757-85.032C59.311,311.812,60.063,247.11,60.063,241.05Z" transform="translate(-15.811 -121.859)" fill="#263238"/>
        <path id="Path_2122" data-name="Path 2122" d="M109.764,402.333,90.42,399.456l.6-5.356,20.119,2.643Z" transform="translate(-9.267 -95.156)" fill="#fb6d5d"/>
        <path id="Path_2123" data-name="Path 2123" d="M70.878,399.826H52.11v-5.6l19.473-.364Z" transform="translate(-15.951 -95.198)" fill="#fb6d5d"/>
        <path id="Path_2124" data-name="Path 2124" d="M81.55,281.813a124.773,124.773,0,0,1,5.156,19.966C88,284.161,82.83,265.37,82.83,265.37Z" transform="translate(-10.814 -117.616)" opacity="0.2"/>
        <path id="Path_2125" data-name="Path 2125" d="M58.067,247.89l-1.057,5.579s32.31,4.181,52.4,4.064l-.7-3.829Z" transform="translate(-15.096 -120.665)" fill="#fb6d5d"/>
        <path id="Path_2126" data-name="Path 2126" d="M113.74,207.355s11.169,35.234,18.791,37.583,27.013-26.766,27.013-26.766,17.417-.164,18.193-1.351-4.522-13.459-5.79-13.471-16.443,5.7-17.018,6.659-17.993,17.617-18.792,17.124-7.423-21.434-7.423-21.434Z" transform="translate(-5.198 -128.436)" fill="#b97964"/>
        <path id="Path_2127" data-name="Path 2127" d="M154.7,214.385a4.211,4.211,0,0,0,.411-.106l-.2-.129a2.01,2.01,0,0,1-.211.235Z" transform="translate(1.948 -126.552)" fill="#b97964"/>
        <path id="Path_2128" data-name="Path 2128" d="M108.34,206.28l1.362,2.5,6.354,11.745,1.327,2.431,17.84-6.2s-7.423-27.694-9.995-30.536Z" transform="translate(-6.14 -131.425)" fill="#fb6d5d"/>
        <path id="Path_2129" data-name="Path 2129" d="M108.34,206.28l1.362,2.5,6.354,11.745,1.327,2.431,17.84-6.2s-7.423-27.694-9.995-30.536Z" transform="translate(-6.14 -131.425)" fill="#fff" opacity="0.4"/>
        <path id="Path_2130" data-name="Path 2130" d="M109.5,206.4l6.354,11.745c3.934-7.716,2.8-18.286,2.8-18.286Z" transform="translate(-5.938 -129.045)" opacity="0.2"/>
        <path id="Path_2131" data-name="Path 2131" d="M134.186,188.2a37.865,37.865,0,0,0-26.872-13.037c-17.476-.822-22.973.916-29.362,6.624C68.615,190.121,57,261.917,57,261.917a162.158,162.158,0,0,0,52.4,5.7s.211-19.966,6.518-33.367A372.4,372.4,0,0,0,134.186,188.2Z" transform="translate(-15.097 -133.388)" fill="#fb6d5d"/>
        <path id="Path_2132" data-name="Path 2132" d="M57,261.913a162.345,162.345,0,0,0,52.4,5.708s0-2.466.341-6.236c.141-1.785.352-3.876.646-6.131s.716-4.827,1.174-7.387c.282-1.374.611-2.76.963-4.134a55.037,55.037,0,0,1,3.335-9.5c.775-1.644,1.527-3.277,2.255-4.874,1.257-2.8,2.455-5.508,3.523-8.1,2.349-5.461,4.346-10.453,6.013-14.822,1.174-3.136,2.231-5.943,3.089-8.35.951-2.69,1.7-4.9,2.255-6.542.716-2.173,1.069-3.359,1.069-3.359a22.992,22.992,0,0,0-1.879-2.079,38.217,38.217,0,0,0-24.405-10.923H107.2c-13.318-.622-19.672.235-24.77,3.206a28.1,28.1,0,0,0-4.592,3.429,15.6,15.6,0,0,0-3.077,4.933,108.052,108.052,0,0,0-5.332,15.573l-.775,2.854c-1.174,4.357-2.278,9-3.335,13.694-.305,1.339-.6,2.678-.893,4-.435,2.044-.869,4.075-1.28,6.084-1.057,5.062-2.008,9.971-2.842,14.387-1.174,6.342-2.126,11.651-2.69,14.951C57.223,260.621,57,261.913,57,261.913Zm51.324-86.089a34.509,34.509,0,0,1,3.523.27c4.7.634,11.921,4.4,11.745,6.189s-2.924,6.342-9.948,5.238a17.476,17.476,0,0,1-6.812-2.842c-3.876-2.56-6.694-6.025-6.976-7.153-.352-1.351,4.2-1.809,8.48-1.68Z" transform="translate(-15.097 -133.385)" fill="#fff" opacity="0.4"/>
        <path id="Path_2133" data-name="Path 2133" d="M89.537,196.08s-9.255,22.4-11.157,41.012l25.028,3.195s11.228-30.266,13.553-39.732C116.961,200.531,96.972,198.535,89.537,196.08Z" transform="translate(-11.367 -129.705)" fill="#fb6d5d"/>
        <path id="Path_2134" data-name="Path 2134" d="M107.07,200.62l3.476.341L108,202.934Z" transform="translate(-6.362 -128.912)" fill="#fff" opacity="0.4"/>
        <path id="Path_2135" data-name="Path 2135" d="M95.47,180.222c1.891,5.4,8.926,7.869,12.614,8.221a6.272,6.272,0,0,0,6.694-3.617s-4.216-2.1-3.794-4.463a10.782,10.782,0,0,1,1.738-4.017,21.236,21.236,0,0,1,1.433-1.985L107.4,159.88C105.9,166.152,101.284,178.2,95.47,180.222Z" transform="translate(-8.386 -136.02)" fill="#b97964"/>
        <path id="Path_2136" data-name="Path 2136" d="M105.565,165.57c-3.218,7.047,1.327,11.9,3.852,13.753a10.782,10.782,0,0,1,1.738-4.017Z" transform="translate(-6.818 -135.028)" opacity="0.2"/>
        <path id="Path_2137" data-name="Path 2137" d="M126.3,149.679s2.161,11.933-4.064,16.713-6.859-17.511-6.859-17.511Z" transform="translate(-4.912 -137.939)" fill="#b97964"/>
        <path id="Path_2138" data-name="Path 2138" d="M126.3,149.679s2.161,11.933-4.064,16.713-6.859-17.511-6.859-17.511Z" transform="translate(-4.912 -137.939)" opacity="0.4"/>
        <path id="Path_2139" data-name="Path 2139" d="M106.143,176.5a10.876,10.876,0,0,0,12.6,3.864A12.121,12.121,0,0,0,125.5,174.5c.2-.364.376-.763.552-1.174,2.913-7.411,3.523-25.5-4.322-24.828-6.483.552-12.825-1.445-16.137,4.158a11.744,11.744,0,0,0-1.621,5.238C103.265,166.533,102.443,171.548,106.143,176.5Z" transform="translate(-7.008 -138.01)" fill="#b97964"/>
        <path id="Path_2140" data-name="Path 2140" d="M114.615,160.3c-.141.681.188,1.3.646,1.374s.9-.458,1.01-1.174-.2-1.3-.646-1.362S114.721,159.6,114.615,160.3Z" transform="translate(-5.051 -136.15)" fill="#263238"/>
        <path id="Path_2141" data-name="Path 2141" d="M121.3,161.255c-.141.681.2,1.3.646,1.374s.9-.458,1-1.174-.188-1.3-.646-1.374S121.4,160.6,121.3,161.255Z" transform="translate(-3.884 -135.986)" fill="#263238"/>
        <path id="Path_2142" data-name="Path 2142" d="M119.271,161.07a25.192,25.192,0,0,0,2.478,6.413,4.075,4.075,0,0,1-3.429.153Z" transform="translate(-4.399 -135.813)" fill="#a24e3f"/>
        <path id="Path_2143" data-name="Path 2143" d="M112.887,157.957a.411.411,0,0,0,.411-.106,3.335,3.335,0,0,1,2.807-.987.423.423,0,0,0,.493-.317.4.4,0,0,0-.317-.482h0a4.122,4.122,0,0,0-3.523,1.174.423.423,0,0,0,0,.587h0A.7.7,0,0,0,112.887,157.957Z" transform="translate(-5.39 -136.693)" fill="#263238"/>
        <path id="Path_2144" data-name="Path 2144" d="M124.89,159.659a.329.329,0,0,0,.235,0,.388.388,0,0,0,.27-.5h0a4.075,4.075,0,0,0-2.607-2.7.4.4,0,0,0-.505.282h0a.411.411,0,0,0,.282.505h0a3.336,3.336,0,0,1,2.044,2.173.4.4,0,0,0,.282.247Z" transform="translate(-3.71 -136.621)" fill="#263238"/>
        <path id="Path_2145" data-name="Path 2145" d="M113.68,166.92s1.445,3.1,4.393,2.983" transform="translate(-5.209 -134.792)" fill="none" stroke="#263238" stroke-linecap="round" stroke-linejoin="round" stroke-width="0.5"/>
        <path id="Path_2146" data-name="Path 2146" d="M112.355,148.23l.117,3.829a2.819,2.819,0,0,0-1.75,3.418c.916,3.289-1.351,8.057-3.97,9.8,0,0,0-1.386-1.174-1.174s-1.539,7.423.4,11.052c0,0-4.146-3.817-5.379-11.533-1.174-7.129-.951-11.651,0-15.068Z" transform="translate(-7.63 -138.053)" fill="#b97964"/>
        <path id="Path_2147" data-name="Path 2147" d="M112.355,148.23l.117,3.829a2.819,2.819,0,0,0-1.75,3.418c.916,3.289-1.351,8.057-3.97,9.8,0,0,0-1.386-1.174-1.174s-1.539,7.423.4,11.052c0,0-4.146-3.817-5.379-11.533-1.174-7.129-.951-11.651,0-15.068Z" transform="translate(-7.63 -138.053)" opacity="0.4"/>
        <path id="Path_2148" data-name="Path 2148" d="M100.4,154.334a39.791,39.791,0,0,0,12.532-.763c11.827-2.349,16.865,2,16.865,2a7.434,7.434,0,0,0,2.455-5.872c-.341-3.406-5.074-3.981-5.074-3.981s-1.421-3.841-4.557-5-6.283,1.75-6.283,1.75-3.911-3.782-8.468-2.7a6.835,6.835,0,0,0-5.461,6.647s-5.344.54-5.226,3.289S100.4,154.334,100.4,154.334Z" transform="translate(-8.088 -139.565)" fill="#263238"/>
        <ellipse id="Ellipse_53" data-name="Ellipse 53" cx="3.841" cy="4.428" rx="3.841" ry="4.428" transform="translate(106.639 20.301)" fill="none" stroke="#263238" stroke-linecap="round" stroke-linejoin="round" stroke-width="0.5"/>
        <path id="Path_2149" data-name="Path 2149" d="M128.026,161.838a3.876,3.876,0,1,1-3.84-4.428A4.169,4.169,0,0,1,128.026,161.838Z" transform="translate(-4.051 -136.451)" fill="none" stroke="#263238" stroke-linecap="round" stroke-linejoin="round" stroke-width="0.5"/>
        <path id="Path_2150" data-name="Path 2150" d="M118.65,161.116s1.245-.775,1.985.129" transform="translate(-4.341 -135.859)" fill="none" stroke="#263238" stroke-linecap="round" stroke-linejoin="round" stroke-width="0.5"/>
        <path id="Path_2151" data-name="Path 2151" d="M113.531,160.758l-6.73-.9a3.359,3.359,0,0,0-2.478.669l-.294.235" transform="translate(-6.892 -136.03)" fill="none" stroke="#263238" stroke-linecap="round" stroke-linejoin="round" stroke-width="0.5"/>
        <path id="Path_2152" data-name="Path 2152" d="M99.9,162.747a8.221,8.221,0,0,0,4.075,4.768c2.572,1.28,4.4-.881,4.146-3.594-.235-2.419-1.844-6.06-4.7-6.2a3.664,3.664,0,0,0-3.523,5.027Z" transform="translate(-7.659 -136.397)" fill="#b97964"/>
        <path id="Path_2153" data-name="Path 2153" d="M63.32,219.864c11.087-4.6,19.849-23.619,19.849-23.619l-6.3-3.805-8.55,6.871-.775,2.854c-1.174,4.357-2.278,9-3.335,13.694C63.907,217.2,63.614,218.537,63.32,219.864Z" transform="translate(-13.995 -130.34)" opacity="0.2"/>
        <path id="Path_2154" data-name="Path 2154" d="M115.31,218.553l19.12-7.023.552,1.621-19.132,6.812Z" transform="translate(-4.924 -127.009)" fill="#fb6d5d"/>
        <rect id="Rectangle_446" data-name="Rectangle 446" width="56.116" height="34.612" transform="translate(5.421 131.087) rotate(9.01)" fill="#fb6d5d"/>
        <path id="Path_2155" data-name="Path 2155" d="M44.3,262.26,33.04,268.1l8.9,9.032" transform="translate(-19.278 -118.158)" fill="none" stroke="#fff" stroke-linecap="round" stroke-linejoin="round" stroke-width="2"/>
        <path id="Path_2156" data-name="Path 2156" d="M51.79,278.9l11.251-5.837-8.891-9.032" transform="translate(-16.006 -117.849)" fill="none" stroke="#fff" stroke-linecap="round" stroke-linejoin="round" stroke-width="2"/>
        <line id="Line_21" data-name="Line 21" y1="14.035" x2="7.634" transform="translate(26.588 145.558)" fill="none" stroke="#fff" stroke-linecap="round" stroke-linejoin="round" stroke-width="2"/>
        <path id="Path_2157" data-name="Path 2157" d="M74.168,183.38s-20.894,20.964-23.736,25.04-8.292,49.257-8.292,49.257-1.174.4-1.245,1.374-.188,13.659,0,14.246,9.8,6.518,11.216,5.109,3.394-15.773,3.394-15.773l-5.074-4.956s5.872-33.273,9.6-38.663,18.9-16.924,18.9-16.924Z" transform="translate(-17.925 -131.92)" fill="#b97964"/>
        <path id="Path_2158" data-name="Path 2158" d="M87.919,176.19c3.042,6.448.728,20.025-4.886,24.817a164.422,164.422,0,0,1-18.791,13.471L54,201.054s10.9-10.641,17.5-16.771a29.82,29.82,0,0,1,16.419-8.092Z" transform="translate(-15.621 -133.175)" fill="#fb6d5d"/>
        <path id="Path_2159" data-name="Path 2159" d="M87.919,176.19c3.042,6.448.728,20.025-4.886,24.817a164.422,164.422,0,0,1-18.791,13.471L54,201.054s10.9-10.641,17.5-16.771a29.82,29.82,0,0,1,16.419-8.092Z" transform="translate(-15.621 -133.175)" fill="#fff" opacity="0.4"/>
        <path id="Path_2160" data-name="Path 2160" d="M54.188,196.63l-1.268,1.726,10.7,13.988,1.515-1.081Z" transform="translate(-15.809 -129.609)" fill="#fb6d5d"/>
      </g>
    </g>
  </g>
</svg>
