<svg id="instagram" xmlns="http://www.w3.org/2000/svg" width="25" height="25" viewBox="0 0 25 25">
  <g id="instagram-icon">
    <path id="Page-1" d="M25,12.5A12.5,12.5,0,1,1,12.5,0,12.5,12.5,0,0,1,25,12.5Z" fill="#ff4b57"/>
    <g id="Group_245" data-name="Group 245" transform="translate(6.35 6.446)">
      <path id="Shape" d="M12.55,9.363a3.138,3.138,0,1,0,3.2,3.138A3.175,3.175,0,0,0,12.55,9.363Zm0,5.147A2.01,2.01,0,1,1,14.6,12.5,2.039,2.039,0,0,1,12.55,14.51Z" transform="translate(-6.35 -6.446)" fill="#fff"/>
      <ellipse id="Oval" cx="0.725" cy="0.711" rx="0.725" ry="0.711" transform="translate(8.8 2.133)" fill="#fff"/>
      <path id="Shape-2" data-name="Shape" d="M17.75,7.451a3.6,3.6,0,0,0-2.625-1H9.975A3.392,3.392,0,0,0,6.35,10v5.024A3.491,3.491,0,0,0,7.4,17.647,3.692,3.692,0,0,0,10,18.6h5.1a3.735,3.735,0,0,0,2.625-.956,3.473,3.473,0,0,0,1.025-2.6V10A3.478,3.478,0,0,0,17.75,7.451Zm-.1,7.6a2.37,2.37,0,0,1-.725,1.789,2.615,2.615,0,0,1-1.825.638H10a2.615,2.615,0,0,1-1.825-.638A2.436,2.436,0,0,1,7.5,15.024V10a2.415,2.415,0,0,1,.675-1.789A2.573,2.573,0,0,1,10,7.574h5.15a2.522,2.522,0,0,1,1.825.662A2.5,2.5,0,0,1,17.65,10Z" transform="translate(-6.35 -6.446)" fill="#fff"/>
    </g>
  </g>
</svg>
