<svg xmlns="http://www.w3.org/2000/svg" width="159" height="50" viewBox="0 0 159 50">
  <g id="Group_1968" data-name="Group 1968" transform="translate(-73.5 -7)">
    <text id="a9alflous" transform="translate(98.5 44)" fill="#fff" font-size="34" font-family="SegoeUI-Italic, Segoe UI" font-style="italic"><tspan x="0" y="0">a9al</tspan><tspan y="0" fill="#fb6d5d">flous</tspan></text>
    <g id="Group_287" data-name="Group 287" transform="translate(73.5 24.834)">
      <path id="Icon_awesome-discourse" data-name="Icon awesome-discourse" d="M17.321,31.2c1.682,0,3.286-.373,11.748.694l-1.985-6.5A11.1,11.1,0,1,0,17.321,31.2Z" transform="translate(-6.223 -9)" fill="#fb6d5d"/>
      <path id="Icon_awesome-coins" data-name="Icon awesome-coins" d="M9.942,7.87V8.7c0,.685-1.67,1.243-3.728,1.243S2.485,9.385,2.485,8.7V7.87A7.061,7.061,0,0,0,6.214,8.7,7.061,7.061,0,0,0,9.942,7.87ZM3.728,2.485C1.67,2.485,0,1.928,0,1.243S1.67,0,3.728,0,7.456.557,7.456,1.243,5.786,2.485,3.728,2.485ZM9.942,5.833v1c0,.685-1.67,1.243-3.728,1.243S2.485,7.52,2.485,6.835v-1a6.253,6.253,0,0,0,3.728,1A6.253,6.253,0,0,0,9.942,5.833Zm-8.078.214C.751,5.831,0,5.431,0,4.971V4.142a4.768,4.768,0,0,0,1.864.67Zm4.35-2.94c2.058,0,3.728.7,3.728,1.553S8.272,6.214,6.214,6.214s-3.728-.7-3.728-1.553S4.155,3.107,6.214,3.107ZM1.955,4.2C.79,3.99,0,3.579,0,3.107V2.278a6.322,6.322,0,0,0,3.12.812A2.174,2.174,0,0,0,1.955,4.2Z" transform="translate(6.739 6.165)" fill="#fff"/>
    </g>
    <text id="Comparateur_de_prix_transparent_" data-name="Comparateur de prix transparent " transform="translate(103.5 55)" fill="#fff" font-size="7" font-family="Poppins-Light, Poppins" font-weight="300" letter-spacing="0.05em"><tspan x="0" y="0">Comparateur de prix transparent </tspan></text>
  </g>
</svg>
