<svg xmlns="http://www.w3.org/2000/svg" width="62" height="62" viewBox="0 0 62 62">
  <g id="monitoring" transform="translate(-1 -1)">
    <g id="Group_1963" data-name="Group 1963">
      <g id="Group_1950" data-name="Group 1950">
        <path id="Path_1559" data-name="Path 1559" d="M25.42,62H4V53.71A10.732,10.732,0,0,1,14.71,43a10.9,10.9,0,0,1,1.29.08,10.72,10.72,0,0,1,9.31,9.12L26,57l.03.08,4.81-2.19,1.98,4.46-4.38,2a7.323,7.323,0,0,1-3.02.65Z" fill="#fcd770"/>
      </g>
      <g id="Group_1951" data-name="Group 1951">
        <path id="Path_1560" data-name="Path 1560" d="M37.42,56.99c.55-1.15.58-1.35.58-1.56A2.433,2.433,0,0,0,35.57,53h-.04a2.357,2.357,0,0,0-1.01.22l-1.2.54A5.765,5.765,0,0,1,38.24,51H40a3.989,3.989,0,0,1,2,.54,4.225,4.225,0,0,1,.83.63A4.025,4.025,0,0,1,44,55a2.006,2.006,0,0,1-2,2H37.43Z" fill="#b4dd7f"/>
      </g>
      <g id="Group_1952" data-name="Group 1952">
        <path id="Path_1561" data-name="Path 1561" d="M33.32,53.76l-.01.01L32,54.36V47H42v4.54A3.989,3.989,0,0,0,40,51H38.24a5.765,5.765,0,0,0-4.92,2.76Z" fill="#aab2bd"/>
      </g>
      <g id="Group_1953" data-name="Group 1953">
        <path id="Path_1562" data-name="Path 1562" d="M62,39v4a4,4,0,0,1-4,4H23.05A10.662,10.662,0,0,0,16,43.08V40h-.32a3.186,3.186,0,0,0,2.25-.93L18,39Z" fill="#ccd1d9"/>
      </g>
      <g id="Group_1954" data-name="Group 1954">
        <path id="Path_1563" data-name="Path 1563" d="M58,13H21.94a9.959,9.959,0,0,1-5.4,7.91A4.013,4.013,0,0,1,18,24h3a2,2,0,0,1,2,2,2.015,2.015,0,0,1-2,2H18l.85,8.5c.01.1.01.21.01.31A3.2,3.2,0,0,1,18,39H62V17A4,4,0,0,0,58,13Z" fill="#69d6f4"/>
      </g>
      <g id="Group_1955" data-name="Group 1955">
        <circle id="Ellipse_37" data-name="Ellipse 37" cx="10" cy="10" r="10" transform="translate(38 3)" fill="#e6e9ed"/>
      </g>
      <g id="Group_1956" data-name="Group 1956">
        <path id="Path_1564" data-name="Path 1564" d="M27,29h8v6H27Z" fill="#fcd770"/>
      </g>
      <g id="Group_1957" data-name="Group 1957">
        <path id="Path_1565" data-name="Path 1565" d="M21.94,13a9.959,9.959,0,0,1-5.4,7.91A3.983,3.983,0,0,0,14,20H10a5.912,5.912,0,0,0-2.87.73A10,10,0,1,1,22,12,8.262,8.262,0,0,1,21.94,13Z" fill="#e6e9ed"/>
      </g>
      <g id="Group_1958" data-name="Group 1958">
        <path id="Path_1566" data-name="Path 1566" d="M10,35v5a8.779,8.779,0,0,1-6-8.33V28h6l-.94.94a3.621,3.621,0,0,0,0,5.12Z" fill="#656d78"/>
      </g>
      <g id="Group_1959" data-name="Group 1959">
        <path id="Path_1567" data-name="Path 1567" d="M18,24H15.24a2.009,2.009,0,0,0-1.79,1.1L12,28H4V26a6.015,6.015,0,0,1,3.13-5.27A5.912,5.912,0,0,1,10,20h4a4,4,0,0,1,4,4Z" fill="#ff826e"/>
      </g>
      <g id="Group_1960" data-name="Group 1960">
        <path id="Path_1568" data-name="Path 1568" d="M21,24a2,2,0,0,1,2,2,2.015,2.015,0,0,1-2,2H12l1.45-2.9A2.009,2.009,0,0,1,15.24,24H21Z" fill="#fc6e51"/>
      </g>
      <g id="Group_1961" data-name="Group 1961">
        <path id="Path_1569" data-name="Path 1569" d="M35.57,53A2.433,2.433,0,0,1,38,55.43c0,.21-.03.41-.58,1.56a2.324,2.324,0,0,1-.85.66l-3.75,1.7-1.98-4.46L32,54.36l1.31-.59.01-.01,1.2-.54A2.357,2.357,0,0,1,35.53,53Z" fill="#f0d0b4"/>
      </g>
      <g id="Group_1962" data-name="Group 1962">
        <path id="Path_1570" data-name="Path 1570" d="M10,40V35l-.94-.94a3.621,3.621,0,0,1,0-5.12L10,28h8l.85,8.5c.01.1.01.21.01.31A3.2,3.2,0,0,1,18,39l-.07.07a3.186,3.186,0,0,1-2.25.93H16v3.08A10.9,10.9,0,0,0,14.71,43a10.614,10.614,0,0,0-4.67,1.08L10,44Z" fill="#f0d0b4"/>
      </g>
    </g>
    <g id="Group_1964" data-name="Group 1964">
      <path id="Path_1571" data-name="Path 1571" d="M13,10.162,14.279,14H19V12H15.721L13,3.838,9.814,13.394,8.618,11H5v2H7.382l2.8,5.606Z"/>
      <path id="Path_1572" data-name="Path 1572" d="M58,48a5.006,5.006,0,0,0,5-5V17a5.006,5.006,0,0,0-4.046-4.9,10.992,10.992,0,0,0-21.9-.1H23A11,11,0,1,0,5.364,20.77,6.977,6.977,0,0,0,3,26v5.675a9.758,9.758,0,0,0,6,9.014V43.5A11.715,11.715,0,0,0,3,53.711V63H25.856v-.023a8.222,8.222,0,0,0,2.994-.72l8.136-3.7A3.408,3.408,0,0,0,37.842,58H42a3,3,0,0,0,2.816-2H60a3,3,0,0,0,0-6H54a1,1,0,0,1-1-1V48Zm0-2H23.488A11.783,11.783,0,0,0,17,42.235v-1.47A4.178,4.178,0,0,0,18.364,40H61v3A3,3,0,0,1,58,46ZM40,50H38.236A6.8,6.8,0,0,0,33,52.476V48h8v2.1A5,5,0,0,0,40,50ZM26.814,55.623l-.51-3.568A11.585,11.585,0,0,0,24.921,48H31v5.72ZM13.618,27l.724-1.447a.994.994,0,0,1,.9-.553H21a1,1,0,0,1,0,2ZM48,4a9,9,0,1,1-9,9A9.01,9.01,0,0,1,48,4ZM37.051,14a11,11,0,0,0,21.886.165A2.993,2.993,0,0,1,61,17V38H19.676a4.146,4.146,0,0,0,.168-1.6L19.1,29H21a3,3,0,0,0,0-6H18.9a4.965,4.965,0,0,0-.815-1.851A10.917,10.917,0,0,0,22.8,14ZM3,12a9,9,0,1,1,13.578,7.726A4.953,4.953,0,0,0,14,19H10a6.956,6.956,0,0,0-2.8.59A9,9,0,0,1,3,12ZM5,26a5.006,5.006,0,0,1,5-5h4a3,3,0,0,1,2.827,2H15.236a2.984,2.984,0,0,0-2.684,1.658L11.381,27H5Zm0,5.675V29H7.741A4.583,4.583,0,0,0,7,31.5a4.653,4.653,0,0,0,1.354,3.268L9,35.414v3.043a7.756,7.756,0,0,1-4-6.782Zm4.768,1.679A2.641,2.641,0,0,1,9,31.5a2.6,2.6,0,0,1,.768-1.854L10.415,29h6.68l.76,7.6a2.175,2.175,0,0,1-.629,1.762,2.2,2.2,0,0,1-1.545.64H13v2h2v1.013c-.1,0-.192-.014-.289-.014A11.634,11.634,0,0,0,11,42.613V34.586ZM28.022,60.437A6.286,6.286,0,0,1,19.4,56.52l-1.442-4.807-1.916.574,1.442,4.807A8.244,8.244,0,0,0,20.044,61H5V53.711a9.71,9.71,0,0,1,19.323-1.373l.593,4.147-1.33.6.828,1.82,5.921-2.692,1.171,2.634Zm8.137-3.7-2.831,1.287L32.157,55.39l2.778-1.263A1.5,1.5,0,0,1,35.566,54a1.433,1.433,0,0,1,.593,2.738ZM42,56H38.948A3.328,3.328,0,0,0,39,55.434a3.421,3.421,0,0,0-2.216-3.194A4.706,4.706,0,0,1,38.236,52H40a3,3,0,0,1,3,3,1,1,0,0,1-1,1Zm12-4h6a1,1,0,0,1,0,2H44.9A4.988,4.988,0,0,0,43,51.026V48h8v1a3,3,0,0,0,3,3Z"/>
      <path id="Path_1573" data-name="Path 1573" d="M57,42h2v2H57Z"/>
      <path id="Path_1574" data-name="Path 1574" d="M53,42h2v2H53Z"/>
      <path id="Path_1575" data-name="Path 1575" d="M49,42h2v2H49Z"/>
      <path id="Path_1576" data-name="Path 1576" d="M42,8h2v2H42Z"/>
      <path id="Path_1577" data-name="Path 1577" d="M46,8h8v2H46Z"/>
      <path id="Path_1578" data-name="Path 1578" d="M42,12h2v2H42Z"/>
      <path id="Path_1579" data-name="Path 1579" d="M46,12h8v2H46Z"/>
      <path id="Path_1580" data-name="Path 1580" d="M42,16h2v2H42Z"/>
      <path id="Path_1581" data-name="Path 1581" d="M46,16h8v2H46Z"/>
      <path id="Path_1582" data-name="Path 1582" d="M36,28H26v8H36Zm-2,6H28V30h6Z"/>
      <path id="Path_1583" data-name="Path 1583" d="M26,24H36v2H26Z"/>
      <path id="Path_1584" data-name="Path 1584" d="M26,20H36v2H26Z"/>
      <path id="Path_1585" data-name="Path 1585" d="M26,16H36v2H26Z"/>
      <path id="Path_1586" data-name="Path 1586" d="M38,34h2v2H38Z"/>
      <path id="Path_1587" data-name="Path 1587" d="M42,34H59v2H42Z"/>
      <path id="Path_1588" data-name="Path 1588" d="M38,30H59v2H38Z"/>
      <path id="Path_1589" data-name="Path 1589" d="M38,26H59v2H38Z"/>
    </g>
  </g>
</svg>
