<svg id="Page-1" xmlns="http://www.w3.org/2000/svg" width="60.001" height="60" viewBox="0 0 60.001 60">
  <g id="_014---Savings" data-name="014---Savings">
    <path id="Path" d="M37,18V52a7,7,0,0,1-7,7H8a7,7,0,0,1-7-7V18a7,7,0,0,1,7-7,3,3,0,0,0,3-3V5H27V8a3,3,0,0,0,3,3A7,7,0,0,1,37,18Z" fill="#00bcd4" fill-rule="evenodd"/>
    <path id="Path-2" data-name="Path" d="M30,11a3,3,0,0,1-3-3V5H24V8a3,3,0,0,0,3,3,7,7,0,0,1,7,7V52a7,7,0,0,1-7,7h3a7,7,0,0,0,7-7V18A7,7,0,0,0,30,11Z" fill="#00838f" fill-rule="evenodd"/>
    <rect id="Rectangle" width="24" height="4" rx="2" transform="translate(7 1)" fill="#00838f"/>
    <circle id="Oval" cx="6" cy="6" r="6" transform="translate(45 15)" fill="#ffdc00"/>
    <path id="Path-3" data-name="Path" d="M51,15a5.983,5.983,0,0,0-1.5.2,5.992,5.992,0,0,1,0,11.606A6,6,0,1,0,51,15Z" fill="#fec108" fill-rule="evenodd"/>
    <circle id="Oval-2" data-name="Oval" cx="6" cy="6" r="6" transform="translate(13 9)" fill="#ffdc00"/>
    <path id="Path-4" data-name="Path" d="M19,9a5.983,5.983,0,0,0-1.5.2,5.992,5.992,0,0,1,0,11.606A6,6,0,1,0,19,9Z" fill="#fec108" fill-rule="evenodd"/>
    <circle id="Oval-3" data-name="Oval" cx="6" cy="6" r="6" transform="translate(21 23)" fill="#ffdc00"/>
    <path id="Path-5" data-name="Path" d="M27,23a5.983,5.983,0,0,0-1.5.2,5.992,5.992,0,0,1,0,11.606A6,6,0,1,0,27,23Z" fill="#fec108" fill-rule="evenodd"/>
    <path id="Path-6" data-name="Path" d="M28,39H16a2,2,0,0,0,0,4H10a2,2,0,0,0,0,4h4a2,2,0,0,0,0,4H10a2,2,0,0,0,0,4h4a2,2,0,0,0,0,4H26a2,2,0,0,0,0-4H22a2,2,0,0,0,0-4h4a2,2,0,0,0,0-4H22a2,2,0,0,0,0-4h6a2,2,0,0,0,0-4Z" fill="#ffdc00" fill-rule="evenodd"/>
    <g id="Group_1949" data-name="Group 1949">
      <path id="Path-7" data-name="Path" d="M24,53a2,2,0,0,0-2-2H19a2,2,0,0,1,0,4h3A2,2,0,0,0,24,53Z" fill="#fec108" fill-rule="evenodd"/>
      <path id="Path-8" data-name="Path" d="M21,45a2,2,0,0,1-2,2h3a2,2,0,0,0,0-4H19A2,2,0,0,1,21,45Z" fill="#fec108" fill-rule="evenodd"/>
      <path id="Path-9" data-name="Path" d="M26,55H23a2,2,0,0,1,0,4h3a2,2,0,0,0,0-4Z" fill="#fec108" fill-rule="evenodd"/>
      <path id="Path-10" data-name="Path" d="M26,47H23a2,2,0,0,1,0,4h3a2,2,0,0,0,0-4Z" fill="#fec108" fill-rule="evenodd"/>
      <path id="Path-11" data-name="Path" d="M28,39H25a2,2,0,0,1,0,4h3a2,2,0,0,0,0-4Z" fill="#fec108" fill-rule="evenodd"/>
    </g>
    <path id="Path-12" data-name="Path" d="M59,37a2,2,0,0,0-2-2H55a2,2,0,0,0,0-4h2a2,2,0,0,0,0-4H45a2,2,0,0,0,0,4H43a2,2,0,0,0,0,4h2a2,2,0,0,0,0,4H43a2,2,0,0,0,0,4h2a2,2,0,0,0,0,4H43a2,2,0,0,0,0,4h2a2,2,0,0,0,0,4H43a2,2,0,0,0,0,4H55a2,2,0,0,0,0-4h2a2,2,0,0,0,0-4H55a2,2,0,0,0,0-4h2a2,2,0,0,0,0-4H55a2,2,0,0,0,0-4h2A2,2,0,0,0,59,37Z" fill="#ffdc00" fill-rule="evenodd"/>
    <path id="Path-13" data-name="Path" d="M59,37a2,2,0,0,0-2-2H55a2,2,0,0,0,0-4h2a2,2,0,0,0,0-4H54a2,2,0,0,1,0,4H52a2,2,0,0,1,0,4h2a2,2,0,0,1,0,4H52a2,2,0,0,1,0,4h2a2,2,0,0,1,0,4H52a2,2,0,0,1,0,4h2a2,2,0,0,1,0,4H52a2,2,0,0,1,0,4h3a2,2,0,0,0,0-4h2a2,2,0,0,0,0-4H55a2,2,0,0,0,0-4h2a2,2,0,0,0,0-4H55a2,2,0,0,0,0-4h2A2,2,0,0,0,59,37Z" fill="#fec108" fill-rule="evenodd"/>
    <path id="Shape" d="M8,60H30a8.009,8.009,0,0,0,8-8V18a8.009,8.009,0,0,0-8-8,2,2,0,0,1-2-2V6h1a3,3,0,0,0,0-6H9A3,3,0,0,0,9,6h1V8a2,2,0,0,1-2,2,8.009,8.009,0,0,0-8,8V52A8.009,8.009,0,0,0,8,60Zm6-2a1,1,0,0,1,0-2H26a1,1,0,0,1,0,2Zm-1-9a1,1,0,0,1,1-1H26a1,1,0,0,1,0,2H14A1,1,0,0,1,13,49Zm2-8a1,1,0,0,1,1-1H28a1,1,0,0,1,0,2H16A1,1,0,0,1,15,41Zm1,3h6a1,1,0,0,1,0,2H10a1,1,0,0,1,0-2Zm-2,8h8a1,1,0,0,1,0,2H10a1,1,0,0,1,0-2ZM8,3A1,1,0,0,1,9,2H29a1,1,0,0,1,0,2H9A1,1,0,0,1,8,3ZM2,18a6.006,6.006,0,0,1,6-6,4,4,0,0,0,4-4V6H26V8a4,4,0,0,0,4,4,6.006,6.006,0,0,1,6,6V52a6.006,6.006,0,0,1-6,6H28.816A2.966,2.966,0,0,0,29,57a3,3,0,0,0-3-3H24.816a2.809,2.809,0,0,0,0-2H26a3,3,0,0,0,0-6H24.816a2.809,2.809,0,0,0,0-2H28a3,3,0,0,0,0-6H16a3,3,0,0,0-3,3,2.966,2.966,0,0,0,.184,1H10a3,3,0,0,0,0,6h1.184a2.809,2.809,0,0,0,0,2H10a3,3,0,0,0,0,6h1.184a2.809,2.809,0,0,0,0,2H8a6.006,6.006,0,0,1-6-6Z"/>
    <path id="Shape-2" data-name="Shape" d="M19,22a7,7,0,1,0-7-7A7,7,0,0,0,19,22Zm0-12a5,5,0,1,1-5,5A5,5,0,0,1,19,10Z"/>
    <path id="Shape-3" data-name="Shape" d="M20,29a7,7,0,1,0,7-7A7,7,0,0,0,20,29Zm7-5a5,5,0,1,1-5,5A5,5,0,0,1,27,24Z"/>
    <path id="Shape-4" data-name="Shape" d="M60,29a3,3,0,0,0-3-3H55.89a7,7,0,1,0-9.78,0H45a2.99,2.99,0,0,0-2.78,4.116,2.983,2.983,0,0,0,0,5.768,2.941,2.941,0,0,0,0,2.232,2.983,2.983,0,0,0,0,5.768,2.941,2.941,0,0,0,0,2.232,2.983,2.983,0,0,0,0,5.768,2.941,2.941,0,0,0,0,2.232A2.993,2.993,0,0,0,43,60H55a2.99,2.99,0,0,0,2.78-4.116,2.983,2.983,0,0,0,0-5.768,2.941,2.941,0,0,0,0-2.232,2.983,2.983,0,0,0,0-5.768,2.941,2.941,0,0,0,0-2.232,2.983,2.983,0,0,0,0-5.768,2.941,2.941,0,0,0,0-2.232A3,3,0,0,0,60,29ZM46,21a5,5,0,1,1,5,5A5,5,0,0,1,46,21ZM43,32H55a1,1,0,0,1,0,2H43a1,1,0,0,1,0-2Zm0,8H55a1,1,0,0,1,0,2H43a1,1,0,0,1,0-2Zm0,8H55a1,1,0,0,1,0,2H43a1,1,0,0,1,0-2ZM55,58H43a1,1,0,0,1,0-2H55a1,1,0,0,1,0,2Zm2-4H45a1,1,0,0,1,0-2H57a1,1,0,0,1,0,2Zm0-8H45a1,1,0,0,1,0-2H57a1,1,0,0,1,0,2Zm0-8H45a1,1,0,0,1,0-2H57a1,1,0,0,1,0,2Zm0-8H45a1,1,0,0,1,0-2H57a1,1,0,0,1,0,2Z"/>
  </g>
</svg>
