<svg xmlns="http://www.w3.org/2000/svg" width="69.792" height="61.068" viewBox="0 0 69.792 61.068">
  <g id="start" transform="translate(0 -13.654)">
    <path id="Path_1514" data-name="Path 1514" d="M43,20.48H76.8l6.543,57.8h-45.8Z" transform="translate(-25.551 -4.645)" fill="#fb6d5d"/>
    <path id="Path_1515" data-name="Path 1515" d="M81.026,77.044h-45.8a1.091,1.091,0,0,1-1.086-1.192l5.452-57.8a1.09,1.09,0,0,1,1.086-.988H74.482a1.09,1.09,0,0,1,1.083.968l6.543,57.8a1.091,1.091,0,0,1-1.083,1.213Zm-44.6-2.181H79.8l-6.3-55.615H41.669Z" transform="translate(-23.229 -2.323)"/>
    <path id="Path_1516" data-name="Path 1516" d="M106.9,78.277a1.091,1.091,0,0,1-1.09-1.09V21.57a1.09,1.09,0,0,1,2.181,0V77.186A1.091,1.091,0,0,1,106.9,78.277Z" transform="translate(-72.008 -4.645)"/>
    <path id="Path_1517" data-name="Path 1517" d="M136.249,77.044a1.09,1.09,0,0,1-1.085-.988l-5.452-57.8a1.091,1.091,0,0,1,2.172-.2l5.453,57.8a1.091,1.091,0,0,1-.984,1.188C136.317,77.042,136.283,77.044,136.249,77.044Z" transform="translate(-88.268 -2.322)"/>
    <path id="Path_1518" data-name="Path 1518" d="M65.945,77.042c-.034,0-.069,0-.1,0a1.091,1.091,0,0,1-.984-1.188l5.453-57.8a1.091,1.091,0,1,1,2.172.2l-5.453,57.8A1.091,1.091,0,0,1,65.945,77.042Z" transform="translate(-44.134 -2.32)"/>
    <rect id="Rectangle_351" data-name="Rectangle 351" width="4.362" height="58.887" transform="translate(1.09 14.744)" fill="#fbeb5d"/>
    <path id="Path_1519" data-name="Path 1519" d="M5.453,74.722H1.09A1.091,1.091,0,0,1,0,73.631V14.744a1.091,1.091,0,0,1,1.09-1.09H5.452a1.091,1.091,0,0,1,1.09,1.09V73.631A1.09,1.09,0,0,1,5.453,74.722ZM2.181,72.541H4.362V15.835H2.181Z" transform="translate(0 0)"/>
    <rect id="Rectangle_352" data-name="Rectangle 352" width="4.362" height="58.887" transform="translate(64.34 14.744)" fill="#fbeb5d"/>
    <path id="Path_1520" data-name="Path 1520" d="M203.426,74.722h-4.362a1.091,1.091,0,0,1-1.09-1.09V14.744a1.091,1.091,0,0,1,1.09-1.09h4.362a1.091,1.091,0,0,1,1.09,1.09V73.631A1.091,1.091,0,0,1,203.426,74.722Zm-3.272-2.181h2.181V15.835h-2.181Z" transform="translate(-134.725 0)"/>
    <path id="Path_1521" data-name="Path 1521" d="M75.954,56.085,66.42,57.5a135.844,135.844,0,0,1-39.819,0l-9.534-1.412V37.547L26.6,38.959a135.844,135.844,0,0,0,39.819,0l9.534-1.412Z" transform="translate(-11.614 -16.26)" fill="#2bbbe9"/>
    <path id="Path_1522" data-name="Path 1522" d="M44.188,57.731a136.951,136.951,0,0,1-20.07-1.479l-9.534-1.413a1.09,1.09,0,0,1-.931-1.079V35.222a1.09,1.09,0,0,1,1.25-1.079l9.534,1.413a134.674,134.674,0,0,0,39.5,0l9.534-1.413a1.09,1.09,0,0,1,1.25,1.079V53.761a1.092,1.092,0,0,1-.931,1.079l-9.534,1.413A137.086,137.086,0,0,1,44.188,57.731ZM15.835,52.82l8.6,1.275a134.675,134.675,0,0,0,39.5,0l8.6-1.275V36.486l-8.284,1.227a136.893,136.893,0,0,1-40.138,0l-8.284-1.227Zm57.8.941h0Z" transform="translate(-9.292 -13.935)"/>
    <path id="Path_1528" data-name="Path 1528" d="M81.167,166.022H38.637a1.09,1.09,0,0,1,0-2.181H81.167a1.09,1.09,0,0,1,0,2.181Z" transform="translate(-25.551 -102.205)"/>
    <text id="LANCEr" transform="translate(19 35.18)" fill="#fff" font-size="8" font-family="Quicksand-Bold, Quicksand" font-weight="700"><tspan x="0" y="0">LANCER</tspan></text>
  </g>
</svg>
