<svg xmlns="http://www.w3.org/2000/svg" width="59.484" height="59.485" viewBox="0 0 59.484 59.485">
  <g id="startup" transform="translate(-0.001 0)">
    <path id="Path_1460" data-name="Path 1460" d="M398.239,10a50.878,50.878,0,0,1-2.823,13.607L384.632,12.824A50.878,50.878,0,0,1,398.239,10Z" transform="translate(-339.944 -8.839)" fill="#fb6d5d"/>
    <path id="Path_1461" data-name="Path 1461" d="M204.793,34.3l10.784,10.784A38.087,38.087,0,0,1,206.9,59.41a45.415,45.415,0,0,1-13.687,9.315l-12.06-12.06a46.117,46.117,0,0,1,6.226-10.244,43.138,43.138,0,0,1,3.089-3.444A38.087,38.087,0,0,1,204.793,34.3Z" transform="translate(-160.104 -30.316)" fill="#fff"/>
    <path id="Path_1462" data-name="Path 1462" d="M328.26,112.787a4.647,4.647,0,1,1-6.572,0A4.648,4.648,0,0,1,328.26,112.787Z" transform="translate(-283.11 -98.48)" fill="#7bd8e8"/>
    <g id="Group_1915" data-name="Group 1915" transform="translate(12.29 14.243)">
      <path id="Path_1463" data-name="Path 1463" d="M286.983,277.207c5.988,8.982-5.221,14.788-11.5,14.788a8.633,8.633,0,0,0,2.326-7.532l-1.226-1.226a46.117,46.117,0,0,0,10.244-6.226Z" transform="translate(-255.765 -259.071)" fill="#fb6d5d"/>
      <path id="Path_1464" data-name="Path 1464" d="M162.805,235.31l-.188-.188a2.252,2.252,0,0,1-.633-2.125,40.487,40.487,0,0,1,2.171-6.2l12.06,12.06a40.484,40.484,0,0,1-6.2,2.171,2.252,2.252,0,0,1-2.125-.633l-.188-.188Z" transform="translate(-155.398 -214.694)" fill="#fb6d5d"/>
      <path id="Path_1465" data-name="Path 1465" d="M120.56,124.3l.2.157A46.117,46.117,0,0,0,114.53,134.7l-1.226-1.226a8.633,8.633,0,0,0-7.532,2.326C105.772,129.523,111.578,118.314,120.56,124.3Z" transform="translate(-105.772 -122.596)" fill="#fb6d5d"/>
    </g>
    <path id="Path_1466" data-name="Path 1466" d="M113.18,300.041l4.9,4.9a9.156,9.156,0,0,1-2.45,4.122c-2.722,2.722-9.858,3.286-9.858,3.286s.563-7.136,3.286-9.858A9.156,9.156,0,0,1,113.18,300.041Z" transform="translate(-93.482 -265.182)" fill="#ffdd78"/>
    <path id="Path_1467" data-name="Path 1467" d="M253.571,242.4a1.162,1.162,0,1,0-1.644,0A1.163,1.163,0,0,0,253.571,242.4Z" transform="translate(-222.356 -212.486)"/>
    <path id="Path_1468" data-name="Path 1468" d="M320.517,111.333a5.809,5.809,0,1,0-8.215,0A5.806,5.806,0,0,0,320.517,111.333Zm-6.572-6.572a3.486,3.486,0,1,1,0,4.929A3.484,3.484,0,0,1,313.945,104.761Z" transform="translate(-274.516 -89.633)"/>
    <path id="Path_1469" data-name="Path 1469" d="M96.736,28.523A1.161,1.161,0,0,0,98,28.272a7.4,7.4,0,0,1,6.151-2.064l.407.407a40.865,40.865,0,0,0-1.919,5.643,3.289,3.289,0,0,0,.141,2.018,11,11,0,0,0-3.137,2.212c-2.991,2.991-3.6,10.279-3.622,10.588a1.162,1.162,0,0,0,1.158,1.253q.046,0,.092,0c.309-.024,7.6-.632,10.588-3.622a11,11,0,0,0,2.212-3.137,3.281,3.281,0,0,0,2.019.14,40.869,40.869,0,0,0,5.642-1.919l.407.407a7.4,7.4,0,0,1-2.064,6.151,1.162,1.162,0,0,0,.822,1.983c4.6,0,11.027-2.739,13.4-7.163,1.028-1.921,1.728-4.961-.5-8.754.947-.8,1.858-1.637,2.718-2.5a38.9,38.9,0,0,0,8.952-14.76A51.612,51.612,0,0,0,144.346,1.2a1.162,1.162,0,0,0-1.2-1.2,51.612,51.612,0,0,0-13.952,2.889,38.9,38.9,0,0,0-14.76,8.952c-.86.86-1.7,1.771-2.5,2.718-3.793-2.233-6.833-1.533-8.754-.5-4.424,2.368-7.163,8.8-7.163,13.4A1.163,1.163,0,0,0,96.736,28.523Zm9.481,14.537c-1.6,1.6-5.345,2.44-7.714,2.784.344-2.369,1.187-6.116,2.784-7.713a8.373,8.373,0,0,1,2.974-1.955l3.91,3.91A8.371,8.371,0,0,1,106.217,43.06Zm5.3-3.6a1.09,1.09,0,0,1-1.015-.329l-5.276-5.276a1.091,1.091,0,0,1-.33-1.015,37.725,37.725,0,0,1,1.451-4.437l9.608,9.608A37.7,37.7,0,0,1,111.513,39.455Zm16.731.614c-1.522,2.844-5.355,4.94-8.847,5.662a9.888,9.888,0,0,0,.952-6.381,1.213,1.213,0,0,0-.353-.587,46.993,46.993,0,0,0,7.957-4.881A6.191,6.191,0,0,1,128.244,40.07Zm11.609-27.454L131.732,4.5a52.233,52.233,0,0,1,10.194-2.074c-.1,1.011-.7,4.741-.7,4.741S140.5,10.519,139.852,12.616Zm-23.777.868a36.227,36.227,0,0,1,13.206-8.153l9.735,9.735a36.224,36.224,0,0,1-8.153,13.207,42.168,42.168,0,0,1-3.351,3.006,44.636,44.636,0,0,1-9.262,5.741L107.328,26.1a44.629,44.629,0,0,1,5.741-9.262A42.161,42.161,0,0,1,116.075,13.484Zm-11.8,2.619a6.19,6.19,0,0,1,6.187.292,46.976,46.976,0,0,0-4.881,7.957,1.225,1.225,0,0,0-.615-.361,9.93,9.93,0,0,0-6.353.96C99.337,21.459,101.434,17.626,104.278,16.1Z" transform="translate(-84.861)"/>
    <path id="Path_1470" data-name="Path 1470" d="M197,415.391l3.286-3.287a1.162,1.162,0,0,0-1.643-1.643l-3.286,3.287A1.162,1.162,0,1,0,197,415.391Z" transform="translate(-172.362 -362.473)"/>
    <path id="Path_1471" data-name="Path 1471" d="M55.575,273.97l3.287-3.286a1.162,1.162,0,1,0-1.643-1.643l-3.287,3.286a1.162,1.162,0,1,0,1.643,1.643Z" transform="translate(-47.364 -237.483)"/>
    <path id="Path_1472" data-name="Path 1472" d="M93.062,424.611l-7.87,7.869a1.162,1.162,0,0,0,1.643,1.643l7.87-7.869a1.162,1.162,0,1,0-1.643-1.643Z" transform="translate(-74.992 -374.979)"/>
    <path id="Path_1473" data-name="Path 1473" d="M13.062,424.611l-7.87,7.869a1.162,1.162,0,0,0,1.643,1.643l7.87-7.869a1.162,1.162,0,1,0-1.643-1.643Z" transform="translate(-4.287 -374.979)"/>
    <path id="Path_1474" data-name="Path 1474" d="M1.985,349.264l7.869-7.87a1.162,1.162,0,1,0-1.643-1.643l-7.869,7.87a1.162,1.162,0,1,0,1.643,1.643Z" transform="translate(0 -299.977)"/>
    <path id="Path_1475" data-name="Path 1475" d="M281.855,201.616l1.643-1.643a1.162,1.162,0,0,0-1.643-1.643l-1.643,1.643a1.162,1.162,0,1,0,1.643,1.643Z" transform="translate(-247.354 -174.988)"/>
  </g>
</svg>
