<svg xmlns="http://www.w3.org/2000/svg" width="540.5" height="350.294" viewBox="0 0 540.5 350.294">
  <g id="Browser_stats-cuate" data-name="Browser stats-cuate" transform="translate(-46.93 -42)">
    <g id="freepik--background-complete--inject-4" transform="translate(59.674 42)">
      <path id="Path_1029" data-name="Path 1029" d="M209.851,118.88H105.53V47.51H209.851Zm-103.5-.824H209.027V48.334H106.354Z" transform="translate(-70.001 -42.971)" fill="#ebebeb"/>
      <path id="Path_1030" data-name="Path 1030" d="M114.542,52.654a2.076,2.076,0,1,1-.605-1.473,2.076,2.076,0,0,1,.605,1.473Z" transform="translate(-70.858 -43.51)" fill="#a6a6a6"/>
      <path id="Path_1031" data-name="Path 1031" d="M124.842,52.654a2.076,2.076,0,1,1-.605-1.473,2.076,2.076,0,0,1,.605,1.473Z" transform="translate(-72.673 -43.51)" fill="#ebebeb"/>
      <path id="Path_1032" data-name="Path 1032" d="M135.112,52.654a2.076,2.076,0,1,1-.605-1.473,2.076,2.076,0,0,1,.605,1.473Z" transform="translate(-74.483 -43.51)" fill="#fb6d5d"/>
      <rect id="Rectangle_221" data-name="Rectangle 221" width="103.497" height="0.824" transform="translate(35.941 12.793)" fill="#ebebeb"/>
      <path id="Path_1033" data-name="Path 1033" d="M625.071,243.221l6.829-11.014-3.394-2.076a3.064,3.064,0,0,1-1.409-2.891,18.176,18.176,0,0,0,.066-1.895,3.106,3.106,0,0,1,1.648-2.834l3.493-1.87-6.129-11.425-3.493,1.87a3.031,3.031,0,0,1-3.171-.165,14.822,14.822,0,0,0-1.755-1.087,3.04,3.04,0,0,1-1.565-2.768l.124-3.971-12.949-.4-.124,3.979a3.056,3.056,0,0,1-1.755,2.661c-.3.14-.6.288-.906.445l-.873.5a3.031,3.031,0,0,1-3.171,0l-3.394-2.109-6.837,11.014,3.41,2.109a3.089,3.089,0,0,1,1.4,2.9,17.967,17.967,0,0,0-.066,1.886,3.1,3.1,0,0,1-1.647,2.825l-3.493,1.878,6.121,11.426,3.5-1.878a3.106,3.106,0,0,1,3.246.231,15.2,15.2,0,0,0,1.647.989,3.04,3.04,0,0,1,1.648,2.768l-.124,4,12.958.4.124-3.979a3.073,3.073,0,0,1,1.8-2.669,8.559,8.559,0,0,0,.824-.437c.247-.157.56-.3.824-.47a3.081,3.081,0,0,1,3.229,0Zm-9.794-8.9a10.618,10.618,0,1,1,3.748-12.356A10.618,10.618,0,0,1,615.277,234.316Z" transform="translate(-154.665 -70.322)" fill="#ebebeb"/>
      <path id="Path_1034" data-name="Path 1034" d="M91.064,208.637a2.167,2.167,0,0,1,1.054,2.01q0,.334,0,.667v.667a2.166,2.166,0,0,1-1.054,2.026L88.65,215.4l4.539,7.867,2.414-1.392a2.158,2.158,0,0,1,2.265.074,12.751,12.751,0,0,0,1.17.684,2.158,2.158,0,0,1,1.194,1.911v2.784h9.061v-2.784a2.158,2.158,0,0,1,1.194-1.911,12.753,12.753,0,0,0,1.17-.684,2.158,2.158,0,0,1,2.265-.074l2.414,1.392,4.531-7.867-2.422-1.4a2.15,2.15,0,0,1-1.046-1.993q0-.334,0-.667v-.667a2.167,2.167,0,0,1,1.054-2.01l2.414-1.392-4.531-7.859-2.414,1.392a2.166,2.166,0,0,1-2.257-.082,12.813,12.813,0,0,0-1.178-.675,2.166,2.166,0,0,1-1.194-1.919V195.35h-9.061v2.776a2.166,2.166,0,0,1-1.194,1.919,11.8,11.8,0,0,0-1.178.675,2.158,2.158,0,0,1-2.265.082l-2.405-1.392L88.65,207.27Zm13.7-4.77a7.414,7.414,0,1,1-7.414,7.414A7.414,7.414,0,0,1,104.763,203.868Z" transform="translate(-67.026 -69.027)" fill="#ebebeb"/>
      <path id="Path_1035" data-name="Path 1035" d="M634.054,292.02a2.166,2.166,0,0,1,1.054,2v1.343a2.175,2.175,0,0,1-1.046,2l-2.422,1.392,4.539,7.859,2.414-1.384a2.158,2.158,0,0,1,2.265.074,11.04,11.04,0,0,0,1.17.676,2.167,2.167,0,0,1,1.194,1.919v2.784h9.061V307.9a2.167,2.167,0,0,1,1.194-1.919,11.045,11.045,0,0,0,1.17-.676,2.158,2.158,0,0,1,2.265-.074l2.414,1.384,4.539-7.859-2.43-1.4a2.166,2.166,0,0,1-1.046-1.993q0-.334,0-.667v-.676a2.167,2.167,0,0,1,1.055-2l2.422-1.392-4.539-7.859-2.405,1.384a2.158,2.158,0,0,1-2.265-.074,12.8,12.8,0,0,0-1.178-.676,2.167,2.167,0,0,1-1.195-1.919V278.7h-9.061v2.784a2.167,2.167,0,0,1-1.194,1.919,12.814,12.814,0,0,0-1.178.675,2.158,2.158,0,0,1-2.265.074l-2.405-1.384-4.539,7.859Zm13.707-4.77a7.414,7.414,0,1,1-7.414,7.414A7.414,7.414,0,0,1,647.761,287.251Z" transform="translate(-162.725 -83.717)" fill="#ebebeb"/>
      <path id="Path_1036" data-name="Path 1036" d="M619.018,85.856a31.443,31.443,0,1,1-31.1-36.056V81.268Z" transform="translate(-149.477 -43.375)" fill="#dbdbdb"/>
      <path id="Path_1037" data-name="Path 1037" d="M633.863,73.468a31.4,31.4,0,0,1-.338,4.6l-31.105-4.6V42a31.418,31.418,0,0,1,31.443,31.468Z" transform="translate(-157.575 -42)" fill="#ebebeb"/>
      <rect id="Rectangle_222" data-name="Rectangle 222" width="23.411" height="0.824" transform="translate(451.847 48.643)" fill="#c7c7c7"/>
      <path id="Path_1038" data-name="Path 1038" d="M641.6,103.719a2.76,2.76,0,1,1,2.751-2.76A2.76,2.76,0,0,1,641.6,103.719Zm0-4.687a1.936,1.936,0,1,0,1.928,1.928,1.936,1.936,0,0,0-1.928-1.928Z" transform="translate(-163.992 -51.905)" fill="#c7c7c7"/>
      <rect id="Rectangle_223" data-name="Rectangle 223" width="25.973" height="1.17" transform="translate(486.099 47.3)" fill="#c7c7c7"/>
      <rect id="Rectangle_224" data-name="Rectangle 224" width="14.704" height="1.17" transform="translate(486.099 49.64)" fill="#c7c7c7"/>
      <rect id="Rectangle_225" data-name="Rectangle 225" width="7.768" height="55.274" transform="translate(6.219 202.735)" fill="#ebebeb"/>
      <rect id="Rectangle_226" data-name="Rectangle 226" width="7.768" height="41.896" transform="translate(19.564 216.113)" fill="#ebebeb"/>
      <rect id="Rectangle_227" data-name="Rectangle 227" width="7.768" height="20.948" transform="translate(32.917 237.061)" fill="#ebebeb"/>
      <rect id="Rectangle_228" data-name="Rectangle 228" width="7.768" height="32.909" transform="translate(46.27 225.1)" fill="#ebebeb"/>
      <rect id="Rectangle_229" data-name="Rectangle 229" width="7.768" height="45.48" transform="translate(59.615 212.538)" fill="#ebebeb"/>
      <rect id="Rectangle_230" data-name="Rectangle 230" width="7.768" height="52.869" transform="translate(72.968 205.148)" fill="#ebebeb"/>
      <path id="Path_1039" data-name="Path 1039" d="M64.429,279.58l.091,15.577v15.577l.066,31.146-.2-.2h42.835l21.418.041,21.418.115-21.418.115H107.223L85.805,342H64.19v-.2l.066-31.146.041-15.577Z" transform="translate(-62.715 -83.872)" fill="#ebebeb"/>
      <path id="Path_1040" data-name="Path 1040" d="M62.4,283.324a6.96,6.96,0,0,1,3.427,0,6.714,6.714,0,0,1-3.427,0Z" transform="translate(-62.4 -84.494)" fill="#ebebeb"/>
      <path id="Path_1041" data-name="Path 1041" d="M62.4,289.072a6.714,6.714,0,0,1,3.427,0,6.713,6.713,0,0,1-3.427,0Z" transform="translate(-62.4 -85.506)" fill="#ebebeb"/>
      <path id="Path_1042" data-name="Path 1042" d="M62.4,294.822a6.714,6.714,0,0,1,3.427,0,6.713,6.713,0,0,1-3.427,0Z" transform="translate(-62.4 -86.519)" fill="#ebebeb"/>
      <path id="Path_1043" data-name="Path 1043" d="M62.4,300.572a6.118,6.118,0,0,1,1.713-.222,5.831,5.831,0,0,1,1.713.222,5.828,5.828,0,0,1-1.713.214,6.112,6.112,0,0,1-1.713-.214Z" transform="translate(-62.4 -87.532)" fill="#ebebeb"/>
      <path id="Path_1044" data-name="Path 1044" d="M62.4,306.314a6.112,6.112,0,0,1,1.713-.214,5.824,5.824,0,0,1,1.713.214,5.831,5.831,0,0,1-1.713.222,6.12,6.12,0,0,1-1.713-.222Z" transform="translate(-62.4 -88.545)" fill="#ebebeb"/>
      <path id="Path_1045" data-name="Path 1045" d="M62.4,312.064a6.96,6.96,0,0,1,3.427,0,6.714,6.714,0,0,1-3.427,0Z" transform="translate(-62.4 -89.559)" fill="#ebebeb"/>
      <path id="Path_1046" data-name="Path 1046" d="M62.4,317.812a6.714,6.714,0,0,1,3.427,0,6.714,6.714,0,0,1-3.427,0Z" transform="translate(-62.4 -90.571)" fill="#ebebeb"/>
      <path id="Path_1047" data-name="Path 1047" d="M62.4,323.562a6.714,6.714,0,0,1,3.427,0,6.714,6.714,0,0,1-3.427,0Z" transform="translate(-62.4 -91.584)" fill="#ebebeb"/>
      <path id="Path_1048" data-name="Path 1048" d="M62.4,329.312a6.714,6.714,0,0,1,3.427,0,6.96,6.96,0,0,1-3.427,0Z" transform="translate(-62.4 -92.598)" fill="#ebebeb"/>
      <path id="Path_1049" data-name="Path 1049" d="M62.4,335.054a6.962,6.962,0,0,1,3.427,0A6.713,6.713,0,0,1,62.4,335.054Z" transform="translate(-62.4 -93.611)" fill="#ebebeb"/>
      <path id="Path_1050" data-name="Path 1050" d="M62.4,340.8a6.961,6.961,0,0,1,3.427,0A6.713,6.713,0,0,1,62.4,340.8Z" transform="translate(-62.4 -94.624)" fill="#ebebeb"/>
      <path id="Path_1051" data-name="Path 1051" d="M62.4,346.552a6.713,6.713,0,0,1,3.427,0,6.715,6.715,0,0,1-3.427,0Z" transform="translate(-62.4 -95.636)" fill="#ebebeb"/>
    </g>
    <g id="freepik--Shadow--inject-4" transform="translate(80.836 363.809)">
      <ellipse id="Ellipse_21" data-name="Ellipse 21" cx="236.344" cy="14.243" rx="236.344" ry="14.243" fill="#ebebeb"/>
    </g>
    <g id="freepik--Floor--inject-4" transform="translate(46.93 331.188)">
      <path id="Path_1052" data-name="Path 1052" d="M46.93,393.472l67.565-.206,67.556-.066,135.129-.14,135.129.14,67.556.066,67.565.206-67.565.2-67.556.074-135.129.14-135.129-.14-67.556-.074Z" transform="translate(-46.93 -393.06)" fill="#263238"/>
    </g>
    <g id="freepik--Plant--inject-4" transform="translate(514.832 191.917)">
      <path id="Path_1053" data-name="Path 1053" d="M652.276,314.612a204.009,204.009,0,0,1,.3-21.764,277.085,277.085,0,0,1,6.862-44.376c1.895-8.238,4.242-16.269,6.681-24.325.074-.247.461-.181.4.074-7.546,28.4-13.732,57.712-13.312,87.244.124,8.238,1.079,16.376,1.862,24.589,0,.214-.338.3-.387.082A119.266,119.266,0,0,1,652.276,314.612Z" transform="translate(-621.492 -223.992)" fill="#fb6d5d"/>
      <path id="Path_1054" data-name="Path 1054" d="M666.687,224.27s11.425,29,8.864,35.825-7.834,8.238-7.834,8.238,6.994,9.984,2.109,19.342-15.742,8.921-16.475,19.54C653.366,307.247,652.757,262.855,666.687,224.27Z" transform="translate(-621.709 -224.041)" fill="#fb6d5d"/>
      <path id="Path_1055" data-name="Path 1055" d="M654.752,290.228a.264.264,0,0,1,0-.156,265.7,265.7,0,0,1,11.079-58.347c0-.058.115,0,.1,0q-3.394,12.727-6.005,25.586a12.645,12.645,0,0,1,5.462-3.04s.049.041,0,.058a14.515,14.515,0,0,0-5.635,3.765c-.33,1.648-.659,3.361-.972,5.05,2.554-2.858,6.1-4.275,9.646-5.618v.074c-3.69,1.507-7.364,3.443-9.885,6.59q-1.211,7.3-2.224,14.548a13.814,13.814,0,0,1,6.821-3.9c.074,0,.124.091.041.115a14.408,14.408,0,0,0-6.911,4.432h-.041q-.346,2.562-.651,5.116a17.769,17.769,0,0,1,4.778-2.883v.074a16.286,16.286,0,0,0-4.778,3.171.1.1,0,0,1-.066,0c-.189,1.647-.379,3.254-.544,4.885a23.189,23.189,0,0,1,9.7-6.928c.074,0,.107.091.041.124a25.191,25.191,0,0,0-9.555,7.348.214.214,0,0,1-.239.074c-.247,2.471-.469,4.992-.651,7.5a.029.029,0,1,1-.058,0C654.365,295.376,654.546,292.79,654.752,290.228Z" transform="translate(-621.859 -225.35)" fill="#263238"/>
      <path id="Path_1056" data-name="Path 1056" d="M665.994,255.172a14.325,14.325,0,0,1,6.862-2.142.049.049,0,0,1,0,.091,26.971,26.971,0,0,0-6.788,2.216C665.994,255.378,665.928,255.229,665.994,255.172Z" transform="translate(-623.933 -229.11)" fill="#263238"/>
      <path id="Path_1057" data-name="Path 1057" d="M664.333,292.533a14.423,14.423,0,0,1,5.148-1.763c.066,0,.066.082,0,.1a19.351,19.351,0,0,0-5.1,1.788C664.325,292.689,664.259,292.607,664.333,292.533Z" transform="translate(-623.639 -235.761)" fill="#263238"/>
      <path id="Path_1058" data-name="Path 1058" d="M615.744,268.319a77.609,77.609,0,0,1,13.229,11.533,47.455,47.455,0,0,1,9.276,15.726,117.8,117.8,0,0,1,6.911,37.621,91.767,91.767,0,0,1-2.043,21.162.2.2,0,0,1-.4-.074,118.508,118.508,0,0,0-.206-36.987c-1.961-11.994-5.041-25.05-12.669-34.8-4.16-5.3-9.333-9.49-14.457-13.806C615.126,268.5,615.472,268.129,615.744,268.319Z" transform="translate(-615.003 -231.795)" fill="#fb6d5d"/>
      <path id="Path_1059" data-name="Path 1059" d="M643.409,324.486a70.734,70.734,0,0,0-9.638-12.356c-5.717-5.717-10.528-9.778-11.277-13.559s5.766-6.59,5.766-6.59-7.949,1.491-10.107-1.8-3.213-22.546-3.213-22.546,14.391,10.272,21.1,24.713S643.409,324.486,643.409,324.486Z" transform="translate(-614.94 -231.683)" fill="#fb6d5d"/>
      <path id="Path_1060" data-name="Path 1060" d="M620.962,273.553c6.055,5.948,12.15,12.282,15.717,20.091a76.235,76.235,0,0,1,3.163,8.271c.181.568.371,1.137.544,1.705a.22.22,0,0,1,0,.1,163.079,163.079,0,0,1,4.119,17.76s-.049.058-.058,0q-.923-4.506-2.068-9.061H642.3a12.512,12.512,0,0,0-3.781-.956c-.082,0-.074-.165,0-.157a14.07,14.07,0,0,1,3.74.684c-.7-2.727-1.458-5.445-2.307-8.122a40.363,40.363,0,0,0-8.534-1.112s-.041-.041,0-.049a32.251,32.251,0,0,1,8.394.717c-.148-.461-.3-.914-.461-1.376a43.887,43.887,0,0,0-5.676-.964v-.058a27.364,27.364,0,0,1,5.56.675c-.783-2.315-1.648-4.6-2.562-6.829a43.014,43.014,0,0,0-2.718-5.272,33.706,33.706,0,0,0-4.6-.824c-.049,0,0-.074,0-.074a12.266,12.266,0,0,1,4.308.42c-.758-1.219-1.549-2.414-2.405-3.575h0c-3.229-.717-6.5-1.384-9.795-.758a.05.05,0,1,1,0-.1c3.139-.824,6.261-.354,9.391.264-.346-.453-.692-.9-1.046-1.343a21.048,21.048,0,0,0-6.03-.947s-.049-.066,0-.066a15.791,15.791,0,0,1,5.626.494c-2.669-3.3-5.618-6.425-8.526-9.506C620.7,273.5,620.805,273.4,620.962,273.553Z" transform="translate(-615.97 -232.713)" fill="#263238"/>
      <path id="Path_1061" data-name="Path 1061" d="M621.163,289.451a13.289,13.289,0,0,1,2.858-.1.1.1,0,1,1,0,.2c-.947,0-1.895-.041-2.842,0a.058.058,0,1,1-.016-.1Z" transform="translate(-616.023 -235.505)" fill="#263238"/>
      <path id="Path_1062" data-name="Path 1062" d="M633.73,312.12a13.041,13.041,0,0,1,4.44.89v.066c-1.466-.346-2.941-.494-4.424-.733C633.6,312.318,633.606,312.12,633.73,312.12Z" transform="translate(-618.235 -239.524)" fill="#263238"/>
      <path id="Path_1063" data-name="Path 1063" d="M637.5,304.3a9.063,9.063,0,0,1,1.886.173.058.058,0,0,1,0,.107,8.5,8.5,0,0,1-1.886-.091.1.1,0,0,1,0-.189Z" transform="translate(-618.904 -238.145)" fill="#263238"/>
      <path id="Path_1064" data-name="Path 1064" d="M691.723,293.1a65.712,65.712,0,0,0-13.378,6.3,40.125,40.125,0,0,0-11.1,10.585,99.146,99.146,0,0,0-14.284,28.831,77.056,77.056,0,0,0-3.287,17.628.173.173,0,0,0,.338,0,100.219,100.219,0,0,1,8.715-29.886c4.366-9.251,9.885-19.1,18.3-25.232,4.588-3.336,9.745-5.519,14.885-7.834C692.184,293.386,691.995,293.015,691.723,293.1Z" transform="translate(-621.061 -236.169)" fill="#fb6d5d"/>
      <path id="Path_1065" data-name="Path 1065" d="M657.69,332.175a59.869,59.869,0,0,1,10.651-7.743c5.948-3.3,10.775-5.478,12.258-8.369s-3.122-6.631-3.122-6.631,6.071,2.974,8.592.824,7.809-17.5,7.809-17.5-14.02,4.951-22.752,15.034S657.69,332.175,657.69,332.175Z" transform="translate(-622.474 -236.11)" fill="#fb6d5d"/>
      <path id="Path_1066" data-name="Path 1066" d="M658.566,329.72c7.018-13.18,16.376-25.067,29.194-32.95h0a64.444,64.444,0,0,0-9.383,7.34,14.911,14.911,0,0,1,7.537,1.59.049.049,0,0,1,0,.082,20.594,20.594,0,0,0-7.76-1.31.148.148,0,0,1-.082,0c-.453.428-.906.865-1.351,1.31a23.56,23.56,0,0,1,4.028.535v.058a20.515,20.515,0,0,0-4.259-.354,88.353,88.353,0,0,0-6.59,7.513,6.632,6.632,0,0,1,2.817.206.058.058,0,0,1,0,.107,15.3,15.3,0,0,0-3.007-.049c-.387.494-.774.98-1.153,1.475a27.242,27.242,0,0,1,8.518.824v.066a34.2,34.2,0,0,0-8.74-.568c-.354.478-.7.964-1.046,1.442a18.484,18.484,0,0,1,5.066.585.049.049,0,0,1,0,.1,19.283,19.283,0,0,0-5.239-.412q-2.257,3.13-4.341,6.359A4.629,4.629,0,0,1,665,323.8v.058a10.2,10.2,0,0,0-2.405.115c-1.252,1.944-2.471,3.913-3.608,5.882C658.747,330.025,658.476,329.91,658.566,329.72Z" transform="translate(-622.626 -236.818)" fill="#263238"/>
      <path id="Path_1067" data-name="Path 1067" d="M671.8,323.515a11,11,0,0,1,4.069.494v.066a31.87,31.87,0,0,0-4.053-.42.074.074,0,1,1-.016-.14Z" transform="translate(-624.946 -241.528)" fill="#263238"/>
      <path id="Path_1068" data-name="Path 1068" d="M686.646,304a7.167,7.167,0,0,1,1.878.115.058.058,0,1,1,0,.107c-.618-.066-1.227-.041-1.845-.058a.084.084,0,0,1-.033-.165Z" transform="translate(-627.566 -238.089)" fill="#263238"/>
      <path id="Path_1069" data-name="Path 1069" d="M635.73,384.564h31.649l-4.514-33.057-1.153-8.476H641.4l-1.153,8.476Z" transform="translate(-618.604 -244.971)" fill="#455a64"/>
      <path id="Path_1070" data-name="Path 1070" d="M641.21,351.506h22.62l-1.153-8.476H642.363Z" transform="translate(-619.57 -244.971)" fill="#263238"/>
      <rect id="Rectangle_231" data-name="Rectangle 231" width="26.13" height="7.175" transform="translate(46.023 102.293) rotate(180)" fill="#455a64"/>
    </g>
    <g id="freepik--Device--inject-4" transform="translate(127.806 63.311)">
      <rect id="Rectangle_232" data-name="Rectangle 232" width="370.855" height="252.177" fill="#263238"/>
      <rect id="Rectangle_233" data-name="Rectangle 233" width="370.855" height="37.201" transform="translate(0 214.976)" fill="#dbdbdb"/>
      <rect id="Rectangle_234" data-name="Rectangle 234" width="144.536" height="12.076" transform="translate(113.16 297.64)" fill="#c7c7c7"/>
      <path id="Path_1071" data-name="Path 1071" d="M413.482,419.473H303.37l2.8-20.965.14-.988.255-1.969.132-.989.264-1.961.041-.3.091-.684.264-1.969.132-.988,1.961-14.646h97.961l1.845,13.814.091.667.3,2.29.082.667.124.848.189,1.433.082.667.3,2.3.091.659Z" transform="translate(-173.002 -121.825)" fill="#dbdbdb"/>
      <path id="Path_1072" data-name="Path 1072" d="M374.9,347.075a6.137,6.137,0,1,1-1.8-4.348A6.145,6.145,0,0,1,374.9,347.075Z" transform="translate(-183.443 -115.995)" fill="#37474f"/>
      <path id="Path_1073" data-name="Path 1073" d="M410.738,392.3,308.37,388.656l1.961-14.646h97.961Z" transform="translate(-173.883 -121.825)" fill="#c7c7c7"/>
      <rect id="Rectangle_235" data-name="Rectangle 235" width="336.628" height="181.087" transform="translate(17.109 16.401)" fill="#fff"/>
      <rect id="Rectangle_236" data-name="Rectangle 236" width="336.628" height="181.087" transform="translate(17.109 16.401)" fill="#fff"/>
      <rect id="Rectangle_237" data-name="Rectangle 237" width="330.664" height="23.419" transform="translate(17.109 24.589)" fill="#fb6d5d"/>
      <rect id="Rectangle_238" data-name="Rectangle 238" width="7.99" height="1.285" transform="translate(28.23 32.423)" fill="#fff"/>
      <rect id="Rectangle_239" data-name="Rectangle 239" width="7.99" height="1.285" transform="translate(28.23 38.173)" fill="#fff"/>
      <rect id="Rectangle_240" data-name="Rectangle 240" width="7.99" height="1.285" transform="translate(28.23 35.331)" fill="#fff"/>
      <rect id="Rectangle_241" data-name="Rectangle 241" width="181.301" height="6.895" transform="translate(114.329 32.489)" fill="#fff"/>
      <path id="Path_1074" data-name="Path 1074" d="M465.251,114.265H283.81V107.23H465.251Z" transform="translate(-169.555 -74.807)" fill="#fff"/>
      <rect id="Rectangle_242" data-name="Rectangle 242" width="7.043" height="7.043" transform="translate(288.653 32.423)" fill="#455a64"/>
      <path id="Path_1075" data-name="Path 1075" d="M501.969,113.376l-.634.478-1.186-1.557-.428-.568a.915.915,0,0,0,.247-.14,1.039,1.039,0,0,0,.329-.428l.461.61Z" transform="translate(-207.607 -75.5)" fill="#fff"/>
      <path id="Path_1076" data-name="Path 1076" d="M500.263,109.244a1.738,1.738,0,1,0-.568,2.595,1.555,1.555,0,0,0,.247-.157,1.713,1.713,0,0,0,.362-.371A1.755,1.755,0,0,0,500.263,109.244Zm-.75,1.886a.915.915,0,0,1-.247.14,1.048,1.048,0,1,1,.247-.14Z" transform="translate(-207.154 -75.042)" fill="#fff"/>
      <rect id="Rectangle_243" data-name="Rectangle 243" width="0.371" height="4.185" transform="translate(115.771 33.848)" fill="#c7c7c7"/>
      <path id="Path_1077" data-name="Path 1077" d="M551.3,114.447a3.715,3.715,0,0,1-1.129.47,3.88,3.88,0,0,1-2.99-.47,3.921,3.921,0,1,1,4.119,0Z" transform="translate(-215.644 -74.8)" fill="#455a64"/>
      <path id="Path_1078" data-name="Path 1078" d="M551.019,111.164a1.194,1.194,0,1,1-1.194-1.194,1.194,1.194,0,0,1,1.194,1.194Z" transform="translate(-216.228 -75.29)" fill="#fff"/>
      <path id="Path_1079" data-name="Path 1079" d="M551.7,114.969v.494a3.714,3.714,0,0,1-1.129.47,3.88,3.88,0,0,1-2.99-.47v-.494a2.059,2.059,0,1,1,4.119,0Z" transform="translate(-216.042 -75.808)" fill="#fff"/>
      <path id="Path_1080" data-name="Path 1080" d="M534.945,115.039h-2.727v-.964a.148.148,0,0,0-.082-.132,2.056,2.056,0,0,1-.288-.173.173.173,0,0,0-.157,0l-.824.486-1.359-2.356.824-.486a.156.156,0,0,0,.066-.14,1.038,1.038,0,0,1,0-.165,1.212,1.212,0,0,1,0-.173.14.14,0,0,0-.074-.132l-.824-.486,1.359-2.356.824.478a.14.14,0,0,0,.156,0l.288-.173a.148.148,0,0,0,.082-.124v-.964h2.727v.964a.165.165,0,0,0,.082.132l.3.165a.157.157,0,0,0,.157,0l.824-.478,1.359,2.356-.824.486a.148.148,0,0,0-.074.14,1.642,1.642,0,0,1,0,.33.157.157,0,0,0,.074.14l.824.486-1.359,2.356-.824-.478a.157.157,0,0,0-.157,0,2.753,2.753,0,0,1-.3.173.148.148,0,0,0-.083.132Zm-2.043-.675h1.367v-.288a.824.824,0,0,1,.453-.733l.231-.132a.824.824,0,0,1,.824,0l.247.148.684-1.186-.206-.2a.824.824,0,0,1-.4-.758v-.264a.824.824,0,0,1,.412-.766l.247-.14-.684-1.186-.247.148a.824.824,0,0,1-.824,0l-.231-.132a.824.824,0,0,1-.453-.733v-.288h-1.367v.288a.824.824,0,0,1-.453.733l-.239.132a.824.824,0,0,1-.824,0l-.247-.148-.684,1.186.255.14a.824.824,0,0,1,.4.766v.264a.824.824,0,0,1-.4.766l-.255.14.684,1.186.255-.148a.824.824,0,0,1,.824,0l.239.132a.824.824,0,0,1,.453.733Zm.684-1.252a2.018,2.018,0,1,1,2.01-2.01,2.018,2.018,0,0,1-2.01,2.01Zm0-3.344a1.326,1.326,0,1,0,.946.388,1.334,1.334,0,0,0-.946-.388Z" transform="translate(-212.856 -74.798)" fill="#455a64"/>
      <rect id="Rectangle_244" data-name="Rectangle 244" width="54.928" height="2.628" transform="translate(42.992 35.331)" fill="#455a64"/>
      <rect id="Rectangle_245" data-name="Rectangle 245" width="336.628" height="8.196" transform="translate(17.109 16.401)" fill="#455a64"/>
      <path id="Path_1081" data-name="Path 1081" d="M172.919,92.315a2.035,2.035,0,1,1-2.035-2.035,2.035,2.035,0,0,1,2.035,2.035Z" transform="translate(-149.294 -71.82)" fill="#c7c7c7"/>
      <path id="Path_1082" data-name="Path 1082" d="M182.989,92.315a2.035,2.035,0,1,1-2.035-2.035A2.035,2.035,0,0,1,182.989,92.315Z" transform="translate(-151.069 -71.82)" fill="#fff"/>
      <path id="Path_1083" data-name="Path 1083" d="M193.069,92.315a2.035,2.035,0,1,1-2.035-2.035A2.035,2.035,0,0,1,193.069,92.315Z" transform="translate(-152.845 -71.82)" fill="#fb6d5d"/>
      <rect id="Rectangle_246" data-name="Rectangle 246" width="5.972" height="172.89" transform="translate(347.774 24.589)" fill="#dbdbdb"/>
      <path id="Path_1084" data-name="Path 1084" d="M570.573,168.96h0A1.54,1.54,0,0,1,569,167.395V100.67a1.549,1.549,0,0,1,1.549-1.54h0a1.54,1.54,0,0,1,1.54,1.54v66.724a1.54,1.54,0,0,1-1.516,1.565Z" transform="translate(-219.817 -73.379)" fill="#a6a6a6"/>
      <rect id="Rectangle_247" data-name="Rectangle 247" width="61.139" height="125.178" transform="translate(29.886 61.592)" fill="#ebebeb"/>
      <rect id="Rectangle_248" data-name="Rectangle 248" width="234.936" height="126.521" transform="translate(101.528 60.686)" fill="#ebebeb"/>
      <rect id="Rectangle_249" data-name="Rectangle 249" width="11.277" height="75.044" transform="translate(283.208 83.265)" fill="#fb6d5d"/>
      <rect id="Rectangle_250" data-name="Rectangle 250" width="11.277" height="70.242" transform="translate(225.075 88.068)" fill="#fb6d5d"/>
      <rect id="Rectangle_251" data-name="Rectangle 251" width="11.277" height="68.438" transform="translate(128.193 89.872)" fill="#fb6d5d"/>
      <rect id="Rectangle_252" data-name="Rectangle 252" width="11.277" height="57.062" transform="translate(147.568 101.248)" fill="#455a64"/>
      <rect id="Rectangle_253" data-name="Rectangle 253" width="11.277" height="36.319" transform="translate(166.943 121.99)" fill="#fb6d5d"/>
      <rect id="Rectangle_254" data-name="Rectangle 254" width="11.277" height="58.058" transform="translate(186.326 100.251)" fill="#fb6d5d"/>
      <rect id="Rectangle_255" data-name="Rectangle 255" width="11.277" height="48.528" transform="translate(205.7 109.782)" fill="#455a64"/>
      <rect id="Rectangle_256" data-name="Rectangle 256" width="11.277" height="59.409" transform="translate(244.458 98.9)" fill="#455a64"/>
      <rect id="Rectangle_257" data-name="Rectangle 257" width="11.277" height="41.913" transform="translate(263.833 116.397)" fill="#fb6d5d"/>
      <rect id="Rectangle_258" data-name="Rectangle 258" width="11.277" height="82.12" transform="translate(302.591 76.189)" fill="#455a64"/>
      <path id="Path_1085" data-name="Path 1085" d="M291.176,159.62l.156,20.685.074,20.685.107,41.361-.338-.338c32.711-.1,112.41.041,145.13.066l27.283.074,24.2.2-24.2.2-27.283.074c-32.72,0-112.418.165-145.13.066h-.346v-.338l.115-41.361.074-20.685Z" transform="translate(-170.792 -84.04)" fill="#c7c7c7"/>
      <path id="Path_1086" data-name="Path 1086" d="M287.64,165.309a11.829,11.829,0,0,1,5.939,0,11.829,11.829,0,0,1-5.939,0Z" transform="translate(-170.23 -84.976)" fill="#c7c7c7"/>
      <path id="Path_1087" data-name="Path 1087" d="M287.64,175.277a10.841,10.841,0,0,1,2.974-.387,10.48,10.48,0,0,1,2.966.387A11.829,11.829,0,0,1,287.64,175.277Z" transform="translate(-170.23 -86.731)" fill="#c7c7c7"/>
      <path id="Path_1088" data-name="Path 1088" d="M287.64,185.239a11.829,11.829,0,0,1,5.939,0,10.478,10.478,0,0,1-2.966.387,10.84,10.84,0,0,1-2.974-.387Z" transform="translate(-170.23 -88.489)" fill="#c7c7c7"/>
      <path id="Path_1089" data-name="Path 1089" d="M287.64,195.207a10.841,10.841,0,0,1,2.974-.387,10.479,10.479,0,0,1,2.965.387,10.469,10.469,0,0,1-2.965.379A10.831,10.831,0,0,1,287.64,195.207Z" transform="translate(-170.23 -90.244)" fill="#c7c7c7"/>
      <path id="Path_1090" data-name="Path 1090" d="M287.64,205.169a11.829,11.829,0,0,1,5.939,0,11.582,11.582,0,0,1-5.939,0Z" transform="translate(-170.23 -92.001)" fill="#c7c7c7"/>
      <path id="Path_1091" data-name="Path 1091" d="M287.64,215.139a10.832,10.832,0,0,1,2.974-.379,10.47,10.47,0,0,1,2.966.379A11.582,11.582,0,0,1,287.64,215.139Z" transform="translate(-170.23 -93.758)" fill="#c7c7c7"/>
      <path id="Path_1092" data-name="Path 1092" d="M287.64,225.107a10.841,10.841,0,0,1,2.974-.387,10.479,10.479,0,0,1,2.965.387,11.829,11.829,0,0,1-5.939,0Z" transform="translate(-170.23 -95.513)" fill="#c7c7c7"/>
      <path id="Path_1093" data-name="Path 1093" d="M287.64,235.069a11.829,11.829,0,0,1,5.939,0,10.477,10.477,0,0,1-2.966.387,10.841,10.841,0,0,1-2.974-.387Z" transform="translate(-170.23 -97.271)" fill="#c7c7c7"/>
      <path id="Path_1094" data-name="Path 1094" d="M287.64,245.039a11.829,11.829,0,0,1,5.939,0,10.469,10.469,0,0,1-2.966.379A10.833,10.833,0,0,1,287.64,245.039Z" transform="translate(-170.23 -99.028)" fill="#c7c7c7"/>
      <rect id="Rectangle_259" data-name="Rectangle 259" width="36.311" height="3.55" transform="translate(36.962 69.179)" fill="#c7c7c7"/>
      <rect id="Rectangle_260" data-name="Rectangle 260" width="40.224" height="0.824" transform="translate(43.733 78.109)" fill="#c7c7c7"/>
      <rect id="Rectangle_261" data-name="Rectangle 261" width="40.224" height="0.824" transform="translate(43.733 82.087)" fill="#c7c7c7"/>
      <rect id="Rectangle_262" data-name="Rectangle 262" width="31.179" height="0.824" transform="translate(43.733 86.058)" fill="#c7c7c7"/>
      <rect id="Rectangle_263" data-name="Rectangle 263" width="36.311" height="3.55" transform="translate(36.962 129.206)" fill="#c7c7c7"/>
      <rect id="Rectangle_264" data-name="Rectangle 264" width="40.224" height="0.824" transform="translate(43.733 138.144)" fill="#c7c7c7"/>
      <rect id="Rectangle_265" data-name="Rectangle 265" width="40.224" height="0.824" transform="translate(43.733 142.115)" fill="#c7c7c7"/>
      <rect id="Rectangle_266" data-name="Rectangle 266" width="31.179" height="0.824" transform="translate(43.733 146.085)" fill="#c7c7c7"/>
      <rect id="Rectangle_267" data-name="Rectangle 267" width="40.224" height="0.824" transform="translate(43.733 93.999)" fill="#c7c7c7"/>
      <rect id="Rectangle_268" data-name="Rectangle 268" width="40.224" height="0.824" transform="translate(43.733 97.969)" fill="#c7c7c7"/>
      <rect id="Rectangle_269" data-name="Rectangle 269" width="40.224" height="0.824" transform="translate(43.733 101.948)" fill="#c7c7c7"/>
      <rect id="Rectangle_270" data-name="Rectangle 270" width="31.179" height="0.824" transform="translate(43.733 105.919)" fill="#c7c7c7"/>
      <rect id="Rectangle_271" data-name="Rectangle 271" width="40.224" height="0.824" transform="translate(43.733 113.86)" fill="#c7c7c7"/>
      <rect id="Rectangle_272" data-name="Rectangle 272" width="40.224" height="0.824" transform="translate(43.733 117.83)" fill="#c7c7c7"/>
      <rect id="Rectangle_273" data-name="Rectangle 273" width="31.179" height="0.824" transform="translate(43.733 121.801)" fill="#c7c7c7"/>
      <rect id="Rectangle_274" data-name="Rectangle 274" width="6.574" height="6.574" transform="translate(128.193 166.588)" fill="#fb6d5d"/>
      <path id="Path_1095" data-name="Path 1095" d="M317.62,272.012c5.527-.173,11.047-.247,16.574-.313s11.047-.066,16.574-.1l16.574.091,8.287.115c2.76.074,5.519.115,8.287.206-2.768.091-5.527.132-8.287.2l-8.287.115-16.574.1c-5.527,0-11.047,0-16.574-.1S323.147,272.177,317.62,272.012Z" transform="translate(-175.514 -103.776)" fill="#c7c7c7"/>
      <path id="Path_1096" data-name="Path 1096" d="M317.62,275.669c3.633-.173,7.257-.255,10.89-.321s7.266-.058,10.89-.091,7.266,0,10.89.091l5.445.115c1.82.066,3.633.107,5.445.206-1.812.091-3.625.132-5.445.2l-5.445.115c-3.625.066-7.257.066-10.89.1s-7.257,0-10.89-.1S321.228,275.867,317.62,275.669Z" transform="translate(-175.514 -104.418)" fill="#c7c7c7"/>
      <rect id="Rectangle_275" data-name="Rectangle 275" width="6.574" height="6.574" transform="translate(222.381 166.588)" fill="#455a64"/>
      <path id="Path_1097" data-name="Path 1097" d="M432,272.012c5.527-.173,11.055-.247,16.574-.313s11.047-.066,16.574-.1l16.574.091,8.287.115c2.76.074,5.527.115,8.287.206-2.76.091-5.527.132-8.287.2l-8.287.115-16.574.1c-5.527,0-11.047,0-16.574-.1S437.494,272.177,432,272.012Z" transform="translate(-195.672 -103.776)" fill="#c7c7c7"/>
      <path id="Path_1098" data-name="Path 1098" d="M432,275.669c3.633-.173,7.266-.255,10.89-.321s7.266-.058,10.89-.091,7.266,0,10.9.091l5.445.115c1.812.066,3.625.107,5.445.206-1.82.091-3.633.132-5.445.2l-5.445.115c-3.633.066-7.266.066-10.9.1s-7.257,0-10.89-.1S435.6,275.867,432,275.669Z" transform="translate(-195.672 -104.418)" fill="#c7c7c7"/>
    </g>
    <g id="freepik--Windows--inject-4" transform="translate(350.954 116.847)">
      <rect id="Rectangle_276" data-name="Rectangle 276" width="138.243" height="114.898" transform="translate(60.241 0.206)" fill="#fff"/>
      <path id="Path_1099" data-name="Path 1099" d="M627.37,247.972l-138.243.107h-.148v-.107l-.1-114.906v-.206h.206l138.284.115h.1v.091Zm0,0-.091-114.906.091.1-138.243.107.206-.206-.091,114.906-.115-.115Z" transform="translate(-428.845 -132.86)" fill="#263238"/>
      <rect id="Rectangle_277" data-name="Rectangle 277" width="138.564" height="9.185" transform="translate(60.085 0.206)" fill="#37474f"/>
      <path id="Path_1100" data-name="Path 1100" d="M496.824,138.2a2.282,2.282,0,1,1-2.282-2.282,2.282,2.282,0,0,1,2.282,2.282Z" transform="translate(-429.44 -133.399)" fill="#c7c7c7"/>
      <circle id="Ellipse_22" data-name="Ellipse 22" cx="2.274" cy="2.274" r="2.274" transform="translate(72.128 2.529)" fill="#fff"/>
      <path id="Path_1101" data-name="Path 1101" d="M519.4,138.2a2.274,2.274,0,1,1-.663-1.613A2.274,2.274,0,0,1,519.4,138.2Z" transform="translate(-433.422 -133.399)" fill="#fb6d5d"/>
      <rect id="Rectangle_278" data-name="Rectangle 278" width="5.008" height="5.008" transform="translate(77.441 96.009)" fill="#263238"/>
      <path id="Path_1102" data-name="Path 1102" d="M521.76,250.939c1.705-.148,3.41-.214,5.116-.264s4.794,0,4.794,0l2.554.091c.824.058,1.705.091,2.554.173-.824.074-1.705.107-2.554.165l-2.554.1s-3.089.049-4.794,0S523.465,251.087,521.76,250.939Z" transform="translate(-434.639 -153.62)" fill="#c7c7c7"/>
      <path id="Path_1103" data-name="Path 1103" d="M521.76,253.991c1.7-.148,3.394-.214,5.091-.264s4.5.091,4.5.091c.824.058,1.705.091,2.554.173-.824.074-1.7.107-2.554.165,0,0-2.8.148-4.5.091S523.457,254.131,521.76,253.991Z" transform="translate(-434.639 -154.16)" fill="#c7c7c7"/>
      <rect id="Rectangle_279" data-name="Rectangle 279" width="5.008" height="5.008" transform="translate(117.163 96.009)" fill="#455a64"/>
      <path id="Path_1104" data-name="Path 1104" d="M570,250.939c1.705-.148,3.41-.214,5.116-.264s4.794,0,4.794,0l2.554.091c.824.058,1.705.091,2.554.173-.824.074-1.7.107-2.554.165l-2.554.1s-3.089.049-4.794,0S571.648,251.087,570,250.939Z" transform="translate(-443.141 -153.62)" fill="#c7c7c7"/>
      <path id="Path_1105" data-name="Path 1105" d="M570,253.991c1.7-.148,3.394-.214,5.091-.264s4.506.091,4.506.091c.824.058,1.7.091,2.545.173-.824.074-1.7.107-2.545.165,0,0-2.8.148-4.506.091S571.648,254.131,570,253.991Z" transform="translate(-443.141 -154.16)" fill="#c7c7c7"/>
      <rect id="Rectangle_280" data-name="Rectangle 280" width="5.008" height="5.008" transform="translate(156.876 96.009)" fill="#fb6d5d"/>
      <path id="Path_1106" data-name="Path 1106" d="M618.18,250.939c1.705-.148,3.41-.214,5.116-.264s4.794,0,4.794,0l2.554.091c.824.058,1.705.091,2.562.173-.824.074-1.705.107-2.562.165l-2.554.1s-3.089.049-4.794,0S619.885,251.087,618.18,250.939Z" transform="translate(-451.633 -153.62)" fill="#c7c7c7"/>
      <path id="Path_1107" data-name="Path 1107" d="M618.18,253.991c1.7-.148,3.4-.214,5.1-.264s4.5.091,4.5.091c.824.058,1.7.091,2.545.173-.824.074-1.7.107-2.545.165,0,0-2.8.148-4.5.091S619.877,254.131,618.18,253.991Z" transform="translate(-451.633 -154.16)" fill="#c7c7c7"/>
      <path id="Path_1108" data-name="Path 1108" d="M506,231.272c9.061-.173,18.18-.255,27.266-.321l27.266-.091,27.266.091,13.633.115,13.633.206-13.633.2-13.633.115-27.266.091-27.266-.091C524.123,231.519,515.061,231.437,506,231.272Z" transform="translate(-431.862 -150.132)" fill="#ebebeb"/>
      <path id="Path_1109" data-name="Path 1109" d="M506,222.112c9.061-.173,18.18-.247,27.266-.313l27.266-.1,27.266.1,13.633.107,13.633.206-13.633.206-13.633.107-27.266.1-27.266-.1C524.123,222.359,515.061,222.285,506,222.112Z" transform="translate(-431.862 -148.517)" fill="#ebebeb"/>
      <path id="Path_1110" data-name="Path 1110" d="M506,212.914c9.061-.165,18.18-.247,27.266-.313l27.266-.091,27.266.091,13.633.115,13.633.2-13.633.206-13.633.115-27.266.091-27.266-.091C524.123,213.2,515.061,213.12,506,212.914Z" transform="translate(-431.862 -146.898)" fill="#ebebeb"/>
      <path id="Path_1111" data-name="Path 1111" d="M506,203.8c9.061-.173,18.18-.247,27.266-.313l27.266-.1,27.266.1,13.633.107,13.633.206-13.633.206-13.633.107-27.266.1-27.266-.1C524.123,204.049,515.061,203.975,506,203.8Z" transform="translate(-431.862 -145.29)" fill="#ebebeb"/>
      <path id="Path_1112" data-name="Path 1112" d="M506,194.644c9.061-.165,18.18-.247,27.266-.313l27.266-.091,27.266.091,13.633.115,13.633.2-13.633.206-13.633.115-27.266.091-27.266-.091C524.123,194.866,515.061,194.817,506,194.644Z" transform="translate(-431.862 -143.678)" fill="#ebebeb"/>
      <path id="Path_1113" data-name="Path 1113" d="M506,185.492c9.061-.173,18.18-.247,27.266-.313l27.266-.1,27.266.1,13.633.107,13.633.206-13.633.2L587.8,185.8l-27.266.1-27.266-.1C524.123,185.739,515.061,185.665,506,185.492Z" transform="translate(-431.862 -142.063)" fill="#ebebeb"/>
      <path id="Path_1114" data-name="Path 1114" d="M506,176.334c9.061-.165,18.18-.247,27.266-.313l27.266-.091,27.266.091,13.633.115,13.633.2-13.633.206-13.633.115-27.266.091-27.266-.091C524.123,176.589,515.061,176.507,506,176.334Z" transform="translate(-431.862 -140.451)" fill="#ebebeb"/>
      <path id="Path_1115" data-name="Path 1115" d="M506,167.182c9.061-.173,18.18-.247,27.266-.313l27.266-.1,27.266.091,13.633.115,13.633.206-13.633.2-13.633.115-27.266.1-27.266-.1C524.123,167.429,515.061,167.355,506,167.182Z" transform="translate(-431.862 -138.836)" fill="#ebebeb"/>
      <path id="Path_1116" data-name="Path 1116" d="M506,158.022c9.061-.165,18.18-.247,27.266-.313l27.266-.1,27.266.1,13.633.115,13.633.2-13.633.206-13.633.115-27.266.091-27.266-.091C524.123,158.277,515.061,158.195,506,158.022Z" transform="translate(-431.862 -137.222)" fill="#ebebeb"/>
      <path id="Path_1117" data-name="Path 1117" d="M512.129,221.345l-.189-.807,14.136-3.213,13.551-13.3,5.453,3.625,10.8-10.791,5.939,3.559,3.855-3.229,10.758,11.351,14.136-16.994,11.763,12.513,13.592-6.211.338.75-14.127,6.45-11.524-12.258-14.136,16.994-10.865-11.467-3.715,3.106L556,197.9l-10.816,10.816-5.453-3.633-13.246,12.991-.115.025Z" transform="translate(-432.909 -143.204)" fill="#455a64"/>
      <circle id="Ellipse_23" data-name="Ellipse 23" cx="1.425" cy="1.425" r="1.425" transform="translate(91.964 72.952)" fill="#455a64"/>
      <path id="Path_1118" data-name="Path 1118" d="M546.567,207.173a1.425,1.425,0,1,1-.417-1.016,1.433,1.433,0,0,1,.417,1.016Z" transform="translate(-438.506 -145.705)" fill="#455a64"/>
      <path id="Path_1119" data-name="Path 1119" d="M566.62,198.458a1.425,1.425,0,1,1-.405-1.029,1.425,1.425,0,0,1,.405,1.029Z" transform="translate(-442.043 -144.164)" fill="#455a64"/>
      <path id="Path_1120" data-name="Path 1120" d="M573.667,202.7a1.433,1.433,0,1,1-1.425-1.425,1.433,1.433,0,0,1,1.425,1.425Z" transform="translate(-443.282 -144.917)" fill="#455a64"/>
      <path id="Path_1121" data-name="Path 1121" d="M578.277,198.913a1.433,1.433,0,1,1-1.433-1.433,1.433,1.433,0,0,1,1.433,1.433Z" transform="translate(-444.095 -144.249)" fill="#455a64"/>
      <circle id="Ellipse_24" data-name="Ellipse 24" cx="1.425" cy="1.425" r="1.425" transform="translate(156.127 47.539)" fill="#455a64"/>
      <circle id="Ellipse_25" data-name="Ellipse 25" cx="1.425" cy="1.425" r="1.425" transform="translate(168.112 59.722)" fill="#455a64"/>
      <path id="Path_1122" data-name="Path 1122" d="M639.5,199.585a1.433,1.433,0,1,1-1.433-1.425,1.433,1.433,0,0,1,1.433,1.425Z" transform="translate(-454.884 -144.369)" fill="#455a64"/>
      <path id="Path_1123" data-name="Path 1123" d="M591.387,212.485a1.433,1.433,0,1,1-1.433-1.425,1.433,1.433,0,0,1,1.433,1.425Z" transform="translate(-446.405 -146.642)" fill="#455a64"/>
      <path id="Path_1124" data-name="Path 1124" d="M512.291,220.358l-.6-.552L526.8,203.282l6.1,3.213L549.031,190.1l4.457,3.657,7.611-6.549,14.506,10.437,3.221-3.666,8.213,7.579,12.052-10.7,7.727,6.615,9.119-2.463.214.8-9.539,2.57-7.513-6.425-12.068,10.717-8.139-7.513-3.163,3.6-14.589-10.5L553.5,194.83l-4.415-3.608-16.03,16.286-6.079-3.2Z" transform="translate(-432.865 -142.439)" fill="#263238"/>
      <circle id="Ellipse_26" data-name="Ellipse 26" cx="1.425" cy="1.425" r="1.425" transform="translate(92.483 60.2)" fill="#263238"/>
      <path id="Path_1125" data-name="Path 1125" d="M538.567,210.835a1.433,1.433,0,1,1-1.433-1.425,1.433,1.433,0,0,1,1.433,1.425Z" transform="translate(-437.096 -146.351)" fill="#263238"/>
      <path id="Path_1126" data-name="Path 1126" d="M557.947,191.213a1.425,1.425,0,1,1-.417-1.016A1.433,1.433,0,0,1,557.947,191.213Z" transform="translate(-440.512 -142.892)" fill="#263238"/>
      <path id="Path_1127" data-name="Path 1127" d="M563.767,195.443a1.425,1.425,0,1,1-.414-1.013,1.433,1.433,0,0,1,.414,1.013Z" transform="translate(-441.538 -143.637)" fill="#263238"/>
      <path id="Path_1128" data-name="Path 1128" d="M572.827,187.535a1.433,1.433,0,1,1-1.425-1.425A1.433,1.433,0,0,1,572.827,187.535Z" transform="translate(-443.134 -142.245)" fill="#263238"/>
      <circle id="Ellipse_27" data-name="Ellipse 27" cx="1.425" cy="1.425" r="1.425" transform="translate(141.291 54.302)" fill="#263238"/>
      <path id="Path_1129" data-name="Path 1129" d="M594.137,195.9a1.433,1.433,0,1,1-1.425-1.425,1.433,1.433,0,0,1,1.425,1.425Z" transform="translate(-446.89 -143.718)" fill="#263238"/>
      <path id="Path_1130" data-name="Path 1130" d="M604.067,205.053a1.425,1.425,0,1,1-.417-1.016,1.433,1.433,0,0,1,.417,1.016Z" transform="translate(-448.64 -145.331)" fill="#263238"/>
      <path id="Path_1131" data-name="Path 1131" d="M619.027,192.425A1.433,1.433,0,1,1,617.6,191a1.433,1.433,0,0,1,1.425,1.425Z" transform="translate(-451.277 -143.107)" fill="#263238"/>
      <circle id="Ellipse_28" data-name="Ellipse 28" cx="1.425" cy="1.425" r="1.425" transform="translate(172.495 54.088)" fill="#263238"/>
      <path id="Path_1132" data-name="Path 1132" d="M639.5,196.693a1.433,1.433,0,1,1-1.433-1.433A1.433,1.433,0,0,1,639.5,196.693Z" transform="translate(-454.884 -143.858)" fill="#263238"/>
      <path id="Path_1133" data-name="Path 1133" d="M512.622,223.508l-.412-.708,18.345-10.536L540.4,216.7l5.387-1.812,5.659,3.493,11.689-8.592,4.679,3.789,4.951-1.475,8.1,4.572,12.776-6.1,8.089,6.055L615.9,206.44l.486.667-14.663,10.536-8.172-6.112L580.829,217.6l-8.163-4.613-5.033,1.5-4.522-3.666-11.631,8.542-5.8-3.575-5.33,1.788-9.745-4.391Z" transform="translate(-432.956 -145.828)" fill="#fb6d5d"/>
      <path id="Path_1134" data-name="Path 1134" d="M535.637,213.765a1.433,1.433,0,1,1-1.433-1.425,1.433,1.433,0,0,1,1.433,1.425Z" transform="translate(-436.58 -146.868)" fill="#fb6d5d"/>
      <circle id="Ellipse_29" data-name="Ellipse 29" cx="1.425" cy="1.425" r="1.425" transform="translate(105.993 69.83)" fill="#fb6d5d"/>
      <circle id="Ellipse_30" data-name="Ellipse 30" cx="1.425" cy="1.425" r="1.425" transform="translate(111.364 68.331)" fill="#fb6d5d"/>
      <path id="Path_1135" data-name="Path 1135" d="M561.077,221.105a1.433,1.433,0,1,1-1.433-1.425,1.433,1.433,0,0,1,1.433,1.425Z" transform="translate(-441.064 -148.161)" fill="#fb6d5d"/>
      <path id="Path_1136" data-name="Path 1136" d="M580.647,215.1a1.425,1.425,0,1,1-.414-1.013,1.433,1.433,0,0,1,.414,1.013Z" transform="translate(-444.513 -147.102)" fill="#fb6d5d"/>
      <circle id="Ellipse_31" data-name="Ellipse 31" cx="1.425" cy="1.425" r="1.425" transform="translate(146.398 69.764)" fill="#fb6d5d"/>
      <circle id="Ellipse_32" data-name="Ellipse 32" cx="1.425" cy="1.425" r="1.425" transform="translate(167.552 69.764)" fill="#fb6d5d"/>
      <circle id="Ellipse_33" data-name="Ellipse 33" cx="1.425" cy="1.425" r="1.425" transform="translate(128.654 62.993)" fill="#fb6d5d"/>
      <circle id="Ellipse_34" data-name="Ellipse 34" cx="1.425" cy="1.425" r="1.425" transform="translate(138.432 65.472)" fill="#fb6d5d"/>
      <path id="Path_1137" data-name="Path 1137" d="M611.987,211.633a1.425,1.425,0,1,1-.417-1.016A1.433,1.433,0,0,1,611.987,211.633Z" transform="translate(-450.036 -146.491)" fill="#fb6d5d"/>
      <path id="Path_1138" data-name="Path 1138" d="M639.5,206.535a1.433,1.433,0,1,1-1.433-1.425,1.433,1.433,0,0,1,1.433,1.425Z" transform="translate(-454.884 -145.594)" fill="#fb6d5d"/>
      <path id="Path_1139" data-name="Path 1139" d="M510.527,153.82l.165,17.8.107,17.8.082,17.793.025,17.8-.379-.387,25.957-.008,25.948.041,25.957.124,25.957.231-25.957.222-25.957.132-25.948.041-25.957-.016h-.387v-.379l.033-17.8.082-17.793.107-17.8Z" transform="translate(-432.591 -136.554)" fill="#ebebeb"/>
      <rect id="Rectangle_281" data-name="Rectangle 281" width="138.243" height="109.107" transform="translate(0.214 124.297)" fill="#fff"/>
      <path id="Path_1140" data-name="Path 1140" d="M554.457,392.813l-138.243.115H416.1v-.115L416,283.706V283.5h.206l138.243.115h.1v.091Zm0,0-.066-109.107.1.1-138.276.107.206-.206-.091,109.107-.115-.115Z" transform="translate(-416 -159.409)" fill="#263238"/>
      <rect id="Rectangle_282" data-name="Rectangle 282" width="138.564" height="9.185" transform="translate(0.058 124.297)" fill="#37474f"/>
      <path id="Path_1141" data-name="Path 1141" d="M423.954,288.842a2.282,2.282,0,1,1-2.282-2.282,2.282,2.282,0,0,1,2.282,2.282Z" transform="translate(-416.597 -159.949)" fill="#c7c7c7"/>
      <circle id="Ellipse_35" data-name="Ellipse 35" cx="2.274" cy="2.274" r="2.274" transform="translate(12.101 126.62)" fill="#fff"/>
      <path id="Path_1142" data-name="Path 1142" d="M446.527,288.842a2.274,2.274,0,1,1-.663-1.613,2.274,2.274,0,0,1,.663,1.613Z" transform="translate(-420.579 -159.949)" fill="#fb6d5d"/>
      <rect id="Rectangle_283" data-name="Rectangle 283" width="5.008" height="5.008" transform="translate(18.205 214.926)" fill="#fb6d5d"/>
      <path id="Path_1143" data-name="Path 1143" d="M449.85,395.308c1.705-.14,3.41-.206,5.107-.264s4.794,0,4.794,0l2.562.1c.824.058,1.705.091,2.554.165-.824.082-1.705.115-2.554.173l-2.562.091s-3.089.058-4.794,0S451.555,395.448,449.85,395.308Z" transform="translate(-421.966 -179.064)" fill="#c7c7c7"/>
      <path id="Path_1144" data-name="Path 1144" d="M449.85,398.351c1.7-.14,3.394-.206,5.091-.264s4.5.1,4.5.1c.824.058,1.7.091,2.554.165-.824.082-1.705.115-2.554.173,0,0-2.8.148-4.5.091S451.547,398.491,449.85,398.351Z" transform="translate(-421.966 -179.602)" fill="#c7c7c7"/>
      <path id="Path_1145" data-name="Path 1145" d="M438.1,357.354c3.3,0,5.247-10.808,9.885-10.808s5.148,7.883,9.061,7.883,3.8-13.847,9.061-13.847,4.036,5.626,9.58,5.626,3.435-13.048,9.193-13.048,3.427,17.991,9.432,17.991c3.8,0,5.272-5.709,9.8-5.709,3,0,4.77,2.858,8.691,2.858s4.786-10.981,9.687-10.981,5.461,6.5,9.061,6.5,4.943-10.643,11.533-10.643V375.27H438.1Z" transform="translate(-419.895 -168.161)" fill="#fb6d5d" opacity="0.5"/>
      <path id="Path_1146" data-name="Path 1146" d="M438.1,357.746v-1.038c1,0,2.372-2.529,3.369-4.366,1.722-3.171,3.5-6.442,6.532-6.442s4.366,2.4,5.643,4.514c1,1.648,2.035,3.369,3.427,3.369,1.227,0,2.29-3.3,3.064-5.766,1.269-3.979,2.587-8.089,6-8.089,3.056,0,4.251,1.648,5.305,3.04s1.911,2.578,4.251,2.578c2.125,0,2.949-3.048,3.756-6,.939-3.468,1.919-7.051,5.437-7.051s4.382,4.514,5.33,9.292c.758,3.872,1.713,8.682,4.119,8.682,1.433,0,2.595-1.186,3.83-2.471,1.507-1.532,3.221-3.3,5.972-3.3a8.526,8.526,0,0,1,4.193,1.392,8.9,8.9,0,0,0,4.5,1.466c1.359,0,2.6-2.611,3.6-4.712,1.466-3.081,2.982-6.269,6.088-6.269s4.6,2.068,5.948,3.9c.972,1.334,1.9,2.595,3.114,2.595,1.038,0,2.216-2.018,3.246-3.8,1.771-3.048,3.971-6.837,8.238-6.837v1.038c-3.3,0-5.223,3.3-6.9,6.195-1.442,2.471-2.587,4.448-4.613,4.448s-3.237-1.532-4.424-3.163-2.471-3.336-4.638-3.336c-2.051,0-3.452,2.957-4.687,5.56-1.384,2.908-2.578,5.42-5,5.42a10.544,10.544,0,0,1-5.4-1.648,6.9,6.9,0,0,0-3.3-1.178c-1.985,0-3.394,1.433-4.761,2.826s-2.842,2.883-5.041,2.883c-3.674,0-4.588-4.646-5.569-9.572-.733-3.74-1.647-8.4-3.863-8.4s-3.2,3.3-4,6.211c-.956,3.517-1.862,6.837-5.2,6.837s-4.465-1.648-5.552-3.139c-.989-1.326-1.837-2.471-4-2.471s-3.526,4.036-4.564,7.282c-1.17,3.674-2.092,6.59-4.5,6.59s-3.542-1.944-4.778-4c-1.153-1.9-2.348-3.88-4.292-3.88s-3.756,3.2-5.157,5.766C441.313,355.522,440.11,357.746,438.1,357.746Z" transform="translate(-419.895 -168.035)" fill="#fb6d5d"/>
      <path id="Path_1147" data-name="Path 1147" d="M434.81,320.2c17.95-.107,35.891-.082,53.841-.124s35.9,0,53.841.124c-17.941.115-35.891.091-53.841.132S452.76,320.316,434.81,320.2Z" transform="translate(-419.315 -165.853)" fill="#c7c7c7"/>
      <path id="Path_1148" data-name="Path 1148" d="M434.81,333.118c17.95-.115,35.891-.082,53.841-.132s35.9,0,53.841.132c-17.941.115-35.891.082-53.841.132S452.76,333.225,434.81,333.118Z" transform="translate(-419.315 -168.127)" fill="#c7c7c7"/>
      <path id="Path_1149" data-name="Path 1149" d="M434.81,346.038c17.95-.115,35.891-.091,53.841-.132s35.9,0,53.841.132c-17.941.107-35.891.082-53.841.124S452.76,346.146,434.81,346.038Z" transform="translate(-419.315 -170.405)" fill="#c7c7c7"/>
      <path id="Path_1150" data-name="Path 1150" d="M434.81,358.968c17.95-.107,35.891-.082,53.841-.132s35.9,0,53.841.132c-17.941.115-35.891.082-53.841.132S452.76,359.067,434.81,358.968Z" transform="translate(-419.315 -172.683)" fill="#c7c7c7"/>
      <path id="Path_1151" data-name="Path 1151" d="M434.81,371.868c17.95-.115,35.891-.082,53.841-.132s35.9,0,53.841.132c-17.941.107-35.891.082-53.841.132S452.76,371.95,434.81,371.868Z" transform="translate(-419.315 -174.957)" fill="#c7c7c7"/>
      <path id="Path_1152" data-name="Path 1152" d="M461.087,311.84c.157,9.935.115,19.877.181,29.82-.066,9.943,0,19.885-.181,29.828-.156-9.943-.124-19.885-.181-29.828S460.931,321.775,461.087,311.84Z" transform="translate(-423.911 -164.404)" fill="#c7c7c7"/>
      <path id="Path_1153" data-name="Path 1153" d="M483.691,311.84c.165,9.935.124,19.877.189,29.82-.066,9.943,0,19.885-.189,29.828-.156-9.943-.115-19.885-.181-29.828C483.576,331.742,483.535,321.775,483.691,311.84Z" transform="translate(-427.898 -164.404)" fill="#c7c7c7"/>
      <path id="Path_1154" data-name="Path 1154" d="M506.3,311.84c.156,9.935.115,19.877.181,29.82s0,19.885-.181,29.828c-.157-9.943-.115-19.885-.181-29.828C506.186,331.742,506.145,321.775,506.3,311.84Z" transform="translate(-431.883 -164.404)" fill="#c7c7c7"/>
      <path id="Path_1155" data-name="Path 1155" d="M528.959,311.84c.157,9.935.115,19.877.181,29.82-.066,9.943,0,19.885-.181,29.828-.165-9.943-.124-19.885-.189-29.828C528.795,331.742,528.754,321.775,528.959,311.84Z" transform="translate(-435.875 -164.404)" fill="#c7c7c7"/>
      <path id="Path_1156" data-name="Path 1156" d="M551.511,311.84c.156,9.935.124,19.877.189,29.82-.066,9.943,0,19.885-.189,29.828-.156-9.943-.115-19.885-.181-29.828C551.4,331.742,551.355,321.775,551.511,311.84Z" transform="translate(-439.851 -164.404)" fill="#c7c7c7"/>
      <path id="Path_1157" data-name="Path 1157" d="M438.026,312.62c.124,9.836.222,19.671.231,29.5l.115,29.507-.346-.247,52.49.066,26.245.041,26.237.14-26.237.132-26.245.049-52.49.058h-.346v-.239l.115-29.507C437.8,332.291,437.944,322.456,438.026,312.62Z" transform="translate(-419.821 -164.541)" fill="#c7c7c7"/>
    </g>
    <g id="freepik--Character--inject-4" transform="translate(81.542 116.868)">
      <path id="Path_1158" data-name="Path 1158" d="M250.026,445.65c-1.771.577-52.243.132-54.154-1.1-.725-.461-1.1-7.817-1.277-16.714,0-1.919-3.855-32.893-3.855-32.893l33.774.206,2.653,32.876s19.243,8.814,21.2,10.4S251.789,445.074,250.026,445.65Z" transform="translate(-106.887 -179.072)" fill="#f7a9a0"/>
      <path id="Path_1159" data-name="Path 1159" d="M194.84,429.19c.272,2.471.461,4.267.47,4.679.189,8.9.552,16.253,1.285,16.714,1.911,1.236,52.383,1.648,54.146,1.1s.255-5.659-1.689-7.233-21.2-10.4-21.2-10.4l-.4-4.868Z" transform="translate(-107.61 -185.108)" fill="#fff"/>
      <path id="Path_1160" data-name="Path 1160" d="M250.851,452.688c-1.771.577-52.243.132-54.154-1.1-.725-.461-1.1-7.817-1.277-16.714l32.538.189s19.243,8.814,21.2,10.4S252.613,452.111,250.851,452.688Z" transform="translate(-107.712 -186.109)" fill="#fb6d5d"/>
      <path id="Path_1161" data-name="Path 1161" d="M250.932,453.912c-8.46-.28-42.6-.618-50.982-.255-.066,0-.066.049,0,.049,8.378.47,42.522.527,50.982.346C251.1,454.085,251.113,453.953,250.932,453.912Z" transform="translate(-108.502 -189.392)" fill="#263238"/>
      <path id="Path_1162" data-name="Path 1162" d="M236.863,436.159c-3.386-.074-7.323,1.087-9.449,3.83-.082.107.066.222.173.173a46.386,46.386,0,0,1,9.366-3.583.215.215,0,0,0-.091-.42Z" transform="translate(-113.347 -186.335)" fill="#263238"/>
      <path id="Path_1163" data-name="Path 1163" d="M240.024,437.419c-3.386-.074-7.315,1.087-9.448,3.839-.082.107.074.222.173.173a46.6,46.6,0,0,1,9.333-3.592.214.214,0,0,0-.058-.42Z" transform="translate(-113.904 -186.558)" fill="#263238"/>
      <path id="Path_1164" data-name="Path 1164" d="M243.192,438.689c-3.386-.074-7.323,1.079-9.457,3.831-.082.107.074.222.173.173a46.571,46.571,0,0,1,9.333-3.583.214.214,0,0,0-.049-.42Z" transform="translate(-114.461 -186.782)" fill="#263238"/>
      <path id="Path_1165" data-name="Path 1165" d="M246.353,440c-3.386-.074-7.323,1.087-9.449,3.839-.082.107.066.222.165.173a46.672,46.672,0,0,1,9.341-3.592.214.214,0,0,0-.058-.42Z" transform="translate(-115.019 -187.012)" fill="#263238"/>
      <path id="Path_1166" data-name="Path 1166" d="M132.42,243.16s38.362,67.136,39.351,71.823c1.524,7.216,10.272,86.766,10.272,86.766l37.753-.239s-7.331-71.123-13.732-91.832c-3.5-11.31-21.871-41.954-30.479-57.078-.766-1.351-.544-7.537-.544-7.537Z" transform="translate(-96.609 -152.321)" fill="#37474f"/>
      <path id="Path_1167" data-name="Path 1167" d="M227.365,427.687c-5.857-.115-23.576-.6-31.377,0a.058.058,0,0,0,0,.115c2.677.42,25.536.14,31.377,0A.082.082,0,0,0,227.365,427.687Z" transform="translate(-107.802 -184.791)" fill="#263238"/>
      <path id="Path_1168" data-name="Path 1168" d="M140.419,250.682c2.512,4.053,5.173,8.032,7.752,12.06s5.148,8.056,7.677,12.109q7.6,12.15,14.828,24.515a73.872,73.872,0,0,1,5.964,11.953,72.089,72.089,0,0,1,3.3,12.834c.75,4.391,1.219,8.814,1.648,13.229q.7,7.068,1.4,14.127c.956,9.638,2.99,27.7,3.946,37.341.124,1.186.239,2.364.338,3.55a.158.158,0,0,1-.313,0c-1.079-9.572-3.048-27.612-4.012-37.193l-1.458-14.325c-.445-4.432-.873-8.88-1.507-13.3a87.154,87.154,0,0,0-2.71-12.867,61.732,61.732,0,0,0-5.486-12.546c-4.621-8.238-9.523-16.269-14.424-24.326s-9.943-16.2-15.116-24.169c-.643-.98-1.285-1.961-1.952-2.933C140.238,250.674,140.37,250.6,140.419,250.682Z" transform="translate(-97.994 -153.641)" fill="#263238"/>
      <path id="Path_1169" data-name="Path 1169" d="M139.94,445.819c-1.862-.14-49.607-20.174-50.925-22.036a.684.684,0,0,1-.066-.354c0-1.648,3.419-7.414,6.294-14.927.181-.486,16.566-28.172,16.566-28.172l31.212,12.851-17.694,27.7s14.539,15.4,15.75,17.587S141.794,445.959,139.94,445.819Z" transform="translate(-88.947 -176.497)" fill="#f7a9a0"/>
      <path id="Path_1170" data-name="Path 1170" d="M89,428.514a.684.684,0,0,0,.066.354c1.318,1.862,49.063,21.9,50.925,22.035s2.348-5.157,1.137-7.348-15.75-17.587-15.75-17.587l2.669-4.176L97.805,409.18c-1.5,2.554-2.471,4.292-2.554,4.407C92.377,421.133,89,426.866,89,428.514Z" transform="translate(-88.956 -181.581)" fill="#fff"/>
      <path id="Path_1171" data-name="Path 1171" d="M139.94,451.838c-1.862-.124-49.607-20.166-50.925-22.027-.494-.7,1.73-7.233,6.228-15.281l30.084,12.356s14.539,15.4,15.758,17.587S141.794,451.986,139.94,451.838Z" transform="translate(-88.947 -182.524)" fill="#fb6d5d"/>
      <path id="Path_1172" data-name="Path 1172" d="M140.9,453.078c-7.735-3.435-39.252-16.558-47.16-19.358-.066,0-.082,0,0,.049,7.587,3.567,39.211,16.475,47.127,19.441C140.989,453.276,141.038,453.152,140.9,453.078Z" transform="translate(-89.782 -185.906)" fill="#263238"/>
      <path id="Path_1173" data-name="Path 1173" d="M134.208,431.752c-3.106-1.335-7.191-1.738-10.2,0-.115.066,0,.231.091.222a46.654,46.654,0,0,1,10,.173.214.214,0,0,0,.107-.4Z" transform="translate(-95.118 -185.356)" fill="#263238"/>
      <path id="Path_1174" data-name="Path 1174" d="M136.668,434.142c-3.114-1.334-7.191-1.738-10.2,0-.115.066,0,.231.091.222a46.652,46.652,0,0,1,10,.173.214.214,0,0,0,.107-.4Z" transform="translate(-95.552 -185.777)" fill="#263238"/>
      <path id="Path_1175" data-name="Path 1175" d="M139.118,436.5c-3.106-1.343-7.191-1.738-10.2,0-.115.074,0,.239.1.222a47.209,47.209,0,0,1,10,.181.214.214,0,0,0,.1-.4Z" transform="translate(-95.984 -186.192)" fill="#263238"/>
      <path id="Path_1176" data-name="Path 1176" d="M141.578,438.862c-3.106-1.343-7.191-1.738-10.2,0-.115.074,0,.239.1.222a46.6,46.6,0,0,1,9.992.181.214.214,0,0,0,.107-.4Z" transform="translate(-96.417 -186.608)" fill="#263238"/>
      <path id="Path_1177" data-name="Path 1177" d="M127.036,394.645,92.1,380.031s48.009-70.991,48.388-75.786c.338-4.209-18.329-41.188-18.946-51.9-.675-11.533,5-20.429,11.178-25.9L167.927,242.1a24.532,24.532,0,0,1-9.135,9.613s18.049,42.679,16.838,55.719S127.036,394.645,127.036,394.645Z" transform="translate(-89.503 -149.376)" fill="#37474f"/>
      <path id="Path_1178" data-name="Path 1178" d="M130.08,419.856c-5.05-2.241-3.567-1.647-8.649-3.855-2.471-1.071-18.806-8.1-21.3-8.691-.049,0-.091.074,0,.107,2.166,1.359,18.617,8.1,21.121,9.119,5.116,2.092,3.666,1.442,8.806,3.468a.082.082,0,0,0,.025-.148Z" transform="translate(-90.908 -181.252)" fill="#263238"/>
      <path id="Path_1179" data-name="Path 1179" d="M177.922,256.288a67.93,67.93,0,0,0-11.08,3.435.117.117,0,1,0,.074.222c3.715-1.038,7.5-2,11.145-3.229a.225.225,0,0,0-.14-.428Z" transform="translate(-102.662 -154.633)" fill="#263238"/>
      <path id="Path_1180" data-name="Path 1180" d="M174.8,254.377a16.772,16.772,0,0,0-.956,1.928,4.629,4.629,0,0,0-.494,1.648c0,.107.148.14.214.074a5.766,5.766,0,0,0,.931-1.524c.313-.593.643-1.178.939-1.788C175.632,254.294,175.022,254.039,174.8,254.377Z" transform="translate(-103.823 -154.271)" fill="#263238"/>
      <path id="Path_1181" data-name="Path 1181" d="M175.447,249.553c.231-.552.453-1.1.7-1.648s.535-1.129.741-1.713c0-.091.181,0,.14.066-.231.552-.379,1.145-.568,1.722s-.379,1.145-.577,1.713a33.448,33.448,0,0,1-1.285,3.138,4.061,4.061,0,0,0,1.746-.28,3.213,3.213,0,0,0,1.244-1.458c.329-.626.626-1.26.964-1.87a13.319,13.319,0,0,0,1.03-2.092c0-.091.173,0,.14.066a23.807,23.807,0,0,1-1.985,4.44c-.338.552-.618,1.129-1.236,1.335a5.133,5.133,0,0,1-2.068.115c-.082,0-.189,0-.165-.14C174.615,251.793,174.994,250.657,175.447,249.553Z" transform="translate(-103.984 -152.849)" fill="#263238"/>
      <path id="Path_1182" data-name="Path 1182" d="M173.688,258.815c1.252,2.743,2.356,5.478,3.526,8.238s2.208,5.379,3.246,8.089c2.092,5.486,3.962,11.071,5.585,16.706q1.211,4.185,2.208,8.435a61.073,61.073,0,0,1,1.573,8.608,22.645,22.645,0,0,1-.824,8.6c-.824,2.842-5.552,13.444-7.257,15.651-1.112,1.425-1.079,1.4-.684.577,1.112-2.323,8.056-15.116,7.966-22.472a48.155,48.155,0,0,0-1.343-9.061c-.626-2.858-1.343-5.7-2.125-8.526-1.54-5.56-3.386-11.014-5.28-16.475-1.071-3.056-2.216-6.079-3.3-9.119s-2.241-5.816-3.427-9.2a.074.074,0,1,1,.132-.049Z" transform="translate(-103.856 -155.068)" fill="#263238"/>
      <path id="Path_1183" data-name="Path 1183" d="M141.465,245.907c.634-.231,1.5.165,2.142.28a18.119,18.119,0,0,0,2.471.28,19.045,19.045,0,0,0,2.471-.049,5.453,5.453,0,0,0,2.364-.593,11.879,11.879,0,0,0,3.056-3.163,18.122,18.122,0,0,0,2.4-4.119c0-.082.165,0,.132.066-.272.824-.478,1.648-.824,2.471a17.3,17.3,0,0,1-1.186,2.216,9.6,9.6,0,0,1-3.171,3.5,8.9,8.9,0,0,1-4.943.626,17.685,17.685,0,0,1-2.793-.4c-.667-.148-1.779-.272-2.2-.824a.2.2,0,0,1,.082-.288Z" transform="translate(-98.183 -151.502)" fill="#263238"/>
      <path id="Path_1184" data-name="Path 1184" d="M104.355,374.141c5.882-8.666,15.355-24.919,21.014-33.708s11.277-17.711,16.78-26.649a38.062,38.062,0,0,0,3.7-6.648c.939-2.578.453-5.1-.338-7.644a127.225,127.225,0,0,0-5.206-13.7c-1.969-4.49-4.119-8.9-6.186-13.337a129.03,129.03,0,0,1-5.84-13.419,22.887,22.887,0,0,1-.774-13.493c1.236-4.531,3.814-8.526,6.516-12.274.708-.988,1.433-1.969,2.15-2.957.049-.074.165,0,.107.091-2.966,3.913-5.865,8.048-7.636,12.653a22.3,22.3,0,0,0-1.54,7.125,23.2,23.2,0,0,0,1.054,7.315,96.759,96.759,0,0,0,5.585,13.328c2.035,4.341,4.226,8.847,6.228,13.32A139.108,139.108,0,0,1,145.4,297.9a19.2,19.2,0,0,1,1.376,6.5c-.082,2.471-1.277,4.621-2.471,6.656-5.363,8.9-10.923,17.67-16.549,26.36s-15.1,24.96-20.94,33.593c-.741,1.087-1.475,2.175-2.216,3.254C104.462,374.438,104.264,374.273,104.355,374.141Z" transform="translate(-91.659 -150.052)" fill="#263238"/>
      <path id="Path_1185" data-name="Path 1185" d="M172.752,177.227c1.705,9.465,13.221,35.685,20.66,41.188,4.333,3.213,31.632,15.907,33.362,12.982,1.6-2.718,1.771-24.013,1.771-24.013-6.417-2.092-24.243-7.719-26.311-8.122-1.458-.288-11.03-12.538-21.261-24.91C175.314,167.506,171.723,171.567,172.752,177.227Z" transform="translate(-103.686 -139.562)" fill="#f7a9a0"/>
      <path id="Path_1186" data-name="Path 1186" d="M222.6,203.863l-2.356,28.518s-22.414-8.419-28.922-14.16-16.319-27.39-19.062-38.717,2.545-13.543,11.475-3.147c7.348,8.551,17.044,20.66,18.395,21.344S222.6,203.863,222.6,203.863Z" transform="translate(-103.503 -139.368)" fill="#fb6d5d"/>
      <path id="Path_1187" data-name="Path 1187" d="M176.163,183.214a1.269,1.269,0,0,1-.5.255.988.988,0,0,1-.939-.3,1.351,1.351,0,0,0-1.458-.247,1.03,1.03,0,0,0-.4.3,2.84,2.84,0,0,0,.091.329,1.03,1.03,0,0,1,.453-.231.98.98,0,0,1,.947.239,1.293,1.293,0,0,0,2.01-.157c.115-.189.247-.362.354-.56C176.517,182.967,176.344,183.1,176.163,183.214Zm12.463.939a1.285,1.285,0,0,1-.148.412,1,1,0,0,1-.824.486,1.326,1.326,0,0,0-1.227.824,1.145,1.145,0,0,0-.066.717,2.464,2.464,0,0,0,.124.643c.058-.214.091-.42.132-.643a1.376,1.376,0,0,1,.181-.535,1,1,0,0,1,.873-.461,1.326,1.326,0,0,0,1.211-.824,1.129,1.129,0,0,0,.058-.239A1.631,1.631,0,0,1,188.627,184.153Zm32.127,34.153c-.058-.206-.082-.42-.14-.643a4.886,4.886,0,0,0-.124.643,1.318,1.318,0,0,1-.173.56,1,1,0,0,1-.824.486,1.318,1.318,0,0,0-1.227.824,1.063,1.063,0,0,0-.058.708,5.222,5.222,0,0,0,.115.643c.058-.206.091-.42.132-.643a1.293,1.293,0,0,1,.181-.527.98.98,0,0,1,.873-.461,1.343,1.343,0,0,0,1.211-.824,1.648,1.648,0,0,0-.016-.766Zm-25.676-8.015c-.049-.214-.074-.42-.132-.643a6.361,6.361,0,0,0-.132.643,1.286,1.286,0,0,1-.173.552.98.98,0,0,1-.824.494,1.31,1.31,0,0,0-1.227.824,1.071,1.071,0,0,0-.066.708,2.835,2.835,0,0,0,.115.651,4.12,4.12,0,0,0,.132-.651,1.343,1.343,0,0,1,.189-.527,1,1,0,0,1,.824-.461,1.335,1.335,0,0,0,1.219-.824,1.573,1.573,0,0,0,.025-.766Zm-17.406-14.828c-.049-.214-.074-.42-.132-.643a4.635,4.635,0,0,0-.124.643,1.509,1.509,0,0,1-.074.33c.066.173.14.346.214.527a.4.4,0,0,0,.066-.132,1.466,1.466,0,0,0,0-.717Zm35.99,34.548a1.556,1.556,0,0,1-.5.28,1.054,1.054,0,0,1-.956-.255,1.326,1.326,0,0,0-1.433-.3,1.17,1.17,0,0,0-.568.453l-.157.239.165.074.181-.124a1.121,1.121,0,0,1,.494-.247,1.046,1.046,0,0,1,.956.288,1.293,1.293,0,0,0,2-.231,6.172,6.172,0,0,0,.354-.544ZM203.084,202.35a1.648,1.648,0,0,1-.5.28,1.038,1.038,0,0,1-.947-.255,1.343,1.343,0,0,0-1.442-.3,1.252,1.252,0,0,0-.56.461c-.124.189-.255.354-.371.56.2-.124.371-.255.552-.371a1.327,1.327,0,0,1,.5-.255,1.054,1.054,0,0,1,.947.288,1.343,1.343,0,0,0,1.466.255,1.4,1.4,0,0,0,.544-.478c.115-.181.247-.354.354-.552-.239.124-.4.264-.593.379Zm6.887,9.514a1.474,1.474,0,0,1-.5.28,1.013,1.013,0,0,1-.956-.255,1.326,1.326,0,0,0-1.433-.3,1.219,1.219,0,0,0-.568.461c-.115.181-.247.354-.371.552l.56-.371a1.268,1.268,0,0,1,.494-.247,1.063,1.063,0,0,1,.956.288,1.343,1.343,0,0,0,1.466.255,1.466,1.466,0,0,0,.544-.478c.115-.189.247-.354.346-.552-.231.124-.4.3-.585.371Zm-24.457-5.412a1.475,1.475,0,0,1-.5.28,1.013,1.013,0,0,1-.956-.255,1.326,1.326,0,0,0-1.433-.3,1.112,1.112,0,0,0-.387.247h0l.148.3a1.268,1.268,0,0,1,.362-.157,1.055,1.055,0,0,1,.939.288,1.343,1.343,0,0,0,1.466.255,1.467,1.467,0,0,0,.544-.478c.115-.189.247-.354.346-.552-.222.132-.387.264-.577.379Zm35.232,1.054a1.038,1.038,0,0,1-.527-.189.964.964,0,0,1-.461-.824,1.351,1.351,0,0,0-.824-1.219,1.4,1.4,0,0,0-.733,0,2.645,2.645,0,0,0-.643.115c.222.066.437.091.643.132a1.219,1.219,0,0,1,.56.173.989.989,0,0,1,.486.824,1.318,1.318,0,0,0,.824,1.227,1.244,1.244,0,0,0,.725.082c.222-.058.437-.082.643-.132a4.038,4.038,0,0,0-.741-.181Zm-18.8,14.918a1.038,1.038,0,0,1-.527-.189.964.964,0,0,1-.461-.865,1.351,1.351,0,0,0-.824-1.219,1.4,1.4,0,0,0-.733,0,3.111,3.111,0,0,0-.643.115c.222.066.437.091.643.132a1.251,1.251,0,0,1,.56.173,1,1,0,0,1,.486.824,1.318,1.318,0,0,0,.824,1.227,1.244,1.244,0,0,0,.725.082c.222-.058.437-.082.643-.132a5.218,5.218,0,0,0-.741-.14Zm-10.355-24.63a1.285,1.285,0,0,1-.527-.173.988.988,0,0,1-.461-.873,1.351,1.351,0,0,0-.824-1.211,1.2,1.2,0,0,0-.717-.049l-.659.124a4.707,4.707,0,0,0,.659.14,1.2,1.2,0,0,1,.544.157,1.013,1.013,0,0,1,.486.824,1.285,1.285,0,0,0,1.532,1.31,6.212,6.212,0,0,0,.659-.132C192.029,197.861,191.815,197.836,191.592,197.795Z" transform="translate(-103.736 -141.686)" fill="#fff"/>
      <path id="Path_1188" data-name="Path 1188" d="M172.266,179.714c2.743,11.3,12.554,32.95,19.062,38.717,3.452,3.048,11.368,6.837,18.049,9.737l.173.066L173.114,170.71a3.172,3.172,0,0,0-.568.049C171.36,172.135,171.178,175.2,172.266,179.714Z" transform="translate(-103.504 -139.553)" opacity="0.1"/>
      <path id="Path_1189" data-name="Path 1189" d="M223.406,235.851c.544-4.02,2.158-20.594,2.257-24.169,0-.255-.148-.321-.189-.058-1.911,12.019-1.895,20.223-2.224,24.2C223.242,235.925,223.4,235.949,223.406,235.851Z" transform="translate(-112.617 -146.734)" fill="#263238"/>
      <path id="Path_1190" data-name="Path 1190" d="M126.626,230.094c.107.157,52.16,8.238,52.72,7.752.774-.651-3.7-56.411-6.038-64.986-1-3.649-9.185-5.989-13.18-3.641-9.918,5.865-21.261,29.523-24.136,36.723C131.206,217.828,126.272,229.542,126.626,230.094Z" transform="translate(-95.585 -139.123)" fill="#fb6d5d"/>
      <path id="Path_1191" data-name="Path 1191" d="M155.938,175.381c-.041-.231-.066-.445-.124-.651-.058.206-.082.42-.132.651a1.285,1.285,0,0,1-.165.535,1,1,0,0,1-.824.494,1.384,1.384,0,0,0-.684.189l-.568.7a1.277,1.277,0,0,0-.049.651c.049.206.074.42.132.643a4.886,4.886,0,0,0,.124-.643,1.219,1.219,0,0,1,.189-.544,1.013,1.013,0,0,1,.873-.461,1.285,1.285,0,0,0,1.252-1.565Zm0,13.617a1.335,1.335,0,0,1-.527-.181.98.98,0,0,1-.461-.881,1.367,1.367,0,0,0-.824-1.211,1.441,1.441,0,0,0-.717,0,6.259,6.259,0,0,0-.659.14c.222.049.437.074.659.115a1.327,1.327,0,0,1,.544.173,1,1,0,0,1,.486.824,1.334,1.334,0,0,0,.824,1.227,1.285,1.285,0,0,0,.717.074c.222-.049.437-.074.651-.132a5.689,5.689,0,0,0-.692-.148Zm13.9,42.572a1.178,1.178,0,0,1-.535-.181,1.021,1.021,0,0,1-.47-.873,1.269,1.269,0,0,0-1.565-1.252,2.845,2.845,0,0,0-.643.115,5.557,5.557,0,0,0,.643.132,1.368,1.368,0,0,1,.535.173.989.989,0,0,1,.511.824,1.293,1.293,0,0,0,.824,1.227,1.235,1.235,0,0,0,.725.082l.651-.132c-.255-.049-.461-.074-.675-.115Zm-15.207-6.03a1.285,1.285,0,0,1-.535-.181,1.013,1.013,0,0,1-.461-.873,1.326,1.326,0,0,0-.824-1.219,1.351,1.351,0,0,0-.717-.049l-.643.132a5.212,5.212,0,0,0,.643.132,1.12,1.12,0,0,1,.544.173,1,1,0,0,1,.5.824,1.293,1.293,0,0,0,1.524,1.3,6.6,6.6,0,0,0,.651-.14C155.057,225.605,154.843,225.581,154.629,225.539Zm-21.311,4.728a1.417,1.417,0,0,1-.535-.181,1.013,1.013,0,0,1-.461-.873,1.326,1.326,0,0,0-.824-1.219,1.351,1.351,0,0,0-.717-.049c-.222.049-.437.074-.651.132a5.69,5.69,0,0,0,.651.132,1.12,1.12,0,0,1,.544.173,1,1,0,0,1,.5.824,1.293,1.293,0,0,0,.824,1.227,1.211,1.211,0,0,0,.717.066,4.8,4.8,0,0,0,.651-.132C133.73,230.334,133.516,230.309,133.318,230.268Zm29.35-22.867a1.211,1.211,0,0,1-.527-.173,1.021,1.021,0,0,1-.461-.865,1.335,1.335,0,0,0-.824-1.219,1.2,1.2,0,0,0-.717-.049c-.222.049-.428.074-.659.132a6.654,6.654,0,0,0,.659.132,1.286,1.286,0,0,1,.544.157,1,1,0,0,1,.486.824,1.351,1.351,0,0,0,.824,1.236,1.178,1.178,0,0,0,.708.066,5.833,5.833,0,0,0,.659-.132ZM179,219.9a.939.939,0,0,1-.288-.14.964.964,0,0,1-.461-.865,1.351,1.351,0,0,0-.824-1.219,1.368,1.368,0,0,0-.725,0,3.091,3.091,0,0,0-.651.115,6.505,6.505,0,0,0,.651.132,1.211,1.211,0,0,1,.552.173.98.98,0,0,1,.486.824,1.318,1.318,0,0,0,.824,1.227,1.235,1.235,0,0,0,.511.107Zm-1.244-14.729a1.129,1.129,0,0,1-.3.14,1.013,1.013,0,0,1-.956-.255,1.326,1.326,0,0,0-1.433-.3,1.219,1.219,0,0,0-.568.461c-.115.181-.247.354-.362.552.2-.124.362-.247.552-.371a1.359,1.359,0,0,1,.5-.247,1.054,1.054,0,0,1,.972.272,1.343,1.343,0,0,0,1.466.255.9.9,0,0,0,.189-.115c-.008-.14-.058-.264-.074-.4Zm-26.945,6.063a5.218,5.218,0,0,0-.132-.643c-.049.206-.082.42-.132.643a1.359,1.359,0,0,1-.157.544,1,1,0,0,1-.824.486,1.285,1.285,0,0,0-1.3,1.532,6.226,6.226,0,0,0,.132.659,6.213,6.213,0,0,0,.132-.659,1.087,1.087,0,0,1,.181-.527.98.98,0,0,1,.873-.461,1.359,1.359,0,0,0,1.211-.824,1.269,1.269,0,0,0,0-.75Zm25.306,26.476a5.218,5.218,0,0,0-.132-.643c-.049.206-.082.42-.132.643a1.244,1.244,0,0,1-.165.544,1.178,1.178,0,0,1-.231.264l.544.066a.544.544,0,0,0,.074-.157,1.343,1.343,0,0,0,.025-.717Zm-6.005-43.659c-.049-.214-.074-.42-.132-.643a4.637,4.637,0,0,0-.124.643,1.409,1.409,0,0,1-.173.552.988.988,0,0,1-.824.494,1.326,1.326,0,0,0-1.227.824,1.145,1.145,0,0,0-.066.717,2.463,2.463,0,0,0,.124.643c.058-.214.091-.42.132-.643a1.376,1.376,0,0,1,.181-.535,1,1,0,0,1,.873-.461,1.326,1.326,0,0,0,1.211-.824,1.466,1.466,0,0,0,.008-.774Zm-28.98,12.2a1.359,1.359,0,0,1-.535-.165,1.022,1.022,0,0,1-.461-.873,1.326,1.326,0,0,0-.824-1.211,1.178,1.178,0,0,0-.708-.058c-.231.058-.437.082-.659.132a4.442,4.442,0,0,0,.659.132,1.244,1.244,0,0,1,.544.165,1.013,1.013,0,0,1,.486.824,1.359,1.359,0,0,0,.824,1.244,1.269,1.269,0,0,0,.717.058,4.859,4.859,0,0,0,.659-.124A4.109,4.109,0,0,1,141.127,206.255Zm1.252,26.294c-.049-.231-.074-.437-.132-.651a4.12,4.12,0,0,0-.124.651,1.367,1.367,0,0,1-.173.544,1.211,1.211,0,0,1-.47.42,3.557,3.557,0,0,1,.651.1,1.351,1.351,0,0,0,.2-.354A1.318,1.318,0,0,0,142.379,232.549Zm26.261-50.76a1.269,1.269,0,0,1-.5.255.989.989,0,0,1-.939-.3,1.351,1.351,0,0,0-1.458-.247,1.244,1.244,0,0,0-.544.478,6.45,6.45,0,0,0-.371.552c.2-.124.371-.247.552-.371a1.1,1.1,0,0,1,.5-.264.98.98,0,0,1,.947.239,1.293,1.293,0,0,0,2.01-.157c.115-.189.247-.362.354-.56-.206.124-.379.255-.56.371Zm-17.5,15.849a1.054,1.054,0,0,1-1.442,0,1.326,1.326,0,0,0-1.458-.247,1.227,1.227,0,0,0-.544.47c-.115.189-.264.362-.371.56.2-.124.371-.255.552-.371a1.1,1.1,0,0,1,.5-.264.964.964,0,0,1,.947.239,1.31,1.31,0,0,0,1.442.3,1.269,1.269,0,0,0,.568-.461,6.3,6.3,0,0,0,.354-.552,2.941,2.941,0,0,0-.56.329ZM139.3,220.976a1.054,1.054,0,0,1-1.45,0,1.326,1.326,0,0,0-1.458-.264,1.516,1.516,0,0,0-.535.47,4.7,4.7,0,0,0-.371.56,4.942,4.942,0,0,0,.552-.371,1.186,1.186,0,0,1,.5-.264,1.03,1.03,0,0,1,.939.247,1.335,1.335,0,0,0,1.45.3,1.236,1.236,0,0,0,.552-.461c.115-.181.264-.354.371-.552a3.448,3.448,0,0,0-.56.329Zm28.065-2.389a1.219,1.219,0,0,1-.519.255,1.038,1.038,0,0,1-.939-.288,1.285,1.285,0,0,0-1.466-.255,1.318,1.318,0,0,0-.535.478c-.124.173-.247.338-.371.535a4.942,4.942,0,0,0,.552-.362,1.9,1.9,0,0,1,.5-.272,1.03,1.03,0,0,1,.947.255,1.293,1.293,0,0,0,2.01-.157c.115-.189.247-.362.354-.56a3.511,3.511,0,0,0-.544.4Zm-9.745,14.828a1.277,1.277,0,0,1-.511.247,1.038,1.038,0,0,1-.939-.288,1.285,1.285,0,0,0-1.466-.255,1.318,1.318,0,0,0-.535.478c-.124.173-.255.338-.371.535a3.979,3.979,0,0,0,.552-.362,1.9,1.9,0,0,1,.5-.272,1.03,1.03,0,0,1,.947.255,1.293,1.293,0,0,0,2.01-.157c.115-.181.247-.354.354-.552a5.309,5.309,0,0,0-.552.4Zm21.986-4.943a1.243,1.243,0,0,0-.28.321,4.946,4.946,0,0,0-.371.552c.2-.124.371-.247.552-.371l.124-.1Z" transform="translate(-96.205 -140.261)" fill="#fff"/>
      <rect id="Rectangle_284" data-name="Rectangle 284" width="7.257" height="34.919" transform="matrix(0.66, 0.751, -0.751, 0.66, 122.909, 59.572)" fill="#455a64"/>
      <path id="Path_1192" data-name="Path 1192" d="M288.439,151.825a37.547,37.547,0,1,0-3.452,52.984,37.547,37.547,0,0,0,3.452-52.984Zm-50.488,44.326a29.655,29.655,0,1,1,41.822,2.718A29.655,29.655,0,0,1,237.951,196.152Z" transform="translate(-112.515 -133.972)" fill="#263238"/>
      <rect id="Rectangle_285" data-name="Rectangle 285" width="10.972" height="28.271" rx="1.64" transform="matrix(0.66, 0.751, -0.751, 0.66, 99.12, 77.986)" fill="#263238"/>
      <g id="Group_1892" data-name="Group 1892" transform="translate(118.039 12.963)" opacity="0.4">
        <path id="Path_1193" data-name="Path 1193" d="M281.468,200.558a29.655,29.655,0,1,1,2.727-41.83,29.655,29.655,0,0,1-2.727,41.83Z" transform="translate(-232.241 -148.623)" fill="#fff"/>
        <path id="Path_1194" data-name="Path 1194" d="M275.065,214.226a29.655,29.655,0,0,1-34.8-7.307,30.134,30.134,0,0,1-4.481-6.78Z" transform="translate(-232.864 -157.702)" fill="#ebebeb"/>
        <path id="Path_1195" data-name="Path 1195" d="M292.62,181.189l-53.8-19.259a29.525,29.525,0,0,1,4.7-5.231,29.193,29.193,0,0,1,6.722-4.448l39.73,14.243a29.655,29.655,0,0,1,2.653,14.7Z" transform="translate(-233.4 -149.262)" fill="#ebebeb"/>
        <path id="Path_1196" data-name="Path 1196" d="M283.593,204l-51.254-18.386a30.477,30.477,0,0,1,.214-5.766l54.574,19.572A29.006,29.006,0,0,1,283.593,204Z" transform="translate(-232.249 -154.126)" fill="#ebebeb"/>
        <path id="Path_1197" data-name="Path 1197" d="M291.577,187.8,236.27,167.967c.165-.321.329-.634.5-.947l55.019,19.754C291.725,187.1,291.668,187.457,291.577,187.8Z" transform="translate(-232.951 -151.865)" fill="#ebebeb"/>
        <path id="Path_1198" data-name="Path 1198" d="M288.818,157.649l-24.548-8.806c.881-.1,1.771-.157,2.661-.173l19.96,7.158C287.558,156.4,288.2,157.006,288.818,157.649Z" transform="translate(-237.886 -148.631)" fill="#ebebeb"/>
      </g>
      <path id="Path_1199" data-name="Path 1199" d="M249.886,163.01l.1-.074c.453-.362-.47.338-.148.107s.75-.535,1.137-.824a30.149,30.149,0,0,1,4.284-2.3l.643-.255c.066,0-.5.2-.049,0l.4-.148c.511-.189,1.021-.362,1.532-.527a27.694,27.694,0,0,1,3.476-.824l.824-.132c.379-.058-.428.049.082,0l.511-.049q.972-.082,1.952-.1a19.966,19.966,0,0,1,2.109.074l.964.091c.56.066-.222-.041.173,0l.577.091a26.574,26.574,0,0,1,5.017,1.417h.082l.173.074c.231.107.47.206.7.321q.684.313,1.335.667a30.857,30.857,0,0,1,2.7,1.648,2.236,2.236,0,0,0,2.224-3.88,28.173,28.173,0,0,0-18.856-4.811,30.743,30.743,0,0,0-12.62,4.44,21.567,21.567,0,0,0-2.471,1.746,2.249,2.249,0,0,0,0,3.163,2.29,2.29,0,0,0,3.163,0Z" transform="translate(-116.641 -136.507)" fill="#fff"/>
      <path id="Path_1200" data-name="Path 1200" d="M244.266,170.037a2.191,2.191,0,1,1,.645-1.553,2.2,2.2,0,0,1-.645,1.553Z" transform="translate(-115.659 -138.773)" fill="#fff"/>
      <path id="Path_1201" data-name="Path 1201" d="M154.312,173.54c-11,9.762-31.056,36.97-27.769,42.012,7.414,11.491,22.472,23.354,28.7,26.863,2.685,1.516,17.727-17.109,15.4-19.441-2.8-2.8-21.838-15.717-21.706-16.755s7.282-14.589,11.112-25.611C164.815,166.966,158.9,169.462,154.312,173.54Z" transform="translate(-95.51 -139.483)" fill="#f7a9a0"/>
      <path id="Path_1202" data-name="Path 1202" d="M166.667,229.471s9.366-.593,15.511-.692c3.427-.058,9.308.371,11.846,1.483,3.8,1.648,18.6,11.03,16.409,14.671-1.985,3.3-13.683-6.376-13.683-6.376s12.661,8.707,9.547,12.241-14.894-9.152-14.894-9.152,12.818,9.234,9.02,12.356c-2.867,2.364-14.169-8.518-14.169-8.518s10.956,8.015,8.114,10.577c-3.139,2.825-14.2-6.59-14.2-6.59-8.328,5.288-14.424,4.868-18.732,3.246C160.432,252.371,166.667,229.471,166.667,229.471Z" transform="translate(-101.704 -149.786)" fill="#f7a9a0"/>
      <path id="Path_1203" data-name="Path 1203" d="M199.982,237.179c9.819,5.7,12.892,11.533,12.776,11.368a66.494,66.494,0,0,0-9.168-8.378c-1.433-1.1-2.216-1.837-3.649-2.941C199.858,237.2,199.908,237.154,199.982,237.179Z" transform="translate(-108.501 -151.266)" fill="#263238"/>
      <path id="Path_1204" data-name="Path 1204" d="M194.292,242.846a38.716,38.716,0,0,1,10.824,8.361c.107.14,0,.148-.115,0-1.788-1.45-8.9-7.018-10.709-8.378C194.226,242.871,194.259,242.83,194.292,242.846Z" transform="translate(-107.507 -152.263)" fill="#263238"/>
      <path id="Path_1205" data-name="Path 1205" d="M189.084,247.408a28.543,28.543,0,0,1,8.188,6.73c.115.132,0,.148-.148,0-2.685-2.29-4.77-4.119-8.106-6.664C189,247.474,189,247.367,189.084,247.408Z" transform="translate(-106.582 -153.069)" fill="#263238"/>
      <path id="Path_1206" data-name="Path 1206" d="M165.188,217.8l-17.6,21.278s-22.653-20.231-22.085-26.163c.824-8.353,22.909-35.183,28.963-40.142,5.915-4.844,9.267-3.616,6.87,4.267-2.191,7.183-11.327,28.411-11.335,28.733S165.188,217.8,165.188,217.8Z" transform="translate(-95.389 -139.413)" fill="#fb6d5d"/>
      <path id="Path_1207" data-name="Path 1207" d="M165.712,218.6h0l-.058-.049h0a1.038,1.038,0,0,0-.313-.222,1.244,1.244,0,0,0-1.153,0,1.318,1.318,0,0,0-.535.478c-.124.173-.247.338-.371.535a4.945,4.945,0,0,0,.552-.362,1.9,1.9,0,0,1,.5-.272,1.03,1.03,0,0,1,.947.255.535.535,0,0,0,.148.124l.329-.4Zm-26.706,2.331a1.054,1.054,0,0,1-1.45,0,1.326,1.326,0,0,0-1.458-.264,1.516,1.516,0,0,0-.535.47,4.7,4.7,0,0,0-.371.56,4.945,4.945,0,0,0,.552-.371,1.186,1.186,0,0,1,.5-.264,1.03,1.03,0,0,1,.939.247,1.335,1.335,0,0,0,1.45.3,1.235,1.235,0,0,0,.552-.461c.115-.181.264-.354.371-.552-.2.115-.371.247-.552.362ZM134.936,197.6a1.013,1.013,0,0,1-.379.222c-.124.173-.247.338-.362.511a1.218,1.218,0,0,0,.371-.091,1.269,1.269,0,0,0,.568-.461,6.379,6.379,0,0,0,.362-.552Zm15.915,0a1.054,1.054,0,0,1-1.442,0,1.326,1.326,0,0,0-1.458-.247,1.227,1.227,0,0,0-.544.47c-.115.189-.264.362-.371.56.2-.124.371-.255.552-.371a1.1,1.1,0,0,1,.5-.264.964.964,0,0,1,.947.239,1.31,1.31,0,0,0,1.442.3,1.269,1.269,0,0,0,.568-.461,6.3,6.3,0,0,0,.354-.552c-.2.115-.371.239-.552.362Zm-8.757,34.944c-.049-.231-.074-.437-.132-.651a4.121,4.121,0,0,0-.124.651,1.367,1.367,0,0,1-.173.544,1.063,1.063,0,0,1-.412.379l.371.354a1.3,1.3,0,0,0,.42-.568A1.318,1.318,0,0,0,142.094,232.542Zm1.862-44.557c-.049-.214-.074-.42-.132-.643a4.637,4.637,0,0,0-.124.643,1.5,1.5,0,0,1-.173.56,1,1,0,0,1-.824.486,1.318,1.318,0,0,0-1.227.824,1.145,1.145,0,0,0-.066.717c.041.222.066.428.124.643.058-.214.091-.42.132-.643a1.375,1.375,0,0,1,.181-.535,1,1,0,0,1,.873-.461,1.326,1.326,0,0,0,1.211-.824,1.466,1.466,0,0,0,.016-.766Zm-3.114,18.263a1.359,1.359,0,0,1-.535-.165,1.022,1.022,0,0,1-.461-.873,1.326,1.326,0,0,0-.824-1.211,1.178,1.178,0,0,0-.708-.058c-.231.058-.437.082-.659.132a4.441,4.441,0,0,0,.659.132,1.244,1.244,0,0,1,.544.165,1.013,1.013,0,0,1,.486.824,1.359,1.359,0,0,0,.824,1.244,1.268,1.268,0,0,0,.717.058,4.861,4.861,0,0,0,.659-.124A4.108,4.108,0,0,1,140.842,206.248Zm-9.753,3.682a2.461,2.461,0,0,0-.124-.651c-.058.214-.082.42-.14.651a1.278,1.278,0,0,1-.157.535.964.964,0,0,1-.824.486,1.376,1.376,0,0,0-1.244.824,1.351,1.351,0,0,0-.066.717,6.067,6.067,0,0,0,.132.651,6.075,6.075,0,0,0,.132-.651,1.071,1.071,0,0,1,.189-.535,1,1,0,0,1,.865-.461,1.335,1.335,0,0,0,1.211-.824,1.236,1.236,0,0,0,.025-.733Zm19.416,1.293a5.221,5.221,0,0,0-.132-.643c-.049.206-.082.42-.132.643a1.359,1.359,0,0,1-.157.544,1,1,0,0,1-.824.486,1.285,1.285,0,0,0-1.3,1.532,6.21,6.21,0,0,0,.132.659,6.226,6.226,0,0,0,.132-.659,1.087,1.087,0,0,1,.181-.527.98.98,0,0,1,.873-.461,1.359,1.359,0,0,0,1.211-.824,1.269,1.269,0,0,0,.016-.741Zm2.7-35.973h0a.107.107,0,0,0,0-.049Zm1.137,50.249a1.285,1.285,0,0,1-.535-.181,1.013,1.013,0,0,1-.461-.873,1.326,1.326,0,0,0-.824-1.219,1.351,1.351,0,0,0-.717-.049l-.643.132a5.215,5.215,0,0,0,.643.132,1.12,1.12,0,0,1,.544.173,1,1,0,0,1,.5.824,1.293,1.293,0,0,0,1.524,1.3,6.59,6.59,0,0,0,.651-.14,3.5,3.5,0,0,1-.684-.066Zm1.31-36.542a1.335,1.335,0,0,1-.527-.181.98.98,0,0,1-.461-.881,1.367,1.367,0,0,0-.824-1.211,1.442,1.442,0,0,0-.717,0,6.263,6.263,0,0,0-.659.14c.222.049.437.074.659.115a1.327,1.327,0,0,1,.544.173,1,1,0,0,1,.486.824,1.334,1.334,0,0,0,.824,1.227,1.285,1.285,0,0,0,.717.074c.222-.049.437-.074.651-.132a5.7,5.7,0,0,0-.692-.115Zm0-13.617c-.041-.231-.066-.445-.124-.651-.058.206-.082.42-.132.651a1.285,1.285,0,0,1-.165.535,1,1,0,0,1-.824.494,1.326,1.326,0,0,0-1.227.824,1.236,1.236,0,0,0-.074.725c.049.206.074.42.132.643a4.888,4.888,0,0,0,.124-.643,1.219,1.219,0,0,1,.189-.544,1.013,1.013,0,0,1,.873-.461,1.285,1.285,0,0,0,1.252-1.565Z" transform="translate(-95.921 -140.254)" fill="#fff"/>
      <path id="Path_1208" data-name="Path 1208" d="M148.331,243.73c2.685-3.048,13.238-15.9,15.33-18.823.14-.206.049-.346-.132-.157a227.719,227.719,0,0,0-15.314,18.864C148.15,243.7,148.257,243.8,148.331,243.73Z" transform="translate(-99.389 -149.061)" fill="#263238"/>
      <path id="Path_1209" data-name="Path 1209" d="M164.4,185.872c0-.091.206,0,.173.058-.313.98-.824,2.414-1.483,4.119l.173-.272c.4-.675.783-1.359,1.12-2.068,0-.074.148,0,.115.058-.338.717-.684,1.442-1.063,2.142a11.78,11.78,0,0,1-.824,1.384c-2.661,6.969-6.78,16.92-6.78,17.208,0,.437,12.282,9.885,14.753,11.969.091.082-.511.692-.585.824a.082.082,0,0,1-.148-.058,5.061,5.061,0,0,1,.313-.568c-2.389-1.705-14.926-11.458-15.1-11.92S163.085,188.837,164.4,185.872Z" transform="translate(-100.6 -142.218)" fill="#263238"/>
      <path id="Path_1210" data-name="Path 1210" d="M131.867,233.187c.733.61,7.29,7.933,8.007,8.617a.066.066,0,0,1-.082.1,39.274,39.274,0,0,1-7.982-8.666C131.793,233.2,131.826,233.154,131.867,233.187Z" transform="translate(-96.501 -150.562)" fill="#263238"/>
      <path id="Path_1211" data-name="Path 1211" d="M247.333,211.476c.2,3.839,2.389,9.424,1.648,12.175a3.3,3.3,0,0,1-3.007,2.512s2.076,2.389.964,4.77c-.568,1.227-3.031,1.392-3.031,1.392a3.926,3.926,0,0,1,.461,4.053c-.9,1.648-3.229,1.557-3.229,1.557s.626,2.611-.824,4c-2.933,2.8-17.752-3.336-17.785-9.737,0-2.99,3.526-1.293,3.526-1.293s-4.5-3.666-3.3-6.755,5.651-.61,5.651-.61-4.325-3.583-2.776-6.664c1.648-3.2,5.659,0,5.659,0s-2.372-3.6-.643-5.684c2.85-3.435,8.238,4.6,11.854,5.173l2.471-5.165Z" transform="translate(-112.49 -146.537)" fill="#f7a9a0"/>
      <path id="Path_1212" data-name="Path 1212" d="M252.34,216.472c.132-3.649,2.982-4.069,4.119-7.414,1.227-3.732-3.443-4.564-7.126,1.26l-2.554,5.354Z" transform="translate(-116.764 -145.79)" fill="#f7a9a0"/>
      <path id="Path_1213" data-name="Path 1213" d="M241.433,242.3a.041.041,0,0,1,0,.082,27.876,27.876,0,0,1-14.894-7.224c-.124-.132,0-.4.189-.28a57.1,57.1,0,0,0,14.7,7.422Z" transform="translate(-113.188 -150.856)" fill="#263238"/>
      <path id="Path_1214" data-name="Path 1214" d="M245.124,235.158c.058,0,0,.115,0,.107a26.082,26.082,0,0,1-15.75-8.9c-.132-.173-.082-.461.082-.272C232.3,229.186,240.182,233.585,245.124,235.158Z" transform="translate(-113.683 -149.303)" fill="#263238"/>
      <path id="Path_1215" data-name="Path 1215" d="M232.867,217.763c3.971,4.6,9.061,7.471,14.63,9.679.074,0,0,.124,0,.115-3.04-.33-6.466-2.1-9.061-3.707a16.014,16.014,0,0,1-5.766-5.948C232.645,217.8,232.776,217.664,232.867,217.763Z" transform="translate(-114.277 -147.839)" fill="#263238"/>
      <path id="Path_1216" data-name="Path 1216" d="M177.08,176.181c-2.7-.148-6.368-5.766-7.15-9.424a54.429,54.429,0,0,1,2.035-5.1c.651-1.648,1.343-3.476,1.853-5.2l10.017,5.816a28.4,28.4,0,0,0-3,6.3,3.294,3.294,0,0,0-.132.725,1.07,1.07,0,0,1,0,.124C180.507,170.826,179.7,176.329,177.08,176.181Z" transform="translate(-103.22 -137.041)" fill="#f7a9a0"/>
      <path id="Path_1217" data-name="Path 1217" d="M180.43,169.195a7.109,7.109,0,0,0,1.12.272v-.124a3.368,3.368,0,0,1,.132-.725,28.552,28.552,0,0,1,2.99-6.3l-9.7-5.626C174.73,159.268,174.4,167.267,180.43,169.195Z" transform="translate(-104.09 -137.082)" fill="#263238"/>
      <path id="Path_1218" data-name="Path 1218" d="M173.148,142.325c-1.31,3.962.535,15.536,3.3,18.172,4.028,3.822,10.758,4.333,14-.544,3.18-4.72.511-19.77-2.6-22.167C183.3,134.236,175.075,136.476,173.148,142.325Z" transform="translate(-103.711 -133.45)" fill="#f7a9a0"/>
      <path id="Path_1219" data-name="Path 1219" d="M187.065,152.93s-.058,0-.049.074c.14.783.181,1.648-.486,2.059C187.387,154.849,187.329,153.638,187.065,152.93Z" transform="translate(-106.145 -136.419)" fill="#263238"/>
      <path id="Path_1220" data-name="Path 1220" d="M186,152.07c-1.269.1-.98,2.628.2,2.537S187.066,152.012,186,152.07Z" transform="translate(-105.907 -136.267)" fill="#263238"/>
      <path id="Path_1221" data-name="Path 1221" d="M192.448,152.27s.066,0,.074.058c.066.824.272,1.648,1,1.862v.041C192.646,154.206,192.391,153.02,192.448,152.27Z" transform="translate(-107.187 -136.303)" fill="#263238"/>
      <path id="Path_1222" data-name="Path 1222" d="M193.057,151.176c1.252-.247,1.648,2.274.478,2.471S192.011,151.374,193.057,151.176Z" transform="translate(-107.186 -136.107)" fill="#263238"/>
      <path id="Path_1223" data-name="Path 1223" d="M184.642,150.388c.33-.124.618-.3.939-.453a1.771,1.771,0,0,0,.873-.651.536.536,0,0,0-.165-.634,1.3,1.3,0,0,0-1.351,0,1.977,1.977,0,0,0-1.03.972.568.568,0,0,0,.733.766Z" transform="translate(-105.674 -135.631)" fill="#263238"/>
      <path id="Path_1224" data-name="Path 1224" d="M193.729,149.151a7.476,7.476,0,0,1-1.038-.14,1.722,1.722,0,0,1-1.021-.354.535.535,0,0,1-.049-.659,1.335,1.335,0,0,1,1.293-.4,1.919,1.919,0,0,1,1.277.61.568.568,0,0,1-.461.939Z" transform="translate(-107.027 -135.474)" fill="#263238"/>
      <path id="Path_1225" data-name="Path 1225" d="M186.777,161.678c.206.165.42.4.708.387a2.109,2.109,0,0,0,.824-.3s.049,0,0,0a1.038,1.038,0,0,1-.939.544.824.824,0,0,1-.7-.626S186.744,161.653,186.777,161.678Z" transform="translate(-106.17 -137.959)" fill="#263238"/>
      <path id="Path_1226" data-name="Path 1226" d="M187.466,156.817a2.71,2.71,0,0,0,1.919.98,3.435,3.435,0,0,0,.964-.066l.181-.041.173-.049a.189.189,0,0,0,.132-.189h0a.364.364,0,0,0,0-.082h0v-.074c-.049-.6-.214-1.516-.214-1.516.231.091,1.417.461,1.359.148a40.406,40.406,0,0,0-1.961-7.957.074.074,0,0,0-.14,0c.338,2.512,1.112,4.943,1.5,7.463a4.654,4.654,0,0,0-1.31-.239c-.082,0,.354,1.755.354,2.026h0a3.732,3.732,0,0,1-2.867-.544C187.466,156.693,187.416,156.759,187.466,156.817Z" transform="translate(-106.307 -135.536)" fill="#263238"/>
      <path id="Path_1227" data-name="Path 1227" d="M189.929,159.365a3.188,3.188,0,0,1-1.162,1.129,1.433,1.433,0,0,1-.824.148c-.643-.091-.725-.667-.667-1.17a3.518,3.518,0,0,1,.2-.783A4.119,4.119,0,0,0,189.929,159.365Z" transform="translate(-106.274 -137.434)" fill="#263238"/>
      <path id="Path_1228" data-name="Path 1228" d="M188.768,160.661a1.433,1.433,0,0,1-.824.148c-.643-.091-.725-.667-.667-1.17a1.474,1.474,0,0,1,1.491,1.021Z" transform="translate(-106.274 -137.601)" fill="#ff98b9"/>
      <path id="Path_1229" data-name="Path 1229" d="M176.143,148.182c.824-2.249-.47-6.038.659-7.035,2.471-2.175,7.414,2.068,10.832,2.117s4.448-2.076,3.872-4.77-2.85-4.531-6.59-5.116a14,14,0,0,0-9.251,2.142s.824-1.334.544-1.755-1.944.824-2.471,1.409a5,5,0,0,0-.824,1.59,5.181,5.181,0,0,0-1.507-.173,3.147,3.147,0,0,0-1.977.824c-.066.2,1.145.362,1.993.412a7.854,7.854,0,0,0-1.582,3.88c.016,1.8,2.743,10.346,3.41,10.437C174.108,152.292,175.83,149.088,176.143,148.182Z" transform="translate(-103.131 -132.956)" fill="#263238"/>
      <path id="Path_1230" data-name="Path 1230" d="M171.748,138.56s.066,0,0,.049a5.766,5.766,0,0,0-1.821,2.521,7.043,7.043,0,0,0-.066,3.7,33.832,33.832,0,0,0,2.62,6.7c0,.066-.074.115-.107.049a24.993,24.993,0,0,1-2.834-7.208C169.211,142.217,169.73,139.746,171.748,138.56Z" transform="translate(-103.135 -133.886)" fill="#263238"/>
      <path id="Path_1231" data-name="Path 1231" d="M178.215,141.759a8.1,8.1,0,0,1,3.015.222,11.6,11.6,0,0,1,2.57,1.3,11.533,11.533,0,0,0,6.112,1.73s0,.041,0,.049a10.066,10.066,0,0,1-5.692-1.277,25.173,25.173,0,0,0-2.661-1.433,10.362,10.362,0,0,0-3.3-.412.094.094,0,0,1-.049-.181Z" transform="translate(-104.668 -134.441)" fill="#263238"/>
      <path id="Path_1232" data-name="Path 1232" d="M179.47,134.5a15.751,15.751,0,0,1,4.267-1.367,12.356,12.356,0,0,1,4.292-.115,6.211,6.211,0,0,1,5.264,4.539,5.4,5.4,0,0,1-.535,3.83c-.049.074-.165,0-.124-.066a5.544,5.544,0,0,0-1.194-6.532c-2-1.771-4.835-1.928-7.356-1.549a22.794,22.794,0,0,0-4.6,1.277S179.461,134.512,179.47,134.5Z" transform="translate(-104.901 -132.887)" fill="#263238"/>
      <path id="Path_1233" data-name="Path 1233" d="M174.943,154.5s-2.595-3.732-4.292-2.809.247,6.335,2.232,7.084a2.026,2.026,0,0,0,2.71-1.079Z" transform="translate(-103.233 -136.174)" fill="#f7a9a0"/>
      <path id="Path_1234" data-name="Path 1234" d="M171.48,153.59v.049a5.1,5.1,0,0,1,2.628,3.2,1.112,1.112,0,0,0-1.648-.313v.074a1.252,1.252,0,0,1,1.367.437,6.039,6.039,0,0,1,.651,1.112c.066.124.3.058.247-.082h0C174.759,156.259,173.391,153.771,171.48,153.59Z" transform="translate(-103.493 -136.535)" fill="#263238"/>
      <path id="Path_1235" data-name="Path 1235" d="M180.287,170.537l-3.559,6.219L169.7,167.3l-2.7,2.348s6.178,14.333,6.31,13.749l3.493-5.305,3.369,4.489,1.054-9.951Z" transform="translate(-102.703 -138.952)" fill="#fff"/>
      <path id="Path_1236" data-name="Path 1236" d="M181.064,178.35c.115-1.648.28-3.3.321-4.943a.058.058,0,0,0-.107,0c-.544,1.532-.964,7.842-1.178,9.333h0c-.14-.189-3.147-3.971-3.188-3.929-.717.824-3.3,4.679-3.46,5.033-.98-2.274-4.77-10.585-6-12.776a.058.058,0,1,0-.1.041c.824,2.372,5.766,13.551,5.906,13.534a65.432,65.432,0,0,0,3.666-5.61,40.414,40.414,0,0,0,3.517,4.77,51.38,51.38,0,0,0,.618-5.453Z" transform="translate(-102.763 -139.606)" fill="#263238"/>
    </g>
  </g>
</svg>
