<svg xmlns="http://www.w3.org/2000/svg" width="63" height="56.441" viewBox="0 0 63 56.441">
  <g id="store" transform="translate(0 -26.651)">
    <rect id="Rectangle_343" data-name="Rectangle 343" width="52.337" height="44.795" transform="translate(5.332 35.991)" fill="#e9eaeb"/>
    <rect id="Rectangle_344" data-name="Rectangle 344" width="6.645" height="44.795" transform="translate(51.024 35.991)" fill="#b9bbc1"/>
    <path id="Path_1435" data-name="Path 1435" d="M94.549,42.568h-52.7V35.215a1.064,1.064,0,0,1,1.064-1.064H93.485a1.064,1.064,0,0,1,1.064,1.064v7.354Z" transform="translate(-36.698 -6.577)" fill="#f5a299"/>
    <path id="Path_1436" data-name="Path 1436" d="M421.734,34.151h-5.581v5.536H422.8V35.215A1.064,1.064,0,0,0,421.734,34.151Z" transform="translate(-364.947 -6.577)" fill="#e96759"/>
    <path id="Path_1437" data-name="Path 1437" d="M12.248,154.522h0a4.361,4.361,0,0,1-4.361-4.361v-3.553H16.61v3.553A4.361,4.361,0,0,1,12.248,154.522Z" transform="translate(-6.917 -105.196)" fill="#dc5a4c"/>
    <path id="Path_1438" data-name="Path 1438" d="M83.137,154.522h0a4.361,4.361,0,0,1-4.361-4.361v-3.553H87.5v3.553A4.361,4.361,0,0,1,83.137,154.522Z" transform="translate(-69.083 -105.196)" fill="#f2f2f2"/>
    <path id="Path_1439" data-name="Path 1439" d="M154.027,154.522h0a4.361,4.361,0,0,1-4.361-4.361v-3.553h8.723v3.553A4.361,4.361,0,0,1,154.027,154.522Z" transform="translate(-131.25 -105.196)" fill="#dc5a4c"/>
    <path id="Path_1440" data-name="Path 1440" d="M224.916,154.522h0a4.361,4.361,0,0,1-4.361-4.361v-3.553h8.723v3.553A4.361,4.361,0,0,1,224.916,154.522Z" transform="translate(-193.416 -105.196)" fill="#f2f2f2"/>
    <path id="Path_1441" data-name="Path 1441" d="M295.806,154.522h0a4.361,4.361,0,0,1-4.361-4.361v-3.553h8.723v3.553A4.361,4.361,0,0,1,295.806,154.522Z" transform="translate(-255.584 -105.196)" fill="#dc5a4c"/>
    <path id="Path_1442" data-name="Path 1442" d="M366.7,154.522h0a4.361,4.361,0,0,1-4.361-4.361v-3.553h8.723v3.553A4.361,4.361,0,0,1,366.7,154.522Z" transform="translate(-317.75 -105.196)" fill="#f2f2f2"/>
    <path id="Path_1443" data-name="Path 1443" d="M437.584,154.522h0a4.361,4.361,0,0,1-4.361-4.361v-3.553h8.723v3.553A4.361,4.361,0,0,1,437.584,154.522Z" transform="translate(-379.916 -105.196)" fill="#dc5a4c"/>
    <path id="Path_1444" data-name="Path 1444" d="M16.61,87.442H7.887l4.174-8.3h7.53Z" transform="translate(-6.917 -46.03)" fill="#e96759"/>
    <path id="Path_1445" data-name="Path 1445" d="M87.5,87.442H78.776l2.982-8.3h7.53Z" transform="translate(-69.083 -46.03)" fill="#fff"/>
    <path id="Path_1446" data-name="Path 1446" d="M158.389,87.442h-8.723l1.789-8.3h7.53Z" transform="translate(-131.25 -46.03)" fill="#e96759"/>
    <path id="Path_1447" data-name="Path 1447" d="M229.278,87.442h-8.723l.6-8.3h7.53Z" transform="translate(-193.416 -46.03)" fill="#fff"/>
    <path id="Path_1448" data-name="Path 1448" d="M295.917,87.442h-8.723l-.6-8.3h7.53Z" transform="translate(-251.333 -46.03)" fill="#e96759"/>
    <path id="Path_1449" data-name="Path 1449" d="M358.307,87.442h-8.723l-1.789-8.3h7.53Z" transform="translate(-305 -46.03)" fill="#fff"/>
    <path id="Path_1450" data-name="Path 1450" d="M420.7,87.442h-8.723l-2.982-8.3h7.53Z" transform="translate(-358.667 -46.03)" fill="#e96759"/>
    <path id="Path_1451" data-name="Path 1451" d="M66.662,433.349H9.492A1.992,1.992,0,0,0,7.5,435.341v2.919a.565.565,0,0,0,.565.565H68.09a.565.565,0,0,0,.565-.565v-2.919A1.992,1.992,0,0,0,66.662,433.349Z" transform="translate(-6.577 -356.655)" fill="#8b8996"/>
    <path id="Path_1452" data-name="Path 1452" d="M455.007,433.349h-4.673v5.476h6.1a.565.565,0,0,0,.565-.565v-2.919A1.992,1.992,0,0,0,455.007,433.349Z" transform="translate(-394.922 -356.655)" fill="#706f7f"/>
    <path id="Path_1453" data-name="Path 1453" d="M229.658,269.1H202.794a.794.794,0,0,1-.794-.794V253.529a.794.794,0,0,1,.794-.794h26.864a.794.794,0,0,1,.794.794v14.782A.794.794,0,0,1,229.658,269.1Z" transform="translate(-177.145 -198.265)" fill="#bdddfe"/>
    <path id="Path_1454" data-name="Path 1454" d="M384.928,252.735h-5.871V269.1h5.871a.794.794,0,0,0,.794-.794V253.529A.794.794,0,0,0,384.928,252.735Z" transform="translate(-332.415 -198.265)" fill="#70b5e8"/>
    <path id="Path_1455" data-name="Path 1455" d="M83.984,274.959H71.727v-21.43a.794.794,0,0,1,.794-.794H83.19a.794.794,0,0,1,.794.794v21.43Z" transform="translate(-62.901 -198.265)" fill="#bdddfe"/>
    <path id="Path_1456" data-name="Path 1456" d="M123.04,252.735h-5.871v22.224h6.665V253.529A.794.794,0,0,0,123.04,252.735Z" transform="translate(-102.752 -198.265)" fill="#70b5e8"/>
    <path id="Path_1457" data-name="Path 1457" d="M136.923,329.762a.923.923,0,0,0,.923-.923v-1.661a.923.923,0,1,0-1.846,0v1.661A.923.923,0,0,0,136.923,329.762Z" transform="translate(-119.266 -262.739)"/>
    <path id="Path_1458" data-name="Path 1458" d="M60.085,75.771H58.591v-25.6a5.292,5.292,0,0,0,4.361-5.2V41.411c0-.018,0-.036,0-.054s0-.02,0-.03a.925.925,0,0,0-.016-.107l0-.006a.909.909,0,0,0-.028-.1l-.009-.024c-.01-.028-.022-.054-.034-.081L62.854,41l-4.08-8.115V28.638a1.989,1.989,0,0,0-1.987-1.987H14.822a.923.923,0,1,0,0,1.846H56.787a.141.141,0,0,1,.141.141v3.549H6.072V28.638a.141.141,0,0,1,.141-.141h4.315a.923.923,0,1,0,0-1.846H6.213a1.989,1.989,0,0,0-1.987,1.987v4.244L.146,41l-.006.015c-.013.026-.024.053-.034.081L.1,41.116a.909.909,0,0,0-.028.1l0,.006a.9.9,0,0,0-.016.107c0,.01,0,.02,0,.03s0,.036,0,.054v3.553a5.292,5.292,0,0,0,4.361,5.2v25.6H2.915A2.918,2.918,0,0,0,0,78.686V81.6a1.489,1.489,0,0,0,1.488,1.488H61.512A1.489,1.489,0,0,0,63,81.6V78.686A2.918,2.918,0,0,0,60.085,75.771Zm1.021-30.807a3.439,3.439,0,0,1-6.877,0v-2.63h6.877v2.63Zm-3.82-10.932,3.246,6.456H53.956l-2.319-6.456Zm-7.61,0,2.319,6.456H45.329l-1.391-6.456Zm2.708,8.3v2.63a3.439,3.439,0,0,1-6.877,0v-2.63Zm-10.334-8.3,1.391,6.456H36.72l-.464-6.456Zm1.611,8.3v2.63a3.438,3.438,0,1,1-6.877,0v-2.63Zm-15.067-8.3h5.812l.464,6.456H28.13Zm-.532,8.3h6.877v2.63a3.439,3.439,0,0,1-6.877,0ZM31.5,50.249a5.282,5.282,0,0,0,4.361-2.3,5.279,5.279,0,0,0,8.723,0,5.279,5.279,0,0,0,8.723,0,5.293,5.293,0,0,0,3.439,2.223v25.6H22.005V55.264a1.718,1.718,0,0,0-1.717-1.717H9.619A1.718,1.718,0,0,0,7.9,55.264V75.771H6.255v-25.6a5.293,5.293,0,0,0,3.439-2.223,5.279,5.279,0,0,0,8.723,0,5.279,5.279,0,0,0,8.723,0A5.282,5.282,0,0,0,31.5,50.249ZM20.16,55.393V75.771H9.749V55.393ZM10.616,44.965v-2.63h6.877v2.63a3.439,3.439,0,1,1-6.877,0ZM20.95,34.032h5.793l-.464,6.456H19.559Zm-1.611,8.3h6.877v2.63a3.438,3.438,0,1,1-6.877,0v-2.63Zm-.277-8.3-1.391,6.456H11.005l2.319-6.456Zm-13.348,0h5.649L9.044,40.488H2.467ZM1.893,44.965v-2.63H8.77v2.63a3.439,3.439,0,0,1-6.877,0ZM61.154,81.247H1.846V78.686a1.07,1.07,0,0,1,1.069-1.069h57.17a1.07,1.07,0,0,1,1.069,1.069v2.561Z" transform="translate(0 0)"/>
    <path id="Path_1459" data-name="Path 1459" d="M194.5,246.952v14.782a1.719,1.719,0,0,0,1.717,1.717H223.08a1.718,1.718,0,0,0,1.717-1.717V246.952a1.718,1.718,0,0,0-1.717-1.717H211.8a.923.923,0,0,0,0,1.846h11.156V261.6H196.346V247.081h11.1a.923.923,0,0,0,0-1.846H196.217A1.718,1.718,0,0,0,194.5,246.952Z" transform="translate(-170.567 -191.688)"/>
  </g>
</svg>
