<svg xmlns="http://www.w3.org/2000/svg" width="61.958" height="61.882" viewBox="0 0 61.958 61.882">
  <g id="technical-support" transform="translate(0 -0.313)">
    <g id="Group_1940" data-name="Group 1940" transform="translate(0.908 1.22)">
      <g id="Group_1939" data-name="Group 1939" transform="translate(0 0)">
        <g id="Group_1931" data-name="Group 1931">
          <g id="Group_1919" data-name="Group 1919" transform="translate(39.599)">
            <path id="Path_1476" data-name="Path 1476" d="M352.64,7.812H337.375a2.639,2.639,0,0,0-2.639,2.639v7.634a2.639,2.639,0,0,0,2.639,2.639,1.541,1.541,0,0,1,1.541,1.541v4.721a.591.591,0,0,0,1.1.3l3.489-5.818a1.542,1.542,0,0,1,1.322-.749h7.815a2.639,2.639,0,0,0,2.639-2.639V10.451a2.639,2.639,0,0,0-2.639-2.64Z" transform="translate(-334.736 -7.812)" fill="#b3e59f"/>
            <path id="Path_1477" data-name="Path 1477" d="M371.812,7.812h-7.906a2.639,2.639,0,0,1,2.639,2.639v7.634a2.639,2.639,0,0,1-2.639,2.639h-7.359a1.541,1.541,0,0,1,1.541,1.541v4.721a.591.591,0,0,0,1.1.3l3.489-5.818A1.542,1.542,0,0,1,364,20.725h7.815a2.639,2.639,0,0,0,2.639-2.639V10.452a2.639,2.639,0,0,0-2.639-2.64Z" transform="translate(-353.908 -7.812)" fill="#95d6a4"/>
          </g>
          <g id="Group_1930" data-name="Group 1930" transform="translate(0 27.075)">
            <g id="Group_1929" data-name="Group 1929">
              <g id="Group_1928" data-name="Group 1928">
                <g id="Group_1923" data-name="Group 1923" transform="translate(16.187)">
                  <g id="Group_1922" data-name="Group 1922">
                    <g id="Group_1921" data-name="Group 1921">
                      <g id="Group_1920" data-name="Group 1920">
                        <path id="Path_1478" data-name="Path 1478" d="M155.652,241.405a2.643,2.643,0,0,1-2.143-2.6v-7.259H143.4v7.259a2.649,2.649,0,0,1-2.143,2.6S156.335,241.537,155.652,241.405Z" transform="translate(-141.261 -231.551)" fill="#ffddce"/>
                      </g>
                    </g>
                  </g>
                </g>
                <g id="Group_1927" data-name="Group 1927" transform="translate(0.726 10.332)">
                  <g id="Group_1926" data-name="Group 1926">
                    <g id="Group_1925" data-name="Group 1925">
                      <g id="Group_1924" data-name="Group 1924">
                        <path id="Path_1479" data-name="Path 1479" d="M46.154,316.991c-.72-.138-19.994,0-19.994,0A15.609,15.609,0,0,0,13.5,332.319v5.148a2.114,2.114,0,0,0,2.114,2.114H56.7a2.114,2.114,0,0,0,2.114-2.114v-5.148A15.609,15.609,0,0,0,46.154,316.991Z" transform="translate(-13.501 -316.93)" fill="#ffd064"/>
                      </g>
                    </g>
                  </g>
                </g>
                <path id="Path_1480" data-name="Path 1480" d="M78.134,331.674H41.268l-.978-18.015a2.786,2.786,0,0,1,2.782-2.937H76.33a2.786,2.786,0,0,1,2.782,2.937Z" transform="translate(-36.319 -301.141)" fill="#eaf2ff"/>
                <path id="Path_1481" data-name="Path 1481" d="M280.709,310.722H272.8a2.786,2.786,0,0,1,2.782,2.937l-.978,18.015h7.906l.978-18.015A2.786,2.786,0,0,0,280.709,310.722Z" transform="translate(-240.698 -301.141)" fill="#dbe8f9"/>
                <path id="Path_1482" data-name="Path 1482" d="M52.313,471.934H9.452a1.952,1.952,0,1,0,0,3.9H52.313a1.952,1.952,0,1,0,0-3.9Z" transform="translate(-7.5 -442.845)" fill="#38558a"/>
                <path id="Path_1483" data-name="Path 1483" d="M319.976,471.934h-6.012v1.952a1.951,1.951,0,0,1-1.952,1.952h7.963a1.952,1.952,0,0,0,0-3.9Z" transform="translate(-275.163 -442.845)" fill="#223a66"/>
              </g>
            </g>
            <path id="Path_1484" data-name="Path 1484" d="M162.95,378.1a6.467,6.467,0,0,1,1.669-4.325l.024-.027a5.536,5.536,0,0,0-1.4-8.5.476.476,0,0,0-.713.412v4.118a1.25,1.25,0,0,1-1.25,1.25h-1.536a1.25,1.25,0,0,1-1.25-1.25v-4.118a.476.476,0,0,0-.713-.412,5.536,5.536,0,0,0-1.4,8.5l.024.027a6.467,6.467,0,0,1,1.669,4.325Z" transform="translate(-137.132 -349.007)" fill="#fb6d5d"/>
          </g>
        </g>
        <g id="Group_1938" data-name="Group 1938" transform="translate(9.473 3.404)">
          <g id="Group_1937" data-name="Group 1937">
            <g id="Group_1936" data-name="Group 1936">
              <g id="Group_1935" data-name="Group 1935">
                <path id="Path_1485" data-name="Path 1485" d="M121.406,62.109l-.675,0-.011-2.721a9.9,9.9,0,0,0-19.805.085l.008,1.918,0,.8-.675,0a1.8,1.8,0,0,0-1.785,1.822l.008,2.01a1.8,1.8,0,0,0,1.8,1.806l.678,0A9.374,9.374,0,0,0,104.1,74.71a10.05,10.05,0,0,0,13.553-.058,9.376,9.376,0,0,0,3.095-6.9l.678,0a1.8,1.8,0,0,0,1.785-1.822l-.008-2.01A1.8,1.8,0,0,0,121.406,62.109Z" transform="translate(-96.93 -48.04)" fill="#ffddce"/>
                <path id="Path_1486" data-name="Path 1486" d="M192.964,67.466a1.8,1.8,0,0,0-1.8-1.806l-.675,0-.011-2.721a9.623,9.623,0,0,0-6.871-9.2,9.51,9.51,0,0,1,1.313,4.841l.032,12.716a9.375,9.375,0,0,1-3.095,6.9,10.6,10.6,0,0,1-4.029,2.25,9.953,9.953,0,0,0,9.587-2.25,9.376,9.376,0,0,0,3.095-6.9l.678,0a1.8,1.8,0,0,0,1.785-1.822Z" transform="translate(-166.689 -51.59)" fill="#ffcbbe"/>
                <g id="Group_1934" data-name="Group 1934" transform="translate(0 12.431)">
                  <g id="Group_1932" data-name="Group 1932" transform="translate(23.815)">
                    <path id="Path_1487" data-name="Path 1487" d="M282.575,138.669v7.482h1.987a2.017,2.017,0,0,0,2.017-2.017v-3.447a2.017,2.017,0,0,0-2.017-2.017Z" transform="translate(-282.575 -138.669)" fill="#8ba2cc"/>
                  </g>
                  <g id="Group_1933" data-name="Group 1933">
                    <path id="Path_1488" data-name="Path 1488" d="M89.782,138.669v7.482H87.8a2.017,2.017,0,0,1-2.017-2.017v-3.447a2.017,2.017,0,0,1,2.017-2.017Z" transform="translate(-85.778 -138.669)" fill="#8ba2cc"/>
                  </g>
                </g>
                <path id="Path_1489" data-name="Path 1489" d="M120.915,39.983h-.1a1.02,1.02,0,0,1-1.02-1.02,3.02,3.02,0,0,0-3.02-3.02h-9.612a7.745,7.745,0,0,0-7.745,7.745v5.119a1.767,1.767,0,0,0,1.186,1.669l1.908.664a1.025,1.025,0,0,0,1.362-.97l0-3.609a3.16,3.16,0,0,1,3.127-3.192h.038a5.015,5.015,0,0,1,1.557.241,8.85,8.85,0,0,0,2.742.455h.687a8.846,8.846,0,0,0,2.742-.455,5.019,5.019,0,0,1,1.557-.241h.038a3.16,3.16,0,0,1,3.127,3.192l0,3.61a1.025,1.025,0,0,0,1.362.969l1.907-.664a1.767,1.767,0,0,0,1.186-1.669V43a3.02,3.02,0,0,0-3.02-3.02Z" transform="translate(-97.766 -35.943)" fill="#756e78"/>
                <path id="Path_1490" data-name="Path 1490" d="M219.148,39.983h-.1a1.02,1.02,0,0,1-1.02-1.02,3.02,3.02,0,0,0-3.02-3.02h-3.833a9.439,9.439,0,0,1,3.056,7v.44c.107-.006.214-.01.321-.01h.038a3.16,3.16,0,0,1,3.127,3.192l0,3.61a1.025,1.025,0,0,0,1.362.969l1.907-.664a1.767,1.767,0,0,0,1.186-1.669V43A3.02,3.02,0,0,0,219.148,39.983Z" transform="translate(-195.999 -35.943)" fill="#665e66"/>
                <path id="Path_1491" data-name="Path 1491" d="M229.349,223.217h-2.278a1.574,1.574,0,1,1,0-3.147h2.278a1.574,1.574,0,1,1,0,3.147Z" transform="translate(-208.59 -197.788)" fill="#db636e"/>
              </g>
            </g>
          </g>
        </g>
      </g>
    </g>
    <g id="Group_1942" data-name="Group 1942" transform="translate(0 0.313)">
      <g id="Group_1941" data-name="Group 1941" transform="translate(0 0)">
        <path id="Path_1492" data-name="Path 1492" d="M406.8,37.252h-7.919a.908.908,0,1,0,0,1.815H406.8a.908.908,0,1,0,0-1.815Z" transform="translate(-349.818 -32.782)"/>
        <path id="Path_1493" data-name="Path 1493" d="M361.724,39.067h.965a.908.908,0,1,0,0-1.815h-.965a.908.908,0,1,0,0,1.815Z" transform="translate(-317.153 -32.782)"/>
        <path id="Path_1494" data-name="Path 1494" d="M361.724,74.3H374.14a.908.908,0,1,0,0-1.815H361.724a.908.908,0,1,0,0,1.815Z" transform="translate(-317.153 -63.75)"/>
        <path id="Path_1495" data-name="Path 1495" d="M47.853,78.741a16.576,16.576,0,0,0-3.415-10.056l.168-3.1a3.691,3.691,0,0,0-3.688-3.894H30.983a1.731,1.731,0,0,1-.734-1.414V57.744a10.283,10.283,0,0,0,3.416-3.484h1.756a3.689,3.689,0,0,0,3.685-3.685V43.8a2.924,2.924,0,0,0-1.65-2.632V36.408a3.932,3.932,0,0,0-3.927-3.928h-.1a.112.112,0,0,1-.112-.112,3.932,3.932,0,0,0-3.928-3.928H19.775a8.663,8.663,0,0,0-8.653,8.653v4.071A2.924,2.924,0,0,0,9.472,43.8v3.447A2.928,2.928,0,0,0,12.4,50.169h1.172a10.193,10.193,0,0,0,3.391,6.536,12.446,12.446,0,0,0,1.37,1.028v2.545a1.733,1.733,0,0,1-.737,1.414H7.661a3.691,3.691,0,0,0-3.688,3.894l.168,3.1A16.576,16.576,0,0,0,.726,78.741v3.418a2.857,2.857,0,0,0,2.133,4.76H45.72a2.857,2.857,0,0,0,2.133-4.76Zm-1.815,0v2.479a2.869,2.869,0,0,0-.318-.018H43.759l.512-9.438A14.748,14.748,0,0,1,46.038,78.741ZM37.2,43.354a1.1,1.1,0,0,1,.093.443v3.447a1.111,1.111,0,0,1-1.11,1.11H35.1V44.933l.559-.195A2.674,2.674,0,0,0,37.2,43.354ZM31.139,53.87H28.861a.666.666,0,1,1,0-1.332h2.278a.666.666,0,1,1,0,1.332Zm4.283-1.425H34.5a10.683,10.683,0,0,0,.525-2.276h1.152a2.909,2.909,0,0,0,1.11-.219v.625A1.872,1.872,0,0,1,35.422,52.445ZM12.938,37.094a6.845,6.845,0,0,1,6.838-6.838h9.612A2.115,2.115,0,0,1,31.5,32.369,1.93,1.93,0,0,0,33.427,34.3h.1a2.115,2.115,0,0,1,2.112,2.112v5.8a.86.86,0,0,1-.577.811l-1.907.664A.117.117,0,0,1,33,43.577l0-3.607c.011-2.632-2.454-4.928-5.907-3.819a9.647,9.647,0,0,1-5.617,0c-3.417-1.1-5.918,1.157-5.907,3.816l0,3.61a.117.117,0,0,1-.156.111l-1.908-.664a.86.86,0,0,1-.577-.811V37.094Zm-1.65,10.15V43.8a1.1,1.1,0,0,1,.093-.443,2.674,2.674,0,0,0,1.537,1.384l.559.195v3.421H12.4A1.111,1.111,0,0,1,11.288,47.244Zm4.021,1.877c-.03-1.193-.012-2.46-.017-3.619.056,0,.112.008.168.008a1.933,1.933,0,0,0,1.934-1.935l0-3.612c-.006-1.474,1.316-2.8,3.536-2.083a11.426,11.426,0,0,0,6.728,0c2.116-.68,3.543.517,3.536,2.086l0,3.609a1.932,1.932,0,0,0,2.1,1.927v3.693a8.952,8.952,0,0,1-.375,2.278,2.472,2.472,0,0,0-1.774-.75H28.861a2.481,2.481,0,1,0,0,4.962h1.153a9.288,9.288,0,0,1-5.677,2.025,8.9,8.9,0,0,1-9.028-8.589Zm4.837,11.158V58.691a11.063,11.063,0,0,0,4.189.835h.021a11.075,11.075,0,0,0,4.079-.828v1.581a3.541,3.541,0,0,0,.295,1.414H19.85A3.533,3.533,0,0,0,20.145,60.279ZM4.308,71.763,4.452,74.4a.908.908,0,1,0,1.813-.1l-.479-8.818a1.877,1.877,0,0,1,1.876-1.98H40.918a1.877,1.877,0,0,1,1.876,1.98L41.941,81.2H27.709a5.574,5.574,0,0,1,1.359-2.811l.026-.029a6.448,6.448,0,0,0-1.626-9.9,1.384,1.384,0,0,0-2.068,1.2v4.118a.343.343,0,0,1-.342.342H23.522a.343.343,0,0,1-.342-.342V69.665a1.384,1.384,0,0,0-2.068-1.2,6.448,6.448,0,0,0-1.623,9.9l.023.026A5.573,5.573,0,0,1,20.87,81.2H6.638l-.146-2.683a.908.908,0,0,0-1.813.1l.14,2.585H2.859a2.9,2.9,0,0,0-.318.018V78.741a14.749,14.749,0,0,1,1.767-6.977ZM22.7,81.2a7.379,7.379,0,0,0-1.844-4.025l-.022-.025a4.629,4.629,0,0,1,.526-6.668v3.3a2.16,2.16,0,0,0,2.158,2.157h1.536a2.16,2.16,0,0,0,2.158-2.157v-3.3a4.63,4.63,0,0,1,.524,6.671l-.02.022A7.379,7.379,0,0,0,25.875,81.2ZM45.72,85.1H2.859a1.044,1.044,0,1,1,0-2.088H45.72a1.044,1.044,0,1,1,0,2.088Z" transform="translate(0 -25.037)"/>
        <path id="Path_1496" data-name="Path 1496" d="M348.686,6.524a.908.908,0,0,0,.908-.908V3.86A3.551,3.551,0,0,0,346.047.313H330.782a3.551,3.551,0,0,0-3.547,3.547v7.634a3.551,3.551,0,0,0,3.547,3.547.635.635,0,0,1,.634.634V20.4a1.5,1.5,0,0,0,2.784.771l3.489-5.818a.637.637,0,0,1,.544-.308h7.815a3.551,3.551,0,0,0,3.547-3.547V9.86a.908.908,0,1,0-1.815,0v1.635a1.734,1.734,0,0,1-1.732,1.732h-7.815a2.461,2.461,0,0,0-2.1,1.19l-2.9,4.837V15.675a2.452,2.452,0,0,0-2.449-2.449,1.734,1.734,0,0,1-1.732-1.732V3.86a1.734,1.734,0,0,1,1.732-1.732h15.265a1.734,1.734,0,0,1,1.732,1.732V5.617a.908.908,0,0,0,.908.908Z" transform="translate(-287.636 -0.313)"/>
      </g>
    </g>
  </g>
</svg>
