<svg id="twitter" xmlns="http://www.w3.org/2000/svg" width="25" height="25" viewBox="0 0 25 25">
  <g id="Desktop">
    <g id="Main-Desktop">
      <g id="Footer">
        <g id="social-normal">
          <g id="twitter-icon">
            <path id="Page-1" d="M25,12.5A12.5,12.5,0,1,1,12.5,0,12.5,12.5,0,0,1,25,12.5Z" fill="#00c2ff"/>
            <path id="Path_777" data-name="Path 777" d="M17.226,10.626c0,.1.006.192.006.29a6.267,6.267,0,0,1-6.258,6.356,6.158,6.158,0,0,1-3.372-1,4.516,4.516,0,0,0,.525.031,4.37,4.37,0,0,0,2.732-.956A2.207,2.207,0,0,1,8.8,13.791a2.139,2.139,0,0,0,.414.041,2.187,2.187,0,0,0,.579-.078,2.227,2.227,0,0,1-1.764-2.19v-.028a2.166,2.166,0,0,0,1,.279,2.262,2.262,0,0,1-.681-2.983,6.215,6.215,0,0,0,4.533,2.335,2.321,2.321,0,0,1-.056-.51,2.217,2.217,0,0,1,2.2-2.234,2.18,2.18,0,0,1,1.606.706,4.365,4.365,0,0,0,1.4-.542,2.23,2.23,0,0,1-.967,1.235,4.327,4.327,0,0,0,1.264-.351,4.517,4.517,0,0,1-1.1,1.156" fill="#fff"/>
          </g>
        </g>
      </g>
    </g>
  </g>
</svg>
