<svg xmlns="http://www.w3.org/2000/svg" width="543.998" height="671.846" viewBox="0 0 543.998 671.846">
  <path id="Subtraction_2" data-name="Subtraction 2" d="M-806,916.845h0a769.684,769.684,0,0,1-76.755-12.727c-13.377-3.02-25.589-6.347-36.294-9.89A199.091,199.091,0,0,1-948.7,882a160.295,160.295,0,0,1-16.158-9.687,130.853,130.853,0,0,1-13.191-10.322,113.432,113.432,0,0,1-19.15-22.112c-10.106-15.242-15.668-31.378-21.046-46.984l0-.013c-9.9-28.716-19.244-55.839-54.95-74.883a86.077,86.077,0,0,1-15.621-10.61,77.627,77.627,0,0,1-11.775-12.666,83.256,83.256,0,0,1-8.478-14.336,103.266,103.266,0,0,1-5.729-15.623,168.481,168.481,0,0,1-5.407-33.566c-.822-11.445-.911-22.956-1-34.087V597.1c-.1-13.1-.194-25.478-1.467-36.532a93.2,93.2,0,0,0-2.937-15.4A47.046,47.046,0,0,0-1131.2,532.5c-4.8-7.386-13.012-13.23-25.843-18.392-11.535-4.642-25.7-8.282-40.7-12.136l-.019,0c-11.344-2.914-23.074-5.928-35.006-9.674a247.916,247.916,0,0,1-35.5-13.886,169.229,169.229,0,0,1-16.914-9.538,141.809,141.809,0,0,1-15.816-11.81,128.76,128.76,0,0,1-14.309-14.486A128.447,128.447,0,0,1-1327.7,425c-11.861-20.2-19.075-48.084-21.442-82.874a431.623,431.623,0,0,1-.346-48.614c.707-15.457,2.141-31.778,4.262-48.512H-806V916.844Z" transform="translate(1350 -245)" fill="#e3e3f6"/>
</svg>
