<svg id="cpu" xmlns="http://www.w3.org/2000/svg" width="52.853" height="52.853" viewBox="0 0 52.853 52.853">
  <g id="Group_1218" data-name="Group 1218" transform="translate(1.315 1.315)">
    <circle id="Ellipse_31" data-name="Ellipse 31" cx="2.477" cy="2.477" r="2.477" transform="translate(22.634 2.811)" fill="#44c5bd"/>
    <ellipse id="Ellipse_32" data-name="Ellipse 32" cx="2" cy="2.5" rx="2" ry="2.5" transform="translate(46.111 5.111)" fill="#44c5bd"/>
    <circle id="Ellipse_33" data-name="Ellipse 33" cx="2.477" cy="2.477" r="2.477" transform="translate(42.456 22.633)" fill="#44c5bd"/>
    <ellipse id="Ellipse_34" data-name="Ellipse 34" cx="2.5" cy="2" rx="2.5" ry="2" transform="translate(40.111 46.111)" fill="#44c5bd"/>
    <circle id="Ellipse_35" data-name="Ellipse 35" cx="2.477" cy="2.477" r="2.477" transform="translate(22.634 42.456)" fill="#44c5bd"/>
    <ellipse id="Ellipse_36" data-name="Ellipse 36" cx="2" cy="2.5" rx="2" ry="2.5" transform="translate(0.111 40.111)" fill="#44c5bd"/>
    <circle id="Ellipse_37" data-name="Ellipse 37" cx="2.477" cy="2.477" r="2.477" transform="translate(2.811 22.633)" fill="#44c5bd"/>
    <ellipse id="Ellipse_38" data-name="Ellipse 38" cx="2.5" cy="2" rx="2.5" ry="2" transform="translate(5.111 0.111)" fill="#44c5bd"/>
  </g>
  <path id="Path_1342" data-name="Path 1342" d="M0,0H18V18H0Z" transform="translate(17.426 17.426)" fill="#ffb954"/>
  <rect id="Rectangle_79" data-name="Rectangle 79" width="8" height="8" transform="translate(22.426 22.426)" fill="#fff"/>
  <path id="Path_1336" data-name="Path 1336" d="M211.032,219.5h7.432a1.032,1.032,0,0,0,1.032-1.032v-7.432A1.032,1.032,0,0,0,218.465,210h-7.432A1.032,1.032,0,0,0,210,211.032v7.432A1.032,1.032,0,0,0,211.032,219.5Zm1.032-7.432h5.368v5.368h-5.368Z" transform="translate(-188.322 -188.322)"/>
  <path id="Path_1337" data-name="Path 1337" d="M447.51,54a3.51,3.51,0,1,0,3.51,3.51A3.514,3.514,0,0,0,447.51,54Zm0,4.955a1.445,1.445,0,1,1,1.445-1.445A1.447,1.447,0,0,1,447.51,58.955Z" transform="translate(-398.167 -48.426)"/>
  <path id="Path_1338" data-name="Path 1338" d="M410.552,80.035a1.031,1.031,0,1,0-.731-.3A1.04,1.04,0,0,0,410.552,80.035Z" transform="translate(-367.246 -69.921)"/>
  <path id="Path_1339" data-name="Path 1339" d="M73.125,22.917a3.516,3.516,0,0,0-3.355,2.477H63.418V17.342a1.032,1.032,0,0,0-1.032-1.032H60.734v-6.2h5.783a1.032,1.032,0,1,0,0-2.065H59.7A1.032,1.032,0,0,0,58.67,9.081V16.31H54.334V9.958a3.51,3.51,0,1,0-2.065,0V16.31H44.218a1.032,1.032,0,0,0-1.032,1.032v1.652h-6.2V6.865a3.51,3.51,0,1,0-2.065,0V20.026a1.032,1.032,0,0,0,1.032,1.032h7.229v4.336H36.833a3.51,3.51,0,1,0,0,2.065h6.352V35.51a1.032,1.032,0,0,0,1.032,1.032h1.652v6.2H40.086a1.032,1.032,0,1,0,0,2.065H46.9a1.032,1.032,0,0,0,1.032-1.032V36.543h4.336v6.352a3.51,3.51,0,1,0,2.065,0V36.543h8.052a1.032,1.032,0,0,0,1.032-1.032V33.859h6.2V45.987a3.51,3.51,0,1,0,2.065,0V32.826a1.032,1.032,0,0,0-1.032-1.032H63.418V27.459H69.77a3.51,3.51,0,1,0,3.355-4.542ZM53.3,5.158A1.445,1.445,0,1,1,51.856,6.6,1.447,1.447,0,0,1,53.3,5.158ZM35.959,2.065A1.445,1.445,0,1,1,34.514,3.51,1.447,1.447,0,0,1,35.959,2.065ZM33.479,27.872a1.445,1.445,0,1,1,1.445-1.445A1.447,1.447,0,0,1,33.479,27.872ZM53.3,47.694a1.445,1.445,0,1,1,1.445-1.445A1.447,1.447,0,0,1,53.3,47.694Zm17.342,3.094a1.445,1.445,0,1,1,1.445-1.445A1.447,1.447,0,0,1,70.644,50.788Zm-9.29-16.31H45.25v-16.1h16.1Zm11.771-6.607a1.445,1.445,0,1,1,1.445-1.445A1.447,1.447,0,0,1,73.125,27.872Z" transform="translate(-26.875)"/>
  <path id="Path_1340" data-name="Path 1340" d="M3.51,390a3.51,3.51,0,1,0,3.51,3.51A3.514,3.514,0,0,0,3.51,390Zm0,4.955a1.445,1.445,0,1,1,1.445-1.445A1.447,1.447,0,0,1,3.51,394.955Z" transform="translate(0 -349.741)"/>
  <path id="Path_1341" data-name="Path 1341" d="M83.532,414.03a1.033,1.033,0,1,0,.73.3A1.04,1.04,0,0,0,83.532,414.03Z" transform="translate(-73.984 -371.291)"/>
</svg>
