<svg xmlns="http://www.w3.org/2000/svg" width="577.94" height="349.06" viewBox="0 0 577.94 349.06">
  <g id="Doctors-pana" transform="translate(-38.06 -44.598)">
    <g id="freepik--background-complete--inject-37" transform="translate(45.427 44.598)">
      <path id="Path_1104" data-name="Path 1104" d="M615.98,424.875c-20.684-12.666-26.739-38.135-27.347-61.324-.1-3.868-.772-7.915.858-11.414s5.78-6.071,9.339-4.656c2.95,1.175,4.4,4.442,6.166,7.1a22.614,22.614,0,0,0,9.587,8.1c2.573,1.132,5.626,1.715,7.967.24,3.224-2.041,3.336-6.663,3.079-10.505q-.7-10.728-1.423-21.439c-.257-3.842-.506-7.761.472-11.483s3.43-7.263,7-8.507,8.241.592,9.236,4.288c.42,1.544.2,3.19.4,4.777s1.046,3.3,2.573,3.662,3.036-.858,4.116-2.024c3.73-4.116,6.114-9.27,8.327-14.4s4.348-10.351,7.718-14.8,8.121-8.1,13.6-8.738,11.551,2.393,13.266,7.718-1.106,11.02-4.288,15.607A85.841,85.841,0,0,1,669.8,325.176c-1.166.935-2.418,1.947-2.8,3.43-.677,2.573,1.9,5.008,4.476,5.694,2.924.78,6,.3,9.03.472s6.337,1.295,7.641,4.056c1.809,3.833-1.226,8.147-4.288,11.037a73.6,73.6,0,0,1-20.984,13.841c-2.761,1.209-5.686,2.3-7.838,4.416s-3.327,5.66-1.792,8.284,5.145,3.276,8.052,2.573,5.48-2.5,8.241-3.73c5.145-2.307,12.006-2.358,15.65,2,2.4,2.864,2.856,7.032,1.947,10.677a27.982,27.982,0,0,1-5.257,9.845c-7.855,10.436-18.206,19.081-30.195,24.063s-23.265,6.86-35.708,3.1" transform="translate(-123.823 -78.653)" fill="#f5f5f5"/>
      <path id="Path_1105" data-name="Path 1105" d="M626.51,410.486A345.407,345.407,0,0,1,637.933,372.6l3.507-9.776c1.158-3.207,2.307-6.38,3.619-9.433a174.4,174.4,0,0,1,8.576-17.04c2.984-5.282,6-10.2,8.867-14.758s5.634-8.773,8.31-12.495a135.788,135.788,0,0,1,13.927-16.619c1.792-1.827,3.224-3.2,4.211-4.116l1.132-1.038a3.935,3.935,0,0,1,.395-.334,4.7,4.7,0,0,1-.343.386l-1.081,1.089c-.952.952-2.358,2.35-4.116,4.2a144.666,144.666,0,0,0-13.721,16.722c-2.641,3.73-5.368,7.941-8.215,12.52s-5.84,9.493-8.8,14.776a174.259,174.259,0,0,0-8.49,16.988c-1.3,3.019-2.435,6.174-3.593,9.39s-2.315,6.475-3.5,9.768a353.3,353.3,0,0,0-11.457,37.792" transform="translate(-129.25 -79.126)" fill="#e0e0e0"/>
      <path id="Path_1106" data-name="Path 1106" d="M647.015,357.417a8.261,8.261,0,0,1-.472-1.612c-.266-1.046-.6-2.573-.986-4.476-.772-3.79-1.664-9.064-2.624-14.879s-1.921-11.071-2.744-14.836c-.412-1.887-.763-3.43-1.012-4.459a8.056,8.056,0,0,1-.317-1.655,7.488,7.488,0,0,1,.583,1.578c.334,1.029.755,2.573,1.226,4.416.961,3.756,2.007,9,2.967,14.836s1.775,10.934,2.418,14.9c.3,1.792.557,3.3.763,4.511a7.525,7.525,0,0,1,.2,1.672Z" transform="translate(-131.009 -83.187)" fill="#e0e0e0"/>
      <path id="Path_1107" data-name="Path 1107" d="M697.2,350.148a11.563,11.563,0,0,1-1.964.352c-1.252.189-3.079.455-5.325.858-4.494.763-10.668,2.032-17.408,3.73s-12.786,3.516-17.151,4.957c-2.17.695-3.91,1.312-5.145,1.715a9.792,9.792,0,0,1-1.9.583,11.3,11.3,0,0,1,1.809-.858c1.175-.5,2.9-1.183,5.051-1.947,4.288-1.561,10.342-3.43,17.151-5.145a173.157,173.157,0,0,1,17.52-3.516c2.264-.334,4.1-.523,5.377-.626A9.715,9.715,0,0,1,697.2,350.148Z" transform="translate(-132.354 -88.121)" fill="#e0e0e0"/>
      <path id="Path_1108" data-name="Path 1108" d="M622.387,419.662a2.839,2.839,0,0,1-.377-.575c-.257-.472-.566-1.046-.952-1.715-.858-1.509-1.947-3.73-3.31-6.483-2.719-5.514-6.243-13.249-10.016-21.833S600.51,372.7,597.9,367.137l-3.087-6.6-.858-1.792a2.119,2.119,0,0,1-.249-.652,2.922,2.922,0,0,1,.369.583l.952,1.715c.858,1.518,1.955,3.73,3.319,6.492,2.718,5.514,6.243,13.249,10.016,21.833s7.221,16.345,9.828,21.911l3.1,6.577.858,1.8A2.216,2.216,0,0,1,622.387,419.662Z" transform="translate(-124.578 -89.254)" fill="#e0e0e0"/>
      <path id="Path_1109" data-name="Path 1109" d="M691.505,400.61a2.634,2.634,0,0,1-.635.309l-1.869.755-6.86,2.7c-5.823,2.281-13.815,5.531-22.648,9.124s-16.877,6.775-22.742,8.936c-2.933,1.081-5.317,1.93-6.972,2.487l-1.912.626a2.377,2.377,0,0,1-.686.171,3.1,3.1,0,0,1,.635-.309l1.87-.746,6.86-2.7c5.823-2.281,13.824-5.531,22.657-9.124s16.868-6.749,22.708-8.936c2.933-1.089,5.317-1.938,6.972-2.5l1.912-.626a2.446,2.446,0,0,1,.712-.172Z" transform="translate(-129.345 -95.311)" fill="#e0e0e0"/>
      <path id="Path_1110" data-name="Path 1110" d="M630.541,139.807c-3.533,8.833-9.176,23.111-11.774,29.671a3.773,3.773,0,0,0,2.118,4.888l24.132,9.613a3.765,3.765,0,0,0,4.9-2.11l11.706-29.431a8.37,8.37,0,0,0-4.682-10.882h0l1.715-4.288L642.855,131l-1.629,4.065h-.06a8.37,8.37,0,0,0-10.625,4.742Z" transform="translate(-128.109 -56.906)" fill="#f5f5f5"/>
      <path id="Path_1111" data-name="Path 1111" d="M646.52,131.61l-.78,1.964,15.573,6.86,1.012-2.53Z" transform="translate(-131.989 -56.993)" fill="#e0e0e0"/>
      <path id="Path_1112" data-name="Path 1112" d="M2.564,0H18.42a2.573,2.573,0,0,1,2.573,2.573V6.792a1.655,1.655,0,0,1-1.655,1.655H1.655A1.655,1.655,0,0,1,0,6.792V2.573A2.573,2.573,0,0,1,2.573,0Z" transform="matrix(0.929, 0.37, -0.37, 0.929, 515.315, 67.338)" fill="#ebebeb"/>
      <path id="Path_1113" data-name="Path 1113" d="M646.84,132.134a20.255,20.255,0,0,1,1.346-3.979,20.581,20.581,0,0,1,1.767-3.825,20.431,20.431,0,0,1-1.346,4A19.14,19.14,0,0,1,646.84,132.134Z" transform="translate(-132.146 -55.956)" fill="#e0e0e0"/>
      <path id="Path_1114" data-name="Path 1114" d="M649.27,133.1a20.423,20.423,0,0,1,1.346-3.988,19.139,19.139,0,0,1,1.767-3.816,20.432,20.432,0,0,1-1.346,3.988,19.144,19.144,0,0,1-1.767,3.816Z" transform="translate(-132.492 -56.094)" fill="#e0e0e0"/>
      <path id="Path_1115" data-name="Path 1115" d="M651.7,134.072a20.242,20.242,0,0,1,1.346-3.988,19.373,19.373,0,0,1,1.767-3.825,20.033,20.033,0,0,1-1.346,3.988A20.577,20.577,0,0,1,651.7,134.072Z" transform="translate(-132.838 -56.231)" fill="#e0e0e0"/>
      <path id="Path_1116" data-name="Path 1116" d="M654.13,135.042a19.39,19.39,0,0,1,1.346-3.988,19.372,19.372,0,0,1,1.767-3.825,20.143,20.143,0,0,1-1.355,3.988,20.579,20.579,0,0,1-1.758,3.825Z" transform="translate(-133.184 -56.369)" fill="#e0e0e0"/>
      <path id="Path_1117" data-name="Path 1117" d="M656.56,136a19.726,19.726,0,0,1,1.346-3.988,20.022,20.022,0,0,1,1.715-3.816,19.722,19.722,0,0,1-1.346,3.988A20.021,20.021,0,0,1,656.56,136Z" transform="translate(-133.53 -56.507)" fill="#e0e0e0"/>
      <path id="Path_1118" data-name="Path 1118" d="M659,136.972a20.143,20.143,0,0,1,1.355-3.988,20.586,20.586,0,0,1,1.758-3.825,19.394,19.394,0,0,1-1.346,3.988A19.379,19.379,0,0,1,659,136.972Z" transform="translate(-133.878 -56.644)" fill="#e0e0e0"/>
      <path id="Path_1119" data-name="Path 1119" d="M661.41,137.942a20.033,20.033,0,0,1,1.346-3.988,20.577,20.577,0,0,1,1.766-3.825,20.231,20.231,0,0,1-1.346,3.988,19.37,19.37,0,0,1-1.767,3.825Z" transform="translate(-134.221 -56.782)" fill="#e0e0e0"/>
      <path id="Path_1120" data-name="Path 1120" d="M663.84,138.9a20.251,20.251,0,0,1,1.346-3.979,19.369,19.369,0,0,1,1.767-3.825,20.432,20.432,0,0,1-1.346,3.988A19.724,19.724,0,0,1,663.84,138.9Z" transform="translate(-134.567 -56.92)" fill="#e0e0e0"/>
      <rect id="Rectangle_72" data-name="Rectangle 72" width="24.372" height="16.122" rx="1.48" transform="matrix(0.929, 0.37, -0.37, 0.929, 505.125, 88.94)" fill="#ebebeb"/>
      <path id="Path_1121" data-name="Path 1121" d="M650.527,170.862a2.383,2.383,0,0,1,.086-.257l.257-.7,1-2.65c.858-2.29,2.144-5.523,3.67-9.433l.094.232-19.861-7.864c-.06,0,.549-.232.292-.12h0v.051l-.043.111-.086.214-.172.429-.343.858c-.232.566-.455,1.132-.677,1.715-.446,1.123-.858,2.23-1.329,3.319l-2.5,6.252-.112-.266,14.2,5.763,4.082,1.715,1.1.463a3.945,3.945,0,0,1,.386.18l-.36-.12-1.072-.4-4.082-1.561-14.407-5.634-.189-.069.077-.2c.789-1.99,1.612-4.082,2.478-6.26.429-1.089.858-2.2,1.321-3.319.223-.566.446-1.132.677-1.715l.334-.858.18-.429.086-.214.043-.111v-.051h0l.3-.129,19.835,7.89.163.069-.069.163c-1.612,3.945-2.941,7.186-3.876,9.493l-1.081,2.573-.283.66Q650.544,170.879,650.527,170.862Z" transform="translate(-129.812 -59.584)" fill="#e0e0e0"/>
      <path id="Path_1122" data-name="Path 1122" d="M652.114,161.788a60.093,60.093,0,0,1-6.86-2.478,59.255,59.255,0,0,1-6.663-2.89,58.547,58.547,0,0,1,6.86,2.478A59.517,59.517,0,0,1,652.114,161.788Z" transform="translate(-130.97 -60.527)" fill="#e0e0e0"/>
      <path id="Path_1123" data-name="Path 1123" d="M651.054,164.458a57.915,57.915,0,0,1-6.86-2.478,61.03,61.03,0,0,1-6.663-2.89,59.171,59.171,0,0,1,6.86,2.478,60.126,60.126,0,0,1,6.663,2.89Z" transform="translate(-130.82 -60.907)" fill="#e0e0e0"/>
      <path id="Path_1124" data-name="Path 1124" d="M650.034,167.028a57.306,57.306,0,0,1-6.86-2.478,60.136,60.136,0,0,1-6.663-2.89,57.915,57.915,0,0,1,6.86,2.478A61.021,61.021,0,0,1,650.034,167.028Z" transform="translate(-130.674 -61.273)" fill="#e0e0e0"/>
      <path id="Path_1125" data-name="Path 1125" d="M659.886,141.8a69.674,69.674,0,0,1-7.435-2.718,71.35,71.35,0,0,1-7.281-3.139,67.959,67.959,0,0,1,7.444,2.718,70.633,70.633,0,0,1,7.272,3.139Z" transform="translate(-131.908 -57.609)" fill="#e0e0e0"/>
      <path id="Path_1126" data-name="Path 1126" d="M621.12,169.22a9.9,9.9,0,0,1,.48-1.424c.369-.969.858-2.255,1.458-3.816,1.243-3.216,2.993-7.641,4.957-12.52.986-2.435,1.921-4.759,2.787-6.86a14.751,14.751,0,0,1,3.13-5.214,6.577,6.577,0,0,1,3.645-1.861,4.9,4.9,0,0,1,1.123,0,1.441,1.441,0,0,1,.377.094,9.873,9.873,0,0,0-1.475.086,6.681,6.681,0,0,0-3.43,1.912,14.777,14.777,0,0,0-2.976,5.145c-.857,2.127-1.775,4.451-2.753,6.86-1.955,4.879-3.756,9.3-5.077,12.477l-1.586,3.756A8.837,8.837,0,0,1,621.12,169.22Z" transform="translate(-128.482 -57.831)" fill="#fff"/>
      <path id="Path_1127" data-name="Path 1127" d="M648.076,190.713a5.908,5.908,0,0,1-.943-.763c-.292-.266-.66-.575-1.1-.918s-.909-.763-1.484-1.166a41.768,41.768,0,0,0-4.091-2.71,43.925,43.925,0,0,0-5.394-2.573,44.4,44.4,0,0,0-5.72-1.809,41.676,41.676,0,0,0-4.828-.858c-.695-.1-1.329-.129-1.878-.18s-1.038-.069-1.424-.077a7.289,7.289,0,0,1-1.218-.094,6,6,0,0,1,1.218-.086h1.432a11.516,11.516,0,0,1,1.9.111,37.8,37.8,0,0,1,4.9.755,42.559,42.559,0,0,1,5.8,1.792,41.7,41.7,0,0,1,5.437,2.684,38.374,38.374,0,0,1,4.073,2.813c.557.42,1.029.858,1.449,1.226a13.846,13.846,0,0,1,1.046.978,6.541,6.541,0,0,1,.832.875Z" transform="translate(-128.322 -63.811)" fill="#fff"/>
      <rect id="Rectangle_73" data-name="Rectangle 73" width="77.823" height="106.911" rx="2.41" transform="translate(0 153.235) rotate(-25.7)" fill="#e0e0e0"/>
      <rect id="Rectangle_74" data-name="Rectangle 74" width="69.136" height="99.511" transform="translate(4.907 153.402) rotate(-25.7)" fill="#fafafa"/>
      <path id="Path_1128" data-name="Path 1128" d="M100.028,199.146a8.455,8.455,0,0,0-8.859-.926l-1.912-3.765a5.806,5.806,0,0,0-7.718-2.718h0a5.814,5.814,0,0,0-2.718,7.769l1.912,3.97-1.329.669a8.481,8.481,0,0,0-4.674,7.461v1.972l27.124-13.052Zm-14.476.617a3.13,3.13,0,1,1,1.6-1.788,3.13,3.13,0,0,1-1.6,1.788Z" transform="translate(-50.651 -65.477)" fill="#ebebeb"/>
      <path id="Path_1129" data-name="Path 1129" d="M83.619,225.329c.06.111-3.679,2.024-8.344,4.288a85.45,85.45,0,0,1-8.576,3.859c-.086-.111,3.679-2.024,8.344-4.288A89.622,89.622,0,0,1,83.619,225.329Z" transform="translate(-49.507 -70.342)" fill="#e0e0e0"/>
      <path id="Path_1130" data-name="Path 1130" d="M76.478,233.56a22.914,22.914,0,0,1-3.97,2.161,22.7,22.7,0,0,1-4.168,1.715,23.155,23.155,0,0,1,4-2.118,23.943,23.943,0,0,1,4.142-1.758Z" transform="translate(-49.741 -71.515)" fill="#e0e0e0"/>
      <path id="Path_1131" data-name="Path 1131" d="M120.751,220.55c.051.1-10.428,5.265-23.411,11.508s-23.548,11.225-23.6,11.148,10.428-5.3,23.377-11.551S120.7,220.438,120.751,220.55Z" transform="translate(-50.51 -69.661)" fill="#e0e0e0"/>
      <path id="Path_1132" data-name="Path 1132" d="M123.271,225.77c.051.111-10.428,5.265-23.411,11.517s-23.548,11.225-23.6,11.148,10.419-5.265,23.411-11.517S123.2,225.658,123.271,225.77Z" transform="translate(-50.869 -70.405)" fill="#e0e0e0"/>
      <path id="Path_1133" data-name="Path 1133" d="M125.781,231c.06.111-10.428,5.265-23.4,11.517S78.83,253.742,78.77,253.665,89.2,248.4,102.181,242.148,125.73,230.888,125.781,231Z" transform="translate(-51.226 -71.15)" fill="#e0e0e0"/>
      <path id="Path_1134" data-name="Path 1134" d="M128.3,236.23c.051.111-10.428,5.265-23.411,11.517s-23.548,11.217-23.6,11.148,10.428-5.265,23.411-11.508S128.25,236.118,128.3,236.23Z" transform="translate(-51.585 -71.895)" fill="#e0e0e0"/>
      <path id="Path_1135" data-name="Path 1135" d="M130.821,241.45c.051.111-10.428,5.274-23.411,11.517s-23.548,11.225-23.6,11.148,10.454-5.3,23.4-11.551S130.761,241.347,130.821,241.45Z" transform="translate(-51.944 -72.639)" fill="#e0e0e0"/>
      <path id="Path_1136" data-name="Path 1136" d="M133.331,246.68c.051.111-10.428,5.265-23.4,11.517S86.371,269.422,86.32,269.345s10.428-5.265,23.411-11.517S133.28,246.568,133.331,246.68Z" transform="translate(-52.302 -73.384)" fill="#e0e0e0"/>
      <path id="Path_1137" data-name="Path 1137" d="M112.1,264.59a4.338,4.338,0,0,1-.858.523l-2.487,1.278c-2.11,1.055-5.042,2.5-8.284,4.056s-6.2,2.959-8.344,3.945l-2.573,1.149a4.16,4.16,0,0,1-.96.36,5.349,5.349,0,0,1,.858-.523l2.487-1.269c2.11-1.063,5.042-2.5,8.284-4.065s6.2-2.95,8.344-3.936l2.573-1.149A4.546,4.546,0,0,1,112.1,264.59Z" transform="translate(-52.625 -75.935)" fill="#e0e0e0"/>
      <path id="Path_1138" data-name="Path 1138" d="M123.4,206.35a19.791,19.791,0,0,1-3.67,2.015,19.543,19.543,0,0,1-3.859,1.612,19.791,19.791,0,0,1,3.67-2.015,19.544,19.544,0,0,1,3.859-1.612Z" transform="translate(-56.511 -67.639)" fill="#e0e0e0"/>
      <path id="Path_1139" data-name="Path 1139" d="M106.973,282a50.391,50.391,0,0,1-6,3.139,51.831,51.831,0,0,1-6.2,2.736,50.391,50.391,0,0,1,6-3.139,51.832,51.832,0,0,1,6.2-2.736Z" transform="translate(-53.506 -78.415)" fill="#e0e0e0"/>
      <path id="Path_1140" data-name="Path 1140" d="M109.719,286.5a52.1,52.1,0,0,1-6.106,3.181,52.683,52.683,0,0,1-6.3,2.787,53.761,53.761,0,0,1,6.106-3.19,53.4,53.4,0,0,1,6.3-2.779Z" transform="translate(-53.867 -79.056)" fill="#e0e0e0"/>
      <path id="Path_1141" data-name="Path 1141" d="M149.02,261.39a11.74,11.74,0,0,1-2.847,1.621,12,12,0,0,1-3.053,1.218,12.493,12.493,0,0,1,2.856-1.621,12.364,12.364,0,0,1,3.044-1.218Z" transform="translate(-60.393 -75.479)" fill="#e0e0e0"/>
      <path id="Path_1142" data-name="Path 1142" d="M151.29,265.55a12.493,12.493,0,0,1-2.856,1.621,12.366,12.366,0,0,1-3.044,1.218,11.74,11.74,0,0,1,2.847-1.621A12.006,12.006,0,0,1,151.29,265.55Z" transform="translate(-60.716 -76.072)" fill="#e0e0e0"/>
      <path id="Path_1143" data-name="Path 1143" d="M106.593,294.68a11.491,11.491,0,0,1-2.753,1.569,11.578,11.578,0,0,1-2.95,1.175,11.681,11.681,0,0,1,2.753-1.612,11.474,11.474,0,0,1,2.95-1.132Z" transform="translate(-54.377 -80.221)" fill="#e0e0e0"/>
      <path id="Path_1144" data-name="Path 1144" d="M154.191,270.42a6.355,6.355,0,0,1-2.032,1.226,6.86,6.86,0,0,1-2.238.858,6.39,6.39,0,0,1,2.041-1.235A6.5,6.5,0,0,1,154.191,270.42Z" transform="translate(-61.361 -76.766)" fill="#e0e0e0"/>
      <path id="Path_1145" data-name="Path 1145" d="M105.87,307.876a1.5,1.5,0,0,1,.24-.18l.72-.48,2.77-1.775,9.956-6.252.2-.129.086.214a5.651,5.651,0,0,1,.111,3.782,4.614,4.614,0,0,1-2.744,2.967,4.562,4.562,0,0,1-4.288-.472,3.988,3.988,0,0,1-1.415-4.176,3.7,3.7,0,0,1,.858-1.561,2.778,2.778,0,0,1,.326-.309,1.714,1.714,0,0,1,.386-.266.652.652,0,0,1,.6,0,1.038,1.038,0,0,1,.343.395,7.478,7.478,0,0,1,.858,3.173,7.392,7.392,0,0,1-.489,3.13,4.742,4.742,0,0,1-1.844,2.444,2.736,2.736,0,0,1-2.9-.06,4.168,4.168,0,0,1-1.715-2.152,10.025,10.025,0,0,1,0-4.845l.051-.326.223.249a6.766,6.766,0,0,1,1.638,3.7,7.272,7.272,0,0,1-.292,3.044,6.484,6.484,0,0,1-.858,1.715c-.137.18-.249.3-.326.386s-.111.129-.12.12a7.984,7.984,0,0,0,1.141-2.281,7.332,7.332,0,0,0,.206-2.959,6.475,6.475,0,0,0-1.621-3.516l.274-.077a9.648,9.648,0,0,0,0,4.665,3.765,3.765,0,0,0,1.569,1.938,2.333,2.333,0,0,0,2.478.043,4.4,4.4,0,0,0,1.664-2.238,7.186,7.186,0,0,0,.446-2.967,7.066,7.066,0,0,0-.858-2.976.532.532,0,0,0-.18-.231.188.188,0,0,0-.189,0,2.11,2.11,0,0,0-.557.463,3.224,3.224,0,0,0-.72,1.364,3.55,3.55,0,0,0,1.252,3.713,4.142,4.142,0,0,0,3.825.429,4.2,4.2,0,0,0,2.5-2.693,5.222,5.222,0,0,0-.077-3.507l.283.094-10.042,6.114-2.83,1.715-.746.429A1.139,1.139,0,0,1,105.87,307.876Z" transform="translate(-55.087 -80.845)" fill="#e0e0e0"/>
      <path id="Path_1146" data-name="Path 1146" d="M156.048,283.4a2.572,2.572,0,0,1-.137.806,3.43,3.43,0,0,1-.394.909,1.921,1.921,0,0,1-1.072.858,1.329,1.329,0,0,1-.858,0,1.715,1.715,0,0,1-.72-.557,16.291,16.291,0,0,1-.96-1.629l-2.1-3.928.386-.086c-.069,1.964-.137,4.108-.223,6.354a13.864,13.864,0,0,1-.06,1.586v.858l-.386-.8c-1.175-2.41-2.264-4.665-3.224-6.62h.36a22.837,22.837,0,0,0-.858,6c0,1.466.094,2.3.051,2.307a1.981,1.981,0,0,1-.129-.6,16.968,16.968,0,0,1-.146-1.715,20.916,20.916,0,0,1,.669-6.08l.129-.5.223.463,3.284,6.595-.429.086a14.243,14.243,0,0,1,.06-1.586c.094-2.247.18-4.391.257-6.354V279l.352.677c.755,1.415,1.449,2.736,2.075,3.919a17.149,17.149,0,0,0,.9,1.621,1.149,1.149,0,0,0,1.243.523,2.2,2.2,0,0,0,1.4-1.526,6.469,6.469,0,0,1,.309-.815Z" transform="translate(-60.741 -77.988)" fill="#e0e0e0"/>
      <path id="Path_1147" data-name="Path 1147" d="M155.022,280.389c.069.094-3.473,2.624-7.907,5.643s-8.087,5.377-8.155,5.274,3.43-2.624,7.907-5.643S154.953,280.287,155.022,280.389Z" transform="translate(-59.8 -78.185)" fill="#e0e0e0"/>
      <path id="Path_1148" data-name="Path 1148" d="M160.786,281.26a67.625,67.625,0,0,1-5.8,5.274,68.287,68.287,0,0,1-6.089,4.94,69.325,69.325,0,0,1,5.8-5.274,68.279,68.279,0,0,1,6.089-4.939Z" transform="translate(-61.216 -78.31)" fill="#e0e0e0"/>
      <path id="Path_1149" data-name="Path 1149" d="M194.282,62.806h-3.61l-7.829-11V44.6s-5.583-.343-4.922,9.09-.051,7.023-.051,7.023-11.843.051-12.863,1.081c-.72.746-1.038,12.512-1.166,18.866a6.912,6.912,0,0,0,4.9,6.955,4.982,4.982,0,0,0,1.243.206c2.95,0,18.009-2.4,18.009-2.4h6.234Z" transform="translate(-63.343 -44.598)" fill="#f5f5f5"/>
      <path id="Path_1150" data-name="Path 1150" d="M209.994,63.52,207.773,88.2H201.59V64.017Z" transform="translate(-68.722 -47.293)" fill="#f5f5f5"/>
    </g>
    <g id="freepik--Icons--inject-37" transform="translate(244.302 47.507)">
      <path id="Path_1151" data-name="Path 1151" d="M513.912,65.476c-.926-7.512-7.281-14.518-14.853-14.518-4.468,0-8.713,2.333-11.766,5.591A31.375,31.375,0,0,0,484.3,60.09a30.577,30.577,0,0,0-2.23-4.056c-2.35-3.8-6.054-6.929-10.436-7.8-7.418-1.484-15.024,4.125-17.417,11.311s-.4,15.239,3.533,21.7,10.7,14.913,23.154,19.106c8.576-1.106,20.118-8.73,25.246-14.3S514.813,72.979,513.912,65.476Z" transform="translate(-303.434 -47.991)" fill="#6d6bd9"/>
      <path id="Path_1152" data-name="Path 1152" d="M511.32,81.674a1.106,1.106,0,0,1-.249,0l-.729-.051-2.8-.232-10.291-.943.189-.111c-1.243,3.233-2.693,7.023-4.288,11.148l-.257.669-.172-.7c-1.312-5.42-2.77-11.5-4.288-17.906-.472-1.981-.943-3.936-1.4-5.84l.437.086L479.616,78.6l-.077.1h-.129l-18.077-1.887-5.145-.566-1.355-.172a1.827,1.827,0,0,1-.463-.086,2.444,2.444,0,0,1,.472,0l1.355.094,5.145.446,18.094,1.715-.2.086,7.821-10.822.309-.437.12.523c.463,1.9.926,3.85,1.406,5.84l4.288,17.914h-.429c1.621-4.142,3.1-7.924,4.374-11.148l.043-.129h.137l10.291,1.1,2.787.326.729.094a.858.858,0,0,1,.206.086Z" transform="translate(-303.603 -50.708)" fill="#fafafa"/>
      <rect id="Rectangle_75" data-name="Rectangle 75" width="5.66" height="25.375" transform="translate(18.592 64.367)" fill="#6d6bd9"/>
      <rect id="Rectangle_76" data-name="Rectangle 76" width="5.66" height="25.375" transform="translate(8.73 79.881) rotate(-90)" fill="#6d6bd9"/>
      <path id="Path_1153" data-name="Path 1153" d="M321.052,134.379a2.868,2.868,0,0,1-.043-.343c0-.249-.043-.583-.069-1a3.769,3.769,0,0,0-.051-.737c-.051-.266-.086-.566-.137-.858a15.151,15.151,0,0,0-.446-2.178,20.151,20.151,0,0,0-2.35-5.591,20.95,20.95,0,0,0-25.186-8.944,21.361,21.361,0,0,0-2.736,1.2,22.1,22.1,0,0,0-2.573,1.655,23.827,23.827,0,0,0-2.375,2.015,24.321,24.321,0,0,0-2.05,2.427,20.461,20.461,0,0,0-2.993,5.763,20.744,20.744,0,0,0,0,13.215,20.34,20.34,0,0,0,2.993,5.763,22.518,22.518,0,0,0,2.05,2.427,22.821,22.821,0,0,0,2.375,2.024,22.1,22.1,0,0,0,2.573,1.655,22.627,22.627,0,0,0,2.736,1.2,21.019,21.019,0,0,0,25.186-8.936,20.085,20.085,0,0,0,2.35-5.6,14.827,14.827,0,0,0,.446-2.17c.051-.326.111-.617.137-.858a6.786,6.786,0,0,1,.051-.737c0-.429.051-.755.069-1a2.573,2.573,0,0,1,.043-.343,2.044,2.044,0,0,1,0,.343v1.749a7.834,7.834,0,0,1-.112.858,15.815,15.815,0,0,1-.412,2.2,20.186,20.186,0,0,1-2.307,5.686,21.31,21.31,0,0,1-25.564,9.184,20.756,20.756,0,0,1-7.838-4.957,23.22,23.22,0,0,1-2.092-2.47,20.478,20.478,0,0,1-3.061-5.891,22.75,22.75,0,0,1-1.106-6.749,23.016,23.016,0,0,1,1.106-6.74,20.649,20.649,0,0,1,3.061-5.883,24.207,24.207,0,0,1,2.092-2.478,24.759,24.759,0,0,1,2.427-2.05,21.183,21.183,0,0,1,30.889,6.294,20.247,20.247,0,0,1,2.307,5.677,16.164,16.164,0,0,1,.412,2.2c0,.317.094.617.112.858V134a2.122,2.122,0,0,1,.086.377Z" transform="translate(-278.56 -57.259)" fill="#6d6bd9"/>
    </g>
    <g id="freepik--character-3--inject-37" transform="translate(401.028 101.992)">
      <path id="Path_1154" data-name="Path 1154" d="M608.245,326.88s25.092-6,25.924-7.04l-20.641-53.168a38.89,38.89,0,0,0-24.072-23.463,68.2,68.2,0,0,0-24.372-3.765L530.242,237.6a69.007,69.007,0,0,0-27.493,7.606,55.475,55.475,0,0,0-25.8,28.445L461.32,312.679l39.448,8.241,1.5,41.934-5.943,57.859H605.115l-.755-91.707h0Z" transform="translate(-461.32 -129.485)" fill="#6d6bd9"/>
      <g id="Group_1212" data-name="Group 1212" transform="translate(139.301 183.403)" opacity="0.3">
        <path id="Path_1155" data-name="Path 1155" d="M653.011,325.4c0,.12-6.475,2.247-14.578,4.742s-14.638,4.434-14.673,4.288,6.466-2.247,14.578-4.751S652.977,325.279,653.011,325.4Z" transform="translate(-623.76 -325.394)" fill="#fff"/>
      </g>
      <path id="Path_1156" data-name="Path 1156" d="M521.46,278.886a5.8,5.8,0,0,1-.669-.918c-.394-.6-1-1.458-1.792-2.487a41.439,41.439,0,0,0-2.959-3.43,45.439,45.439,0,0,0-4.082-3.773,47.63,47.63,0,0,0-4.554-3.207,43.844,43.844,0,0,0-4-2.152c-1.166-.557-2.135-.969-2.813-1.235a4.906,4.906,0,0,1-1.038-.463,6.592,6.592,0,0,1,1.1.3,30.564,30.564,0,0,1,2.881,1.106,39.736,39.736,0,0,1,4.091,2.092,43.868,43.868,0,0,1,4.614,3.207,41.845,41.845,0,0,1,4.108,3.842,38.276,38.276,0,0,1,2.907,3.55,27.156,27.156,0,0,1,1.715,2.573,5.141,5.141,0,0,1,.5.995Z" transform="translate(-466.766 -132.849)" fill="#263238"/>
      <path id="Path_1157" data-name="Path 1157" d="M518.133,296.62c.12,0-1.1,12.812-2.718,28.591s-3.036,28.565-3.156,28.548,1.089-12.812,2.718-28.591S518.039,296.6,518.133,296.62Z" transform="translate(-468.575 -137.892)" fill="#263238"/>
      <path id="Path_1158" data-name="Path 1158" d="M617.993,266.19a24.348,24.348,0,0,1-.557-2.573,48.3,48.3,0,0,0-1.715-6.14,47.474,47.474,0,0,0-2.573-5.848,24.773,24.773,0,0,1-1.218-2.358,4.1,4.1,0,0,1,.455.557c.266.377.626.943,1.046,1.646a36.453,36.453,0,0,1,2.71,5.848,35.631,35.631,0,0,1,1.621,6.234c.129.815.206,1.475.24,1.938A2.5,2.5,0,0,1,617.993,266.19Z" transform="translate(-482.774 -131.147)" fill="#263238"/>
      <path id="Path_1159" data-name="Path 1159" d="M621.319,315.787a7.621,7.621,0,0,1-.206-1.261c-.111-.806-.24-1.99-.386-3.43-.283-2.916-.583-6.963-.737-11.431s-.146-8.533-.069-11.466c.043-1.466.086-2.65.137-3.43a6.331,6.331,0,0,1,.129-1.269,8.26,8.26,0,0,1,.052,1.269v3.447c0,2.924.043,6.972.2,11.44s.4,8.5.609,11.423c.094,1.4.172,2.573.24,3.43A6.574,6.574,0,0,1,621.319,315.787Z" transform="translate(-483.904 -136.023)" fill="#263238"/>
      <path id="Path_1160" data-name="Path 1160" d="M555.562,312.335a178.784,178.784,0,0,1-27.442-.515V315.4h27.442Z" transform="translate(-470.835 -140.057)" fill="#fff"/>
      <g id="Group_1213" data-name="Group 1213" transform="translate(51.505 111.486)" opacity="0.3">
        <path id="Path_1161" data-name="Path 1161" d="M581.94,243.031a2.347,2.347,0,0,1,.112.54l.24,1.578c.172,1.389.412,3.43.609,6,.412,5.145.772,12.477.858,21.13v.326l-.3-.137c-5.471-2.667-11.6-5.566-18.009-8.756l-31.189-15.607-9.433-4.777-2.573-1.312-.652-.36a.952.952,0,0,1-.223-.129.935.935,0,0,1,.24.094l.677.309,2.573,1.243,9.484,4.648,31.292,15.487c6.38,3.19,12.5,6.1,18.009,8.781l-.292.18c-.094-8.636-.395-15.959-.738-21.113-.154-2.573-.36-4.605-.489-6-.077-.669-.137-1.2-.18-1.586a5.214,5.214,0,0,1-.017-.54Z" transform="translate(-521.38 -241.53)" fill="#fff"/>
      </g>
      <g id="Group_1214" data-name="Group 1214" transform="translate(2.616 176.438)" opacity="0.3">
        <path id="Path_1162" data-name="Path 1162" d="M508.26,327.9a1.554,1.554,0,0,1-.455-.077l-1.278-.3-4.691-1.192c-3.962-1.02-9.433-2.4-15.487-3.868s-11.56-2.736-15.547-3.645l-4.717-1.081-1.278-.309a2.152,2.152,0,0,1-.437-.137,1.664,1.664,0,0,1,.454,0l1.295.232c1.123.206,2.744.532,4.751.943,4,.858,9.519,2.05,15.582,3.516s11.526,2.907,15.436,4c1.972.549,3.567,1,4.656,1.329l1.261.386A2.268,2.268,0,0,1,508.26,327.9Z" transform="translate(-464.37 -317.272)" fill="#fff"/>
      </g>
      <path id="Path_1163" data-name="Path 1163" d="M586.37,235.709c0-.129,2.358,1.106,4.631,4.476a41.317,41.317,0,0,1,5.514,14.578,59.966,59.966,0,0,1,1,8.576c0,1.321.06,2.573,0,3.747s-.077,2.264-.18,3.259-.206,1.878-.292,2.676-.24,1.449-.334,2a6.091,6.091,0,0,1-.412,1.715,6.535,6.535,0,0,1,.069-1.715l.18-2.007c.051-.8.1-1.715.154-2.667s0-2.067.077-3.224-.06-2.4-.1-3.7a66.92,66.92,0,0,0-1.055-8.4,45.744,45.744,0,0,0-5.145-14.381A19.724,19.724,0,0,0,587.622,237a16.586,16.586,0,0,1-1.252-1.295Z" transform="translate(-479.133 -129.214)" fill="#263238"/>
      <path id="Path_1164" data-name="Path 1164" d="M538.963,236a18.521,18.521,0,0,1-1.809,2.573,36.746,36.746,0,0,0-4.039,7.547,51.362,51.362,0,0,0-2.993,12.323c-.626,4.751-.858,10.068-1.243,15.633s-.3,10.865-.309,15.693,0,9.184,0,12.863-.094,6.629-.2,8.678a14.674,14.674,0,0,1-.317,3.173,14.942,14.942,0,0,1-.206-3.182c-.06-2.084-.129-5.034-.223-8.661s-.214-8.01-.283-12.863-.086-10.171.206-15.779.652-10.9,1.355-15.728a49.185,49.185,0,0,1,3.344-12.52,31.431,31.431,0,0,1,4.5-7.486A11.637,11.637,0,0,1,538.963,236Z" transform="translate(-470.719 -129.257)" fill="#263238"/>
      <path id="Path_1165" data-name="Path 1165" d="M604.495,314.321a16.3,16.3,0,0,1-.171-2.83c-.052-1.827-.094-4.468-.129-7.718,0-1.638,0-3.43-.051-5.334s0-3.979-.111-6.089a10.076,10.076,0,0,0-2.187-6,8.267,8.267,0,0,0-6-2.864,9.433,9.433,0,0,0-6.32,2.453,10.891,10.891,0,0,0-3.19,5.566c-.532,2.041-.755,4.091-1.072,6l-.858,5.265c-.515,3.216-.952,5.823-1.269,7.615a17.253,17.253,0,0,1-.583,2.778,16.022,16.022,0,0,1,.24-2.83c.214-1.809.549-4.425.986-7.658.223-1.621.472-3.387.729-5.283a55.053,55.053,0,0,1,1.012-6.08,11.576,11.576,0,0,1,3.43-6,10.291,10.291,0,0,1,6.852-2.71,9.09,9.09,0,0,1,6.689,3.181,10.805,10.805,0,0,1,2.35,6.5c.129,2.2,0,4.228,0,6.149s-.043,3.7-.069,5.334c0,3.259-.094,5.9-.154,7.718a17.436,17.436,0,0,1-.12,2.838Z" transform="translate(-478.589 -135.895)" fill="#263238"/>
      <path id="Path_1166" data-name="Path 1166" d="M597.937,273.87c-.283,3-1.243,6.372-3.327,8.576a12.058,12.058,0,0,1,5.531.1c-1.3-2.573-1.509-5.746-1.475-8.653" transform="translate(-480.307 -134.651)" fill="#263238"/>
      <path id="Path_1167" data-name="Path 1167" d="M605.11,295.054a26.262,26.262,0,0,0-1.355-3.43,10.667,10.667,0,0,0-2.5-2.984,9.262,9.262,0,0,0-4.219-2.007,9,9,0,0,0-4.648.463,10.146,10.146,0,0,0-3.319,2.007,25.472,25.472,0,0,0-2.358,2.8c-.146-.077.257-1.518,1.921-3.259a9.982,9.982,0,0,1,3.43-2.315,9.433,9.433,0,0,1,5.094-.583,9.6,9.6,0,0,1,4.6,2.264,10.238,10.238,0,0,1,2.521,3.319C605.333,293.528,605.187,295.063,605.11,295.054Z" transform="translate(-479.178 -136.326)" fill="#263238"/>
      <path id="Path_1168" data-name="Path 1168" d="M632.946,399.423c5.145,0,9.673-3.679,12.074-8.181s3.019-9.742,3.25-14.844a120.5,120.5,0,0,0-4.905-40.048L621,340.252l6.1,60.277Z" transform="translate(-484.066 -143.551)" fill="#ffbe9d"/>
      <path id="Path_1169" data-name="Path 1169" d="M529.37,404.025l72.875-2.65,17.674-85.4-76.76,4.262Z" transform="translate(-471.013 -140.65)" fill="#263238"/>
      <path id="Path_1170" data-name="Path 1170" d="M573.11,318.105l1.1-2.178,5.814-.42s1.475-3.816,9.793-4.211c7.444-.343,7.718,3.43,7.718,3.43h4.013v1.827Z" transform="translate(-477.244 -139.979)" fill="#455a64"/>
      <path id="Path_1171" data-name="Path 1171" d="M616.908,386.248l5.523-1.6a6.74,6.74,0,0,1,3.2-.146h0a6.74,6.74,0,0,1,3.43,1.809c1.827,1.8,4.777,4.777,5.2,5.668.617,1.295.617,3.542,0,4.365s1.355,5.085,1.106,6.5a8.849,8.849,0,0,1-1.106,3.43c-.5.592,0,2.616-1.235,4.142a20.458,20.458,0,0,1-2.341,2.47s-15.179.712-16.654,0a22.223,22.223,0,0,1-4.073-3.43s-1.355-2.478.737-2.718l-8.636-3.3a2.058,2.058,0,0,1-1.252-2.573,1.441,1.441,0,0,1,.763-.858s-3.876-1.226-4.777-1.621c-1.792-.789-2.47-4.957,1.243-4.425,1.955.283,4.605.858,4.605.858s-1.415-2.3.566-3.67c1.2-.858,6.6.18,6.6.18l7.1-5.068Z" transform="translate(-480.411 -150.392)" fill="#ffbe9d"/>
      <path id="Path_1172" data-name="Path 1172" d="M621.3,412.7a12.769,12.769,0,0,1-4.485-.669,11.148,11.148,0,0,1-4.133-1.87c.06-.1,1.869.78,4.288,1.441S621.316,412.594,621.3,412.7Z" transform="translate(-482.881 -154.064)" fill="#eb996e"/>
      <path id="Path_1173" data-name="Path 1173" d="M616.56,406.237a58.539,58.539,0,0,1-7.041-1.569,56.463,56.463,0,0,1-6.929-2,117.426,117.426,0,0,1,13.969,3.567Z" transform="translate(-481.443 -152.998)" fill="#eb996e"/>
      <path id="Path_1174" data-name="Path 1174" d="M618.5,399.985a133.209,133.209,0,0,1-15.059-3.525,133.207,133.207,0,0,1,15.059,3.525Z" transform="translate(-481.564 -152.114)" fill="#eb996e"/>
      <path id="Path_1175" data-name="Path 1175" d="M625.267,392.51a9.932,9.932,0,0,1-1.947.626l-2.144.549-1.269.317a4.847,4.847,0,0,1-1.458.137,8.089,8.089,0,0,1-1.424-.232l-1.278-.292L613.6,393.1a9.432,9.432,0,0,1-1.964-.592,9.2,9.2,0,0,1,2.024.283l2.178.42a25.725,25.725,0,0,0,2.633.48,9.622,9.622,0,0,0,2.573-.4l2.17-.463a9.537,9.537,0,0,1,2.05-.317Z" transform="translate(-482.732 -151.551)" fill="#eb996e"/>
      <path id="Path_1176" data-name="Path 1176" d="M628.46,395.9c.051,0,.257.154.42.566a2.513,2.513,0,0,1,.06,1.715,2.573,2.573,0,0,1-1.012,1.364c-.369.24-.643.274-.669.223a4.335,4.335,0,0,0,1.252-1.715A4.769,4.769,0,0,0,628.46,395.9Z" transform="translate(-484.957 -152.034)" fill="#eb996e"/>
      <path id="Path_1177" data-name="Path 1177" d="M628.269,402.739c.1-.051.446.557.395,1.389s-.446,1.406-.549,1.338.069-.635.1-1.363S628.14,402.782,628.269,402.739Z" transform="translate(-485.075 -153.008)" fill="#eb996e"/>
      <path id="Path_1178" data-name="Path 1178" d="M628.339,410.159c.111-.043.343.369.232.909s-.472.858-.566.746.051-.412.129-.858S628.219,410.194,628.339,410.159Z" transform="translate(-485.059 -154.065)" fill="#eb996e"/>
      <path id="Path_1179" data-name="Path 1179" d="M628.8,391.962a4.682,4.682,0,0,1-1.458-.069l-1.561-.206a6.088,6.088,0,0,0-1.861-.094,4.64,4.64,0,0,0-1.647.746c-.48.317-.858.677-1.295.909a2.462,2.462,0,0,1-1.4.48c0-.077.523-.223,1.226-.746a7.469,7.469,0,0,1,3.053-1.827,5.366,5.366,0,0,1,1.046,0,5.065,5.065,0,0,1,.935.154l1.552.292a5.145,5.145,0,0,1,1.406.36Z" transform="translate(-483.863 -151.354)" fill="#eb996e"/>
      <path id="Path_1180" data-name="Path 1180" d="M638.661,406.532a7.463,7.463,0,0,1,.386-1.055,7.444,7.444,0,0,0,.283-5.145c-.172-.755-.523-1.509-.712-2.41a7.557,7.557,0,0,1,.189-2.8,4.974,4.974,0,0,0-.5-2.753,12.865,12.865,0,0,0-1.578-2.444c-.592-.746-1.166-1.475-1.715-2.127a10.171,10.171,0,0,0-3.593-2.8,5.779,5.779,0,0,0-3.019-.463c-.72.1-1.1.292-1.115.257s.086-.069.266-.163a4.213,4.213,0,0,1,.858-.266,5.788,5.788,0,0,1,3.164.334,10.2,10.2,0,0,1,3.773,2.83c.6.66,1.183,1.381,1.784,2.127a13.5,13.5,0,0,1,1.638,2.573,5.324,5.324,0,0,1,.523,3,7.715,7.715,0,0,0-.214,2.667c.163.858.506,1.621.669,2.393a8.575,8.575,0,0,1,.283,2.2,7.856,7.856,0,0,1-.763,3.087,4.286,4.286,0,0,1-.609.961Z" transform="translate(-484.961 -150.377)" fill="#eb996e"/>
      <path id="Path_1181" data-name="Path 1181" d="M565.24,356.323l-59.832,9.5,2.658-31.224-33.273-6.432L470.746,374.4l-.7,10.6a20.71,20.71,0,0,0,8.687,18.249h0a20.727,20.727,0,0,0,18.369,2.813l12.863-4.193,62.7-22.3" transform="translate(-462.556 -142.386)" fill="#ffbe9d"/>
      <path id="Path_1182" data-name="Path 1182" d="M617.265,353.138a1.715,1.715,0,0,0-1.715-2c-3.37,0-12.477,0-15.693.952-3.979,1.123-18.806,7.486-18.806,7.486l6.286,23.154,22.751.24s8.31-3.816,8.413-5.471a26.636,26.636,0,0,0-.206-3.1l2.513-1.346c3.739-2.367,1.338-6.92,1.338-6.92s2.573-1.441,2.71-4.048a4.048,4.048,0,0,0-2.007-3.833s1.029-3.67-.858-4.656-5.145.274-5.145.274a1.329,1.329,0,0,0,.42-.737Z" transform="translate(-478.375 -145.658)" fill="#ffbe9d"/>
      <path id="Path_1183" data-name="Path 1183" d="M621.77,353.909a2.35,2.35,0,0,1-.7.249c-.455.129-1.132.274-1.964.42-1.715.3-4,.549-6.56.858a53.153,53.153,0,0,0-6.5.995,12.087,12.087,0,0,0-2.573.858,2.435,2.435,0,0,1,.626-.4,11.035,11.035,0,0,1,1.887-.729,40.168,40.168,0,0,1,6.526-1.132c2.573-.274,4.9-.472,6.56-.686S621.745,353.849,621.77,353.909Z" transform="translate(-481.569 -146.051)" fill="#eb996e"/>
      <path id="Path_1184" data-name="Path 1184" d="M627.839,359.33a5.471,5.471,0,0,1-1.6.815,25.507,25.507,0,0,1-4.142,1.209c-1.655.343-3.156.566-4.288.712a7.373,7.373,0,0,1-1.775.137,53.592,53.592,0,0,1,5.934-1.286,42.562,42.562,0,0,0,4.133-1.063A10.194,10.194,0,0,1,627.839,359.33Z" transform="translate(-483.358 -146.825)" fill="#eb996e"/>
      <path id="Path_1185" data-name="Path 1185" d="M627.342,368.728a24.67,24.67,0,0,1-9.982,2.264c0-.137,2.264-.42,5.008-1.046S627.342,368.6,627.342,368.728Z" transform="translate(-483.547 -148.161)" fill="#eb996e"/>
      <path id="Path_1186" data-name="Path 1186" d="M626.138,376.75a17.151,17.151,0,0,1-7.718,1.861q3.865-.906,7.718-1.861Z" transform="translate(-483.698 -149.306)" fill="#eb996e"/>
      <path id="Path_1187" data-name="Path 1187" d="M613,371.6c0,.051-.232.2-.695.24a2.573,2.573,0,0,1-1.715-.472,2.633,2.633,0,0,1-1.021-1.466c-.111-.455-.051-.737,0-.737A3.717,3.717,0,0,0,610.839,371,4.717,4.717,0,0,0,613,371.6Z" transform="translate(-482.429 -148.225)" fill="#eb996e"/>
      <path id="Path_1188" data-name="Path 1188" d="M612.593,379.988c0,.12-.858.172-1.672-.523s-.858-1.6-.712-1.6.352.686,1.012,1.261S612.593,379.859,612.593,379.988Z" transform="translate(-482.519 -149.466)" fill="#eb996e"/>
      <path id="Path_1189" data-name="Path 1189" d="M609.723,363.109c.051.12-.575.317-1.158-.129s-.566-1.1-.437-1.081.274.42.7.729S609.663,362.989,609.723,363.109Z" transform="translate(-482.222 -147.191)" fill="#eb996e"/>
      <path id="Path_1190" data-name="Path 1190" d="M581.06,359.567l.18-.1.54-.249,2.11-.935c1.852-.8,4.536-1.955,7.941-3.353,1.715-.686,3.567-1.449,5.625-2.212a21.3,21.3,0,0,1,3.259-1.012,34.473,34.473,0,0,1,3.619-.446c2.487-.2,5.145-.283,7.872-.317h3.147a2.256,2.256,0,0,1,1.132.24,1.818,1.818,0,0,1,.969,2.067.634.634,0,0,1-.257.292l-.257.163-.515.24a8.446,8.446,0,0,1-1.08.377.223.223,0,0,1-.266-.154.214.214,0,0,1,.154-.266,23.381,23.381,0,0,1,2.83-.635,10.292,10.292,0,0,1,3-.1,2.761,2.761,0,0,1,1.475.635,2.693,2.693,0,0,1,.729,1.449,7.562,7.562,0,0,1-.2,3.13l-.111-.266a4.21,4.21,0,0,1,1.261,1.115,4.468,4.468,0,0,1,.652,4.056,6,6,0,0,1-2.573,3.113l.086-.3a7.092,7.092,0,0,1,.72,3.962,4.554,4.554,0,0,1-2.144,3.242h0l-2.5,1.346.112-.214c.06.6.12,1.2.163,1.792a5.581,5.581,0,0,0,.043.858v.454a1.182,1.182,0,0,1-.18.489,5.485,5.485,0,0,1-1.295,1.235c-.463.343-.943.652-1.415.943a62.068,62.068,0,0,1-5.651,2.959h-.077L593.6,382.9l-4.579-.094-1.2-.043a1.888,1.888,0,0,1-.412,0,2.132,2.132,0,0,1,.412,0h5.78l16.559.094h-.077a60.44,60.44,0,0,0,5.6-2.967c.463-.283.935-.592,1.381-.926a4.938,4.938,0,0,0,1.183-1.123.736.736,0,0,0,.129-.3v-1.278c-.043-.583-.1-1.175-.172-1.767a.2.2,0,0,1,.111-.206l2.5-1.355h0a4.125,4.125,0,0,0,1.947-2.941,6.731,6.731,0,0,0-.686-3.7.223.223,0,0,1,.094-.292,5.591,5.591,0,0,0,2.4-2.864,4.039,4.039,0,0,0-.592-3.653,3.7,3.7,0,0,0-1.106-.978.231.231,0,0,1-.111-.257,7.22,7.22,0,0,0,.189-2.924,1.938,1.938,0,0,0-1.835-1.715,9.743,9.743,0,0,0-2.864.1,21.351,21.351,0,0,0-2.778.609l-.112-.42a7.392,7.392,0,0,0,1.012-.343c.163-.069.334-.146.48-.223s.3-.232.352-.214a1.826,1.826,0,0,0-.137-.9,1.579,1.579,0,0,0-.66-.66,1.784,1.784,0,0,0-.935-.189h-3.139c-2.744,0-5.377.1-7.855.283a35.507,35.507,0,0,0-3.576.42,22.291,22.291,0,0,0-3.216.978c-2.05.746-3.928,1.492-5.634,2.161l-7.984,3.233-2.135.858-.557.223Z" transform="translate(-478.376 -145.629)" fill="#eb996e"/>
      <path id="Path_1191" data-name="Path 1191" d="M510.346,372a23.626,23.626,0,0,0-4.416,3.816,23.266,23.266,0,0,0-2.95,5.042,4.834,4.834,0,0,1,.446-1.715,13.48,13.48,0,0,1,5.343-6.423A4.964,4.964,0,0,1,510.346,372Z" transform="translate(-467.254 -148.629)" fill="#eb996e"/>
      <path id="Path_1192" data-name="Path 1192" d="M593.4,151.623a30.22,30.22,0,0,0-30.066-27.853h-1.569c-16.877.952-25.5,15.813-24.08,32.664l2.907,67.532a3.062,3.062,0,0,0,1.715,2.624l37.887,17.777-1.1-35.443s16.234-2.487,16.465-18.712C595.63,182.384,594.532,166.228,593.4,151.623Z" transform="translate(-472.176 -113.27)" fill="#ffbe9d"/>
      <path id="Path_1193" data-name="Path 1193" d="M582.582,221.96a39.293,39.293,0,0,1-21.242-6.26s4.974,11.68,21.164,10.291Z" transform="translate(-475.567 -126.365)" fill="#eb996e"/>
      <path id="Path_1194" data-name="Path 1194" d="M595.232,167.651a2.324,2.324,0,0,1-2.238,2.333,2.2,2.2,0,0,1-2.384-2.092,2.307,2.307,0,0,1,2.23-2.333,2.221,2.221,0,0,1,2.393,2.092Z" transform="translate(-479.737 -119.222)" fill="#263238"/>
      <path id="Path_1195" data-name="Path 1195" d="M597.079,165.094c-.292.3-2.041-1-4.536-1s-4.288,1.252-4.588.943c-.137-.137.154-.677.952-1.261a6.389,6.389,0,0,1,3.679-1.123,6.071,6.071,0,0,1,3.61,1.175C596.959,164.408,597.216,164.957,597.079,165.094Z" transform="translate(-479.354 -118.808)" fill="#263238"/>
      <path id="Path_1196" data-name="Path 1196" d="M566.632,168.531a2.307,2.307,0,0,1-2.238,2.333,2.212,2.212,0,0,1-2.384-2.092,2.315,2.315,0,0,1,2.238-2.333,2.212,2.212,0,0,1,2.384,2.092Z" transform="translate(-475.663 -119.347)" fill="#263238"/>
      <path id="Path_1197" data-name="Path 1197" d="M568.479,165.594c-.283.3-2.041-.995-4.528-.995s-4.288,1.243-4.6.935c-.129-.137.163-.677.961-1.252a6.328,6.328,0,0,1,3.679-1.132,6.14,6.14,0,0,1,3.6,1.175C568.377,164.9,568.642,165.448,568.479,165.594Z" transform="translate(-475.281 -118.88)" fill="#263238"/>
      <path id="Path_1198" data-name="Path 1198" d="M580.343,184.11a17.027,17.027,0,0,1,4.048-.72c.635-.069,1.243-.189,1.346-.626a3.207,3.207,0,0,0-.42-1.887l-1.869-4.854c-2.573-6.86-4.485-12.58-4.2-12.683s2.573,5.411,5.214,12.323l1.792,4.879a3.671,3.671,0,0,1,.326,2.5,1.587,1.587,0,0,1-1.055.926,4.426,4.426,0,0,1-1.081.154C581.921,184.247,580.352,184.255,580.343,184.11Z" transform="translate(-478.114 -118.906)" fill="#263238"/>
      <path id="Path_1199" data-name="Path 1199" d="M571.931,189.56c.4,0,.4,2.676,2.718,4.605s5.188,1.629,5.214,2.007c0,.172-.643.532-1.861.557a6.732,6.732,0,0,1-4.356-1.526,5.865,5.865,0,0,1-2.1-3.859C571.416,190.212,571.716,189.543,571.931,189.56Z" transform="translate(-477.017 -122.642)" fill="#263238"/>
      <path id="Path_1200" data-name="Path 1200" d="M568.909,154.277c-.249.677-2.736.352-5.66.7s-5.291,1.141-5.686.532c-.172-.292.24-.935,1.2-1.586a9.536,9.536,0,0,1,4.211-1.466,9.433,9.433,0,0,1,4.425.532C568.472,153.428,569.012,153.96,568.909,154.277Z" transform="translate(-475.024 -117.347)" fill="#263238"/>
      <path id="Path_1201" data-name="Path 1201" d="M596.14,156.659c-.446.557-2.161,0-4.228-.06s-3.808.369-4.211-.223c-.18-.283.1-.858.858-1.389a6.123,6.123,0,0,1,6.792.223C596.088,155.793,596.328,156.376,596.14,156.659Z" transform="translate(-479.315 -117.586)" fill="#263238"/>
      <path id="Path_1202" data-name="Path 1202" d="M538.744,175.774c-.274-.12-11.148-3.319-10.805,7.778s11.4,8.464,11.405,8.147S538.744,175.774,538.744,175.774Z" transform="translate(-470.808 -120.604)" fill="#ffbe9d"/>
      <path id="Path_1203" data-name="Path 1203" d="M537.436,188.2c-.051,0-.189.137-.515.3a1.938,1.938,0,0,1-1.441.077c-1.183-.4-2.23-2.23-2.341-4.228a6.475,6.475,0,0,1,.455-2.778,2.229,2.229,0,0,1,1.415-1.526,1,1,0,0,1,1.158.489c.154.309.094.532.146.549s.24-.189.137-.643a1.3,1.3,0,0,0-.463-.686,1.449,1.449,0,0,0-1.072-.249,2.718,2.718,0,0,0-1.972,1.775,6.56,6.56,0,0,0-.575,3.113c.137,2.238,1.346,4.288,2.959,4.708a2.058,2.058,0,0,0,1.715-.352C537.419,188.5,537.47,188.22,537.436,188.2Z" transform="translate(-471.439 -121.207)" fill="#eb996e"/>
      <path id="Path_1204" data-name="Path 1204" d="M546.627,135.032l46.239,1.02a21.079,21.079,0,0,0-6.792-7.855,36.077,36.077,0,0,0-20.941-7.538c-7.538-.137-22.9,9.056-28.359,14.253-4.374,4.159-4.339,7.761-4.339,7.761-.695,6,2.658,12.812,4,18.7.686,3.036,2.015,12.22,2.015,12.22h0c2.573,0,3.49-2.032,3.1-4.554l-.472-9.888s8.661-6.157,4.554-17.425C545,140.829,543.591,136.713,546.627,135.032Z" transform="translate(-471.437 -112.827)" fill="#263238"/>
      <path id="Path_1205" data-name="Path 1205" d="M560.29,178.216a.283.283,0,0,1-.292-.274.292.292,0,0,1,.206-.352.3.3,0,0,1,.334.249.292.292,0,0,1-.249.377Z" transform="translate(-475.375 -120.936)" fill="#eb996e"/>
      <path id="Path_1206" data-name="Path 1206" d="M565.841,176.957a.344.344,0,0,1-.343-.283.326.326,0,0,1,.206-.395.317.317,0,0,1,.334.292.309.309,0,0,1-.2.386Z" transform="translate(-476.158 -120.75)" fill="#eb996e"/>
      <path id="Path_1207" data-name="Path 1207" d="M569.583,176.852c-.154,0-.3-.163-.334-.412s.069-.463.223-.48.292.163.326.412S569.729,176.852,569.583,176.852Z" transform="translate(-476.693 -120.704)" fill="#eb996e"/>
      <path id="Path_1208" data-name="Path 1208" d="M563.014,181.752c-.146,0-.274-.077-.274-.172s.129-.18.274-.18.274.086.274.18S563.169,181.752,563.014,181.752Z" transform="translate(-475.767 -121.479)" fill="#eb996e"/>
      <path id="Path_1209" data-name="Path 1209" d="M568.1,180.537a.31.31,0,1,1-.051-.617.292.292,0,0,1,.3.283.3.3,0,0,1-.249.334Z" transform="translate(-476.483 -121.268)" fill="#eb996e"/>
      <path id="Path_1210" data-name="Path 1210" d="M594.614,177.428a.283.283,0,0,1-.326-.249.278.278,0,1,1,.54-.111.292.292,0,0,1-.214.36Z" transform="translate(-480.26 -120.826)" fill="#eb996e"/>
      <path id="Path_1211" data-name="Path 1211" d="M598.383,177.076a.352.352,0,1,1,.24-.369.317.317,0,0,1-.24.369Z" transform="translate(-480.778 -120.766)" fill="#eb996e"/>
      <path id="Path_1212" data-name="Path 1212" d="M591.276,177.535a.266.266,0,0,1-.317-.18.276.276,0,0,1,.54-.111.266.266,0,0,1-.223.292Z" transform="translate(-479.786 -120.856)" fill="#eb996e"/>
      <path id="Path_1213" data-name="Path 1213" d="M594.046,181.311a.326.326,0,1,1,.12-.4A.3.3,0,0,1,594.046,181.311Z" transform="translate(-480.154 -121.381)" fill="#eb996e"/>
      <path id="Path_1214" data-name="Path 1214" d="M597.325,180.7a.257.257,0,0,1-.206-.292.283.283,0,0,1,.532.146.257.257,0,0,1-.326.146Z" transform="translate(-480.664 -121.316)" fill="#eb996e"/>
      <path id="Path_1215" data-name="Path 1215" d="M537.111,134.229a13.669,13.669,0,0,1,13.661-17c2.161.086,4.288.695,6.449.463,4-.437,7.092-3.645,10.805-5.205a14.1,14.1,0,0,1,16.628,4.991c1.406,2.1,2.324,4.7,4.485,6,1.861,1.141,4.211,1.046,6.3,1.715a10.281,10.281,0,0,1,6.912,10.188,12.109,12.109,0,0,1-7.384,10.188,14.819,14.819,0,0,1-12.778-.858c-3.49-1.947-6.612-5.257-10.608-5.145-4.133.12-7.718,4.013-11.8,3.207-2.127-.42-3.765-2.058-5.325-3.567s-3.344-3.044-5.514-3.173-3.293,2.847-2.513,4.871l-9.322-6.68" transform="translate(-472.057 -111.526)" fill="#263238"/>
      <path id="Path_1216" data-name="Path 1216" d="M593.519,130.667a1.412,1.412,0,0,1-.077.163,4.522,4.522,0,0,1-.266.446,7.718,7.718,0,0,1-1.329,1.509,8.293,8.293,0,0,1-2.753,1.6,7.872,7.872,0,0,1-4.193.249,8.344,8.344,0,0,1-4.425-2.521c-1.261-1.381-2.015-3.242-3.19-4.871a6.431,6.431,0,0,0-2.238-2.024,6.552,6.552,0,0,0-3.07-.677,6.972,6.972,0,0,0-3.147.858,5.908,5.908,0,0,0-2.315,2.384c-.557,1.021-.961,2.135-1.629,3.122a3.825,3.825,0,0,1-2.967,1.8,5.771,5.771,0,0,1-3.224-.926,12.186,12.186,0,0,1-2.453-2.032c-1.432-1.441-2.839-2.881-4.588-3.267a5.831,5.831,0,0,0-4.648,1.089,7.976,7.976,0,0,0-2.573,3.156,13.266,13.266,0,0,0-.96,2.976c-.172.858-.249,1.509-.3,1.964a5.2,5.2,0,0,1-.1.695.616.616,0,0,1,0-.18c0-.12,0-.292,0-.523a16.077,16.077,0,0,1,.232-1.99,12.663,12.663,0,0,1,.857-3.044,8.19,8.19,0,0,1,2.573-3.31,6.106,6.106,0,0,1,4.914-1.192c1.9.4,3.362,1.912,4.785,3.336a12.227,12.227,0,0,0,2.384,1.955,5.351,5.351,0,0,0,2.984.858,3.43,3.43,0,0,0,2.624-1.612c.626-.926,1.029-2.032,1.6-3.087a6.337,6.337,0,0,1,2.5-2.573,7.426,7.426,0,0,1,3.353-.9,7.006,7.006,0,0,1,3.276.737,6.859,6.859,0,0,1,2.375,2.161c1.209,1.715,1.93,3.533,3.13,4.871a8.044,8.044,0,0,0,4.219,2.453,7.564,7.564,0,0,0,4.048-.18,8.232,8.232,0,0,0,2.718-1.484A10.375,10.375,0,0,0,593.519,130.667Z" transform="translate(-472.964 -113.315)" fill="#455a64"/>
      <path id="Path_1217" data-name="Path 1217" d="M608.887,132a2.572,2.572,0,0,1,.189.858,7.2,7.2,0,0,1-.232,2.478,8.575,8.575,0,0,1-1.715,3.259,10.068,10.068,0,0,1-3.653,2.667,14.982,14.982,0,0,1-8.07.909,22.058,22.058,0,0,1-2.418-.48,2.967,2.967,0,0,1-.857-.292c0-.069,1.26.24,3.319.454a15.6,15.6,0,0,0,7.847-1,9.991,9.991,0,0,0,3.525-2.521,8.651,8.651,0,0,0,1.715-3.087,9.837,9.837,0,0,0,.352-3.242Z" transform="translate(-479.953 -114.442)" fill="#455a64"/>
      <path id="Path_1218" data-name="Path 1218" d="M519.64,337.881a9.27,9.27,0,0,0,1.938,4.8,6.256,6.256,0,0,0,4.631,2.461,7.066,7.066,0,0,0,6.234-3.13c1.981-3.139,2.461-9.682.858-13.549-1.089-2.658-3.542-5.145-6.414-5.205a7.094,7.094,0,0,0-6.946,5.4" transform="translate(-469.627 -141.686)" fill="#e0e0e0"/>
      <path id="Path_1219" data-name="Path 1219" d="M519.941,328.634a5.761,5.761,0,0,1,.7-1.852,7.418,7.418,0,0,1,1.415-1.861,6.525,6.525,0,0,1,2.667-1.561,6.759,6.759,0,0,1,1.792-.292,5.4,5.4,0,0,1,1.964.257,7.718,7.718,0,0,1,3.507,2.513,10.2,10.2,0,0,1,2.058,4.288,18.476,18.476,0,0,1,.386,5.085,14.049,14.049,0,0,1-2.2,7.4,6.585,6.585,0,0,1-2.847,2.144,7.633,7.633,0,0,1-3.216.54h0a4.871,4.871,0,0,1-2.315-.566,7.718,7.718,0,0,1-1.715-1.218,8.577,8.577,0,0,1-1.9-2.813,8.752,8.752,0,0,1-.6-2.084,4.485,4.485,0,0,1-.051-.566.446.446,0,0,1,0-.2,11.236,11.236,0,0,0,.858,2.761,8.852,8.852,0,0,0,1.9,2.684,7.583,7.583,0,0,0,1.715,1.132,4.545,4.545,0,0,0,2.144.506h0a6.86,6.86,0,0,0,5.7-2.573,13.9,13.9,0,0,0,2.084-7.169c.18-3.43-.386-6.809-2.315-9.09a7.5,7.5,0,0,0-3.3-2.418,5.308,5.308,0,0,0-1.844-.266,6.456,6.456,0,0,0-1.715.249,6.3,6.3,0,0,0-2.573,1.449,7.605,7.605,0,0,0-1.458,1.749A17.142,17.142,0,0,0,519.941,328.634Z" transform="translate(-469.62 -141.658)" fill="#263238"/>
      <path id="Path_1220" data-name="Path 1220" d="M517.3,338.081a9.3,9.3,0,0,0,1.938,4.8,6.256,6.256,0,0,0,4.631,2.461,7.066,7.066,0,0,0,6.234-3.13c1.972-3.147,2.461-9.682.858-13.549-1.089-2.667-3.533-5.145-6.406-5.205a7.092,7.092,0,0,0-6.946,5.394" transform="translate(-469.294 -141.715)" fill="#e0e0e0"/>
      <path id="Path_1221" data-name="Path 1221" d="M517.621,328.826a5.77,5.77,0,0,1,.7-1.844,7.219,7.219,0,0,1,1.415-1.861,6.586,6.586,0,0,1,4.459-1.852,5.4,5.4,0,0,1,1.964.257,7.667,7.667,0,0,1,3.507,2.513,10.2,10.2,0,0,1,2.058,4.288,18.145,18.145,0,0,1,.377,5.085,13.99,13.99,0,0,1-2.187,7.4,6.585,6.585,0,0,1-2.847,2.144,7.632,7.632,0,0,1-3.216.54h0a4.871,4.871,0,0,1-2.315-.575,7.238,7.238,0,0,1-1.715-1.209,8.526,8.526,0,0,1-1.9-2.821,8.214,8.214,0,0,1-.6-2.075,4.508,4.508,0,0,1-.051-.566.446.446,0,0,1,0-.2,11.242,11.242,0,0,0,.858,2.753,8.636,8.636,0,0,0,1.9,2.693,7.583,7.583,0,0,0,1.715,1.132,4.649,4.649,0,0,0,2.144.506h0a6.86,6.86,0,0,0,5.7-2.573,13.842,13.842,0,0,0,2.075-7.169c.189-3.43-.377-6.809-2.315-9.09a7.357,7.357,0,0,0-3.293-2.418,5.307,5.307,0,0,0-1.844-.266,6.579,6.579,0,0,0-1.715.249,6.321,6.321,0,0,0-2.573,1.449,7.608,7.608,0,0,0-1.441,1.758,18.874,18.874,0,0,0-.875,1.749Z" transform="translate(-469.289 -141.687)" fill="#263238"/>
      <path id="Path_1222" data-name="Path 1222" d="M520.687,328.624a4.408,4.408,0,0,0-4.605,2.65,7.649,7.649,0,0,0,0,5.6,7.084,7.084,0,0,0,1.432,2.521,3.807,3.807,0,0,0,2.573,1.243,4.459,4.459,0,0,0,3.567-2.092,8.01,8.01,0,0,0,1.209-6.577c-.395-1.492-1.484-3.01-3.019-3.053" transform="translate(-469.045 -142.446)" fill="#e0e0e0"/>
      <path id="Path_1223" data-name="Path 1223" d="M521.776,328.937h.334a2.333,2.333,0,0,1,.935.317,4.545,4.545,0,0,1,1.964,2.95,8.147,8.147,0,0,1-.532,5.248,6.86,6.86,0,0,1-1.921,2.521,3.73,3.73,0,0,1-3.31.8,4.682,4.682,0,0,1-2.65-2.161,9.682,9.682,0,0,1-1.1-2.967,6.594,6.594,0,0,1,.858-5.145,4.605,4.605,0,0,1,2.993-1.9,3.319,3.319,0,0,1,.978,0c.214.043.326.077.326.094a6.767,6.767,0,0,0-1.278.077,4.571,4.571,0,0,0-2.761,1.912,6.355,6.355,0,0,0-.712,4.914,9.433,9.433,0,0,0,1.072,2.821,4.236,4.236,0,0,0,2.393,1.955,3.267,3.267,0,0,0,2.916-.7,6.449,6.449,0,0,0,1.818-2.35,7.924,7.924,0,0,0,.6-5.008,4.536,4.536,0,0,0-1.715-2.873A3.619,3.619,0,0,0,521.776,328.937Z" transform="translate(-469.01 -142.441)" fill="#263238"/>
      <path id="Path_1224" data-name="Path 1224" d="M525.832,344.708c-.06,0-.154-.274-.455-.617a3.157,3.157,0,0,0-1.458-.935,7.941,7.941,0,0,0-1.8-.283c-.48,0-.78-.077-.789-.137s.292-.129.78-.18a5.025,5.025,0,0,1,1.938.171,2.8,2.8,0,0,1,1.586,1.183C525.909,344.356,525.884,344.7,525.832,344.708Z" transform="translate(-469.868 -144.431)" fill="#263238"/>
      <path id="Path_1225" data-name="Path 1225" d="M526.535,327.27a1.8,1.8,0,0,1-.532.617,4.126,4.126,0,0,1-1.809.789,4.22,4.22,0,0,1-1.964-.1c-.489-.163-.746-.352-.72-.4a10.144,10.144,0,0,0,2.573.069,10.71,10.71,0,0,0,2.453-.969Z" transform="translate(-469.894 -142.258)" fill="#263238"/>
    </g>
    <g id="freepik--character-1--inject-37" transform="translate(55.966 111.115)">
      <path id="Path_1226" data-name="Path 1226" d="M241.3,148.059c.1-3.739-3.344-6.62-6.86-7.992s-7.341-1.887-10.445-3.97c-2.744-1.852-4.588-4.734-6.912-7.083a23.008,23.008,0,0,0-38.693,10.556c-1.329,5.317-.42,11.6,3.773,15.144,4.871,4.1,12.083,3.19,18.317,1.912s13.3-2.573,18.506,1.123c3.139,2.212,4.94,5.806,6.86,9.133s4.288,6.715,7.958,7.967,8.576-.909,8.7-4.742" transform="translate(-75.874 -122.164)" fill="#263238"/>
      <path id="Path_1227" data-name="Path 1227" d="M239.094,151.975c-.412,3.13,1.852,5.934,4.108,8.147s4.8,4.554,5.205,7.718c.463,3.662-2.212,7.263-1.432,10.874.489,2.29,2.273,4.048,3.353,6.132a13.069,13.069,0,0,1,.66,9.6c-.926,3.156-2.41,10.2-4.605,12.649a50.589,50.589,0,0,1-24.569,14.656c-8.859,2.032-18.069,2.05-27.142,1.492-7.426-.454-15.976-.111-22.168-10.334-3.207-5.3-4.794-12.332-6.492-18.283-1.475-5.145-2.744-10.608-1.218-15.719.858-2.967,2.684-5.617,3.559-8.576,1.1-3.722.695-7.718,1.132-11.551a26.507,26.507,0,0,1,37.732-20.933" transform="translate(-73.92 -124.031)" fill="#263238"/>
      <path id="Path_1228" data-name="Path 1228" d="M174.407,165.958c.695-10.659,7.787-23.729,18.412-22.579l33.153,8.455a6.269,6.269,0,0,1,5.583,6.354l-3.73,79.993.232.043S220.5,260.786,198.572,253.9c-4.348-1.372-6.337-6.123-7.195-11.02h-.223v-1.715a52.509,52.509,0,0,1-.129-10.985h0c-.06-6.457-.051-9.1-.06-9.039s-13.618-2.3-16.4-20.075C173.155,192.293,173.635,177.8,174.407,165.958Z" transform="translate(-75.282 -125.176)" fill="#ffbe9d"/>
      <path id="Path_1229" data-name="Path 1229" d="M180.76,181.868a2.272,2.272,0,0,0,2.187,2.307,2.187,2.187,0,0,0,2.358-2.05,2.281,2.281,0,0,0-2.2-2.307,2.178,2.178,0,0,0-2.35,2.05Z" transform="translate(-76.293 -130.376)" fill="#263238"/>
      <path id="Path_1230" data-name="Path 1230" d="M178.164,178.124c.283.3,2.015-.978,4.468-.969s4.288,1.243,4.519.943c.129-.129-.163-.669-.943-1.235a6.183,6.183,0,0,0-3.61-1.123,6,6,0,0,0-3.559,1.132C178.284,177.455,178.018,177.987,178.164,178.124Z" transform="translate(-75.917 -129.796)" fill="#263238"/>
      <path id="Path_1231" data-name="Path 1231" d="M208.87,181.868a2.281,2.281,0,0,0,2.2,2.307,2.178,2.178,0,0,0,2.35-2.05,2.273,2.273,0,0,0-2.187-2.307,2.178,2.178,0,0,0-2.358,2.05Z" transform="translate(-80.297 -130.376)" fill="#263238"/>
      <path id="Path_1232" data-name="Path 1232" d="M206.284,178.714c.283.3,2.015-.969,4.468-.96S215,179,215.263,178.7c.129-.137-.154-.669-.943-1.243a6.286,6.286,0,0,0-3.61-1.123,6,6,0,0,0-3.55,1.141C206.4,178.045,206.147,178.62,206.284,178.714Z" transform="translate(-79.924 -129.88)" fill="#263238"/>
      <path id="Path_1233" data-name="Path 1233" d="M194.833,196.907a16.713,16.713,0,0,0-3.979-.729c-.626-.06-1.218-.189-1.329-.617a3.173,3.173,0,0,1,.429-1.852l1.861-4.768c2.573-6.783,4.459-12.366,4.185-12.46s-2.573,5.308-5.145,12.1q-.943,2.5-1.784,4.794a3.6,3.6,0,0,0-.334,2.453,1.578,1.578,0,0,0,1.029.918,4.347,4.347,0,0,0,1.063.154C193.281,197.035,194.825,197.053,194.833,196.907Z" transform="translate(-77.417 -129.901)" fill="#263238"/>
      <path id="Path_1234" data-name="Path 1234" d="M193.81,233.1a45.176,45.176,0,0,0,23.814-6.3s-6,12.289-23.8,10.591Z" transform="translate(-78.152 -137.069)" fill="#eb996e"/>
      <path id="Path_1235" data-name="Path 1235" d="M197.019,206.924a4.4,4.4,0,0,1,3.962-1.629,4.013,4.013,0,0,1,2.787,1.5,2.573,2.573,0,0,1,.18,2.916,2.933,2.933,0,0,1-3.216.806,9.321,9.321,0,0,1-3.13-1.878,2.521,2.521,0,0,1-.695-.72.858.858,0,0,1,0-.918" transform="translate(-78.574 -134.001)" fill="#eb996e"/>
      <path id="Path_1236" data-name="Path 1236" d="M202.968,202.3c-.394,0-.4,2.641-2.693,4.519s-5.145,1.586-5.145,1.964c0,.163.635.515,1.827.549a6.612,6.612,0,0,0,4.288-1.484,5.771,5.771,0,0,0,2.084-3.79C203.448,202.943,203.157,202.283,202.968,202.3Z" transform="translate(-78.34 -133.579)" fill="#263238"/>
      <path id="Path_1237" data-name="Path 1237" d="M205,173.8c.24.669,2.693.36,5.566.712s5.205,1.141,5.591.549c.172-.283-.232-.918-1.175-1.561a9.158,9.158,0,0,0-4.133-1.458,9.313,9.313,0,0,0-4.356.5C205.436,172.964,204.9,173.479,205,173.8Z" transform="translate(-79.744 -129.258)" fill="#263238"/>
      <path id="Path_1238" data-name="Path 1238" d="M179.229,169.825c.437.557,2.127,0,4.159,0s3.748.377,4.151-.2c.172-.283-.1-.858-.858-1.372a6,6,0,0,0-6.689.189C179.28,168.985,179.023,169.56,179.229,169.825Z" transform="translate(-76.065 -128.598)" fill="#263238"/>
      <path id="Path_1239" data-name="Path 1239" d="M240.879,209.681a15.779,15.779,0,0,1-18.772-17.451c.549-4.365,2.907-8.807,1.389-12.94-2-5.463-9.656-7.143-11.688-12.6-1.183-3.164-.12-6.86-1.458-9.973-1.261-2.924-4.331-4.605-7.324-5.686s-6.192-1.827-8.7-3.773-4.073-5.634-2.453-8.37a168.081,168.081,0,0,1,38.83,9.433c2.907,1.081,5.951,2.384,7.667,4.965,1.818,2.727,1.715,6.252,1.578,9.527l-2.238,47.869" transform="translate(-77.781 -124.546)" fill="#263238"/>
      <path id="Path_1240" data-name="Path 1240" d="M239.575,214.287a2.03,2.03,0,0,0,.292-.18l.789-.6c.686-.54,1.715-1.338,2.941-2.444a30.374,30.374,0,0,0,4.176-4.391,16.4,16.4,0,0,0,3.327-7.324,11.148,11.148,0,0,0-2.29-9.347,35.705,35.705,0,0,0-4.142-3.533,9.613,9.613,0,0,1-3.233-4.391c-1.312-3.619-.729-7.812-1.235-12.1a24.063,24.063,0,0,0-5.042-12.246,16.542,16.542,0,0,0-5.265-4.288,32.167,32.167,0,0,0-6.217-2.092,14.5,14.5,0,0,1-5.463-2.693,21.661,21.661,0,0,1-3.962-4.365c-2.23-3.173-3.885-6.552-6-9.373a20.093,20.093,0,0,0-3.5-3.713,13.421,13.421,0,0,0-4.151-2.264,8.867,8.867,0,0,0-7.9.789,7.281,7.281,0,0,0-2.8,5.317,5.334,5.334,0,0,0,1.072,3.662,3.43,3.43,0,0,0,.72.695,1.234,1.234,0,0,0,.292.189,1.947,1.947,0,0,0-.24-.249,3.937,3.937,0,0,1-.643-.729,5.231,5.231,0,0,1-.858-3.542,6.972,6.972,0,0,1,2.753-4.991,8.4,8.4,0,0,1,7.461-.617,12.864,12.864,0,0,1,3.953,2.2,20.453,20.453,0,0,1,3.362,3.636c2.058,2.77,3.679,6.149,5.943,9.433a22.056,22.056,0,0,0,4.082,4.536,15.05,15.05,0,0,0,5.634,2.787,31.523,31.523,0,0,1,6.08,2.058,15.856,15.856,0,0,1,5.025,4.116,23.317,23.317,0,0,1,4.905,11.834c.523,4.142-.077,8.4,1.321,12.254a10.4,10.4,0,0,0,3.43,4.691,36.286,36.286,0,0,1,4.091,3.43,10.574,10.574,0,0,1,2.23,8.833,16.062,16.062,0,0,1-3.122,7.143,32.862,32.862,0,0,1-4.039,4.434c-1.209,1.132-2.187,1.964-2.839,2.573a10.369,10.369,0,0,0-.935.858Z" transform="translate(-77.592 -123.047)" fill="#455a64"/>
      <path id="Path_1241" data-name="Path 1241" d="M250.018,230.883c3.653-3.533,9.888-.463,12.958,3.585s5.24,9.279,9.9,11.32,10.7.283,14.578,3.525c5.385,4.476,2.358,14.844,8.19,18.738,2.307,1.544,5.36,1.492,7.829,2.761,5.823,3,5.754,11.217,4.854,17.708-1.226,9.133-2.616,18.566-7.641,26.284s-14.81,13.112-23.506,10.145c-8.361-2.856-12.658-11.877-16.062-20.032Q254.065,287.953,247,271.068c-2.718-6.526-5.471-13.155-6.354-20.17s.3-14.578,4.768-20.084" transform="translate(-84.784 -137.43)" fill="#263238"/>
      <path id="Path_1242" data-name="Path 1242" d="M252.74,222.053c2.65-.317,4.682,2.933,3.979,5.514s-3.173,4.288-5.7,5.145a8.507,8.507,0,0,1-4.4.506,4.288,4.288,0,0,1-3.336-2.684A2.521,2.521,0,0,1,244.5,227.2c1.715-1.089,2.77-1.947,4.151-2.71,2.11-1.158,1.981-1.312,4.091-2.478" transform="translate(-85.166 -136.387)" fill="#ff725e"/>
      <path id="Path_1243" data-name="Path 1243" d="M182.1,253.7l10.308-7.812,38.856-2.487,1.561,5.214-12.64,78.861,9.973,94.091H175.95Z" transform="translate(-75.608 -139.434)" fill="#6d6bd9"/>
      <g id="Group_1215" data-name="Group 1215" transform="translate(102.752 243.696)" opacity="0.3">
        <path id="Path_1244" data-name="Path 1244" d="M224.1,411.4c-1.243-1.329-3.276-3.147-5.085-3.19-12.983-.283-26.233-1.578-39.216-1.869l-1.038,38.453c3.1-5.471,6.046-11.148,6.86-17.408.36-2.727.858-6,3.3-7.152a7.381,7.381,0,0,1,4.579-.094c4.691.926,9.347,2.135,14.115,2.435s9.768-.4,13.772-3.01A8.447,8.447,0,0,0,224.682,416a4.365,4.365,0,0,0-.583-4.605Z" transform="translate(-178.76 -406.34)"/>
      </g>
      <path id="Path_1245" data-name="Path 1245" d="M192.676,254.2l-1.209-11.277a3.585,3.585,0,0,1,3.242-3.945l35.76-3.233a1.715,1.715,0,0,1,1.844,1.629l.4,13.421-10.359,17.571-10.642,3.387H198.7l-7.486-7.992Z" transform="translate(-77.781 -138.343)" fill="#6d6bd9"/>
      <path id="Path_1246" data-name="Path 1246" d="M227.534,248.194a12.163,12.163,0,0,1-1.432-.146,25.729,25.729,0,0,0-3.893-.069,37.73,37.73,0,0,0-5.728.858c-2.135.446-4.459,1.072-6.92,1.672a45.039,45.039,0,0,1-7.041,1.252,18.2,18.2,0,0,1-5.84-.394,12.117,12.117,0,0,1-3.636-1.509,8.575,8.575,0,0,1-.858-.635c-.189-.154-.283-.249-.266-.257s.42.283,1.226.738a13.3,13.3,0,0,0,3.627,1.355,18.48,18.48,0,0,0,5.728.292,47.323,47.323,0,0,0,6.972-1.278c2.453-.592,4.785-1.209,6.938-1.638a34.541,34.541,0,0,1,5.8-.738,20.771,20.771,0,0,1,3.936.206q.695.12,1.055.206C227.414,248.143,227.542,248.177,227.534,248.194Z" transform="translate(-77.882 -140.043)" fill="#263238"/>
      <g id="Group_1216" data-name="Group 1216" transform="translate(115.105 107.823)" opacity="0.3">
        <path id="Path_1247" data-name="Path 1247" d="M193.8,250c-.96,2.633-.986,5.891.96,7.907a6.966,6.966,0,0,0,6.363,1.612,20.075,20.075,0,0,0,6.217-2.8c4.922-2.924,9.93-5.96,15.522-7.2a1.981,1.981,0,0,0,1-.42.66.66,0,0,0,0-.969.935.935,0,0,0-.463-.129c-4.948-.5-9.862.858-14.707,1.99s-10.033,1.861-14.707.172" transform="translate(-193.165 -247.897)"/>
      </g>
      <path id="Path_1248" data-name="Path 1248" d="M201.519,239.1a3.284,3.284,0,0,0-1.226,1.166c-.566.909-.532,2.453-.489,4.116.094,3.336.643,6,.515,6a5.831,5.831,0,0,1-.489-1.715,27.021,27.021,0,0,1-.472-4.288,19.819,19.819,0,0,1,.051-2.393,4.133,4.133,0,0,1,.617-1.9,2.478,2.478,0,0,1,1-.9C201.33,239.072,201.51,239.072,201.519,239.1Z" transform="translate(-78.94 -138.819)" fill="#263238"/>
      <path id="Path_1249" data-name="Path 1249" d="M212.644,248.741a51.827,51.827,0,0,0-.257-5.454c-.412-2.993-1.406-5.265-1.269-5.317a4.7,4.7,0,0,1,.729,1.449,17.724,17.724,0,0,1,.986,3.8,17.391,17.391,0,0,1,.111,3.928A4.8,4.8,0,0,1,212.644,248.741Z" transform="translate(-80.615 -138.66)" fill="#263238"/>
      <path id="Path_1250" data-name="Path 1250" d="M226.222,236.86a3.525,3.525,0,0,1,.677,1.329,9.382,9.382,0,0,1,.472,3.576,9.236,9.236,0,0,1-.943,3.49,3.43,3.43,0,0,1-.858,1.226,11.834,11.834,0,0,0,.643-9.622Z" transform="translate(-82.676 -138.502)" fill="#263238"/>
      <path id="Path_1251" data-name="Path 1251" d="M161.712,261.33s-12.194,8.164-15.436,22.914c-2.521,11.594-9.433,72.841-9.433,72.841L124.76,380.6l7.889,18.763h0a28.848,28.848,0,0,0,18.952-5.411l5.308-3.859,9.733-14.433Z" transform="translate(-68.316 -141.988)" fill="#ebebeb"/>
      <path id="Path_1252" data-name="Path 1252" d="M185.959,248.71l-20.667,10.822-4.879,16.028-4.348,46.471,8.181,54.48L149.89,422.159l24.758.18.592-26.756,2.47-86.613,2.427-55.175Z" transform="translate(-71.895 -140.19)" fill="#ebebeb"/>
      <path id="Path_1253" data-name="Path 1253" d="M179.077,321.715a4.733,4.733,0,0,1-.386-.652l-1.029-1.9c-.429-.858-.858-1.9-1.381-3.122-.249-.617-.463-1.295-.712-2.007s-.523-1.466-.737-2.272c-1.947-6.423-3.233-15.693-2.959-25.915,0-.789.06-1.569.111-2.35v-.137l.129-.051,3.619-1.526-.051.377-3.619-2.907-.077-.06v-.086a31.275,31.275,0,0,1,1.647-10.334c.909-3.027,1.9-5.634,2.778-7.778s1.638-3.816,2.178-4.948c.274-.575.489-1.012.635-1.295a2.949,2.949,0,0,1,.249-.437,2.084,2.084,0,0,1-.18.463l-.575,1.329c-.5,1.149-1.218,2.839-2.058,4.991s-1.8,4.759-2.676,7.778a31.378,31.378,0,0,0-1.569,10.2l-.086-.146,3.627,2.89.283.232-.334.146-3.619,1.526.137-.189c-.051.763-.086,1.544-.111,2.333a88.5,88.5,0,0,0,2.821,25.8c.2.815.463,1.561.695,2.273s.437,1.4.686,2.015c.506,1.218.858,2.29,1.3,3.13l.943,1.929A5.664,5.664,0,0,1,179.077,321.715Z" transform="translate(-75.022 -140.989)" fill="#263238"/>
      <path id="Path_1254" data-name="Path 1254" d="M160.649,359.508a6.391,6.391,0,0,1-.2-.669q-.18-.729-.489-1.955c-.214-.858-.454-1.887-.695-3.1s-.557-2.573-.8-4.142-.566-3.224-.8-5.042-.463-3.773-.677-5.823c-.377-4.116-.626-8.653-.626-13.421s.283-9.3.669-13.412c.232-2.05.429-4,.712-5.823s.532-3.507.806-5.042.566-2.916.858-4.133.5-2.255.712-3.1.369-1.466.5-1.947a4.915,4.915,0,0,1,.2-.677,3.956,3.956,0,0,1-.112.695l-.412,1.964c-.189.858-.42,1.9-.635,3.113s-.523,2.573-.755,4.142-.532,3.216-.746,5.034-.454,3.765-.669,5.806c-.36,4.108-.617,8.627-.635,13.386s.24,9.27.583,13.378c.214,2.041.386,4,.643,5.806s.489,3.507.737,5.042.515,2.924.729,4.142.437,2.264.626,3.113.309,1.475.4,1.964a3.276,3.276,0,0,1,.069.695Z" transform="translate(-72.819 -146.247)" fill="#263238"/>
      <path id="Path_1255" data-name="Path 1255" d="M166.238,419.63a8.832,8.832,0,0,1-1,2.084,33.712,33.712,0,0,1-3.164,4.588,33.209,33.209,0,0,1-3.876,4,9.3,9.3,0,0,1-1.844,1.4,16.5,16.5,0,0,1,1.629-1.629,49.983,49.983,0,0,0,3.748-4.056,49.348,49.348,0,0,0,3.242-4.468,16.555,16.555,0,0,1,1.269-1.921Z" transform="translate(-72.816 -164.537)" fill="#263238"/>
      <path id="Path_1256" data-name="Path 1256" d="M269.129,259.566A28.445,28.445,0,0,1,286.572,279.8c6.766,29.809,18.335,69.462,18.523,82.265.223,16.294-6.86,27.442-16.2,29.5-7.358,1.629-74.024-2.024-74.024-2.024l-3.122-24.869,54.026-7.95L258.384,315.5,265.7,258.28Z" transform="translate(-80.707 -141.553)" fill="#ebebeb"/>
      <path id="Path_1257" data-name="Path 1257" d="M267.686,255.684l-14.93-6.1L237.02,240.36l-.094,2.7h0a15.83,15.83,0,0,1,1.9,10.942L225.7,322.316l2.967,49.918,6.1,48.881H282.11l-21.739-51.153,7.675-68.939Z" transform="translate(-82.694 -139)" fill="#ebebeb"/>
      <path id="Path_1258" data-name="Path 1258" d="M279.505,408.266l-.326.043-.952.094c-.858.086-2.084.077-3.7.12-3.207,0-7.872-.069-13.678-.257-11.6-.386-27.75-1.166-45.991-2.221h-.18v-.189c-.369-2.959-.763-6.08-1.158-9.244-.677-5.36-1.329-10.591-1.955-15.59v-.214h.206l41.231-6,12.109-1.715,3.25-.437.858-.111h.292l-.283.06-.858.146-3.242.515L253.05,375.1l-41.163,6.149.18-.249c.635,5.008,1.295,10.231,1.964,15.59.4,3.173.789,6.294,1.158,9.253l-.206-.189c18.232,1.063,34.388,1.9,45.982,2.367,5.8.223,10.454.352,13.661.394,1.6,0,2.856,0,3.687-.051l.952-.051Z" transform="translate(-80.682 -157.829)" fill="#263238"/>
      <path id="Path_1259" data-name="Path 1259" d="M265.613,320.08a1.765,1.765,0,0,1,.12.463c.069.352.154.78.257,1.321.223,1.209.523,2.864.858,4.879.729,4.185,1.715,9.853,2.813,16.122s1.99,11.954,2.693,16.148c.317,2.024.575,3.679.763,4.9.077.54.137.986.189,1.338a1.957,1.957,0,0,1,0,.472,1.64,1.64,0,0,1-.129-.454c-.069-.352-.154-.789-.266-1.321-.223-1.218-.532-2.864-.909-4.879-.746-4.125-1.715-9.819-2.813-16.122s-2.024-12.006-2.684-16.148c-.309-2.024-.566-3.687-.755-4.905q-.1-.806-.18-1.338A2.171,2.171,0,0,1,265.613,320.08Z" transform="translate(-88.374 -150.356)" fill="#263238"/>
      <path id="Path_1260" data-name="Path 1260" d="M244.134,246a.413.413,0,0,0,.06.172l.137.5c.111.446.3,1.089.48,1.947a62.342,62.342,0,0,1,1.132,7.349,82.226,82.226,0,0,1,.283,11.217c-.146,4.288-.592,8.979-1.235,13.978v.154h-.154l-4.914.909.163-.3c.283.755.566,1.561.789,2.393a30.4,30.4,0,0,1-.557,16.559,51.847,51.847,0,0,1-5.728,12.349c-2.041,3.31-3.876,5.849-5.145,7.607l-1.484,2.007c-.154.214-.292.377-.394.515a.7.7,0,0,1-.146.172s0-.069.111-.2l.36-.54c.343-.5.858-1.183,1.406-2.058,1.226-1.784,3.027-4.348,5.017-7.667a52.929,52.929,0,0,0,5.608-12.3,30.067,30.067,0,0,0,.523-16.294,24.332,24.332,0,0,0-.772-2.35l-.094-.249.266-.051,4.879-.9-.18.189c.652-4.982,1.123-9.682,1.286-13.935a86.193,86.193,0,0,0-.18-11.148,68.391,68.391,0,0,0-1-7.349c-.154-.858-.326-1.509-.4-1.955-.043-.206-.077-.369-.1-.506A.566.566,0,0,1,244.134,246Z" transform="translate(-82.939 -139.804)" fill="#263238"/>
      <path id="Path_1261" data-name="Path 1261" d="M246.236,325.517V314.635s.137-2.684-2.127-2.118-1.844,4.811-1.844,4.811-.42,16.559.566,16.422,1.372-1.415,1.372-1.415v-6.372Z" transform="translate(-85.041 -149.268)" fill="#ff725e"/>
      <path id="Path_1262" data-name="Path 1262" d="M255.95,328.439a37.609,37.609,0,0,1-5.84.223,37.614,37.614,0,0,1-5.84-.223,38.931,38.931,0,0,1,5.84-.223A38.931,38.931,0,0,1,255.95,328.439Z" transform="translate(-85.34 -151.511)" fill="#263238"/>
      <path id="Path_1263" data-name="Path 1263" d="M280.143,267.32a8.065,8.065,0,0,1-1.218.454,27.493,27.493,0,0,0-3.242,1.4,25.2,25.2,0,0,0-8.764,7.469,18.709,18.709,0,0,0-1.715,2.8,18.179,18.179,0,0,0-1.029,2.881,28.393,28.393,0,0,0-.858,5.145c-.12,1.484-.146,2.7-.154,3.533a11.082,11.082,0,0,1,0,1.3,5.24,5.24,0,0,1-.171-1.252,31.289,31.289,0,0,1,0-3.559,26.5,26.5,0,0,1,.78-5.231,18.011,18.011,0,0,1,1.038-2.967,19.056,19.056,0,0,1,1.758-2.881,24.218,24.218,0,0,1,8.987-7.486,22.371,22.371,0,0,1,3.319-1.286,6.422,6.422,0,0,1,1.269-.326Z" transform="translate(-87.999 -142.841)" fill="#263238"/>
      <path id="Path_1264" data-name="Path 1264" d="M58.94,372.99l77.995,28.882,65.749,10.051-78.175-38.11Z" transform="translate(-58.94 -157.893)" fill="#263238"/>
      <path id="Path_1265" data-name="Path 1265" d="M96.972,406.487A33.2,33.2,0,0,0,92.8,394.67a8.575,8.575,0,0,1-1.063-2.221,2.521,2.521,0,0,1,.437-2.324c1-1.089,2.83-.609,4.065.214a14.287,14.287,0,0,1,5.248,7.358,42.706,42.706,0,0,1,1.715,9.013" transform="translate(-63.596 -160.244)" fill="#ffbe9d"/>
      <path id="Path_1266" data-name="Path 1266" d="M127.709,398.353h-3.876a7.6,7.6,0,0,0-3.43-1.955,2.693,2.693,0,0,0-2.573,1c1.715-2.856,3.6-6,3.962-6.86.695-1.672-.858-2.924-3.353-2.924S104.9,403.25,104.9,403.25s6.86-12.58,7.521-14.5c1.664-4.8-3.593-5.145-5.5-2.839-2.367,2.873-11.929,17.34-11.929,17.34s-1.818,2.933-.566,5.72,4.888,1.715,4.888,1.715a4.682,4.682,0,0,0,2.573,3.876c2.8,1.561,6.483-.249,6.483-.249l14.3,3.207,5.145-.515a15.848,15.848,0,0,0,14.1-13.446h0Z" transform="translate(-63.932 -159.537)" fill="#ffbe9d"/>
      <path id="Path_1267" data-name="Path 1267" d="M120.627,399.28c.163.1-1.715,3.087-4.2,6.672-1.235,1.792-2.375,3.43-3.224,4.545a11.371,11.371,0,0,1-1.441,1.8,11.637,11.637,0,0,1,1.183-1.981c.78-1.192,1.878-2.83,3.113-4.622s2.367-3.43,3.19-4.562l.995-1.364A3.492,3.492,0,0,1,120.627,399.28Z" transform="translate(-66.464 -161.638)" fill="#eb996e"/>
      <path id="Path_1268" data-name="Path 1268" d="M121.1,415.232a14.116,14.116,0,0,1,1.269-2.333c.858-1.406,2.041-3.319,3.362-5.445.66-1.055,1.295-2.067,1.809-3a3.473,3.473,0,0,0,.317-2.65,6.586,6.586,0,0,0-1.218-2.272,2.3,2.3,0,0,1,.549.463,4.443,4.443,0,0,1,.969,1.715,3.713,3.713,0,0,1-.249,2.924c-.515.969-1.141,1.99-1.792,3.053-1.329,2.127-2.573,4.013-3.482,5.377a18.746,18.746,0,0,1-1.535,2.17Z" transform="translate(-67.794 -161.674)" fill="#eb996e"/>
      <path id="Path_1269" data-name="Path 1269" d="M129.547,417.58a7.992,7.992,0,0,1,.763-2.221l1.02-2.333a19.078,19.078,0,0,0,1.046-2.873,3.379,3.379,0,0,0-.455-2.787,2.632,2.632,0,0,0-1.02-.729,2.822,2.822,0,0,0-1.063-.3,4.287,4.287,0,0,0-1.535.54,1.827,1.827,0,0,1-.583.24,3.924,3.924,0,0,1,.5-.394,7.029,7.029,0,0,1,.643-.386,2.521,2.521,0,0,1,.978-.317,3.165,3.165,0,0,1,1.218.274,2.9,2.9,0,0,1,1.183.806,3.679,3.679,0,0,1,.566,3.147,16.414,16.414,0,0,1-1.106,2.95c-.4.858-.789,1.638-1.106,2.29a22.08,22.08,0,0,1-1.046,2.092Z" transform="translate(-68.737 -162.598)" fill="#eb996e"/>
      <path id="Path_1270" data-name="Path 1270" d="M132.92,403.76a1.526,1.526,0,0,1,.6.18,7.006,7.006,0,0,1,1.492.858,8.13,8.13,0,0,1,2.307,10.342,6.989,6.989,0,0,1-.969,1.432c-.274.3-.455.437-.472.42a12.5,12.5,0,0,0,1.158-1.99,8.267,8.267,0,0,0-2.221-9.956,20.635,20.635,0,0,0-1.9-1.286Z" transform="translate(-69.478 -162.276)" fill="#eb996e"/>
      <path id="Path_1271" data-name="Path 1271" d="M102.486,394.19a41.882,41.882,0,0,1-3.233,5.145,41.16,41.16,0,0,1-3.593,4.982,41.163,41.163,0,0,1,3.224-5.145,41.744,41.744,0,0,1,3.6-4.982Z" transform="translate(-64.171 -160.913)" fill="#eb996e"/>
      <path id="Path_1272" data-name="Path 1272" d="M202.827,381.377l-8.919-2.015-8.576-8.07a6.132,6.132,0,0,0-3.825-1.647l-15.582-.858a6.054,6.054,0,0,0-4.288,1.424l-11.148,9.433,48.632,23.626,6.672.592Z" transform="translate(-71.981 -157.293)" fill="#ffbe9d"/>
      <path id="Path_1273" data-name="Path 1273" d="M177.593,378.469c0,.069-1.149-.137-3-.377a12.585,12.585,0,0,0-7.058.737,18.213,18.213,0,0,0-3.362,2.1c-.986.737-1.869,1.424-2.65,1.947a14.1,14.1,0,0,1-1.93,1.123,2.778,2.778,0,0,1-.763.283c0-.069,1.02-.54,2.513-1.664.746-.549,1.6-1.261,2.573-2.024a17.7,17.7,0,0,1,3.43-2.178,10.094,10.094,0,0,1,3.979-.858,17.736,17.736,0,0,1,3.3.257,20.691,20.691,0,0,1,2.178.446A2.393,2.393,0,0,1,177.593,378.469Z" transform="translate(-73.169 -158.544)" fill="#eb996e"/>
      <path id="Path_1274" data-name="Path 1274" d="M182.628,388.62c0,.069-.635-.214-1.715-.317a8.876,8.876,0,0,0-4,.557,20.584,20.584,0,0,0-3.67,1.878,7.667,7.667,0,0,1-1.518.858,6.252,6.252,0,0,1,1.338-1.115,15.83,15.83,0,0,1,3.7-2.032,8.2,8.2,0,0,1,4.2-.454,3.182,3.182,0,0,1,1.672.626Z" transform="translate(-75.005 -160.017)" fill="#eb996e"/>
      <path id="Path_1275" data-name="Path 1275" d="M206.832,389.082c-.111.069-1.364-1.8-3.019-4.013a48.829,48.829,0,0,1-2.984-4.039,20.024,20.024,0,0,1,3.336,3.773,19.672,19.672,0,0,1,2.667,4.279Z" transform="translate(-79.151 -159.038)" fill="#eb996e"/>
      <path id="Path_1276" data-name="Path 1276" d="M178.217,366.221l19.724-18.395a1.887,1.887,0,0,0-.137-2.881h0a1.887,1.887,0,0,0-2.41.094L172.24,365.81" transform="translate(-75.079 -153.843)" fill="#ff725e"/>
      <g id="Group_1217" data-name="Group 1217" transform="translate(97.161 190.713)" opacity="0.3">
        <path id="Path_1277" data-name="Path 1277" d="M178.217,366.221l19.724-18.395a1.887,1.887,0,0,0-.137-2.881h0a1.887,1.887,0,0,0-2.41.094L172.24,365.81" transform="translate(-172.24 -344.556)"/>
      </g>
    </g>
    <g id="freepik--character-2--inject-37" transform="translate(248.436 102.983)">
      <path id="Path_1278" data-name="Path 1278" d="M365.516,163c-.309-.12-12.272-3.259-11.551,8.841s12.717,8.876,12.726,8.524S365.516,163,365.516,163Z" transform="translate(-293.431 -119.785)" fill="#b78876"/>
      <path id="Path_1279" data-name="Path 1279" d="M363.229,176.688c-.06-.043-.206.154-.549.343a2.092,2.092,0,0,1-1.578.12c-1.3-.386-2.5-2.35-2.693-4.528a7.066,7.066,0,0,1,.377-3.01,2.435,2.435,0,0,1,1.492-1.715,1.072,1.072,0,0,1,1.278.506c.18.326.12.575.18.592s.249-.223.12-.712a1.3,1.3,0,0,0-.523-.729,1.561,1.561,0,0,0-1.183-.24,2.959,2.959,0,0,0-2.084,2.007,7.049,7.049,0,0,0-.532,3.43c.223,2.435,1.612,4.639,3.387,5.042a2.264,2.264,0,0,0,1.912-.437C363.22,176.98,363.272,176.705,363.229,176.688Z" transform="translate(-293.94 -120.459)" fill="#aa6550"/>
      <path id="Path_1280" data-name="Path 1280" d="M402.66,112.69c6.149,0,12.409,0,20.1,4.022,4.854,2.573,7.872,6.543,10.4,11.4a26.241,26.241,0,0,1,2.864,12.769c-.223,4.185-.24,7.109-1.912,10.951" transform="translate(-300.372 -112.683)" fill="#263238"/>
      <path id="Path_1281" data-name="Path 1281" d="M394.753,113.786a32.587,32.587,0,0,1,34.86,30.821c.789,15.153,1.484,31.541,1.321,39.79-.36,17.717-18.1,20.333-18.1,20.333s.394,5.248.858,11.766a23.343,23.343,0,0,1-22.4,24.869h0a23.325,23.325,0,0,1-24.2-22.451l-2.633-71.4a32.587,32.587,0,0,1,30.323-33.745Z" transform="translate(-294.927 -112.827)" fill="#b78876"/>
      <path id="Path_1282" data-name="Path 1282" d="M417.1,218.686s-10.891.566-22.725-7.006c0,0,5.36,12.863,23.042,11.44Z" transform="translate(-299.191 -126.783)" fill="#aa6550"/>
      <path id="Path_1283" data-name="Path 1283" d="M431.685,160.847a2.521,2.521,0,0,1-2.453,2.573,2.41,2.41,0,0,1-2.573-2.3,2.573,2.573,0,0,1,2.453-2.573,2.418,2.418,0,0,1,2.573,2.3Z" transform="translate(-303.791 -119.214)" fill="#263238"/>
      <path id="Path_1284" data-name="Path 1284" d="M433.729,156.6c-.317.326-2.221-1.106-4.948-1.123s-4.725,1.338-5.017,1c-.146-.154.18-.746,1.055-1.372a6.861,6.861,0,0,1,4.022-1.2,6.586,6.586,0,0,1,3.928,1.3C433.6,155.856,433.884,156.457,433.729,156.6Z" transform="translate(-303.374 -118.554)" fill="#263238"/>
      <path id="Path_1285" data-name="Path 1285" d="M400.554,160.847a2.521,2.521,0,0,1-2.461,2.573,2.418,2.418,0,0,1-2.573-2.3,2.573,2.573,0,0,1,2.461-2.573,2.427,2.427,0,0,1,2.573,2.3Z" transform="translate(-299.355 -119.214)" fill="#263238"/>
      <path id="Path_1286" data-name="Path 1286" d="M402.518,156.951c-.317.326-2.23-1.106-4.948-1.123s-4.725,1.329-5.025.995c-.137-.146.18-.746,1.063-1.372a6.938,6.938,0,0,1,4.022-1.2,6.706,6.706,0,0,1,3.928,1.3C402.364,156.205,402.673,156.8,402.518,156.951Z" transform="translate(-298.927 -118.603)" fill="#263238"/>
      <path id="Path_1287" data-name="Path 1287" d="M415.328,177.231c0-.154,1.715-.429,4.425-.763.695-.069,1.355-.2,1.475-.669a3.482,3.482,0,0,0-.446-2.067c-.635-1.715-1.312-3.43-2.015-5.308-2.8-7.564-4.811-13.772-4.5-13.884s2.821,5.926,5.608,13.489c.677,1.861,1.321,3.636,1.929,5.343a4.022,4.022,0,0,1,.343,2.727,1.792,1.792,0,0,1-1.158,1.012,5.275,5.275,0,0,1-1.175.154C417.052,177.411,415.337,177.411,415.328,177.231Z" transform="translate(-302.021 -118.644)" fill="#263238"/>
      <path id="Path_1288" data-name="Path 1288" d="M406.074,183.15c.446,0,.42,2.933,2.933,5.051s5.668,1.818,5.686,2.23c0,.189-.712.575-2.041.6a7.375,7.375,0,0,1-4.742-1.715,6.458,6.458,0,0,1-2.273-4.236C405.534,183.879,405.868,183.133,406.074,183.15Z" transform="translate(-300.794 -122.719)" fill="#263238"/>
      <path id="Path_1289" data-name="Path 1289" d="M403.025,144.656c-.274.738-2.984.369-6.183.729s-5.788,1.209-6.209.54c-.18-.317.274-1.012,1.321-1.715a10.831,10.831,0,0,1,9.433-.96C402.562,143.687,403.145,144.27,403.025,144.656Z" transform="translate(-298.654 -116.941)" fill="#263238"/>
      <path id="Path_1290" data-name="Path 1290" d="M433.4,145.275c-.48.617-2.35-.043-4.605-.086s-4.168.377-4.605-.274c-.189-.317.111-.935.952-1.509a6.663,6.663,0,0,1,7.426.292C433.358,144.34,433.616,144.975,433.4,145.275Z" transform="translate(-303.431 -116.917)" fill="#263238"/>
      <path id="Path_1291" data-name="Path 1291" d="M364.56,152.917s.772,4.1.978,5.943c.077.677,0,8.181,1.809,8.576,1.569.326,4.682-1.106,6.071-4.211s4.03-10.556,3.739-13.944a49.015,49.015,0,0,1,.326-13.858c.926-4.545,3.1-8.97,6.74-11.834s8.919-3.85,13.069-1.775c2.573,1.286,4.468,3.559,6.86,5.145a10.642,10.642,0,0,0,7.306,1.9,6.86,6.86,0,0,0,5.651-4.631c.755-2.7-.635-5.66-2.8-7.452a17.125,17.125,0,0,0-7.718-3.164,41.5,41.5,0,0,0-23,1.612c-7.263,2.821-13.721,8.241-16.808,15.385-3.585,8.258-3.173,13.326-2.221,22.3" transform="translate(-294.851 -112.681)" fill="#263238"/>
      <path id="Path_1292" data-name="Path 1292" d="M407.857,159.329a20.8,20.8,0,0,0-.463-2.916,12.006,12.006,0,0,0-4.382-6.526,11.783,11.783,0,0,0-5-2.2,11.946,11.946,0,0,0-6.226.523,11.011,11.011,0,0,0-2.984,1.621,10.882,10.882,0,0,0-2.5,2.513,11.8,11.8,0,0,0,0,13.97,11.226,11.226,0,0,0,2.5,2.513,10.977,10.977,0,0,0,2.984,1.612,11.954,11.954,0,0,0,6.226.532,11.748,11.748,0,0,0,5-2.2,12.005,12.005,0,0,0,4.391-6.517,21.382,21.382,0,0,0,.454-2.924.514.514,0,0,1,0,.2v.575a4.922,4.922,0,0,1-.077.935,7.926,7.926,0,0,1-.223,1.252,12.006,12.006,0,0,1-4.365,6.74,12.152,12.152,0,0,1-11.551,1.8,11.319,11.319,0,0,1-3.1-1.655,11.49,11.49,0,0,1-2.573-2.573,12.2,12.2,0,0,1,0-14.493,12.155,12.155,0,0,1,12.126-4.794,12.111,12.111,0,0,1,9.51,9.047,8.007,8.007,0,0,1,.223,1.261,4.835,4.835,0,0,1,.077.926v.575A.833.833,0,0,1,407.857,159.329Z" transform="translate(-297.654 -117.585)" fill="#263238"/>
      <path id="Path_1293" data-name="Path 1293" d="M444.219,159.328a22.593,22.593,0,0,0-.463-2.916,12.006,12.006,0,0,0-4.391-6.526,11.74,11.74,0,0,0-5-2.2,11.829,11.829,0,0,0-11.706,4.657,11.766,11.766,0,0,0,0,13.97,11.191,11.191,0,0,0,2.5,2.513,10.9,10.9,0,0,0,2.993,1.612,11.92,11.92,0,0,0,6.217.532,11.748,11.748,0,0,0,5-2.2,12.006,12.006,0,0,0,4.391-6.517,22.562,22.562,0,0,0,.463-2.924,1.772,1.772,0,0,1,0,.2v.575a5.619,5.619,0,0,1-.069.935,8.033,8.033,0,0,1-.232,1.252,11.92,11.92,0,0,1-4.365,6.74,12.235,12.235,0,0,1-17.271-16.98,11.413,11.413,0,0,1,2.573-2.573,11.585,11.585,0,0,1,3.1-1.664,12.357,12.357,0,0,1,6.432-.506,12.075,12.075,0,0,1,5.145,2.315,11.929,11.929,0,0,1,4.365,6.732,8.111,8.111,0,0,1,.232,1.261,5.536,5.536,0,0,1,.069.926c0,.232,0,.42,0,.575A1.586,1.586,0,0,1,444.219,159.328Z" transform="translate(-302.827 -117.583)" fill="#263238"/>
      <path id="Path_1294" data-name="Path 1294" d="M419.252,159.661a6.126,6.126,0,0,1-1.115-.377,7.186,7.186,0,0,0-2.753-.36,7.5,7.5,0,0,0-2.658.7c-.643.317-1,.592-1.046.532s.257-.4.858-.806a6.192,6.192,0,0,1,5.66-.377C418.943,159.3,419.286,159.627,419.252,159.661Z" transform="translate(-301.656 -119.203)" fill="#263238"/>
      <path id="Path_1295" data-name="Path 1295" d="M425.863,124.214c.18-.918-.129-1.432.394-1.809s1.715.7,2.11,1.149c.137.146.549-.42.712-.523a3.129,3.129,0,0,0,.309-1.175c-.077-.643-1.081-.858-1.552-1.252a4.768,4.768,0,0,0-1.672-.952,1.612,1.612,0,0,0-1.6.094,1.569,1.569,0,0,0-.36,1.2,3.284,3.284,0,0,0,.24,1.252,1.715,1.715,0,0,0,.858.909" transform="translate(-303.44 -113.651)" fill="#263238"/>
      <path id="Path_1296" data-name="Path 1296" d="M363.9,147.9s8.687,3.182,13.206,5.1l-.257-4.442-12.632-5S363.891,146.862,363.9,147.9Z" transform="translate(-294.851 -117.08)" fill="#ebebeb"/>
      <path id="Path_1297" data-name="Path 1297" d="M364.85,140.57A50,50,0,0,1,371,142.928a48.458,48.458,0,0,1,6,2.77,50,50,0,0,1-6.149-2.358A48.46,48.46,0,0,1,364.85,140.57Z" transform="translate(-294.986 -116.654)" fill="#ebebeb"/>
      <path id="Path_1298" data-name="Path 1298" d="M367.295,246.2l-.669-21.019s4.176,19.235,26.052,18.986c20.9-.24,20.521-16.945,20.521-16.945l.746,8.473v34.225L400.31,325.754l-17.417,2.178L363.65,251.61Z" transform="translate(-294.815 -128.706)" fill="#6d6bd9"/>
      <path id="Path_1299" data-name="Path 1299" d="M411.86,241.471a2.144,2.144,0,0,1-.249.446,12.65,12.65,0,0,1-.858,1.218,18.006,18.006,0,0,1-3.893,3.773,22.4,22.4,0,0,1-7.272,3.43,25.623,25.623,0,0,1-9.819.677,31.815,31.815,0,0,1-9.433-2.839,41.057,41.057,0,0,1-6.86-4.151,48.512,48.512,0,0,1-4.168-3.43c-.472-.429-.815-.789-1.055-1.029a2.313,2.313,0,0,1-.343-.377,2.368,2.368,0,0,1,.4.317l1.115.96a52.754,52.754,0,0,0,4.236,3.327,42.766,42.766,0,0,0,6.86,4.031,32,32,0,0,0,9.3,2.761,25.641,25.641,0,0,0,9.647-.626,23.017,23.017,0,0,0,7.2-3.276,19.311,19.311,0,0,0,3.936-3.619C411.439,242.037,411.825,241.445,411.86,241.471Z" transform="translate(-295.422 -130.702)" fill="#263238"/>
      <path id="Path_1300" data-name="Path 1300" d="M389.471,418.986l-.317-99.219L360.974,247.38l-.943-21.79L342.88,238.573s-24.981,85.987-25.4,83.02,0,97.392,0,97.392Z" transform="translate(-288.212 -128.765)" fill="#ebebeb"/>
      <path id="Path_1301" data-name="Path 1301" d="M400.633,434.2c-.12,0-.223-22.356-.223-49.935s.1-49.935.223-49.935.223,22.356.223,49.935S400.753,434.2,400.633,434.2Z" transform="translate(-300.052 -144.254)" fill="#263238"/>
      <path id="Path_1302" data-name="Path 1302" d="M347.4,257.21l3.482,2.641L348.438,275.9l41.128,43.083-37.355-49.061,3.182-12.718Z" transform="translate(-292.501 -133.269)" fill="#e0e0e0"/>
      <path id="Path_1303" data-name="Path 1303" d="M386.219,370.309,323.095,351.8,321,303.857l17.314-63.167s-41.266,20.59-44.078,33.71-9.579,44.953-10.291,67.978c-.643,20.581-.737,34.3,3.962,40.914,13.464,18.815,102.169,22.176,137.6,0" transform="translate(-283.417 -130.916)" fill="#ebebeb"/>
      <path id="Path_1304" data-name="Path 1304" d="M390.324,315.509a1.978,1.978,0,0,1-.206-.232c-.129-.163-.334-.412-.566-.7l-2.144-2.744c-1.869-2.418-4.536-5.883-7.821-10.153l-25.667-33.59-1.929-2.573-.069-.086v-.1c1.1-4.391,2.17-8.653,3.19-12.717l.206.274h-8.2V238.423l.069-.051,12.409-9.433,3.43-2.573.858-.66a1.629,1.629,0,0,1,.317-.206l-.283.249-.858.695-3.353,2.624-12.314,9.553.069-.137V252.65l-.206-.2h8.335l-.069.274-3.173,12.718-.043-.189,1.938,2.53L379.8,301.462l7.718,10.231c.858,1.2,1.586,2.135,2.075,2.8.223.309.394.557.532.737Z" transform="translate(-292.461 -128.752)" fill="#263238"/>
      <path id="Path_1305" data-name="Path 1305" d="M426.146,235.015c-5.034-8.8-7.649-7.889-7.649-7.889l.266,3.139v6.595l-2.393,28.3-15.29,61.478L401.4,419.2H459.2L466.4,306.209l-.652-48.683Z" transform="translate(-300.147 -128.98)" fill="#ebebeb"/>
      <path id="Path_1306" data-name="Path 1306" d="M461.019,262.58s14.964,11.045,16.294,28.822c1.055,14.433,3.43,53.957,3.9,62.559.686,13.395-9.75,44.773-36.918,35.889C428,384.516,367.82,364.063,367.82,364.063l4-25.564,71.434,4.288,1.424-59.583Z" transform="translate(-295.409 -134.034)" fill="#ebebeb"/>
      <path id="Path_1307" data-name="Path 1307" d="M365.557,354.311s-20.221-2.187-24.869-1.055c-4.5,1.089-10.908,6.595-10.908,6.595l.094,7.984,32.527,9.1Z" transform="translate(-289.991 -146.904)" fill="#b78876"/>
      <path id="Path_1308" data-name="Path 1308" d="M401.09,317.4a1.449,1.449,0,0,1,.094-.274c.069-.2.172-.463.3-.789.283-.72.695-1.715,1.209-3.019l4.528-11.08,6.758-16.414c.643-1.535,1.278-3.139,2.075-4.708s1.664-3.139,2.573-4.708a105.061,105.061,0,0,1,6.415-9.262c1.166-1.5,2.341-2.967,3.559-4.374v.232l-2.521-6.406-.086-.214.214-.077,10.522-3.559-.111.292c-4.888-8.164-9.013-15.059-11.946-19.947-1.441-2.418-2.676-4.356-3.988-5.145a5.412,5.412,0,0,0-1.6-.643,5.463,5.463,0,0,1-.592-.146,4.958,4.958,0,0,1,.6.077,5.085,5.085,0,0,1,1.655.609,7.315,7.315,0,0,1,2.024,1.964,34.677,34.677,0,0,1,2.1,3.156l12.091,19.878.129.214-.24.077-10.522,3.61.129-.283,2.53,6.406.051.12-.094.1c-1.2,1.389-2.375,2.856-3.533,4.356a105.673,105.673,0,0,0-6.4,9.193c-.918,1.561-1.818,3.1-2.573,4.665s-1.424,3.13-2.067,4.674c-2.573,6.157-4.905,11.706-6.86,16.379s-3.55,8.4-4.657,11.02c-.549,1.278-.986,2.281-1.286,2.993-.146.326-.257.575-.352.772a1.079,1.079,0,0,1-.137.257Z" transform="translate(-300.149 -128.988)" fill="#263238"/>
      <path id="Path_1309" data-name="Path 1309" d="M463.851,400.224a1.644,1.644,0,0,1-.249.266l-.772.746a22.2,22.2,0,0,1-3.284,2.487,21.92,21.92,0,0,1-6,2.521,24.157,24.157,0,0,1-8.576.549,27.118,27.118,0,0,1-4.931-1.046c-1.715-.532-3.362-1.192-5.145-1.809-3.525-1.286-7.315-2.573-11.294-4.013-7.975-2.8-16.765-5.78-26.027-8.824-18.523-6.08-35.417-11.208-47.663-14.87l-14.51-4.288-3.945-1.175-1.021-.309a1.99,1.99,0,0,1-.343-.129l.36.077,1.029.274,3.97,1.089c3.43.96,8.413,2.375,14.578,4.159,12.263,3.576,29.157,8.661,47.706,14.75,9.27,3.036,18.06,6,26.027,8.85,3.979,1.415,7.761,2.761,11.285,4.056,1.767.635,3.43,1.3,5.145,1.835a26.583,26.583,0,0,0,4.862,1.055,24.14,24.14,0,0,0,8.507-.472,22.564,22.564,0,0,0,6-2.427,24.319,24.319,0,0,0,3.31-2.41l.8-.712a1.944,1.944,0,0,1,.18-.232Z" transform="translate(-290.035 -149.382)" fill="#263238"/>
      <path id="Path_1310" data-name="Path 1310" d="M327.2,370.414c0,.094-1.141-.154-2.95-.077a12.969,12.969,0,0,0-3.121.515,14.2,14.2,0,0,0-3.516,1.6,16.431,16.431,0,0,0-4.9,5.025c-.952,1.544-1.372,2.573-1.449,2.573a3.019,3.019,0,0,1,.24-.763,13.208,13.208,0,0,1,.943-1.972,15.315,15.315,0,0,1,4.922-5.24,13.834,13.834,0,0,1,3.645-1.621,12.607,12.607,0,0,1,3.224-.437,10.523,10.523,0,0,1,2.178.2,2.934,2.934,0,0,1,.78.2Z" transform="translate(-287.354 -149.338)" fill="#263238"/>
      <path id="Path_1311" data-name="Path 1311" d="M306.66,362.839a.557.557,0,0,1,.077-.232,2.265,2.265,0,0,1,.394-.557,4.056,4.056,0,0,1,2.247-1.115,11.4,11.4,0,0,1,3.7,0,21.01,21.01,0,0,1,4.4,1.072,19.312,19.312,0,0,1,6.972,4.288,14.579,14.579,0,0,1,1.621,1.9,3.757,3.757,0,0,1,.472.78c-.077.06-.78-1.038-2.307-2.444a20.47,20.47,0,0,0-6.912-4.073,23.228,23.228,0,0,0-4.288-1.089,12.063,12.063,0,0,0-3.6-.1,4.133,4.133,0,0,0-2.17.926A8.412,8.412,0,0,0,306.66,362.839Z" transform="translate(-286.697 -148.023)" fill="#263238"/>
      <path id="Path_1312" data-name="Path 1312" d="M329.891,295.875a6.734,6.734,0,0,1-.292-1.295c-.129-.412-.309-.9-.506-1.466a10.321,10.321,0,0,0-.935-1.835,26.249,26.249,0,0,0-3.216-4.288,34.978,34.978,0,0,0-4.931-4.339,29.723,29.723,0,0,0-10.779-4.948,22.5,22.5,0,0,0-3.593-.463,8.062,8.062,0,0,1-1.329-.1,7.464,7.464,0,0,1,1.338-.069,18.266,18.266,0,0,1,3.645.326,28.3,28.3,0,0,1,10.977,4.9,32.467,32.467,0,0,1,4.974,4.416,24.653,24.653,0,0,1,3.19,4.408,14.537,14.537,0,0,1,.858,1.9,10.851,10.851,0,0,1,.446,1.518,9.042,9.042,0,0,1,.154,1.346Z" transform="translate(-286.363 -136.097)" fill="#263238"/>
      <path id="Path_1313" data-name="Path 1313" d="M459.075,379.769a1.515,1.515,0,0,1,0-.309v-.9c0-.789-.06-1.947-.172-3.43a48.108,48.108,0,0,0-2.573-12.357A17.485,17.485,0,0,0,454.615,359a7.4,7.4,0,0,0-3.344-2.839c-2.873-1.235-6.329-1.072-9.845-1.269l-23.017-.969c-19.021-.858-35.94-1.544-46.574-2.11l.146-.12c-.643,3.91-1.158,7.006-1.509,9.159-.18,1.038-.317,1.844-.42,2.418-.043.257-.086.463-.111.626l-.051.206a1,1,0,0,1,0-.214l.086-.626c.077-.575.2-1.389.343-2.435.326-2.152.789-5.257,1.381-9.176v-.12h.129l46.574,1.938,23.017,1.038c1.767.086,3.49.129,5.145.266a14.912,14.912,0,0,1,4.8,1.081,7.778,7.778,0,0,1,3.516,2.941,17.46,17.46,0,0,1,1.715,3.859,46.307,46.307,0,0,1,2.435,12.435c.094,1.492.094,2.658.086,3.43v.9C459.083,379.658,459.075,379.769,459.075,379.769Z" transform="translate(-295.703 -146.704)" fill="#263238"/>
      <path id="Path_1314" data-name="Path 1314" d="M457.963,319.24c.12,0,.223,6.92.223,15.436s-.1,15.436-.223,15.436-.223-6.92-.223-15.436S457.843,319.24,457.963,319.24Z" transform="translate(-308.218 -142.105)" fill="#263238"/>
      <path id="Path_1315" data-name="Path 1315" d="M294.7,278.17s-.051.2-.172.566a16.387,16.387,0,0,0-.515,1.715c-.42,1.484-.952,3.7-1.544,6.586-1.192,5.78-2.658,14.235-4.288,24.818-.815,5.3-1.715,11.148-2.573,17.417-.437,3.147-.712,6.423-.935,9.819s-.4,6.86-.54,10.5c-.257,7.212-.412,14.827-.206,22.759.069,1.981.137,3.988.3,6,.051,1.012.223,2.007.343,3.01a25.375,25.375,0,0,0,.729,2.967,16.9,16.9,0,0,0,2.847,5.428,12.177,12.177,0,0,0,4.871,3.756h0a74.556,74.556,0,0,0,12.718,4.854c4.434,1.329,9.013,2.4,13.661,3.353a187.851,187.851,0,0,0,30.7,3.739,142.585,142.585,0,0,0,14.656-.377c4.777-.334,9.433-.858,13.935-1.5a146.582,146.582,0,0,0,25.006-5.814,127.431,127.431,0,0,0,20.221-8.678v.283l-27.665-9.836-7.469-2.667-1.93-.7c-.437-.163-.652-.257-.652-.257l.66.214,1.947.66,7.5,2.573,27.785,9.69.334.111-.309.172a127.7,127.7,0,0,1-20.264,8.756,146.407,146.407,0,0,1-25.066,5.874c-4.511.677-9.176,1.183-13.961,1.518a143.371,143.371,0,0,1-14.7.394,187.6,187.6,0,0,1-30.778-3.739c-4.665-.96-9.253-2.032-13.721-3.362a75.886,75.886,0,0,1-12.795-4.9h0a12.623,12.623,0,0,1-5.077-3.893,17.339,17.339,0,0,1-2.907-5.574,25,25,0,0,1-.746-3.019c-.129-1.029-.292-2.041-.343-3.053-.163-2.024-.232-4.039-.292-6-.206-7.958,0-15.573.24-22.794q.206-5.4.557-10.505c.232-3.43.515-6.689.96-9.836.858-6.3,1.767-12.126,2.573-17.417,1.715-10.582,3.207-19.029,4.451-24.8.617-2.89,1.166-5.1,1.612-6.586.189-.746.429-1.295.549-1.664A1.638,1.638,0,0,1,294.7,278.17Z" transform="translate(-283.382 -136.255)" fill="#263238"/>
      <path id="Path_1316" data-name="Path 1316" d="M329.74,355.728c10.556-11.688,10.093-32.467,4.031-47.208-.557,15.968-2.444,30.134-3.885,45.656" transform="translate(-289.985 -140.578)" fill="#e0e0e0"/>
      <path id="Path_1317" data-name="Path 1317" d="M333.81,312a2.375,2.375,0,0,1,0,.514c0,.386-.051.858-.094,1.458-.1,1.329-.24,3.147-.42,5.36-.377,4.579-.858,10.8-1.449,17.674l-1.389,17.683c-.163,2.212-.3,4.031-.4,5.36l-.129,1.449a3.434,3.434,0,0,1-.069.506,1.715,1.715,0,0,1,0-.506c0-.386,0-.858.043-1.466.043-1.269.137-3.1.257-5.368.266-4.528.695-10.788,1.261-17.691s1.132-13.146,1.586-17.666c.232-2.212.42-4.022.557-5.351.077-.592.137-1.072.18-1.449A1.886,1.886,0,0,1,333.81,312Z" transform="translate(-289.999 -141.074)" fill="#263238"/>
      <path id="Path_1318" data-name="Path 1318" d="M364.773,287.38a90.279,90.279,0,0,1,.223,9.064,90.414,90.414,0,0,1-.223,9.064c-.12,0-.223-4.065-.223-9.064S364.653,287.38,364.773,287.38Z" transform="translate(-294.944 -137.567)" fill="#263238"/>
      <path id="Path_1319" data-name="Path 1319" d="M356.79,320.061a9.279,9.279,0,0,0,1.947,4.8,6.256,6.256,0,0,0,4.631,2.461,7.066,7.066,0,0,0,6.234-3.13c1.972-3.139,2.461-9.682.858-13.549-1.089-2.658-3.533-5.145-6.406-5.205a7.094,7.094,0,0,0-6.946,5.4" transform="translate(-293.838 -140.139)" fill="#e0e0e0"/>
      <path id="Path_1320" data-name="Path 1320" d="M357.123,310.814a5.848,5.848,0,0,1,.695-1.852,7.633,7.633,0,0,1,1.415-1.861,6.62,6.62,0,0,1,2.676-1.561,6.7,6.7,0,0,1,1.792-.292,5.394,5.394,0,0,1,1.964.257,7.718,7.718,0,0,1,3.5,2.513,10.111,10.111,0,0,1,2.067,4.288,18.817,18.817,0,0,1,.377,5.085,14.042,14.042,0,0,1-2.187,7.4,6.689,6.689,0,0,1-2.847,2.144,7.649,7.649,0,0,1-3.224.54h0a4.811,4.811,0,0,1-2.307-.566,7.757,7.757,0,0,1-1.715-1.218,8.687,8.687,0,0,1-1.887-2.813,8,8,0,0,1-.6-2.084,4.509,4.509,0,0,1-.052-.566.585.585,0,0,1,0-.2,12.111,12.111,0,0,0,.858,2.761,8.7,8.7,0,0,0,1.9,2.684,7.581,7.581,0,0,0,1.715,1.132,4.545,4.545,0,0,0,2.144.506h0a6.86,6.86,0,0,0,5.7-2.573,13.818,13.818,0,0,0,2.075-7.169c.189-3.43-.386-6.809-2.315-9.09a7.427,7.427,0,0,0-3.327-2.393,5.309,5.309,0,0,0-1.844-.266,6.524,6.524,0,0,0-1.715.249,6.415,6.415,0,0,0-2.573,1.449,7.777,7.777,0,0,0-1.432,1.758A17.153,17.153,0,0,0,357.123,310.814Z" transform="translate(-293.837 -140.111)" fill="#263238"/>
      <path id="Path_1321" data-name="Path 1321" d="M354.45,320.261a9.3,9.3,0,0,0,1.947,4.8,6.241,6.241,0,0,0,4.631,2.461,7.075,7.075,0,0,0,6.234-3.13c1.972-3.147,2.461-9.682.858-13.549-1.089-2.667-3.533-5.145-6.406-5.205a7.092,7.092,0,0,0-6.946,5.394" transform="translate(-293.505 -140.168)" fill="#e0e0e0"/>
      <path id="Path_1322" data-name="Path 1322" d="M354.782,311.006a5.848,5.848,0,0,1,.695-1.844,7.632,7.632,0,0,1,1.415-1.861,6.62,6.62,0,0,1,4.468-1.852,5.42,5.42,0,0,1,1.964.257,7.718,7.718,0,0,1,3.5,2.513,10,10,0,0,1,2.058,4.288,18.472,18.472,0,0,1,.386,5.085,14.066,14.066,0,0,1-2.187,7.4,6.689,6.689,0,0,1-2.847,2.144,7.649,7.649,0,0,1-3.224.54h0a4.811,4.811,0,0,1-2.307-.575,7.467,7.467,0,0,1-1.715-1.209,8.49,8.49,0,0,1-1.887-2.821,7.96,7.96,0,0,1-.6-2.075,4.97,4.97,0,0,0-.06-.566.7.7,0,0,1,0-.2,12.129,12.129,0,0,0,.858,2.753,8.49,8.49,0,0,0,1.9,2.693,7.581,7.581,0,0,0,1.715,1.132,4.648,4.648,0,0,0,2.144.506h0a6.86,6.86,0,0,0,5.694-2.573,13.767,13.767,0,0,0,2.084-7.169c.189-3.43-.386-6.809-2.315-9.09a7.34,7.34,0,0,0-3.3-2.418,5.266,5.266,0,0,0-1.835-.266,6.466,6.466,0,0,0-4.288,1.715,7.778,7.778,0,0,0-1.432,1.758,15.478,15.478,0,0,0-.883,1.732Z" transform="translate(-293.502 -140.139)" fill="#263238"/>
      <path id="Path_1323" data-name="Path 1323" d="M357.846,310.8a4.4,4.4,0,0,0-4.605,2.65,7.606,7.606,0,0,0,0,5.6,6.954,6.954,0,0,0,1.432,2.521,3.773,3.773,0,0,0,2.573,1.243,4.476,4.476,0,0,0,3.542-2.092A8.01,8.01,0,0,0,362,314.149c-.394-1.492-1.492-3.01-3.027-3.053" transform="translate(-293.257 -140.898)" fill="#e0e0e0"/>
      <path id="Path_1324" data-name="Path 1324" d="M358.927,311.087h.343a2.333,2.333,0,0,1,.935.317,4.571,4.571,0,0,1,1.955,2.95,8.035,8.035,0,0,1-.532,5.248,6.655,6.655,0,0,1-1.921,2.521,3.722,3.722,0,0,1-3.31.8,4.631,4.631,0,0,1-2.641-2.161,9.681,9.681,0,0,1-1.1-2.967,6.6,6.6,0,0,1,.858-5.145,4.614,4.614,0,0,1,2.984-1.9,3.369,3.369,0,0,1,.986,0c.214.043.326.077.326.094a6.746,6.746,0,0,0-1.278.077,4.554,4.554,0,0,0-2.761,1.912,6.32,6.32,0,0,0-.712,4.914,9.235,9.235,0,0,0,1.072,2.821,4.194,4.194,0,0,0,2.384,1.955,3.285,3.285,0,0,0,2.924-.7,6.544,6.544,0,0,0,1.818-2.35,7.855,7.855,0,0,0,.592-5.008,4.494,4.494,0,0,0-1.715-2.873A3.551,3.551,0,0,0,358.927,311.087Z" transform="translate(-293.222 -140.889)" fill="#263238"/>
      <path id="Path_1325" data-name="Path 1325" d="M362.992,326.888c-.069,0-.163-.274-.454-.617a3.19,3.19,0,0,0-1.466-.935,7.368,7.368,0,0,0-1.8-.283c-.472,0-.78-.077-.78-.137s.292-.129.78-.18a5.034,5.034,0,0,1,1.938.172,2.8,2.8,0,0,1,1.587,1.183C363.061,326.536,363.044,326.879,362.992,326.888Z" transform="translate(-294.08 -142.884)" fill="#263238"/>
      <path id="Path_1326" data-name="Path 1326" d="M363.695,309.45a1.929,1.929,0,0,1-.532.617,4.124,4.124,0,0,1-1.809.789,4.287,4.287,0,0,1-1.972-.1c-.48-.163-.737-.352-.712-.4a10.077,10.077,0,0,0,2.573.069A10.713,10.713,0,0,0,363.695,309.45Z" transform="translate(-294.106 -140.71)" fill="#263238"/>
      <path id="Path_1327" data-name="Path 1327" d="M433.24,237.82a.648.648,0,0,1,.283.1,7.474,7.474,0,0,1,.763.395,15.091,15.091,0,0,1,2.573,1.835,18.4,18.4,0,0,1,5.523,8.73,55.835,55.835,0,0,1,2.1,10.171c.154,1.321.232,2.393.283,3.13a5.2,5.2,0,0,1,0,1.158,6.535,6.535,0,0,1-.189-1.141c-.111-.815-.257-1.861-.42-3.1a65.683,65.683,0,0,0-2.221-10.085,19,19,0,0,0-5.3-8.627A28.75,28.75,0,0,0,433.24,237.82Z" transform="translate(-304.728 -130.507)" fill="#263238"/>
      <path id="Path_1328" data-name="Path 1328" d="M420.727,347.485c2.487-.094,4.476-2.573,6.963-2.435a3.443,3.443,0,1,1-.583,6.86c-2.616-.3-4.142-3.362-6.7-3.945" transform="translate(-302.901 -145.781)" fill="#263238"/>
      <path id="Path_1329" data-name="Path 1329" d="M440.758,338.485a14.709,14.709,0,0,1-2.324-.189l.137-.858a9.809,9.809,0,0,0,7.667-1.5c2.573-1.861,4.176-5.2,4.862-9.913v-.18c.283-1.869.669-38.547.669-45.51,0-10.882-9.545-12.366-9.956-12.426s-9.064-1.518-13.669,10.359c-4.819,12.443-12.529,36.42-13.035,39.233-.069.343-.163.772-.266,1.261-.806,3.6-2.47,11.088,2.521,15.393,5.566,4.811,9.956,2.95,10.136,2.873l.352.78c-.206.086-5.042,2.187-11.045-3-5.385-4.648-3.645-12.469-2.8-16.234.112-.48.2-.858.257-1.226.515-2.83,8.25-26.91,13.086-39.387s14.51-10.917,14.578-10.891,10.668,1.629,10.668,13.266c0,5.737-.377,43.65-.677,45.639v.172c-.72,4.957-2.47,8.481-5.205,10.488A9.871,9.871,0,0,1,440.758,338.485Z" transform="translate(-301.853 -134.662)" fill="#263238"/>
      <path id="Path_1330" data-name="Path 1330" d="M454.525,288.855a15.8,15.8,0,0,0-1.784-4.288,14.758,14.758,0,0,0-3.387-3.67,14.578,14.578,0,0,0-5.514-2.573,16.113,16.113,0,0,0-10.848,1.415,19.4,19.4,0,0,0-3.782,2.7,1.234,1.234,0,0,1,.2-.257,5.948,5.948,0,0,1,.643-.686,12.864,12.864,0,0,1,2.787-2.032,15.933,15.933,0,0,1,11.105-1.578,14.733,14.733,0,0,1,5.66,2.71,14.235,14.235,0,0,1,3.43,3.833,11.146,11.146,0,0,1,1.321,3.19,7.015,7.015,0,0,1,.18.926A1.133,1.133,0,0,1,454.525,288.855Z" transform="translate(-304.154 -136.16)" fill="#263238"/>
      <path id="Path_1331" data-name="Path 1331" d="M480.924,368.5a30.175,30.175,0,0,0-1.183-3.653,15.916,15.916,0,0,0-5.814-6.98,12.632,12.632,0,0,0-4.717-1.715,40.6,40.6,0,0,0-4.159-.429l-2.821-.2a4.941,4.941,0,0,1-1.029-.137,4.288,4.288,0,0,1,1.038,0l2.83.051a35.575,35.575,0,0,1,4.2.343,12.615,12.615,0,0,1,4.9,1.715,15.514,15.514,0,0,1,5.866,7.238,13.721,13.721,0,0,1,.789,2.736,3.918,3.918,0,0,1,.1,1.029Z" transform="translate(-308.711 -147.249)" fill="#263238"/>
      <path id="Path_1332" data-name="Path 1332" d="M433.75,350.14s8.438-12.769,10.591-14.441,20.581-9.991,22.717-8.653.858,4.236.858,4.236,7.787-2.727,8.618-1.655a3.85,3.85,0,0,1,0,4.391s4.288-.66,4.288.669a5.463,5.463,0,0,1-2.487,4.476c-1.99,1.492-14.93,10.1-15.968,12.486l-4.193-.257Z" transform="translate(-304.801 -143.196)" fill="#b78876"/>
      <path id="Path_1333" data-name="Path 1333" d="M462.05,347.659a3.654,3.654,0,0,1,.386-.806,15.606,15.606,0,0,1,1.389-1.99,23.154,23.154,0,0,1,6.114-5.145,46.241,46.241,0,0,1,7.238-3.43c.952-.369,1.715-.643,2.273-.858a3.741,3.741,0,0,1,.858-.24,3.257,3.257,0,0,1-.8.4l-2.221.952a58.762,58.762,0,0,0-7.118,3.49A25.564,25.564,0,0,0,464.065,345C462.727,346.587,462.127,347.7,462.05,347.659Z" transform="translate(-308.832 -144.377)" fill="#aa6550"/>
      <path id="Path_1334" data-name="Path 1334" d="M449.58,346.979a4.347,4.347,0,0,1,.412-.935c.292-.592.712-1.441,1.295-2.47a23.612,23.612,0,0,1,2.324-3.43,10.709,10.709,0,0,1,1.767-1.758c.712-.48,1.458-.926,2.238-1.389a60.957,60.957,0,0,1,8.233-4.1,22.189,22.189,0,0,1,2.641-.858,4.915,4.915,0,0,1,1.012-.18c0,.077-1.4.4-3.533,1.363a77.514,77.514,0,0,0-8.13,4.193c-.772.454-1.518.909-2.213,1.363a10.71,10.71,0,0,0-1.715,1.655,25.032,25.032,0,0,0-2.367,3.344l-1.424,2.384A4.562,4.562,0,0,1,449.58,346.979Z" transform="translate(-307.056 -143.903)" fill="#aa6550"/>
    </g>
    <g id="freepik--Desk--inject-37" transform="translate(38.06 393.213)">
      <path id="Path_1335" data-name="Path 1335" d="M616,451.343c0,.12-129.379.223-288.944.223s-289-.1-289-.223,129.353-.223,289-.223S616,451.223,616,451.343Z" transform="translate(-38.06 -451.12)" fill="#263238"/>
    </g>
  </g>
</svg>
