<svg xmlns="http://www.w3.org/2000/svg" width="500" height="372.56" viewBox="0 0 500 372.56">
  <g id="Group_1489" data-name="Group 1489" transform="translate(-92 -1343)">
    <g id="Group_1488" data-name="Group 1488">
      <g id="Group_1487" data-name="Group 1487">
        <g id="Group_1486" data-name="Group 1486">
          <g id="Online_Doctor-rafiki" data-name="Online Doctor-rafiki" transform="translate(92 1288)">
            <g id="freepik--background-complete--inject-41">
              <rect id="Rectangle_82" data-name="Rectangle 82" width="500" height="0.25" transform="translate(0 382.4)" fill="#ebebeb"/>
              <rect id="Rectangle_83" data-name="Rectangle 83" width="33.12" height="0.25" transform="translate(416.78 398.49)" fill="#ebebeb"/>
              <rect id="Rectangle_84" data-name="Rectangle 84" width="8.69" height="0.25" transform="translate(322.53 401.21)" fill="#ebebeb"/>
              <rect id="Rectangle_85" data-name="Rectangle 85" width="47.67" height="0.25" transform="translate(368.11 389.21)" fill="#ebebeb"/>
              <rect id="Rectangle_86" data-name="Rectangle 86" width="23.68" height="0.25" transform="translate(52.46 390.89)" fill="#ebebeb"/>
              <rect id="Rectangle_87" data-name="Rectangle 87" width="25.85" height="0.25" transform="translate(85.04 390.89)" fill="#ebebeb"/>
              <rect id="Rectangle_88" data-name="Rectangle 88" width="64.64" height="0.25" transform="translate(131.47 395.11)" fill="#ebebeb"/>
              <path id="Path_1388" data-name="Path 1388" d="M237,337.8H43.91a5.71,5.71,0,0,1-5.7-5.71V60.66A5.71,5.71,0,0,1,43.91,55H237a5.71,5.71,0,0,1,5.71,5.71V332.09A5.71,5.71,0,0,1,237,337.8ZM43.91,55.2a5.46,5.46,0,0,0-5.45,5.46V332.09a5.46,5.46,0,0,0,5.45,5.46H237a5.47,5.47,0,0,0,5.46-5.46V60.66A5.47,5.47,0,0,0,237,55.2Z" fill="#ebebeb"/>
              <path id="Path_1389" data-name="Path 1389" d="M453.31,337.8H260.21a5.72,5.72,0,0,1-5.71-5.71V60.66A5.72,5.72,0,0,1,260.21,55h193.1A5.71,5.71,0,0,1,459,60.66V332.09A5.71,5.71,0,0,1,453.31,337.8ZM260.21,55.2a5.47,5.47,0,0,0-5.46,5.46V332.09a5.47,5.47,0,0,0,5.46,5.46h193.1a5.47,5.47,0,0,0,5.46-5.46V60.66a5.47,5.47,0,0,0-5.46-5.46Z" fill="#ebebeb"/>
              <rect id="Rectangle_89" data-name="Rectangle 89" width="157.97" height="301.4" transform="translate(283.44 81)" fill="#ebebeb"/>
              <rect id="Rectangle_90" data-name="Rectangle 90" width="134.47" height="291.57" transform="translate(295.19 90.83)" fill="#f5f5f5"/>
              <rect id="Rectangle_91" data-name="Rectangle 91" width="37.81" height="10.45" transform="translate(343.53 115.01)" fill="#fff"/>
              <path id="Path_1390" data-name="Path 1390" d="M398.37,218.82h20.51a3.2,3.2,0,0,1,3.2,3.2h0a3.2,3.2,0,0,1-3.2,3.2H398.37a3.2,3.2,0,0,1-3.2-3.2h0a3.2,3.2,0,0,1,3.2-3.2Z" fill="#fff"/>
              <rect id="Rectangle_92" data-name="Rectangle 92" width="105.06" height="84.67" transform="translate(70.38 113.07)" fill="#ebebeb"/>
              <rect id="Rectangle_93" data-name="Rectangle 93" width="73.39" height="93.78" transform="translate(169.79 118.71) rotate(90)" fill="#fafafa"/>
              <rect id="Rectangle_94" data-name="Rectangle 94" width="3.51" height="71.91" transform="translate(158.86 152.86) rotate(90)" fill="#e0e0e0"/>
              <rect id="Rectangle_95" data-name="Rectangle 95" width="3.51" height="71.91" transform="translate(158.86 160.85) rotate(90)" fill="#e0e0e0"/>
              <rect id="Rectangle_96" data-name="Rectangle 96" width="3.51" height="71.91" transform="translate(158.86 168.83) rotate(90)" fill="#e0e0e0"/>
              <rect id="Rectangle_97" data-name="Rectangle 97" width="3.51" height="35.85" transform="translate(140.83 176.82) rotate(90)" fill="#e0e0e0"/>
              <path id="Path_1391" data-name="Path 1391" d="M87,118.71a10.93,10.93,0,0,1-11,10.93,10.82,10.82,0,0,1-5.64-1.57v-15h15A10.93,10.93,0,0,1,87,118.71Z" fill="#ebebeb"/>
              <path id="Path_1392" data-name="Path 1392" d="M175.44,113.07v15a10.93,10.93,0,0,1-15-15Z" fill="#ebebeb"/>
              <path id="Path_1393" data-name="Path 1393" d="M87,192.11a10.87,10.87,0,0,1-1.56,5.63h-15v-15A10.94,10.94,0,0,1,87,192.11Z" fill="#ebebeb"/>
              <path id="Path_1394" data-name="Path 1394" d="M175.44,182.73v15h-15a10.78,10.78,0,0,1-1.57-5.63,10.95,10.95,0,0,1,16.58-9.38Z" fill="#ebebeb"/>
              <circle id="Ellipse_44" data-name="Ellipse 44" cx="9.31" cy="9.31" r="9.31" transform="translate(112.228 144.29) rotate(-80.78)" fill="#e0e0e0"/>
              <rect id="Rectangle_98" data-name="Rectangle 98" width="207.88" height="7.48" transform="translate(52.46 262.15)" fill="#ebebeb"/>
              <rect id="Rectangle_99" data-name="Rectangle 99" width="67.54" height="112.77" transform="translate(191 269.63)" fill="#f5f5f5"/>
              <rect id="Rectangle_100" data-name="Rectangle 100" width="67.54" height="112.77" transform="translate(55.03 269.63)" fill="#f5f5f5"/>
              <rect id="Rectangle_101" data-name="Rectangle 101" width="2.31" height="112.77" transform="translate(55.03 269.63)" fill="#ebebeb"/>
              <rect id="Rectangle_102" data-name="Rectangle 102" width="2.31" height="112.77" transform="translate(191 269.63)" fill="#ebebeb"/>
              <path id="Path_1395" data-name="Path 1395" d="M90.5,244.12H78.08l1,18.03H89.5Z" fill="#f0f0f0"/>
              <rect id="Rectangle_103" data-name="Rectangle 103" width="64.89" height="7.82" transform="translate(133.44 254.33)" fill="#f0f0f0"/>
              <rect id="Rectangle_104" data-name="Rectangle 104" width="29.92" height="5.99" transform="translate(168.42 255.25)" fill="#fafafa"/>
            </g>
            <g id="freepik--Shadow--inject-41">
              <ellipse id="freepik--path--inject-41" cx="193.89" cy="11.32" rx="193.89" ry="11.32" transform="translate(56.11 404.92)" fill="#f5f5f5"/>
            </g>
            <g id="freepik--cross-icon--inject-41">
              <circle id="Ellipse_45" data-name="Ellipse 45" cx="31.68" cy="31.68" r="31.68" transform="translate(309.03 282.86)" fill="#fff"/>
              <path id="Path_1396" data-name="Path 1396" d="M340.71,346.61a32.07,32.07,0,1,1,32.06-32.067,32.07,32.07,0,0,1-32.06,32.067Zm0-63.35A31.29,31.29,0,1,0,372,314.547a31.29,31.29,0,0,0-31.29-31.287Z" fill="#6d6bd9"/>
              <rect id="Rectangle_105" data-name="Rectangle 105" width="10.2" height="35.92" transform="translate(335.61 296.58)" fill="#6d6bd9"/>
              <rect id="Rectangle_106" data-name="Rectangle 106" width="10.2" height="35.92" transform="translate(358.67 309.45) rotate(90)" fill="#6d6bd9"/>
            </g>
            <g id="freepik--pulse-icon--inject-41">
              <path id="Path_1397" data-name="Path 1397" d="M126.11,75.07l-.68-.73a30.75,30.75,0,0,1,16.81-8.1l.14,1a29.74,29.74,0,0,0-16.27,7.83Z" fill="#6d6bd9"/>
              <path id="Path_1398" data-name="Path 1398" d="M118.71,86l-.93-.36a30.77,30.77,0,0,1,4-7.14l.8.6a30.24,30.24,0,0,0-3.87,6.9Z" fill="#6d6bd9"/>
              <circle id="Ellipse_46" data-name="Ellipse 46" cx="27.44" cy="27.44" r="27.44" transform="translate(119.17 69.43)" fill="#6d6bd9"/>
              <path id="Path_1399" data-name="Path 1399" d="M163,84.51a11.46,11.46,0,0,0-16.36-.15,11.45,11.45,0,0,0-16.35.15,11.71,11.71,0,0,0,.41,16.32l13,13a4.2,4.2,0,0,0,5.94,0l13-13A11.71,11.71,0,0,0,163,84.51Z" fill="#fff"/>
              <path id="Path_1400" data-name="Path 1400" d="M146.61,108.86h0a1,1,0,0,1-.91-.67l-5.79-16.93-2.42,7.08a1,1,0,0,1-.95.67h-9.69a1,1,0,0,1,0-2h9l3.14-9.17a1,1,0,0,1,1.89,0l5.89,17.23,5.72-13.47a1,1,0,0,1,1.79-.1L157.3,97h9.11a1,1,0,0,1,0,2h-9.69a1,1,0,0,1-.88-.51l-2.37-4.24-5.94,14A1,1,0,0,1,146.61,108.86Z" fill="#6d6bd9"/>
            </g>
            <g id="freepik--Character--inject-41">
              <path id="Path_1401" data-name="Path 1401" d="M298.86,381.2H194.49A12.26,12.26,0,0,1,182.13,368L199,118a14.44,14.44,0,0,1,14.15-13.25H317.54A12.26,12.26,0,0,1,329.9,118L313,368A14.43,14.43,0,0,1,298.86,381.2Z" fill="#263238"/>
              <path id="Path_1402" data-name="Path 1402" d="M322,206.56h-2.63a3.42,3.42,0,0,1-3.45-3.7l3.23-47.79a4,4,0,0,1,3.95-3.7h2.63a3.42,3.42,0,0,1,3.45,3.7l-3.23,47.79A4,4,0,0,1,322,206.56Z" fill="#263238"/>
              <path id="Path_1403" data-name="Path 1403" d="M197.48,174.68h-2.62a2.8,2.8,0,0,1-2.83-3l1.17-17.26a3.3,3.3,0,0,1,3.23-3h2.63a2.81,2.81,0,0,1,2.82,3l-1.17,17.26a3.29,3.29,0,0,1-3.23,3Z" fill="#6d6bd9"/>
              <path id="Path_1404" data-name="Path 1404" d="M195.4,205.5h-2.63a2.8,2.8,0,0,1-2.82-3l1.17-17.26a3.3,3.3,0,0,1,3.23-3H197a2.81,2.81,0,0,1,2.82,3l-1.17,17.26a3.29,3.29,0,0,1-3.25,3Z" fill="#6d6bd9"/>
              <path id="Path_1405" data-name="Path 1405" d="M296.65,381.2H192.28A12.26,12.26,0,0,1,179.92,368L196.8,118A14.44,14.44,0,0,1,211,104.79H315.33A12.26,12.26,0,0,1,327.69,118L310.8,368a14.43,14.43,0,0,1-14.15,13.2Z" fill="#6d6bd9"/>
              <path id="Path_1406" data-name="Path 1406" d="M181.02,365.2,197.5,121.24H326.56L310.08,365.2Z" fill="#fff" opacity="0.3"/>
              <path id="Path_1407" data-name="Path 1407" d="M231.97,365.2l46.06-243.96h28.91L260.88,365.2Z" fill="#fff" opacity="0.1"/>
              <path id="Path_1408" data-name="Path 1408" d="M210.13,365.2l46.06-243.96h14.65L224.78,365.2Z" fill="#fff" opacity="0.1"/>
              <path id="Path_1409" data-name="Path 1409" d="M250.14,110.92h25.17a1.5,1.5,0,0,1,1.52,1.63h0a1.78,1.78,0,0,1-1.74,1.64H249.92a1.51,1.51,0,0,1-1.52-1.64h0a1.77,1.77,0,0,1,1.74-1.63Z" fill="#fff"/>
              <path id="Path_1410" data-name="Path 1410" d="M244.9,405.25l-8.82.84-3.18-20.35,8.82-.85Z" fill="#ffb573"/>
              <path id="Path_1411" data-name="Path 1411" d="M235.07,401.78l9.24-2.87a.65.65,0,0,1,.82.38l3,7.33a1.52,1.52,0,0,1-1,2c-3.34,1-6.52,1.23-10.55,3-4.71,2-6.68,4.68-11.75,4.68-3.63,0-4.45-3.33-2.91-3.79,7-2.12,6.08-3.86,11.16-9.33A4.68,4.68,0,0,1,235.07,401.78Z" fill="#263238"/>
              <path id="Path_1412" data-name="Path 1412" d="M232.9,385.74l1.64,10.5,8.83-.85-1.64-10.5Z" opacity="0.2"/>
              <path id="Path_1413" data-name="Path 1413" d="M239.28,128.6c-11.57-1.36-23.08-.45-34.63,1.79a9.23,9.23,0,0,0-7.41,8c-1.25,11.06-2.68,35.85,2.9,72.83l47.28-4c.09-6.71-4.68-37.28-.74-69a8.47,8.47,0,0,0-7.4-9.62Z" fill="#fff"/>
              <path id="Path_1414" data-name="Path 1414" d="M211.75,138.08l1.69,3.38a1,1,0,0,0,.89.58l1.83.1a1.42,1.42,0,0,0,.91-.28l3.15-2.35-3.89-2.83Z" fill="#263238"/>
              <path id="Path_1415" data-name="Path 1415" d="M216.22,141.17a3.08,3.08,0,0,0-2.13-.17c-1.49,5.25-3.12,20.32-3.29,27,4.52,13.17,6,14.5,6,14.5l2.29-15.85S216.52,150.44,216.22,141.17Z" fill="#263238"/>
              <path id="Path_1416" data-name="Path 1416" d="M229.27,105.8c-1.08,6.52-2,18.43,2.68,22.64-3.43,3.6-7.92,7.77-15.62,8.24s-6.51-4.86-4.56-7.71c7.19-1.92,6.84-7.28,5.43-12.29Z" fill="#ffb573"/>
              <path id="Path_1417" data-name="Path 1417" d="M233.91,127.87a9.6,9.6,0,0,0-1.69-.55.67.67,0,0,0-.75.31c-.74,1.26-3,6.89-15.14,9.05,2,1.18,4.65,4.84,5.79,6.6,3.64-1.89,13.11-7.54,12.21-14.85A.74.74,0,0,0,233.91,127.87Z" fill="#f5f5f5"/>
              <path id="Path_1418" data-name="Path 1418" d="M211.84,129.27a.7.7,0,0,0-.82-.84,9.393,9.393,0,0,0-1.24.33,1,1,0,0,0-.26.15c-.93.86-6,8.18-1.25,14.1,1-1.61,4.45-5.26,8.06-6.33C212.91,135.14,211.23,132.27,211.84,129.27Z" fill="#f5f5f5"/>
              <path id="Path_1419" data-name="Path 1419" d="M224.35,110.24l-7.14,6.44a20.619,20.619,0,0,1,.72,3.56c2.76-.47,6.47-3.6,6.67-6.5a9.48,9.48,0,0,0-.25-3.5Z" opacity="0.2"/>
              <path id="Path_1420" data-name="Path 1420" d="M214.81,86.09c-6.16,2.41-6.56,7.47-6,13s6.58,1.87,7.92-1.59S223.34,82.75,214.81,86.09Z" fill="#263238"/>
              <path id="Path_1421" data-name="Path 1421" d="M234.46,97.12c-1.71,8.71-2.28,13.88-7.26,17.89-7.51,6-17.68.82-18.58-8.16-.81-8.09,2.12-21,11.09-23.52a11.72,11.72,0,0,1,14.75,13.79Z" fill="#ffb573"/>
              <path id="Path_1422" data-name="Path 1422" d="M234.1,104.33c-7.33.39-5.78-3.77-4.45-6.16s-1.38-6.34.39-8.39c-3.16,1.26-6.49.22-10.72-2.72-3.28-2.29-7.39,6.86-11.39,2.27-3.78-4.33-.27-10.86,8.81-11.91s10.73,5.37,16.69,4.8,3.89,4.34,2.72,5.34C241.15,87.89,243.88,92.67,234.1,104.33Z" fill="#263238"/>
              <path id="Path_1423" data-name="Path 1423" d="M235,88.17a7.34,7.34,0,0,0,3.81-6.39C240.79,85.25,240.58,89.19,235,88.17Z" fill="#263238"/>
              <path id="Path_1424" data-name="Path 1424" d="M216,106.42a6,6,0,0,0,4.58-1.08.2.2,0,0,0,0-.29.21.21,0,0,0-.29,0,5.77,5.77,0,0,1-5.09.79.23.23,0,0,0-.27.14.21.21,0,0,0,.14.26,5.29,5.29,0,0,0,.93.18Z" fill="#263238"/>
              <path id="Path_1425" data-name="Path 1425" d="M236.23,107a8.52,8.52,0,0,1-5.59,3.22c-2.91.38-3.88-2.33-2.66-4.86,1.11-2.28,4-5.22,6.68-4.43S237.91,104.8,236.23,107Z" fill="#ffb573"/>
              <path id="Path_1426" data-name="Path 1426" d="M233.34,296.37c.35-26.11,3.69-88.3,3.69-88.3l-36.86,3.11s7.33,64.09,11.75,90.73c4.6,27.69,18.71,92.56,18.71,92.56l15-1.28S240.15,316.56,233.34,296.37Z" fill="#263238"/>
              <path id="Path_1427" data-name="Path 1427" d="M229.73,394.88l17.79-1.51-.7-5.74-18.54,1.24Z" fill="#6d6bd9"/>
              <path id="Path_1428" data-name="Path 1428" d="M221.32,97.64c-.09.71-.55,1.25-1,1.2s-.76-.67-.66-1.39.55-1.25,1-1.2S221.42,96.93,221.32,97.64Z" fill="#263238"/>
              <path id="Path_1429" data-name="Path 1429" d="M213.16,97c-.09.72-.55,1.25-1,1.2s-.76-.67-.66-1.38.55-1.25,1-1.2S213.26,96.25,213.16,97Z" fill="#263238"/>
              <path id="Path_1430" data-name="Path 1430" d="M215.46,97.84a24.821,24.821,0,0,1-4.3,5c1.06,1.11,3.25.81,3.25.81Z" fill="#ed893e"/>
              <path id="Path_1431" data-name="Path 1431" d="M208,97.18c-.15,1.14,1,2.09,2.59,2.29s3.06-.67,3.2-1.81" fill="#6d6bd9" opacity="0.4"/>
              <path id="Path_1432" data-name="Path 1432" d="M217.45,98.24c-.22,1.13.89,2.15,2.45,2.45s3.09-.5,3.3-1.62" fill="#6d6bd9" opacity="0.4"/>
              <path id="Path_1433" data-name="Path 1433" d="M220.52,101a4.891,4.891,0,0,1-.54,0,3.8,3.8,0,0,1-2.07-.93,2.08,2.08,0,0,1-.72-1.77,5,5,0,0,0-1.6-.4,3.49,3.49,0,0,0-1.69,0c-.14,1.22-1.66,2.06-3.36,1.85a3.72,3.72,0,0,1-2.07-.92,2.1,2.1,0,0,1-.72-1.77l.48.06a1.61,1.61,0,0,0,.57,1.36,3.24,3.24,0,0,0,1.8.79c1.44.19,2.72-.48,2.85-1.48.07-.56,1.23-.52,2.19-.4s2.1.39,2,.94a1.6,1.6,0,0,0,.57,1.36,3.44,3.44,0,0,0,3.75.48,1.6,1.6,0,0,0,.9-1.17v-.24l12.34,1.59-.06.48L223.26,99.3a2.15,2.15,0,0,1-1.1,1.29A3.53,3.53,0,0,1,220.52,101Z" fill="#263238"/>
              <path id="Path_1434" data-name="Path 1434" d="M224.46,94.5a.36.36,0,0,0,.2-.06.43.43,0,0,0,.16-.58,4,4,0,0,0-3.14-2.1.43.43,0,0,0-.45.4.42.42,0,0,0,.39.44h0a3.21,3.21,0,0,1,2.47,1.7.41.41,0,0,0,.37.2Z" fill="#263238"/>
              <path id="Path_1435" data-name="Path 1435" d="M210.52,93.37a.43.43,0,0,0,.37-.15,3.41,3.41,0,0,1,2.76-1.34.42.42,0,0,0,.46-.38.41.41,0,0,0-.36-.46,4.3,4.3,0,0,0-3.5,1.65.42.42,0,0,0,.05.59A.51.51,0,0,0,210.52,93.37Z" fill="#263238"/>
              <path id="Path_1436" data-name="Path 1436" d="M264.05,292.16c-7.65-39.32-9.37-70.07-16.63-85l-35.71,4s21.27,58.59,31.66,83.6c10.79,26,32.09,70.42,32.09,70.42H293.3S276.65,310.07,264.05,292.16Z" fill="#263238"/>
              <path id="Path_1437" data-name="Path 1437" d="M150.86,143.31,147,140.87a3.22,3.22,0,0,0-4.06.47l-2.62,2.76a3,3,0,0,0,.26,4.37l1.87,1.6a15.25,15.25,0,0,0,5.57,3l5.65,1.67,3.71-4C158.51,146.57,150.86,143.31,150.86,143.31Z" fill="#ffb573"/>
              <path id="Path_1438" data-name="Path 1438" d="M208,141.44c-1.4,3.42-2.77,6.6-4.26,9.85s-3,6.46-4.67,9.65-3.45,6.36-5.47,9.54a54.831,54.831,0,0,1-3.37,4.75,30.342,30.342,0,0,1-4.6,4.77,16.509,16.509,0,0,1-3.69,2.28c-.42.16-.81.32-1.27.46l-.7.19a8.348,8.348,0,0,1-1.07.19,10,10,0,0,1-3.64-.26,14.82,14.82,0,0,1-4.18-1.91,24,24,0,0,1-2.75-2,65.719,65.719,0,0,1-7.95-8.27c-2.33-2.8-4.53-5.61-6.64-8.48s-4.14-5.69-6.22-8.7l11.06-7.14a149.168,149.168,0,0,0,11.56,16.15,54.439,54.439,0,0,0,6.37,6.59,12.562,12.562,0,0,0,1.41,1c.37.25.74.35.48.26a2.56,2.56,0,0,0-1.08-.06,2.38,2.38,0,0,0-.43.08h-.14a6.053,6.053,0,0,0,.65-.49,18.449,18.449,0,0,0,2.47-2.74c.85-1.14,1.7-2.42,2.51-3.75a91.717,91.717,0,0,0,4.52-8.54c1.4-3,2.75-6,4-9.12s2.44-6.29,3.45-9.32Z" fill="#6d6bd9"/>
              <g id="Group_1247" data-name="Group 1247" opacity="0.6">
                <path id="Path_1439" data-name="Path 1439" d="M208,141.44c-1.4,3.42-2.77,6.6-4.26,9.85s-3,6.46-4.67,9.65-3.45,6.36-5.47,9.54a54.831,54.831,0,0,1-3.37,4.75,30.342,30.342,0,0,1-4.6,4.77,16.509,16.509,0,0,1-3.69,2.28c-.42.16-.81.32-1.27.46l-.7.19a8.348,8.348,0,0,1-1.07.19,10,10,0,0,1-3.64-.26,14.82,14.82,0,0,1-4.18-1.91,24,24,0,0,1-2.75-2,65.719,65.719,0,0,1-7.95-8.27c-2.33-2.8-4.53-5.61-6.64-8.48s-4.14-5.69-6.22-8.7l11.06-7.14a149.168,149.168,0,0,0,11.56,16.15,54.439,54.439,0,0,0,6.37,6.59,12.562,12.562,0,0,0,1.41,1c.37.25.74.35.48.26a2.56,2.56,0,0,0-1.08-.06,2.38,2.38,0,0,0-.43.08h-.14a6.053,6.053,0,0,0,.65-.49,18.449,18.449,0,0,0,2.47-2.74c.85-1.14,1.7-2.42,2.51-3.75a91.717,91.717,0,0,0,4.52-8.54c1.4-3,2.75-6,4-9.12s2.44-6.29,3.45-9.32Z" fill="#fff"/>
              </g>
              <path id="Path_1440" data-name="Path 1440" d="M234.18,126.09c-3.75,7-17.1,33.67-18.72,50.13-5.91-15-4.62-48.18-4.62-48.18a44.43,44.43,0,0,0-12.27,3A7.41,7.41,0,0,0,194,137.3a262.069,262.069,0,0,0,1.62,51.47c4.15,32.3,8,82.53,8,82.53s33.05-1.38,58.55-6.76c-3.11-24.69-13.75-66.07-13.85-77.15-.12-14.26.21-42.14.66-53.78a6.89,6.89,0,0,0-5.52-7.07A34.57,34.57,0,0,0,234.18,126.09Z" fill="#6d6bd9"/>
              <path id="Path_1441" data-name="Path 1441" d="M234.18,126.09c-3.75,7-17.1,33.67-18.72,50.13-5.91-15-4.62-48.18-4.62-48.18a44.43,44.43,0,0,0-12.27,3A7.41,7.41,0,0,0,194,137.3a262.069,262.069,0,0,0,1.62,51.47c4.15,32.3,8,82.53,8,82.53s33.05-1.38,58.55-6.76c-3.11-24.69-13.75-66.07-13.85-77.15-.12-14.26.21-42.15.66-53.79a6.78,6.78,0,0,0-5.21-7,34.31,34.31,0,0,0-9.59-.51Z" fill="#fff" opacity="0.7"/>
              <path id="Path_1442" data-name="Path 1442" d="M226.39,265.94c-5.74-31.67-10.29-78.14-10.66-83.73h.51c.37,5.59,4.93,52,10.66,83.67Z" fill="#fff"/>
              <path id="Path_1443" data-name="Path 1443" d="M223.53,209.6H193.05a2.85,2.85,0,0,1-2.64-2.17l-10.19-47.37a1.7,1.7,0,0,1,1.7-2.17h30.47a2.85,2.85,0,0,1,2.65,2.17l10.19,47.37a1.7,1.7,0,0,1-1.7,2.17Z" fill="#fff"/>
              <path id="Path_1444" data-name="Path 1444" d="M222.58,210h-31a2.91,2.91,0,0,1-2.69-2.21l-10.37-48.17a1.74,1.74,0,0,1,1.74-2.21h31a2.91,2.91,0,0,1,2.69,2.21l10.36,48.17a1.73,1.73,0,0,1-1.73,2.21Z" fill="#6d6bd9"/>
              <path id="Path_1445" data-name="Path 1445" d="M226.13,182.82l-7.71-.29a6.61,6.61,0,0,0-2.71.48l-4,1.6a3,3,0,0,0-1.64,4l1.6,3.46a3.24,3.24,0,0,0,3.7,1.74l4.41-1.1s8.28-.66,8.58-5Z" fill="#ffb573"/>
              <path id="Path_1446" data-name="Path 1446" d="M247.42,130.38c1.91,3,3.66,5.74,5.38,8.68s3.41,5.85,5,8.89,3.1,6.18,4.47,9.54a48.59,48.59,0,0,1,1.82,5.39,22.591,22.591,0,0,1,.88,6.87v.39a1.918,1.918,0,0,1,0,.2,5.774,5.774,0,0,1-.17,1.08c-.07.36-.16.64-.26,1a6.9,6.9,0,0,1-.32.83,11.17,11.17,0,0,1-1.46,2.42,17.451,17.451,0,0,1-2.77,2.76,36.41,36.41,0,0,1-5,3.31,95.271,95.271,0,0,1-9.52,4.54c-3.15,1.34-6.29,2.56-9.45,3.71s-6.27,2.26-9.56,3.36l-3.81-12.6c3-.82,6.06-1.83,9.05-2.85s6-2.16,8.84-3.35a77.913,77.913,0,0,0,8.14-3.93,23.49,23.49,0,0,0,3.17-2.11,3.809,3.809,0,0,0,.7-.69,1.07,1.07,0,0,0-.2.33.656.656,0,0,1-.1.26,2.371,2.371,0,0,0-.09.36,2.43,2.43,0,0,0-.08.47c0,.06,0,.07,0,.05v-.07a11.76,11.76,0,0,0-.55-2.79,36.078,36.078,0,0,0-1.42-3.85,78.1,78.1,0,0,0-4.14-8.07c-1.56-2.68-3.22-5.36-5-8s-3.6-5.27-5.43-7.67Z" fill="#6d6bd9"/>
              <g id="Group_1248" data-name="Group 1248" opacity="0.7">
                <path id="Path_1447" data-name="Path 1447" d="M247.42,130.38c1.91,3,3.66,5.74,5.38,8.68s3.41,5.85,5,8.89,3.1,6.18,4.47,9.54a48.59,48.59,0,0,1,1.82,5.39,22.591,22.591,0,0,1,.88,6.87v.39a1.918,1.918,0,0,1,0,.2,5.774,5.774,0,0,1-.17,1.08c-.07.36-.16.64-.26,1a6.9,6.9,0,0,1-.32.83,11.17,11.17,0,0,1-1.46,2.42,17.451,17.451,0,0,1-2.77,2.76,36.41,36.41,0,0,1-5,3.31,95.271,95.271,0,0,1-9.52,4.54c-3.15,1.34-6.29,2.56-9.45,3.71s-6.27,2.26-9.56,3.36l-3.81-12.6c3-.82,6.06-1.83,9.05-2.85s6-2.16,8.84-3.35a77.913,77.913,0,0,0,8.14-3.93,23.49,23.49,0,0,0,3.17-2.11,3.809,3.809,0,0,0,.7-.69,1.07,1.07,0,0,0-.2.33.656.656,0,0,1-.1.26,2.371,2.371,0,0,0-.09.36,2.43,2.43,0,0,0-.08.47c0,.06,0,.07,0,.05v-.07a11.76,11.76,0,0,0-.55-2.79,36.078,36.078,0,0,0-1.42-3.85,78.1,78.1,0,0,0-4.14-8.07c-1.56-2.68-3.22-5.36-5-8s-3.6-5.27-5.43-7.67Z" fill="#fff"/>
              </g>
              <path id="Path_1448" data-name="Path 1448" d="M237.3,165.08a.4.4,0,0,1-.21-.74l1.56-1a8.5,8.5,0,0,0,3.8-8.86l-3.14-15.9a5.38,5.38,0,0,0-10.46-.44l-4.45,15.59a8.47,8.47,0,0,0,3,9.14l1.48,1.12a.4.4,0,0,1,.07.56.39.39,0,0,1-.55.07l-1.4-1.11a9.28,9.28,0,0,1-3.33-10l4.46-15.59a6.18,6.18,0,0,1,12,.5l3.14,15.91a9.28,9.28,0,0,1-4.15,9.68l-1.57,1a.33.33,0,0,1-.25.07Z" fill="#263238"/>
              <path id="Path_1449" data-name="Path 1449" d="M239.7,138.91h0l-11.23-.47a.4.4,0,0,1-.38-.42.42.42,0,0,1,.42-.38l11.22.47a.4.4,0,0,1,.38.42.39.39,0,0,1-.41.38Z" fill="#263238"/>
              <path id="Path_1450" data-name="Path 1450" d="M234.24,134.25a.41.41,0,0,1-.4-.39c0-2-.62-5.47-2.49-6.23a.4.4,0,1,1,.3-.74c2.77,1.14,3,6.36,3,7a.41.41,0,0,1-.39.41Z" fill="#263238"/>
              <path id="Path_1451" data-name="Path 1451" d="M199.89,147.84h-.08a.4.4,0,0,1-.31-.47c1.32-6.57,6.78-16.94,11.59-20a.39.39,0,0,1,.54.13.38.38,0,0,1-.12.54c-4.65,2.94-9.95,13-11.23,19.47A.4.4,0,0,1,199.89,147.84Z" fill="#263238"/>
              <path id="Path_1452" data-name="Path 1452" d="M203.17,148.87c-.62,1.59-2,2.55-3,2.14s-1.39-2-.77-3.63,2-2.55,3-2.13S203.8,147.28,203.17,148.87Z" fill="#fff"/>
              <path id="Path_1453" data-name="Path 1453" d="M229.57,164.36c0,.74-.46,1.33-.95,1.31s-.87-.64-.84-1.39.46-1.34.95-1.31S229.6,163.61,229.57,164.36Z" fill="#fff"/>
              <path id="Path_1454" data-name="Path 1454" d="M238.19,164.72c0,.74-.45,1.33-.95,1.31s-.86-.64-.83-1.39.45-1.33,1-1.31S238.22,164,238.19,164.72Z" fill="#fff"/>
            </g>
            <g id="freepik--Chat--inject-41">
              <path id="Path_1455" data-name="Path 1455" d="M407.77,150.85l-1-.06a15.41,15.41,0,0,0-15.49-16.61v-1a16.4,16.4,0,0,1,16.49,17.67Z" fill="#6d6bd9"/>
              <rect id="Rectangle_107" data-name="Rectangle 107" width="8.3" height="1.002" transform="translate(407.718 163.323) rotate(-85.996)" fill="#6d6bd9"/>
              <path id="Path_1456" data-name="Path 1456" d="M391.28,136.68h-69a15.18,15.18,0,0,0-14.88,13.94l-.63,9.29a12.91,12.91,0,0,0,13,13.94h69l13.38,8.25,2.12-31.48a12.9,12.9,0,0,0-12.99-13.94Z" fill="#6d6bd9"/>
              <rect id="Rectangle_108" data-name="Rectangle 108" width="63.91" height="2.32" transform="translate(323.87 149.99)" fill="#fff"/>
              <rect id="Rectangle_109" data-name="Rectangle 109" width="47.45" height="2.32" transform="translate(339.77 158.22)" fill="#fff"/>
              <path id="Path_1457" data-name="Path 1457" d="M287.48,186.38H358a13.19,13.19,0,0,1,13.29,14.25l-.64,9.5a15.53,15.53,0,0,1-15.21,14.25H284.91l-14.82,8.45,2.18-32.2a15.52,15.52,0,0,1,15.21-14.25Z" fill="#fff"/>
              <path id="Path_1458" data-name="Path 1458" d="M287.48,186.38H358a13.19,13.19,0,0,1,13.29,14.25l-.64,9.5a15.53,15.53,0,0,1-15.21,14.25H284.91l-14.82,8.45,2.18-32.2a15.52,15.52,0,0,1,15.21-14.25Z" fill="#6d6bd9" opacity="0.15"/>
              <rect id="Rectangle_110" data-name="Rectangle 110" width="65.36" height="2.38" transform="translate(289.06 199.99)" fill="#6d6bd9" opacity="0.5"/>
              <rect id="Rectangle_111" data-name="Rectangle 111" width="25.83" height="2.38" transform="translate(288.49 208.4)" fill="#6d6bd9" opacity="0.5"/>
              <rect id="Rectangle_112" data-name="Rectangle 112" width="16.5" height="2.38" transform="translate(320.65 208.4)" fill="#6d6bd9" opacity="0.5"/>
            </g>
          </g>
        </g>
      </g>
    </g>
  </g>
</svg>
