<svg xmlns="http://www.w3.org/2000/svg" width="74" height="74" viewBox="0 0 74 74">
  <g id="Group_1487" data-name="Group 1487" transform="translate(-957 -817)">
    <rect id="Rectangle_81" data-name="Rectangle 81" width="74" height="74" rx="5" transform="translate(957 817)" fill="#dcdbfc"/>
    <g id="laptop" transform="translate(971.473 831.131)">
      <path id="Path_1368" data-name="Path 1368" d="M33.738,10H40.58a1.368,1.368,0,0,1,1.368,1.368V29.843H5V11.368A1.368,1.368,0,0,1,6.368,10Z" transform="translate(-0.947 -2.526)" fill="#8e95a3"/>
      <path id="Path_1369" data-name="Path 1369" d="M11.211,52H4.368A1.368,1.368,0,0,1,3,50.632V48.579L4.368,39H41.317l1.368,9.579v2.053A1.368,1.368,0,0,1,41.317,52Z" transform="translate(-0.316 -11.683)" fill="#edf9fa"/>
      <path id="Path_1370" data-name="Path 1370" d="M3,53H42.686v2.053a1.368,1.368,0,0,1-1.368,1.368H4.368A1.368,1.368,0,0,1,3,55.053Z" transform="translate(-0.316 -16.104)" fill="#8e95a3"/>
      <path id="Path_1371" data-name="Path 1371" d="M14.368,55.685V52.948L13,50.9V45.763a1.026,1.026,0,1,1,2.053,0V44.395a1.026,1.026,0,1,1,2.053,0V43.026a1.026,1.026,0,1,1,2.053,0v.684a1.026,1.026,0,0,1,2.053,0v3.421a1.026,1.026,0,1,1,2.053,0v4.448l-2.053,1.368v2.737Z" transform="translate(-3.474 -12.63)" fill="#ffcbbe"/>
      <path id="Path_1372" data-name="Path 1372" d="M44.9,55.685V52.948L46.264,50.9V45.763a1.026,1.026,0,1,0-2.053,0V44.395a1.026,1.026,0,1,0-2.053,0V43.026a1.026,1.026,0,1,0-2.053,0v.684a1.026,1.026,0,0,0-2.053,0v3.421a1.026,1.026,0,1,0-2.053,0v4.448l2.053,1.368v2.737Z" transform="translate(-10.736 -12.63)" fill="#ffcbbe"/>
      <path id="Path_1373" data-name="Path 1373" d="M9.684,14H39.791a.684.684,0,0,1,.684.684V31.106H9V14.684A.684.684,0,0,1,9.684,14Z" transform="translate(-2.21 -3.789)" fill="#05b7eb"/>
      <path id="Path_1374" data-name="Path 1374" d="M13,3H39V27.633H13Z" transform="translate(-3.474 -0.316)" fill="#91d1f5"/>
      <path id="Path_1375" data-name="Path 1375" d="M18,7h8.211V9.737H18Z" transform="translate(-5.052 -1.579)" fill="#898890"/>
      <g id="Group_1246" data-name="Group 1246" transform="translate(12.263 6.79)">
        <path id="Path_1376" data-name="Path 1376" d="M25.211,13.053V11H18.368v2.053L17,14.421v7.527h9.579V14.421Z" transform="translate(-17 -9.632)" fill="#fff"/>
        <path id="Path_1377" data-name="Path 1377" d="M44.695,17.108A4.116,4.116,0,0,1,41,19.421V16Z" transform="translate(-24.578 -11.21)" fill="#fff"/>
        <ellipse id="Ellipse_43" data-name="Ellipse 43" cx="4" cy="4.5" rx="4" ry="4.5" transform="translate(12.263 -0.42)" fill="#fff"/>
      </g>
      <path id="Path_1378" data-name="Path 1378" d="M44.695,17.108A4.116,4.116,0,0,1,41,19.421V16Z" transform="translate(-12.315 -4.421)" fill="#3780ea"/>
      <path id="Path_1379" data-name="Path 1379" d="M43.047,36.8l-1.362-9.531V8.842A2.059,2.059,0,0,0,39.633,6.79H36.212V2.684A.684.684,0,0,0,35.528,2h-26a.684.684,0,0,0-.684.684V6.79H5.421A2.059,2.059,0,0,0,3.368,8.842V27.269L2.007,36.8A.452.452,0,0,0,2,36.9v2.053A2.059,2.059,0,0,0,4.053,41h6.158v2.053a.684.684,0,0,0,.684.684h6.842a.684.684,0,0,0,.684-.684V41h8.211v2.053a.684.684,0,0,0,.684.684h6.842a.684.684,0,0,0,.684-.684V41H41a2.059,2.059,0,0,0,2.053-2.053V36.9a.451.451,0,0,0-.007-.1ZM36.212,8.158h3.421a.684.684,0,0,1,.684.684v17.79H38.949V10.9A1.373,1.373,0,0,0,37.58,9.527H36.212Zm0,2.737H37.58V26.633H36.212Zm-26-7.527H34.843V26.633H10.211ZM4.737,8.842a.684.684,0,0,1,.684-.684H8.842V9.527H7.474A1.373,1.373,0,0,0,6.105,10.9V26.633H4.737ZM8.842,10.9V26.633H7.474V10.9ZM4.053,39.633a.684.684,0,0,1-.684-.684V37.58H8.842v.684a.662.662,0,0,0,.116.376l.657.992Zm15.053-1.054-1.745,1.17a.684.684,0,0,0-.308.568V42.37H11.579V40.317a.662.662,0,0,0-.116-.376l-1.252-1.882V33.133a.342.342,0,1,1,.684,0v1.711a.684.684,0,0,0,1.368,0V31.764a.342.342,0,1,1,.684,0v2.395a.684.684,0,0,0,1.368,0V30.4a.342.342,0,1,1,.684,0v3.763a.684.684,0,0,0,1.368,0V31.08a.342.342,0,0,1,.684,0v5.132a.684.684,0,0,0,1.368,0V34.5a.342.342,0,1,1,.684,0ZM20,39.633l.171-.116a.684.684,0,0,0,.308-.568V37.58H24.58v1.368a.684.684,0,0,0,.308.568l.171.116ZM24.58,34.5v1.711H20.474V34.5a1.711,1.711,0,0,0-1.711-1.711,1.87,1.87,0,0,0-.342.034V31.08a1.711,1.711,0,0,0-1.711-1.711,1.811,1.811,0,0,0-.609.109,1.711,1.711,0,0,0-3.127.616,1.609,1.609,0,0,0-.369-.041,1.711,1.711,0,0,0-1.683,1.41,1.609,1.609,0,0,0-.369-.041,1.711,1.711,0,0,0-1.711,1.711v3.079H3.471L4.648,28H40.406l1.177,8.211H36.212V33.133A1.711,1.711,0,0,0,34.5,31.422a1.653,1.653,0,0,0-.369.041,1.711,1.711,0,0,0-1.683-1.41,1.653,1.653,0,0,0-.369.041,1.711,1.711,0,0,0-3.127-.616,1.811,1.811,0,0,0-.609-.109,1.711,1.711,0,0,0-1.711,1.711v1.745a1.871,1.871,0,0,0-.342-.034A1.711,1.711,0,0,0,24.58,34.5Zm10.264,3.558-1.252,1.882a.662.662,0,0,0-.116.376V42.37H28V40.317a.684.684,0,0,0-.308-.568l-1.745-1.17V34.5a.342.342,0,1,1,.684,0v1.711a.684.684,0,0,0,1.368,0V31.08a.342.342,0,0,1,.684,0v3.079a.684.684,0,1,0,1.368,0V30.4a.342.342,0,0,1,.684,0v3.763a.684.684,0,0,0,1.368,0V31.764a.342.342,0,1,1,.684,0v3.079a.684.684,0,1,0,1.368,0V33.133a.342.342,0,1,1,.684,0Zm6.842.89a.684.684,0,0,1-.684.684H35.439l.657-.992a.662.662,0,0,0,.116-.376V37.58h5.474Z" transform="translate(0)"/>
      <path id="Path_1380" data-name="Path 1380" d="M33.106,7.368a4.79,4.79,0,0,0-4.318,2.737h-.472a.684.684,0,0,0-.438.157L26.12,11.727l-.541-.534V10.105a.684.684,0,0,0,.684-.684V6.684A.684.684,0,0,0,25.579,6H17.368a.684.684,0,0,0-.684.684V9.421a.684.684,0,0,0,.684.684v1.088L16.2,12.357a.707.707,0,0,0-.2.486v7.527a.684.684,0,0,0,.684.684h9.579a.684.684,0,0,0,.684-.684V12.842c0-.007-.007-.014-.007-.021l1.4-1.163a4,4,0,0,0-.027.5,4.8,4.8,0,0,0,4.79,4.79,4.539,4.539,0,0,0,.684-.055v2.627l-.609,1.225,1.218.616.684-1.368a.684.684,0,0,0,.075-.308V16.476a4.784,4.784,0,0,0-2.053-9.107Zm-15.053,0H24.9V8.737H18.053Zm7.527,12.316H17.368V13.123l1.17-1.163a.707.707,0,0,0,.2-.486V10.105h5.474v1.368a.707.707,0,0,0,.2.486l.657.65-1.293,1.074.876,1.054.931-.773Zm8.211-4.174V13.793l1.868.623A3.451,3.451,0,0,1,33.79,15.511ZM36.349,13.2l-3.024-1.006a.684.684,0,0,0-.616.1.673.673,0,0,0-.287.554v2.669a3.433,3.433,0,0,1-2.737-3.353,3.741,3.741,0,0,1,.068-.684h2.669V10.105H30.39a3.408,3.408,0,0,1,6.138,2.053A3.49,3.49,0,0,1,36.349,13.2Z" transform="translate(-4.421 -1.263)"/>
      <path id="Path_1381" data-name="Path 1381" d="M16,30h2.737v1.368H16Z" transform="translate(-4.421 -8.841)"/>
      <path id="Path_1382" data-name="Path 1382" d="M16,34H26.948v1.368H16Z" transform="translate(-4.421 -10.104)"/>
      <path id="Path_1383" data-name="Path 1383" d="M36,34h3.421v1.368H36Z" transform="translate(-10.736 -10.104)"/>
      <path id="Path_1384" data-name="Path 1384" d="M36,30h8.211v1.368H36Z" transform="translate(-10.736 -8.841)"/>
      <path id="Path_1385" data-name="Path 1385" d="M43,34v1.368h3.421V34H43Z" transform="translate(-12.946 -10.104)"/>
      <path id="Path_1386" data-name="Path 1386" d="M23.737,17H22.368v1.368H21v1.368h1.368v1.368h1.368V19.737h1.368V18.368H23.737Z" transform="translate(-6 -4.736)"/>
      <path id="Path_1387" data-name="Path 1387" d="M22,30h6.842v1.368H22Z" transform="translate(-6.315 -8.841)"/>
    </g>
  </g>
</svg>
