<svg xmlns="http://www.w3.org/2000/svg" width="132.034" height="21.146" viewBox="0 0 132.034 21.146">
  <g id="Group_1483" data-name="Group 1483" transform="translate(0)">
    <path id="Icon_awesome-star" data-name="Icon awesome-star" d="M11.3.735,8.606,6.2l-6.033.88a1.322,1.322,0,0,0-.731,2.255L6.207,13.59,5.174,19.6A1.321,1.321,0,0,0,7.09,20.99l5.4-2.837,5.4,2.837A1.322,1.322,0,0,0,19.8,19.6L18.769,13.59l4.365-4.253A1.322,1.322,0,0,0,22.4,7.082L16.369,6.2,13.673.735a1.323,1.323,0,0,0-2.37,0Z" transform="translate(-1.441 0.001)" fill="#ffb500"/>
    <path id="Icon_awesome-star-2" data-name="Icon awesome-star" d="M11.3.735,8.606,6.2l-6.033.88a1.322,1.322,0,0,0-.731,2.255L6.207,13.59,5.174,19.6A1.321,1.321,0,0,0,7.09,20.99l5.4-2.837,5.4,2.837A1.322,1.322,0,0,0,19.8,19.6L18.769,13.59l4.365-4.253A1.322,1.322,0,0,0,22.4,7.082L16.369,6.2,13.673.735a1.323,1.323,0,0,0-2.37,0Z" transform="translate(53.559 0.001)" fill="#ffb500"/>
    <path id="Icon_awesome-star-3" data-name="Icon awesome-star" d="M11.3.735,8.606,6.2l-6.033.88a1.322,1.322,0,0,0-.731,2.255L6.207,13.59,5.174,19.6A1.321,1.321,0,0,0,7.09,20.99l5.4-2.837,5.4,2.837A1.322,1.322,0,0,0,19.8,19.6L18.769,13.59l4.365-4.253A1.322,1.322,0,0,0,22.4,7.082L16.369,6.2,13.673.735a1.323,1.323,0,0,0-2.37,0Z" transform="translate(25.07 0.001)" fill="#ffb500"/>
    <path id="Icon_awesome-star-4" data-name="Icon awesome-star" d="M11.3.735,8.606,6.2l-6.033.88a1.322,1.322,0,0,0-.731,2.255L6.207,13.59,5.174,19.6A1.321,1.321,0,0,0,7.09,20.99l5.4-2.837,5.4,2.837A1.322,1.322,0,0,0,19.8,19.6L18.769,13.59l4.365-4.253A1.322,1.322,0,0,0,22.4,7.082L16.369,6.2,13.673.735a1.323,1.323,0,0,0-2.37,0Z" transform="translate(80.07 0.001)" fill="#ffb500"/>
    <path id="Icon_awesome-star-half-alt" data-name="Icon awesome-star-half-alt" d="M20.537,6.926l-5.911-.861L11.985.719a1.3,1.3,0,0,0-2.323,0L7.02,6.065l-5.911.86a1.292,1.292,0,0,0-.716,2.2l4.276,4.16L3.656,19.164a1.3,1.3,0,0,0,1.277,1.512,1.276,1.276,0,0,0,.6-.151l5.288-2.774,5.288,2.774a1.292,1.292,0,0,0,1.877-1.361L16.976,13.29l4.277-4.159a1.292,1.292,0,0,0-.716-2.2ZM15.621,11.9l-.732.712.173,1L15.85,18.2l-4.124-2.164-.9-.474V2.752l2.061,4.171.451.914,1.01.147,4.613.672L15.621,11.9Z" transform="translate(110.388 0.118)" fill="#ffb500"/>
  </g>
</svg>
