<svg xmlns="http://www.w3.org/2000/svg" width="74" height="74" viewBox="0 0 74 74">
  <g id="Group_1486" data-name="Group 1486" transform="translate(-548 -817)">
    <rect id="Rectangle_80" data-name="Rectangle 80" width="74" height="74" rx="5" transform="translate(548 817)" fill="#dcdbfc"/>
    <g id="Group_1244" data-name="Group 1244" transform="translate(562.329 831.05)">
      <g id="Group_1222" data-name="Group 1222" transform="translate(12.322 31.979)">
        <path id="Path_1343" data-name="Path 1343" d="M142.845,353.085h20.708v5.53H142.845Z" transform="translate(-142.845 -353.085)" fill="#c8d1da"/>
      </g>
      <g id="Group_1223" data-name="Group 1223" transform="translate(12.322 31.979)">
        <path id="Path_1344" data-name="Path 1344" d="M144.9,356.536v-3.451h-2.058v5.53h20.708v-2.079Z" transform="translate(-142.845 -353.085)" fill="#adb9c8"/>
      </g>
      <g id="Group_1224" data-name="Group 1224" transform="translate(13.643 29.244)">
        <path id="Path_1345" data-name="Path 1345" d="M157.178,323.417h18.066v2.765H157.178Z" transform="translate(-157.178 -323.417)" fill="#72869e"/>
      </g>
      <g id="Group_1225" data-name="Group 1225" transform="translate(13.643 37.494)">
        <path id="Path_1346" data-name="Path 1346" d="M157.178,412.918h18.066v2.765H157.178Z" transform="translate(-157.178 -412.918)" fill="#72869e"/>
      </g>
      <g id="Group_1226" data-name="Group 1226" transform="translate(12.322 40.244)">
        <path id="Path_1347" data-name="Path 1347" d="M142.845,442.752h20.708v5.53H142.845Z" transform="translate(-142.845 -442.752)" fill="#c8d1da"/>
      </g>
      <g id="Group_1227" data-name="Group 1227" transform="translate(0)">
        <path id="Path_1348" data-name="Path 1348" d="M45.745,15.094a8.746,8.746,0,0,0-2.114.258,13.214,13.214,0,0,0-25.389.687l-.566,2a7.351,7.351,0,1,0-1.168,14.608h30.53c5.442-1.46,7.438-5.111,7.438-8.821A8.731,8.731,0,0,0,45.745,15.094Z" transform="translate(-9.157 -6.134)" fill="#fff"/>
      </g>
      <g id="Group_1228" data-name="Group 1228" transform="translate(12.322 40.244)">
        <path id="Path_1349" data-name="Path 1349" d="M144.9,446.2v-3.451h-2.058v5.53h20.708V446.2Z" transform="translate(-142.845 -442.752)" fill="#adb9c8"/>
      </g>
      <g id="Group_1231" data-name="Group 1231" transform="translate(0 0)">
        <g id="Group_1229" data-name="Group 1229" transform="translate(33.655 8.923)">
          <path id="Path_1350" data-name="Path 1350" d="M375.055,104.851a16.2,16.2,0,0,1,2.875-.156,8.693,8.693,0,0,1,5.4,1.874,8.718,8.718,0,0,0-7.052-3.584c-.417,0-1.587-.072-1.988-.015A13.129,13.129,0,0,1,375.055,104.851Z" transform="translate(-374.294 -102.948)" fill="#cad8eb"/>
        </g>
        <g id="Group_1230" data-name="Group 1230">
          <path id="Path_1351" data-name="Path 1351" d="M10.8,27.005a7.351,7.351,0,0,1,8.519-7.258l.566-2a13.212,13.212,0,0,1,21.444-6.678,13.212,13.212,0,0,0-23.092,4.968l-.566,2a7.351,7.351,0,0,0-5.565,13.149A7.315,7.315,0,0,1,10.8,27.005Z" transform="translate(-9.157 -6.134)" fill="#cad8eb"/>
        </g>
      </g>
      <g id="Group_1232" data-name="Group 1232" transform="translate(14.381 34.053)">
        <path id="Path_1352" data-name="Path 1352" d="M165.178,375.584h1.383v1.383h-1.383Z" transform="translate(-165.178 -375.584)" fill="#fff"/>
      </g>
      <g id="Group_1233" data-name="Group 1233" transform="translate(17.146 34.053)">
        <path id="Path_1353" data-name="Path 1353" d="M195.178,375.584h1.383v1.383h-1.383Z" transform="translate(-195.178 -375.584)" fill="#fff"/>
      </g>
      <g id="Group_1234" data-name="Group 1234" transform="translate(14.381 42.317)">
        <path id="Path_1354" data-name="Path 1354" d="M165.178,465.251h1.383v1.383h-1.383Z" transform="translate(-165.178 -465.251)" fill="#fff"/>
      </g>
      <g id="Group_1235" data-name="Group 1235" transform="translate(17.146 42.317)">
        <path id="Path_1355" data-name="Path 1355" d="M195.178,465.251h1.383v1.383h-1.383Z" transform="translate(-195.178 -465.251)" fill="#fff"/>
      </g>
      <g id="Group_1236" data-name="Group 1236" transform="translate(12.322 23.714)">
        <path id="Path_1356" data-name="Path 1356" d="M142.845,263.419h20.708v5.53H142.845Z" transform="translate(-142.845 -263.419)" fill="#c8d1da"/>
      </g>
      <g id="Group_1237" data-name="Group 1237" transform="translate(12.322 23.714)">
        <path id="Path_1357" data-name="Path 1357" d="M144.9,266.87v-3.452h-2.058v5.53h20.708V266.87Z" transform="translate(-142.845 -263.418)" fill="#adb9c8"/>
      </g>
      <g id="Group_1238" data-name="Group 1238" transform="translate(14.381 25.788)">
        <path id="Path_1358" data-name="Path 1358" d="M165.178,285.918h1.383V287.3h-1.383Z" transform="translate(-165.178 -285.918)" fill="#fff"/>
      </g>
      <g id="Group_1239" data-name="Group 1239" transform="translate(17.146 25.788)">
        <path id="Path_1359" data-name="Path 1359" d="M195.178,285.918h1.383V287.3h-1.383Z" transform="translate(-195.178 -285.918)" fill="#fff"/>
      </g>
      <g id="Group_1240" data-name="Group 1240" transform="translate(30.223 15.376)">
        <circle id="Ellipse_39" data-name="Ellipse 39" cx="1.393" cy="1.393" r="1.393" fill="#e8ab4c"/>
      </g>
      <g id="Group_1241" data-name="Group 1241" transform="translate(25.83 8.094)">
        <circle id="Ellipse_40" data-name="Ellipse 40" cx="1.393" cy="1.393" r="1.393" fill="#9eb6f4"/>
      </g>
      <g id="Group_1242" data-name="Group 1242" transform="translate(16.8 4.316)">
        <circle id="Ellipse_41" data-name="Ellipse 41" cx="1.393" cy="1.393" r="1.393" transform="translate(0 0)" fill="#9ce3bf"/>
      </g>
      <g id="Group_1243" data-name="Group 1243" transform="translate(12.361 16.77)">
        <circle id="Ellipse_42" data-name="Ellipse 42" cx="1.393" cy="1.393" r="1.393" fill="#e08ea2"/>
      </g>
    </g>
    <g id="Group_1245" data-name="Group 1245" transform="translate(561.623 830.485)">
      <path id="Path_1360" data-name="Path 1360" d="M128.654,8.968a9.491,9.491,0,0,0-1.661.146,13.923,13.923,0,0,0-26.547,1.319l1.339.345a12.649,12.649,0,0,1,12.5-9.394c5.717.163,10.105,4.06,11.784,9.361a8.453,8.453,0,0,1,7.649,1.406,8.093,8.093,0,0,1,2.927,7.157,8.189,8.189,0,0,1-4.75,6.462,10.785,10.785,0,0,1-4.749.618v1.383a12.446,12.446,0,0,0,4.818-.531,9.57,9.57,0,0,0,5.907-6.86,9.529,9.529,0,0,0-9.223-11.412Z" transform="translate(-91.327 0)"/>
      <path id="Path_1361" data-name="Path 1361" d="M8.113,143.5a6.669,6.669,0,0,1-4.324-9.785,6.638,6.638,0,0,1,10.645-.991l1-.95a8.18,8.18,0,0,0-4.354-2.552v0A7.981,7.981,0,0,0,7.847,144.86a24.817,24.817,0,0,0,4.594.155v-1.383a28.153,28.153,0,0,1-4.327-.129Z" transform="translate(-1.502 -117.194)"/>
      <path id="Path_1362" data-name="Path 1362" d="M285.178,375.584h5.53v1.383h-5.53Z" transform="translate(-259.031 -340.966)"/>
      <path id="Path_1363" data-name="Path 1363" d="M248.174,435.251h1.383v1.383h-1.383Z" transform="translate(-225.438 -395.133)"/>
      <path id="Path_1364" data-name="Path 1364" d="M285.178,465.251h5.53v1.383h-5.53Z" transform="translate(-259.031 -422.368)"/>
      <path id="Path_1365" data-name="Path 1365" d="M248.174,315.917h1.383V317.3h-1.383Z" transform="translate(-225.438 -286.799)"/>
      <path id="Path_1366" data-name="Path 1366" d="M285.178,285.918h5.53V287.3h-5.53Z" transform="translate(-259.031 -259.565)"/>
      <path id="Path_1367" data-name="Path 1367" d="M151.229,59.326h2.148a2.085,2.085,0,1,0-.025-1.382h-3.506v6.909h-1.383V54.681l1.514-1.514a2.086,2.086,0,1,0-.947-1.008l-1.95,1.95V64.853H145.7V50.114l-1.841-1.841a2.088,2.088,0,1,0-.894,1.061l1.352,1.352V64.853h-1.383V59.264h-3.513a2.085,2.085,0,1,0,.026,1.383h2.1v4.206h-6.206v6.913h1.413v1.352h-1.413V80.03h1.413v1.352h-1.413v6.913h22.09V81.382h-1.321V80.03h1.321V73.117h-1.321V71.765h1.321V64.853h-6.206Zm4.1-1.429a.7.7,0,1,1-.7.7A.7.7,0,0,1,155.331,57.9Zm-4.393-7.282a.7.7,0,1,1-.7.7A.7.7,0,0,1,150.938,50.616Zm-9.732-3.077a.7.7,0,1,1,.7.7A.7.7,0,0,1,141.206,47.539ZM137.468,60.7a.7.7,0,1,1,.7-.7A.7.7,0,0,1,137.468,60.7Zm-.741,13.8h19.325v4.148H136.728Zm18,6.882H148.51v1.383h7.543v4.148H136.728V82.765h7.634V81.382h-6.221V80.03h16.591Zm1.321-11H148.51v1.383h6.222v1.352H138.141V71.765h6.221V70.383h-7.634V66.235h19.325Z" transform="translate(-123.009 -41.264)"/>
    </g>
  </g>
</svg>
